M48
;DRILL file {KiCad (5.0.0)} date 09/12/18 14:07:21
;FORMAT={3:3/ absolute / metric / suppress leading zeros}
FMAT,2
METRIC,TZ
T1C0.800
T2C3.200
%
G90
G05
M71
T1
X84300Y-100625
X89500Y-96250
X93400Y-102175
X93425Y-98325
X96850Y-102500
X117825Y-98700
X117825Y-98700
X117850Y-101750
X122471Y-98702
X129975Y-101275
X130000Y-96750
X131725Y-98800
X133075Y-101350
X142625Y-106575
X142750Y-101450
X142775Y-98125
X145675Y-98125
X151000Y-98425
X157775Y-98100
X157775Y-101075
X159475Y-106725
X163100Y-98725
X168525Y-101475
X170400Y-96325
X172500Y-101975
X172525Y-98775
X184100Y-98075
X184100Y-101825
X207325Y-101500
X207375Y-98200
X212500Y-102850
X212650Y-98850
T2
X165000Y-106550
X137000Y-106550
T0
M30
