G04 #@! TF.GenerationSoftware,KiCad,Pcbnew,(5.0.0)*
G04 #@! TF.CreationDate,2018-09-12T13:54:38+09:00*
G04 #@! TF.ProjectId,lancer_sensorbord_v1,6C616E6365725F73656E736F72626F72,rev?*
G04 #@! TF.SameCoordinates,Original*
G04 #@! TF.FileFunction,Copper,L2,Bot,Signal*
G04 #@! TF.FilePolarity,Positive*
%FSLAX46Y46*%
G04 Gerber Fmt 4.6, Leading zero omitted, Abs format (unit mm)*
G04 Created by KiCad (PCBNEW (5.0.0)) date 09/12/18 13:54:38*
%MOMM*%
%LPD*%
G01*
G04 APERTURE LIST*
G04 #@! TA.AperFunction,SMDPad,CuDef*
%ADD10R,1.100000X0.700000*%
G04 #@! TD*
G04 #@! TA.AperFunction,SMDPad,CuDef*
%ADD11R,1.200000X1.100000*%
G04 #@! TD*
G04 #@! TA.AperFunction,SMDPad,CuDef*
%ADD12R,0.800000X0.700000*%
G04 #@! TD*
G04 #@! TA.AperFunction,SMDPad,CuDef*
%ADD13R,0.800000X0.500000*%
G04 #@! TD*
G04 #@! TA.AperFunction,SMDPad,CuDef*
%ADD14R,2.200000X2.000000*%
G04 #@! TD*
G04 #@! TA.AperFunction,SMDPad,CuDef*
%ADD15R,0.230000X1.250000*%
G04 #@! TD*
G04 #@! TA.AperFunction,SMDPad,CuDef*
%ADD16R,1.800000X2.000000*%
G04 #@! TD*
G04 #@! TA.AperFunction,ViaPad*
%ADD17C,1.600000*%
G04 #@! TD*
G04 #@! TA.AperFunction,Conductor*
%ADD18C,0.350000*%
G04 #@! TD*
G04 #@! TA.AperFunction,Conductor*
%ADD19C,0.300000*%
G04 #@! TD*
G04 #@! TA.AperFunction,Conductor*
%ADD20C,0.290000*%
G04 #@! TD*
G04 #@! TA.AperFunction,Conductor*
%ADD21C,0.200000*%
G04 #@! TD*
G04 #@! TA.AperFunction,Conductor*
%ADD22C,0.254000*%
G04 #@! TD*
G04 APERTURE END LIST*
D10*
G04 #@! TO.P,C6,1*
G04 #@! TO.N,ANALOG_SEN4*
X159975000Y-98075000D03*
G04 #@! TO.P,C6,2*
G04 #@! TO.N,GND*
X159975000Y-99975000D03*
G04 #@! TD*
D11*
G04 #@! TO.P,PI4,3*
G04 #@! TO.N,GND*
X168400000Y-98700000D03*
G04 #@! TO.P,PI4,2*
G04 #@! TO.N,ANALOG_SEN4*
X165100000Y-98700000D03*
G04 #@! TO.P,PI4,4*
G04 #@! TO.N,VR4*
X168400000Y-96300000D03*
G04 #@! TO.P,PI4,1*
G04 #@! TO.N,GND*
X165100000Y-96300000D03*
G04 #@! TD*
G04 #@! TO.P,PI2,3*
G04 #@! TO.N,GND*
X127500000Y-98700000D03*
G04 #@! TO.P,PI2,2*
G04 #@! TO.N,ANALOG_SEN2*
X124200000Y-98700000D03*
G04 #@! TO.P,PI2,4*
G04 #@! TO.N,VR2*
X127500000Y-96300000D03*
G04 #@! TO.P,PI2,1*
G04 #@! TO.N,GND*
X124200000Y-96300000D03*
G04 #@! TD*
G04 #@! TO.P,PI5,3*
G04 #@! TO.N,GND*
X174500000Y-96400000D03*
G04 #@! TO.P,PI5,2*
G04 #@! TO.N,ANALOG_SEN5*
X177800000Y-96400000D03*
G04 #@! TO.P,PI5,4*
G04 #@! TO.N,VR5*
X174500000Y-98800000D03*
G04 #@! TO.P,PI5,1*
G04 #@! TO.N,GND*
X177800000Y-98800000D03*
G04 #@! TD*
G04 #@! TO.P,PI6,3*
G04 #@! TO.N,GND*
X214400000Y-96400000D03*
G04 #@! TO.P,PI6,2*
G04 #@! TO.N,ANALOG_SEN6*
X217700000Y-96400000D03*
G04 #@! TO.P,PI6,4*
G04 #@! TO.N,VR6*
X214400000Y-98800000D03*
G04 #@! TO.P,PI6,1*
G04 #@! TO.N,GND*
X217700000Y-98800000D03*
G04 #@! TD*
G04 #@! TO.P,PI1,3*
G04 #@! TO.N,GND*
X87600000Y-98700000D03*
G04 #@! TO.P,PI1,2*
G04 #@! TO.N,ANALOG_SEN1*
X84300000Y-98700000D03*
G04 #@! TO.P,PI1,4*
G04 #@! TO.N,VR1*
X87600000Y-96300000D03*
G04 #@! TO.P,PI1,1*
G04 #@! TO.N,GND*
X84300000Y-96300000D03*
G04 #@! TD*
G04 #@! TO.P,PI3,3*
G04 #@! TO.N,GND*
X133600000Y-96400000D03*
G04 #@! TO.P,PI3,2*
G04 #@! TO.N,ANALOG_SEN3*
X136900000Y-96400000D03*
G04 #@! TO.P,PI3,4*
G04 #@! TO.N,VR3*
X133600000Y-98800000D03*
G04 #@! TO.P,PI3,1*
G04 #@! TO.N,GND*
X136900000Y-98800000D03*
G04 #@! TD*
D10*
G04 #@! TO.P,C5,1*
G04 #@! TO.N,ANALOG_SEN3*
X140575000Y-98100000D03*
G04 #@! TO.P,C5,2*
G04 #@! TO.N,GND*
X140575000Y-100000000D03*
G04 #@! TD*
D12*
G04 #@! TO.P,C1,1*
G04 #@! TO.N,+3V3*
X153625000Y-98525000D03*
G04 #@! TO.P,C1,2*
G04 #@! TO.N,GND*
X153625000Y-100025000D03*
G04 #@! TD*
G04 #@! TO.P,C2,1*
G04 #@! TO.N,+3V3*
X148175000Y-98525000D03*
G04 #@! TO.P,C2,2*
G04 #@! TO.N,GND*
X148175000Y-100025000D03*
G04 #@! TD*
D10*
G04 #@! TO.P,C3,1*
G04 #@! TO.N,ANALOG_SEN1*
X91125000Y-98300000D03*
G04 #@! TO.P,C3,2*
G04 #@! TO.N,GND*
X91125000Y-100200000D03*
G04 #@! TD*
G04 #@! TO.P,C4,1*
G04 #@! TO.N,ANALOG_SEN2*
X120375000Y-97950000D03*
G04 #@! TO.P,C4,2*
G04 #@! TO.N,GND*
X120375000Y-99850000D03*
G04 #@! TD*
G04 #@! TO.P,C7,1*
G04 #@! TO.N,ANALOG_SEN5*
X181450000Y-98075000D03*
G04 #@! TO.P,C7,2*
G04 #@! TO.N,GND*
X181450000Y-99975000D03*
G04 #@! TD*
G04 #@! TO.P,C8,1*
G04 #@! TO.N,ANALOG_SEN6*
X209800000Y-98200000D03*
G04 #@! TO.P,C8,2*
G04 #@! TO.N,GND*
X209800000Y-100100000D03*
G04 #@! TD*
D13*
G04 #@! TO.P,R1,1*
G04 #@! TO.N,+3V3*
X91275000Y-95325000D03*
G04 #@! TO.P,R1,2*
G04 #@! TO.N,ANALOG_SEN1*
X91275000Y-96825000D03*
G04 #@! TD*
G04 #@! TO.P,R2,1*
G04 #@! TO.N,+3V3*
X120500000Y-95250000D03*
G04 #@! TO.P,R2,2*
G04 #@! TO.N,ANALOG_SEN2*
X120500000Y-96750000D03*
G04 #@! TD*
G04 #@! TO.P,R3,1*
G04 #@! TO.N,+3V3*
X140575000Y-95150000D03*
G04 #@! TO.P,R3,2*
G04 #@! TO.N,ANALOG_SEN3*
X140575000Y-96650000D03*
G04 #@! TD*
G04 #@! TO.P,R4,1*
G04 #@! TO.N,+3V3*
X159975000Y-95125000D03*
G04 #@! TO.P,R4,2*
G04 #@! TO.N,ANALOG_SEN4*
X159975000Y-96625000D03*
G04 #@! TD*
G04 #@! TO.P,R5,1*
G04 #@! TO.N,+3V3*
X181500000Y-95400000D03*
G04 #@! TO.P,R5,2*
G04 #@! TO.N,ANALOG_SEN5*
X181500000Y-96900000D03*
G04 #@! TD*
G04 #@! TO.P,R6,1*
G04 #@! TO.N,+3V3*
X209775000Y-95450000D03*
G04 #@! TO.P,R6,2*
G04 #@! TO.N,ANALOG_SEN6*
X209775000Y-96950000D03*
G04 #@! TD*
D14*
G04 #@! TO.P,P1,*
G04 #@! TO.N,*
X146150000Y-107575001D03*
X155950000Y-107575001D03*
D15*
G04 #@! TO.P,P1,1*
G04 #@! TO.N,+3V3*
X147800000Y-104900001D03*
D16*
G04 #@! TO.P,P1,*
G04 #@! TO.N,*
X155950000Y-107575001D03*
X146150000Y-107575001D03*
D15*
G04 #@! TO.P,P1,2*
G04 #@! TO.N,ANALOG_SEN1*
X148300000Y-104900001D03*
G04 #@! TO.P,P1,3*
G04 #@! TO.N,VR1*
X148800000Y-104900001D03*
G04 #@! TO.P,P1,4*
G04 #@! TO.N,ANALOG_SEN2*
X149300000Y-104900001D03*
G04 #@! TO.P,P1,5*
G04 #@! TO.N,VR2*
X149800000Y-104900001D03*
G04 #@! TO.P,P1,6*
G04 #@! TO.N,ANALOG_SEN3*
X150300000Y-104900001D03*
G04 #@! TO.P,P1,7*
G04 #@! TO.N,VR3*
X150800000Y-104900001D03*
G04 #@! TO.P,P1,8*
G04 #@! TO.N,ANALOG_SEN4*
X151300000Y-104900001D03*
G04 #@! TO.P,P1,9*
G04 #@! TO.N,VR4*
X151800000Y-104900001D03*
G04 #@! TO.P,P1,10*
G04 #@! TO.N,ANALOG_SEN5*
X152300000Y-104900001D03*
G04 #@! TO.P,P1,11*
G04 #@! TO.N,VR5*
X152800000Y-104900001D03*
G04 #@! TO.P,P1,12*
G04 #@! TO.N,ANALOG_SEN6*
X153300000Y-104900001D03*
G04 #@! TO.P,P1,13*
G04 #@! TO.N,VR6*
X153800000Y-104900001D03*
G04 #@! TO.P,P1,14*
G04 #@! TO.N,GND*
X154300000Y-104900001D03*
G04 #@! TD*
D17*
G04 #@! TO.N,+3V3*
X142625000Y-106575000D03*
X145675000Y-98125000D03*
G04 #@! TO.N,GND*
X159475000Y-106725000D03*
X151000000Y-98425000D03*
G04 #@! TO.N,ANALOG_SEN1*
X93425000Y-98325000D03*
X93400000Y-102175000D03*
X84300000Y-100625000D03*
G04 #@! TO.N,ANALOG_SEN2*
X122470594Y-98701790D03*
X117825000Y-98700000D03*
X117825000Y-98700000D03*
X117850000Y-101750000D03*
G04 #@! TO.N,ANALOG_SEN3*
X142750000Y-101450000D03*
X142775000Y-98125000D03*
G04 #@! TO.N,ANALOG_SEN4*
X163100000Y-98725000D03*
X157775000Y-98100000D03*
X157775000Y-101074990D03*
G04 #@! TO.N,ANALOG_SEN5*
X184100000Y-98075000D03*
X184100000Y-101825000D03*
G04 #@! TO.N,ANALOG_SEN6*
X207375000Y-98200002D03*
X207325002Y-101500000D03*
G04 #@! TO.N,VR1*
X89500000Y-96250000D03*
X96850000Y-102499978D03*
G04 #@! TO.N,VR2*
X129975000Y-101275000D03*
X130000000Y-96750000D03*
G04 #@! TO.N,VR3*
X131725000Y-98800000D03*
X133075000Y-101350000D03*
G04 #@! TO.N,VR4*
X168525000Y-101475000D03*
X170400000Y-96325010D03*
G04 #@! TO.N,VR5*
X172525000Y-98775000D03*
X172500000Y-101975000D03*
G04 #@! TO.N,VR6*
X212500000Y-102850000D03*
X212650011Y-98850000D03*
G04 #@! TD*
D18*
G04 #@! TO.N,+3V3*
X91275000Y-95325000D02*
X120500000Y-95325000D01*
X140475000Y-95250000D02*
X140575000Y-95150000D01*
X120500000Y-95250000D02*
X140475000Y-95250000D01*
X181200000Y-95100000D02*
X181500000Y-95400000D01*
X148175000Y-97825000D02*
X148175000Y-95150000D01*
X148175000Y-98525000D02*
X148175000Y-97825000D01*
X153625000Y-95200000D02*
X153675000Y-95150000D01*
X153625000Y-98525000D02*
X153625000Y-95200000D01*
X148175000Y-95150000D02*
X153675000Y-95150000D01*
D19*
X181550000Y-95450000D02*
X181500000Y-95400000D01*
X209775000Y-95450000D02*
X181550000Y-95450000D01*
X161125000Y-95150000D02*
X161825000Y-95150000D01*
D18*
X161425000Y-95150000D02*
X161825000Y-95150000D01*
X153675000Y-95150000D02*
X161125000Y-95150000D01*
X161125000Y-95150000D02*
X161375000Y-95150000D01*
D19*
X147800000Y-104900001D02*
X144299999Y-104900001D01*
X144299999Y-104900001D02*
X142625000Y-106575000D01*
X145675000Y-95175000D02*
X145700000Y-95150000D01*
X145675000Y-98125000D02*
X145675000Y-95175000D01*
D18*
X140575000Y-95150000D02*
X145700000Y-95150000D01*
X145700000Y-95150000D02*
X148175000Y-95150000D01*
X171014004Y-95150000D02*
X181200000Y-95150000D01*
X161825000Y-95150000D02*
X171014004Y-95150000D01*
G04 #@! TO.N,GND*
X210400000Y-99975000D02*
X210550000Y-100125000D01*
X181450000Y-99975000D02*
X210400000Y-99975000D01*
X120525000Y-100000000D02*
X120375000Y-99850000D01*
X91350000Y-99975000D02*
X91125000Y-100200000D01*
X120375000Y-99850000D02*
X120250000Y-99975000D01*
X120250000Y-99975000D02*
X91350000Y-99975000D01*
X210550000Y-100125000D02*
X211450000Y-100125000D01*
X215425000Y-100125000D02*
X215450000Y-100100000D01*
X215425000Y-100125000D02*
X217700000Y-100125000D01*
X217700000Y-100125000D02*
X217700000Y-98800000D01*
X211450000Y-100125000D02*
X212975000Y-100125000D01*
X212975000Y-100125000D02*
X215425000Y-100125000D01*
X177800000Y-98800000D02*
X177800000Y-100000000D01*
X177800000Y-100000000D02*
X181225000Y-100000000D01*
X173050000Y-100000000D02*
X177800000Y-100000000D01*
X168400000Y-99925000D02*
X168475000Y-100000000D01*
X168400000Y-98700000D02*
X168400000Y-99925000D01*
X136900000Y-99700000D02*
X136900000Y-100000000D01*
X136900000Y-98800000D02*
X136900000Y-99700000D01*
X140575000Y-100000000D02*
X136900000Y-100000000D01*
X136900000Y-100000000D02*
X132250000Y-100000000D01*
X127500000Y-99600000D02*
X127500000Y-100000000D01*
X127500000Y-98700000D02*
X127500000Y-99600000D01*
X132250000Y-100000000D02*
X127500000Y-100000000D01*
X127500000Y-100000000D02*
X122800000Y-100000000D01*
X122800000Y-100000000D02*
X120525000Y-100000000D01*
X214400000Y-96400000D02*
X213285996Y-96400000D01*
D19*
X211225000Y-100100000D02*
X211175000Y-100150000D01*
X211225000Y-97425000D02*
X211225000Y-100100000D01*
X213285996Y-96400000D02*
X212250000Y-96400000D01*
X212250000Y-96400000D02*
X211225000Y-97425000D01*
D18*
X168475000Y-100000000D02*
X170375000Y-100000000D01*
X170375000Y-100000000D02*
X173050000Y-100000000D01*
X163850000Y-100000000D02*
X168475000Y-100000000D01*
X162525000Y-100000000D02*
X163850000Y-100000000D01*
X91075000Y-100200000D02*
X91125000Y-100200000D01*
D19*
X87500000Y-101875000D02*
X90525000Y-101875000D01*
X91125000Y-101275000D02*
X91125000Y-100200000D01*
X90525000Y-101875000D02*
X91125000Y-101275000D01*
D18*
X158339014Y-100025000D02*
X162500000Y-100025000D01*
X157639014Y-99325000D02*
X158339014Y-100025000D01*
X162500000Y-100025000D02*
X162525000Y-100000000D01*
X154375000Y-99325000D02*
X157639014Y-99325000D01*
X153675000Y-100025000D02*
X154375000Y-99325000D01*
X153625000Y-100025000D02*
X153675000Y-100025000D01*
D19*
X87600000Y-101775000D02*
X87500000Y-101875000D01*
X87600000Y-98700000D02*
X87600000Y-101775000D01*
D18*
X83350000Y-96300000D02*
X84300000Y-96300000D01*
X82900000Y-96750000D02*
X83350000Y-96300000D01*
X82900000Y-101075000D02*
X82900000Y-96750000D01*
X87500000Y-101875000D02*
X83700000Y-101875000D01*
X83700000Y-101875000D02*
X82900000Y-101075000D01*
X121300001Y-98600001D02*
X121274998Y-98625004D01*
X121274998Y-99774998D02*
X121500000Y-100000000D01*
X121300001Y-98085995D02*
X121300001Y-98600001D01*
X123085996Y-96300000D02*
X121300001Y-98085995D01*
X121274998Y-98625004D02*
X121274998Y-99774998D01*
X124200000Y-96300000D02*
X123085996Y-96300000D01*
X130500000Y-98150000D02*
X130500000Y-99975000D01*
X133600000Y-96400000D02*
X132250000Y-96400000D01*
X132250000Y-96400000D02*
X130500000Y-98150000D01*
X141475000Y-99300000D02*
X140775000Y-100000000D01*
X148175000Y-100025000D02*
X143969479Y-100025000D01*
X140775000Y-100000000D02*
X140575000Y-100000000D01*
X143969479Y-100025000D02*
X143244479Y-99300000D01*
X143244479Y-99300000D02*
X141475000Y-99300000D01*
D19*
X154300000Y-104900001D02*
X157650001Y-104900001D01*
X157650001Y-104900001D02*
X159475000Y-106725000D01*
D18*
X148175000Y-100025000D02*
X151025000Y-100025000D01*
X151025000Y-100025000D02*
X153625000Y-100025000D01*
D19*
X151000000Y-100000000D02*
X151025000Y-100025000D01*
X151000000Y-98425000D02*
X151000000Y-100000000D01*
X170549998Y-97500002D02*
X170375000Y-97675000D01*
X173349998Y-97500002D02*
X170549998Y-97500002D01*
X174450000Y-96400000D02*
X173349998Y-97500002D01*
X174500000Y-96400000D02*
X174450000Y-96400000D01*
X170375000Y-97675000D02*
X170375000Y-100000000D01*
X161850000Y-99950000D02*
X161900000Y-100000000D01*
X161850000Y-98272996D02*
X161850000Y-99950000D01*
X165100000Y-96300000D02*
X163822996Y-96300000D01*
X163822996Y-96300000D02*
X161850000Y-98272996D01*
G04 #@! TO.N,ANALOG_SEN1*
X91275000Y-98150000D02*
X91125000Y-98300000D01*
X91275000Y-96825000D02*
X91275000Y-98150000D01*
X91125000Y-98300000D02*
X93400000Y-98300000D01*
X93400000Y-98300000D02*
X93425000Y-98325000D01*
X84300000Y-98700000D02*
X84300000Y-100625000D01*
X94874990Y-103649990D02*
X94199999Y-102974999D01*
X131165689Y-103649990D02*
X94874990Y-103649990D01*
X148300000Y-103875000D02*
X148125000Y-103700000D01*
X148300000Y-104900001D02*
X148300000Y-103875000D01*
X94199999Y-102974999D02*
X93400000Y-102175000D01*
X148125000Y-103700000D02*
X147457122Y-103700000D01*
X147457122Y-103700000D02*
X146982122Y-104175000D01*
X146982122Y-104175000D02*
X131690699Y-104175000D01*
X131690699Y-104175000D02*
X131165689Y-103649990D01*
G04 #@! TO.N,ANALOG_SEN2*
X124200000Y-98700000D02*
X122472384Y-98700000D01*
X122472384Y-98700000D02*
X122470594Y-98701790D01*
X149300000Y-103975001D02*
X149300000Y-104900001D01*
X149300000Y-103375000D02*
X149300000Y-103975001D01*
X147025000Y-102700000D02*
X148625000Y-102700000D01*
X131450000Y-102475000D02*
X132100011Y-103125011D01*
X148625000Y-102700000D02*
X149300000Y-103375000D01*
X132100011Y-103125011D02*
X146599989Y-103125011D01*
X146599989Y-103125011D02*
X147025000Y-102700000D01*
X118575000Y-97950000D02*
X117825000Y-98700000D01*
X120375000Y-97950000D02*
X118575000Y-97950000D01*
X119706370Y-102475000D02*
X131450000Y-102475000D01*
X118981370Y-101750000D02*
X119706370Y-102475000D01*
X117850000Y-101750000D02*
X118981370Y-101750000D01*
X120500000Y-97825000D02*
X120375000Y-97950000D01*
X120500000Y-96750000D02*
X120500000Y-97825000D01*
G04 #@! TO.N,ANALOG_SEN3*
X140325000Y-96400000D02*
X140575000Y-96650000D01*
X136900000Y-96400000D02*
X140325000Y-96400000D01*
X140575000Y-96650000D02*
X140575000Y-98100000D01*
X140575000Y-98100000D02*
X142750000Y-98100000D01*
X142750000Y-98100000D02*
X142775000Y-98125000D01*
X142750000Y-101450000D02*
X148807120Y-101450000D01*
X148807120Y-101450000D02*
X150300020Y-102942900D01*
D20*
X150300000Y-102942920D02*
X150300000Y-104900001D01*
X150300020Y-102942900D02*
X150300000Y-102942920D01*
D19*
G04 #@! TO.N,ANALOG_SEN4*
X165100000Y-98700000D02*
X163125000Y-98700000D01*
X163125000Y-98700000D02*
X163100000Y-98725000D01*
X159950000Y-98100000D02*
X159975000Y-98075000D01*
X157775000Y-98100000D02*
X159950000Y-98100000D01*
X159975000Y-96625000D02*
X159975000Y-98075000D01*
X156643630Y-101074990D02*
X157775000Y-101074990D01*
X153050010Y-101074990D02*
X156643630Y-101074990D01*
D20*
X151300000Y-102825000D02*
X153050010Y-101074990D01*
X151300000Y-104900001D02*
X151300000Y-102825000D01*
D19*
G04 #@! TO.N,ANALOG_SEN5*
X181500000Y-98025000D02*
X181450000Y-98075000D01*
X181500000Y-96900000D02*
X181500000Y-98025000D01*
X181000000Y-96400000D02*
X181500000Y-96900000D01*
X177800000Y-96400000D02*
X181000000Y-96400000D01*
X181450000Y-98075000D02*
X184100000Y-98075000D01*
X152300000Y-103975001D02*
X152300000Y-104900001D01*
X154599980Y-102100000D02*
X153525000Y-102100000D01*
X154599990Y-102099990D02*
X154599980Y-102100000D01*
X153525000Y-102100000D02*
X152300000Y-103325000D01*
X183100000Y-100825000D02*
X171025000Y-100825000D01*
X152300000Y-103325000D02*
X152300000Y-103975001D01*
X184100000Y-101825000D02*
X183100000Y-100825000D01*
X171025000Y-100825000D02*
X169125000Y-102725000D01*
X169125000Y-102725000D02*
X155807120Y-102725000D01*
X155807120Y-102725000D02*
X155182110Y-102099990D01*
X155182110Y-102099990D02*
X154599990Y-102099990D01*
G04 #@! TO.N,ANALOG_SEN6*
X217075000Y-94925000D02*
X212450000Y-94925000D01*
X217700000Y-96400000D02*
X217700000Y-95550000D01*
X217700000Y-95550000D02*
X217075000Y-94925000D01*
X207399998Y-98225000D02*
X207375000Y-98200002D01*
X208925000Y-98225000D02*
X207399998Y-98225000D01*
X208950000Y-98200000D02*
X208925000Y-98225000D01*
X209800000Y-98200000D02*
X208950000Y-98200000D01*
X209775000Y-98175000D02*
X209800000Y-98200000D01*
X209775000Y-96950000D02*
X209775000Y-98175000D01*
X209925000Y-96950000D02*
X209775000Y-96950000D01*
X211950000Y-94925000D02*
X209925000Y-96950000D01*
X212450000Y-94925000D02*
X211950000Y-94925000D01*
X153300000Y-103975001D02*
X153300000Y-104900001D01*
X153300000Y-103757122D02*
X153300000Y-103975001D01*
X153932122Y-103125000D02*
X153300000Y-103757122D01*
X205700002Y-103125000D02*
X170332122Y-103125000D01*
X207325002Y-101500000D02*
X205700002Y-103125000D01*
X169732122Y-103725000D02*
X155392878Y-103725000D01*
X170332122Y-103125000D02*
X169732122Y-103725000D01*
X155392878Y-103725000D02*
X154792878Y-103125000D01*
X154792878Y-103125000D02*
X153932122Y-103125000D01*
G04 #@! TO.N,VR1*
X87600000Y-96300000D02*
X89450000Y-96300000D01*
X89450000Y-96300000D02*
X89500000Y-96250000D01*
X148800000Y-103625000D02*
X148800000Y-104900001D01*
X148375000Y-103200000D02*
X148800000Y-103625000D01*
X147250000Y-103200000D02*
X148375000Y-103200000D01*
X97981370Y-102499978D02*
X98606392Y-103125000D01*
X96850000Y-102499978D02*
X97981370Y-102499978D01*
X98606392Y-103125000D02*
X131375000Y-103125000D01*
X131375000Y-103125000D02*
X131900000Y-103650000D01*
X131900000Y-103650000D02*
X146800000Y-103650000D01*
X146800000Y-103650000D02*
X147250000Y-103200000D01*
G04 #@! TO.N,VR2*
X127500000Y-96300000D02*
X129550000Y-96300000D01*
X129550000Y-96300000D02*
X130000000Y-96750000D01*
X146807122Y-102200000D02*
X148850000Y-102200000D01*
X148850000Y-102200000D02*
X149800010Y-103150010D01*
X149800010Y-103150010D02*
X149800010Y-104900001D01*
X146382111Y-102625011D02*
X146807122Y-102200000D01*
X132456381Y-102625011D02*
X146382111Y-102625011D01*
X131106370Y-101275000D02*
X132456381Y-102625011D01*
X129975000Y-101275000D02*
X131106370Y-101275000D01*
G04 #@! TO.N,VR3*
X133600000Y-98800000D02*
X131725000Y-98800000D01*
X142197999Y-100299999D02*
X141147998Y-101350000D01*
X143502001Y-100299999D02*
X142197999Y-100299999D01*
X150800000Y-104900001D02*
X150800000Y-103150040D01*
X150800028Y-103150012D02*
X150800028Y-102675028D01*
X141147998Y-101350000D02*
X133075000Y-101350000D01*
X150800028Y-102675028D02*
X148900000Y-100775000D01*
X148900000Y-100775000D02*
X143977002Y-100775000D01*
X150800000Y-103150040D02*
X150800028Y-103150012D01*
X143977002Y-100775000D02*
X143502001Y-100299999D01*
G04 #@! TO.N,VR4*
X153275010Y-101599990D02*
X151800000Y-103075000D01*
X154392880Y-101599980D02*
X154392870Y-101599990D01*
X154392870Y-101599990D02*
X153275010Y-101599990D01*
X151800000Y-103075000D02*
X151800000Y-104900001D01*
X156014240Y-102225000D02*
X155389220Y-101599980D01*
X155389220Y-101599980D02*
X154392880Y-101599980D01*
X168525000Y-101475000D02*
X167775000Y-102225000D01*
X167775000Y-102225000D02*
X156014240Y-102225000D01*
X168400000Y-96300000D02*
X170374990Y-96300000D01*
X170374990Y-96300000D02*
X170400000Y-96325010D01*
G04 #@! TO.N,VR5*
X174500000Y-98800000D02*
X172550000Y-98800000D01*
X172550000Y-98800000D02*
X172525000Y-98775000D01*
X152800000Y-103550000D02*
X152800000Y-104900001D01*
X153750000Y-102600000D02*
X152800000Y-103550000D01*
X154975000Y-102600000D02*
X153750000Y-102600000D01*
X170750000Y-101975000D02*
X170125000Y-102600000D01*
X170125000Y-102600000D02*
X170125000Y-102625000D01*
X172500000Y-101975000D02*
X170750000Y-101975000D01*
X170125000Y-102625000D02*
X169525000Y-103225000D01*
X169525000Y-103225000D02*
X155600000Y-103225000D01*
X155600000Y-103225000D02*
X154975000Y-102600000D01*
D21*
G04 #@! TO.N,VR6*
X153806080Y-104893920D02*
X153800000Y-104900000D01*
D19*
X214350000Y-98850000D02*
X214400000Y-98800000D01*
X212650011Y-98850000D02*
X214350000Y-98850000D01*
X153800000Y-103975001D02*
X153800000Y-104900001D01*
X154125001Y-103650000D02*
X153800000Y-103975001D01*
X211700010Y-103649990D02*
X170834311Y-103649990D01*
X212500000Y-102850000D02*
X211700010Y-103649990D01*
X170834311Y-103649990D02*
X170234301Y-104250000D01*
X170234301Y-104250000D02*
X155200000Y-104250000D01*
X155200000Y-104250000D02*
X154600000Y-103650000D01*
X154600000Y-103650000D02*
X154125001Y-103650000D01*
G04 #@! TD*
D22*
G04 #@! TO.N,GND*
G36*
X154590253Y-104750410D02*
X154634047Y-104815953D01*
X154699589Y-104859747D01*
X154699591Y-104859749D01*
X154759831Y-104900000D01*
X154893708Y-104989454D01*
X155122684Y-105035000D01*
X155122688Y-105035000D01*
X155199999Y-105050378D01*
X155277310Y-105035000D01*
X163354233Y-105035000D01*
X163105259Y-105283974D01*
X162765000Y-106105431D01*
X162765000Y-106994569D01*
X163105259Y-107816026D01*
X163654233Y-108365000D01*
X157697440Y-108365000D01*
X157697440Y-106575001D01*
X157648157Y-106327236D01*
X157507809Y-106117192D01*
X157297765Y-105976844D01*
X157050000Y-105927561D01*
X155003375Y-105927561D01*
X154973601Y-105907667D01*
X154925000Y-105898000D01*
X154552000Y-105898000D01*
X154552000Y-105577487D01*
X154562440Y-105525001D01*
X154562440Y-105090734D01*
X154585000Y-104977317D01*
X154585000Y-104745158D01*
X154590253Y-104750410D01*
X154590253Y-104750410D01*
G37*
X154590253Y-104750410D02*
X154634047Y-104815953D01*
X154699589Y-104859747D01*
X154699591Y-104859749D01*
X154759831Y-104900000D01*
X154893708Y-104989454D01*
X155122684Y-105035000D01*
X155122688Y-105035000D01*
X155199999Y-105050378D01*
X155277310Y-105035000D01*
X163354233Y-105035000D01*
X163105259Y-105283974D01*
X162765000Y-106105431D01*
X162765000Y-106994569D01*
X163105259Y-107816026D01*
X163654233Y-108365000D01*
X157697440Y-108365000D01*
X157697440Y-106575001D01*
X157648157Y-106327236D01*
X157507809Y-106117192D01*
X157297765Y-105976844D01*
X157050000Y-105927561D01*
X155003375Y-105927561D01*
X154973601Y-105907667D01*
X154925000Y-105898000D01*
X154552000Y-105898000D01*
X154552000Y-105577487D01*
X154562440Y-105525001D01*
X154562440Y-105090734D01*
X154585000Y-104977317D01*
X154585000Y-104745158D01*
X154590253Y-104750410D01*
G36*
X213398000Y-97606595D02*
X212935450Y-97415000D01*
X212364572Y-97415000D01*
X211837149Y-97633466D01*
X211433477Y-98037138D01*
X211215011Y-98564561D01*
X211215011Y-99135439D01*
X211433477Y-99662862D01*
X211837149Y-100066534D01*
X212364572Y-100285000D01*
X212935450Y-100285000D01*
X213462873Y-100066534D01*
X213576436Y-99952971D01*
X213800000Y-99997440D01*
X215000000Y-99997440D01*
X215247765Y-99948157D01*
X215457809Y-99807809D01*
X215528509Y-99702000D01*
X219315000Y-99702000D01*
X219315000Y-103365000D01*
X213839913Y-103365000D01*
X213935000Y-103135439D01*
X213935000Y-102564561D01*
X213716534Y-102037138D01*
X213312862Y-101633466D01*
X212785439Y-101415000D01*
X212214561Y-101415000D01*
X211687138Y-101633466D01*
X211283466Y-102037138D01*
X211065000Y-102564561D01*
X211065000Y-102864990D01*
X208752000Y-102864990D01*
X208752000Y-101804758D01*
X208760002Y-101785439D01*
X208760002Y-101214561D01*
X208541536Y-100687138D01*
X208137864Y-100283466D01*
X207610441Y-100065000D01*
X207039563Y-100065000D01*
X206512140Y-100283466D01*
X206108468Y-100687138D01*
X205890002Y-101214561D01*
X205890002Y-101785439D01*
X205901543Y-101813301D01*
X205374845Y-102340000D01*
X185439913Y-102340000D01*
X185535000Y-102110439D01*
X185535000Y-101539561D01*
X185316534Y-101012138D01*
X184912862Y-100608466D01*
X184385439Y-100390000D01*
X183814561Y-100390000D01*
X183786698Y-100401541D01*
X183709749Y-100324592D01*
X183665953Y-100259047D01*
X183406292Y-100085546D01*
X183177316Y-100040000D01*
X183177312Y-100040000D01*
X183100000Y-100024622D01*
X183022688Y-100040000D01*
X173220855Y-100040000D01*
X173337862Y-99991534D01*
X173489785Y-99839611D01*
X173652235Y-99948157D01*
X173900000Y-99997440D01*
X175100000Y-99997440D01*
X175347765Y-99948157D01*
X175557809Y-99807809D01*
X175628509Y-99702000D01*
X178675000Y-99702000D01*
X178723601Y-99692333D01*
X178764803Y-99664803D01*
X178792333Y-99623601D01*
X178802000Y-99575000D01*
X178802000Y-97445100D01*
X178857809Y-97407809D01*
X178998157Y-97197765D01*
X179000696Y-97185000D01*
X180459522Y-97185000D01*
X180471919Y-97247327D01*
X180442191Y-97267191D01*
X180301843Y-97477235D01*
X180252560Y-97725000D01*
X180252560Y-98425000D01*
X180301843Y-98672765D01*
X180442191Y-98882809D01*
X180652235Y-99023157D01*
X180900000Y-99072440D01*
X182000000Y-99072440D01*
X182247765Y-99023157D01*
X182457809Y-98882809D01*
X182473050Y-98860000D01*
X182871925Y-98860000D01*
X182883466Y-98887862D01*
X183287138Y-99291534D01*
X183814561Y-99510000D01*
X184385439Y-99510000D01*
X184912862Y-99291534D01*
X185316534Y-98887862D01*
X185535000Y-98360439D01*
X185535000Y-97789561D01*
X185527709Y-97771959D01*
X185547932Y-96235000D01*
X205948000Y-96235000D01*
X205948000Y-97895249D01*
X205940000Y-97914563D01*
X205940000Y-98485441D01*
X206158466Y-99012864D01*
X206562138Y-99416536D01*
X207089561Y-99635002D01*
X207660439Y-99635002D01*
X208187862Y-99416536D01*
X208591534Y-99012864D01*
X208592720Y-99010000D01*
X208795470Y-99010000D01*
X209002235Y-99148157D01*
X209250000Y-99197440D01*
X210350000Y-99197440D01*
X210597765Y-99148157D01*
X210807809Y-99007809D01*
X210948157Y-98797765D01*
X210997440Y-98550000D01*
X210997440Y-97850000D01*
X210948157Y-97602235D01*
X210807809Y-97392191D01*
X210786980Y-97378273D01*
X210822440Y-97200000D01*
X210822440Y-97162717D01*
X212275158Y-95710000D01*
X213398000Y-95710000D01*
X213398000Y-97606595D01*
X213398000Y-97606595D01*
G37*
X213398000Y-97606595D02*
X212935450Y-97415000D01*
X212364572Y-97415000D01*
X211837149Y-97633466D01*
X211433477Y-98037138D01*
X211215011Y-98564561D01*
X211215011Y-99135439D01*
X211433477Y-99662862D01*
X211837149Y-100066534D01*
X212364572Y-100285000D01*
X212935450Y-100285000D01*
X213462873Y-100066534D01*
X213576436Y-99952971D01*
X213800000Y-99997440D01*
X215000000Y-99997440D01*
X215247765Y-99948157D01*
X215457809Y-99807809D01*
X215528509Y-99702000D01*
X219315000Y-99702000D01*
X219315000Y-103365000D01*
X213839913Y-103365000D01*
X213935000Y-103135439D01*
X213935000Y-102564561D01*
X213716534Y-102037138D01*
X213312862Y-101633466D01*
X212785439Y-101415000D01*
X212214561Y-101415000D01*
X211687138Y-101633466D01*
X211283466Y-102037138D01*
X211065000Y-102564561D01*
X211065000Y-102864990D01*
X208752000Y-102864990D01*
X208752000Y-101804758D01*
X208760002Y-101785439D01*
X208760002Y-101214561D01*
X208541536Y-100687138D01*
X208137864Y-100283466D01*
X207610441Y-100065000D01*
X207039563Y-100065000D01*
X206512140Y-100283466D01*
X206108468Y-100687138D01*
X205890002Y-101214561D01*
X205890002Y-101785439D01*
X205901543Y-101813301D01*
X205374845Y-102340000D01*
X185439913Y-102340000D01*
X185535000Y-102110439D01*
X185535000Y-101539561D01*
X185316534Y-101012138D01*
X184912862Y-100608466D01*
X184385439Y-100390000D01*
X183814561Y-100390000D01*
X183786698Y-100401541D01*
X183709749Y-100324592D01*
X183665953Y-100259047D01*
X183406292Y-100085546D01*
X183177316Y-100040000D01*
X183177312Y-100040000D01*
X183100000Y-100024622D01*
X183022688Y-100040000D01*
X173220855Y-100040000D01*
X173337862Y-99991534D01*
X173489785Y-99839611D01*
X173652235Y-99948157D01*
X173900000Y-99997440D01*
X175100000Y-99997440D01*
X175347765Y-99948157D01*
X175557809Y-99807809D01*
X175628509Y-99702000D01*
X178675000Y-99702000D01*
X178723601Y-99692333D01*
X178764803Y-99664803D01*
X178792333Y-99623601D01*
X178802000Y-99575000D01*
X178802000Y-97445100D01*
X178857809Y-97407809D01*
X178998157Y-97197765D01*
X179000696Y-97185000D01*
X180459522Y-97185000D01*
X180471919Y-97247327D01*
X180442191Y-97267191D01*
X180301843Y-97477235D01*
X180252560Y-97725000D01*
X180252560Y-98425000D01*
X180301843Y-98672765D01*
X180442191Y-98882809D01*
X180652235Y-99023157D01*
X180900000Y-99072440D01*
X182000000Y-99072440D01*
X182247765Y-99023157D01*
X182457809Y-98882809D01*
X182473050Y-98860000D01*
X182871925Y-98860000D01*
X182883466Y-98887862D01*
X183287138Y-99291534D01*
X183814561Y-99510000D01*
X184385439Y-99510000D01*
X184912862Y-99291534D01*
X185316534Y-98887862D01*
X185535000Y-98360439D01*
X185535000Y-97789561D01*
X185527709Y-97771959D01*
X185547932Y-96235000D01*
X205948000Y-96235000D01*
X205948000Y-97895249D01*
X205940000Y-97914563D01*
X205940000Y-98485441D01*
X206158466Y-99012864D01*
X206562138Y-99416536D01*
X207089561Y-99635002D01*
X207660439Y-99635002D01*
X208187862Y-99416536D01*
X208591534Y-99012864D01*
X208592720Y-99010000D01*
X208795470Y-99010000D01*
X209002235Y-99148157D01*
X209250000Y-99197440D01*
X210350000Y-99197440D01*
X210597765Y-99148157D01*
X210807809Y-99007809D01*
X210948157Y-98797765D01*
X210997440Y-98550000D01*
X210997440Y-97850000D01*
X210948157Y-97602235D01*
X210807809Y-97392191D01*
X210786980Y-97378273D01*
X210822440Y-97200000D01*
X210822440Y-97162717D01*
X212275158Y-95710000D01*
X213398000Y-95710000D01*
X213398000Y-97606595D01*
G36*
X116397475Y-98396515D02*
X116390000Y-98414561D01*
X116390000Y-98985439D01*
X116608466Y-99512862D01*
X117012138Y-99916534D01*
X117539561Y-100135000D01*
X118110439Y-100135000D01*
X118637862Y-99916534D01*
X119041534Y-99512862D01*
X119260000Y-98985439D01*
X119260000Y-98735000D01*
X119351950Y-98735000D01*
X119367191Y-98757809D01*
X119577235Y-98898157D01*
X119825000Y-98947440D01*
X120925000Y-98947440D01*
X121035594Y-98925442D01*
X121035594Y-98987229D01*
X121123000Y-99198246D01*
X121123000Y-99575000D01*
X121132667Y-99623601D01*
X121160197Y-99664803D01*
X121201399Y-99692333D01*
X121250000Y-99702000D01*
X121441408Y-99702000D01*
X121657732Y-99918324D01*
X122185155Y-100136790D01*
X122756033Y-100136790D01*
X123283456Y-99918324D01*
X123353393Y-99848387D01*
X123600000Y-99897440D01*
X124800000Y-99897440D01*
X125047765Y-99848157D01*
X125257809Y-99707809D01*
X125261690Y-99702000D01*
X128375000Y-99702000D01*
X128423601Y-99692333D01*
X128464803Y-99664803D01*
X128492333Y-99623601D01*
X128502000Y-99575000D01*
X128502000Y-98177000D01*
X129695247Y-98177000D01*
X129714561Y-98185000D01*
X130285439Y-98185000D01*
X130455725Y-98114465D01*
X130290000Y-98514561D01*
X130290000Y-99085439D01*
X130508466Y-99612862D01*
X130554959Y-99659355D01*
X130558012Y-99674426D01*
X130585832Y-99715433D01*
X130627227Y-99742672D01*
X130640895Y-99745291D01*
X130912138Y-100016534D01*
X131439561Y-100235000D01*
X132010439Y-100235000D01*
X132537862Y-100016534D01*
X132664717Y-99889679D01*
X132735886Y-99937233D01*
X132262138Y-100133466D01*
X131858466Y-100537138D01*
X131747225Y-100805698D01*
X131716119Y-100774592D01*
X131672323Y-100709047D01*
X131412662Y-100535546D01*
X131204816Y-100494203D01*
X131191534Y-100462138D01*
X130787862Y-100058466D01*
X130260439Y-99840000D01*
X129689561Y-99840000D01*
X129162138Y-100058466D01*
X128758466Y-100462138D01*
X128540000Y-100989561D01*
X128540000Y-101560439D01*
X128593666Y-101690000D01*
X120031528Y-101690000D01*
X119591119Y-101249592D01*
X119547323Y-101184047D01*
X119287662Y-101010546D01*
X119079816Y-100969203D01*
X119066534Y-100937138D01*
X118662862Y-100533466D01*
X118135439Y-100315000D01*
X117564561Y-100315000D01*
X117037138Y-100533466D01*
X116633466Y-100937138D01*
X116415000Y-101464561D01*
X116415000Y-102035439D01*
X116541153Y-102340000D01*
X98931549Y-102340000D01*
X98591119Y-101999570D01*
X98547323Y-101934025D01*
X98287662Y-101760524D01*
X98079816Y-101719181D01*
X98066534Y-101687116D01*
X97662862Y-101283444D01*
X97135439Y-101064978D01*
X96564561Y-101064978D01*
X96545194Y-101073000D01*
X94327396Y-101073000D01*
X94212862Y-100958466D01*
X93685439Y-100740000D01*
X93114561Y-100740000D01*
X92587138Y-100958466D01*
X92183466Y-101362138D01*
X91965000Y-101889561D01*
X91965000Y-102460439D01*
X91973000Y-102479753D01*
X91973000Y-103365000D01*
X82685000Y-103365000D01*
X82685000Y-96227000D01*
X83298000Y-96227000D01*
X83298000Y-97654900D01*
X83242191Y-97692191D01*
X83101843Y-97902235D01*
X83052560Y-98150000D01*
X83052560Y-99250000D01*
X83101843Y-99497765D01*
X83220403Y-99675201D01*
X83083466Y-99812138D01*
X82865000Y-100339561D01*
X82865000Y-100910439D01*
X83083466Y-101437862D01*
X83487138Y-101841534D01*
X84014561Y-102060000D01*
X84585439Y-102060000D01*
X85112862Y-101841534D01*
X85516534Y-101437862D01*
X85735000Y-100910439D01*
X85735000Y-100339561D01*
X85516534Y-99812138D01*
X85406396Y-99702000D01*
X88475000Y-99702000D01*
X88523601Y-99692333D01*
X88564803Y-99664803D01*
X88592333Y-99623601D01*
X88602000Y-99575000D01*
X88602000Y-97381396D01*
X88687138Y-97466534D01*
X89214561Y-97685000D01*
X89785439Y-97685000D01*
X90066014Y-97568782D01*
X89976843Y-97702235D01*
X89927560Y-97950000D01*
X89927560Y-98650000D01*
X89976843Y-98897765D01*
X90117191Y-99107809D01*
X90327235Y-99248157D01*
X90575000Y-99297440D01*
X91675000Y-99297440D01*
X91922765Y-99248157D01*
X92132809Y-99107809D01*
X92148050Y-99085000D01*
X92186570Y-99085000D01*
X92208466Y-99137862D01*
X92612138Y-99541534D01*
X93139561Y-99760000D01*
X93710439Y-99760000D01*
X94237862Y-99541534D01*
X94641534Y-99137862D01*
X94860000Y-98610439D01*
X94860000Y-98039561D01*
X94852000Y-98020247D01*
X94852000Y-96135000D01*
X116375518Y-96135000D01*
X116397475Y-98396515D01*
X116397475Y-98396515D01*
G37*
X116397475Y-98396515D02*
X116390000Y-98414561D01*
X116390000Y-98985439D01*
X116608466Y-99512862D01*
X117012138Y-99916534D01*
X117539561Y-100135000D01*
X118110439Y-100135000D01*
X118637862Y-99916534D01*
X119041534Y-99512862D01*
X119260000Y-98985439D01*
X119260000Y-98735000D01*
X119351950Y-98735000D01*
X119367191Y-98757809D01*
X119577235Y-98898157D01*
X119825000Y-98947440D01*
X120925000Y-98947440D01*
X121035594Y-98925442D01*
X121035594Y-98987229D01*
X121123000Y-99198246D01*
X121123000Y-99575000D01*
X121132667Y-99623601D01*
X121160197Y-99664803D01*
X121201399Y-99692333D01*
X121250000Y-99702000D01*
X121441408Y-99702000D01*
X121657732Y-99918324D01*
X122185155Y-100136790D01*
X122756033Y-100136790D01*
X123283456Y-99918324D01*
X123353393Y-99848387D01*
X123600000Y-99897440D01*
X124800000Y-99897440D01*
X125047765Y-99848157D01*
X125257809Y-99707809D01*
X125261690Y-99702000D01*
X128375000Y-99702000D01*
X128423601Y-99692333D01*
X128464803Y-99664803D01*
X128492333Y-99623601D01*
X128502000Y-99575000D01*
X128502000Y-98177000D01*
X129695247Y-98177000D01*
X129714561Y-98185000D01*
X130285439Y-98185000D01*
X130455725Y-98114465D01*
X130290000Y-98514561D01*
X130290000Y-99085439D01*
X130508466Y-99612862D01*
X130554959Y-99659355D01*
X130558012Y-99674426D01*
X130585832Y-99715433D01*
X130627227Y-99742672D01*
X130640895Y-99745291D01*
X130912138Y-100016534D01*
X131439561Y-100235000D01*
X132010439Y-100235000D01*
X132537862Y-100016534D01*
X132664717Y-99889679D01*
X132735886Y-99937233D01*
X132262138Y-100133466D01*
X131858466Y-100537138D01*
X131747225Y-100805698D01*
X131716119Y-100774592D01*
X131672323Y-100709047D01*
X131412662Y-100535546D01*
X131204816Y-100494203D01*
X131191534Y-100462138D01*
X130787862Y-100058466D01*
X130260439Y-99840000D01*
X129689561Y-99840000D01*
X129162138Y-100058466D01*
X128758466Y-100462138D01*
X128540000Y-100989561D01*
X128540000Y-101560439D01*
X128593666Y-101690000D01*
X120031528Y-101690000D01*
X119591119Y-101249592D01*
X119547323Y-101184047D01*
X119287662Y-101010546D01*
X119079816Y-100969203D01*
X119066534Y-100937138D01*
X118662862Y-100533466D01*
X118135439Y-100315000D01*
X117564561Y-100315000D01*
X117037138Y-100533466D01*
X116633466Y-100937138D01*
X116415000Y-101464561D01*
X116415000Y-102035439D01*
X116541153Y-102340000D01*
X98931549Y-102340000D01*
X98591119Y-101999570D01*
X98547323Y-101934025D01*
X98287662Y-101760524D01*
X98079816Y-101719181D01*
X98066534Y-101687116D01*
X97662862Y-101283444D01*
X97135439Y-101064978D01*
X96564561Y-101064978D01*
X96545194Y-101073000D01*
X94327396Y-101073000D01*
X94212862Y-100958466D01*
X93685439Y-100740000D01*
X93114561Y-100740000D01*
X92587138Y-100958466D01*
X92183466Y-101362138D01*
X91965000Y-101889561D01*
X91965000Y-102460439D01*
X91973000Y-102479753D01*
X91973000Y-103365000D01*
X82685000Y-103365000D01*
X82685000Y-96227000D01*
X83298000Y-96227000D01*
X83298000Y-97654900D01*
X83242191Y-97692191D01*
X83101843Y-97902235D01*
X83052560Y-98150000D01*
X83052560Y-99250000D01*
X83101843Y-99497765D01*
X83220403Y-99675201D01*
X83083466Y-99812138D01*
X82865000Y-100339561D01*
X82865000Y-100910439D01*
X83083466Y-101437862D01*
X83487138Y-101841534D01*
X84014561Y-102060000D01*
X84585439Y-102060000D01*
X85112862Y-101841534D01*
X85516534Y-101437862D01*
X85735000Y-100910439D01*
X85735000Y-100339561D01*
X85516534Y-99812138D01*
X85406396Y-99702000D01*
X88475000Y-99702000D01*
X88523601Y-99692333D01*
X88564803Y-99664803D01*
X88592333Y-99623601D01*
X88602000Y-99575000D01*
X88602000Y-97381396D01*
X88687138Y-97466534D01*
X89214561Y-97685000D01*
X89785439Y-97685000D01*
X90066014Y-97568782D01*
X89976843Y-97702235D01*
X89927560Y-97950000D01*
X89927560Y-98650000D01*
X89976843Y-98897765D01*
X90117191Y-99107809D01*
X90327235Y-99248157D01*
X90575000Y-99297440D01*
X91675000Y-99297440D01*
X91922765Y-99248157D01*
X92132809Y-99107809D01*
X92148050Y-99085000D01*
X92186570Y-99085000D01*
X92208466Y-99137862D01*
X92612138Y-99541534D01*
X93139561Y-99760000D01*
X93710439Y-99760000D01*
X94237862Y-99541534D01*
X94641534Y-99137862D01*
X94860000Y-98610439D01*
X94860000Y-98039561D01*
X94852000Y-98020247D01*
X94852000Y-96135000D01*
X116375518Y-96135000D01*
X116397475Y-98396515D01*
G36*
X152815000Y-97685246D02*
X152767191Y-97717191D01*
X152626843Y-97927235D01*
X152577560Y-98175000D01*
X152577560Y-98875000D01*
X152626843Y-99122765D01*
X152767191Y-99332809D01*
X152977235Y-99473157D01*
X153225000Y-99522440D01*
X154025000Y-99522440D01*
X154272765Y-99473157D01*
X154482809Y-99332809D01*
X154520100Y-99277000D01*
X156922604Y-99277000D01*
X156962138Y-99316534D01*
X157489561Y-99535000D01*
X158060439Y-99535000D01*
X158587862Y-99316534D01*
X158991534Y-98912862D01*
X158996007Y-98902063D01*
X159177235Y-99023157D01*
X159425000Y-99072440D01*
X160525000Y-99072440D01*
X160698000Y-99038029D01*
X160698000Y-99500000D01*
X160707241Y-99547558D01*
X160734404Y-99589002D01*
X160775360Y-99616897D01*
X160823873Y-99626995D01*
X161982886Y-99637282D01*
X162287138Y-99941534D01*
X162814561Y-100160000D01*
X163385439Y-100160000D01*
X163912862Y-99941534D01*
X164104772Y-99749624D01*
X164252235Y-99848157D01*
X164500000Y-99897440D01*
X165700000Y-99897440D01*
X165947765Y-99848157D01*
X166157809Y-99707809D01*
X166180042Y-99674535D01*
X169273873Y-99701995D01*
X169323601Y-99692333D01*
X169364803Y-99664803D01*
X169392333Y-99623601D01*
X169402000Y-99575000D01*
X169402000Y-97752000D01*
X170095223Y-97752000D01*
X170114561Y-97760010D01*
X170685439Y-97760010D01*
X171212862Y-97541544D01*
X171616534Y-97137872D01*
X171835000Y-96610449D01*
X171835000Y-96039571D01*
X171802041Y-95960000D01*
X173498000Y-95960000D01*
X173498000Y-97523000D01*
X173252240Y-97523000D01*
X172810439Y-97340000D01*
X172239561Y-97340000D01*
X171712138Y-97558466D01*
X171308466Y-97962138D01*
X171090000Y-98489561D01*
X171090000Y-99060439D01*
X171308466Y-99587862D01*
X171712138Y-99991534D01*
X171829145Y-100040000D01*
X171102312Y-100040000D01*
X171025000Y-100024622D01*
X170947688Y-100040000D01*
X170947684Y-100040000D01*
X170878614Y-100053739D01*
X170851628Y-100048010D01*
X168901628Y-100023010D01*
X168851399Y-100032667D01*
X168828949Y-100047667D01*
X168810439Y-100040000D01*
X168239561Y-100040000D01*
X167712138Y-100258466D01*
X167308466Y-100662138D01*
X167090000Y-101189561D01*
X167090000Y-101440000D01*
X159177041Y-101440000D01*
X159210000Y-101360429D01*
X159210000Y-100789551D01*
X158991534Y-100262128D01*
X158587862Y-99858456D01*
X158060439Y-99639990D01*
X157489561Y-99639990D01*
X156962138Y-99858456D01*
X156558466Y-100262128D01*
X156546925Y-100289990D01*
X153101696Y-100289990D01*
X153050010Y-100279709D01*
X152998324Y-100289990D01*
X152972694Y-100289990D01*
X152932425Y-100298000D01*
X149533157Y-100298000D01*
X149509749Y-100274592D01*
X149465953Y-100209047D01*
X149206292Y-100035546D01*
X148977316Y-99990000D01*
X148977312Y-99990000D01*
X148900000Y-99974622D01*
X148822688Y-99990000D01*
X144302159Y-99990000D01*
X144111750Y-99799591D01*
X144067954Y-99734046D01*
X143808293Y-99560545D01*
X143579317Y-99514999D01*
X143579313Y-99514999D01*
X143502001Y-99499621D01*
X143424689Y-99514999D01*
X143169081Y-99514999D01*
X143587862Y-99341534D01*
X143677396Y-99252000D01*
X144772604Y-99252000D01*
X144862138Y-99341534D01*
X145389561Y-99560000D01*
X145960439Y-99560000D01*
X146487862Y-99341534D01*
X146577396Y-99252000D01*
X147263196Y-99252000D01*
X147317191Y-99332809D01*
X147527235Y-99473157D01*
X147775000Y-99522440D01*
X148575000Y-99522440D01*
X148822765Y-99473157D01*
X149032809Y-99332809D01*
X149173157Y-99122765D01*
X149222440Y-98875000D01*
X149222440Y-98175000D01*
X149173157Y-97927235D01*
X149032809Y-97717191D01*
X148985000Y-97685246D01*
X148985000Y-95960000D01*
X152815001Y-95960000D01*
X152815000Y-97685246D01*
X152815000Y-97685246D01*
G37*
X152815000Y-97685246D02*
X152767191Y-97717191D01*
X152626843Y-97927235D01*
X152577560Y-98175000D01*
X152577560Y-98875000D01*
X152626843Y-99122765D01*
X152767191Y-99332809D01*
X152977235Y-99473157D01*
X153225000Y-99522440D01*
X154025000Y-99522440D01*
X154272765Y-99473157D01*
X154482809Y-99332809D01*
X154520100Y-99277000D01*
X156922604Y-99277000D01*
X156962138Y-99316534D01*
X157489561Y-99535000D01*
X158060439Y-99535000D01*
X158587862Y-99316534D01*
X158991534Y-98912862D01*
X158996007Y-98902063D01*
X159177235Y-99023157D01*
X159425000Y-99072440D01*
X160525000Y-99072440D01*
X160698000Y-99038029D01*
X160698000Y-99500000D01*
X160707241Y-99547558D01*
X160734404Y-99589002D01*
X160775360Y-99616897D01*
X160823873Y-99626995D01*
X161982886Y-99637282D01*
X162287138Y-99941534D01*
X162814561Y-100160000D01*
X163385439Y-100160000D01*
X163912862Y-99941534D01*
X164104772Y-99749624D01*
X164252235Y-99848157D01*
X164500000Y-99897440D01*
X165700000Y-99897440D01*
X165947765Y-99848157D01*
X166157809Y-99707809D01*
X166180042Y-99674535D01*
X169273873Y-99701995D01*
X169323601Y-99692333D01*
X169364803Y-99664803D01*
X169392333Y-99623601D01*
X169402000Y-99575000D01*
X169402000Y-97752000D01*
X170095223Y-97752000D01*
X170114561Y-97760010D01*
X170685439Y-97760010D01*
X171212862Y-97541544D01*
X171616534Y-97137872D01*
X171835000Y-96610449D01*
X171835000Y-96039571D01*
X171802041Y-95960000D01*
X173498000Y-95960000D01*
X173498000Y-97523000D01*
X173252240Y-97523000D01*
X172810439Y-97340000D01*
X172239561Y-97340000D01*
X171712138Y-97558466D01*
X171308466Y-97962138D01*
X171090000Y-98489561D01*
X171090000Y-99060439D01*
X171308466Y-99587862D01*
X171712138Y-99991534D01*
X171829145Y-100040000D01*
X171102312Y-100040000D01*
X171025000Y-100024622D01*
X170947688Y-100040000D01*
X170947684Y-100040000D01*
X170878614Y-100053739D01*
X170851628Y-100048010D01*
X168901628Y-100023010D01*
X168851399Y-100032667D01*
X168828949Y-100047667D01*
X168810439Y-100040000D01*
X168239561Y-100040000D01*
X167712138Y-100258466D01*
X167308466Y-100662138D01*
X167090000Y-101189561D01*
X167090000Y-101440000D01*
X159177041Y-101440000D01*
X159210000Y-101360429D01*
X159210000Y-100789551D01*
X158991534Y-100262128D01*
X158587862Y-99858456D01*
X158060439Y-99639990D01*
X157489561Y-99639990D01*
X156962138Y-99858456D01*
X156558466Y-100262128D01*
X156546925Y-100289990D01*
X153101696Y-100289990D01*
X153050010Y-100279709D01*
X152998324Y-100289990D01*
X152972694Y-100289990D01*
X152932425Y-100298000D01*
X149533157Y-100298000D01*
X149509749Y-100274592D01*
X149465953Y-100209047D01*
X149206292Y-100035546D01*
X148977316Y-99990000D01*
X148977312Y-99990000D01*
X148900000Y-99974622D01*
X148822688Y-99990000D01*
X144302159Y-99990000D01*
X144111750Y-99799591D01*
X144067954Y-99734046D01*
X143808293Y-99560545D01*
X143579317Y-99514999D01*
X143579313Y-99514999D01*
X143502001Y-99499621D01*
X143424689Y-99514999D01*
X143169081Y-99514999D01*
X143587862Y-99341534D01*
X143677396Y-99252000D01*
X144772604Y-99252000D01*
X144862138Y-99341534D01*
X145389561Y-99560000D01*
X145960439Y-99560000D01*
X146487862Y-99341534D01*
X146577396Y-99252000D01*
X147263196Y-99252000D01*
X147317191Y-99332809D01*
X147527235Y-99473157D01*
X147775000Y-99522440D01*
X148575000Y-99522440D01*
X148822765Y-99473157D01*
X149032809Y-99332809D01*
X149173157Y-99122765D01*
X149222440Y-98875000D01*
X149222440Y-98175000D01*
X149173157Y-97927235D01*
X149032809Y-97717191D01*
X148985000Y-97685246D01*
X148985000Y-95960000D01*
X152815001Y-95960000D01*
X152815000Y-97685246D01*
G36*
X139640580Y-97243154D02*
X139567191Y-97292191D01*
X139426843Y-97502235D01*
X139377560Y-97750000D01*
X139377560Y-98450000D01*
X139426843Y-98697765D01*
X139567191Y-98907809D01*
X139777235Y-99048157D01*
X140025000Y-99097440D01*
X141125000Y-99097440D01*
X141372765Y-99048157D01*
X141553993Y-98927063D01*
X141558466Y-98937862D01*
X141962138Y-99341534D01*
X142380919Y-99514999D01*
X142275311Y-99514999D01*
X142197999Y-99499621D01*
X142120687Y-99514999D01*
X142120683Y-99514999D01*
X141891707Y-99560545D01*
X141632046Y-99734046D01*
X141588250Y-99799591D01*
X140822841Y-100565000D01*
X134303075Y-100565000D01*
X134291534Y-100537138D01*
X133887862Y-100133466D01*
X133559467Y-99997440D01*
X134200000Y-99997440D01*
X134447765Y-99948157D01*
X134657809Y-99807809D01*
X134714104Y-99723559D01*
X137775894Y-99701997D01*
X137823601Y-99692333D01*
X137864803Y-99664803D01*
X137892333Y-99623601D01*
X137902000Y-99575000D01*
X137902000Y-97445100D01*
X137957809Y-97407809D01*
X138098157Y-97197765D01*
X138100696Y-97185000D01*
X139601723Y-97185000D01*
X139640580Y-97243154D01*
X139640580Y-97243154D01*
G37*
X139640580Y-97243154D02*
X139567191Y-97292191D01*
X139426843Y-97502235D01*
X139377560Y-97750000D01*
X139377560Y-98450000D01*
X139426843Y-98697765D01*
X139567191Y-98907809D01*
X139777235Y-99048157D01*
X140025000Y-99097440D01*
X141125000Y-99097440D01*
X141372765Y-99048157D01*
X141553993Y-98927063D01*
X141558466Y-98937862D01*
X141962138Y-99341534D01*
X142380919Y-99514999D01*
X142275311Y-99514999D01*
X142197999Y-99499621D01*
X142120687Y-99514999D01*
X142120683Y-99514999D01*
X141891707Y-99560545D01*
X141632046Y-99734046D01*
X141588250Y-99799591D01*
X140822841Y-100565000D01*
X134303075Y-100565000D01*
X134291534Y-100537138D01*
X133887862Y-100133466D01*
X133559467Y-99997440D01*
X134200000Y-99997440D01*
X134447765Y-99948157D01*
X134657809Y-99807809D01*
X134714104Y-99723559D01*
X137775894Y-99701997D01*
X137823601Y-99692333D01*
X137864803Y-99664803D01*
X137892333Y-99623601D01*
X137902000Y-99575000D01*
X137902000Y-97445100D01*
X137957809Y-97407809D01*
X138098157Y-97197765D01*
X138100696Y-97185000D01*
X139601723Y-97185000D01*
X139640580Y-97243154D01*
G04 #@! TD*
M02*
