G04 #@! TF.GenerationSoftware,KiCad,Pcbnew,(5.0.0)*
G04 #@! TF.CreationDate,2018-08-26T14:55:12+09:00*
G04 #@! TF.ProjectId,lancer_sensorbord_v1,6C616E6365725F73656E736F72626F72,rev?*
G04 #@! TF.SameCoordinates,Original*
G04 #@! TF.FileFunction,Legend,Bot*
G04 #@! TF.FilePolarity,Positive*
%FSLAX46Y46*%
G04 Gerber Fmt 4.6, Leading zero omitted, Abs format (unit mm)*
G04 Created by KiCad (PCBNEW (5.0.0)) date 08/26/18 14:55:12*
%MOMM*%
%LPD*%
G01*
G04 APERTURE LIST*
%ADD10C,0.200000*%
%ADD11C,0.150000*%
%ADD12C,0.010000*%
G04 APERTURE END LIST*
D10*
X116871428Y-102778571D02*
X116871428Y-101278571D01*
X116514285Y-101278571D01*
X116300000Y-101350000D01*
X116157142Y-101492857D01*
X116085714Y-101635714D01*
X116014285Y-101921428D01*
X116014285Y-102135714D01*
X116085714Y-102421428D01*
X116157142Y-102564285D01*
X116300000Y-102707142D01*
X116514285Y-102778571D01*
X116871428Y-102778571D01*
X114800000Y-102707142D02*
X114942857Y-102778571D01*
X115228571Y-102778571D01*
X115371428Y-102707142D01*
X115442857Y-102564285D01*
X115442857Y-101992857D01*
X115371428Y-101850000D01*
X115228571Y-101778571D01*
X114942857Y-101778571D01*
X114800000Y-101850000D01*
X114728571Y-101992857D01*
X114728571Y-102135714D01*
X115442857Y-102278571D01*
X114157142Y-102707142D02*
X114014285Y-102778571D01*
X113728571Y-102778571D01*
X113585714Y-102707142D01*
X113514285Y-102564285D01*
X113514285Y-102492857D01*
X113585714Y-102350000D01*
X113728571Y-102278571D01*
X113942857Y-102278571D01*
X114085714Y-102207142D01*
X114157142Y-102064285D01*
X114157142Y-101992857D01*
X114085714Y-101850000D01*
X113942857Y-101778571D01*
X113728571Y-101778571D01*
X113585714Y-101850000D01*
X112871428Y-102778571D02*
X112871428Y-101778571D01*
X112871428Y-101278571D02*
X112942857Y-101350000D01*
X112871428Y-101421428D01*
X112800000Y-101350000D01*
X112871428Y-101278571D01*
X112871428Y-101421428D01*
X111514285Y-101778571D02*
X111514285Y-102992857D01*
X111585714Y-103135714D01*
X111657142Y-103207142D01*
X111800000Y-103278571D01*
X112014285Y-103278571D01*
X112157142Y-103207142D01*
X111514285Y-102707142D02*
X111657142Y-102778571D01*
X111942857Y-102778571D01*
X112085714Y-102707142D01*
X112157142Y-102635714D01*
X112228571Y-102492857D01*
X112228571Y-102064285D01*
X112157142Y-101921428D01*
X112085714Y-101850000D01*
X111942857Y-101778571D01*
X111657142Y-101778571D01*
X111514285Y-101850000D01*
X110800000Y-101778571D02*
X110800000Y-102778571D01*
X110800000Y-101921428D02*
X110728571Y-101850000D01*
X110585714Y-101778571D01*
X110371428Y-101778571D01*
X110228571Y-101850000D01*
X110157142Y-101992857D01*
X110157142Y-102778571D01*
X108871428Y-102707142D02*
X109014285Y-102778571D01*
X109300000Y-102778571D01*
X109442857Y-102707142D01*
X109514285Y-102564285D01*
X109514285Y-101992857D01*
X109442857Y-101850000D01*
X109300000Y-101778571D01*
X109014285Y-101778571D01*
X108871428Y-101850000D01*
X108800000Y-101992857D01*
X108800000Y-102135714D01*
X109514285Y-102278571D01*
X107514285Y-102778571D02*
X107514285Y-101278571D01*
X107514285Y-102707142D02*
X107657142Y-102778571D01*
X107942857Y-102778571D01*
X108085714Y-102707142D01*
X108157142Y-102635714D01*
X108228571Y-102492857D01*
X108228571Y-102064285D01*
X108157142Y-101921428D01*
X108085714Y-101850000D01*
X107942857Y-101778571D01*
X107657142Y-101778571D01*
X107514285Y-101850000D01*
X105657142Y-102778571D02*
X105657142Y-101278571D01*
X105657142Y-101850000D02*
X105514285Y-101778571D01*
X105228571Y-101778571D01*
X105085714Y-101850000D01*
X105014285Y-101921428D01*
X104942857Y-102064285D01*
X104942857Y-102492857D01*
X105014285Y-102635714D01*
X105085714Y-102707142D01*
X105228571Y-102778571D01*
X105514285Y-102778571D01*
X105657142Y-102707142D01*
X104442857Y-101778571D02*
X104085714Y-102778571D01*
X103728571Y-101778571D02*
X104085714Y-102778571D01*
X104228571Y-103135714D01*
X104300000Y-103207142D01*
X104442857Y-103278571D01*
X102085714Y-102707142D02*
X101871428Y-102778571D01*
X101514285Y-102778571D01*
X101371428Y-102707142D01*
X101300000Y-102635714D01*
X101228571Y-102492857D01*
X101228571Y-102350000D01*
X101300000Y-102207142D01*
X101371428Y-102135714D01*
X101514285Y-102064285D01*
X101800000Y-101992857D01*
X101942857Y-101921428D01*
X102014285Y-101850000D01*
X102085714Y-101707142D01*
X102085714Y-101564285D01*
X102014285Y-101421428D01*
X101942857Y-101350000D01*
X101800000Y-101278571D01*
X101442857Y-101278571D01*
X101228571Y-101350000D01*
X100585714Y-102778571D02*
X100585714Y-101278571D01*
X99942857Y-102778571D02*
X99942857Y-101992857D01*
X100014285Y-101850000D01*
X100157142Y-101778571D01*
X100371428Y-101778571D01*
X100514285Y-101850000D01*
X100585714Y-101921428D01*
X99228571Y-102778571D02*
X99228571Y-101778571D01*
X99228571Y-101278571D02*
X99300000Y-101350000D01*
X99228571Y-101421428D01*
X99157142Y-101350000D01*
X99228571Y-101278571D01*
X99228571Y-101421428D01*
X98514285Y-102778571D02*
X98514285Y-101778571D01*
X98514285Y-101921428D02*
X98442857Y-101850000D01*
X98300000Y-101778571D01*
X98085714Y-101778571D01*
X97942857Y-101850000D01*
X97871428Y-101992857D01*
X97871428Y-102778571D01*
X97871428Y-101992857D02*
X97800000Y-101850000D01*
X97657142Y-101778571D01*
X97442857Y-101778571D01*
X97300000Y-101850000D01*
X97228571Y-101992857D01*
X97228571Y-102778571D01*
X96300000Y-102778571D02*
X96442857Y-102707142D01*
X96514285Y-102635714D01*
X96585714Y-102492857D01*
X96585714Y-102064285D01*
X96514285Y-101921428D01*
X96442857Y-101850000D01*
X96300000Y-101778571D01*
X96085714Y-101778571D01*
X95942857Y-101850000D01*
X95871428Y-101921428D01*
X95800000Y-102064285D01*
X95800000Y-102492857D01*
X95871428Y-102635714D01*
X95942857Y-102707142D01*
X96085714Y-102778571D01*
X96300000Y-102778571D01*
X95371428Y-101778571D02*
X94800000Y-101778571D01*
X95157142Y-101278571D02*
X95157142Y-102564285D01*
X95085714Y-102707142D01*
X94942857Y-102778571D01*
X94800000Y-102778571D01*
X94085714Y-102778571D02*
X94228571Y-102707142D01*
X94300000Y-102635714D01*
X94371428Y-102492857D01*
X94371428Y-102064285D01*
X94300000Y-101921428D01*
X94228571Y-101850000D01*
X94085714Y-101778571D01*
X93871428Y-101778571D01*
X93728571Y-101850000D01*
X93657142Y-101921428D01*
X93585714Y-102064285D01*
X93585714Y-102492857D01*
X93657142Y-102635714D01*
X93728571Y-102707142D01*
X93871428Y-102778571D01*
X94085714Y-102778571D01*
X92942857Y-102778571D02*
X92942857Y-101778571D01*
X92942857Y-102064285D02*
X92871428Y-101921428D01*
X92800000Y-101850000D01*
X92657142Y-101778571D01*
X92514285Y-101778571D01*
X92014285Y-102778571D02*
X92014285Y-101778571D01*
X92014285Y-101278571D02*
X92085714Y-101350000D01*
X92014285Y-101421428D01*
X91942857Y-101350000D01*
X92014285Y-101278571D01*
X92014285Y-101421428D01*
X90157142Y-102778571D02*
X90157142Y-101278571D01*
X90157142Y-101992857D02*
X89300000Y-101992857D01*
X89300000Y-102778571D02*
X89300000Y-101278571D01*
X87942857Y-102778571D02*
X87942857Y-101992857D01*
X88014285Y-101850000D01*
X88157142Y-101778571D01*
X88442857Y-101778571D01*
X88585714Y-101850000D01*
X87942857Y-102707142D02*
X88085714Y-102778571D01*
X88442857Y-102778571D01*
X88585714Y-102707142D01*
X88657142Y-102564285D01*
X88657142Y-102421428D01*
X88585714Y-102278571D01*
X88442857Y-102207142D01*
X88085714Y-102207142D01*
X87942857Y-102135714D01*
X87228571Y-102778571D02*
X87228571Y-101778571D01*
X87228571Y-102064285D02*
X87157142Y-101921428D01*
X87085714Y-101850000D01*
X86942857Y-101778571D01*
X86800000Y-101778571D01*
X85657142Y-101778571D02*
X85657142Y-102778571D01*
X86300000Y-101778571D02*
X86300000Y-102564285D01*
X86228571Y-102707142D01*
X86085714Y-102778571D01*
X85871428Y-102778571D01*
X85728571Y-102707142D01*
X85657142Y-102635714D01*
X84942857Y-102778571D02*
X84942857Y-101278571D01*
X84800000Y-102207142D02*
X84371428Y-102778571D01*
X84371428Y-101778571D02*
X84942857Y-102350000D01*
X83728571Y-102778571D02*
X83728571Y-101778571D01*
X83728571Y-101278571D02*
X83800000Y-101350000D01*
X83728571Y-101421428D01*
X83657142Y-101350000D01*
X83728571Y-101278571D01*
X83728571Y-101421428D01*
D11*
G04 #@! TO.C,PI4*
X164300000Y-99500000D02*
X164300000Y-95600000D01*
X169200000Y-99500000D02*
X164300000Y-99500000D01*
X169200000Y-95600000D02*
X169200000Y-99500000D01*
X164300000Y-95600000D02*
X169200000Y-95600000D01*
G04 #@! TO.C,LineSensor*
X145100000Y-104100000D02*
X145100000Y-108700000D01*
X157000000Y-104100000D02*
X145100000Y-104100000D01*
X157000000Y-108700000D02*
X157000000Y-104100000D01*
X145100000Y-108700000D02*
X157000000Y-108700000D01*
X145100000Y-108700000D02*
X157000000Y-108700000D01*
X157000000Y-108700000D02*
X157000000Y-104100000D01*
X157000000Y-104100000D02*
X145100000Y-104100000D01*
X145100000Y-104100000D02*
X145100000Y-108700000D01*
G04 #@! TO.C,PI2*
X123400000Y-99500000D02*
X123400000Y-95600000D01*
X128300000Y-99500000D02*
X123400000Y-99500000D01*
X128300000Y-95600000D02*
X128300000Y-99500000D01*
X123400000Y-95600000D02*
X128300000Y-95600000D01*
G04 #@! TO.C,PI5*
X178600000Y-95600000D02*
X178600000Y-99500000D01*
X173700000Y-95600000D02*
X178600000Y-95600000D01*
X173700000Y-99500000D02*
X173700000Y-95600000D01*
X178600000Y-99500000D02*
X173700000Y-99500000D01*
G04 #@! TO.C,PI6*
X218500000Y-95600000D02*
X218500000Y-99500000D01*
X213600000Y-95600000D02*
X218500000Y-95600000D01*
X213600000Y-99500000D02*
X213600000Y-95600000D01*
X218500000Y-99500000D02*
X213600000Y-99500000D01*
G04 #@! TO.C,PI1*
X83500000Y-99500000D02*
X83500000Y-95600000D01*
X88400000Y-99500000D02*
X83500000Y-99500000D01*
X88400000Y-95600000D02*
X88400000Y-99500000D01*
X83500000Y-95600000D02*
X88400000Y-95600000D01*
G04 #@! TO.C,PI3*
X137700000Y-95600000D02*
X137700000Y-99500000D01*
X132800000Y-95600000D02*
X137700000Y-95600000D01*
X132800000Y-99500000D02*
X132800000Y-95600000D01*
X137700000Y-99500000D02*
X132800000Y-99500000D01*
D12*
G04 #@! TO.C,G\002A\002A\002A*
G36*
X119216412Y-103150169D02*
X119295554Y-103149914D01*
X119369572Y-103149508D01*
X119437202Y-103148965D01*
X119497182Y-103148301D01*
X119548247Y-103147530D01*
X119589135Y-103146668D01*
X119618582Y-103145728D01*
X119635325Y-103144727D01*
X119638314Y-103144279D01*
X119648575Y-103138150D01*
X119667265Y-103122974D01*
X119694633Y-103098517D01*
X119730928Y-103064545D01*
X119776397Y-103020824D01*
X119831289Y-102967121D01*
X119895853Y-102903201D01*
X119917846Y-102881300D01*
X120175606Y-102624299D01*
X120425846Y-102875054D01*
X120476122Y-102925248D01*
X120523822Y-102972515D01*
X120567865Y-103015808D01*
X120607171Y-103054081D01*
X120640659Y-103086290D01*
X120667248Y-103111386D01*
X120685857Y-103128326D01*
X120695406Y-103136062D01*
X120695682Y-103136218D01*
X120723820Y-103144734D01*
X120757048Y-103145694D01*
X120788087Y-103139139D01*
X120795980Y-103135664D01*
X120813646Y-103122518D01*
X120831406Y-103103354D01*
X120835534Y-103097694D01*
X120853885Y-103070688D01*
X120853885Y-102007273D01*
X120853880Y-101862053D01*
X120853858Y-101730639D01*
X120853811Y-101612323D01*
X120853730Y-101506399D01*
X120853605Y-101412157D01*
X120853430Y-101328891D01*
X120853194Y-101255892D01*
X120852889Y-101192453D01*
X120852506Y-101137866D01*
X120852037Y-101091423D01*
X120851472Y-101052416D01*
X120850803Y-101020137D01*
X120850021Y-100993879D01*
X120849118Y-100972934D01*
X120848084Y-100956593D01*
X120846912Y-100944150D01*
X120845591Y-100934896D01*
X120844114Y-100928124D01*
X120842471Y-100923126D01*
X120840654Y-100919193D01*
X120840421Y-100918753D01*
X120823087Y-100897064D01*
X120798283Y-100878531D01*
X120795736Y-100877138D01*
X120764517Y-100860628D01*
X120278952Y-100860628D01*
X120170961Y-100860721D01*
X120077046Y-100861005D01*
X119996771Y-100861487D01*
X119929700Y-100862173D01*
X119875394Y-100863072D01*
X119833419Y-100864188D01*
X119803337Y-100865531D01*
X119784712Y-100867106D01*
X119777537Y-100868646D01*
X119769382Y-100875240D01*
X119752036Y-100891098D01*
X119726550Y-100915200D01*
X119693977Y-100946528D01*
X119655369Y-100984063D01*
X119611778Y-101026786D01*
X119564256Y-101073679D01*
X119513856Y-101123723D01*
X119505920Y-101131630D01*
X119250156Y-101386596D01*
X118994292Y-101131280D01*
X118943409Y-101080756D01*
X118895079Y-101033247D01*
X118850374Y-100989774D01*
X118810365Y-100951356D01*
X118776124Y-100919014D01*
X118748724Y-100893767D01*
X118729236Y-100876637D01*
X118718732Y-100868644D01*
X118717998Y-100868296D01*
X118684837Y-100861178D01*
X118651645Y-100866041D01*
X118628125Y-100875724D01*
X118600659Y-100895071D01*
X118582768Y-100921553D01*
X118580730Y-100925921D01*
X118578887Y-100930668D01*
X118577229Y-100936508D01*
X118575747Y-100944156D01*
X118574431Y-100954330D01*
X118573270Y-100967744D01*
X118572255Y-100985113D01*
X118571377Y-101007155D01*
X118570625Y-101034584D01*
X118569989Y-101068115D01*
X118569460Y-101108465D01*
X118569029Y-101156350D01*
X118568684Y-101212484D01*
X118568565Y-101241672D01*
X118792857Y-101241672D01*
X118943420Y-101392236D01*
X119093984Y-101542800D01*
X119093950Y-101542834D01*
X119406137Y-101542834D01*
X119863199Y-101085600D01*
X120628914Y-101085600D01*
X120628914Y-101851315D01*
X120400296Y-102079846D01*
X120171679Y-102308377D01*
X119788908Y-101925605D01*
X119406137Y-101542834D01*
X119093950Y-101542834D01*
X118792857Y-101843927D01*
X118792857Y-101241672D01*
X118568565Y-101241672D01*
X118568417Y-101277584D01*
X118568217Y-101352365D01*
X118568075Y-101437543D01*
X118567980Y-101533833D01*
X118567924Y-101641951D01*
X118567896Y-101762614D01*
X118567886Y-101896535D01*
X118567885Y-102006637D01*
X118567865Y-102153769D01*
X118567827Y-102287085D01*
X118567804Y-102407282D01*
X118567828Y-102515058D01*
X118567934Y-102611112D01*
X118568154Y-102696142D01*
X118568521Y-102770844D01*
X118569068Y-102835918D01*
X118569828Y-102892060D01*
X118570601Y-102928914D01*
X118792857Y-102928914D01*
X118792857Y-102156113D01*
X119019599Y-101929285D01*
X119066845Y-101882102D01*
X119110921Y-101838241D01*
X119150775Y-101798738D01*
X119185353Y-101764630D01*
X119213602Y-101736953D01*
X119234470Y-101716743D01*
X119246903Y-101705038D01*
X119250039Y-101702457D01*
X119255640Y-101707461D01*
X119270686Y-101721942D01*
X119294371Y-101745100D01*
X119325888Y-101776137D01*
X119364431Y-101814254D01*
X119409194Y-101858652D01*
X119459370Y-101908534D01*
X119514153Y-101963099D01*
X119572737Y-102021549D01*
X119634315Y-102083086D01*
X119634677Y-102083449D01*
X120015617Y-102464440D01*
X120011842Y-102468217D01*
X120331369Y-102468217D01*
X120478261Y-102321194D01*
X120515976Y-102283508D01*
X120550237Y-102249395D01*
X120579742Y-102220140D01*
X120603189Y-102197032D01*
X120619274Y-102181357D01*
X120626695Y-102174403D01*
X120627033Y-102174171D01*
X120627440Y-102181175D01*
X120627816Y-102201170D01*
X120628152Y-102232636D01*
X120628439Y-102274049D01*
X120628667Y-102323887D01*
X120628826Y-102380629D01*
X120628906Y-102442752D01*
X120628914Y-102469833D01*
X120628914Y-102765496D01*
X120480142Y-102616856D01*
X120331369Y-102468217D01*
X120011842Y-102468217D01*
X119551313Y-102928914D01*
X118792857Y-102928914D01*
X118570601Y-102928914D01*
X118570834Y-102939969D01*
X118572119Y-102980343D01*
X118573717Y-103013879D01*
X118575660Y-103041276D01*
X118577981Y-103063232D01*
X118580713Y-103080443D01*
X118583890Y-103093609D01*
X118587544Y-103103427D01*
X118591709Y-103110595D01*
X118596417Y-103115810D01*
X118601701Y-103119772D01*
X118607595Y-103123177D01*
X118614132Y-103126723D01*
X118621101Y-103130947D01*
X118650277Y-103150257D01*
X119133410Y-103150257D01*
X119216412Y-103150169D01*
X119216412Y-103150169D01*
G37*
X119216412Y-103150169D02*
X119295554Y-103149914D01*
X119369572Y-103149508D01*
X119437202Y-103148965D01*
X119497182Y-103148301D01*
X119548247Y-103147530D01*
X119589135Y-103146668D01*
X119618582Y-103145728D01*
X119635325Y-103144727D01*
X119638314Y-103144279D01*
X119648575Y-103138150D01*
X119667265Y-103122974D01*
X119694633Y-103098517D01*
X119730928Y-103064545D01*
X119776397Y-103020824D01*
X119831289Y-102967121D01*
X119895853Y-102903201D01*
X119917846Y-102881300D01*
X120175606Y-102624299D01*
X120425846Y-102875054D01*
X120476122Y-102925248D01*
X120523822Y-102972515D01*
X120567865Y-103015808D01*
X120607171Y-103054081D01*
X120640659Y-103086290D01*
X120667248Y-103111386D01*
X120685857Y-103128326D01*
X120695406Y-103136062D01*
X120695682Y-103136218D01*
X120723820Y-103144734D01*
X120757048Y-103145694D01*
X120788087Y-103139139D01*
X120795980Y-103135664D01*
X120813646Y-103122518D01*
X120831406Y-103103354D01*
X120835534Y-103097694D01*
X120853885Y-103070688D01*
X120853885Y-102007273D01*
X120853880Y-101862053D01*
X120853858Y-101730639D01*
X120853811Y-101612323D01*
X120853730Y-101506399D01*
X120853605Y-101412157D01*
X120853430Y-101328891D01*
X120853194Y-101255892D01*
X120852889Y-101192453D01*
X120852506Y-101137866D01*
X120852037Y-101091423D01*
X120851472Y-101052416D01*
X120850803Y-101020137D01*
X120850021Y-100993879D01*
X120849118Y-100972934D01*
X120848084Y-100956593D01*
X120846912Y-100944150D01*
X120845591Y-100934896D01*
X120844114Y-100928124D01*
X120842471Y-100923126D01*
X120840654Y-100919193D01*
X120840421Y-100918753D01*
X120823087Y-100897064D01*
X120798283Y-100878531D01*
X120795736Y-100877138D01*
X120764517Y-100860628D01*
X120278952Y-100860628D01*
X120170961Y-100860721D01*
X120077046Y-100861005D01*
X119996771Y-100861487D01*
X119929700Y-100862173D01*
X119875394Y-100863072D01*
X119833419Y-100864188D01*
X119803337Y-100865531D01*
X119784712Y-100867106D01*
X119777537Y-100868646D01*
X119769382Y-100875240D01*
X119752036Y-100891098D01*
X119726550Y-100915200D01*
X119693977Y-100946528D01*
X119655369Y-100984063D01*
X119611778Y-101026786D01*
X119564256Y-101073679D01*
X119513856Y-101123723D01*
X119505920Y-101131630D01*
X119250156Y-101386596D01*
X118994292Y-101131280D01*
X118943409Y-101080756D01*
X118895079Y-101033247D01*
X118850374Y-100989774D01*
X118810365Y-100951356D01*
X118776124Y-100919014D01*
X118748724Y-100893767D01*
X118729236Y-100876637D01*
X118718732Y-100868644D01*
X118717998Y-100868296D01*
X118684837Y-100861178D01*
X118651645Y-100866041D01*
X118628125Y-100875724D01*
X118600659Y-100895071D01*
X118582768Y-100921553D01*
X118580730Y-100925921D01*
X118578887Y-100930668D01*
X118577229Y-100936508D01*
X118575747Y-100944156D01*
X118574431Y-100954330D01*
X118573270Y-100967744D01*
X118572255Y-100985113D01*
X118571377Y-101007155D01*
X118570625Y-101034584D01*
X118569989Y-101068115D01*
X118569460Y-101108465D01*
X118569029Y-101156350D01*
X118568684Y-101212484D01*
X118568565Y-101241672D01*
X118792857Y-101241672D01*
X118943420Y-101392236D01*
X119093984Y-101542800D01*
X119093950Y-101542834D01*
X119406137Y-101542834D01*
X119863199Y-101085600D01*
X120628914Y-101085600D01*
X120628914Y-101851315D01*
X120400296Y-102079846D01*
X120171679Y-102308377D01*
X119788908Y-101925605D01*
X119406137Y-101542834D01*
X119093950Y-101542834D01*
X118792857Y-101843927D01*
X118792857Y-101241672D01*
X118568565Y-101241672D01*
X118568417Y-101277584D01*
X118568217Y-101352365D01*
X118568075Y-101437543D01*
X118567980Y-101533833D01*
X118567924Y-101641951D01*
X118567896Y-101762614D01*
X118567886Y-101896535D01*
X118567885Y-102006637D01*
X118567865Y-102153769D01*
X118567827Y-102287085D01*
X118567804Y-102407282D01*
X118567828Y-102515058D01*
X118567934Y-102611112D01*
X118568154Y-102696142D01*
X118568521Y-102770844D01*
X118569068Y-102835918D01*
X118569828Y-102892060D01*
X118570601Y-102928914D01*
X118792857Y-102928914D01*
X118792857Y-102156113D01*
X119019599Y-101929285D01*
X119066845Y-101882102D01*
X119110921Y-101838241D01*
X119150775Y-101798738D01*
X119185353Y-101764630D01*
X119213602Y-101736953D01*
X119234470Y-101716743D01*
X119246903Y-101705038D01*
X119250039Y-101702457D01*
X119255640Y-101707461D01*
X119270686Y-101721942D01*
X119294371Y-101745100D01*
X119325888Y-101776137D01*
X119364431Y-101814254D01*
X119409194Y-101858652D01*
X119459370Y-101908534D01*
X119514153Y-101963099D01*
X119572737Y-102021549D01*
X119634315Y-102083086D01*
X119634677Y-102083449D01*
X120015617Y-102464440D01*
X120011842Y-102468217D01*
X120331369Y-102468217D01*
X120478261Y-102321194D01*
X120515976Y-102283508D01*
X120550237Y-102249395D01*
X120579742Y-102220140D01*
X120603189Y-102197032D01*
X120619274Y-102181357D01*
X120626695Y-102174403D01*
X120627033Y-102174171D01*
X120627440Y-102181175D01*
X120627816Y-102201170D01*
X120628152Y-102232636D01*
X120628439Y-102274049D01*
X120628667Y-102323887D01*
X120628826Y-102380629D01*
X120628906Y-102442752D01*
X120628914Y-102469833D01*
X120628914Y-102765496D01*
X120480142Y-102616856D01*
X120331369Y-102468217D01*
X120011842Y-102468217D01*
X119551313Y-102928914D01*
X118792857Y-102928914D01*
X118570601Y-102928914D01*
X118570834Y-102939969D01*
X118572119Y-102980343D01*
X118573717Y-103013879D01*
X118575660Y-103041276D01*
X118577981Y-103063232D01*
X118580713Y-103080443D01*
X118583890Y-103093609D01*
X118587544Y-103103427D01*
X118591709Y-103110595D01*
X118596417Y-103115810D01*
X118601701Y-103119772D01*
X118607595Y-103123177D01*
X118614132Y-103126723D01*
X118621101Y-103130947D01*
X118650277Y-103150257D01*
X119133410Y-103150257D01*
X119216412Y-103150169D01*
G36*
X119813839Y-103738085D02*
X119866575Y-103733601D01*
X119904685Y-103810229D01*
X119921608Y-103844039D01*
X119934589Y-103866733D01*
X119946519Y-103879999D01*
X119960290Y-103885525D01*
X119978796Y-103884999D01*
X120004927Y-103880110D01*
X120019231Y-103877086D01*
X120059063Y-103868714D01*
X120071943Y-103785765D01*
X120077225Y-103752870D01*
X120081922Y-103725687D01*
X120085501Y-103707160D01*
X120087368Y-103700269D01*
X120095409Y-103696710D01*
X120111431Y-103691555D01*
X120112528Y-103691238D01*
X120122312Y-103688914D01*
X120130502Y-103689585D01*
X120139132Y-103695026D01*
X120150237Y-103707010D01*
X120165853Y-103727311D01*
X120186735Y-103755941D01*
X120238328Y-103827129D01*
X120290293Y-103811346D01*
X120342257Y-103795562D01*
X120345885Y-103706223D01*
X120349514Y-103616884D01*
X120371285Y-103607585D01*
X120380782Y-103604013D01*
X120389103Y-103603531D01*
X120398568Y-103607576D01*
X120411500Y-103617587D01*
X120430221Y-103635000D01*
X120455508Y-103659734D01*
X120517960Y-103721181D01*
X120569911Y-103695019D01*
X120596016Y-103681308D01*
X120611224Y-103671361D01*
X120617919Y-103663085D01*
X120618485Y-103654386D01*
X120618133Y-103652671D01*
X120615398Y-103638573D01*
X120611176Y-103614273D01*
X120606175Y-103583917D01*
X120603570Y-103567543D01*
X120598682Y-103535676D01*
X120596262Y-103514991D01*
X120596520Y-103502333D01*
X120599667Y-103494545D01*
X120605914Y-103488473D01*
X120609011Y-103486061D01*
X120623685Y-103476751D01*
X120633407Y-103473361D01*
X120642182Y-103477354D01*
X120659945Y-103488330D01*
X120684059Y-103504577D01*
X120710135Y-103523110D01*
X120778740Y-103573021D01*
X120820987Y-103541417D01*
X120842076Y-103525533D01*
X120858259Y-103513142D01*
X120866329Y-103506703D01*
X120866569Y-103506478D01*
X120865715Y-103498704D01*
X120860912Y-103480032D01*
X120852951Y-103453281D01*
X120842890Y-103422070D01*
X120815875Y-103340997D01*
X120851769Y-103305103D01*
X120931460Y-103345069D01*
X121011150Y-103385036D01*
X121052012Y-103344173D01*
X121092875Y-103303311D01*
X121051650Y-103224879D01*
X121010426Y-103146446D01*
X121046287Y-103110585D01*
X121128596Y-103136363D01*
X121160848Y-103146130D01*
X121187732Y-103153641D01*
X121206431Y-103158151D01*
X121214121Y-103158926D01*
X121223464Y-103147877D01*
X121236634Y-103130353D01*
X121250978Y-103110161D01*
X121263840Y-103091104D01*
X121272566Y-103076989D01*
X121274800Y-103071955D01*
X121270735Y-103063690D01*
X121259726Y-103046493D01*
X121243547Y-103023035D01*
X121227628Y-103000950D01*
X121208492Y-102974052D01*
X121193118Y-102950866D01*
X121183290Y-102934186D01*
X121180618Y-102927355D01*
X121184881Y-102915062D01*
X121193318Y-102901745D01*
X121197723Y-102896113D01*
X121202357Y-102892118D01*
X121209170Y-102889868D01*
X121220112Y-102889468D01*
X121237132Y-102891025D01*
X121262183Y-102894642D01*
X121297212Y-102900428D01*
X121344172Y-102908488D01*
X121356442Y-102910601D01*
X121366929Y-102911314D01*
X121375295Y-102907553D01*
X121383907Y-102896838D01*
X121395126Y-102876690D01*
X121402419Y-102862370D01*
X121428438Y-102810703D01*
X121366575Y-102748251D01*
X121304711Y-102685800D01*
X121314710Y-102662441D01*
X121324708Y-102639082D01*
X121412933Y-102637041D01*
X121501159Y-102635000D01*
X121533981Y-102531402D01*
X121466162Y-102482862D01*
X121439069Y-102463224D01*
X121416637Y-102446499D01*
X121401338Y-102434562D01*
X121395694Y-102429432D01*
X121395583Y-102419685D01*
X121398954Y-102402817D01*
X121399179Y-102401979D01*
X121402202Y-102392350D01*
X121406815Y-102385496D01*
X121415596Y-102380389D01*
X121431124Y-102375997D01*
X121455980Y-102371292D01*
X121490127Y-102365668D01*
X121527195Y-102359647D01*
X121552577Y-102354273D01*
X121568808Y-102347304D01*
X121578427Y-102336494D01*
X121583969Y-102319600D01*
X121587970Y-102294379D01*
X121590310Y-102277047D01*
X121595238Y-102241216D01*
X121518476Y-102200042D01*
X121486056Y-102182465D01*
X121464344Y-102169804D01*
X121451196Y-102160224D01*
X121444472Y-102151892D01*
X121442027Y-102142973D01*
X121441714Y-102134351D01*
X121441714Y-102109836D01*
X121525438Y-102082280D01*
X121609161Y-102054725D01*
X121607080Y-101997108D01*
X121605000Y-101939492D01*
X121525171Y-101912937D01*
X121445342Y-101886383D01*
X121443107Y-101860012D01*
X121440871Y-101833641D01*
X121515678Y-101796244D01*
X121545419Y-101781294D01*
X121570003Y-101768782D01*
X121586752Y-101760081D01*
X121592946Y-101756615D01*
X121593155Y-101748892D01*
X121591328Y-101731250D01*
X121588133Y-101708030D01*
X121584240Y-101683571D01*
X121580319Y-101662214D01*
X121577038Y-101648300D01*
X121575797Y-101645436D01*
X121567780Y-101643018D01*
X121548428Y-101638873D01*
X121520734Y-101633603D01*
X121490999Y-101628370D01*
X121458465Y-101622692D01*
X121431686Y-101617731D01*
X121413605Y-101614053D01*
X121407191Y-101612296D01*
X121403872Y-101604512D01*
X121398832Y-101588640D01*
X121398495Y-101587472D01*
X121396172Y-101577693D01*
X121396841Y-101569506D01*
X121402275Y-101560879D01*
X121414248Y-101549779D01*
X121434533Y-101534173D01*
X121463293Y-101513196D01*
X121534576Y-101461533D01*
X121516518Y-101407824D01*
X121498459Y-101354114D01*
X121324899Y-101354114D01*
X121314805Y-101330528D01*
X121304711Y-101306943D01*
X121366575Y-101244491D01*
X121428438Y-101182040D01*
X121402903Y-101131335D01*
X121377369Y-101080630D01*
X121291822Y-101094237D01*
X121206276Y-101107844D01*
X121193527Y-101091279D01*
X121184128Y-101076519D01*
X121180618Y-101066592D01*
X121184611Y-101057811D01*
X121195582Y-101040050D01*
X121211818Y-101015953D01*
X121230133Y-100990187D01*
X121279808Y-100921904D01*
X121257245Y-100892512D01*
X121241540Y-100871601D01*
X121227839Y-100852607D01*
X121223504Y-100846287D01*
X121212327Y-100829453D01*
X121130291Y-100856789D01*
X121048254Y-100884124D01*
X121012360Y-100848230D01*
X121052326Y-100768540D01*
X121092292Y-100688849D01*
X121010941Y-100607498D01*
X120932759Y-100648792D01*
X120854577Y-100690085D01*
X120835652Y-100671342D01*
X120816728Y-100652598D01*
X120843193Y-100570734D01*
X120853022Y-100538427D01*
X120860142Y-100511221D01*
X120863876Y-100492004D01*
X120863586Y-100483695D01*
X120849882Y-100472984D01*
X120830927Y-100459307D01*
X120810495Y-100445235D01*
X120792360Y-100433339D01*
X120780295Y-100426191D01*
X120777736Y-100425200D01*
X120770090Y-100429251D01*
X120753421Y-100440227D01*
X120730332Y-100456362D01*
X120708207Y-100472371D01*
X120681308Y-100491507D01*
X120658123Y-100506881D01*
X120641443Y-100516710D01*
X120634612Y-100519381D01*
X120622324Y-100515093D01*
X120609170Y-100506681D01*
X120601812Y-100500426D01*
X120597610Y-100493566D01*
X120596355Y-100482943D01*
X120597839Y-100465399D01*
X120601856Y-100437775D01*
X120603813Y-100425200D01*
X120608896Y-100393355D01*
X120613553Y-100365466D01*
X120617083Y-100345680D01*
X120618217Y-100340071D01*
X120618415Y-100331070D01*
X120612880Y-100322841D01*
X120599225Y-100313291D01*
X120575064Y-100300331D01*
X120569911Y-100297723D01*
X120517960Y-100271561D01*
X120454670Y-100334557D01*
X120391381Y-100397554D01*
X120368633Y-100385790D01*
X120345885Y-100374027D01*
X120345885Y-100201540D01*
X120292425Y-100183566D01*
X120238965Y-100165591D01*
X120190272Y-100233623D01*
X120170603Y-100260761D01*
X120153846Y-100283240D01*
X120141872Y-100298594D01*
X120136689Y-100304305D01*
X120126960Y-100304404D01*
X120110027Y-100301035D01*
X120108863Y-100300724D01*
X120100719Y-100298611D01*
X120094567Y-100296030D01*
X120089782Y-100290999D01*
X120085739Y-100281537D01*
X120081812Y-100265662D01*
X120077375Y-100241391D01*
X120071805Y-100206744D01*
X120064569Y-100160341D01*
X120058901Y-100124083D01*
X120005469Y-100114514D01*
X119978988Y-100110636D01*
X119958185Y-100109192D01*
X119947028Y-100110429D01*
X119946435Y-100110858D01*
X119940925Y-100119355D01*
X119930306Y-100137827D01*
X119916200Y-100163394D01*
X119903020Y-100187916D01*
X119865206Y-100259060D01*
X119838909Y-100256858D01*
X119812611Y-100254657D01*
X119762255Y-100091371D01*
X119703913Y-100091392D01*
X119645571Y-100091412D01*
X119620068Y-100173035D01*
X119594565Y-100254657D01*
X119568307Y-100256858D01*
X119542050Y-100259060D01*
X119504236Y-100187916D01*
X119488472Y-100158652D01*
X119474846Y-100134092D01*
X119464984Y-100117119D01*
X119460821Y-100110858D01*
X119451443Y-100109201D01*
X119431827Y-100110260D01*
X119405941Y-100113791D01*
X119401787Y-100114514D01*
X119348355Y-100124083D01*
X119342687Y-100160341D01*
X119335380Y-100207198D01*
X119329826Y-100241717D01*
X119325399Y-100265883D01*
X119321474Y-100281675D01*
X119317425Y-100291076D01*
X119312629Y-100296069D01*
X119306458Y-100298633D01*
X119298393Y-100300724D01*
X119281227Y-100304284D01*
X119270843Y-100304431D01*
X119270567Y-100304305D01*
X119264635Y-100297672D01*
X119252202Y-100281647D01*
X119235139Y-100258697D01*
X119216984Y-100233623D01*
X119168291Y-100165591D01*
X119114831Y-100183566D01*
X119061371Y-100201540D01*
X119061371Y-100374027D01*
X119038623Y-100385790D01*
X119015876Y-100397554D01*
X118952586Y-100334557D01*
X118889297Y-100271561D01*
X118837346Y-100297723D01*
X118811225Y-100311447D01*
X118796003Y-100321415D01*
X118789294Y-100329718D01*
X118788713Y-100338447D01*
X118789040Y-100340071D01*
X118791730Y-100354171D01*
X118795904Y-100378473D01*
X118800859Y-100408832D01*
X118803443Y-100425200D01*
X118808294Y-100457078D01*
X118810685Y-100477776D01*
X118810408Y-100490452D01*
X118807256Y-100498265D01*
X118801021Y-100504373D01*
X118798086Y-100506681D01*
X118783012Y-100516051D01*
X118772644Y-100519381D01*
X118763291Y-100515361D01*
X118745169Y-100504349D01*
X118721068Y-100488128D01*
X118699050Y-100472371D01*
X118672614Y-100453300D01*
X118650443Y-100437925D01*
X118635139Y-100428013D01*
X118629520Y-100425200D01*
X118621834Y-100429064D01*
X118606218Y-100438942D01*
X118586446Y-100452263D01*
X118566292Y-100466456D01*
X118549529Y-100478949D01*
X118543670Y-100483695D01*
X118543408Y-100492217D01*
X118547197Y-100511574D01*
X118554362Y-100538877D01*
X118564063Y-100570734D01*
X118590528Y-100652598D01*
X118571604Y-100671342D01*
X118552679Y-100690085D01*
X118474497Y-100648792D01*
X118396315Y-100607498D01*
X118314964Y-100688849D01*
X118354930Y-100768540D01*
X118394896Y-100848230D01*
X118359002Y-100884124D01*
X118276966Y-100856789D01*
X118194929Y-100829453D01*
X118183752Y-100846287D01*
X118172578Y-100862200D01*
X118157208Y-100883035D01*
X118150011Y-100892512D01*
X118127448Y-100921904D01*
X118177124Y-100990187D01*
X118196717Y-101017801D01*
X118212639Y-101041538D01*
X118223175Y-101058754D01*
X118226638Y-101066592D01*
X118222417Y-101077878D01*
X118213729Y-101091279D01*
X118200981Y-101107844D01*
X118029887Y-101080630D01*
X118004353Y-101131335D01*
X117978818Y-101182040D01*
X118040681Y-101244491D01*
X118102545Y-101306943D01*
X118092451Y-101330528D01*
X118082357Y-101354114D01*
X117908797Y-101354114D01*
X117890739Y-101407824D01*
X117872680Y-101461533D01*
X117943964Y-101513196D01*
X117973841Y-101535002D01*
X117993713Y-101550362D01*
X118005353Y-101561306D01*
X118010534Y-101569869D01*
X118011030Y-101578084D01*
X118008761Y-101587472D01*
X118003681Y-101603664D01*
X118000188Y-101612152D01*
X118000065Y-101612296D01*
X117992462Y-101614315D01*
X117973482Y-101618131D01*
X117946067Y-101623179D01*
X117916258Y-101628370D01*
X117883595Y-101634139D01*
X117856570Y-101639328D01*
X117838172Y-101643333D01*
X117831459Y-101645436D01*
X117828783Y-101653700D01*
X117825115Y-101671688D01*
X117821124Y-101695058D01*
X117817479Y-101719470D01*
X117814849Y-101740585D01*
X117813905Y-101754060D01*
X117814310Y-101756615D01*
X117821397Y-101760553D01*
X117838803Y-101769577D01*
X117863850Y-101782312D01*
X117891578Y-101796244D01*
X117966385Y-101833641D01*
X117964150Y-101860012D01*
X117961914Y-101886383D01*
X117882085Y-101912937D01*
X117802257Y-101939492D01*
X117800176Y-101997108D01*
X117800072Y-102000000D01*
X118064077Y-102000000D01*
X118064958Y-101920760D01*
X118067564Y-101852458D01*
X118072355Y-101791569D01*
X118079793Y-101734573D01*
X118090337Y-101677946D01*
X118104450Y-101618165D01*
X118122591Y-101551709D01*
X118122842Y-101550835D01*
X118171593Y-101406221D01*
X118232767Y-101268153D01*
X118305643Y-101137271D01*
X118389504Y-101014217D01*
X118483630Y-100899630D01*
X118587302Y-100794151D01*
X118699802Y-100698420D01*
X118820410Y-100613079D01*
X118948409Y-100538768D01*
X119083078Y-100476127D01*
X119223700Y-100425796D01*
X119369555Y-100388417D01*
X119442371Y-100375078D01*
X119486331Y-100368208D01*
X119522776Y-100363039D01*
X119554960Y-100359375D01*
X119586136Y-100357020D01*
X119619559Y-100355780D01*
X119658482Y-100355457D01*
X119706160Y-100355857D01*
X119750800Y-100356532D01*
X119810988Y-100357983D01*
X119860950Y-100360380D01*
X119904961Y-100364085D01*
X119947297Y-100369461D01*
X119992234Y-100376873D01*
X119993914Y-100377175D01*
X120145530Y-100411565D01*
X120290952Y-100458612D01*
X120429616Y-100517685D01*
X120560961Y-100588154D01*
X120684425Y-100669391D01*
X120799446Y-100760765D01*
X120905461Y-100861647D01*
X121001908Y-100971406D01*
X121088226Y-101089414D01*
X121163853Y-101215039D01*
X121228226Y-101347653D01*
X121280783Y-101486625D01*
X121320962Y-101631326D01*
X121348201Y-101781126D01*
X121360555Y-101908466D01*
X121362605Y-102063222D01*
X121350504Y-102215723D01*
X121324537Y-102365225D01*
X121284988Y-102510984D01*
X121232142Y-102652257D01*
X121166284Y-102788300D01*
X121087697Y-102918370D01*
X120996668Y-103041723D01*
X120893479Y-103157615D01*
X120875617Y-103175657D01*
X120760126Y-103280614D01*
X120637158Y-103373233D01*
X120507268Y-103453263D01*
X120371010Y-103520456D01*
X120228940Y-103574561D01*
X120081611Y-103615331D01*
X119929578Y-103642515D01*
X119811735Y-103653904D01*
X119659027Y-103656344D01*
X119508884Y-103644904D01*
X119362043Y-103620101D01*
X119219241Y-103582456D01*
X119081215Y-103532485D01*
X118948702Y-103470707D01*
X118822440Y-103397641D01*
X118703165Y-103313805D01*
X118591615Y-103219718D01*
X118488527Y-103115897D01*
X118394638Y-103002862D01*
X118310685Y-102881131D01*
X118237406Y-102751221D01*
X118175537Y-102613653D01*
X118125815Y-102468943D01*
X118125564Y-102468085D01*
X118105947Y-102397246D01*
X118090731Y-102332608D01*
X118079444Y-102270586D01*
X118071615Y-102207596D01*
X118066775Y-102140053D01*
X118064451Y-102064372D01*
X118064077Y-102000000D01*
X117800072Y-102000000D01*
X117798095Y-102054725D01*
X117881819Y-102082280D01*
X117965542Y-102109836D01*
X117965542Y-102134351D01*
X117964959Y-102145018D01*
X117961781Y-102153657D01*
X117953865Y-102162102D01*
X117939069Y-102172186D01*
X117915250Y-102185743D01*
X117888780Y-102200042D01*
X117812018Y-102241216D01*
X117816946Y-102277047D01*
X117821155Y-102307540D01*
X117825572Y-102328526D01*
X117832734Y-102342250D01*
X117845178Y-102350956D01*
X117865439Y-102356887D01*
X117896056Y-102362288D01*
X117917129Y-102365668D01*
X117953096Y-102371605D01*
X117977313Y-102376262D01*
X117992359Y-102380668D01*
X118000814Y-102385852D01*
X118005256Y-102392844D01*
X118008077Y-102401979D01*
X118011588Y-102419013D01*
X118011656Y-102429236D01*
X118011562Y-102429432D01*
X118004927Y-102435367D01*
X117988906Y-102447798D01*
X117965968Y-102464853D01*
X117941094Y-102482862D01*
X117873275Y-102531402D01*
X117889686Y-102583201D01*
X117906098Y-102635000D01*
X118082548Y-102639082D01*
X118092546Y-102662441D01*
X118102545Y-102685800D01*
X118040681Y-102748251D01*
X117978818Y-102810703D01*
X118004837Y-102862370D01*
X118018237Y-102888140D01*
X118027851Y-102903242D01*
X118036044Y-102910155D01*
X118045179Y-102911360D01*
X118050814Y-102910601D01*
X118100694Y-102902021D01*
X118138210Y-102895739D01*
X118165312Y-102891648D01*
X118183951Y-102889642D01*
X118196077Y-102889616D01*
X118203640Y-102891463D01*
X118208590Y-102895078D01*
X118212878Y-102900355D01*
X118213938Y-102901745D01*
X118223284Y-102916895D01*
X118226638Y-102927355D01*
X118222616Y-102936683D01*
X118211591Y-102954810D01*
X118195333Y-102978971D01*
X118178919Y-103001916D01*
X118158859Y-103030629D01*
X118144078Y-103054578D01*
X118135974Y-103071350D01*
X118135056Y-103077621D01*
X118141333Y-103088854D01*
X118152938Y-103106049D01*
X118167125Y-103125536D01*
X118181148Y-103143644D01*
X118192262Y-103156701D01*
X118197506Y-103161101D01*
X118205573Y-103159028D01*
X118224567Y-103153428D01*
X118251581Y-103145174D01*
X118281228Y-103135922D01*
X118361057Y-103110785D01*
X118378944Y-103128615D01*
X118396830Y-103146446D01*
X118355606Y-103224879D01*
X118314382Y-103303311D01*
X118355244Y-103344173D01*
X118396106Y-103385036D01*
X118475797Y-103345069D01*
X118555487Y-103305103D01*
X118591381Y-103340997D01*
X118564367Y-103422070D01*
X118554086Y-103453989D01*
X118546190Y-103480581D01*
X118541472Y-103499027D01*
X118540687Y-103506478D01*
X118547750Y-103512172D01*
X118563253Y-103524069D01*
X118583989Y-103539710D01*
X118586269Y-103541417D01*
X118628516Y-103573021D01*
X118697122Y-103523110D01*
X118724800Y-103503467D01*
X118748603Y-103487492D01*
X118765893Y-103476894D01*
X118773849Y-103473361D01*
X118785173Y-103477585D01*
X118798245Y-103486061D01*
X118805677Y-103492294D01*
X118809932Y-103499089D01*
X118811221Y-103509601D01*
X118809755Y-103526987D01*
X118805745Y-103554402D01*
X118803686Y-103567543D01*
X118798562Y-103599385D01*
X118793856Y-103627273D01*
X118790279Y-103647059D01*
X118789124Y-103652671D01*
X118788864Y-103661658D01*
X118794320Y-103669858D01*
X118807873Y-103679363D01*
X118831907Y-103692267D01*
X118837346Y-103695019D01*
X118889297Y-103721181D01*
X118951748Y-103659734D01*
X118978127Y-103633949D01*
X118996509Y-103616933D01*
X119009216Y-103607250D01*
X119018570Y-103603461D01*
X119026894Y-103604128D01*
X119035971Y-103607585D01*
X119057742Y-103616884D01*
X119065000Y-103795562D01*
X119116964Y-103811346D01*
X119168928Y-103827129D01*
X119220521Y-103755941D01*
X119242311Y-103726086D01*
X119257657Y-103706237D01*
X119268592Y-103694618D01*
X119277152Y-103689455D01*
X119285373Y-103688973D01*
X119294728Y-103691238D01*
X119311040Y-103696421D01*
X119319739Y-103700139D01*
X119319888Y-103700269D01*
X119321940Y-103708023D01*
X119325605Y-103727189D01*
X119330355Y-103754822D01*
X119335313Y-103785765D01*
X119348193Y-103868714D01*
X119388025Y-103877086D01*
X119418326Y-103883333D01*
X119439756Y-103885942D01*
X119455209Y-103883226D01*
X119467577Y-103873495D01*
X119479751Y-103855063D01*
X119494625Y-103826240D01*
X119502572Y-103810229D01*
X119540681Y-103733601D01*
X119567377Y-103735843D01*
X119594072Y-103738085D01*
X119644308Y-103901371D01*
X119762921Y-103901371D01*
X119813839Y-103738085D01*
X119813839Y-103738085D01*
G37*
X119813839Y-103738085D02*
X119866575Y-103733601D01*
X119904685Y-103810229D01*
X119921608Y-103844039D01*
X119934589Y-103866733D01*
X119946519Y-103879999D01*
X119960290Y-103885525D01*
X119978796Y-103884999D01*
X120004927Y-103880110D01*
X120019231Y-103877086D01*
X120059063Y-103868714D01*
X120071943Y-103785765D01*
X120077225Y-103752870D01*
X120081922Y-103725687D01*
X120085501Y-103707160D01*
X120087368Y-103700269D01*
X120095409Y-103696710D01*
X120111431Y-103691555D01*
X120112528Y-103691238D01*
X120122312Y-103688914D01*
X120130502Y-103689585D01*
X120139132Y-103695026D01*
X120150237Y-103707010D01*
X120165853Y-103727311D01*
X120186735Y-103755941D01*
X120238328Y-103827129D01*
X120290293Y-103811346D01*
X120342257Y-103795562D01*
X120345885Y-103706223D01*
X120349514Y-103616884D01*
X120371285Y-103607585D01*
X120380782Y-103604013D01*
X120389103Y-103603531D01*
X120398568Y-103607576D01*
X120411500Y-103617587D01*
X120430221Y-103635000D01*
X120455508Y-103659734D01*
X120517960Y-103721181D01*
X120569911Y-103695019D01*
X120596016Y-103681308D01*
X120611224Y-103671361D01*
X120617919Y-103663085D01*
X120618485Y-103654386D01*
X120618133Y-103652671D01*
X120615398Y-103638573D01*
X120611176Y-103614273D01*
X120606175Y-103583917D01*
X120603570Y-103567543D01*
X120598682Y-103535676D01*
X120596262Y-103514991D01*
X120596520Y-103502333D01*
X120599667Y-103494545D01*
X120605914Y-103488473D01*
X120609011Y-103486061D01*
X120623685Y-103476751D01*
X120633407Y-103473361D01*
X120642182Y-103477354D01*
X120659945Y-103488330D01*
X120684059Y-103504577D01*
X120710135Y-103523110D01*
X120778740Y-103573021D01*
X120820987Y-103541417D01*
X120842076Y-103525533D01*
X120858259Y-103513142D01*
X120866329Y-103506703D01*
X120866569Y-103506478D01*
X120865715Y-103498704D01*
X120860912Y-103480032D01*
X120852951Y-103453281D01*
X120842890Y-103422070D01*
X120815875Y-103340997D01*
X120851769Y-103305103D01*
X120931460Y-103345069D01*
X121011150Y-103385036D01*
X121052012Y-103344173D01*
X121092875Y-103303311D01*
X121051650Y-103224879D01*
X121010426Y-103146446D01*
X121046287Y-103110585D01*
X121128596Y-103136363D01*
X121160848Y-103146130D01*
X121187732Y-103153641D01*
X121206431Y-103158151D01*
X121214121Y-103158926D01*
X121223464Y-103147877D01*
X121236634Y-103130353D01*
X121250978Y-103110161D01*
X121263840Y-103091104D01*
X121272566Y-103076989D01*
X121274800Y-103071955D01*
X121270735Y-103063690D01*
X121259726Y-103046493D01*
X121243547Y-103023035D01*
X121227628Y-103000950D01*
X121208492Y-102974052D01*
X121193118Y-102950866D01*
X121183290Y-102934186D01*
X121180618Y-102927355D01*
X121184881Y-102915062D01*
X121193318Y-102901745D01*
X121197723Y-102896113D01*
X121202357Y-102892118D01*
X121209170Y-102889868D01*
X121220112Y-102889468D01*
X121237132Y-102891025D01*
X121262183Y-102894642D01*
X121297212Y-102900428D01*
X121344172Y-102908488D01*
X121356442Y-102910601D01*
X121366929Y-102911314D01*
X121375295Y-102907553D01*
X121383907Y-102896838D01*
X121395126Y-102876690D01*
X121402419Y-102862370D01*
X121428438Y-102810703D01*
X121366575Y-102748251D01*
X121304711Y-102685800D01*
X121314710Y-102662441D01*
X121324708Y-102639082D01*
X121412933Y-102637041D01*
X121501159Y-102635000D01*
X121533981Y-102531402D01*
X121466162Y-102482862D01*
X121439069Y-102463224D01*
X121416637Y-102446499D01*
X121401338Y-102434562D01*
X121395694Y-102429432D01*
X121395583Y-102419685D01*
X121398954Y-102402817D01*
X121399179Y-102401979D01*
X121402202Y-102392350D01*
X121406815Y-102385496D01*
X121415596Y-102380389D01*
X121431124Y-102375997D01*
X121455980Y-102371292D01*
X121490127Y-102365668D01*
X121527195Y-102359647D01*
X121552577Y-102354273D01*
X121568808Y-102347304D01*
X121578427Y-102336494D01*
X121583969Y-102319600D01*
X121587970Y-102294379D01*
X121590310Y-102277047D01*
X121595238Y-102241216D01*
X121518476Y-102200042D01*
X121486056Y-102182465D01*
X121464344Y-102169804D01*
X121451196Y-102160224D01*
X121444472Y-102151892D01*
X121442027Y-102142973D01*
X121441714Y-102134351D01*
X121441714Y-102109836D01*
X121525438Y-102082280D01*
X121609161Y-102054725D01*
X121607080Y-101997108D01*
X121605000Y-101939492D01*
X121525171Y-101912937D01*
X121445342Y-101886383D01*
X121443107Y-101860012D01*
X121440871Y-101833641D01*
X121515678Y-101796244D01*
X121545419Y-101781294D01*
X121570003Y-101768782D01*
X121586752Y-101760081D01*
X121592946Y-101756615D01*
X121593155Y-101748892D01*
X121591328Y-101731250D01*
X121588133Y-101708030D01*
X121584240Y-101683571D01*
X121580319Y-101662214D01*
X121577038Y-101648300D01*
X121575797Y-101645436D01*
X121567780Y-101643018D01*
X121548428Y-101638873D01*
X121520734Y-101633603D01*
X121490999Y-101628370D01*
X121458465Y-101622692D01*
X121431686Y-101617731D01*
X121413605Y-101614053D01*
X121407191Y-101612296D01*
X121403872Y-101604512D01*
X121398832Y-101588640D01*
X121398495Y-101587472D01*
X121396172Y-101577693D01*
X121396841Y-101569506D01*
X121402275Y-101560879D01*
X121414248Y-101549779D01*
X121434533Y-101534173D01*
X121463293Y-101513196D01*
X121534576Y-101461533D01*
X121516518Y-101407824D01*
X121498459Y-101354114D01*
X121324899Y-101354114D01*
X121314805Y-101330528D01*
X121304711Y-101306943D01*
X121366575Y-101244491D01*
X121428438Y-101182040D01*
X121402903Y-101131335D01*
X121377369Y-101080630D01*
X121291822Y-101094237D01*
X121206276Y-101107844D01*
X121193527Y-101091279D01*
X121184128Y-101076519D01*
X121180618Y-101066592D01*
X121184611Y-101057811D01*
X121195582Y-101040050D01*
X121211818Y-101015953D01*
X121230133Y-100990187D01*
X121279808Y-100921904D01*
X121257245Y-100892512D01*
X121241540Y-100871601D01*
X121227839Y-100852607D01*
X121223504Y-100846287D01*
X121212327Y-100829453D01*
X121130291Y-100856789D01*
X121048254Y-100884124D01*
X121012360Y-100848230D01*
X121052326Y-100768540D01*
X121092292Y-100688849D01*
X121010941Y-100607498D01*
X120932759Y-100648792D01*
X120854577Y-100690085D01*
X120835652Y-100671342D01*
X120816728Y-100652598D01*
X120843193Y-100570734D01*
X120853022Y-100538427D01*
X120860142Y-100511221D01*
X120863876Y-100492004D01*
X120863586Y-100483695D01*
X120849882Y-100472984D01*
X120830927Y-100459307D01*
X120810495Y-100445235D01*
X120792360Y-100433339D01*
X120780295Y-100426191D01*
X120777736Y-100425200D01*
X120770090Y-100429251D01*
X120753421Y-100440227D01*
X120730332Y-100456362D01*
X120708207Y-100472371D01*
X120681308Y-100491507D01*
X120658123Y-100506881D01*
X120641443Y-100516710D01*
X120634612Y-100519381D01*
X120622324Y-100515093D01*
X120609170Y-100506681D01*
X120601812Y-100500426D01*
X120597610Y-100493566D01*
X120596355Y-100482943D01*
X120597839Y-100465399D01*
X120601856Y-100437775D01*
X120603813Y-100425200D01*
X120608896Y-100393355D01*
X120613553Y-100365466D01*
X120617083Y-100345680D01*
X120618217Y-100340071D01*
X120618415Y-100331070D01*
X120612880Y-100322841D01*
X120599225Y-100313291D01*
X120575064Y-100300331D01*
X120569911Y-100297723D01*
X120517960Y-100271561D01*
X120454670Y-100334557D01*
X120391381Y-100397554D01*
X120368633Y-100385790D01*
X120345885Y-100374027D01*
X120345885Y-100201540D01*
X120292425Y-100183566D01*
X120238965Y-100165591D01*
X120190272Y-100233623D01*
X120170603Y-100260761D01*
X120153846Y-100283240D01*
X120141872Y-100298594D01*
X120136689Y-100304305D01*
X120126960Y-100304404D01*
X120110027Y-100301035D01*
X120108863Y-100300724D01*
X120100719Y-100298611D01*
X120094567Y-100296030D01*
X120089782Y-100290999D01*
X120085739Y-100281537D01*
X120081812Y-100265662D01*
X120077375Y-100241391D01*
X120071805Y-100206744D01*
X120064569Y-100160341D01*
X120058901Y-100124083D01*
X120005469Y-100114514D01*
X119978988Y-100110636D01*
X119958185Y-100109192D01*
X119947028Y-100110429D01*
X119946435Y-100110858D01*
X119940925Y-100119355D01*
X119930306Y-100137827D01*
X119916200Y-100163394D01*
X119903020Y-100187916D01*
X119865206Y-100259060D01*
X119838909Y-100256858D01*
X119812611Y-100254657D01*
X119762255Y-100091371D01*
X119703913Y-100091392D01*
X119645571Y-100091412D01*
X119620068Y-100173035D01*
X119594565Y-100254657D01*
X119568307Y-100256858D01*
X119542050Y-100259060D01*
X119504236Y-100187916D01*
X119488472Y-100158652D01*
X119474846Y-100134092D01*
X119464984Y-100117119D01*
X119460821Y-100110858D01*
X119451443Y-100109201D01*
X119431827Y-100110260D01*
X119405941Y-100113791D01*
X119401787Y-100114514D01*
X119348355Y-100124083D01*
X119342687Y-100160341D01*
X119335380Y-100207198D01*
X119329826Y-100241717D01*
X119325399Y-100265883D01*
X119321474Y-100281675D01*
X119317425Y-100291076D01*
X119312629Y-100296069D01*
X119306458Y-100298633D01*
X119298393Y-100300724D01*
X119281227Y-100304284D01*
X119270843Y-100304431D01*
X119270567Y-100304305D01*
X119264635Y-100297672D01*
X119252202Y-100281647D01*
X119235139Y-100258697D01*
X119216984Y-100233623D01*
X119168291Y-100165591D01*
X119114831Y-100183566D01*
X119061371Y-100201540D01*
X119061371Y-100374027D01*
X119038623Y-100385790D01*
X119015876Y-100397554D01*
X118952586Y-100334557D01*
X118889297Y-100271561D01*
X118837346Y-100297723D01*
X118811225Y-100311447D01*
X118796003Y-100321415D01*
X118789294Y-100329718D01*
X118788713Y-100338447D01*
X118789040Y-100340071D01*
X118791730Y-100354171D01*
X118795904Y-100378473D01*
X118800859Y-100408832D01*
X118803443Y-100425200D01*
X118808294Y-100457078D01*
X118810685Y-100477776D01*
X118810408Y-100490452D01*
X118807256Y-100498265D01*
X118801021Y-100504373D01*
X118798086Y-100506681D01*
X118783012Y-100516051D01*
X118772644Y-100519381D01*
X118763291Y-100515361D01*
X118745169Y-100504349D01*
X118721068Y-100488128D01*
X118699050Y-100472371D01*
X118672614Y-100453300D01*
X118650443Y-100437925D01*
X118635139Y-100428013D01*
X118629520Y-100425200D01*
X118621834Y-100429064D01*
X118606218Y-100438942D01*
X118586446Y-100452263D01*
X118566292Y-100466456D01*
X118549529Y-100478949D01*
X118543670Y-100483695D01*
X118543408Y-100492217D01*
X118547197Y-100511574D01*
X118554362Y-100538877D01*
X118564063Y-100570734D01*
X118590528Y-100652598D01*
X118571604Y-100671342D01*
X118552679Y-100690085D01*
X118474497Y-100648792D01*
X118396315Y-100607498D01*
X118314964Y-100688849D01*
X118354930Y-100768540D01*
X118394896Y-100848230D01*
X118359002Y-100884124D01*
X118276966Y-100856789D01*
X118194929Y-100829453D01*
X118183752Y-100846287D01*
X118172578Y-100862200D01*
X118157208Y-100883035D01*
X118150011Y-100892512D01*
X118127448Y-100921904D01*
X118177124Y-100990187D01*
X118196717Y-101017801D01*
X118212639Y-101041538D01*
X118223175Y-101058754D01*
X118226638Y-101066592D01*
X118222417Y-101077878D01*
X118213729Y-101091279D01*
X118200981Y-101107844D01*
X118029887Y-101080630D01*
X118004353Y-101131335D01*
X117978818Y-101182040D01*
X118040681Y-101244491D01*
X118102545Y-101306943D01*
X118092451Y-101330528D01*
X118082357Y-101354114D01*
X117908797Y-101354114D01*
X117890739Y-101407824D01*
X117872680Y-101461533D01*
X117943964Y-101513196D01*
X117973841Y-101535002D01*
X117993713Y-101550362D01*
X118005353Y-101561306D01*
X118010534Y-101569869D01*
X118011030Y-101578084D01*
X118008761Y-101587472D01*
X118003681Y-101603664D01*
X118000188Y-101612152D01*
X118000065Y-101612296D01*
X117992462Y-101614315D01*
X117973482Y-101618131D01*
X117946067Y-101623179D01*
X117916258Y-101628370D01*
X117883595Y-101634139D01*
X117856570Y-101639328D01*
X117838172Y-101643333D01*
X117831459Y-101645436D01*
X117828783Y-101653700D01*
X117825115Y-101671688D01*
X117821124Y-101695058D01*
X117817479Y-101719470D01*
X117814849Y-101740585D01*
X117813905Y-101754060D01*
X117814310Y-101756615D01*
X117821397Y-101760553D01*
X117838803Y-101769577D01*
X117863850Y-101782312D01*
X117891578Y-101796244D01*
X117966385Y-101833641D01*
X117964150Y-101860012D01*
X117961914Y-101886383D01*
X117882085Y-101912937D01*
X117802257Y-101939492D01*
X117800176Y-101997108D01*
X117800072Y-102000000D01*
X118064077Y-102000000D01*
X118064958Y-101920760D01*
X118067564Y-101852458D01*
X118072355Y-101791569D01*
X118079793Y-101734573D01*
X118090337Y-101677946D01*
X118104450Y-101618165D01*
X118122591Y-101551709D01*
X118122842Y-101550835D01*
X118171593Y-101406221D01*
X118232767Y-101268153D01*
X118305643Y-101137271D01*
X118389504Y-101014217D01*
X118483630Y-100899630D01*
X118587302Y-100794151D01*
X118699802Y-100698420D01*
X118820410Y-100613079D01*
X118948409Y-100538768D01*
X119083078Y-100476127D01*
X119223700Y-100425796D01*
X119369555Y-100388417D01*
X119442371Y-100375078D01*
X119486331Y-100368208D01*
X119522776Y-100363039D01*
X119554960Y-100359375D01*
X119586136Y-100357020D01*
X119619559Y-100355780D01*
X119658482Y-100355457D01*
X119706160Y-100355857D01*
X119750800Y-100356532D01*
X119810988Y-100357983D01*
X119860950Y-100360380D01*
X119904961Y-100364085D01*
X119947297Y-100369461D01*
X119992234Y-100376873D01*
X119993914Y-100377175D01*
X120145530Y-100411565D01*
X120290952Y-100458612D01*
X120429616Y-100517685D01*
X120560961Y-100588154D01*
X120684425Y-100669391D01*
X120799446Y-100760765D01*
X120905461Y-100861647D01*
X121001908Y-100971406D01*
X121088226Y-101089414D01*
X121163853Y-101215039D01*
X121228226Y-101347653D01*
X121280783Y-101486625D01*
X121320962Y-101631326D01*
X121348201Y-101781126D01*
X121360555Y-101908466D01*
X121362605Y-102063222D01*
X121350504Y-102215723D01*
X121324537Y-102365225D01*
X121284988Y-102510984D01*
X121232142Y-102652257D01*
X121166284Y-102788300D01*
X121087697Y-102918370D01*
X120996668Y-103041723D01*
X120893479Y-103157615D01*
X120875617Y-103175657D01*
X120760126Y-103280614D01*
X120637158Y-103373233D01*
X120507268Y-103453263D01*
X120371010Y-103520456D01*
X120228940Y-103574561D01*
X120081611Y-103615331D01*
X119929578Y-103642515D01*
X119811735Y-103653904D01*
X119659027Y-103656344D01*
X119508884Y-103644904D01*
X119362043Y-103620101D01*
X119219241Y-103582456D01*
X119081215Y-103532485D01*
X118948702Y-103470707D01*
X118822440Y-103397641D01*
X118703165Y-103313805D01*
X118591615Y-103219718D01*
X118488527Y-103115897D01*
X118394638Y-103002862D01*
X118310685Y-102881131D01*
X118237406Y-102751221D01*
X118175537Y-102613653D01*
X118125815Y-102468943D01*
X118125564Y-102468085D01*
X118105947Y-102397246D01*
X118090731Y-102332608D01*
X118079444Y-102270586D01*
X118071615Y-102207596D01*
X118066775Y-102140053D01*
X118064451Y-102064372D01*
X118064077Y-102000000D01*
X117800072Y-102000000D01*
X117798095Y-102054725D01*
X117881819Y-102082280D01*
X117965542Y-102109836D01*
X117965542Y-102134351D01*
X117964959Y-102145018D01*
X117961781Y-102153657D01*
X117953865Y-102162102D01*
X117939069Y-102172186D01*
X117915250Y-102185743D01*
X117888780Y-102200042D01*
X117812018Y-102241216D01*
X117816946Y-102277047D01*
X117821155Y-102307540D01*
X117825572Y-102328526D01*
X117832734Y-102342250D01*
X117845178Y-102350956D01*
X117865439Y-102356887D01*
X117896056Y-102362288D01*
X117917129Y-102365668D01*
X117953096Y-102371605D01*
X117977313Y-102376262D01*
X117992359Y-102380668D01*
X118000814Y-102385852D01*
X118005256Y-102392844D01*
X118008077Y-102401979D01*
X118011588Y-102419013D01*
X118011656Y-102429236D01*
X118011562Y-102429432D01*
X118004927Y-102435367D01*
X117988906Y-102447798D01*
X117965968Y-102464853D01*
X117941094Y-102482862D01*
X117873275Y-102531402D01*
X117889686Y-102583201D01*
X117906098Y-102635000D01*
X118082548Y-102639082D01*
X118092546Y-102662441D01*
X118102545Y-102685800D01*
X118040681Y-102748251D01*
X117978818Y-102810703D01*
X118004837Y-102862370D01*
X118018237Y-102888140D01*
X118027851Y-102903242D01*
X118036044Y-102910155D01*
X118045179Y-102911360D01*
X118050814Y-102910601D01*
X118100694Y-102902021D01*
X118138210Y-102895739D01*
X118165312Y-102891648D01*
X118183951Y-102889642D01*
X118196077Y-102889616D01*
X118203640Y-102891463D01*
X118208590Y-102895078D01*
X118212878Y-102900355D01*
X118213938Y-102901745D01*
X118223284Y-102916895D01*
X118226638Y-102927355D01*
X118222616Y-102936683D01*
X118211591Y-102954810D01*
X118195333Y-102978971D01*
X118178919Y-103001916D01*
X118158859Y-103030629D01*
X118144078Y-103054578D01*
X118135974Y-103071350D01*
X118135056Y-103077621D01*
X118141333Y-103088854D01*
X118152938Y-103106049D01*
X118167125Y-103125536D01*
X118181148Y-103143644D01*
X118192262Y-103156701D01*
X118197506Y-103161101D01*
X118205573Y-103159028D01*
X118224567Y-103153428D01*
X118251581Y-103145174D01*
X118281228Y-103135922D01*
X118361057Y-103110785D01*
X118378944Y-103128615D01*
X118396830Y-103146446D01*
X118355606Y-103224879D01*
X118314382Y-103303311D01*
X118355244Y-103344173D01*
X118396106Y-103385036D01*
X118475797Y-103345069D01*
X118555487Y-103305103D01*
X118591381Y-103340997D01*
X118564367Y-103422070D01*
X118554086Y-103453989D01*
X118546190Y-103480581D01*
X118541472Y-103499027D01*
X118540687Y-103506478D01*
X118547750Y-103512172D01*
X118563253Y-103524069D01*
X118583989Y-103539710D01*
X118586269Y-103541417D01*
X118628516Y-103573021D01*
X118697122Y-103523110D01*
X118724800Y-103503467D01*
X118748603Y-103487492D01*
X118765893Y-103476894D01*
X118773849Y-103473361D01*
X118785173Y-103477585D01*
X118798245Y-103486061D01*
X118805677Y-103492294D01*
X118809932Y-103499089D01*
X118811221Y-103509601D01*
X118809755Y-103526987D01*
X118805745Y-103554402D01*
X118803686Y-103567543D01*
X118798562Y-103599385D01*
X118793856Y-103627273D01*
X118790279Y-103647059D01*
X118789124Y-103652671D01*
X118788864Y-103661658D01*
X118794320Y-103669858D01*
X118807873Y-103679363D01*
X118831907Y-103692267D01*
X118837346Y-103695019D01*
X118889297Y-103721181D01*
X118951748Y-103659734D01*
X118978127Y-103633949D01*
X118996509Y-103616933D01*
X119009216Y-103607250D01*
X119018570Y-103603461D01*
X119026894Y-103604128D01*
X119035971Y-103607585D01*
X119057742Y-103616884D01*
X119065000Y-103795562D01*
X119116964Y-103811346D01*
X119168928Y-103827129D01*
X119220521Y-103755941D01*
X119242311Y-103726086D01*
X119257657Y-103706237D01*
X119268592Y-103694618D01*
X119277152Y-103689455D01*
X119285373Y-103688973D01*
X119294728Y-103691238D01*
X119311040Y-103696421D01*
X119319739Y-103700139D01*
X119319888Y-103700269D01*
X119321940Y-103708023D01*
X119325605Y-103727189D01*
X119330355Y-103754822D01*
X119335313Y-103785765D01*
X119348193Y-103868714D01*
X119388025Y-103877086D01*
X119418326Y-103883333D01*
X119439756Y-103885942D01*
X119455209Y-103883226D01*
X119467577Y-103873495D01*
X119479751Y-103855063D01*
X119494625Y-103826240D01*
X119502572Y-103810229D01*
X119540681Y-103733601D01*
X119567377Y-103735843D01*
X119594072Y-103738085D01*
X119644308Y-103901371D01*
X119762921Y-103901371D01*
X119813839Y-103738085D01*
G04 #@! TO.C,PI4*
D11*
X167676190Y-100852380D02*
X167676190Y-99852380D01*
X167295238Y-99852380D01*
X167200000Y-99900000D01*
X167152380Y-99947619D01*
X167104761Y-100042857D01*
X167104761Y-100185714D01*
X167152380Y-100280952D01*
X167200000Y-100328571D01*
X167295238Y-100376190D01*
X167676190Y-100376190D01*
X166676190Y-100852380D02*
X166676190Y-99852380D01*
X165771428Y-100185714D02*
X165771428Y-100852380D01*
X166009523Y-99804761D02*
X166247619Y-100519047D01*
X165628571Y-100519047D01*
G04 #@! TO.C,LineSensor*
X144466666Y-108652380D02*
X144847619Y-108652380D01*
X144847619Y-107652380D01*
X144200000Y-108652380D02*
X144200000Y-107985714D01*
X144200000Y-107652380D02*
X144238095Y-107700000D01*
X144200000Y-107747619D01*
X144161904Y-107700000D01*
X144200000Y-107652380D01*
X144200000Y-107747619D01*
X143819047Y-107985714D02*
X143819047Y-108652380D01*
X143819047Y-108080952D02*
X143780952Y-108033333D01*
X143704761Y-107985714D01*
X143590476Y-107985714D01*
X143514285Y-108033333D01*
X143476190Y-108128571D01*
X143476190Y-108652380D01*
X142790476Y-108604761D02*
X142866666Y-108652380D01*
X143019047Y-108652380D01*
X143095238Y-108604761D01*
X143133333Y-108509523D01*
X143133333Y-108128571D01*
X143095238Y-108033333D01*
X143019047Y-107985714D01*
X142866666Y-107985714D01*
X142790476Y-108033333D01*
X142752380Y-108128571D01*
X142752380Y-108223809D01*
X143133333Y-108319047D01*
X142447619Y-108604761D02*
X142333333Y-108652380D01*
X142142857Y-108652380D01*
X142066666Y-108604761D01*
X142028571Y-108557142D01*
X141990476Y-108461904D01*
X141990476Y-108366666D01*
X142028571Y-108271428D01*
X142066666Y-108223809D01*
X142142857Y-108176190D01*
X142295238Y-108128571D01*
X142371428Y-108080952D01*
X142409523Y-108033333D01*
X142447619Y-107938095D01*
X142447619Y-107842857D01*
X142409523Y-107747619D01*
X142371428Y-107700000D01*
X142295238Y-107652380D01*
X142104761Y-107652380D01*
X141990476Y-107700000D01*
X141342857Y-108604761D02*
X141419047Y-108652380D01*
X141571428Y-108652380D01*
X141647619Y-108604761D01*
X141685714Y-108509523D01*
X141685714Y-108128571D01*
X141647619Y-108033333D01*
X141571428Y-107985714D01*
X141419047Y-107985714D01*
X141342857Y-108033333D01*
X141304761Y-108128571D01*
X141304761Y-108223809D01*
X141685714Y-108319047D01*
X140961904Y-107985714D02*
X140961904Y-108652380D01*
X140961904Y-108080952D02*
X140923809Y-108033333D01*
X140847619Y-107985714D01*
X140733333Y-107985714D01*
X140657142Y-108033333D01*
X140619047Y-108128571D01*
X140619047Y-108652380D01*
X140276190Y-108604761D02*
X140200000Y-108652380D01*
X140047619Y-108652380D01*
X139971428Y-108604761D01*
X139933333Y-108509523D01*
X139933333Y-108461904D01*
X139971428Y-108366666D01*
X140047619Y-108319047D01*
X140161904Y-108319047D01*
X140238095Y-108271428D01*
X140276190Y-108176190D01*
X140276190Y-108128571D01*
X140238095Y-108033333D01*
X140161904Y-107985714D01*
X140047619Y-107985714D01*
X139971428Y-108033333D01*
X139476190Y-108652380D02*
X139552380Y-108604761D01*
X139590476Y-108557142D01*
X139628571Y-108461904D01*
X139628571Y-108176190D01*
X139590476Y-108080952D01*
X139552380Y-108033333D01*
X139476190Y-107985714D01*
X139361904Y-107985714D01*
X139285714Y-108033333D01*
X139247619Y-108080952D01*
X139209523Y-108176190D01*
X139209523Y-108461904D01*
X139247619Y-108557142D01*
X139285714Y-108604761D01*
X139361904Y-108652380D01*
X139476190Y-108652380D01*
X138866666Y-108652380D02*
X138866666Y-107985714D01*
X138866666Y-108176190D02*
X138828571Y-108080952D01*
X138790476Y-108033333D01*
X138714285Y-107985714D01*
X138638095Y-107985714D01*
G04 #@! TO.C,PI2*
X126876190Y-100952380D02*
X126876190Y-99952380D01*
X126495238Y-99952380D01*
X126400000Y-100000000D01*
X126352380Y-100047619D01*
X126304761Y-100142857D01*
X126304761Y-100285714D01*
X126352380Y-100380952D01*
X126400000Y-100428571D01*
X126495238Y-100476190D01*
X126876190Y-100476190D01*
X125876190Y-100952380D02*
X125876190Y-99952380D01*
X125447619Y-100047619D02*
X125400000Y-100000000D01*
X125304761Y-99952380D01*
X125066666Y-99952380D01*
X124971428Y-100000000D01*
X124923809Y-100047619D01*
X124876190Y-100142857D01*
X124876190Y-100238095D01*
X124923809Y-100380952D01*
X125495238Y-100952380D01*
X124876190Y-100952380D01*
G04 #@! TO.C,PI5*
X177176190Y-100952380D02*
X177176190Y-99952380D01*
X176795238Y-99952380D01*
X176700000Y-100000000D01*
X176652380Y-100047619D01*
X176604761Y-100142857D01*
X176604761Y-100285714D01*
X176652380Y-100380952D01*
X176700000Y-100428571D01*
X176795238Y-100476190D01*
X177176190Y-100476190D01*
X176176190Y-100952380D02*
X176176190Y-99952380D01*
X175223809Y-99952380D02*
X175700000Y-99952380D01*
X175747619Y-100428571D01*
X175700000Y-100380952D01*
X175604761Y-100333333D01*
X175366666Y-100333333D01*
X175271428Y-100380952D01*
X175223809Y-100428571D01*
X175176190Y-100523809D01*
X175176190Y-100761904D01*
X175223809Y-100857142D01*
X175271428Y-100904761D01*
X175366666Y-100952380D01*
X175604761Y-100952380D01*
X175700000Y-100904761D01*
X175747619Y-100857142D01*
G04 #@! TO.C,PI6*
X217076190Y-100952380D02*
X217076190Y-99952380D01*
X216695238Y-99952380D01*
X216600000Y-100000000D01*
X216552380Y-100047619D01*
X216504761Y-100142857D01*
X216504761Y-100285714D01*
X216552380Y-100380952D01*
X216600000Y-100428571D01*
X216695238Y-100476190D01*
X217076190Y-100476190D01*
X216076190Y-100952380D02*
X216076190Y-99952380D01*
X215171428Y-99952380D02*
X215361904Y-99952380D01*
X215457142Y-100000000D01*
X215504761Y-100047619D01*
X215600000Y-100190476D01*
X215647619Y-100380952D01*
X215647619Y-100761904D01*
X215600000Y-100857142D01*
X215552380Y-100904761D01*
X215457142Y-100952380D01*
X215266666Y-100952380D01*
X215171428Y-100904761D01*
X215123809Y-100857142D01*
X215076190Y-100761904D01*
X215076190Y-100523809D01*
X215123809Y-100428571D01*
X215171428Y-100380952D01*
X215266666Y-100333333D01*
X215457142Y-100333333D01*
X215552380Y-100380952D01*
X215600000Y-100428571D01*
X215647619Y-100523809D01*
G04 #@! TO.C,PI1*
X86876190Y-100852380D02*
X86876190Y-99852380D01*
X86495238Y-99852380D01*
X86400000Y-99900000D01*
X86352380Y-99947619D01*
X86304761Y-100042857D01*
X86304761Y-100185714D01*
X86352380Y-100280952D01*
X86400000Y-100328571D01*
X86495238Y-100376190D01*
X86876190Y-100376190D01*
X85876190Y-100852380D02*
X85876190Y-99852380D01*
X84876190Y-100852380D02*
X85447619Y-100852380D01*
X85161904Y-100852380D02*
X85161904Y-99852380D01*
X85257142Y-99995238D01*
X85352380Y-100090476D01*
X85447619Y-100138095D01*
G04 #@! TO.C,PI3*
X136376190Y-100952380D02*
X136376190Y-99952380D01*
X135995238Y-99952380D01*
X135900000Y-100000000D01*
X135852380Y-100047619D01*
X135804761Y-100142857D01*
X135804761Y-100285714D01*
X135852380Y-100380952D01*
X135900000Y-100428571D01*
X135995238Y-100476190D01*
X136376190Y-100476190D01*
X135376190Y-100952380D02*
X135376190Y-99952380D01*
X134995238Y-99952380D02*
X134376190Y-99952380D01*
X134709523Y-100333333D01*
X134566666Y-100333333D01*
X134471428Y-100380952D01*
X134423809Y-100428571D01*
X134376190Y-100523809D01*
X134376190Y-100761904D01*
X134423809Y-100857142D01*
X134471428Y-100904761D01*
X134566666Y-100952380D01*
X134852380Y-100952380D01*
X134947619Y-100904761D01*
X134995238Y-100857142D01*
G04 #@! TD*
M02*
