M48
;DRILL file {KiCad (5.0.0)} date 12/21/18 16:51:39
;FORMAT={-:-/ absolute / metric / decimal}
FMAT,2
METRIC,TZ
T1C0.400
T2C0.600
T3C0.800
T4C0.850
T5C0.910
T6C1.100
T7C1.500
T8C2.000
T9C3.200
%
G90
G05
M71
T1
X109.4Y-110.2
X109.4Y-116.6
X109.4Y-119.8
X110.7Y-104.6
X110.7Y-113.5
X110.7Y-119.8
X111.9Y-119.8
X111.9Y-125.4
X113.2Y-101.4
X113.2Y-113.5
X113.3Y-116.6
X113.5Y-91.05
X113.5Y-120.7
X114.Y-108.3
X114.Y-110.1
X114.5Y-113.5
X114.5Y-116.6
X114.5Y-119.8
X115.7Y-119.8
X115.76Y-125.4
X115.775Y-101.45
X115.9Y-104.6
X117.Y-119.8
X118.4Y-120.7
X120.1Y-86.8
X120.8Y-108.
X120.8Y-115.3
X120.9Y-101.3
X121.9Y-86.8
X122.7Y-110.2
X122.7Y-116.6
X122.7Y-119.8
X124.Y-104.6
X124.Y-113.5
X124.Y-119.8
X125.19Y-125.4
X125.2Y-119.8
X126.5Y-101.4
X126.5Y-113.5
X126.6Y-116.6
X126.8Y-120.7
X127.3Y-90.7
X127.3Y-108.3
X127.3Y-110.1
X127.8Y-113.5
X127.8Y-116.6
X127.8Y-119.8
X129.Y-119.8
X129.05Y-101.425
X129.05Y-125.4
X129.2Y-104.6
X130.3Y-119.8
X130.7Y-90.7
X131.7Y-120.7
X133.4Y-84.5
X134.Y-107.8
X134.Y-115.1
X134.2Y-101.3
X135.9Y-110.2
X135.9Y-116.6
X135.9Y-119.8
X137.15Y-86.809
X137.2Y-104.6
X137.2Y-113.5
X137.2Y-119.8
X138.39Y-125.4
X138.4Y-119.8
X138.85Y-86.809
X139.7Y-101.4
X139.7Y-113.5
X139.8Y-116.6
X139.9Y-50.9
X140.Y-120.7
X140.5Y-108.3
X140.5Y-110.1
X141.Y-113.5
X141.Y-116.6
X141.Y-119.8
X142.2Y-119.8
X142.25Y-101.4
X142.25Y-125.4
X142.4Y-104.6
X143.5Y-119.8
X143.9Y-54.2
X144.9Y-120.7
X144.914Y-54.189
X145.Y-93.9
X145.3Y-86.
X145.425Y-90.109
X145.914Y-54.189
X146.15Y-87.4
X146.304Y-83.17
X146.361Y-86.176
X146.601Y-84.125
X146.63Y-82.225
X146.914Y-54.2
X146.994Y-85.045
X147.1Y-102.6
X147.2Y-107.6
X147.2Y-115.625
X147.6Y-90.1
X147.65Y-88.625
X147.914Y-54.187
X148.9Y-51.8
X148.914Y-54.189
X149.3Y-110.2
X149.3Y-116.6
X149.3Y-119.8
X150.4Y-88.
X150.4Y-90.777
X150.6Y-104.6
X150.6Y-113.5
X150.6Y-119.8
X151.4Y-90.4
X151.4Y-91.4
X151.437Y-89.337
X151.79Y-125.4
X151.8Y-119.8
X153.1Y-101.4
X153.1Y-113.5
X153.2Y-116.6
X153.4Y-120.7
X153.9Y-108.3
X153.9Y-110.1
X154.275Y-85.296
X154.4Y-89.475
X154.4Y-113.5
X154.4Y-116.6
X154.4Y-119.8
X154.8Y-82.9
X154.825Y-94.575
X155.6Y-78.3
X155.6Y-119.8
X155.65Y-125.4
X155.675Y-101.4
X155.8Y-104.6
X155.9Y-94.6
X155.9Y-88.725
X156.325Y-84.356
X156.325Y-85.724
X156.598Y-81.89
X156.769Y-82.875
X156.9Y-94.6
X156.9Y-119.8
X157.464Y-87.764
X157.924Y-78.717
X158.1Y-94.6
X158.22Y-81.975
X158.3Y-120.7
X159.Y-86.7
X159.154Y-90.55
X159.179Y-89.5
X159.2Y-75.9
X159.8Y-85.5
X159.8Y-93.
X160.3Y-76.2
X160.6Y-107.6
X160.625Y-115.9
X160.7Y-86.7
X160.8Y-101.
X161.2Y-82.7
X161.497Y-95.625
X161.8Y-85.9
X162.006Y-90.659
X162.55Y-95.65
X162.7Y-110.2
X162.7Y-116.6
X162.7Y-119.8
X162.899Y-85.475
X162.9Y-83.475
X162.911Y-84.475
X163.236Y-88.95
X163.3Y-91.9
X163.49Y-95.15
X164.Y-104.6
X164.Y-113.5
X164.Y-119.8
X164.5Y-81.075
X164.8Y-93.725
X165.19Y-125.4
X165.19Y-125.4
X165.2Y-119.8
X166.3Y-83.6
X166.3Y-84.7
X166.3Y-85.9
X166.5Y-101.4
X166.5Y-113.5
X166.6Y-116.6
X166.8Y-120.7
X167.3Y-81.8
X167.3Y-87.8
X167.3Y-108.3
X167.3Y-110.1
X167.8Y-80.4
X167.8Y-113.5
X167.8Y-116.6
X167.8Y-119.8
X168.3Y-87.8
X169.Y-119.8
X169.05Y-125.4
X169.05Y-125.4
X169.125Y-101.425
X169.2Y-104.6
X170.3Y-119.8
X171.7Y-120.7
X172.1Y-76.625
X172.8Y-87.3
X173.3Y-76.625
X174.Y-108.9
X174.Y-115.7
X174.1Y-101.1
X174.5Y-87.7
X176.1Y-110.2
X176.1Y-116.6
X176.1Y-119.8
X176.7Y-89.925
X176.7Y-88.
X177.075Y-81.3
X177.4Y-104.6
X177.4Y-113.5
X177.4Y-119.8
X177.793Y-79.625
X178.6Y-84.325
X178.6Y-119.8
X178.64Y-125.4
X179.7Y-84.325
X179.9Y-101.4
X179.9Y-113.5
X180.Y-116.6
X180.2Y-120.7
X180.3Y-88.
X180.4Y-83.6
X180.7Y-108.3
X180.7Y-110.1
X181.Y-82.7
X181.2Y-113.5
X181.2Y-116.6
X181.2Y-119.8
X182.4Y-119.8
X182.5Y-101.325
X182.5Y-125.4
X182.5Y-73.5
X182.6Y-104.6
X183.437Y-74.937
X183.7Y-119.8
X185.1Y-120.7
X185.9Y-69.7
X186.7Y-92.975
X186.975Y-101.5
X187.Y-108.15
X190.Y-114.65
X191.5Y-96.3
X194.Y-116.1
X194.35Y-131.175
X194.375Y-136.375
X194.8Y-103.5
X194.8Y-111.2
X195.Y-109.1
X197.7Y-109.1
X197.9Y-116.1
X198.6Y-106.8
X202.Y-109.675
X203.35Y-117.85
X203.375Y-128.7
X203.5Y-112.1
X205.125Y-109.675
T2
X104.8Y-98.8
X104.8Y-116.8
X104.8Y-130.9
X120.5Y-139.
X133.79Y-139.
X146.99Y-139.
X160.39Y-139.
X173.79Y-139.
X177.9Y-57.3
X185.2Y-138.7
X201.1Y-105.8
X195.7Y-91.3
X200.7Y-91.3
T3
X118.3Y-113.5
X131.6Y-113.5
X144.8Y-113.5
X158.2Y-113.5
X171.6Y-113.5
X185.Y-113.5
X207.65Y-124.425
X199.8Y-119.05
X199.8Y-121.05
X199.8Y-123.05
X162.4Y-53.8
X164.4Y-53.8
X166.4Y-53.8
X199.825Y-130.2
X199.825Y-132.2
X199.825Y-134.2
X199.825Y-136.2
X136.4Y-79.55
X138.4Y-79.55
T4
X129.Y-79.5
X131.Y-79.5
T5
X139.Y-128.6
X141.5Y-128.6
X165.8Y-128.6
X168.3Y-128.6
X152.4Y-128.6
X154.9Y-128.6
X179.2Y-128.6
X181.7Y-128.6
X112.5Y-128.6
X115.Y-128.6
X125.8Y-128.6
X128.3Y-128.6
T6
X188.3Y-81.65
X193.3Y-81.65
T7
X121.15Y-78.35
X125.15Y-78.35
T9
X208.5Y-91.5
X104.1Y-91.5
X208.5Y-138.5
X178.8Y-49.1
X104.1Y-138.5
X133.8Y-49.1
T8
X140.655Y-135.1G85X139.845Y-135.1
G05
X167.455Y-135.1G85X166.645Y-135.1
G05
X154.055Y-135.1G85X153.245Y-135.1
G05
X180.855Y-135.1G85X180.045Y-135.1
G05
X114.155Y-135.1G85X113.345Y-135.1
G05
X127.455Y-135.1G85X126.645Y-135.1
G05
T0
M30
