M48
;DRILL file {KiCad 4.0.7} date 06/20/18 17:05:20
;FORMAT={-:-/ absolute / inch / decimal}
FMAT,2
INCH,TZ
T1C0.016
%
G90
G05
M72
T1
X3.3071Y-4.122
X3.5315Y-4.2126
X5.0512Y-4.2638
X5.1299Y-4.1149
X5.4606Y-4.1142
X5.6693Y-4.1732
X5.7362Y-3.9331
X5.8594Y-4.0034
X5.8694Y-4.0585
X5.9724Y-4.0324
X6.2244Y-4.0709
X6.2244Y-4.2638
X6.3031Y-4.1142
X6.4134Y-3.9213
X6.5236Y-4.0472
X6.5236Y-4.1811
X6.6339Y-4.1102
X6.8465Y-4.1732
X8.3701Y-4.2638
X8.4488Y-4.1142
T0
M30
