G04 #@! TF.FileFunction,Soldermask,Bot*
%FSLAX46Y46*%
G04 Gerber Fmt 4.6, Leading zero omitted, Abs format (unit mm)*
G04 Created by KiCad (PCBNEW 4.0.7) date 06/20/18 17:04:50*
%MOMM*%
%LPD*%
G01*
G04 APERTURE LIST*
%ADD10C,0.100000*%
%ADD11R,1.600000X1.500000*%
%ADD12R,0.700000X1.650000*%
%ADD13R,2.200000X2.400000*%
G04 APERTURE END LIST*
D10*
D11*
X130300000Y-105900000D03*
X133600000Y-105900000D03*
X130300000Y-108300000D03*
X133600000Y-108300000D03*
X84000000Y-105900000D03*
X87300000Y-105900000D03*
X84000000Y-108300000D03*
X87300000Y-108300000D03*
X217900000Y-108600000D03*
X214600000Y-108600000D03*
X217900000Y-106200000D03*
X214600000Y-106200000D03*
X171800000Y-108400000D03*
X168500000Y-108400000D03*
X171800000Y-106000000D03*
X168500000Y-106000000D03*
X160100000Y-105900000D03*
X163400000Y-105900000D03*
X160100000Y-108300000D03*
X163400000Y-108300000D03*
X142000000Y-108400000D03*
X138700000Y-108400000D03*
X142000000Y-106000000D03*
X138700000Y-106000000D03*
D12*
X147600000Y-100100000D03*
X148100000Y-100100000D03*
X148600000Y-100100000D03*
X149100000Y-100100000D03*
X149600000Y-100100000D03*
X150100000Y-100100000D03*
X150600000Y-100100000D03*
X151100000Y-100100000D03*
X151600000Y-100100000D03*
X152100000Y-100100000D03*
X152600000Y-100100000D03*
X153100000Y-100100000D03*
X153600000Y-100100000D03*
D13*
X155750000Y-97425000D03*
X145950000Y-97425000D03*
D12*
X154100000Y-100100000D03*
X154100000Y-100100000D03*
D13*
X145950000Y-97425000D03*
X155750000Y-97425000D03*
D12*
X153600000Y-100100000D03*
X153100000Y-100100000D03*
X152600000Y-100100000D03*
X152100000Y-100100000D03*
X151600000Y-100100000D03*
X151100000Y-100100000D03*
X150600000Y-100100000D03*
X150100000Y-100100000D03*
X149600000Y-100100000D03*
X149100000Y-100100000D03*
X148600000Y-100100000D03*
X148100000Y-100100000D03*
X147600000Y-100100000D03*
M02*
