M48
;DRILL file {KiCad (5.0.0)} date 08/26/18 14:28:16
;FORMAT={3:3/ absolute / metric / suppress leading zeros}
FMAT,2
METRIC,TZ
T1C0.400
T2C0.600
T3C0.800
T4C1.100
T5C3.200
%
G90
G05
M71
T1
X127200Y-114000
X134100Y-111800
X146500Y-99000
X152650Y-86500
X152850Y-91250
X153650Y-92050
X154750Y-92050
X155150Y-95500
X155250Y-93000
X155500Y-99693
X155825Y-97400
X157050Y-99500
X158350Y-95500
X159675Y-99500
X161450Y-91250
X161450Y-92950
X162250Y-94600
X164900Y-93500
X170250Y-111900
X174300Y-87100
X176200Y-86900
X176400Y-114100
T2
X124850Y-100550
X145000Y-105500
X146500Y-105500
X148000Y-105500
X149500Y-105500
X151000Y-105500
X152500Y-105500
X154000Y-105500
X155500Y-105500
X157000Y-105500
T3
X130500Y-104000
X130500Y-106000
X130500Y-108000
X130500Y-110000
X130500Y-89000
X130500Y-91000
X130500Y-93000
X130500Y-95000
X130500Y-97000
X130500Y-99000
X168925Y-94625
X168925Y-102245
X171465Y-94625
X171465Y-102245
X174005Y-94625
X174005Y-102245
T4
X156500Y-108500
X156500Y-113500
X165500Y-108500
X165500Y-113500
X147500Y-108500
X147500Y-113500
X138500Y-108500
X138500Y-113500
T5
X124500Y-118500
X124500Y-83500
X179500Y-83500
X179500Y-118500
T0
M30
