  0
SECTION
  2
HEADER
  9
$ANGBASE
  50
0.0
  9
$ANGDIR
  70
  1
  9
$MEASUREMENT
  70
0
  0
ENDSEC
  0
SECTION
  2
TABLES
  0
TABLE
  2
LTYPE
  70
4
  0
LTYPE
  5
40F
  2
CONTINUOUS
  70
0
  3
Solid line
  72
65
  73
0
  40
0.0
  0
LTYPE
  5
410
  2
DASHDOT
 70
0
  3
Dash Dot ____ _ ____ _
 72
65
 73
4
 40
2.0
 49
1.25
 49
-0.25
 49
0.25
 49
-0.25
  0
LTYPE
  5
411
  2
DASHED
 70
0
  3
Dashed __ __ __ __ __
 72
65
 73
2
 40
0.75
 49
0.5
 49
-0.25
  0
LTYPE
  5
43B
  2
DOTTED
 70
0
  3
Dotted .  .  .  .
 72
65
 73
2
 40
0.2
 49
0.0
 49
-0.2
  0
ENDTAB
  0
TABLE
  2
STYLE
  70
4
  0
STYLE
  2
KICAD
  70
0
  40
0
  41
1
  42
1
  50
0
  71
0
  3
isocp.shx
  0
STYLE
  2
KICADB
  70
0
  40
0
  41
1
  42
1
  50
0
  71
0
  3
isocp.shx
  0
STYLE
  2
KICADI
  70
0
  40
0
  41
1
  42
1
  50
15
  71
0
  3
isocp.shx
  0
STYLE
  2
KICADBI
  70
0
  40
0
  41
1
  42
1
  50
15
  71
0
  3
isocp.shx
  0
ENDTAB
  0
TABLE
  2
LAYER
  70
30
  0
LAYER
  2
BLACK
  70
0
  62
7
  6
CONTINUOUS
  0
LAYER
  2
GRAY1
  70
0
  62
251
  6
CONTINUOUS
  0
LAYER
  2
GRAY2
  70
0
  62
8
  6
CONTINUOUS
  0
LAYER
  2
GRAY3
  70
0
  62
9
  6
CONTINUOUS
  0
LAYER
  2
WHITE
  70
0
  62
7
  6
CONTINUOUS
  0
LAYER
  2
LYELLOW
  70
0
  62
51
  6
CONTINUOUS
  0
LAYER
  2
BLUE1
  70
0
  62
178
  6
CONTINUOUS
  0
LAYER
  2
GREEN1
  70
0
  62
98
  6
CONTINUOUS
  0
LAYER
  2
CYAN1
  70
0
  62
138
  6
CONTINUOUS
  0
LAYER
  2
RED1
  70
0
  62
18
  6
CONTINUOUS
  0
LAYER
  2
MAGENTA1
  70
0
  62
228
  6
CONTINUOUS
  0
LAYER
  2
BROWN1
  70
0
  62
58
  6
CONTINUOUS
  0
LAYER
  2
BLUE2
  70
0
  62
5
  6
CONTINUOUS
  0
LAYER
  2
GREEN2
  70
0
  62
3
  6
CONTINUOUS
  0
LAYER
  2
CYAN2
  70
0
  62
4
  6
CONTINUOUS
  0
LAYER
  2
RED2
  70
0
  62
1
  6
CONTINUOUS
  0
LAYER
  2
MAGENTA2
  70
0
  62
6
  6
CONTINUOUS
  0
LAYER
  2
BROWN2
  70
0
  62
54
  6
CONTINUOUS
  0
LAYER
  2
BLUE3
  70
0
  62
171
  6
CONTINUOUS
  0
LAYER
  2
GREEN3
  70
0
  62
91
  6
CONTINUOUS
  0
LAYER
  2
CYAN3
  70
0
  62
131
  6
CONTINUOUS
  0
LAYER
  2
RED3
  70
0
  62
11
  6
CONTINUOUS
  0
LAYER
  2
MAGENTA3
  70
0
  62
221
  6
CONTINUOUS
  0
LAYER
  2
YELLOW3
  70
0
  62
2
  6
CONTINUOUS
  0
LAYER
  2
BLUE4
  70
0
  62
5
  6
CONTINUOUS
  0
LAYER
  2
GREEN4
  70
0
  62
3
  6
CONTINUOUS
  0
LAYER
  2
CYAN4
  70
0
  62
4
  6
CONTINUOUS
  0
LAYER
  2
RED4
  70
0
  62
1
  6
CONTINUOUS
  0
LAYER
  2
MAGENTA4
  70
0
  62
6
  6
CONTINUOUS
  0
LAYER
  2
YELLOW4
  70
0
  62
2
  6
CONTINUOUS
  0
ENDTAB
  0
ENDSEC
  0
SECTION
  2
ENTITIES
0
LINE
8
BLACK
6
CONTINUOUS
10
181.309
20
-46.5
11
181.318
21
-46.5
0
LINE
8
BLACK
6
CONTINUOUS
10
181.318
20
-46.5
11
181.326
21
-46.503
0
LINE
8
BLACK
6
CONTINUOUS
10
181.326
20
-46.503
11
181.335
21
-46.5046
0
LINE
8
BLACK
6
CONTINUOUS
10
181.335
20
-46.5046
11
181.342
21
-46.509
0
LINE
8
BLACK
6
CONTINUOUS
10
181.342
20
-46.509
11
181.351
21
-46.5121
0
LINE
8
BLACK
6
CONTINUOUS
10
181.351
20
-46.5121
11
181.358
21
-46.5178
0
LINE
8
BLACK
6
CONTINUOUS
10
181.358
20
-46.5178
11
181.365
21
-46.5222
0
LINE
8
BLACK
6
CONTINUOUS
10
181.365
20
-46.5222
11
181.371
21
-46.529
0
LINE
8
BLACK
6
CONTINUOUS
10
181.371
20
-46.529
11
181.378
21
-46.5347
0
LINE
8
BLACK
6
CONTINUOUS
10
181.378
20
-46.5347
11
181.382
21
-46.5424
0
LINE
8
BLACK
6
CONTINUOUS
10
181.382
20
-46.5424
11
181.388
21
-46.5492
0
LINE
8
BLACK
6
CONTINUOUS
10
181.388
20
-46.5492
11
181.391
21
-46.5576
0
LINE
8
BLACK
6
CONTINUOUS
10
181.391
20
-46.5576
11
181.395
21
-46.5653
0
LINE
8
BLACK
6
CONTINUOUS
10
181.395
20
-46.5653
11
181.397
21
-46.574
0
LINE
8
BLACK
6
CONTINUOUS
10
181.397
20
-46.574
11
181.4
21
-46.5824
0
LINE
8
BLACK
6
CONTINUOUS
10
181.4
20
-46.5824
11
181.4
21
-46.5912
0
LINE
8
BLACK
6
CONTINUOUS
10
181.4
20
-46.5912
11
181.4
21
-46.5913
0
LINE
8
BLACK
6
CONTINUOUS
10
181.4
20
-46.5913
11
181.4
21
-58.5593
0
LINE
8
BLACK
6
CONTINUOUS
10
181.4
20
-58.5593
11
211.068
21
-88.9266
0
LINE
8
BLACK
6
CONTINUOUS
10
211.068
20
-88.9266
11
211.078
21
-88.9347
0
LINE
8
BLACK
6
CONTINUOUS
10
211.078
20
-88.9347
11
211.085
21
-88.9467
0
LINE
8
BLACK
6
CONTINUOUS
10
211.085
20
-88.9467
11
211.093
21
-88.9582
0
LINE
8
BLACK
6
CONTINUOUS
10
211.093
20
-88.9582
11
211.093
21
-88.9619
0
LINE
8
BLACK
6
CONTINUOUS
10
211.093
20
-88.9619
11
211.095
21
-88.9653
0
LINE
8
BLACK
6
CONTINUOUS
10
211.095
20
-88.9653
11
211.098
21
-88.9789
0
LINE
8
BLACK
6
CONTINUOUS
10
211.098
20
-88.9789
11
211.101
21
-88.9923
0
LINE
8
BLACK
6
CONTINUOUS
10
211.101
20
-88.9923
11
211.1
21
-89.0049
0
LINE
8
BLACK
6
CONTINUOUS
10
211.1
20
-89.0049
11
211.1
21
-141.009
0
LINE
8
BLACK
6
CONTINUOUS
10
211.1
20
-141.009
11
211.1
21
-141.009
0
LINE
8
BLACK
6
CONTINUOUS
10
211.1
20
-141.009
11
211.1
21
-141.018
0
LINE
8
BLACK
6
CONTINUOUS
10
211.1
20
-141.018
11
211.097
21
-141.026
0
LINE
8
BLACK
6
CONTINUOUS
10
211.097
20
-141.026
11
211.095
21
-141.035
0
LINE
8
BLACK
6
CONTINUOUS
10
211.095
20
-141.035
11
211.091
21
-141.042
0
LINE
8
BLACK
6
CONTINUOUS
10
211.091
20
-141.042
11
211.088
21
-141.051
0
LINE
8
BLACK
6
CONTINUOUS
10
211.088
20
-141.051
11
211.082
21
-141.058
0
LINE
8
BLACK
6
CONTINUOUS
10
211.082
20
-141.058
11
211.078
21
-141.065
0
LINE
8
BLACK
6
CONTINUOUS
10
211.078
20
-141.065
11
211.071
21
-141.071
0
LINE
8
BLACK
6
CONTINUOUS
10
211.071
20
-141.071
11
211.065
21
-141.078
0
LINE
8
BLACK
6
CONTINUOUS
10
211.065
20
-141.078
11
211.058
21
-141.082
0
LINE
8
BLACK
6
CONTINUOUS
10
211.058
20
-141.082
11
211.051
21
-141.088
0
LINE
8
BLACK
6
CONTINUOUS
10
211.051
20
-141.088
11
211.042
21
-141.091
0
LINE
8
BLACK
6
CONTINUOUS
10
211.042
20
-141.091
11
211.035
21
-141.095
0
LINE
8
BLACK
6
CONTINUOUS
10
211.035
20
-141.095
11
211.026
21
-141.097
0
LINE
8
BLACK
6
CONTINUOUS
10
211.026
20
-141.097
11
211.018
21
-141.1
0
LINE
8
BLACK
6
CONTINUOUS
10
211.018
20
-141.1
11
211.009
21
-141.1
0
LINE
8
BLACK
6
CONTINUOUS
10
211.009
20
-141.1
11
211.009
21
-141.1
0
LINE
8
BLACK
6
CONTINUOUS
10
211.009
20
-141.1
11
101.591
21
-141.1
0
LINE
8
BLACK
6
CONTINUOUS
10
101.591
20
-141.1
11
101.591
21
-141.1
0
LINE
8
BLACK
6
CONTINUOUS
10
101.591
20
-141.1
11
101.582
21
-141.1
0
LINE
8
BLACK
6
CONTINUOUS
10
101.582
20
-141.1
11
101.574
21
-141.097
0
LINE
8
BLACK
6
CONTINUOUS
10
101.574
20
-141.097
11
101.565
21
-141.095
0
LINE
8
BLACK
6
CONTINUOUS
10
101.565
20
-141.095
11
101.558
21
-141.091
0
LINE
8
BLACK
6
CONTINUOUS
10
101.558
20
-141.091
11
101.549
21
-141.088
0
LINE
8
BLACK
6
CONTINUOUS
10
101.549
20
-141.088
11
101.542
21
-141.082
0
LINE
8
BLACK
6
CONTINUOUS
10
101.542
20
-141.082
11
101.535
21
-141.078
0
LINE
8
BLACK
6
CONTINUOUS
10
101.535
20
-141.078
11
101.529
21
-141.071
0
LINE
8
BLACK
6
CONTINUOUS
10
101.529
20
-141.071
11
101.522
21
-141.065
0
LINE
8
BLACK
6
CONTINUOUS
10
101.522
20
-141.065
11
101.518
21
-141.058
0
LINE
8
BLACK
6
CONTINUOUS
10
101.518
20
-141.058
11
101.512
21
-141.051
0
LINE
8
BLACK
6
CONTINUOUS
10
101.512
20
-141.051
11
101.509
21
-141.042
0
LINE
8
BLACK
6
CONTINUOUS
10
101.509
20
-141.042
11
101.505
21
-141.035
0
LINE
8
BLACK
6
CONTINUOUS
10
101.505
20
-141.035
11
101.503
21
-141.026
0
LINE
8
BLACK
6
CONTINUOUS
10
101.503
20
-141.026
11
101.5
21
-141.018
0
LINE
8
BLACK
6
CONTINUOUS
10
101.5
20
-141.018
11
101.5
21
-140.982
0
LINE
8
BLACK
6
CONTINUOUS
10
101.5
20
-140.982
11
101.5
21
-89.0049
0
LINE
8
BLACK
6
CONTINUOUS
10
101.5
20
-89.0049
11
101.499
21
-88.9923
0
LINE
8
BLACK
6
CONTINUOUS
10
101.499
20
-88.9923
11
101.502
21
-88.9789
0
LINE
8
BLACK
6
CONTINUOUS
10
101.502
20
-88.9789
11
101.505
21
-88.9653
0
LINE
8
BLACK
6
CONTINUOUS
10
101.505
20
-88.9653
11
101.507
21
-88.9619
0
LINE
8
BLACK
6
CONTINUOUS
10
101.507
20
-88.9619
11
101.507
21
-88.9582
0
LINE
8
BLACK
6
CONTINUOUS
10
101.507
20
-88.9582
11
101.515
21
-88.9467
0
LINE
8
BLACK
6
CONTINUOUS
10
101.515
20
-88.9467
11
101.522
21
-88.9347
0
LINE
8
BLACK
6
CONTINUOUS
10
101.522
20
-88.9347
11
101.532
21
-88.9266
0
LINE
8
BLACK
6
CONTINUOUS
10
101.532
20
-88.9266
11
131.2
21
-58.5593
0
LINE
8
BLACK
6
CONTINUOUS
10
131.2
20
-58.5593
11
131.2
21
-46.5913
0
LINE
8
BLACK
6
CONTINUOUS
10
131.2
20
-46.5913
11
131.2
21
-46.5912
0
LINE
8
BLACK
6
CONTINUOUS
10
131.2
20
-46.5912
11
131.2
21
-46.5824
0
LINE
8
BLACK
6
CONTINUOUS
10
131.2
20
-46.5824
11
131.203
21
-46.574
0
LINE
8
BLACK
6
CONTINUOUS
10
131.203
20
-46.574
11
131.205
21
-46.5653
0
LINE
8
BLACK
6
CONTINUOUS
10
131.205
20
-46.5653
11
131.209
21
-46.5576
0
LINE
8
BLACK
6
CONTINUOUS
10
131.209
20
-46.5576
11
131.212
21
-46.5492
0
LINE
8
BLACK
6
CONTINUOUS
10
131.212
20
-46.5492
11
131.218
21
-46.5424
0
LINE
8
BLACK
6
CONTINUOUS
10
131.218
20
-46.5424
11
131.222
21
-46.5347
0
LINE
8
BLACK
6
CONTINUOUS
10
131.222
20
-46.5347
11
131.229
21
-46.529
0
LINE
8
BLACK
6
CONTINUOUS
10
131.229
20
-46.529
11
131.235
21
-46.5222
0
LINE
8
BLACK
6
CONTINUOUS
10
131.235
20
-46.5222
11
131.242
21
-46.5178
0
LINE
8
BLACK
6
CONTINUOUS
10
131.242
20
-46.5178
11
131.249
21
-46.5121
0
LINE
8
BLACK
6
CONTINUOUS
10
131.249
20
-46.5121
11
131.258
21
-46.509
0
LINE
8
BLACK
6
CONTINUOUS
10
131.258
20
-46.509
11
131.265
21
-46.5046
0
LINE
8
BLACK
6
CONTINUOUS
10
131.265
20
-46.5046
11
131.274
21
-46.503
0
LINE
8
BLACK
6
CONTINUOUS
10
131.274
20
-46.503
11
131.282
21
-46.5
0
LINE
8
BLACK
6
CONTINUOUS
10
131.282
20
-46.5
11
131.291
21
-46.5
0
LINE
8
BLACK
6
CONTINUOUS
10
131.291
20
-46.5
11
131.291
21
-46.5
0
LINE
8
BLACK
6
CONTINUOUS
10
131.291
20
-46.5
11
181.309
21
-46.5
0
LINE
8
BLACK
6
CONTINUOUS
10
181.309
20
-46.5
11
181.309
21
-46.5
0
LINE
8
BLACK
6
CONTINUOUS
10
131.4
20
-46.7
11
131.4
21
-58.5951
0
LINE
8
BLACK
6
CONTINUOUS
10
131.4
20
-58.5951
11
131.401
21
-58.6077
0
LINE
8
BLACK
6
CONTINUOUS
10
131.401
20
-58.6077
11
131.398
21
-58.6211
0
LINE
8
BLACK
6
CONTINUOUS
10
131.398
20
-58.6211
11
131.395
21
-58.6347
0
LINE
8
BLACK
6
CONTINUOUS
10
131.395
20
-58.6347
11
131.393
21
-58.6381
0
LINE
8
BLACK
6
CONTINUOUS
10
131.393
20
-58.6381
11
131.393
21
-58.6418
0
LINE
8
BLACK
6
CONTINUOUS
10
131.393
20
-58.6418
11
131.385
21
-58.6533
0
LINE
8
BLACK
6
CONTINUOUS
10
131.385
20
-58.6533
11
131.378
21
-58.6653
0
LINE
8
BLACK
6
CONTINUOUS
10
131.378
20
-58.6653
11
131.368
21
-58.6734
0
LINE
8
BLACK
6
CONTINUOUS
10
131.368
20
-58.6734
11
101.7
21
-89.0407
0
LINE
8
BLACK
6
CONTINUOUS
10
101.7
20
-89.0407
11
101.7
21
-140.9
0
LINE
8
BLACK
6
CONTINUOUS
10
101.7
20
-140.9
11
210.9
21
-140.9
0
LINE
8
BLACK
6
CONTINUOUS
10
210.9
20
-140.9
11
210.9
21
-89.0407
0
LINE
8
BLACK
6
CONTINUOUS
10
210.9
20
-89.0407
11
181.232
21
-58.6734
0
LINE
8
BLACK
6
CONTINUOUS
10
181.232
20
-58.6734
11
181.222
21
-58.6653
0
LINE
8
BLACK
6
CONTINUOUS
10
181.222
20
-58.6653
11
181.215
21
-58.6533
0
LINE
8
BLACK
6
CONTINUOUS
10
181.215
20
-58.6533
11
181.207
21
-58.6418
0
LINE
8
BLACK
6
CONTINUOUS
10
181.207
20
-58.6418
11
181.207
21
-58.6381
0
LINE
8
BLACK
6
CONTINUOUS
10
181.207
20
-58.6381
11
181.205
21
-58.6347
0
LINE
8
BLACK
6
CONTINUOUS
10
181.205
20
-58.6347
11
181.202
21
-58.6211
0
LINE
8
BLACK
6
CONTINUOUS
10
181.202
20
-58.6211
11
181.199
21
-58.6077
0
LINE
8
BLACK
6
CONTINUOUS
10
181.199
20
-58.6077
11
181.2
21
-58.5951
0
LINE
8
BLACK
6
CONTINUOUS
10
181.2
20
-58.5951
11
181.2
21
-46.7
0
LINE
8
BLACK
6
CONTINUOUS
10
181.2
20
-46.7
11
131.4
21
-46.7
0
LINE
8
BLACK
6
CONTINUOUS
10
209.78
20
-139.493
11
209.389
21
-139.854
0
LINE
8
BLACK
6
CONTINUOUS
10
209.389
20
-139.854
11
208.903
21
-140.069
0
LINE
8
BLACK
6
CONTINUOUS
10
208.903
20
-140.069
11
208.373
21
-140.115
0
LINE
8
BLACK
6
CONTINUOUS
10
208.373
20
-140.115
11
207.857
21
-139.987
0
LINE
8
BLACK
6
CONTINUOUS
10
207.857
20
-139.987
11
207.41
21
-139.698
0
LINE
8
BLACK
6
CONTINUOUS
10
207.41
20
-139.698
11
207.08
21
-139.28
0
LINE
8
BLACK
6
CONTINUOUS
10
207.08
20
-139.28
11
206.904
21
-138.779
0
LINE
8
BLACK
6
CONTINUOUS
10
206.904
20
-138.779
11
206.9
21
-138.247
0
LINE
8
BLACK
6
CONTINUOUS
10
206.9
20
-138.247
11
207.068
21
-137.742
0
LINE
8
BLACK
6
CONTINUOUS
10
207.068
20
-137.742
11
207.391
21
-137.319
0
LINE
8
BLACK
6
CONTINUOUS
10
207.391
20
-137.319
11
207.833
21
-137.024
0
LINE
8
BLACK
6
CONTINUOUS
10
207.833
20
-137.024
11
208.348
21
-136.887
0
LINE
8
BLACK
6
CONTINUOUS
10
208.348
20
-136.887
11
208.878
21
-136.925
0
LINE
8
BLACK
6
CONTINUOUS
10
208.878
20
-136.925
11
209.368
21
-137.132
0
LINE
8
BLACK
6
CONTINUOUS
10
209.368
20
-137.132
11
209.764
21
-137.487
0
LINE
8
BLACK
6
CONTINUOUS
10
209.764
20
-137.487
11
210.024
21
-137.951
0
LINE
8
BLACK
6
CONTINUOUS
10
210.024
20
-137.951
11
210.12
21
-138.475
0
LINE
8
BLACK
6
CONTINUOUS
10
210.12
20
-138.475
11
210.12
21
-138.5
0
LINE
8
BLACK
6
CONTINUOUS
10
210.12
20
-138.5
11
210.033
21
-139.025
0
LINE
8
BLACK
6
CONTINUOUS
10
210.033
20
-139.025
11
209.78
21
-139.493
0
LINE
8
BLACK
6
CONTINUOUS
10
209.606
20
-137.642
11
209.269
21
-137.33
0
LINE
8
BLACK
6
CONTINUOUS
10
209.269
20
-137.33
11
208.848
21
-137.144
0
LINE
8
BLACK
6
CONTINUOUS
10
208.848
20
-137.144
11
208.39
21
-137.104
0
LINE
8
BLACK
6
CONTINUOUS
10
208.39
20
-137.104
11
207.944
21
-137.215
0
LINE
8
BLACK
6
CONTINUOUS
10
207.944
20
-137.215
11
207.558
21
-137.465
0
LINE
8
BLACK
6
CONTINUOUS
10
207.558
20
-137.465
11
207.273
21
-137.826
0
LINE
8
BLACK
6
CONTINUOUS
10
207.273
20
-137.826
11
207.121
21
-138.259
0
LINE
8
BLACK
6
CONTINUOUS
10
207.121
20
-138.259
11
207.117
21
-138.719
0
LINE
8
BLACK
6
CONTINUOUS
10
207.117
20
-138.719
11
207.263
21
-139.155
0
LINE
8
BLACK
6
CONTINUOUS
10
207.263
20
-139.155
11
207.542
21
-139.521
0
LINE
8
BLACK
6
CONTINUOUS
10
207.542
20
-139.521
11
207.924
21
-139.776
0
LINE
8
BLACK
6
CONTINUOUS
10
207.924
20
-139.776
11
208.368
21
-139.894
0
LINE
8
BLACK
6
CONTINUOUS
10
208.368
20
-139.894
11
208.827
21
-139.861
0
LINE
8
BLACK
6
CONTINUOUS
10
208.827
20
-139.861
11
209.25
21
-139.682
0
LINE
8
BLACK
6
CONTINUOUS
10
209.25
20
-139.682
11
209.593
21
-139.375
0
LINE
8
BLACK
6
CONTINUOUS
10
209.593
20
-139.375
11
209.817
21
-138.974
0
LINE
8
BLACK
6
CONTINUOUS
10
209.817
20
-138.974
11
209.9
21
-138.522
0
LINE
8
BLACK
6
CONTINUOUS
10
209.9
20
-138.522
11
209.9
21
-138.5
0
LINE
8
BLACK
6
CONTINUOUS
10
209.9
20
-138.5
11
209.825
21
-138.047
0
LINE
8
BLACK
6
CONTINUOUS
10
209.825
20
-138.047
11
209.606
21
-137.642
0
LINE
8
BLACK
6
CONTINUOUS
10
105.38
20
-139.493
11
104.989
21
-139.854
0
LINE
8
BLACK
6
CONTINUOUS
10
104.989
20
-139.854
11
104.503
21
-140.069
0
LINE
8
BLACK
6
CONTINUOUS
10
104.503
20
-140.069
11
103.973
21
-140.115
0
LINE
8
BLACK
6
CONTINUOUS
10
103.973
20
-140.115
11
103.457
21
-139.987
0
LINE
8
BLACK
6
CONTINUOUS
10
103.457
20
-139.987
11
103.01
21
-139.698
0
LINE
8
BLACK
6
CONTINUOUS
10
103.01
20
-139.698
11
102.68
21
-139.28
0
LINE
8
BLACK
6
CONTINUOUS
10
102.68
20
-139.28
11
102.504
21
-138.779
0
LINE
8
BLACK
6
CONTINUOUS
10
102.504
20
-138.779
11
102.5
21
-138.247
0
LINE
8
BLACK
6
CONTINUOUS
10
102.5
20
-138.247
11
102.668
21
-137.742
0
LINE
8
BLACK
6
CONTINUOUS
10
102.668
20
-137.742
11
102.991
21
-137.319
0
LINE
8
BLACK
6
CONTINUOUS
10
102.991
20
-137.319
11
103.433
21
-137.024
0
LINE
8
BLACK
6
CONTINUOUS
10
103.433
20
-137.024
11
103.948
21
-136.887
0
LINE
8
BLACK
6
CONTINUOUS
10
103.948
20
-136.887
11
104.478
21
-136.925
0
LINE
8
BLACK
6
CONTINUOUS
10
104.478
20
-136.925
11
104.968
21
-137.132
0
LINE
8
BLACK
6
CONTINUOUS
10
104.968
20
-137.132
11
105.364
21
-137.487
0
LINE
8
BLACK
6
CONTINUOUS
10
105.364
20
-137.487
11
105.624
21
-137.951
0
LINE
8
BLACK
6
CONTINUOUS
10
105.624
20
-137.951
11
105.72
21
-138.475
0
LINE
8
BLACK
6
CONTINUOUS
10
105.72
20
-138.475
11
105.72
21
-138.5
0
LINE
8
BLACK
6
CONTINUOUS
10
105.72
20
-138.5
11
105.633
21
-139.025
0
LINE
8
BLACK
6
CONTINUOUS
10
105.633
20
-139.025
11
105.38
21
-139.493
0
LINE
8
BLACK
6
CONTINUOUS
10
105.206
20
-137.642
11
104.869
21
-137.33
0
LINE
8
BLACK
6
CONTINUOUS
10
104.869
20
-137.33
11
104.448
21
-137.144
0
LINE
8
BLACK
6
CONTINUOUS
10
104.448
20
-137.144
11
103.99
21
-137.104
0
LINE
8
BLACK
6
CONTINUOUS
10
103.99
20
-137.104
11
103.544
21
-137.215
0
LINE
8
BLACK
6
CONTINUOUS
10
103.544
20
-137.215
11
103.158
21
-137.465
0
LINE
8
BLACK
6
CONTINUOUS
10
103.158
20
-137.465
11
102.873
21
-137.826
0
LINE
8
BLACK
6
CONTINUOUS
10
102.873
20
-137.826
11
102.721
21
-138.259
0
LINE
8
BLACK
6
CONTINUOUS
10
102.721
20
-138.259
11
102.717
21
-138.719
0
LINE
8
BLACK
6
CONTINUOUS
10
102.717
20
-138.719
11
102.863
21
-139.155
0
LINE
8
BLACK
6
CONTINUOUS
10
102.863
20
-139.155
11
103.142
21
-139.521
0
LINE
8
BLACK
6
CONTINUOUS
10
103.142
20
-139.521
11
103.524
21
-139.776
0
LINE
8
BLACK
6
CONTINUOUS
10
103.524
20
-139.776
11
103.968
21
-139.894
0
LINE
8
BLACK
6
CONTINUOUS
10
103.968
20
-139.894
11
104.427
21
-139.861
0
LINE
8
BLACK
6
CONTINUOUS
10
104.427
20
-139.861
11
104.85
21
-139.682
0
LINE
8
BLACK
6
CONTINUOUS
10
104.85
20
-139.682
11
105.193
21
-139.375
0
LINE
8
BLACK
6
CONTINUOUS
10
105.193
20
-139.375
11
105.417
21
-138.974
0
LINE
8
BLACK
6
CONTINUOUS
10
105.417
20
-138.974
11
105.5
21
-138.522
0
LINE
8
BLACK
6
CONTINUOUS
10
105.5
20
-138.522
11
105.5
21
-138.5
0
LINE
8
BLACK
6
CONTINUOUS
10
105.5
20
-138.5
11
105.425
21
-138.047
0
LINE
8
BLACK
6
CONTINUOUS
10
105.425
20
-138.047
11
105.206
21
-137.642
0
LINE
8
BLACK
6
CONTINUOUS
10
209.78
20
-92.4929
11
209.389
21
-92.854
0
LINE
8
BLACK
6
CONTINUOUS
10
209.389
20
-92.854
11
208.903
21
-93.0691
0
LINE
8
BLACK
6
CONTINUOUS
10
208.903
20
-93.0691
11
208.373
21
-93.115
0
LINE
8
BLACK
6
CONTINUOUS
10
208.373
20
-93.115
11
207.857
21
-92.9868
0
LINE
8
BLACK
6
CONTINUOUS
10
207.857
20
-92.9868
11
207.41
21
-92.6982
0
LINE
8
BLACK
6
CONTINUOUS
10
207.41
20
-92.6982
11
207.08
21
-92.2804
0
LINE
8
BLACK
6
CONTINUOUS
10
207.08
20
-92.2804
11
206.904
21
-91.7785
0
LINE
8
BLACK
6
CONTINUOUS
10
206.904
20
-91.7785
11
206.9
21
-91.2466
0
LINE
8
BLACK
6
CONTINUOUS
10
206.9
20
-91.2466
11
207.068
21
-90.742
0
LINE
8
BLACK
6
CONTINUOUS
10
207.068
20
-90.742
11
207.391
21
-90.3191
0
LINE
8
BLACK
6
CONTINUOUS
10
207.391
20
-90.3191
11
207.833
21
-90.0235
0
LINE
8
BLACK
6
CONTINUOUS
10
207.833
20
-90.0235
11
208.348
21
-89.8872
0
LINE
8
BLACK
6
CONTINUOUS
10
208.348
20
-89.8872
11
208.878
21
-89.9248
0
LINE
8
BLACK
6
CONTINUOUS
10
208.878
20
-89.9248
11
209.368
21
-90.1322
0
LINE
8
BLACK
6
CONTINUOUS
10
209.368
20
-90.1322
11
209.764
21
-90.4871
0
LINE
8
BLACK
6
CONTINUOUS
10
209.764
20
-90.4871
11
210.024
21
-90.9512
0
LINE
8
BLACK
6
CONTINUOUS
10
210.024
20
-90.9512
11
210.12
21
-91.4746
0
LINE
8
BLACK
6
CONTINUOUS
10
210.12
20
-91.4746
11
210.12
21
-91.5
0
LINE
8
BLACK
6
CONTINUOUS
10
210.12
20
-91.5
11
210.033
21
-92.0247
0
LINE
8
BLACK
6
CONTINUOUS
10
210.033
20
-92.0247
11
209.78
21
-92.4929
0
LINE
8
BLACK
6
CONTINUOUS
10
209.606
20
-90.6419
11
209.269
21
-90.3299
0
LINE
8
BLACK
6
CONTINUOUS
10
209.269
20
-90.3299
11
208.848
21
-90.144
0
LINE
8
BLACK
6
CONTINUOUS
10
208.848
20
-90.144
11
208.39
21
-90.1043
0
LINE
8
BLACK
6
CONTINUOUS
10
208.39
20
-90.1043
11
207.944
21
-90.2151
0
LINE
8
BLACK
6
CONTINUOUS
10
207.944
20
-90.2151
11
207.558
21
-90.4645
0
LINE
8
BLACK
6
CONTINUOUS
10
207.558
20
-90.4645
11
207.273
21
-90.8255
0
LINE
8
BLACK
6
CONTINUOUS
10
207.273
20
-90.8255
11
207.121
21
-91.2593
0
LINE
8
BLACK
6
CONTINUOUS
10
207.121
20
-91.2593
11
207.117
21
-91.719
0
LINE
8
BLACK
6
CONTINUOUS
10
207.117
20
-91.719
11
207.263
21
-92.1551
0
LINE
8
BLACK
6
CONTINUOUS
10
207.263
20
-92.1551
11
207.542
21
-92.5206
0
LINE
8
BLACK
6
CONTINUOUS
10
207.542
20
-92.5206
11
207.924
21
-92.776
0
LINE
8
BLACK
6
CONTINUOUS
10
207.924
20
-92.776
11
208.368
21
-92.8938
0
LINE
8
BLACK
6
CONTINUOUS
10
208.368
20
-92.8938
11
208.827
21
-92.8613
0
LINE
8
BLACK
6
CONTINUOUS
10
208.827
20
-92.8613
11
209.25
21
-92.6821
0
LINE
8
BLACK
6
CONTINUOUS
10
209.25
20
-92.6821
11
209.593
21
-92.3753
0
LINE
8
BLACK
6
CONTINUOUS
10
209.593
20
-92.3753
11
209.817
21
-91.9742
0
LINE
8
BLACK
6
CONTINUOUS
10
209.817
20
-91.9742
11
209.9
21
-91.522
0
LINE
8
BLACK
6
CONTINUOUS
10
209.9
20
-91.522
11
209.9
21
-91.5
0
LINE
8
BLACK
6
CONTINUOUS
10
209.9
20
-91.5
11
209.825
21
-91.0465
0
LINE
8
BLACK
6
CONTINUOUS
10
209.825
20
-91.0465
11
209.606
21
-90.6419
0
LINE
8
BLACK
6
CONTINUOUS
10
105.38
20
-92.4929
11
104.989
21
-92.854
0
LINE
8
BLACK
6
CONTINUOUS
10
104.989
20
-92.854
11
104.503
21
-93.0691
0
LINE
8
BLACK
6
CONTINUOUS
10
104.503
20
-93.0691
11
103.973
21
-93.115
0
LINE
8
BLACK
6
CONTINUOUS
10
103.973
20
-93.115
11
103.457
21
-92.9868
0
LINE
8
BLACK
6
CONTINUOUS
10
103.457
20
-92.9868
11
103.01
21
-92.6982
0
LINE
8
BLACK
6
CONTINUOUS
10
103.01
20
-92.6982
11
102.68
21
-92.2804
0
LINE
8
BLACK
6
CONTINUOUS
10
102.68
20
-92.2804
11
102.504
21
-91.7785
0
LINE
8
BLACK
6
CONTINUOUS
10
102.504
20
-91.7785
11
102.5
21
-91.2466
0
LINE
8
BLACK
6
CONTINUOUS
10
102.5
20
-91.2466
11
102.668
21
-90.742
0
LINE
8
BLACK
6
CONTINUOUS
10
102.668
20
-90.742
11
102.991
21
-90.3191
0
LINE
8
BLACK
6
CONTINUOUS
10
102.991
20
-90.3191
11
103.433
21
-90.0235
0
LINE
8
BLACK
6
CONTINUOUS
10
103.433
20
-90.0235
11
103.948
21
-89.8872
0
LINE
8
BLACK
6
CONTINUOUS
10
103.948
20
-89.8872
11
104.478
21
-89.9248
0
LINE
8
BLACK
6
CONTINUOUS
10
104.478
20
-89.9248
11
104.968
21
-90.1322
0
LINE
8
BLACK
6
CONTINUOUS
10
104.968
20
-90.1322
11
105.364
21
-90.4871
0
LINE
8
BLACK
6
CONTINUOUS
10
105.364
20
-90.4871
11
105.624
21
-90.9512
0
LINE
8
BLACK
6
CONTINUOUS
10
105.624
20
-90.9512
11
105.72
21
-91.4746
0
LINE
8
BLACK
6
CONTINUOUS
10
105.72
20
-91.4746
11
105.72
21
-91.5
0
LINE
8
BLACK
6
CONTINUOUS
10
105.72
20
-91.5
11
105.633
21
-92.0247
0
LINE
8
BLACK
6
CONTINUOUS
10
105.633
20
-92.0247
11
105.38
21
-92.4929
0
LINE
8
BLACK
6
CONTINUOUS
10
105.206
20
-90.6419
11
104.869
21
-90.3299
0
LINE
8
BLACK
6
CONTINUOUS
10
104.869
20
-90.3299
11
104.448
21
-90.144
0
LINE
8
BLACK
6
CONTINUOUS
10
104.448
20
-90.144
11
103.99
21
-90.1043
0
LINE
8
BLACK
6
CONTINUOUS
10
103.99
20
-90.1043
11
103.544
21
-90.2151
0
LINE
8
BLACK
6
CONTINUOUS
10
103.544
20
-90.2151
11
103.158
21
-90.4645
0
LINE
8
BLACK
6
CONTINUOUS
10
103.158
20
-90.4645
11
102.873
21
-90.8255
0
LINE
8
BLACK
6
CONTINUOUS
10
102.873
20
-90.8255
11
102.721
21
-91.2593
0
LINE
8
BLACK
6
CONTINUOUS
10
102.721
20
-91.2593
11
102.717
21
-91.719
0
LINE
8
BLACK
6
CONTINUOUS
10
102.717
20
-91.719
11
102.863
21
-92.1551
0
LINE
8
BLACK
6
CONTINUOUS
10
102.863
20
-92.1551
11
103.142
21
-92.5206
0
LINE
8
BLACK
6
CONTINUOUS
10
103.142
20
-92.5206
11
103.524
21
-92.776
0
LINE
8
BLACK
6
CONTINUOUS
10
103.524
20
-92.776
11
103.968
21
-92.8938
0
LINE
8
BLACK
6
CONTINUOUS
10
103.968
20
-92.8938
11
104.427
21
-92.8613
0
LINE
8
BLACK
6
CONTINUOUS
10
104.427
20
-92.8613
11
104.85
21
-92.6821
0
LINE
8
BLACK
6
CONTINUOUS
10
104.85
20
-92.6821
11
105.193
21
-92.3753
0
LINE
8
BLACK
6
CONTINUOUS
10
105.193
20
-92.3753
11
105.417
21
-91.9742
0
LINE
8
BLACK
6
CONTINUOUS
10
105.417
20
-91.9742
11
105.5
21
-91.522
0
LINE
8
BLACK
6
CONTINUOUS
10
105.5
20
-91.522
11
105.5
21
-91.5
0
LINE
8
BLACK
6
CONTINUOUS
10
105.5
20
-91.5
11
105.425
21
-91.0465
0
LINE
8
BLACK
6
CONTINUOUS
10
105.425
20
-91.0465
11
105.206
21
-90.6419
0
LINE
8
BLACK
6
CONTINUOUS
10
180.08
20
-50.0929
11
179.689
21
-50.454
0
LINE
8
BLACK
6
CONTINUOUS
10
179.689
20
-50.454
11
179.203
21
-50.6691
0
LINE
8
BLACK
6
CONTINUOUS
10
179.203
20
-50.6691
11
178.673
21
-50.715
0
LINE
8
BLACK
6
CONTINUOUS
10
178.673
20
-50.715
11
178.157
21
-50.5868
0
LINE
8
BLACK
6
CONTINUOUS
10
178.157
20
-50.5868
11
177.71
21
-50.2982
0
LINE
8
BLACK
6
CONTINUOUS
10
177.71
20
-50.2982
11
177.38
21
-49.8804
0
LINE
8
BLACK
6
CONTINUOUS
10
177.38
20
-49.8804
11
177.204
21
-49.3785
0
LINE
8
BLACK
6
CONTINUOUS
10
177.204
20
-49.3785
11
177.2
21
-48.8466
0
LINE
8
BLACK
6
CONTINUOUS
10
177.2
20
-48.8466
11
177.368
21
-48.342
0
LINE
8
BLACK
6
CONTINUOUS
10
177.368
20
-48.342
11
177.691
21
-47.9191
0
LINE
8
BLACK
6
CONTINUOUS
10
177.691
20
-47.9191
11
178.133
21
-47.6235
0
LINE
8
BLACK
6
CONTINUOUS
10
178.133
20
-47.6235
11
178.648
21
-47.4872
0
LINE
8
BLACK
6
CONTINUOUS
10
178.648
20
-47.4872
11
179.178
21
-47.5248
0
LINE
8
BLACK
6
CONTINUOUS
10
179.178
20
-47.5248
11
179.668
21
-47.7322
0
LINE
8
BLACK
6
CONTINUOUS
10
179.668
20
-47.7322
11
180.064
21
-48.0871
0
LINE
8
BLACK
6
CONTINUOUS
10
180.064
20
-48.0871
11
180.324
21
-48.5512
0
LINE
8
BLACK
6
CONTINUOUS
10
180.324
20
-48.5512
11
180.42
21
-49.0746
0
LINE
8
BLACK
6
CONTINUOUS
10
180.42
20
-49.0746
11
180.42
21
-49.1
0
LINE
8
BLACK
6
CONTINUOUS
10
180.42
20
-49.1
11
180.333
21
-49.6247
0
LINE
8
BLACK
6
CONTINUOUS
10
180.333
20
-49.6247
11
180.08
21
-50.0929
0
LINE
8
BLACK
6
CONTINUOUS
10
179.906
20
-48.2419
11
179.569
21
-47.9299
0
LINE
8
BLACK
6
CONTINUOUS
10
179.569
20
-47.9299
11
179.148
21
-47.744
0
LINE
8
BLACK
6
CONTINUOUS
10
179.148
20
-47.744
11
178.69
21
-47.7043
0
LINE
8
BLACK
6
CONTINUOUS
10
178.69
20
-47.7043
11
178.244
21
-47.8151
0
LINE
8
BLACK
6
CONTINUOUS
10
178.244
20
-47.8151
11
177.858
21
-48.0645
0
LINE
8
BLACK
6
CONTINUOUS
10
177.858
20
-48.0645
11
177.573
21
-48.4255
0
LINE
8
BLACK
6
CONTINUOUS
10
177.573
20
-48.4255
11
177.421
21
-48.8593
0
LINE
8
BLACK
6
CONTINUOUS
10
177.421
20
-48.8593
11
177.417
21
-49.319
0
LINE
8
BLACK
6
CONTINUOUS
10
177.417
20
-49.319
11
177.563
21
-49.7551
0
LINE
8
BLACK
6
CONTINUOUS
10
177.563
20
-49.7551
11
177.842
21
-50.1206
0
LINE
8
BLACK
6
CONTINUOUS
10
177.842
20
-50.1206
11
178.224
21
-50.376
0
LINE
8
BLACK
6
CONTINUOUS
10
178.224
20
-50.376
11
178.668
21
-50.4938
0
LINE
8
BLACK
6
CONTINUOUS
10
178.668
20
-50.4938
11
179.127
21
-50.4613
0
LINE
8
BLACK
6
CONTINUOUS
10
179.127
20
-50.4613
11
179.55
21
-50.2821
0
LINE
8
BLACK
6
CONTINUOUS
10
179.55
20
-50.2821
11
179.893
21
-49.9753
0
LINE
8
BLACK
6
CONTINUOUS
10
179.893
20
-49.9753
11
180.117
21
-49.5742
0
LINE
8
BLACK
6
CONTINUOUS
10
180.117
20
-49.5742
11
180.2
21
-49.122
0
LINE
8
BLACK
6
CONTINUOUS
10
180.2
20
-49.122
11
180.2
21
-49.1
0
LINE
8
BLACK
6
CONTINUOUS
10
180.2
20
-49.1
11
180.125
21
-48.6465
0
LINE
8
BLACK
6
CONTINUOUS
10
180.125
20
-48.6465
11
179.906
21
-48.2419
0
LINE
8
BLACK
6
CONTINUOUS
10
135.08
20
-50.0929
11
134.689
21
-50.454
0
LINE
8
BLACK
6
CONTINUOUS
10
134.689
20
-50.454
11
134.203
21
-50.6691
0
LINE
8
BLACK
6
CONTINUOUS
10
134.203
20
-50.6691
11
133.673
21
-50.715
0
LINE
8
BLACK
6
CONTINUOUS
10
133.673
20
-50.715
11
133.157
21
-50.5868
0
LINE
8
BLACK
6
CONTINUOUS
10
133.157
20
-50.5868
11
132.71
21
-50.2982
0
LINE
8
BLACK
6
CONTINUOUS
10
132.71
20
-50.2982
11
132.38
21
-49.8804
0
LINE
8
BLACK
6
CONTINUOUS
10
132.38
20
-49.8804
11
132.204
21
-49.3785
0
LINE
8
BLACK
6
CONTINUOUS
10
132.204
20
-49.3785
11
132.2
21
-48.8466
0
LINE
8
BLACK
6
CONTINUOUS
10
132.2
20
-48.8466
11
132.368
21
-48.342
0
LINE
8
BLACK
6
CONTINUOUS
10
132.368
20
-48.342
11
132.691
21
-47.9191
0
LINE
8
BLACK
6
CONTINUOUS
10
132.691
20
-47.9191
11
133.133
21
-47.6235
0
LINE
8
BLACK
6
CONTINUOUS
10
133.133
20
-47.6235
11
133.648
21
-47.4872
0
LINE
8
BLACK
6
CONTINUOUS
10
133.648
20
-47.4872
11
134.178
21
-47.5248
0
LINE
8
BLACK
6
CONTINUOUS
10
134.178
20
-47.5248
11
134.668
21
-47.7322
0
LINE
8
BLACK
6
CONTINUOUS
10
134.668
20
-47.7322
11
135.064
21
-48.0871
0
LINE
8
BLACK
6
CONTINUOUS
10
135.064
20
-48.0871
11
135.324
21
-48.5512
0
LINE
8
BLACK
6
CONTINUOUS
10
135.324
20
-48.5512
11
135.42
21
-49.0746
0
LINE
8
BLACK
6
CONTINUOUS
10
135.42
20
-49.0746
11
135.42
21
-49.1
0
LINE
8
BLACK
6
CONTINUOUS
10
135.42
20
-49.1
11
135.333
21
-49.6247
0
LINE
8
BLACK
6
CONTINUOUS
10
135.333
20
-49.6247
11
135.08
21
-50.0929
0
LINE
8
BLACK
6
CONTINUOUS
10
134.906
20
-48.2419
11
134.569
21
-47.9299
0
LINE
8
BLACK
6
CONTINUOUS
10
134.569
20
-47.9299
11
134.148
21
-47.744
0
LINE
8
BLACK
6
CONTINUOUS
10
134.148
20
-47.744
11
133.69
21
-47.7043
0
LINE
8
BLACK
6
CONTINUOUS
10
133.69
20
-47.7043
11
133.244
21
-47.8151
0
LINE
8
BLACK
6
CONTINUOUS
10
133.244
20
-47.8151
11
132.858
21
-48.0645
0
LINE
8
BLACK
6
CONTINUOUS
10
132.858
20
-48.0645
11
132.573
21
-48.4255
0
LINE
8
BLACK
6
CONTINUOUS
10
132.573
20
-48.4255
11
132.421
21
-48.8593
0
LINE
8
BLACK
6
CONTINUOUS
10
132.421
20
-48.8593
11
132.417
21
-49.319
0
LINE
8
BLACK
6
CONTINUOUS
10
132.417
20
-49.319
11
132.563
21
-49.7551
0
LINE
8
BLACK
6
CONTINUOUS
10
132.563
20
-49.7551
11
132.842
21
-50.1206
0
LINE
8
BLACK
6
CONTINUOUS
10
132.842
20
-50.1206
11
133.224
21
-50.376
0
LINE
8
BLACK
6
CONTINUOUS
10
133.224
20
-50.376
11
133.668
21
-50.4938
0
LINE
8
BLACK
6
CONTINUOUS
10
133.668
20
-50.4938
11
134.127
21
-50.4613
0
LINE
8
BLACK
6
CONTINUOUS
10
134.127
20
-50.4613
11
134.55
21
-50.2821
0
LINE
8
BLACK
6
CONTINUOUS
10
134.55
20
-50.2821
11
134.893
21
-49.9753
0
LINE
8
BLACK
6
CONTINUOUS
10
134.893
20
-49.9753
11
135.117
21
-49.5742
0
LINE
8
BLACK
6
CONTINUOUS
10
135.117
20
-49.5742
11
135.2
21
-49.122
0
LINE
8
BLACK
6
CONTINUOUS
10
135.2
20
-49.122
11
135.2
21
-49.1
0
LINE
8
BLACK
6
CONTINUOUS
10
135.2
20
-49.1
11
135.125
21
-48.6465
0
LINE
8
BLACK
6
CONTINUOUS
10
135.125
20
-48.6465
11
134.906
21
-48.2419
  0
ENDSEC
  0
EOF
