M48
;DRILL file {KiCad (5.0.0)} date 08/29/18 14:09:28
;FORMAT={3:3/ absolute / metric / suppress leading zeros}
FMAT,2
METRIC,TZ
T1C0.500
T2C3.200
%
G90
G05
M71
T1
X87600Y-100000
X94400Y-98800
X122900Y-98900
X122900Y-101600
X132200Y-98400
X137500Y-100000
X146900Y-100000
X147000Y-104900
X147300Y-101000
X148100Y-97600
X150300Y-101300
X153900Y-97500
X155300Y-104900
X158400Y-100000
X162400Y-101500
X164900Y-101500
X167800Y-100000
X169700Y-97600
X206700Y-98700
X212300Y-95900
X217700Y-99900
T2
X165000Y-106550
X137000Y-106550
T0
M30
