G04 #@! TF.GenerationSoftware,KiCad,Pcbnew,(5.0.0)*
G04 #@! TF.CreationDate,2018-08-29T14:09:24+09:00*
G04 #@! TF.ProjectId,lancer_sensorbord_v1,6C616E6365725F73656E736F72626F72,rev?*
G04 #@! TF.SameCoordinates,Original*
G04 #@! TF.FileFunction,Copper,L1,Top,Signal*
G04 #@! TF.FilePolarity,Positive*
%FSLAX46Y46*%
G04 Gerber Fmt 4.6, Leading zero omitted, Abs format (unit mm)*
G04 Created by KiCad (PCBNEW (5.0.0)) date 08/29/18 14:09:24*
%MOMM*%
%LPD*%
G01*
G04 APERTURE LIST*
G04 #@! TA.AperFunction,SMDPad,CuDef*
%ADD10R,0.800000X0.800000*%
G04 #@! TD*
G04 #@! TA.AperFunction,SMDPad,CuDef*
%ADD11R,1.100000X0.700000*%
G04 #@! TD*
G04 #@! TA.AperFunction,SMDPad,CuDef*
%ADD12R,0.800000X0.700000*%
G04 #@! TD*
G04 #@! TA.AperFunction,SMDPad,CuDef*
%ADD13R,0.800000X0.500000*%
G04 #@! TD*
G04 #@! TA.AperFunction,ViaPad*
%ADD14C,0.800000*%
G04 #@! TD*
G04 #@! TA.AperFunction,Conductor*
%ADD15C,0.500000*%
G04 #@! TD*
G04 #@! TA.AperFunction,Conductor*
%ADD16C,0.200000*%
G04 #@! TD*
G04 #@! TA.AperFunction,Conductor*
%ADD17C,0.250000*%
G04 #@! TD*
G04 #@! TA.AperFunction,Conductor*
%ADD18C,0.254000*%
G04 #@! TD*
G04 APERTURE END LIST*
D10*
G04 #@! TO.P,D1,2*
G04 #@! TO.N,Net-(D1-Pad2)*
X151000000Y-98500000D03*
G04 #@! TO.P,D1,1*
G04 #@! TO.N,GND*
X151000000Y-100000000D03*
G04 #@! TD*
D11*
G04 #@! TO.P,C5,1*
G04 #@! TO.N,ANALOG_SEN3*
X141450000Y-98100000D03*
G04 #@! TO.P,C5,2*
G04 #@! TO.N,GND*
X141450000Y-100000000D03*
G04 #@! TD*
D12*
G04 #@! TO.P,C1,1*
G04 #@! TO.N,+3V3*
X152900000Y-98525000D03*
G04 #@! TO.P,C1,2*
G04 #@! TO.N,GND*
X152900000Y-100025000D03*
G04 #@! TD*
G04 #@! TO.P,C2,1*
G04 #@! TO.N,+3V3*
X149100000Y-98525000D03*
G04 #@! TO.P,C2,2*
G04 #@! TO.N,GND*
X149100000Y-100025000D03*
G04 #@! TD*
D11*
G04 #@! TO.P,C3,1*
G04 #@! TO.N,ANALOG_SEN1*
X91450000Y-98100000D03*
G04 #@! TO.P,C3,2*
G04 #@! TO.N,GND*
X91450000Y-100000000D03*
G04 #@! TD*
G04 #@! TO.P,C4,1*
G04 #@! TO.N,ANALOG_SEN2*
X130350000Y-98100000D03*
G04 #@! TO.P,C4,2*
G04 #@! TO.N,GND*
X130350000Y-100000000D03*
G04 #@! TD*
G04 #@! TO.P,C6,1*
G04 #@! TO.N,ANALOG_SEN4*
X160550000Y-98100000D03*
G04 #@! TO.P,C6,2*
G04 #@! TO.N,GND*
X160550000Y-100000000D03*
G04 #@! TD*
G04 #@! TO.P,C7,1*
G04 #@! TO.N,ANALOG_SEN5*
X171650000Y-98100000D03*
G04 #@! TO.P,C7,2*
G04 #@! TO.N,GND*
X171650000Y-100000000D03*
G04 #@! TD*
G04 #@! TO.P,C8,1*
G04 #@! TO.N,ANALOG_SEN6*
X210550000Y-98100000D03*
G04 #@! TO.P,C8,2*
G04 #@! TO.N,GND*
X210550000Y-100000000D03*
G04 #@! TD*
D13*
G04 #@! TO.P,R1,1*
G04 #@! TO.N,+3V3*
X91300000Y-95200000D03*
G04 #@! TO.P,R1,2*
G04 #@! TO.N,ANALOG_SEN1*
X91300000Y-96700000D03*
G04 #@! TD*
G04 #@! TO.P,R2,1*
G04 #@! TO.N,+3V3*
X130500000Y-95200000D03*
G04 #@! TO.P,R2,2*
G04 #@! TO.N,ANALOG_SEN2*
X130500000Y-96700000D03*
G04 #@! TD*
G04 #@! TO.P,R3,1*
G04 #@! TO.N,+3V3*
X141600000Y-95200000D03*
G04 #@! TO.P,R3,2*
G04 #@! TO.N,ANALOG_SEN3*
X141600000Y-96700000D03*
G04 #@! TD*
G04 #@! TO.P,R4,1*
G04 #@! TO.N,+3V3*
X160400000Y-95200000D03*
G04 #@! TO.P,R4,2*
G04 #@! TO.N,ANALOG_SEN4*
X160400000Y-96700000D03*
G04 #@! TD*
G04 #@! TO.P,R5,1*
G04 #@! TO.N,+3V3*
X171500000Y-95200000D03*
G04 #@! TO.P,R5,2*
G04 #@! TO.N,ANALOG_SEN5*
X171500000Y-96700000D03*
G04 #@! TD*
G04 #@! TO.P,R6,1*
G04 #@! TO.N,+3V3*
X210700000Y-95200000D03*
G04 #@! TO.P,R6,2*
G04 #@! TO.N,ANALOG_SEN6*
X210700000Y-96700000D03*
G04 #@! TD*
G04 #@! TO.P,R7,1*
G04 #@! TO.N,+3V3*
X151000000Y-95200000D03*
G04 #@! TO.P,R7,2*
G04 #@! TO.N,Net-(D1-Pad2)*
X151000000Y-96700000D03*
G04 #@! TD*
D14*
G04 #@! TO.N,+3V3*
X147000000Y-104900000D03*
X122900000Y-101600000D03*
X122900000Y-98900000D03*
G04 #@! TO.N,GND*
X87600000Y-100000000D03*
X217700000Y-99900000D03*
X146900000Y-100000000D03*
X137500000Y-100000000D03*
X158400000Y-100000000D03*
X167800000Y-100000000D03*
X155300000Y-104900000D03*
G04 #@! TO.N,ANALOG_SEN1*
X94400000Y-98800000D03*
G04 #@! TO.N,ANALOG_SEN2*
X132200000Y-98400000D03*
G04 #@! TO.N,ANALOG_SEN3*
X148100000Y-97600000D03*
G04 #@! TO.N,ANALOG_SEN4*
X153900000Y-97500000D03*
G04 #@! TO.N,ANALOG_SEN5*
X164900000Y-101500000D03*
X162400000Y-101500000D03*
X169700000Y-97600000D03*
G04 #@! TO.N,ANALOG_SEN6*
X206700000Y-98700000D03*
X212300000Y-95900000D03*
G04 #@! TO.N,VR3*
X150300000Y-101300000D03*
X147300000Y-101000000D03*
G04 #@! TD*
D15*
G04 #@! TO.N,+3V3*
X122900000Y-95200000D02*
X126500000Y-95200000D01*
X126500000Y-95200000D02*
X130500000Y-95200000D01*
X130500000Y-95200000D02*
X148800000Y-95200000D01*
X148800000Y-95200000D02*
X149100000Y-95200000D01*
X149100000Y-95200000D02*
X149100000Y-95300000D01*
X149100000Y-95300000D02*
X149100000Y-95200000D01*
X147000000Y-104900000D02*
X146300000Y-104200000D01*
X146300000Y-104200000D02*
X133000000Y-104200000D01*
X133000000Y-104200000D02*
X130400000Y-101600000D01*
X130400000Y-101600000D02*
X122900000Y-101600000D01*
X122900000Y-98900000D02*
X122800000Y-98800000D01*
X122900000Y-98900000D02*
X122900000Y-95200000D01*
X122900000Y-95200000D02*
X122900000Y-95300000D01*
X122900000Y-95300000D02*
X122900000Y-95200000D01*
X210700000Y-95200000D02*
X210700000Y-95200000D01*
X171500000Y-95200000D02*
X210700000Y-95200000D01*
X171500000Y-95200000D02*
X171500000Y-95200000D01*
X130500000Y-95200000D02*
X130500000Y-95200000D01*
X91300000Y-95200000D02*
X91300000Y-95200000D01*
X91300000Y-95200000D02*
X122900000Y-95200000D01*
X149100000Y-98525000D02*
X149100000Y-95200000D01*
X149100000Y-95200000D02*
X151000000Y-95200000D01*
X151000000Y-95200000D02*
X152900000Y-95200000D01*
X152900000Y-95200000D02*
X160400000Y-95200000D01*
X160400000Y-95200000D02*
X171500000Y-95200000D01*
X152900000Y-98525000D02*
X152900000Y-95200000D01*
D16*
G04 #@! TO.N,GND*
X152950000Y-100025000D02*
X153000000Y-100025000D01*
X210450000Y-100000000D02*
X210250000Y-100000000D01*
X148825000Y-100000000D02*
X148800000Y-100025000D01*
D15*
X153125000Y-100025000D02*
X148800000Y-100025000D01*
X148800000Y-100025000D02*
X148775000Y-100000000D01*
X148775000Y-100000000D02*
X146900000Y-100000000D01*
X146900000Y-100000000D02*
X141900000Y-100000000D01*
X141900000Y-100000000D02*
X137500000Y-100000000D01*
X137500000Y-100000000D02*
X133500000Y-100000000D01*
X133500000Y-100000000D02*
X132500000Y-100000000D01*
X132500000Y-100000000D02*
X126350000Y-100000000D01*
X126350000Y-100000000D02*
X91450000Y-100000000D01*
X210450000Y-100000000D02*
X175650000Y-100000000D01*
X175650000Y-100000000D02*
X171650000Y-100000000D01*
X91450000Y-100000000D02*
X87600000Y-100000000D01*
X210550000Y-100000000D02*
X217600000Y-100000000D01*
X217600000Y-100000000D02*
X217700000Y-99900000D01*
X171650000Y-100000000D02*
X167800000Y-100000000D01*
X167800000Y-100000000D02*
X158400000Y-100000000D01*
X158400000Y-100000000D02*
X156200000Y-100000000D01*
X156200000Y-100000000D02*
X153350000Y-100000000D01*
X156200000Y-104500000D02*
X156200000Y-100000000D01*
X155800000Y-104900000D02*
X156200000Y-104500000D01*
X155300000Y-104900000D02*
X155800000Y-104900000D01*
D16*
G04 #@! TO.N,ANALOG_SEN1*
X91450000Y-98100000D02*
X91600000Y-97950000D01*
D17*
X91300000Y-96700000D02*
X91300000Y-97950000D01*
X91300000Y-97950000D02*
X91450000Y-98100000D01*
X91450000Y-98100000D02*
X93700000Y-98100000D01*
X93700000Y-98100000D02*
X94400000Y-98800000D01*
G04 #@! TO.N,ANALOG_SEN2*
X130500000Y-96700000D02*
X130500000Y-97950000D01*
X130500000Y-97950000D02*
X130350000Y-98100000D01*
X130350000Y-98100000D02*
X131900000Y-98100000D01*
X131900000Y-98100000D02*
X132200000Y-98400000D01*
G04 #@! TO.N,ANALOG_SEN3*
X141600000Y-96700000D02*
X141600000Y-97950000D01*
X141600000Y-97950000D02*
X141450000Y-98100000D01*
X147200000Y-96700000D02*
X141600000Y-96700000D01*
X148100000Y-97600000D02*
X147200000Y-96700000D01*
G04 #@! TO.N,ANALOG_SEN4*
X160400000Y-96700000D02*
X160400000Y-97950000D01*
X160400000Y-97950000D02*
X160550000Y-98100000D01*
X154700000Y-96700000D02*
X160400000Y-96700000D01*
X153900000Y-97500000D02*
X154700000Y-96700000D01*
G04 #@! TO.N,ANALOG_SEN5*
X164900000Y-101500000D02*
X162400000Y-101500000D01*
X171500000Y-96700000D02*
X170600000Y-96700000D01*
X170600000Y-96700000D02*
X169700000Y-97600000D01*
X171500000Y-96700000D02*
X171500000Y-97950000D01*
X171500000Y-97950000D02*
X171650000Y-98100000D01*
D16*
G04 #@! TO.N,ANALOG_SEN6*
X210700000Y-96700000D02*
X210850000Y-96850000D01*
D17*
X210450000Y-98100000D02*
X207300000Y-98100000D01*
X207300000Y-98100000D02*
X206700000Y-98700000D01*
X210700000Y-96700000D02*
X210700000Y-97950000D01*
X210700000Y-97950000D02*
X210550000Y-98100000D01*
X211500000Y-96700000D02*
X210700000Y-96700000D01*
X212300000Y-95900000D02*
X211500000Y-96700000D01*
G04 #@! TO.N,VR3*
X147600000Y-101300000D02*
X150300000Y-101300000D01*
X147300000Y-101000000D02*
X147600000Y-101300000D01*
D15*
G04 #@! TO.N,Net-(D1-Pad2)*
X151000000Y-96700000D02*
X151000000Y-98500000D01*
G04 #@! TD*
D18*
G04 #@! TO.N,GND*
G36*
X90252560Y-94950000D02*
X90252560Y-95450000D01*
X90301843Y-95697765D01*
X90442191Y-95907809D01*
X90505334Y-95950000D01*
X90442191Y-95992191D01*
X90301843Y-96202235D01*
X90252560Y-96450000D01*
X90252560Y-96950000D01*
X90301843Y-97197765D01*
X90403564Y-97350000D01*
X90301843Y-97502235D01*
X90252560Y-97750000D01*
X90252560Y-98450000D01*
X90301843Y-98697765D01*
X90442191Y-98907809D01*
X90652235Y-99048157D01*
X90900000Y-99097440D01*
X92000000Y-99097440D01*
X92247765Y-99048157D01*
X92457809Y-98907809D01*
X92489754Y-98860000D01*
X93365000Y-98860000D01*
X93365000Y-99005874D01*
X93522569Y-99386280D01*
X93813720Y-99677431D01*
X94194126Y-99835000D01*
X94605874Y-99835000D01*
X94986280Y-99677431D01*
X95277431Y-99386280D01*
X95435000Y-99005874D01*
X95435000Y-98594126D01*
X95422519Y-98563993D01*
X95379777Y-96085000D01*
X122015001Y-96085000D01*
X122015000Y-98331993D01*
X121865000Y-98694126D01*
X121865000Y-99105874D01*
X122022569Y-99486280D01*
X122313720Y-99777431D01*
X122694126Y-99935000D01*
X123105874Y-99935000D01*
X123486280Y-99777431D01*
X123777431Y-99486280D01*
X123935000Y-99105874D01*
X123935000Y-98694126D01*
X123785000Y-98331993D01*
X123785000Y-96085000D01*
X129580178Y-96085000D01*
X129501843Y-96202235D01*
X129452560Y-96450000D01*
X129452560Y-96950000D01*
X129499692Y-97186951D01*
X129342191Y-97292191D01*
X129201843Y-97502235D01*
X129152560Y-97750000D01*
X129152560Y-98450000D01*
X129201843Y-98697765D01*
X129342191Y-98907809D01*
X129552235Y-99048157D01*
X129800000Y-99097440D01*
X130900000Y-99097440D01*
X131147765Y-99048157D01*
X131304750Y-98943262D01*
X131322569Y-98986280D01*
X131613720Y-99277431D01*
X131994126Y-99435000D01*
X132405874Y-99435000D01*
X132786280Y-99277431D01*
X133077431Y-98986280D01*
X133235000Y-98605874D01*
X133235000Y-98194126D01*
X133077431Y-97813720D01*
X132786280Y-97522569D01*
X132405874Y-97365000D01*
X132100535Y-97365000D01*
X131974852Y-97340000D01*
X131974847Y-97340000D01*
X131900000Y-97325112D01*
X131825153Y-97340000D01*
X131403118Y-97340000D01*
X131498157Y-97197765D01*
X131547440Y-96950000D01*
X131547440Y-96450000D01*
X131498157Y-96202235D01*
X131419822Y-96085000D01*
X140680178Y-96085000D01*
X140601843Y-96202235D01*
X140552560Y-96450000D01*
X140552560Y-96950000D01*
X140599692Y-97186951D01*
X140442191Y-97292191D01*
X140301843Y-97502235D01*
X140252560Y-97750000D01*
X140252560Y-98450000D01*
X140301843Y-98697765D01*
X140442191Y-98907809D01*
X140652235Y-99048157D01*
X140900000Y-99097440D01*
X142000000Y-99097440D01*
X142247765Y-99048157D01*
X142457809Y-98907809D01*
X142598157Y-98697765D01*
X142647440Y-98450000D01*
X142647440Y-97750000D01*
X142598157Y-97502235D01*
X142569936Y-97460000D01*
X146885199Y-97460000D01*
X147065000Y-97639801D01*
X147065000Y-97805874D01*
X147222569Y-98186280D01*
X147513720Y-98477431D01*
X147894126Y-98635000D01*
X148052560Y-98635000D01*
X148052560Y-98875000D01*
X148101843Y-99122765D01*
X148242191Y-99332809D01*
X148452235Y-99473157D01*
X148700000Y-99522440D01*
X149500000Y-99522440D01*
X149747765Y-99473157D01*
X149957809Y-99332809D01*
X150041648Y-99207336D01*
X150142191Y-99357809D01*
X150352235Y-99498157D01*
X150600000Y-99547440D01*
X151400000Y-99547440D01*
X151647765Y-99498157D01*
X151857809Y-99357809D01*
X151958352Y-99207336D01*
X152042191Y-99332809D01*
X152252235Y-99473157D01*
X152500000Y-99522440D01*
X153300000Y-99522440D01*
X153547765Y-99473157D01*
X153757809Y-99332809D01*
X153898157Y-99122765D01*
X153947440Y-98875000D01*
X153947440Y-98535000D01*
X154105874Y-98535000D01*
X154486280Y-98377431D01*
X154777431Y-98086280D01*
X154935000Y-97705874D01*
X154935000Y-97539802D01*
X155014802Y-97460000D01*
X159430064Y-97460000D01*
X159401843Y-97502235D01*
X159352560Y-97750000D01*
X159352560Y-98450000D01*
X159401843Y-98697765D01*
X159542191Y-98907809D01*
X159752235Y-99048157D01*
X160000000Y-99097440D01*
X161100000Y-99097440D01*
X161347765Y-99048157D01*
X161557809Y-98907809D01*
X161698157Y-98697765D01*
X161747440Y-98450000D01*
X161747440Y-97750000D01*
X161698157Y-97502235D01*
X161557809Y-97292191D01*
X161400308Y-97186951D01*
X161447440Y-96950000D01*
X161447440Y-96450000D01*
X161398157Y-96202235D01*
X161319822Y-96085000D01*
X168673000Y-96085000D01*
X168673000Y-97374812D01*
X168665000Y-97394126D01*
X168665000Y-97805874D01*
X168822569Y-98186280D01*
X169113720Y-98477431D01*
X169494126Y-98635000D01*
X169905874Y-98635000D01*
X170286280Y-98477431D01*
X170452560Y-98311151D01*
X170452560Y-98450000D01*
X170501843Y-98697765D01*
X170642191Y-98907809D01*
X170852235Y-99048157D01*
X171100000Y-99097440D01*
X172200000Y-99097440D01*
X172447765Y-99048157D01*
X172657809Y-98907809D01*
X172798157Y-98697765D01*
X172847440Y-98450000D01*
X172847440Y-97750000D01*
X172798157Y-97502235D01*
X172657809Y-97292191D01*
X172500308Y-97186951D01*
X172547440Y-96950000D01*
X172547440Y-96450000D01*
X172498157Y-96202235D01*
X172419822Y-96085000D01*
X205673000Y-96085000D01*
X205673000Y-98474812D01*
X205665000Y-98494126D01*
X205665000Y-98905874D01*
X205822569Y-99286280D01*
X206113720Y-99577431D01*
X206494126Y-99735000D01*
X206905874Y-99735000D01*
X207286280Y-99577431D01*
X207577431Y-99286280D01*
X207735000Y-98905874D01*
X207735000Y-98860000D01*
X209510246Y-98860000D01*
X209542191Y-98907809D01*
X209752235Y-99048157D01*
X210000000Y-99097440D01*
X211100000Y-99097440D01*
X211347765Y-99048157D01*
X211557809Y-98907809D01*
X211698157Y-98697765D01*
X211747440Y-98450000D01*
X211747440Y-97750000D01*
X211698157Y-97502235D01*
X211658781Y-97443305D01*
X211796537Y-97415904D01*
X212047929Y-97247929D01*
X212090331Y-97184470D01*
X212339801Y-96935000D01*
X212505874Y-96935000D01*
X212886280Y-96777431D01*
X213177431Y-96486280D01*
X213335000Y-96105874D01*
X213335000Y-95694126D01*
X213327000Y-95674812D01*
X213327000Y-94735000D01*
X219315001Y-94735000D01*
X219315000Y-103365000D01*
X171067460Y-103365000D01*
X171000000Y-103351581D01*
X170932539Y-103365000D01*
X170932538Y-103365000D01*
X170732727Y-103404745D01*
X170732725Y-103404746D01*
X170732726Y-103404746D01*
X170563334Y-103517929D01*
X170563333Y-103517930D01*
X170506143Y-103556143D01*
X170467930Y-103613333D01*
X167563337Y-106517928D01*
X167518331Y-106548000D01*
X167235000Y-106548000D01*
X167235000Y-106105431D01*
X166894741Y-105283974D01*
X166266026Y-104655259D01*
X165444569Y-104315000D01*
X164555431Y-104315000D01*
X163733974Y-104655259D01*
X163105259Y-105283974D01*
X162765000Y-106105431D01*
X162765000Y-106994569D01*
X163105259Y-107816026D01*
X163654233Y-108365000D01*
X148029529Y-108365000D01*
X148076988Y-104876728D01*
X148067333Y-104826399D01*
X148039803Y-104785197D01*
X148035000Y-104781988D01*
X148035000Y-104694126D01*
X147877431Y-104313720D01*
X147586280Y-104022569D01*
X147224148Y-103872569D01*
X146987425Y-103635847D01*
X146938049Y-103561951D01*
X146645310Y-103366348D01*
X146387165Y-103315000D01*
X146387161Y-103315000D01*
X146300000Y-103297663D01*
X146212839Y-103315000D01*
X133366579Y-103315000D01*
X131087425Y-101035847D01*
X131038049Y-100961951D01*
X130786883Y-100794126D01*
X146265000Y-100794126D01*
X146265000Y-101205874D01*
X146422569Y-101586280D01*
X146713720Y-101877431D01*
X147094126Y-102035000D01*
X147399465Y-102035000D01*
X147525148Y-102060000D01*
X147525152Y-102060000D01*
X147599999Y-102074888D01*
X147674846Y-102060000D01*
X149596289Y-102060000D01*
X149713720Y-102177431D01*
X150094126Y-102335000D01*
X150505874Y-102335000D01*
X150886280Y-102177431D01*
X151177431Y-101886280D01*
X151335000Y-101505874D01*
X151335000Y-101294126D01*
X161365000Y-101294126D01*
X161365000Y-101705874D01*
X161522569Y-102086280D01*
X161813720Y-102377431D01*
X162194126Y-102535000D01*
X162605874Y-102535000D01*
X162986280Y-102377431D01*
X163103711Y-102260000D01*
X164196289Y-102260000D01*
X164313720Y-102377431D01*
X164694126Y-102535000D01*
X165105874Y-102535000D01*
X165486280Y-102377431D01*
X165777431Y-102086280D01*
X165935000Y-101705874D01*
X165935000Y-101294126D01*
X165777431Y-100913720D01*
X165486280Y-100622569D01*
X165105874Y-100465000D01*
X164694126Y-100465000D01*
X164313720Y-100622569D01*
X164196289Y-100740000D01*
X163103711Y-100740000D01*
X162986280Y-100622569D01*
X162605874Y-100465000D01*
X162194126Y-100465000D01*
X161813720Y-100622569D01*
X161522569Y-100913720D01*
X161365000Y-101294126D01*
X151335000Y-101294126D01*
X151335000Y-101094126D01*
X151177431Y-100713720D01*
X150886280Y-100422569D01*
X150505874Y-100265000D01*
X150094126Y-100265000D01*
X149713720Y-100422569D01*
X149596289Y-100540000D01*
X148229738Y-100540000D01*
X148177431Y-100413720D01*
X147886280Y-100122569D01*
X147505874Y-99965000D01*
X147094126Y-99965000D01*
X146713720Y-100122569D01*
X146422569Y-100413720D01*
X146265000Y-100794126D01*
X130786883Y-100794126D01*
X130745310Y-100766348D01*
X130487165Y-100715000D01*
X130487161Y-100715000D01*
X130400000Y-100697663D01*
X130312839Y-100715000D01*
X123468007Y-100715000D01*
X123105874Y-100565000D01*
X122694126Y-100565000D01*
X122313720Y-100722569D01*
X122022569Y-101013720D01*
X121865000Y-101394126D01*
X121865000Y-101805874D01*
X121873000Y-101825188D01*
X121873000Y-103365000D01*
X82685000Y-103365000D01*
X82685000Y-94735000D01*
X90295326Y-94735000D01*
X90252560Y-94950000D01*
X90252560Y-94950000D01*
G37*
X90252560Y-94950000D02*
X90252560Y-95450000D01*
X90301843Y-95697765D01*
X90442191Y-95907809D01*
X90505334Y-95950000D01*
X90442191Y-95992191D01*
X90301843Y-96202235D01*
X90252560Y-96450000D01*
X90252560Y-96950000D01*
X90301843Y-97197765D01*
X90403564Y-97350000D01*
X90301843Y-97502235D01*
X90252560Y-97750000D01*
X90252560Y-98450000D01*
X90301843Y-98697765D01*
X90442191Y-98907809D01*
X90652235Y-99048157D01*
X90900000Y-99097440D01*
X92000000Y-99097440D01*
X92247765Y-99048157D01*
X92457809Y-98907809D01*
X92489754Y-98860000D01*
X93365000Y-98860000D01*
X93365000Y-99005874D01*
X93522569Y-99386280D01*
X93813720Y-99677431D01*
X94194126Y-99835000D01*
X94605874Y-99835000D01*
X94986280Y-99677431D01*
X95277431Y-99386280D01*
X95435000Y-99005874D01*
X95435000Y-98594126D01*
X95422519Y-98563993D01*
X95379777Y-96085000D01*
X122015001Y-96085000D01*
X122015000Y-98331993D01*
X121865000Y-98694126D01*
X121865000Y-99105874D01*
X122022569Y-99486280D01*
X122313720Y-99777431D01*
X122694126Y-99935000D01*
X123105874Y-99935000D01*
X123486280Y-99777431D01*
X123777431Y-99486280D01*
X123935000Y-99105874D01*
X123935000Y-98694126D01*
X123785000Y-98331993D01*
X123785000Y-96085000D01*
X129580178Y-96085000D01*
X129501843Y-96202235D01*
X129452560Y-96450000D01*
X129452560Y-96950000D01*
X129499692Y-97186951D01*
X129342191Y-97292191D01*
X129201843Y-97502235D01*
X129152560Y-97750000D01*
X129152560Y-98450000D01*
X129201843Y-98697765D01*
X129342191Y-98907809D01*
X129552235Y-99048157D01*
X129800000Y-99097440D01*
X130900000Y-99097440D01*
X131147765Y-99048157D01*
X131304750Y-98943262D01*
X131322569Y-98986280D01*
X131613720Y-99277431D01*
X131994126Y-99435000D01*
X132405874Y-99435000D01*
X132786280Y-99277431D01*
X133077431Y-98986280D01*
X133235000Y-98605874D01*
X133235000Y-98194126D01*
X133077431Y-97813720D01*
X132786280Y-97522569D01*
X132405874Y-97365000D01*
X132100535Y-97365000D01*
X131974852Y-97340000D01*
X131974847Y-97340000D01*
X131900000Y-97325112D01*
X131825153Y-97340000D01*
X131403118Y-97340000D01*
X131498157Y-97197765D01*
X131547440Y-96950000D01*
X131547440Y-96450000D01*
X131498157Y-96202235D01*
X131419822Y-96085000D01*
X140680178Y-96085000D01*
X140601843Y-96202235D01*
X140552560Y-96450000D01*
X140552560Y-96950000D01*
X140599692Y-97186951D01*
X140442191Y-97292191D01*
X140301843Y-97502235D01*
X140252560Y-97750000D01*
X140252560Y-98450000D01*
X140301843Y-98697765D01*
X140442191Y-98907809D01*
X140652235Y-99048157D01*
X140900000Y-99097440D01*
X142000000Y-99097440D01*
X142247765Y-99048157D01*
X142457809Y-98907809D01*
X142598157Y-98697765D01*
X142647440Y-98450000D01*
X142647440Y-97750000D01*
X142598157Y-97502235D01*
X142569936Y-97460000D01*
X146885199Y-97460000D01*
X147065000Y-97639801D01*
X147065000Y-97805874D01*
X147222569Y-98186280D01*
X147513720Y-98477431D01*
X147894126Y-98635000D01*
X148052560Y-98635000D01*
X148052560Y-98875000D01*
X148101843Y-99122765D01*
X148242191Y-99332809D01*
X148452235Y-99473157D01*
X148700000Y-99522440D01*
X149500000Y-99522440D01*
X149747765Y-99473157D01*
X149957809Y-99332809D01*
X150041648Y-99207336D01*
X150142191Y-99357809D01*
X150352235Y-99498157D01*
X150600000Y-99547440D01*
X151400000Y-99547440D01*
X151647765Y-99498157D01*
X151857809Y-99357809D01*
X151958352Y-99207336D01*
X152042191Y-99332809D01*
X152252235Y-99473157D01*
X152500000Y-99522440D01*
X153300000Y-99522440D01*
X153547765Y-99473157D01*
X153757809Y-99332809D01*
X153898157Y-99122765D01*
X153947440Y-98875000D01*
X153947440Y-98535000D01*
X154105874Y-98535000D01*
X154486280Y-98377431D01*
X154777431Y-98086280D01*
X154935000Y-97705874D01*
X154935000Y-97539802D01*
X155014802Y-97460000D01*
X159430064Y-97460000D01*
X159401843Y-97502235D01*
X159352560Y-97750000D01*
X159352560Y-98450000D01*
X159401843Y-98697765D01*
X159542191Y-98907809D01*
X159752235Y-99048157D01*
X160000000Y-99097440D01*
X161100000Y-99097440D01*
X161347765Y-99048157D01*
X161557809Y-98907809D01*
X161698157Y-98697765D01*
X161747440Y-98450000D01*
X161747440Y-97750000D01*
X161698157Y-97502235D01*
X161557809Y-97292191D01*
X161400308Y-97186951D01*
X161447440Y-96950000D01*
X161447440Y-96450000D01*
X161398157Y-96202235D01*
X161319822Y-96085000D01*
X168673000Y-96085000D01*
X168673000Y-97374812D01*
X168665000Y-97394126D01*
X168665000Y-97805874D01*
X168822569Y-98186280D01*
X169113720Y-98477431D01*
X169494126Y-98635000D01*
X169905874Y-98635000D01*
X170286280Y-98477431D01*
X170452560Y-98311151D01*
X170452560Y-98450000D01*
X170501843Y-98697765D01*
X170642191Y-98907809D01*
X170852235Y-99048157D01*
X171100000Y-99097440D01*
X172200000Y-99097440D01*
X172447765Y-99048157D01*
X172657809Y-98907809D01*
X172798157Y-98697765D01*
X172847440Y-98450000D01*
X172847440Y-97750000D01*
X172798157Y-97502235D01*
X172657809Y-97292191D01*
X172500308Y-97186951D01*
X172547440Y-96950000D01*
X172547440Y-96450000D01*
X172498157Y-96202235D01*
X172419822Y-96085000D01*
X205673000Y-96085000D01*
X205673000Y-98474812D01*
X205665000Y-98494126D01*
X205665000Y-98905874D01*
X205822569Y-99286280D01*
X206113720Y-99577431D01*
X206494126Y-99735000D01*
X206905874Y-99735000D01*
X207286280Y-99577431D01*
X207577431Y-99286280D01*
X207735000Y-98905874D01*
X207735000Y-98860000D01*
X209510246Y-98860000D01*
X209542191Y-98907809D01*
X209752235Y-99048157D01*
X210000000Y-99097440D01*
X211100000Y-99097440D01*
X211347765Y-99048157D01*
X211557809Y-98907809D01*
X211698157Y-98697765D01*
X211747440Y-98450000D01*
X211747440Y-97750000D01*
X211698157Y-97502235D01*
X211658781Y-97443305D01*
X211796537Y-97415904D01*
X212047929Y-97247929D01*
X212090331Y-97184470D01*
X212339801Y-96935000D01*
X212505874Y-96935000D01*
X212886280Y-96777431D01*
X213177431Y-96486280D01*
X213335000Y-96105874D01*
X213335000Y-95694126D01*
X213327000Y-95674812D01*
X213327000Y-94735000D01*
X219315001Y-94735000D01*
X219315000Y-103365000D01*
X171067460Y-103365000D01*
X171000000Y-103351581D01*
X170932539Y-103365000D01*
X170932538Y-103365000D01*
X170732727Y-103404745D01*
X170732725Y-103404746D01*
X170732726Y-103404746D01*
X170563334Y-103517929D01*
X170563333Y-103517930D01*
X170506143Y-103556143D01*
X170467930Y-103613333D01*
X167563337Y-106517928D01*
X167518331Y-106548000D01*
X167235000Y-106548000D01*
X167235000Y-106105431D01*
X166894741Y-105283974D01*
X166266026Y-104655259D01*
X165444569Y-104315000D01*
X164555431Y-104315000D01*
X163733974Y-104655259D01*
X163105259Y-105283974D01*
X162765000Y-106105431D01*
X162765000Y-106994569D01*
X163105259Y-107816026D01*
X163654233Y-108365000D01*
X148029529Y-108365000D01*
X148076988Y-104876728D01*
X148067333Y-104826399D01*
X148039803Y-104785197D01*
X148035000Y-104781988D01*
X148035000Y-104694126D01*
X147877431Y-104313720D01*
X147586280Y-104022569D01*
X147224148Y-103872569D01*
X146987425Y-103635847D01*
X146938049Y-103561951D01*
X146645310Y-103366348D01*
X146387165Y-103315000D01*
X146387161Y-103315000D01*
X146300000Y-103297663D01*
X146212839Y-103315000D01*
X133366579Y-103315000D01*
X131087425Y-101035847D01*
X131038049Y-100961951D01*
X130786883Y-100794126D01*
X146265000Y-100794126D01*
X146265000Y-101205874D01*
X146422569Y-101586280D01*
X146713720Y-101877431D01*
X147094126Y-102035000D01*
X147399465Y-102035000D01*
X147525148Y-102060000D01*
X147525152Y-102060000D01*
X147599999Y-102074888D01*
X147674846Y-102060000D01*
X149596289Y-102060000D01*
X149713720Y-102177431D01*
X150094126Y-102335000D01*
X150505874Y-102335000D01*
X150886280Y-102177431D01*
X151177431Y-101886280D01*
X151335000Y-101505874D01*
X151335000Y-101294126D01*
X161365000Y-101294126D01*
X161365000Y-101705874D01*
X161522569Y-102086280D01*
X161813720Y-102377431D01*
X162194126Y-102535000D01*
X162605874Y-102535000D01*
X162986280Y-102377431D01*
X163103711Y-102260000D01*
X164196289Y-102260000D01*
X164313720Y-102377431D01*
X164694126Y-102535000D01*
X165105874Y-102535000D01*
X165486280Y-102377431D01*
X165777431Y-102086280D01*
X165935000Y-101705874D01*
X165935000Y-101294126D01*
X165777431Y-100913720D01*
X165486280Y-100622569D01*
X165105874Y-100465000D01*
X164694126Y-100465000D01*
X164313720Y-100622569D01*
X164196289Y-100740000D01*
X163103711Y-100740000D01*
X162986280Y-100622569D01*
X162605874Y-100465000D01*
X162194126Y-100465000D01*
X161813720Y-100622569D01*
X161522569Y-100913720D01*
X161365000Y-101294126D01*
X151335000Y-101294126D01*
X151335000Y-101094126D01*
X151177431Y-100713720D01*
X150886280Y-100422569D01*
X150505874Y-100265000D01*
X150094126Y-100265000D01*
X149713720Y-100422569D01*
X149596289Y-100540000D01*
X148229738Y-100540000D01*
X148177431Y-100413720D01*
X147886280Y-100122569D01*
X147505874Y-99965000D01*
X147094126Y-99965000D01*
X146713720Y-100122569D01*
X146422569Y-100413720D01*
X146265000Y-100794126D01*
X130786883Y-100794126D01*
X130745310Y-100766348D01*
X130487165Y-100715000D01*
X130487161Y-100715000D01*
X130400000Y-100697663D01*
X130312839Y-100715000D01*
X123468007Y-100715000D01*
X123105874Y-100565000D01*
X122694126Y-100565000D01*
X122313720Y-100722569D01*
X122022569Y-101013720D01*
X121865000Y-101394126D01*
X121865000Y-101805874D01*
X121873000Y-101825188D01*
X121873000Y-103365000D01*
X82685000Y-103365000D01*
X82685000Y-94735000D01*
X90295326Y-94735000D01*
X90252560Y-94950000D01*
G04 #@! TD*
M02*
