G04 #@! TF.GenerationSoftware,KiCad,Pcbnew,(5.0.0)*
G04 #@! TF.CreationDate,2018-08-29T14:09:24+09:00*
G04 #@! TF.ProjectId,lancer_sensorbord_v1,6C616E6365725F73656E736F72626F72,rev?*
G04 #@! TF.SameCoordinates,Original*
G04 #@! TF.FileFunction,Soldermask,Bot*
G04 #@! TF.FilePolarity,Negative*
%FSLAX46Y46*%
G04 Gerber Fmt 4.6, Leading zero omitted, Abs format (unit mm)*
G04 Created by KiCad (PCBNEW (5.0.0)) date 08/29/18 14:09:24*
%MOMM*%
%LPD*%
G01*
G04 APERTURE LIST*
%ADD10R,0.700000X1.650000*%
%ADD11R,2.200000X2.400000*%
%ADD12R,1.600000X1.500000*%
%ADD13C,3.600000*%
G04 APERTURE END LIST*
D10*
G04 #@! TO.C,LineSensor*
X154300000Y-104900000D03*
X153800000Y-104900000D03*
X153300000Y-104900000D03*
X152800000Y-104900000D03*
X152300000Y-104900000D03*
X151800000Y-104900000D03*
X151300000Y-104900000D03*
X150800000Y-104900000D03*
X150300000Y-104900000D03*
X149800000Y-104900000D03*
X149300000Y-104900000D03*
X148800000Y-104900000D03*
X148300000Y-104900000D03*
D11*
X146150000Y-107575000D03*
X155950000Y-107575000D03*
D10*
X147800000Y-104900000D03*
X147800000Y-104900000D03*
D11*
X155950000Y-107575000D03*
X146150000Y-107575000D03*
D10*
X148300000Y-104900000D03*
X148800000Y-104900000D03*
X149300000Y-104900000D03*
X149800000Y-104900000D03*
X150300000Y-104900000D03*
X150800000Y-104900000D03*
X151300000Y-104900000D03*
X151800000Y-104900000D03*
X152300000Y-104900000D03*
X152800000Y-104900000D03*
X153300000Y-104900000D03*
X153800000Y-104900000D03*
X154300000Y-104900000D03*
G04 #@! TD*
D12*
G04 #@! TO.C,PI4*
X158400000Y-98700000D03*
X155100000Y-98700000D03*
X158400000Y-96300000D03*
X155100000Y-96300000D03*
G04 #@! TD*
G04 #@! TO.C,PI3*
X143600000Y-96400000D03*
X146900000Y-96400000D03*
X143600000Y-98800000D03*
X146900000Y-98800000D03*
G04 #@! TD*
G04 #@! TO.C,PI2*
X137500000Y-98700000D03*
X134200000Y-98700000D03*
X137500000Y-96300000D03*
X134200000Y-96300000D03*
G04 #@! TD*
G04 #@! TO.C,PI5*
X164500000Y-96400000D03*
X167800000Y-96400000D03*
X164500000Y-98800000D03*
X167800000Y-98800000D03*
G04 #@! TD*
G04 #@! TO.C,PI6*
X214400000Y-96400000D03*
X217700000Y-96400000D03*
X214400000Y-98800000D03*
X217700000Y-98800000D03*
G04 #@! TD*
G04 #@! TO.C,PI1*
X87600000Y-98700000D03*
X84300000Y-98700000D03*
X87600000Y-96300000D03*
X84300000Y-96300000D03*
G04 #@! TD*
D13*
G04 #@! TO.C,REF\002A\002A*
X165000000Y-106550000D03*
G04 #@! TD*
G04 #@! TO.C,REF\002A\002A*
X137000000Y-106550000D03*
G04 #@! TD*
M02*
