G04 #@! TF.GenerationSoftware,KiCad,Pcbnew,(5.0.0)*
G04 #@! TF.CreationDate,2018-08-29T14:02:58+09:00*
G04 #@! TF.ProjectId,lancer_subbord,6C616E6365725F737562626F72642E6B,rev?*
G04 #@! TF.SameCoordinates,Original*
G04 #@! TF.FileFunction,Copper,L1,Top,Signal*
G04 #@! TF.FilePolarity,Positive*
%FSLAX46Y46*%
G04 Gerber Fmt 4.6, Leading zero omitted, Abs format (unit mm)*
G04 Created by KiCad (PCBNEW (5.0.0)) date 08/29/18 14:02:58*
%MOMM*%
%LPD*%
G01*
G04 APERTURE LIST*
G04 #@! TA.AperFunction,ComponentPad*
%ADD10C,1.524000*%
G04 #@! TD*
G04 #@! TA.AperFunction,ComponentPad*
%ADD11R,1.524000X1.524000*%
G04 #@! TD*
G04 #@! TA.AperFunction,ComponentPad*
%ADD12O,1.000000X2.000000*%
G04 #@! TD*
G04 #@! TA.AperFunction,ComponentPad*
%ADD13C,2.000000*%
G04 #@! TD*
G04 #@! TA.AperFunction,SMDPad,CuDef*
%ADD14R,0.800000X0.500000*%
G04 #@! TD*
G04 #@! TA.AperFunction,SMDPad,CuDef*
%ADD15R,0.500000X0.800000*%
G04 #@! TD*
G04 #@! TA.AperFunction,SMDPad,CuDef*
%ADD16R,0.800000X0.800000*%
G04 #@! TD*
G04 #@! TA.AperFunction,ViaPad*
%ADD17C,0.800000*%
G04 #@! TD*
G04 #@! TA.AperFunction,ViaPad*
%ADD18C,1.800000*%
G04 #@! TD*
G04 #@! TA.AperFunction,Conductor*
%ADD19C,0.500000*%
G04 #@! TD*
G04 #@! TA.AperFunction,Conductor*
%ADD20C,0.250000*%
G04 #@! TD*
G04 #@! TA.AperFunction,Conductor*
%ADD21C,0.350000*%
G04 #@! TD*
G04 APERTURE END LIST*
D10*
G04 #@! TO.P,R_SW,4*
G04 #@! TO.N,R_SW4*
X168925000Y-94625000D03*
G04 #@! TO.P,R_SW,C*
G04 #@! TO.N,GND*
X171465000Y-94625000D03*
D11*
G04 #@! TO.P,R_SW,1*
G04 #@! TO.N,R_SW1*
X174005000Y-94625000D03*
D10*
G04 #@! TO.P,R_SW,2*
G04 #@! TO.N,R_SW2*
X168925000Y-102245000D03*
G04 #@! TO.P,R_SW,C*
G04 #@! TO.N,GND*
X171465000Y-102245000D03*
G04 #@! TO.P,R_SW,8*
G04 #@! TO.N,R_SW8*
X174005000Y-102245000D03*
G04 #@! TD*
D12*
G04 #@! TO.P,LCD1,9*
G04 #@! TO.N,+3V3*
X157000000Y-105500000D03*
G04 #@! TO.P,LCD1,8*
G04 #@! TO.N,SCL*
X155500000Y-105500000D03*
G04 #@! TO.P,LCD1,7*
G04 #@! TO.N,SDA*
X154000000Y-105500000D03*
G04 #@! TO.P,LCD1,6*
G04 #@! TO.N,GND*
X152500000Y-105500000D03*
G04 #@! TO.P,LCD1,5*
G04 #@! TO.N,+3V3*
X151000000Y-105500000D03*
G04 #@! TO.P,LCD1,4*
G04 #@! TO.N,Net-(C3-Pad1)*
X149500000Y-105500000D03*
G04 #@! TO.P,LCD1,3*
G04 #@! TO.N,Net-(C3-Pad2)*
X148000000Y-105500000D03*
G04 #@! TO.P,LCD1,2*
G04 #@! TO.N,Net-(C2-Pad1)*
X146500000Y-105500000D03*
G04 #@! TO.P,LCD1,1*
G04 #@! TO.N,Net-(LCD1-Pad1)*
X145000000Y-105500000D03*
G04 #@! TD*
D11*
G04 #@! TO.P,Writer,1*
G04 #@! TO.N,+3V3*
X130500000Y-99000000D03*
D10*
G04 #@! TO.P,Writer,2*
G04 #@! TO.N,TCK*
X130500000Y-97000000D03*
G04 #@! TO.P,Writer,3*
G04 #@! TO.N,GND*
X130500000Y-95000000D03*
G04 #@! TO.P,Writer,4*
G04 #@! TO.N,TMS*
X130500000Y-93000000D03*
G04 #@! TO.P,Writer,5*
G04 #@! TO.N,NRST*
X130500000Y-91000000D03*
G04 #@! TO.P,Writer,6*
G04 #@! TO.N,SWO*
X130500000Y-89000000D03*
G04 #@! TD*
D13*
G04 #@! TO.P,3,1*
G04 #@! TO.N,TACT_SW3*
X156500000Y-108500000D03*
G04 #@! TO.P,3,2*
G04 #@! TO.N,GND*
X156500000Y-113500000D03*
G04 #@! TD*
G04 #@! TO.P,1,1*
G04 #@! TO.N,TACT_SW1*
X138500000Y-108500000D03*
G04 #@! TO.P,1,2*
G04 #@! TO.N,GND*
X138500000Y-113500000D03*
G04 #@! TD*
D14*
G04 #@! TO.P,R9,2*
G04 #@! TO.N,Net-(D3-Pad2)*
X174300000Y-89900000D03*
G04 #@! TO.P,R9,1*
G04 #@! TO.N,+3V3*
X174300000Y-88400000D03*
G04 #@! TD*
D15*
G04 #@! TO.P,R5,2*
G04 #@! TO.N,Net-(D2-Pad2)*
X171700000Y-113600000D03*
G04 #@! TO.P,R5,1*
G04 #@! TO.N,DEBUG_LED2*
X170200000Y-113600000D03*
G04 #@! TD*
G04 #@! TO.P,R4,2*
G04 #@! TO.N,Net-(D1-Pad2)*
X132300000Y-113600000D03*
G04 #@! TO.P,R4,1*
G04 #@! TO.N,DEBUG_LED1*
X133800000Y-113600000D03*
G04 #@! TD*
D11*
G04 #@! TO.P,Debugger,1*
G04 #@! TO.N,+3V3*
X130500000Y-110000000D03*
D10*
G04 #@! TO.P,Debugger,2*
G04 #@! TO.N,RX*
X130500000Y-108000000D03*
G04 #@! TO.P,Debugger,3*
G04 #@! TO.N,TX*
X130500000Y-106000000D03*
G04 #@! TO.P,Debugger,4*
G04 #@! TO.N,GND*
X130500000Y-104000000D03*
G04 #@! TD*
D16*
G04 #@! TO.P,D3,2*
G04 #@! TO.N,Net-(D3-Pad2)*
X176200000Y-89800000D03*
G04 #@! TO.P,D3,1*
G04 #@! TO.N,GND*
X176200000Y-88300000D03*
G04 #@! TD*
G04 #@! TO.P,LED2,2*
G04 #@! TO.N,Net-(D2-Pad2)*
X173600000Y-113600000D03*
G04 #@! TO.P,LED2,1*
G04 #@! TO.N,GND*
X175100000Y-113600000D03*
G04 #@! TD*
G04 #@! TO.P,LED1,2*
G04 #@! TO.N,Net-(D1-Pad2)*
X130400000Y-113600000D03*
G04 #@! TO.P,LED1,1*
G04 #@! TO.N,GND*
X128900000Y-113600000D03*
G04 #@! TD*
D13*
G04 #@! TO.P,2,1*
G04 #@! TO.N,TACT_SW2*
X147500000Y-108500000D03*
G04 #@! TO.P,2,2*
G04 #@! TO.N,GND*
X147500000Y-113500000D03*
G04 #@! TD*
G04 #@! TO.P,4,1*
G04 #@! TO.N,TACT_SW4*
X165500000Y-108500000D03*
G04 #@! TO.P,4,2*
G04 #@! TO.N,GND*
X165500000Y-113500000D03*
G04 #@! TD*
D17*
G04 #@! TO.N,GND*
X127200000Y-114000000D03*
X176400000Y-114100000D03*
X176200000Y-86900000D03*
D18*
X124850000Y-100550000D03*
D17*
G04 #@! TO.N,+3V3*
X146500006Y-99000000D03*
X174300000Y-87100000D03*
X152650000Y-86500000D03*
G04 #@! TO.N,SCL*
X155824990Y-97400004D03*
X155500005Y-99692803D03*
G04 #@! TO.N,DEBUG_LED2*
X170250000Y-111900000D03*
G04 #@! TO.N,DEBUG_LED1*
X134100000Y-111800000D03*
G04 #@! TO.N,TACT_SW4*
X157050000Y-99500000D03*
X159674990Y-99500004D03*
G04 #@! TO.N,TACT_SW2*
X155150000Y-95500000D03*
X158350000Y-95500000D03*
G04 #@! TO.N,R_SW8*
X155250000Y-93000000D03*
X161450000Y-92949998D03*
G04 #@! TO.N,R_SW4*
X164900000Y-93500000D03*
X154750000Y-92050000D03*
G04 #@! TO.N,R_SW2*
X153650000Y-92050000D03*
X162250000Y-94600000D03*
G04 #@! TO.N,R_SW1*
X152850002Y-91250000D03*
X161449992Y-91250000D03*
G04 #@! TD*
D19*
G04 #@! TO.N,GND*
X127600000Y-113600000D02*
X128900000Y-113600000D01*
X127200000Y-114000000D02*
X127600000Y-113600000D01*
X175900000Y-113600000D02*
X175100000Y-113600000D01*
X176400000Y-114100000D02*
X175900000Y-113600000D01*
X176200000Y-88300000D02*
X176200000Y-86900000D01*
G04 #@! TO.N,+3V3*
X129300000Y-110000000D02*
X130500000Y-110000000D01*
X127200000Y-107900000D02*
X129300000Y-110000000D01*
X127200000Y-102300000D02*
X127200000Y-107900000D01*
X130500000Y-99000000D02*
X127200000Y-99000000D01*
X127200000Y-99000000D02*
X127200000Y-102300000D01*
X146500006Y-99000000D02*
X130500000Y-99000000D01*
X174300000Y-88400000D02*
X174300000Y-87100000D01*
X173700000Y-86500000D02*
X174300000Y-87100000D01*
X129800000Y-86500000D02*
X127200000Y-89100000D01*
X127200000Y-89100000D02*
X127200000Y-99000000D01*
X152650000Y-86500000D02*
X129800000Y-86500000D01*
X173700000Y-86500000D02*
X152650000Y-86500000D01*
X157000000Y-104700000D02*
X157000000Y-105500000D01*
X155900000Y-103600000D02*
X157000000Y-104700000D01*
X152050000Y-103600000D02*
X155900000Y-103600000D01*
X151000000Y-105500000D02*
X151000000Y-104650000D01*
X151000000Y-104650000D02*
X152050000Y-103600000D01*
D20*
G04 #@! TO.N,Net-(D1-Pad2)*
X130400000Y-113600000D02*
X132300000Y-113600000D01*
G04 #@! TO.N,Net-(D2-Pad2)*
X173600000Y-113600000D02*
X171700000Y-113600000D01*
D19*
G04 #@! TO.N,Net-(D3-Pad2)*
X176100000Y-89900000D02*
X176200000Y-89800000D01*
X174300000Y-89900000D02*
X176100000Y-89900000D01*
D20*
G04 #@! TO.N,SCL*
X155500005Y-97724989D02*
X155824990Y-97400004D01*
X155500005Y-99692803D02*
X155500005Y-97724989D01*
G04 #@! TO.N,DEBUG_LED2*
X170200000Y-113600000D02*
X170200000Y-111950000D01*
X170200000Y-111950000D02*
X170250000Y-111900000D01*
G04 #@! TO.N,DEBUG_LED1*
X133800000Y-113600000D02*
X133800000Y-112100000D01*
X133800000Y-112100000D02*
X134100000Y-111800000D01*
G04 #@! TO.N,TACT_SW4*
X157050000Y-99500000D02*
X159674986Y-99500000D01*
X159674986Y-99500000D02*
X159674990Y-99500004D01*
G04 #@! TO.N,TACT_SW2*
X155150000Y-95500000D02*
X158350000Y-95500000D01*
G04 #@! TO.N,R_SW8*
X155250000Y-93000000D02*
X161399998Y-93000000D01*
X161399998Y-93000000D02*
X161450000Y-92949998D01*
G04 #@! TO.N,R_SW4*
X155315685Y-92050000D02*
X154750000Y-92050000D01*
X163450000Y-92050000D02*
X155315685Y-92050000D01*
X164900000Y-93500000D02*
X163450000Y-92050000D01*
G04 #@! TO.N,R_SW2*
X161684315Y-94600000D02*
X162250000Y-94600000D01*
X154500000Y-94600000D02*
X161684315Y-94600000D01*
X153650000Y-92050000D02*
X153650000Y-93750000D01*
X153650000Y-93750000D02*
X154500000Y-94600000D01*
G04 #@! TO.N,R_SW1*
X152850002Y-91250000D02*
X161449992Y-91250000D01*
G04 #@! TD*
D21*
G04 #@! TO.N,GND*
G36*
X177571348Y-82211316D02*
X177225000Y-83047474D01*
X177225000Y-83952526D01*
X177571348Y-84788684D01*
X178211316Y-85428652D01*
X179047474Y-85775000D01*
X179952526Y-85775000D01*
X180788684Y-85428652D01*
X181225001Y-84992335D01*
X181225000Y-117007664D01*
X180788684Y-116571348D01*
X179952526Y-116225000D01*
X179047474Y-116225000D01*
X178211316Y-116571348D01*
X177571348Y-117211316D01*
X177225000Y-118047474D01*
X177225000Y-118952526D01*
X177571348Y-119788684D01*
X178007664Y-120225000D01*
X125992336Y-120225000D01*
X126428652Y-119788684D01*
X126775000Y-118952526D01*
X126775000Y-118047474D01*
X126428652Y-117211316D01*
X125788684Y-116571348D01*
X124952526Y-116225000D01*
X124047474Y-116225000D01*
X123211316Y-116571348D01*
X122775000Y-117007664D01*
X122775000Y-113200000D01*
X129311776Y-113200000D01*
X129311776Y-114000000D01*
X129364164Y-114263372D01*
X129513352Y-114486648D01*
X129736628Y-114635836D01*
X130000000Y-114688224D01*
X130800000Y-114688224D01*
X131063372Y-114635836D01*
X131286648Y-114486648D01*
X131344544Y-114400000D01*
X131505456Y-114400000D01*
X131563352Y-114486648D01*
X131786628Y-114635836D01*
X132050000Y-114688224D01*
X132550000Y-114688224D01*
X132813372Y-114635836D01*
X133036648Y-114486648D01*
X133050000Y-114466665D01*
X133063352Y-114486648D01*
X133286628Y-114635836D01*
X133550000Y-114688224D01*
X134050000Y-114688224D01*
X134313372Y-114635836D01*
X134536648Y-114486648D01*
X134685836Y-114263372D01*
X134738224Y-114000000D01*
X134738224Y-113200000D01*
X134685836Y-112936628D01*
X134600000Y-112808165D01*
X134600000Y-112756465D01*
X134708938Y-112711341D01*
X135011341Y-112408938D01*
X135175000Y-112013831D01*
X135175000Y-111686169D01*
X169175000Y-111686169D01*
X169175000Y-112113831D01*
X169338659Y-112508938D01*
X169400001Y-112570280D01*
X169400000Y-112808164D01*
X169314164Y-112936628D01*
X169261776Y-113200000D01*
X169261776Y-114000000D01*
X169314164Y-114263372D01*
X169463352Y-114486648D01*
X169686628Y-114635836D01*
X169950000Y-114688224D01*
X170450000Y-114688224D01*
X170713372Y-114635836D01*
X170936648Y-114486648D01*
X170950000Y-114466665D01*
X170963352Y-114486648D01*
X171186628Y-114635836D01*
X171450000Y-114688224D01*
X171950000Y-114688224D01*
X172213372Y-114635836D01*
X172436648Y-114486648D01*
X172494544Y-114400000D01*
X172655456Y-114400000D01*
X172713352Y-114486648D01*
X172936628Y-114635836D01*
X173200000Y-114688224D01*
X174000000Y-114688224D01*
X174263372Y-114635836D01*
X174486648Y-114486648D01*
X174635836Y-114263372D01*
X174688224Y-114000000D01*
X174688224Y-113200000D01*
X174635836Y-112936628D01*
X174486648Y-112713352D01*
X174263372Y-112564164D01*
X174000000Y-112511776D01*
X173200000Y-112511776D01*
X172936628Y-112564164D01*
X172713352Y-112713352D01*
X172655456Y-112800000D01*
X172494544Y-112800000D01*
X172436648Y-112713352D01*
X172213372Y-112564164D01*
X171950000Y-112511776D01*
X171450000Y-112511776D01*
X171186628Y-112564164D01*
X171000000Y-112688865D01*
X171000000Y-112670279D01*
X171161341Y-112508938D01*
X171325000Y-112113831D01*
X171325000Y-111686169D01*
X171161341Y-111291062D01*
X170858938Y-110988659D01*
X170463831Y-110825000D01*
X170036169Y-110825000D01*
X169641062Y-110988659D01*
X169338659Y-111291062D01*
X169175000Y-111686169D01*
X135175000Y-111686169D01*
X135175000Y-111586169D01*
X135011341Y-111191062D01*
X134708938Y-110888659D01*
X134313831Y-110725000D01*
X133886169Y-110725000D01*
X133491062Y-110888659D01*
X133188659Y-111191062D01*
X133025000Y-111586169D01*
X133025000Y-111895532D01*
X132984329Y-112100000D01*
X133000001Y-112178788D01*
X133000001Y-112688865D01*
X132813372Y-112564164D01*
X132550000Y-112511776D01*
X132050000Y-112511776D01*
X131786628Y-112564164D01*
X131563352Y-112713352D01*
X131505456Y-112800000D01*
X131344544Y-112800000D01*
X131286648Y-112713352D01*
X131063372Y-112564164D01*
X130800000Y-112511776D01*
X130000000Y-112511776D01*
X129736628Y-112564164D01*
X129513352Y-112713352D01*
X129364164Y-112936628D01*
X129311776Y-113200000D01*
X122775000Y-113200000D01*
X122775000Y-99000000D01*
X126256879Y-99000000D01*
X126275000Y-99091100D01*
X126275001Y-102208896D01*
X126275000Y-102208901D01*
X126275001Y-107808899D01*
X126256880Y-107900000D01*
X126328670Y-108260916D01*
X126481509Y-108489656D01*
X126481511Y-108489658D01*
X126533114Y-108566887D01*
X126610343Y-108618490D01*
X128581508Y-110589655D01*
X128633113Y-110666887D01*
X128939083Y-110871330D01*
X129076979Y-110898759D01*
X129102164Y-111025372D01*
X129251352Y-111248648D01*
X129474628Y-111397836D01*
X129738000Y-111450224D01*
X131262000Y-111450224D01*
X131525372Y-111397836D01*
X131748648Y-111248648D01*
X131897836Y-111025372D01*
X131950224Y-110762000D01*
X131950224Y-109484114D01*
X131961679Y-109466970D01*
X131975000Y-109400000D01*
X131975000Y-108166822D01*
X136825000Y-108166822D01*
X136825000Y-108833178D01*
X137080004Y-109448811D01*
X137551189Y-109919996D01*
X138166822Y-110175000D01*
X138833178Y-110175000D01*
X139448811Y-109919996D01*
X139919996Y-109448811D01*
X140175000Y-108833178D01*
X140175000Y-108166822D01*
X139919996Y-107551189D01*
X139448811Y-107080004D01*
X138833178Y-106825000D01*
X138166822Y-106825000D01*
X137551189Y-107080004D01*
X137080004Y-107551189D01*
X136825000Y-108166822D01*
X131975000Y-108166822D01*
X131975000Y-104884277D01*
X143825000Y-104884277D01*
X143825000Y-106115724D01*
X143893175Y-106458462D01*
X144152874Y-106847127D01*
X144541539Y-107106825D01*
X145000000Y-107198019D01*
X145458462Y-107106825D01*
X145750001Y-106912025D01*
X146041539Y-107106825D01*
X146444261Y-107186932D01*
X146080004Y-107551189D01*
X145825000Y-108166822D01*
X145825000Y-108833178D01*
X146080004Y-109448811D01*
X146551189Y-109919996D01*
X147166822Y-110175000D01*
X147833178Y-110175000D01*
X148448811Y-109919996D01*
X148919996Y-109448811D01*
X149175000Y-108833178D01*
X149175000Y-108166822D01*
X148919996Y-107551189D01*
X148468755Y-107099948D01*
X148750001Y-106912025D01*
X149041539Y-107106825D01*
X149500000Y-107198019D01*
X149958462Y-107106825D01*
X150250001Y-106912025D01*
X150541539Y-107106825D01*
X151000000Y-107198019D01*
X151458462Y-107106825D01*
X151847127Y-106847127D01*
X152106825Y-106458462D01*
X152175000Y-106115724D01*
X152175000Y-104884276D01*
X152158222Y-104799926D01*
X152433148Y-104525000D01*
X152904226Y-104525000D01*
X152893175Y-104541539D01*
X152825000Y-104884277D01*
X152825000Y-106115724D01*
X152893175Y-106458462D01*
X153152874Y-106847127D01*
X153541539Y-107106825D01*
X154000000Y-107198019D01*
X154458462Y-107106825D01*
X154750001Y-106912025D01*
X155041539Y-107106825D01*
X155444261Y-107186932D01*
X155080004Y-107551189D01*
X154825000Y-108166822D01*
X154825000Y-108833178D01*
X155080004Y-109448811D01*
X155551189Y-109919996D01*
X156166822Y-110175000D01*
X156833178Y-110175000D01*
X157448811Y-109919996D01*
X157919996Y-109448811D01*
X158175000Y-108833178D01*
X158175000Y-108166822D01*
X163825000Y-108166822D01*
X163825000Y-108833178D01*
X164080004Y-109448811D01*
X164551189Y-109919996D01*
X165166822Y-110175000D01*
X165833178Y-110175000D01*
X166448811Y-109919996D01*
X166919996Y-109448811D01*
X167175000Y-108833178D01*
X167175000Y-108166822D01*
X166919996Y-107551189D01*
X166448811Y-107080004D01*
X165833178Y-106825000D01*
X165166822Y-106825000D01*
X164551189Y-107080004D01*
X164080004Y-107551189D01*
X163825000Y-108166822D01*
X158175000Y-108166822D01*
X157919996Y-107551189D01*
X157468755Y-107099948D01*
X157847127Y-106847127D01*
X158106825Y-106458462D01*
X158175000Y-106115724D01*
X158175000Y-104884276D01*
X158106825Y-104541538D01*
X157847127Y-104152873D01*
X157587632Y-103979484D01*
X156618491Y-103010344D01*
X156566887Y-102933113D01*
X156260917Y-102728670D01*
X155991100Y-102675000D01*
X155991096Y-102675000D01*
X155900000Y-102656880D01*
X155808904Y-102675000D01*
X152141095Y-102675000D01*
X152049999Y-102656880D01*
X151958903Y-102675000D01*
X151958900Y-102675000D01*
X151698690Y-102726759D01*
X151689083Y-102728670D01*
X151460343Y-102881509D01*
X151460342Y-102881510D01*
X151383113Y-102933113D01*
X151331510Y-103010342D01*
X150410342Y-103931511D01*
X150333114Y-103983113D01*
X150281511Y-104060342D01*
X150281509Y-104060344D01*
X150273570Y-104072226D01*
X150250000Y-104087975D01*
X149958461Y-103893175D01*
X149500000Y-103801981D01*
X149041538Y-103893175D01*
X148750000Y-104087975D01*
X148458461Y-103893175D01*
X148000000Y-103801981D01*
X147541538Y-103893175D01*
X147250000Y-104087975D01*
X146958461Y-103893175D01*
X146500000Y-103801981D01*
X146041538Y-103893175D01*
X145750000Y-104087975D01*
X145458461Y-103893175D01*
X145000000Y-103801981D01*
X144541538Y-103893175D01*
X144152873Y-104152873D01*
X143893175Y-104541539D01*
X143825000Y-104884277D01*
X131975000Y-104884277D01*
X131975000Y-101959163D01*
X167488000Y-101959163D01*
X167488000Y-102530837D01*
X167706771Y-103058995D01*
X168111005Y-103463229D01*
X168639163Y-103682000D01*
X169210837Y-103682000D01*
X169738995Y-103463229D01*
X170143229Y-103058995D01*
X170362000Y-102530837D01*
X170362000Y-101959163D01*
X172568000Y-101959163D01*
X172568000Y-102530837D01*
X172786771Y-103058995D01*
X173191005Y-103463229D01*
X173719163Y-103682000D01*
X174290837Y-103682000D01*
X174818995Y-103463229D01*
X175223229Y-103058995D01*
X175442000Y-102530837D01*
X175442000Y-101959163D01*
X175223229Y-101431005D01*
X174818995Y-101026771D01*
X174290837Y-100808000D01*
X173719163Y-100808000D01*
X173191005Y-101026771D01*
X172786771Y-101431005D01*
X172568000Y-101959163D01*
X170362000Y-101959163D01*
X170143229Y-101431005D01*
X169738995Y-101026771D01*
X169210837Y-100808000D01*
X168639163Y-100808000D01*
X168111005Y-101026771D01*
X167706771Y-101431005D01*
X167488000Y-101959163D01*
X131975000Y-101959163D01*
X131975000Y-99925000D01*
X145924044Y-99925000D01*
X146286175Y-100075000D01*
X146713837Y-100075000D01*
X147108944Y-99911341D01*
X147411347Y-99608938D01*
X147575006Y-99213831D01*
X147575006Y-98786169D01*
X147411347Y-98391062D01*
X147108944Y-98088659D01*
X146713837Y-97925000D01*
X146286175Y-97925000D01*
X145924044Y-98075000D01*
X132173866Y-98075000D01*
X132109585Y-91036169D01*
X151775002Y-91036169D01*
X151775002Y-91463831D01*
X151938661Y-91858938D01*
X152241064Y-92161341D01*
X152592916Y-92307083D01*
X152738659Y-92658938D01*
X152850000Y-92770279D01*
X152850001Y-93671212D01*
X152834329Y-93750000D01*
X152896418Y-94062144D01*
X153028603Y-94259973D01*
X153028605Y-94259975D01*
X153073234Y-94326767D01*
X153140026Y-94371396D01*
X153878602Y-95109972D01*
X153923233Y-95176767D01*
X154071347Y-95275734D01*
X154077593Y-95279908D01*
X154075000Y-95286169D01*
X154075000Y-95713831D01*
X154238659Y-96108938D01*
X154541062Y-96411341D01*
X154936169Y-96575000D01*
X155129715Y-96575000D01*
X154913649Y-96791066D01*
X154749990Y-97186173D01*
X154749990Y-97407507D01*
X154746423Y-97412845D01*
X154684334Y-97724989D01*
X154700006Y-97803777D01*
X154700005Y-98972524D01*
X154588664Y-99083865D01*
X154425005Y-99478972D01*
X154425005Y-99906634D01*
X154588664Y-100301741D01*
X154891067Y-100604144D01*
X155286174Y-100767803D01*
X155713836Y-100767803D01*
X156108943Y-100604144D01*
X156371404Y-100341683D01*
X156441062Y-100411341D01*
X156836169Y-100575000D01*
X157263831Y-100575000D01*
X157658938Y-100411341D01*
X157770279Y-100300000D01*
X158954707Y-100300000D01*
X159066052Y-100411345D01*
X159461159Y-100575004D01*
X159888821Y-100575004D01*
X160283928Y-100411345D01*
X160586331Y-100108942D01*
X160749990Y-99713835D01*
X160749990Y-99534464D01*
X160761679Y-99516970D01*
X160775000Y-99450000D01*
X160775000Y-95400000D01*
X161529721Y-95400000D01*
X161641062Y-95511341D01*
X162036169Y-95675000D01*
X164000000Y-95675000D01*
X164066970Y-95661679D01*
X164123744Y-95623744D01*
X164161679Y-95566970D01*
X164175000Y-95500000D01*
X164175000Y-94295279D01*
X164291062Y-94411341D01*
X164686169Y-94575000D01*
X165113831Y-94575000D01*
X165508938Y-94411341D01*
X165581116Y-94339163D01*
X167488000Y-94339163D01*
X167488000Y-94910837D01*
X167706771Y-95438995D01*
X168111005Y-95843229D01*
X168639163Y-96062000D01*
X169210837Y-96062000D01*
X169738995Y-95843229D01*
X170143229Y-95438995D01*
X170362000Y-94910837D01*
X170362000Y-94339163D01*
X170164767Y-93863000D01*
X172554776Y-93863000D01*
X172554776Y-95387000D01*
X172607164Y-95650372D01*
X172756352Y-95873648D01*
X172979628Y-96022836D01*
X173243000Y-96075224D01*
X174767000Y-96075224D01*
X175030372Y-96022836D01*
X175253648Y-95873648D01*
X175402836Y-95650372D01*
X175455224Y-95387000D01*
X175455224Y-93863000D01*
X175402836Y-93599628D01*
X175253648Y-93376352D01*
X175030372Y-93227164D01*
X174767000Y-93174776D01*
X173243000Y-93174776D01*
X172979628Y-93227164D01*
X172756352Y-93376352D01*
X172607164Y-93599628D01*
X172554776Y-93863000D01*
X170164767Y-93863000D01*
X170143229Y-93811005D01*
X169738995Y-93406771D01*
X169210837Y-93188000D01*
X168639163Y-93188000D01*
X168111005Y-93406771D01*
X167706771Y-93811005D01*
X167488000Y-94339163D01*
X165581116Y-94339163D01*
X165811341Y-94108938D01*
X165975000Y-93713831D01*
X165975000Y-93286169D01*
X165811341Y-92891062D01*
X165508938Y-92588659D01*
X165113831Y-92425000D01*
X164956370Y-92425000D01*
X164071398Y-91540028D01*
X164026767Y-91473233D01*
X163762144Y-91296417D01*
X163528789Y-91250000D01*
X163528784Y-91250000D01*
X163450000Y-91234329D01*
X163371216Y-91250000D01*
X162524992Y-91250000D01*
X162524992Y-91036169D01*
X162361333Y-90641062D01*
X162058930Y-90338659D01*
X161663823Y-90175000D01*
X161236161Y-90175000D01*
X160841054Y-90338659D01*
X160729713Y-90450000D01*
X153570281Y-90450000D01*
X153458940Y-90338659D01*
X153063833Y-90175000D01*
X152636171Y-90175000D01*
X152241064Y-90338659D01*
X151938661Y-90641062D01*
X151775002Y-91036169D01*
X132109585Y-91036169D01*
X132076606Y-87425000D01*
X152074038Y-87425000D01*
X152436169Y-87575000D01*
X152863831Y-87575000D01*
X153225962Y-87425000D01*
X173271048Y-87425000D01*
X173375001Y-87675964D01*
X173375001Y-87720749D01*
X173264164Y-87886628D01*
X173211776Y-88150000D01*
X173211776Y-88650000D01*
X173264164Y-88913372D01*
X173413352Y-89136648D01*
X173433335Y-89150000D01*
X173413352Y-89163352D01*
X173264164Y-89386628D01*
X173211776Y-89650000D01*
X173211776Y-90150000D01*
X173264164Y-90413372D01*
X173413352Y-90636648D01*
X173636628Y-90785836D01*
X173900000Y-90838224D01*
X174700000Y-90838224D01*
X174766481Y-90825000D01*
X175520411Y-90825000D01*
X175536628Y-90835836D01*
X175800000Y-90888224D01*
X176600000Y-90888224D01*
X176863372Y-90835836D01*
X177086648Y-90686648D01*
X177235836Y-90463372D01*
X177288224Y-90200000D01*
X177288224Y-89400000D01*
X177235836Y-89136628D01*
X177086648Y-88913352D01*
X176863372Y-88764164D01*
X176600000Y-88711776D01*
X175800000Y-88711776D01*
X175536628Y-88764164D01*
X175339287Y-88896023D01*
X175388224Y-88650000D01*
X175388224Y-88150000D01*
X175335836Y-87886628D01*
X175225000Y-87720750D01*
X175225000Y-87675962D01*
X175375000Y-87313831D01*
X175375000Y-86886169D01*
X175211341Y-86491062D01*
X174908938Y-86188659D01*
X174546806Y-86038659D01*
X174418491Y-85910344D01*
X174366887Y-85833113D01*
X174060917Y-85628670D01*
X173791100Y-85575000D01*
X173791096Y-85575000D01*
X173700000Y-85556880D01*
X173608904Y-85575000D01*
X153225962Y-85575000D01*
X152863831Y-85425000D01*
X152436169Y-85425000D01*
X152074038Y-85575000D01*
X129891095Y-85575000D01*
X129799999Y-85556880D01*
X129708903Y-85575000D01*
X129708900Y-85575000D01*
X129439083Y-85628670D01*
X129210343Y-85781509D01*
X129210342Y-85781510D01*
X129133113Y-85833113D01*
X129081510Y-85910342D01*
X126610344Y-88381508D01*
X126533113Y-88433113D01*
X126328670Y-88739084D01*
X126275000Y-89008901D01*
X126275000Y-89008904D01*
X126256880Y-89100000D01*
X126275000Y-89191096D01*
X126275001Y-98908895D01*
X126256879Y-99000000D01*
X122775000Y-99000000D01*
X122775000Y-84992336D01*
X123211316Y-85428652D01*
X124047474Y-85775000D01*
X124952526Y-85775000D01*
X125788684Y-85428652D01*
X126428652Y-84788684D01*
X126775000Y-83952526D01*
X126775000Y-83047474D01*
X126428652Y-82211316D01*
X125992336Y-81775000D01*
X178007664Y-81775000D01*
X177571348Y-82211316D01*
X177571348Y-82211316D01*
G37*
X177571348Y-82211316D02*
X177225000Y-83047474D01*
X177225000Y-83952526D01*
X177571348Y-84788684D01*
X178211316Y-85428652D01*
X179047474Y-85775000D01*
X179952526Y-85775000D01*
X180788684Y-85428652D01*
X181225001Y-84992335D01*
X181225000Y-117007664D01*
X180788684Y-116571348D01*
X179952526Y-116225000D01*
X179047474Y-116225000D01*
X178211316Y-116571348D01*
X177571348Y-117211316D01*
X177225000Y-118047474D01*
X177225000Y-118952526D01*
X177571348Y-119788684D01*
X178007664Y-120225000D01*
X125992336Y-120225000D01*
X126428652Y-119788684D01*
X126775000Y-118952526D01*
X126775000Y-118047474D01*
X126428652Y-117211316D01*
X125788684Y-116571348D01*
X124952526Y-116225000D01*
X124047474Y-116225000D01*
X123211316Y-116571348D01*
X122775000Y-117007664D01*
X122775000Y-113200000D01*
X129311776Y-113200000D01*
X129311776Y-114000000D01*
X129364164Y-114263372D01*
X129513352Y-114486648D01*
X129736628Y-114635836D01*
X130000000Y-114688224D01*
X130800000Y-114688224D01*
X131063372Y-114635836D01*
X131286648Y-114486648D01*
X131344544Y-114400000D01*
X131505456Y-114400000D01*
X131563352Y-114486648D01*
X131786628Y-114635836D01*
X132050000Y-114688224D01*
X132550000Y-114688224D01*
X132813372Y-114635836D01*
X133036648Y-114486648D01*
X133050000Y-114466665D01*
X133063352Y-114486648D01*
X133286628Y-114635836D01*
X133550000Y-114688224D01*
X134050000Y-114688224D01*
X134313372Y-114635836D01*
X134536648Y-114486648D01*
X134685836Y-114263372D01*
X134738224Y-114000000D01*
X134738224Y-113200000D01*
X134685836Y-112936628D01*
X134600000Y-112808165D01*
X134600000Y-112756465D01*
X134708938Y-112711341D01*
X135011341Y-112408938D01*
X135175000Y-112013831D01*
X135175000Y-111686169D01*
X169175000Y-111686169D01*
X169175000Y-112113831D01*
X169338659Y-112508938D01*
X169400001Y-112570280D01*
X169400000Y-112808164D01*
X169314164Y-112936628D01*
X169261776Y-113200000D01*
X169261776Y-114000000D01*
X169314164Y-114263372D01*
X169463352Y-114486648D01*
X169686628Y-114635836D01*
X169950000Y-114688224D01*
X170450000Y-114688224D01*
X170713372Y-114635836D01*
X170936648Y-114486648D01*
X170950000Y-114466665D01*
X170963352Y-114486648D01*
X171186628Y-114635836D01*
X171450000Y-114688224D01*
X171950000Y-114688224D01*
X172213372Y-114635836D01*
X172436648Y-114486648D01*
X172494544Y-114400000D01*
X172655456Y-114400000D01*
X172713352Y-114486648D01*
X172936628Y-114635836D01*
X173200000Y-114688224D01*
X174000000Y-114688224D01*
X174263372Y-114635836D01*
X174486648Y-114486648D01*
X174635836Y-114263372D01*
X174688224Y-114000000D01*
X174688224Y-113200000D01*
X174635836Y-112936628D01*
X174486648Y-112713352D01*
X174263372Y-112564164D01*
X174000000Y-112511776D01*
X173200000Y-112511776D01*
X172936628Y-112564164D01*
X172713352Y-112713352D01*
X172655456Y-112800000D01*
X172494544Y-112800000D01*
X172436648Y-112713352D01*
X172213372Y-112564164D01*
X171950000Y-112511776D01*
X171450000Y-112511776D01*
X171186628Y-112564164D01*
X171000000Y-112688865D01*
X171000000Y-112670279D01*
X171161341Y-112508938D01*
X171325000Y-112113831D01*
X171325000Y-111686169D01*
X171161341Y-111291062D01*
X170858938Y-110988659D01*
X170463831Y-110825000D01*
X170036169Y-110825000D01*
X169641062Y-110988659D01*
X169338659Y-111291062D01*
X169175000Y-111686169D01*
X135175000Y-111686169D01*
X135175000Y-111586169D01*
X135011341Y-111191062D01*
X134708938Y-110888659D01*
X134313831Y-110725000D01*
X133886169Y-110725000D01*
X133491062Y-110888659D01*
X133188659Y-111191062D01*
X133025000Y-111586169D01*
X133025000Y-111895532D01*
X132984329Y-112100000D01*
X133000001Y-112178788D01*
X133000001Y-112688865D01*
X132813372Y-112564164D01*
X132550000Y-112511776D01*
X132050000Y-112511776D01*
X131786628Y-112564164D01*
X131563352Y-112713352D01*
X131505456Y-112800000D01*
X131344544Y-112800000D01*
X131286648Y-112713352D01*
X131063372Y-112564164D01*
X130800000Y-112511776D01*
X130000000Y-112511776D01*
X129736628Y-112564164D01*
X129513352Y-112713352D01*
X129364164Y-112936628D01*
X129311776Y-113200000D01*
X122775000Y-113200000D01*
X122775000Y-99000000D01*
X126256879Y-99000000D01*
X126275000Y-99091100D01*
X126275001Y-102208896D01*
X126275000Y-102208901D01*
X126275001Y-107808899D01*
X126256880Y-107900000D01*
X126328670Y-108260916D01*
X126481509Y-108489656D01*
X126481511Y-108489658D01*
X126533114Y-108566887D01*
X126610343Y-108618490D01*
X128581508Y-110589655D01*
X128633113Y-110666887D01*
X128939083Y-110871330D01*
X129076979Y-110898759D01*
X129102164Y-111025372D01*
X129251352Y-111248648D01*
X129474628Y-111397836D01*
X129738000Y-111450224D01*
X131262000Y-111450224D01*
X131525372Y-111397836D01*
X131748648Y-111248648D01*
X131897836Y-111025372D01*
X131950224Y-110762000D01*
X131950224Y-109484114D01*
X131961679Y-109466970D01*
X131975000Y-109400000D01*
X131975000Y-108166822D01*
X136825000Y-108166822D01*
X136825000Y-108833178D01*
X137080004Y-109448811D01*
X137551189Y-109919996D01*
X138166822Y-110175000D01*
X138833178Y-110175000D01*
X139448811Y-109919996D01*
X139919996Y-109448811D01*
X140175000Y-108833178D01*
X140175000Y-108166822D01*
X139919996Y-107551189D01*
X139448811Y-107080004D01*
X138833178Y-106825000D01*
X138166822Y-106825000D01*
X137551189Y-107080004D01*
X137080004Y-107551189D01*
X136825000Y-108166822D01*
X131975000Y-108166822D01*
X131975000Y-104884277D01*
X143825000Y-104884277D01*
X143825000Y-106115724D01*
X143893175Y-106458462D01*
X144152874Y-106847127D01*
X144541539Y-107106825D01*
X145000000Y-107198019D01*
X145458462Y-107106825D01*
X145750001Y-106912025D01*
X146041539Y-107106825D01*
X146444261Y-107186932D01*
X146080004Y-107551189D01*
X145825000Y-108166822D01*
X145825000Y-108833178D01*
X146080004Y-109448811D01*
X146551189Y-109919996D01*
X147166822Y-110175000D01*
X147833178Y-110175000D01*
X148448811Y-109919996D01*
X148919996Y-109448811D01*
X149175000Y-108833178D01*
X149175000Y-108166822D01*
X148919996Y-107551189D01*
X148468755Y-107099948D01*
X148750001Y-106912025D01*
X149041539Y-107106825D01*
X149500000Y-107198019D01*
X149958462Y-107106825D01*
X150250001Y-106912025D01*
X150541539Y-107106825D01*
X151000000Y-107198019D01*
X151458462Y-107106825D01*
X151847127Y-106847127D01*
X152106825Y-106458462D01*
X152175000Y-106115724D01*
X152175000Y-104884276D01*
X152158222Y-104799926D01*
X152433148Y-104525000D01*
X152904226Y-104525000D01*
X152893175Y-104541539D01*
X152825000Y-104884277D01*
X152825000Y-106115724D01*
X152893175Y-106458462D01*
X153152874Y-106847127D01*
X153541539Y-107106825D01*
X154000000Y-107198019D01*
X154458462Y-107106825D01*
X154750001Y-106912025D01*
X155041539Y-107106825D01*
X155444261Y-107186932D01*
X155080004Y-107551189D01*
X154825000Y-108166822D01*
X154825000Y-108833178D01*
X155080004Y-109448811D01*
X155551189Y-109919996D01*
X156166822Y-110175000D01*
X156833178Y-110175000D01*
X157448811Y-109919996D01*
X157919996Y-109448811D01*
X158175000Y-108833178D01*
X158175000Y-108166822D01*
X163825000Y-108166822D01*
X163825000Y-108833178D01*
X164080004Y-109448811D01*
X164551189Y-109919996D01*
X165166822Y-110175000D01*
X165833178Y-110175000D01*
X166448811Y-109919996D01*
X166919996Y-109448811D01*
X167175000Y-108833178D01*
X167175000Y-108166822D01*
X166919996Y-107551189D01*
X166448811Y-107080004D01*
X165833178Y-106825000D01*
X165166822Y-106825000D01*
X164551189Y-107080004D01*
X164080004Y-107551189D01*
X163825000Y-108166822D01*
X158175000Y-108166822D01*
X157919996Y-107551189D01*
X157468755Y-107099948D01*
X157847127Y-106847127D01*
X158106825Y-106458462D01*
X158175000Y-106115724D01*
X158175000Y-104884276D01*
X158106825Y-104541538D01*
X157847127Y-104152873D01*
X157587632Y-103979484D01*
X156618491Y-103010344D01*
X156566887Y-102933113D01*
X156260917Y-102728670D01*
X155991100Y-102675000D01*
X155991096Y-102675000D01*
X155900000Y-102656880D01*
X155808904Y-102675000D01*
X152141095Y-102675000D01*
X152049999Y-102656880D01*
X151958903Y-102675000D01*
X151958900Y-102675000D01*
X151698690Y-102726759D01*
X151689083Y-102728670D01*
X151460343Y-102881509D01*
X151460342Y-102881510D01*
X151383113Y-102933113D01*
X151331510Y-103010342D01*
X150410342Y-103931511D01*
X150333114Y-103983113D01*
X150281511Y-104060342D01*
X150281509Y-104060344D01*
X150273570Y-104072226D01*
X150250000Y-104087975D01*
X149958461Y-103893175D01*
X149500000Y-103801981D01*
X149041538Y-103893175D01*
X148750000Y-104087975D01*
X148458461Y-103893175D01*
X148000000Y-103801981D01*
X147541538Y-103893175D01*
X147250000Y-104087975D01*
X146958461Y-103893175D01*
X146500000Y-103801981D01*
X146041538Y-103893175D01*
X145750000Y-104087975D01*
X145458461Y-103893175D01*
X145000000Y-103801981D01*
X144541538Y-103893175D01*
X144152873Y-104152873D01*
X143893175Y-104541539D01*
X143825000Y-104884277D01*
X131975000Y-104884277D01*
X131975000Y-101959163D01*
X167488000Y-101959163D01*
X167488000Y-102530837D01*
X167706771Y-103058995D01*
X168111005Y-103463229D01*
X168639163Y-103682000D01*
X169210837Y-103682000D01*
X169738995Y-103463229D01*
X170143229Y-103058995D01*
X170362000Y-102530837D01*
X170362000Y-101959163D01*
X172568000Y-101959163D01*
X172568000Y-102530837D01*
X172786771Y-103058995D01*
X173191005Y-103463229D01*
X173719163Y-103682000D01*
X174290837Y-103682000D01*
X174818995Y-103463229D01*
X175223229Y-103058995D01*
X175442000Y-102530837D01*
X175442000Y-101959163D01*
X175223229Y-101431005D01*
X174818995Y-101026771D01*
X174290837Y-100808000D01*
X173719163Y-100808000D01*
X173191005Y-101026771D01*
X172786771Y-101431005D01*
X172568000Y-101959163D01*
X170362000Y-101959163D01*
X170143229Y-101431005D01*
X169738995Y-101026771D01*
X169210837Y-100808000D01*
X168639163Y-100808000D01*
X168111005Y-101026771D01*
X167706771Y-101431005D01*
X167488000Y-101959163D01*
X131975000Y-101959163D01*
X131975000Y-99925000D01*
X145924044Y-99925000D01*
X146286175Y-100075000D01*
X146713837Y-100075000D01*
X147108944Y-99911341D01*
X147411347Y-99608938D01*
X147575006Y-99213831D01*
X147575006Y-98786169D01*
X147411347Y-98391062D01*
X147108944Y-98088659D01*
X146713837Y-97925000D01*
X146286175Y-97925000D01*
X145924044Y-98075000D01*
X132173866Y-98075000D01*
X132109585Y-91036169D01*
X151775002Y-91036169D01*
X151775002Y-91463831D01*
X151938661Y-91858938D01*
X152241064Y-92161341D01*
X152592916Y-92307083D01*
X152738659Y-92658938D01*
X152850000Y-92770279D01*
X152850001Y-93671212D01*
X152834329Y-93750000D01*
X152896418Y-94062144D01*
X153028603Y-94259973D01*
X153028605Y-94259975D01*
X153073234Y-94326767D01*
X153140026Y-94371396D01*
X153878602Y-95109972D01*
X153923233Y-95176767D01*
X154071347Y-95275734D01*
X154077593Y-95279908D01*
X154075000Y-95286169D01*
X154075000Y-95713831D01*
X154238659Y-96108938D01*
X154541062Y-96411341D01*
X154936169Y-96575000D01*
X155129715Y-96575000D01*
X154913649Y-96791066D01*
X154749990Y-97186173D01*
X154749990Y-97407507D01*
X154746423Y-97412845D01*
X154684334Y-97724989D01*
X154700006Y-97803777D01*
X154700005Y-98972524D01*
X154588664Y-99083865D01*
X154425005Y-99478972D01*
X154425005Y-99906634D01*
X154588664Y-100301741D01*
X154891067Y-100604144D01*
X155286174Y-100767803D01*
X155713836Y-100767803D01*
X156108943Y-100604144D01*
X156371404Y-100341683D01*
X156441062Y-100411341D01*
X156836169Y-100575000D01*
X157263831Y-100575000D01*
X157658938Y-100411341D01*
X157770279Y-100300000D01*
X158954707Y-100300000D01*
X159066052Y-100411345D01*
X159461159Y-100575004D01*
X159888821Y-100575004D01*
X160283928Y-100411345D01*
X160586331Y-100108942D01*
X160749990Y-99713835D01*
X160749990Y-99534464D01*
X160761679Y-99516970D01*
X160775000Y-99450000D01*
X160775000Y-95400000D01*
X161529721Y-95400000D01*
X161641062Y-95511341D01*
X162036169Y-95675000D01*
X164000000Y-95675000D01*
X164066970Y-95661679D01*
X164123744Y-95623744D01*
X164161679Y-95566970D01*
X164175000Y-95500000D01*
X164175000Y-94295279D01*
X164291062Y-94411341D01*
X164686169Y-94575000D01*
X165113831Y-94575000D01*
X165508938Y-94411341D01*
X165581116Y-94339163D01*
X167488000Y-94339163D01*
X167488000Y-94910837D01*
X167706771Y-95438995D01*
X168111005Y-95843229D01*
X168639163Y-96062000D01*
X169210837Y-96062000D01*
X169738995Y-95843229D01*
X170143229Y-95438995D01*
X170362000Y-94910837D01*
X170362000Y-94339163D01*
X170164767Y-93863000D01*
X172554776Y-93863000D01*
X172554776Y-95387000D01*
X172607164Y-95650372D01*
X172756352Y-95873648D01*
X172979628Y-96022836D01*
X173243000Y-96075224D01*
X174767000Y-96075224D01*
X175030372Y-96022836D01*
X175253648Y-95873648D01*
X175402836Y-95650372D01*
X175455224Y-95387000D01*
X175455224Y-93863000D01*
X175402836Y-93599628D01*
X175253648Y-93376352D01*
X175030372Y-93227164D01*
X174767000Y-93174776D01*
X173243000Y-93174776D01*
X172979628Y-93227164D01*
X172756352Y-93376352D01*
X172607164Y-93599628D01*
X172554776Y-93863000D01*
X170164767Y-93863000D01*
X170143229Y-93811005D01*
X169738995Y-93406771D01*
X169210837Y-93188000D01*
X168639163Y-93188000D01*
X168111005Y-93406771D01*
X167706771Y-93811005D01*
X167488000Y-94339163D01*
X165581116Y-94339163D01*
X165811341Y-94108938D01*
X165975000Y-93713831D01*
X165975000Y-93286169D01*
X165811341Y-92891062D01*
X165508938Y-92588659D01*
X165113831Y-92425000D01*
X164956370Y-92425000D01*
X164071398Y-91540028D01*
X164026767Y-91473233D01*
X163762144Y-91296417D01*
X163528789Y-91250000D01*
X163528784Y-91250000D01*
X163450000Y-91234329D01*
X163371216Y-91250000D01*
X162524992Y-91250000D01*
X162524992Y-91036169D01*
X162361333Y-90641062D01*
X162058930Y-90338659D01*
X161663823Y-90175000D01*
X161236161Y-90175000D01*
X160841054Y-90338659D01*
X160729713Y-90450000D01*
X153570281Y-90450000D01*
X153458940Y-90338659D01*
X153063833Y-90175000D01*
X152636171Y-90175000D01*
X152241064Y-90338659D01*
X151938661Y-90641062D01*
X151775002Y-91036169D01*
X132109585Y-91036169D01*
X132076606Y-87425000D01*
X152074038Y-87425000D01*
X152436169Y-87575000D01*
X152863831Y-87575000D01*
X153225962Y-87425000D01*
X173271048Y-87425000D01*
X173375001Y-87675964D01*
X173375001Y-87720749D01*
X173264164Y-87886628D01*
X173211776Y-88150000D01*
X173211776Y-88650000D01*
X173264164Y-88913372D01*
X173413352Y-89136648D01*
X173433335Y-89150000D01*
X173413352Y-89163352D01*
X173264164Y-89386628D01*
X173211776Y-89650000D01*
X173211776Y-90150000D01*
X173264164Y-90413372D01*
X173413352Y-90636648D01*
X173636628Y-90785836D01*
X173900000Y-90838224D01*
X174700000Y-90838224D01*
X174766481Y-90825000D01*
X175520411Y-90825000D01*
X175536628Y-90835836D01*
X175800000Y-90888224D01*
X176600000Y-90888224D01*
X176863372Y-90835836D01*
X177086648Y-90686648D01*
X177235836Y-90463372D01*
X177288224Y-90200000D01*
X177288224Y-89400000D01*
X177235836Y-89136628D01*
X177086648Y-88913352D01*
X176863372Y-88764164D01*
X176600000Y-88711776D01*
X175800000Y-88711776D01*
X175536628Y-88764164D01*
X175339287Y-88896023D01*
X175388224Y-88650000D01*
X175388224Y-88150000D01*
X175335836Y-87886628D01*
X175225000Y-87720750D01*
X175225000Y-87675962D01*
X175375000Y-87313831D01*
X175375000Y-86886169D01*
X175211341Y-86491062D01*
X174908938Y-86188659D01*
X174546806Y-86038659D01*
X174418491Y-85910344D01*
X174366887Y-85833113D01*
X174060917Y-85628670D01*
X173791100Y-85575000D01*
X173791096Y-85575000D01*
X173700000Y-85556880D01*
X173608904Y-85575000D01*
X153225962Y-85575000D01*
X152863831Y-85425000D01*
X152436169Y-85425000D01*
X152074038Y-85575000D01*
X129891095Y-85575000D01*
X129799999Y-85556880D01*
X129708903Y-85575000D01*
X129708900Y-85575000D01*
X129439083Y-85628670D01*
X129210343Y-85781509D01*
X129210342Y-85781510D01*
X129133113Y-85833113D01*
X129081510Y-85910342D01*
X126610344Y-88381508D01*
X126533113Y-88433113D01*
X126328670Y-88739084D01*
X126275000Y-89008901D01*
X126275000Y-89008904D01*
X126256880Y-89100000D01*
X126275000Y-89191096D01*
X126275001Y-98908895D01*
X126256879Y-99000000D01*
X122775000Y-99000000D01*
X122775000Y-84992336D01*
X123211316Y-85428652D01*
X124047474Y-85775000D01*
X124952526Y-85775000D01*
X125788684Y-85428652D01*
X126428652Y-84788684D01*
X126775000Y-83952526D01*
X126775000Y-83047474D01*
X126428652Y-82211316D01*
X125992336Y-81775000D01*
X178007664Y-81775000D01*
X177571348Y-82211316D01*
G04 #@! TD*
M02*
