  0
SECTION
  2
HEADER
  9
$ANGBASE
  50
0.0
  9
$ANGDIR
  70
  1
  9
$MEASUREMENT
  70
0
  0
ENDSEC
  0
SECTION
  2
TABLES
  0
TABLE
  2
LTYPE
  70
4
  0
LTYPE
  5
40F
  2
CONTINUOUS
  70
0
  3
Solid line
  72
65
  73
0
  40
0.0
  0
LTYPE
  5
410
  2
DASHDOT
 70
0
  3
Dash Dot ____ _ ____ _
 72
65
 73
4
 40
2.0
 49
1.25
 49
-0.25
 49
0.25
 49
-0.25
  0
LTYPE
  5
411
  2
DASHED
 70
0
  3
Dashed __ __ __ __ __
 72
65
 73
2
 40
0.75
 49
0.5
 49
-0.25
  0
LTYPE
  5
43B
  2
DOTTED
 70
0
  3
Dotted .  .  .  .
 72
65
 73
2
 40
0.2
 49
0.0
 49
-0.2
  0
ENDTAB
  0
TABLE
  2
STYLE
  70
4
  0
STYLE
  2
KICAD
  70
0
  40
0
  41
1
  42
1
  50
0
  71
0
  3
isocp.shx
  0
STYLE
  2
KICADB
  70
0
  40
0
  41
1
  42
1
  50
0
  71
0
  3
isocp.shx
  0
STYLE
  2
KICADI
  70
0
  40
0
  41
1
  42
1
  50
15
  71
0
  3
isocp.shx
  0
STYLE
  2
KICADBI
  70
0
  40
0
  41
1
  42
1
  50
15
  71
0
  3
isocp.shx
  0
ENDTAB
  0
TABLE
  2
LAYER
  70
30
  0
LAYER
  2
BLACK
  70
0
  62
7
  6
CONTINUOUS
  0
LAYER
  2
GRAY1
  70
0
  62
251
  6
CONTINUOUS
  0
LAYER
  2
GRAY2
  70
0
  62
8
  6
CONTINUOUS
  0
LAYER
  2
GRAY3
  70
0
  62
9
  6
CONTINUOUS
  0
LAYER
  2
WHITE
  70
0
  62
7
  6
CONTINUOUS
  0
LAYER
  2
LYELLOW
  70
0
  62
51
  6
CONTINUOUS
  0
LAYER
  2
BLUE1
  70
0
  62
178
  6
CONTINUOUS
  0
LAYER
  2
GREEN1
  70
0
  62
98
  6
CONTINUOUS
  0
LAYER
  2
CYAN1
  70
0
  62
138
  6
CONTINUOUS
  0
LAYER
  2
RED1
  70
0
  62
18
  6
CONTINUOUS
  0
LAYER
  2
MAGENTA1
  70
0
  62
228
  6
CONTINUOUS
  0
LAYER
  2
BROWN1
  70
0
  62
58
  6
CONTINUOUS
  0
LAYER
  2
BLUE2
  70
0
  62
5
  6
CONTINUOUS
  0
LAYER
  2
GREEN2
  70
0
  62
3
  6
CONTINUOUS
  0
LAYER
  2
CYAN2
  70
0
  62
4
  6
CONTINUOUS
  0
LAYER
  2
RED2
  70
0
  62
1
  6
CONTINUOUS
  0
LAYER
  2
MAGENTA2
  70
0
  62
6
  6
CONTINUOUS
  0
LAYER
  2
BROWN2
  70
0
  62
54
  6
CONTINUOUS
  0
LAYER
  2
BLUE3
  70
0
  62
171
  6
CONTINUOUS
  0
LAYER
  2
GREEN3
  70
0
  62
91
  6
CONTINUOUS
  0
LAYER
  2
CYAN3
  70
0
  62
131
  6
CONTINUOUS
  0
LAYER
  2
RED3
  70
0
  62
11
  6
CONTINUOUS
  0
LAYER
  2
MAGENTA3
  70
0
  62
221
  6
CONTINUOUS
  0
LAYER
  2
YELLOW3
  70
0
  62
2
  6
CONTINUOUS
  0
LAYER
  2
BLUE4
  70
0
  62
5
  6
CONTINUOUS
  0
LAYER
  2
GREEN4
  70
0
  62
3
  6
CONTINUOUS
  0
LAYER
  2
CYAN4
  70
0
  62
4
  6
CONTINUOUS
  0
LAYER
  2
RED4
  70
0
  62
1
  6
CONTINUOUS
  0
LAYER
  2
MAGENTA4
  70
0
  62
6
  6
CONTINUOUS
  0
LAYER
  2
YELLOW4
  70
0
  62
2
  6
CONTINUOUS
  0
ENDTAB
  0
ENDSEC
  0
SECTION
  2
ENTITIES
0
LINE
8
BLACK
6
CONTINUOUS
10
182.009
20
-80.9
11
182.018
21
-80.9
0
LINE
8
BLACK
6
CONTINUOUS
10
182.018
20
-80.9
11
182.026
21
-80.903
0
LINE
8
BLACK
6
CONTINUOUS
10
182.026
20
-80.903
11
182.035
21
-80.9046
0
LINE
8
BLACK
6
CONTINUOUS
10
182.035
20
-80.9046
11
182.042
21
-80.909
0
LINE
8
BLACK
6
CONTINUOUS
10
182.042
20
-80.909
11
182.051
21
-80.9121
0
LINE
8
BLACK
6
CONTINUOUS
10
182.051
20
-80.9121
11
182.058
21
-80.9178
0
LINE
8
BLACK
6
CONTINUOUS
10
182.058
20
-80.9178
11
182.065
21
-80.9222
0
LINE
8
BLACK
6
CONTINUOUS
10
182.065
20
-80.9222
11
182.071
21
-80.929
0
LINE
8
BLACK
6
CONTINUOUS
10
182.071
20
-80.929
11
182.078
21
-80.9347
0
LINE
8
BLACK
6
CONTINUOUS
10
182.078
20
-80.9347
11
182.082
21
-80.9424
0
LINE
8
BLACK
6
CONTINUOUS
10
182.082
20
-80.9424
11
182.088
21
-80.9492
0
LINE
8
BLACK
6
CONTINUOUS
10
182.088
20
-80.9492
11
182.091
21
-80.9576
0
LINE
8
BLACK
6
CONTINUOUS
10
182.091
20
-80.9576
11
182.095
21
-80.9653
0
LINE
8
BLACK
6
CONTINUOUS
10
182.095
20
-80.9653
11
182.097
21
-80.974
0
LINE
8
BLACK
6
CONTINUOUS
10
182.097
20
-80.974
11
182.1
21
-80.9824
0
LINE
8
BLACK
6
CONTINUOUS
10
182.1
20
-80.9824
11
182.1
21
-80.9912
0
LINE
8
BLACK
6
CONTINUOUS
10
182.1
20
-80.9912
11
182.1
21
-80.9913
0
LINE
8
BLACK
6
CONTINUOUS
10
182.1
20
-80.9913
11
182.1
21
-121.009
0
LINE
8
BLACK
6
CONTINUOUS
10
182.1
20
-121.009
11
182.1
21
-121.009
0
LINE
8
BLACK
6
CONTINUOUS
10
182.1
20
-121.009
11
182.1
21
-121.018
0
LINE
8
BLACK
6
CONTINUOUS
10
182.1
20
-121.018
11
182.097
21
-121.026
0
LINE
8
BLACK
6
CONTINUOUS
10
182.097
20
-121.026
11
182.095
21
-121.035
0
LINE
8
BLACK
6
CONTINUOUS
10
182.095
20
-121.035
11
182.091
21
-121.042
0
LINE
8
BLACK
6
CONTINUOUS
10
182.091
20
-121.042
11
182.088
21
-121.051
0
LINE
8
BLACK
6
CONTINUOUS
10
182.088
20
-121.051
11
182.082
21
-121.058
0
LINE
8
BLACK
6
CONTINUOUS
10
182.082
20
-121.058
11
182.078
21
-121.065
0
LINE
8
BLACK
6
CONTINUOUS
10
182.078
20
-121.065
11
182.071
21
-121.071
0
LINE
8
BLACK
6
CONTINUOUS
10
182.071
20
-121.071
11
182.065
21
-121.078
0
LINE
8
BLACK
6
CONTINUOUS
10
182.065
20
-121.078
11
182.058
21
-121.082
0
LINE
8
BLACK
6
CONTINUOUS
10
182.058
20
-121.082
11
182.051
21
-121.088
0
LINE
8
BLACK
6
CONTINUOUS
10
182.051
20
-121.088
11
182.042
21
-121.091
0
LINE
8
BLACK
6
CONTINUOUS
10
182.042
20
-121.091
11
182.035
21
-121.095
0
LINE
8
BLACK
6
CONTINUOUS
10
182.035
20
-121.095
11
182.026
21
-121.097
0
LINE
8
BLACK
6
CONTINUOUS
10
182.026
20
-121.097
11
182.018
21
-121.1
0
LINE
8
BLACK
6
CONTINUOUS
10
182.018
20
-121.1
11
182.009
21
-121.1
0
LINE
8
BLACK
6
CONTINUOUS
10
182.009
20
-121.1
11
182.009
21
-121.1
0
LINE
8
BLACK
6
CONTINUOUS
10
182.009
20
-121.1
11
121.991
21
-121.1
0
LINE
8
BLACK
6
CONTINUOUS
10
121.991
20
-121.1
11
121.991
21
-121.1
0
LINE
8
BLACK
6
CONTINUOUS
10
121.991
20
-121.1
11
121.982
21
-121.1
0
LINE
8
BLACK
6
CONTINUOUS
10
121.982
20
-121.1
11
121.974
21
-121.097
0
LINE
8
BLACK
6
CONTINUOUS
10
121.974
20
-121.097
11
121.965
21
-121.095
0
LINE
8
BLACK
6
CONTINUOUS
10
121.965
20
-121.095
11
121.958
21
-121.091
0
LINE
8
BLACK
6
CONTINUOUS
10
121.958
20
-121.091
11
121.949
21
-121.088
0
LINE
8
BLACK
6
CONTINUOUS
10
121.949
20
-121.088
11
121.942
21
-121.082
0
LINE
8
BLACK
6
CONTINUOUS
10
121.942
20
-121.082
11
121.935
21
-121.078
0
LINE
8
BLACK
6
CONTINUOUS
10
121.935
20
-121.078
11
121.929
21
-121.071
0
LINE
8
BLACK
6
CONTINUOUS
10
121.929
20
-121.071
11
121.922
21
-121.065
0
LINE
8
BLACK
6
CONTINUOUS
10
121.922
20
-121.065
11
121.918
21
-121.058
0
LINE
8
BLACK
6
CONTINUOUS
10
121.918
20
-121.058
11
121.912
21
-121.051
0
LINE
8
BLACK
6
CONTINUOUS
10
121.912
20
-121.051
11
121.909
21
-121.042
0
LINE
8
BLACK
6
CONTINUOUS
10
121.909
20
-121.042
11
121.905
21
-121.035
0
LINE
8
BLACK
6
CONTINUOUS
10
121.905
20
-121.035
11
121.903
21
-121.026
0
LINE
8
BLACK
6
CONTINUOUS
10
121.903
20
-121.026
11
121.9
21
-121.018
0
LINE
8
BLACK
6
CONTINUOUS
10
121.9
20
-121.018
11
121.9
21
-120.982
0
LINE
8
BLACK
6
CONTINUOUS
10
121.9
20
-120.982
11
121.9
21
-80.9913
0
LINE
8
BLACK
6
CONTINUOUS
10
121.9
20
-80.9913
11
121.9
21
-80.9912
0
LINE
8
BLACK
6
CONTINUOUS
10
121.9
20
-80.9912
11
121.9
21
-80.9824
0
LINE
8
BLACK
6
CONTINUOUS
10
121.9
20
-80.9824
11
121.903
21
-80.974
0
LINE
8
BLACK
6
CONTINUOUS
10
121.903
20
-80.974
11
121.905
21
-80.9653
0
LINE
8
BLACK
6
CONTINUOUS
10
121.905
20
-80.9653
11
121.909
21
-80.9576
0
LINE
8
BLACK
6
CONTINUOUS
10
121.909
20
-80.9576
11
121.912
21
-80.9492
0
LINE
8
BLACK
6
CONTINUOUS
10
121.912
20
-80.9492
11
121.918
21
-80.9424
0
LINE
8
BLACK
6
CONTINUOUS
10
121.918
20
-80.9424
11
121.922
21
-80.9347
0
LINE
8
BLACK
6
CONTINUOUS
10
121.922
20
-80.9347
11
121.929
21
-80.929
0
LINE
8
BLACK
6
CONTINUOUS
10
121.929
20
-80.929
11
121.935
21
-80.9222
0
LINE
8
BLACK
6
CONTINUOUS
10
121.935
20
-80.9222
11
121.942
21
-80.9178
0
LINE
8
BLACK
6
CONTINUOUS
10
121.942
20
-80.9178
11
121.949
21
-80.9121
0
LINE
8
BLACK
6
CONTINUOUS
10
121.949
20
-80.9121
11
121.958
21
-80.909
0
LINE
8
BLACK
6
CONTINUOUS
10
121.958
20
-80.909
11
121.965
21
-80.9046
0
LINE
8
BLACK
6
CONTINUOUS
10
121.965
20
-80.9046
11
121.974
21
-80.903
0
LINE
8
BLACK
6
CONTINUOUS
10
121.974
20
-80.903
11
121.982
21
-80.9
0
LINE
8
BLACK
6
CONTINUOUS
10
121.982
20
-80.9
11
121.991
21
-80.9
0
LINE
8
BLACK
6
CONTINUOUS
10
121.991
20
-80.9
11
121.991
21
-80.9
0
LINE
8
BLACK
6
CONTINUOUS
10
121.991
20
-80.9
11
182.009
21
-80.9
0
LINE
8
BLACK
6
CONTINUOUS
10
182.009
20
-80.9
11
182.009
21
-80.9
0
LINE
8
BLACK
6
CONTINUOUS
10
122.1
20
-81.1
11
122.1
21
-120.9
0
LINE
8
BLACK
6
CONTINUOUS
10
122.1
20
-120.9
11
181.9
21
-120.9
0
LINE
8
BLACK
6
CONTINUOUS
10
181.9
20
-120.9
11
181.9
21
-81.1
0
LINE
8
BLACK
6
CONTINUOUS
10
181.9
20
-81.1
11
122.1
21
-81.1
0
LINE
8
BLACK
6
CONTINUOUS
10
125.588
20
-119.413
11
125.21
21
-119.73
0
LINE
8
BLACK
6
CONTINUOUS
10
125.21
20
-119.73
11
124.747
21
-119.898
0
LINE
8
BLACK
6
CONTINUOUS
10
124.747
20
-119.898
11
124.253
21
-119.898
0
LINE
8
BLACK
6
CONTINUOUS
10
124.253
20
-119.898
11
123.79
21
-119.73
0
LINE
8
BLACK
6
CONTINUOUS
10
123.79
20
-119.73
11
123.412
21
-119.413
0
LINE
8
BLACK
6
CONTINUOUS
10
123.412
20
-119.413
11
123.166
21
-118.986
0
LINE
8
BLACK
6
CONTINUOUS
10
123.166
20
-118.986
11
123.08
21
-118.5
0
LINE
8
BLACK
6
CONTINUOUS
10
123.08
20
-118.5
11
123.166
21
-118.014
0
LINE
8
BLACK
6
CONTINUOUS
10
123.166
20
-118.014
11
123.412
21
-117.587
0
LINE
8
BLACK
6
CONTINUOUS
10
123.412
20
-117.587
11
123.79
21
-117.27
0
LINE
8
BLACK
6
CONTINUOUS
10
123.79
20
-117.27
11
124.253
21
-117.102
0
LINE
8
BLACK
6
CONTINUOUS
10
124.253
20
-117.102
11
124.747
21
-117.102
0
LINE
8
BLACK
6
CONTINUOUS
10
124.747
20
-117.102
11
125.21
21
-117.27
0
LINE
8
BLACK
6
CONTINUOUS
10
125.21
20
-117.27
11
125.588
21
-117.587
0
LINE
8
BLACK
6
CONTINUOUS
10
125.588
20
-117.587
11
125.834
21
-118.014
0
LINE
8
BLACK
6
CONTINUOUS
10
125.834
20
-118.014
11
125.92
21
-118.5
0
LINE
8
BLACK
6
CONTINUOUS
10
125.92
20
-118.5
11
125.834
21
-118.986
0
LINE
8
BLACK
6
CONTINUOUS
10
125.834
20
-118.986
11
125.588
21
-119.413
0
LINE
8
BLACK
6
CONTINUOUS
10
125.419
20
-117.729
11
125.1
21
-117.461
0
LINE
8
BLACK
6
CONTINUOUS
10
125.1
20
-117.461
11
124.708
21
-117.318
0
LINE
8
BLACK
6
CONTINUOUS
10
124.708
20
-117.318
11
124.292
21
-117.318
0
LINE
8
BLACK
6
CONTINUOUS
10
124.292
20
-117.318
11
123.9
21
-117.461
0
LINE
8
BLACK
6
CONTINUOUS
10
123.9
20
-117.461
11
123.581
21
-117.729
0
LINE
8
BLACK
6
CONTINUOUS
10
123.581
20
-117.729
11
123.372
21
-118.09
0
LINE
8
BLACK
6
CONTINUOUS
10
123.372
20
-118.09
11
123.3
21
-118.5
0
LINE
8
BLACK
6
CONTINUOUS
10
123.3
20
-118.5
11
123.372
21
-118.91
0
LINE
8
BLACK
6
CONTINUOUS
10
123.372
20
-118.91
11
123.581
21
-119.271
0
LINE
8
BLACK
6
CONTINUOUS
10
123.581
20
-119.271
11
123.9
21
-119.539
0
LINE
8
BLACK
6
CONTINUOUS
10
123.9
20
-119.539
11
124.292
21
-119.682
0
LINE
8
BLACK
6
CONTINUOUS
10
124.292
20
-119.682
11
124.708
21
-119.682
0
LINE
8
BLACK
6
CONTINUOUS
10
124.708
20
-119.682
11
125.1
21
-119.539
0
LINE
8
BLACK
6
CONTINUOUS
10
125.1
20
-119.539
11
125.419
21
-119.271
0
LINE
8
BLACK
6
CONTINUOUS
10
125.419
20
-119.271
11
125.628
21
-118.91
0
LINE
8
BLACK
6
CONTINUOUS
10
125.628
20
-118.91
11
125.7
21
-118.5
0
LINE
8
BLACK
6
CONTINUOUS
10
125.7
20
-118.5
11
125.628
21
-118.09
0
LINE
8
BLACK
6
CONTINUOUS
10
125.628
20
-118.09
11
125.419
21
-117.729
0
LINE
8
BLACK
6
CONTINUOUS
10
180.588
20
-119.413
11
180.21
21
-119.73
0
LINE
8
BLACK
6
CONTINUOUS
10
180.21
20
-119.73
11
179.747
21
-119.898
0
LINE
8
BLACK
6
CONTINUOUS
10
179.747
20
-119.898
11
179.253
21
-119.898
0
LINE
8
BLACK
6
CONTINUOUS
10
179.253
20
-119.898
11
178.79
21
-119.73
0
LINE
8
BLACK
6
CONTINUOUS
10
178.79
20
-119.73
11
178.412
21
-119.413
0
LINE
8
BLACK
6
CONTINUOUS
10
178.412
20
-119.413
11
178.166
21
-118.986
0
LINE
8
BLACK
6
CONTINUOUS
10
178.166
20
-118.986
11
178.08
21
-118.5
0
LINE
8
BLACK
6
CONTINUOUS
10
178.08
20
-118.5
11
178.166
21
-118.014
0
LINE
8
BLACK
6
CONTINUOUS
10
178.166
20
-118.014
11
178.412
21
-117.587
0
LINE
8
BLACK
6
CONTINUOUS
10
178.412
20
-117.587
11
178.79
21
-117.27
0
LINE
8
BLACK
6
CONTINUOUS
10
178.79
20
-117.27
11
179.253
21
-117.102
0
LINE
8
BLACK
6
CONTINUOUS
10
179.253
20
-117.102
11
179.747
21
-117.102
0
LINE
8
BLACK
6
CONTINUOUS
10
179.747
20
-117.102
11
180.21
21
-117.27
0
LINE
8
BLACK
6
CONTINUOUS
10
180.21
20
-117.27
11
180.588
21
-117.587
0
LINE
8
BLACK
6
CONTINUOUS
10
180.588
20
-117.587
11
180.834
21
-118.014
0
LINE
8
BLACK
6
CONTINUOUS
10
180.834
20
-118.014
11
180.92
21
-118.5
0
LINE
8
BLACK
6
CONTINUOUS
10
180.92
20
-118.5
11
180.834
21
-118.986
0
LINE
8
BLACK
6
CONTINUOUS
10
180.834
20
-118.986
11
180.588
21
-119.413
0
LINE
8
BLACK
6
CONTINUOUS
10
180.419
20
-117.729
11
180.1
21
-117.461
0
LINE
8
BLACK
6
CONTINUOUS
10
180.1
20
-117.461
11
179.708
21
-117.318
0
LINE
8
BLACK
6
CONTINUOUS
10
179.708
20
-117.318
11
179.292
21
-117.318
0
LINE
8
BLACK
6
CONTINUOUS
10
179.292
20
-117.318
11
178.9
21
-117.461
0
LINE
8
BLACK
6
CONTINUOUS
10
178.9
20
-117.461
11
178.581
21
-117.729
0
LINE
8
BLACK
6
CONTINUOUS
10
178.581
20
-117.729
11
178.372
21
-118.09
0
LINE
8
BLACK
6
CONTINUOUS
10
178.372
20
-118.09
11
178.3
21
-118.5
0
LINE
8
BLACK
6
CONTINUOUS
10
178.3
20
-118.5
11
178.372
21
-118.91
0
LINE
8
BLACK
6
CONTINUOUS
10
178.372
20
-118.91
11
178.581
21
-119.271
0
LINE
8
BLACK
6
CONTINUOUS
10
178.581
20
-119.271
11
178.9
21
-119.539
0
LINE
8
BLACK
6
CONTINUOUS
10
178.9
20
-119.539
11
179.292
21
-119.682
0
LINE
8
BLACK
6
CONTINUOUS
10
179.292
20
-119.682
11
179.708
21
-119.682
0
LINE
8
BLACK
6
CONTINUOUS
10
179.708
20
-119.682
11
180.1
21
-119.539
0
LINE
8
BLACK
6
CONTINUOUS
10
180.1
20
-119.539
11
180.419
21
-119.271
0
LINE
8
BLACK
6
CONTINUOUS
10
180.419
20
-119.271
11
180.628
21
-118.91
0
LINE
8
BLACK
6
CONTINUOUS
10
180.628
20
-118.91
11
180.7
21
-118.5
0
LINE
8
BLACK
6
CONTINUOUS
10
180.7
20
-118.5
11
180.628
21
-118.09
0
LINE
8
BLACK
6
CONTINUOUS
10
180.628
20
-118.09
11
180.419
21
-117.729
0
LINE
8
BLACK
6
CONTINUOUS
10
180.588
20
-84.4128
11
180.21
21
-84.7298
0
LINE
8
BLACK
6
CONTINUOUS
10
180.21
20
-84.7298
11
179.747
21
-84.8984
0
LINE
8
BLACK
6
CONTINUOUS
10
179.747
20
-84.8984
11
179.253
21
-84.8984
0
LINE
8
BLACK
6
CONTINUOUS
10
179.253
20
-84.8984
11
178.79
21
-84.7298
0
LINE
8
BLACK
6
CONTINUOUS
10
178.79
20
-84.7298
11
178.412
21
-84.4128
0
LINE
8
BLACK
6
CONTINUOUS
10
178.412
20
-84.4128
11
178.166
21
-83.9857
0
LINE
8
BLACK
6
CONTINUOUS
10
178.166
20
-83.9857
11
178.08
21
-83.5
0
LINE
8
BLACK
6
CONTINUOUS
10
178.08
20
-83.5
11
178.166
21
-83.0143
0
LINE
8
BLACK
6
CONTINUOUS
10
178.166
20
-83.0143
11
178.412
21
-82.5872
0
LINE
8
BLACK
6
CONTINUOUS
10
178.412
20
-82.5872
11
178.79
21
-82.2702
0
LINE
8
BLACK
6
CONTINUOUS
10
178.79
20
-82.2702
11
179.253
21
-82.1016
0
LINE
8
BLACK
6
CONTINUOUS
10
179.253
20
-82.1016
11
179.747
21
-82.1016
0
LINE
8
BLACK
6
CONTINUOUS
10
179.747
20
-82.1016
11
180.21
21
-82.2702
0
LINE
8
BLACK
6
CONTINUOUS
10
180.21
20
-82.2702
11
180.588
21
-82.5872
0
LINE
8
BLACK
6
CONTINUOUS
10
180.588
20
-82.5872
11
180.834
21
-83.0143
0
LINE
8
BLACK
6
CONTINUOUS
10
180.834
20
-83.0143
11
180.92
21
-83.5
0
LINE
8
BLACK
6
CONTINUOUS
10
180.92
20
-83.5
11
180.834
21
-83.9857
0
LINE
8
BLACK
6
CONTINUOUS
10
180.834
20
-83.9857
11
180.588
21
-84.4128
0
LINE
8
BLACK
6
CONTINUOUS
10
180.419
20
-82.7287
11
180.1
21
-82.4608
0
LINE
8
BLACK
6
CONTINUOUS
10
180.1
20
-82.4608
11
179.708
21
-82.3182
0
LINE
8
BLACK
6
CONTINUOUS
10
179.708
20
-82.3182
11
179.292
21
-82.3182
0
LINE
8
BLACK
6
CONTINUOUS
10
179.292
20
-82.3182
11
178.9
21
-82.4608
0
LINE
8
BLACK
6
CONTINUOUS
10
178.9
20
-82.4608
11
178.581
21
-82.7287
0
LINE
8
BLACK
6
CONTINUOUS
10
178.581
20
-82.7287
11
178.372
21
-83.0896
0
LINE
8
BLACK
6
CONTINUOUS
10
178.372
20
-83.0896
11
178.3
21
-83.5
0
LINE
8
BLACK
6
CONTINUOUS
10
178.3
20
-83.5
11
178.372
21
-83.9104
0
LINE
8
BLACK
6
CONTINUOUS
10
178.372
20
-83.9104
11
178.581
21
-84.2713
0
LINE
8
BLACK
6
CONTINUOUS
10
178.581
20
-84.2713
11
178.9
21
-84.5392
0
LINE
8
BLACK
6
CONTINUOUS
10
178.9
20
-84.5392
11
179.292
21
-84.6818
0
LINE
8
BLACK
6
CONTINUOUS
10
179.292
20
-84.6818
11
179.708
21
-84.6818
0
LINE
8
BLACK
6
CONTINUOUS
10
179.708
20
-84.6818
11
180.1
21
-84.5392
0
LINE
8
BLACK
6
CONTINUOUS
10
180.1
20
-84.5392
11
180.419
21
-84.2713
0
LINE
8
BLACK
6
CONTINUOUS
10
180.419
20
-84.2713
11
180.628
21
-83.9104
0
LINE
8
BLACK
6
CONTINUOUS
10
180.628
20
-83.9104
11
180.7
21
-83.5
0
LINE
8
BLACK
6
CONTINUOUS
10
180.7
20
-83.5
11
180.628
21
-83.0896
0
LINE
8
BLACK
6
CONTINUOUS
10
180.628
20
-83.0896
11
180.419
21
-82.7287
0
LINE
8
BLACK
6
CONTINUOUS
10
125.588
20
-84.4128
11
125.21
21
-84.7298
0
LINE
8
BLACK
6
CONTINUOUS
10
125.21
20
-84.7298
11
124.747
21
-84.8984
0
LINE
8
BLACK
6
CONTINUOUS
10
124.747
20
-84.8984
11
124.253
21
-84.8984
0
LINE
8
BLACK
6
CONTINUOUS
10
124.253
20
-84.8984
11
123.79
21
-84.7298
0
LINE
8
BLACK
6
CONTINUOUS
10
123.79
20
-84.7298
11
123.412
21
-84.4128
0
LINE
8
BLACK
6
CONTINUOUS
10
123.412
20
-84.4128
11
123.166
21
-83.9857
0
LINE
8
BLACK
6
CONTINUOUS
10
123.166
20
-83.9857
11
123.08
21
-83.5
0
LINE
8
BLACK
6
CONTINUOUS
10
123.08
20
-83.5
11
123.166
21
-83.0143
0
LINE
8
BLACK
6
CONTINUOUS
10
123.166
20
-83.0143
11
123.412
21
-82.5872
0
LINE
8
BLACK
6
CONTINUOUS
10
123.412
20
-82.5872
11
123.79
21
-82.2702
0
LINE
8
BLACK
6
CONTINUOUS
10
123.79
20
-82.2702
11
124.253
21
-82.1016
0
LINE
8
BLACK
6
CONTINUOUS
10
124.253
20
-82.1016
11
124.747
21
-82.1016
0
LINE
8
BLACK
6
CONTINUOUS
10
124.747
20
-82.1016
11
125.21
21
-82.2702
0
LINE
8
BLACK
6
CONTINUOUS
10
125.21
20
-82.2702
11
125.588
21
-82.5872
0
LINE
8
BLACK
6
CONTINUOUS
10
125.588
20
-82.5872
11
125.834
21
-83.0143
0
LINE
8
BLACK
6
CONTINUOUS
10
125.834
20
-83.0143
11
125.92
21
-83.5
0
LINE
8
BLACK
6
CONTINUOUS
10
125.92
20
-83.5
11
125.834
21
-83.9857
0
LINE
8
BLACK
6
CONTINUOUS
10
125.834
20
-83.9857
11
125.588
21
-84.4128
0
LINE
8
BLACK
6
CONTINUOUS
10
125.419
20
-82.7287
11
125.1
21
-82.4608
0
LINE
8
BLACK
6
CONTINUOUS
10
125.1
20
-82.4608
11
124.708
21
-82.3182
0
LINE
8
BLACK
6
CONTINUOUS
10
124.708
20
-82.3182
11
124.292
21
-82.3182
0
LINE
8
BLACK
6
CONTINUOUS
10
124.292
20
-82.3182
11
123.9
21
-82.4608
0
LINE
8
BLACK
6
CONTINUOUS
10
123.9
20
-82.4608
11
123.581
21
-82.7287
0
LINE
8
BLACK
6
CONTINUOUS
10
123.581
20
-82.7287
11
123.372
21
-83.0896
0
LINE
8
BLACK
6
CONTINUOUS
10
123.372
20
-83.0896
11
123.3
21
-83.5
0
LINE
8
BLACK
6
CONTINUOUS
10
123.3
20
-83.5
11
123.372
21
-83.9104
0
LINE
8
BLACK
6
CONTINUOUS
10
123.372
20
-83.9104
11
123.581
21
-84.2713
0
LINE
8
BLACK
6
CONTINUOUS
10
123.581
20
-84.2713
11
123.9
21
-84.5392
0
LINE
8
BLACK
6
CONTINUOUS
10
123.9
20
-84.5392
11
124.292
21
-84.6818
0
LINE
8
BLACK
6
CONTINUOUS
10
124.292
20
-84.6818
11
124.708
21
-84.6818
0
LINE
8
BLACK
6
CONTINUOUS
10
124.708
20
-84.6818
11
125.1
21
-84.5392
0
LINE
8
BLACK
6
CONTINUOUS
10
125.1
20
-84.5392
11
125.419
21
-84.2713
0
LINE
8
BLACK
6
CONTINUOUS
10
125.419
20
-84.2713
11
125.628
21
-83.9104
0
LINE
8
BLACK
6
CONTINUOUS
10
125.628
20
-83.9104
11
125.7
21
-83.5
0
LINE
8
BLACK
6
CONTINUOUS
10
125.7
20
-83.5
11
125.628
21
-83.0896
0
LINE
8
BLACK
6
CONTINUOUS
10
125.628
20
-83.0896
11
125.419
21
-82.7287
  0
ENDSEC
  0
EOF
