G04 #@! TF.GenerationSoftware,KiCad,Pcbnew,(5.0.0)*
G04 #@! TF.CreationDate,2018-08-26T15:12:34+09:00*
G04 #@! TF.ProjectId,lancer_sensorbord_v2,6C616E6365725F73656E736F72626F72,rev?*
G04 #@! TF.SameCoordinates,Original*
G04 #@! TF.FileFunction,Copper,L1,Top,Signal*
G04 #@! TF.FilePolarity,Positive*
%FSLAX46Y46*%
G04 Gerber Fmt 4.6, Leading zero omitted, Abs format (unit mm)*
G04 Created by KiCad (PCBNEW (5.0.0)) date 08/26/18 15:12:34*
%MOMM*%
%LPD*%
G01*
G04 APERTURE LIST*
G04 #@! TA.AperFunction,SMDPad,CuDef*
%ADD10R,0.800000X0.500000*%
G04 #@! TD*
G04 #@! TA.AperFunction,SMDPad,CuDef*
%ADD11R,0.800000X0.800000*%
G04 #@! TD*
G04 #@! TA.AperFunction,ViaPad*
%ADD12C,0.800000*%
G04 #@! TD*
G04 #@! TA.AperFunction,Conductor*
%ADD13C,0.500000*%
G04 #@! TD*
G04 #@! TA.AperFunction,Conductor*
%ADD14C,0.250000*%
G04 #@! TD*
G04 #@! TA.AperFunction,Conductor*
%ADD15C,0.254000*%
G04 #@! TD*
G04 APERTURE END LIST*
D10*
G04 #@! TO.P,R7,1*
G04 #@! TO.N,+3V3*
X164150000Y-92350000D03*
G04 #@! TO.P,R7,2*
G04 #@! TO.N,Net-(D7-Pad2)*
X164150000Y-93850000D03*
G04 #@! TD*
D11*
G04 #@! TO.P,D7,1*
G04 #@! TO.N,GND*
X164100000Y-97800000D03*
G04 #@! TO.P,D7,2*
G04 #@! TO.N,Net-(D7-Pad2)*
X164100000Y-96300000D03*
G04 #@! TD*
D12*
G04 #@! TO.N,GND*
X150200000Y-92425000D03*
X143425000Y-92425000D03*
X157125000Y-92425000D03*
X159975000Y-99400000D03*
X182700000Y-97500000D03*
X182675000Y-92300000D03*
X154250000Y-100500000D03*
X140075000Y-100500000D03*
X117575000Y-92400000D03*
X117550000Y-97500000D03*
X217700000Y-94800000D03*
X210300000Y-94200000D03*
X90500000Y-92400000D03*
X82700000Y-94800000D03*
X101200000Y-98200000D03*
G04 #@! TO.N,+3V3*
X146100000Y-100500000D03*
X116475000Y-93550000D03*
X162750000Y-91900000D03*
G04 #@! TO.N,VR1*
X143425000Y-97050000D03*
X148175000Y-97375000D03*
G04 #@! TO.N,VR2*
X121225000Y-93950000D03*
X144800000Y-94225000D03*
G04 #@! TO.N,ANALOG_SEN1*
X87025000Y-97475000D03*
X88575000Y-93825000D03*
G04 #@! TO.N,ANALOG_SEN2*
X122925000Y-95025000D03*
X122899998Y-97775010D03*
G04 #@! TO.N,ANALOG_SEN3*
X146500000Y-99050000D03*
X140290002Y-93820000D03*
G04 #@! TO.N,ANALOG_SEN4*
X153900000Y-99050000D03*
X157250000Y-93825000D03*
G04 #@! TO.N,ANALOG_SEN5*
X176450000Y-93875000D03*
X178250000Y-97500000D03*
G04 #@! TO.N,ANALOG_SEN6*
X213475000Y-97275000D03*
X212325000Y-95600000D03*
G04 #@! TD*
D13*
G04 #@! TO.N,GND*
X150200000Y-92425000D02*
X143425000Y-92425000D01*
X150200000Y-92425000D02*
X157125000Y-92425000D01*
X157125000Y-92425000D02*
X158450000Y-92425000D01*
X158450000Y-92425000D02*
X159975000Y-93950000D01*
X182700000Y-97500000D02*
X182700000Y-92450000D01*
X182700000Y-92450000D02*
X182675000Y-92425000D01*
X182675000Y-92425000D02*
X182675000Y-92300000D01*
X158875000Y-100500000D02*
X159975000Y-99400000D01*
X154250000Y-100500000D02*
X158875000Y-100500000D01*
X141150000Y-101575000D02*
X140075000Y-100500000D01*
X154250000Y-100500000D02*
X153175000Y-101575000D01*
X116530000Y-97500000D02*
X117550000Y-97500000D01*
X115490000Y-96460000D02*
X116530000Y-97500000D01*
X115490000Y-93330000D02*
X115490000Y-96460000D01*
X117575000Y-92400000D02*
X116420000Y-92400000D01*
X116420000Y-92400000D02*
X115490000Y-93330000D01*
X159975000Y-93950000D02*
X159975000Y-97750000D01*
X159975000Y-97750000D02*
X159975000Y-99400000D01*
X160025000Y-97800000D02*
X159975000Y-97750000D01*
X153175000Y-101575000D02*
X141150000Y-101575000D01*
X164100000Y-97800000D02*
X160025000Y-97800000D01*
G04 #@! TO.N,+3V3*
X141147734Y-98850012D02*
X121775012Y-98850012D01*
X146100000Y-100500000D02*
X142797722Y-100500000D01*
X142797722Y-100500000D02*
X141147734Y-98850012D01*
X116874999Y-93949999D02*
X116475000Y-93550000D01*
X121775012Y-98850012D02*
X116874999Y-93949999D01*
X163200000Y-92350000D02*
X162750000Y-91900000D01*
X164150000Y-92350000D02*
X163200000Y-92350000D01*
D14*
G04 #@! TO.N,VR1*
X143425000Y-97050000D02*
X147850000Y-97050000D01*
X147850000Y-97050000D02*
X148175000Y-97375000D01*
G04 #@! TO.N,VR2*
X121225000Y-93950000D02*
X122080001Y-93094999D01*
X122080001Y-93094999D02*
X143104314Y-93094999D01*
X143104314Y-93094999D02*
X144234315Y-94225000D01*
X144234315Y-94225000D02*
X144800000Y-94225000D01*
G04 #@! TO.N,ANALOG_SEN1*
X87025000Y-97475000D02*
X88575000Y-95925000D01*
X88575000Y-95925000D02*
X88575000Y-93825000D01*
G04 #@! TO.N,ANALOG_SEN2*
X122925000Y-95025000D02*
X122925000Y-97750008D01*
X122925000Y-97750008D02*
X122899998Y-97775010D01*
G04 #@! TO.N,ANALOG_SEN3*
X146500000Y-99050000D02*
X143350000Y-99050000D01*
X140290002Y-94385685D02*
X140290002Y-93820000D01*
X143350000Y-99050000D02*
X140290002Y-95990002D01*
X140290002Y-95990002D02*
X140290002Y-94385685D01*
G04 #@! TO.N,ANALOG_SEN4*
X157250000Y-98025000D02*
X157250000Y-93825000D01*
X153900000Y-99050000D02*
X156225000Y-99050000D01*
X156225000Y-99050000D02*
X157250000Y-98025000D01*
G04 #@! TO.N,ANALOG_SEN5*
X176450000Y-93875000D02*
X176450000Y-95700000D01*
X176450000Y-95700000D02*
X178250000Y-97500000D01*
G04 #@! TO.N,ANALOG_SEN6*
X212325000Y-96125000D02*
X212325000Y-95600000D01*
X213475000Y-97275000D02*
X212325000Y-96125000D01*
D13*
G04 #@! TO.N,Net-(D7-Pad2)*
X164150000Y-96250000D02*
X164100000Y-96300000D01*
X164150000Y-93850000D02*
X164150000Y-96250000D01*
G04 #@! TD*
D15*
G04 #@! TO.N,GND*
G36*
X162163720Y-91022569D02*
X161872569Y-91313720D01*
X161715000Y-91694126D01*
X161715000Y-92105874D01*
X161872569Y-92486280D01*
X162163720Y-92777431D01*
X162519761Y-92924908D01*
X162561951Y-92988049D01*
X162854690Y-93183652D01*
X163112835Y-93235000D01*
X163112839Y-93235000D01*
X163199999Y-93252337D01*
X163221443Y-93248071D01*
X163151843Y-93352235D01*
X163102560Y-93600000D01*
X163102560Y-94100000D01*
X163151843Y-94347765D01*
X163265000Y-94517116D01*
X163265001Y-95426950D01*
X163242191Y-95442191D01*
X163101843Y-95652235D01*
X163052560Y-95900000D01*
X163052560Y-96700000D01*
X163101843Y-96947765D01*
X163242191Y-97157809D01*
X163452235Y-97298157D01*
X163700000Y-97347440D01*
X164500000Y-97347440D01*
X164747765Y-97298157D01*
X164957809Y-97157809D01*
X165098157Y-96947765D01*
X165147440Y-96700000D01*
X165147440Y-95900000D01*
X165098157Y-95652235D01*
X165035000Y-95557715D01*
X165035000Y-94517115D01*
X165148157Y-94347765D01*
X165197440Y-94100000D01*
X165197440Y-93669126D01*
X175415000Y-93669126D01*
X175415000Y-94080874D01*
X175572569Y-94461280D01*
X175690000Y-94578711D01*
X175690001Y-95625148D01*
X175675112Y-95700000D01*
X175690001Y-95774852D01*
X175734097Y-95996537D01*
X175902072Y-96247929D01*
X175965528Y-96290329D01*
X177215000Y-97539802D01*
X177215000Y-97705874D01*
X177372569Y-98086280D01*
X177663720Y-98377431D01*
X178044126Y-98535000D01*
X178455874Y-98535000D01*
X178836280Y-98377431D01*
X179127431Y-98086280D01*
X179285000Y-97705874D01*
X179285000Y-97294126D01*
X179127431Y-96913720D01*
X178836280Y-96622569D01*
X178455874Y-96465000D01*
X178289802Y-96465000D01*
X177218928Y-95394126D01*
X211290000Y-95394126D01*
X211290000Y-95805874D01*
X211447569Y-96186280D01*
X211590789Y-96329500D01*
X211609096Y-96421536D01*
X211777071Y-96672929D01*
X211840530Y-96715331D01*
X212440000Y-97314802D01*
X212440000Y-97480874D01*
X212597569Y-97861280D01*
X212888720Y-98152431D01*
X213269126Y-98310000D01*
X213680874Y-98310000D01*
X214061280Y-98152431D01*
X214352431Y-97861280D01*
X214510000Y-97480874D01*
X214510000Y-97069126D01*
X214352431Y-96688720D01*
X214061280Y-96397569D01*
X213680874Y-96240000D01*
X213514802Y-96240000D01*
X213278188Y-96003386D01*
X213360000Y-95805874D01*
X213360000Y-95394126D01*
X213202431Y-95013720D01*
X212911280Y-94722569D01*
X212530874Y-94565000D01*
X212119126Y-94565000D01*
X211738720Y-94722569D01*
X211447569Y-95013720D01*
X211290000Y-95394126D01*
X177218928Y-95394126D01*
X177210000Y-95385199D01*
X177210000Y-94578711D01*
X177327431Y-94461280D01*
X177485000Y-94080874D01*
X177485000Y-93669126D01*
X177327431Y-93288720D01*
X177036280Y-92997569D01*
X176655874Y-92840000D01*
X176244126Y-92840000D01*
X175863720Y-92997569D01*
X175572569Y-93288720D01*
X175415000Y-93669126D01*
X165197440Y-93669126D01*
X165197440Y-93600000D01*
X165148157Y-93352235D01*
X165007809Y-93142191D01*
X164944666Y-93100000D01*
X165007809Y-93057809D01*
X165148157Y-92847765D01*
X165197440Y-92600000D01*
X165197440Y-92100000D01*
X165148157Y-91852235D01*
X165007809Y-91642191D01*
X164797765Y-91501843D01*
X164550000Y-91452560D01*
X163750000Y-91452560D01*
X163689893Y-91464516D01*
X163627431Y-91313720D01*
X163336280Y-91022569D01*
X163004158Y-90885000D01*
X218478654Y-90885000D01*
X218478655Y-99415000D01*
X170286042Y-99415000D01*
X170213654Y-99400601D01*
X170141266Y-99415000D01*
X169926871Y-99457646D01*
X169683749Y-99620095D01*
X169642745Y-99681463D01*
X166751208Y-102573000D01*
X166460690Y-102573000D01*
X166435000Y-102432335D01*
X166435000Y-102205431D01*
X166360879Y-102026487D01*
X166335340Y-101886650D01*
X166210963Y-101664559D01*
X166094741Y-101383974D01*
X166001752Y-101290985D01*
X165973525Y-101240582D01*
X165760963Y-101050196D01*
X165466026Y-100755259D01*
X164644569Y-100415000D01*
X164135444Y-100415000D01*
X164001440Y-100405512D01*
X163965656Y-100415000D01*
X163755431Y-100415000D01*
X163381509Y-100569884D01*
X163285689Y-100595290D01*
X163229446Y-100632870D01*
X162933974Y-100755259D01*
X162707831Y-100981402D01*
X162670000Y-101006680D01*
X162629548Y-101059685D01*
X162305259Y-101383974D01*
X161965000Y-102205431D01*
X161965000Y-103094569D01*
X162305259Y-103916026D01*
X162652829Y-104263596D01*
X162696011Y-104318372D01*
X162728734Y-104339501D01*
X162804233Y-104415000D01*
X137595767Y-104415000D01*
X137766700Y-104244067D01*
X137995454Y-104032609D01*
X138015723Y-103995044D01*
X138094741Y-103916026D01*
X138214959Y-103625793D01*
X138347076Y-103380938D01*
X138367696Y-103257056D01*
X138435000Y-103094569D01*
X138435000Y-102852695D01*
X138468654Y-102650504D01*
X138468376Y-102615084D01*
X138435000Y-102432335D01*
X138435000Y-102205431D01*
X138422147Y-102174400D01*
X138427000Y-102150000D01*
X138427000Y-99735012D01*
X140781156Y-99735012D01*
X142110299Y-101064156D01*
X142159673Y-101138049D01*
X142233566Y-101187423D01*
X142233567Y-101187424D01*
X142290118Y-101225210D01*
X142452412Y-101333652D01*
X142710557Y-101385000D01*
X142710561Y-101385000D01*
X142797721Y-101402337D01*
X142884881Y-101385000D01*
X145531993Y-101385000D01*
X145894126Y-101535000D01*
X146305874Y-101535000D01*
X146579645Y-101421601D01*
X149071764Y-101386988D01*
X149118005Y-101377578D01*
X149159346Y-101350257D01*
X149187084Y-101309196D01*
X149196998Y-101260645D01*
X149209264Y-98844126D01*
X152865000Y-98844126D01*
X152865000Y-99255874D01*
X153022569Y-99636280D01*
X153313720Y-99927431D01*
X153694126Y-100085000D01*
X154105874Y-100085000D01*
X154486280Y-99927431D01*
X154603711Y-99810000D01*
X156150153Y-99810000D01*
X156225000Y-99824888D01*
X156299847Y-99810000D01*
X156299852Y-99810000D01*
X156521537Y-99765904D01*
X156772929Y-99597929D01*
X156815331Y-99534470D01*
X157734473Y-98615329D01*
X157797929Y-98572929D01*
X157965904Y-98321537D01*
X158010000Y-98099852D01*
X158010000Y-98099847D01*
X158024888Y-98025000D01*
X158010000Y-97950153D01*
X158010000Y-94528711D01*
X158127431Y-94411280D01*
X158285000Y-94030874D01*
X158285000Y-93619126D01*
X158127431Y-93238720D01*
X157836280Y-92947569D01*
X157455874Y-92790000D01*
X157044126Y-92790000D01*
X156663720Y-92947569D01*
X156372569Y-93238720D01*
X156215000Y-93619126D01*
X156215000Y-94030874D01*
X156372569Y-94411280D01*
X156490001Y-94528712D01*
X156490000Y-97710198D01*
X155910199Y-98290000D01*
X154603711Y-98290000D01*
X154486280Y-98172569D01*
X154105874Y-98015000D01*
X153694126Y-98015000D01*
X153313720Y-98172569D01*
X153022569Y-98463720D01*
X152865000Y-98844126D01*
X149209264Y-98844126D01*
X149216998Y-97320645D01*
X149210000Y-97295522D01*
X149210000Y-97169126D01*
X149052431Y-96788720D01*
X148761280Y-96497569D01*
X148380874Y-96340000D01*
X148155373Y-96340000D01*
X148146537Y-96334096D01*
X147924852Y-96290000D01*
X147924847Y-96290000D01*
X147850000Y-96275112D01*
X147775153Y-96290000D01*
X145837000Y-96290000D01*
X145837000Y-94180000D01*
X145835000Y-94169945D01*
X145835000Y-94019126D01*
X145677431Y-93638720D01*
X145386280Y-93347569D01*
X145005874Y-93190000D01*
X144594126Y-93190000D01*
X144367845Y-93283728D01*
X143694645Y-92610529D01*
X143652243Y-92547070D01*
X143400851Y-92379095D01*
X143179166Y-92334999D01*
X143179161Y-92334999D01*
X143104314Y-92320111D01*
X143029467Y-92334999D01*
X122154847Y-92334999D01*
X122080000Y-92320111D01*
X122005153Y-92334999D01*
X122005149Y-92334999D01*
X121783464Y-92379095D01*
X121532072Y-92547070D01*
X121489672Y-92610526D01*
X121185198Y-92915000D01*
X121090995Y-92915000D01*
X121081616Y-92913010D01*
X117253011Y-92864300D01*
X117061280Y-92672569D01*
X116680874Y-92515000D01*
X116269126Y-92515000D01*
X115888720Y-92672569D01*
X115597569Y-92963720D01*
X115440000Y-93344126D01*
X115440000Y-93755874D01*
X115597569Y-94136280D01*
X115888720Y-94427431D01*
X116250853Y-94577431D01*
X121087589Y-99414168D01*
X121088145Y-99415000D01*
X81948654Y-99415000D01*
X81948654Y-97269126D01*
X85990000Y-97269126D01*
X85990000Y-97680874D01*
X86147569Y-98061280D01*
X86438720Y-98352431D01*
X86819126Y-98510000D01*
X87230874Y-98510000D01*
X87611280Y-98352431D01*
X87902431Y-98061280D01*
X88060000Y-97680874D01*
X88060000Y-97514801D01*
X89059473Y-96515329D01*
X89122929Y-96472929D01*
X89290904Y-96221537D01*
X89335000Y-95999852D01*
X89335000Y-95999848D01*
X89349888Y-95925001D01*
X89335000Y-95850154D01*
X89335000Y-94528711D01*
X89452431Y-94411280D01*
X89610000Y-94030874D01*
X89610000Y-93619126D01*
X89452431Y-93238720D01*
X89161280Y-92947569D01*
X88780874Y-92790000D01*
X88369126Y-92790000D01*
X87988720Y-92947569D01*
X87697569Y-93238720D01*
X87540000Y-93619126D01*
X87540000Y-94030874D01*
X87697569Y-94411280D01*
X87815001Y-94528712D01*
X87815000Y-95610198D01*
X86985199Y-96440000D01*
X86819126Y-96440000D01*
X86438720Y-96597569D01*
X86147569Y-96888720D01*
X85990000Y-97269126D01*
X81948654Y-97269126D01*
X81948654Y-90885000D01*
X162495842Y-90885000D01*
X162163720Y-91022569D01*
X162163720Y-91022569D01*
G37*
X162163720Y-91022569D02*
X161872569Y-91313720D01*
X161715000Y-91694126D01*
X161715000Y-92105874D01*
X161872569Y-92486280D01*
X162163720Y-92777431D01*
X162519761Y-92924908D01*
X162561951Y-92988049D01*
X162854690Y-93183652D01*
X163112835Y-93235000D01*
X163112839Y-93235000D01*
X163199999Y-93252337D01*
X163221443Y-93248071D01*
X163151843Y-93352235D01*
X163102560Y-93600000D01*
X163102560Y-94100000D01*
X163151843Y-94347765D01*
X163265000Y-94517116D01*
X163265001Y-95426950D01*
X163242191Y-95442191D01*
X163101843Y-95652235D01*
X163052560Y-95900000D01*
X163052560Y-96700000D01*
X163101843Y-96947765D01*
X163242191Y-97157809D01*
X163452235Y-97298157D01*
X163700000Y-97347440D01*
X164500000Y-97347440D01*
X164747765Y-97298157D01*
X164957809Y-97157809D01*
X165098157Y-96947765D01*
X165147440Y-96700000D01*
X165147440Y-95900000D01*
X165098157Y-95652235D01*
X165035000Y-95557715D01*
X165035000Y-94517115D01*
X165148157Y-94347765D01*
X165197440Y-94100000D01*
X165197440Y-93669126D01*
X175415000Y-93669126D01*
X175415000Y-94080874D01*
X175572569Y-94461280D01*
X175690000Y-94578711D01*
X175690001Y-95625148D01*
X175675112Y-95700000D01*
X175690001Y-95774852D01*
X175734097Y-95996537D01*
X175902072Y-96247929D01*
X175965528Y-96290329D01*
X177215000Y-97539802D01*
X177215000Y-97705874D01*
X177372569Y-98086280D01*
X177663720Y-98377431D01*
X178044126Y-98535000D01*
X178455874Y-98535000D01*
X178836280Y-98377431D01*
X179127431Y-98086280D01*
X179285000Y-97705874D01*
X179285000Y-97294126D01*
X179127431Y-96913720D01*
X178836280Y-96622569D01*
X178455874Y-96465000D01*
X178289802Y-96465000D01*
X177218928Y-95394126D01*
X211290000Y-95394126D01*
X211290000Y-95805874D01*
X211447569Y-96186280D01*
X211590789Y-96329500D01*
X211609096Y-96421536D01*
X211777071Y-96672929D01*
X211840530Y-96715331D01*
X212440000Y-97314802D01*
X212440000Y-97480874D01*
X212597569Y-97861280D01*
X212888720Y-98152431D01*
X213269126Y-98310000D01*
X213680874Y-98310000D01*
X214061280Y-98152431D01*
X214352431Y-97861280D01*
X214510000Y-97480874D01*
X214510000Y-97069126D01*
X214352431Y-96688720D01*
X214061280Y-96397569D01*
X213680874Y-96240000D01*
X213514802Y-96240000D01*
X213278188Y-96003386D01*
X213360000Y-95805874D01*
X213360000Y-95394126D01*
X213202431Y-95013720D01*
X212911280Y-94722569D01*
X212530874Y-94565000D01*
X212119126Y-94565000D01*
X211738720Y-94722569D01*
X211447569Y-95013720D01*
X211290000Y-95394126D01*
X177218928Y-95394126D01*
X177210000Y-95385199D01*
X177210000Y-94578711D01*
X177327431Y-94461280D01*
X177485000Y-94080874D01*
X177485000Y-93669126D01*
X177327431Y-93288720D01*
X177036280Y-92997569D01*
X176655874Y-92840000D01*
X176244126Y-92840000D01*
X175863720Y-92997569D01*
X175572569Y-93288720D01*
X175415000Y-93669126D01*
X165197440Y-93669126D01*
X165197440Y-93600000D01*
X165148157Y-93352235D01*
X165007809Y-93142191D01*
X164944666Y-93100000D01*
X165007809Y-93057809D01*
X165148157Y-92847765D01*
X165197440Y-92600000D01*
X165197440Y-92100000D01*
X165148157Y-91852235D01*
X165007809Y-91642191D01*
X164797765Y-91501843D01*
X164550000Y-91452560D01*
X163750000Y-91452560D01*
X163689893Y-91464516D01*
X163627431Y-91313720D01*
X163336280Y-91022569D01*
X163004158Y-90885000D01*
X218478654Y-90885000D01*
X218478655Y-99415000D01*
X170286042Y-99415000D01*
X170213654Y-99400601D01*
X170141266Y-99415000D01*
X169926871Y-99457646D01*
X169683749Y-99620095D01*
X169642745Y-99681463D01*
X166751208Y-102573000D01*
X166460690Y-102573000D01*
X166435000Y-102432335D01*
X166435000Y-102205431D01*
X166360879Y-102026487D01*
X166335340Y-101886650D01*
X166210963Y-101664559D01*
X166094741Y-101383974D01*
X166001752Y-101290985D01*
X165973525Y-101240582D01*
X165760963Y-101050196D01*
X165466026Y-100755259D01*
X164644569Y-100415000D01*
X164135444Y-100415000D01*
X164001440Y-100405512D01*
X163965656Y-100415000D01*
X163755431Y-100415000D01*
X163381509Y-100569884D01*
X163285689Y-100595290D01*
X163229446Y-100632870D01*
X162933974Y-100755259D01*
X162707831Y-100981402D01*
X162670000Y-101006680D01*
X162629548Y-101059685D01*
X162305259Y-101383974D01*
X161965000Y-102205431D01*
X161965000Y-103094569D01*
X162305259Y-103916026D01*
X162652829Y-104263596D01*
X162696011Y-104318372D01*
X162728734Y-104339501D01*
X162804233Y-104415000D01*
X137595767Y-104415000D01*
X137766700Y-104244067D01*
X137995454Y-104032609D01*
X138015723Y-103995044D01*
X138094741Y-103916026D01*
X138214959Y-103625793D01*
X138347076Y-103380938D01*
X138367696Y-103257056D01*
X138435000Y-103094569D01*
X138435000Y-102852695D01*
X138468654Y-102650504D01*
X138468376Y-102615084D01*
X138435000Y-102432335D01*
X138435000Y-102205431D01*
X138422147Y-102174400D01*
X138427000Y-102150000D01*
X138427000Y-99735012D01*
X140781156Y-99735012D01*
X142110299Y-101064156D01*
X142159673Y-101138049D01*
X142233566Y-101187423D01*
X142233567Y-101187424D01*
X142290118Y-101225210D01*
X142452412Y-101333652D01*
X142710557Y-101385000D01*
X142710561Y-101385000D01*
X142797721Y-101402337D01*
X142884881Y-101385000D01*
X145531993Y-101385000D01*
X145894126Y-101535000D01*
X146305874Y-101535000D01*
X146579645Y-101421601D01*
X149071764Y-101386988D01*
X149118005Y-101377578D01*
X149159346Y-101350257D01*
X149187084Y-101309196D01*
X149196998Y-101260645D01*
X149209264Y-98844126D01*
X152865000Y-98844126D01*
X152865000Y-99255874D01*
X153022569Y-99636280D01*
X153313720Y-99927431D01*
X153694126Y-100085000D01*
X154105874Y-100085000D01*
X154486280Y-99927431D01*
X154603711Y-99810000D01*
X156150153Y-99810000D01*
X156225000Y-99824888D01*
X156299847Y-99810000D01*
X156299852Y-99810000D01*
X156521537Y-99765904D01*
X156772929Y-99597929D01*
X156815331Y-99534470D01*
X157734473Y-98615329D01*
X157797929Y-98572929D01*
X157965904Y-98321537D01*
X158010000Y-98099852D01*
X158010000Y-98099847D01*
X158024888Y-98025000D01*
X158010000Y-97950153D01*
X158010000Y-94528711D01*
X158127431Y-94411280D01*
X158285000Y-94030874D01*
X158285000Y-93619126D01*
X158127431Y-93238720D01*
X157836280Y-92947569D01*
X157455874Y-92790000D01*
X157044126Y-92790000D01*
X156663720Y-92947569D01*
X156372569Y-93238720D01*
X156215000Y-93619126D01*
X156215000Y-94030874D01*
X156372569Y-94411280D01*
X156490001Y-94528712D01*
X156490000Y-97710198D01*
X155910199Y-98290000D01*
X154603711Y-98290000D01*
X154486280Y-98172569D01*
X154105874Y-98015000D01*
X153694126Y-98015000D01*
X153313720Y-98172569D01*
X153022569Y-98463720D01*
X152865000Y-98844126D01*
X149209264Y-98844126D01*
X149216998Y-97320645D01*
X149210000Y-97295522D01*
X149210000Y-97169126D01*
X149052431Y-96788720D01*
X148761280Y-96497569D01*
X148380874Y-96340000D01*
X148155373Y-96340000D01*
X148146537Y-96334096D01*
X147924852Y-96290000D01*
X147924847Y-96290000D01*
X147850000Y-96275112D01*
X147775153Y-96290000D01*
X145837000Y-96290000D01*
X145837000Y-94180000D01*
X145835000Y-94169945D01*
X145835000Y-94019126D01*
X145677431Y-93638720D01*
X145386280Y-93347569D01*
X145005874Y-93190000D01*
X144594126Y-93190000D01*
X144367845Y-93283728D01*
X143694645Y-92610529D01*
X143652243Y-92547070D01*
X143400851Y-92379095D01*
X143179166Y-92334999D01*
X143179161Y-92334999D01*
X143104314Y-92320111D01*
X143029467Y-92334999D01*
X122154847Y-92334999D01*
X122080000Y-92320111D01*
X122005153Y-92334999D01*
X122005149Y-92334999D01*
X121783464Y-92379095D01*
X121532072Y-92547070D01*
X121489672Y-92610526D01*
X121185198Y-92915000D01*
X121090995Y-92915000D01*
X121081616Y-92913010D01*
X117253011Y-92864300D01*
X117061280Y-92672569D01*
X116680874Y-92515000D01*
X116269126Y-92515000D01*
X115888720Y-92672569D01*
X115597569Y-92963720D01*
X115440000Y-93344126D01*
X115440000Y-93755874D01*
X115597569Y-94136280D01*
X115888720Y-94427431D01*
X116250853Y-94577431D01*
X121087589Y-99414168D01*
X121088145Y-99415000D01*
X81948654Y-99415000D01*
X81948654Y-97269126D01*
X85990000Y-97269126D01*
X85990000Y-97680874D01*
X86147569Y-98061280D01*
X86438720Y-98352431D01*
X86819126Y-98510000D01*
X87230874Y-98510000D01*
X87611280Y-98352431D01*
X87902431Y-98061280D01*
X88060000Y-97680874D01*
X88060000Y-97514801D01*
X89059473Y-96515329D01*
X89122929Y-96472929D01*
X89290904Y-96221537D01*
X89335000Y-95999852D01*
X89335000Y-95999848D01*
X89349888Y-95925001D01*
X89335000Y-95850154D01*
X89335000Y-94528711D01*
X89452431Y-94411280D01*
X89610000Y-94030874D01*
X89610000Y-93619126D01*
X89452431Y-93238720D01*
X89161280Y-92947569D01*
X88780874Y-92790000D01*
X88369126Y-92790000D01*
X87988720Y-92947569D01*
X87697569Y-93238720D01*
X87540000Y-93619126D01*
X87540000Y-94030874D01*
X87697569Y-94411280D01*
X87815001Y-94528712D01*
X87815000Y-95610198D01*
X86985199Y-96440000D01*
X86819126Y-96440000D01*
X86438720Y-96597569D01*
X86147569Y-96888720D01*
X85990000Y-97269126D01*
X81948654Y-97269126D01*
X81948654Y-90885000D01*
X162495842Y-90885000D01*
X162163720Y-91022569D01*
G04 #@! TD*
M02*
