G04 #@! TF.FileFunction,Legend,Top*
%FSLAX46Y46*%
G04 Gerber Fmt 4.6, Leading zero omitted, Abs format (unit mm)*
G04 Created by KiCad (PCBNEW 4.0.7) date 06/20/18 17:04:50*
%MOMM*%
%LPD*%
G01*
G04 APERTURE LIST*
%ADD10C,0.100000*%
%ADD11C,0.150000*%
G04 APERTURE END LIST*
D10*
D11*
X129500000Y-105200000D02*
X134400000Y-105200000D01*
X134400000Y-105200000D02*
X134400000Y-109100000D01*
X134400000Y-109100000D02*
X129500000Y-109100000D01*
X129500000Y-109100000D02*
X129500000Y-105200000D01*
X83200000Y-105200000D02*
X88100000Y-105200000D01*
X88100000Y-105200000D02*
X88100000Y-109100000D01*
X88100000Y-109100000D02*
X83200000Y-109100000D01*
X83200000Y-109100000D02*
X83200000Y-105200000D01*
X218700000Y-109300000D02*
X213800000Y-109300000D01*
X213800000Y-109300000D02*
X213800000Y-105400000D01*
X213800000Y-105400000D02*
X218700000Y-105400000D01*
X218700000Y-105400000D02*
X218700000Y-109300000D01*
X172600000Y-109100000D02*
X167700000Y-109100000D01*
X167700000Y-109100000D02*
X167700000Y-105200000D01*
X167700000Y-105200000D02*
X172600000Y-105200000D01*
X172600000Y-105200000D02*
X172600000Y-109100000D01*
X155925000Y-106950000D02*
X157175000Y-106950000D01*
X157175000Y-106950000D02*
X157175000Y-104950000D01*
X155925000Y-104950000D02*
X157175000Y-104950000D01*
X155925000Y-106950000D02*
X155925000Y-104950000D01*
X159300000Y-105200000D02*
X164200000Y-105200000D01*
X164200000Y-105200000D02*
X164200000Y-109100000D01*
X164200000Y-109100000D02*
X159300000Y-109100000D01*
X159300000Y-109100000D02*
X159300000Y-105200000D01*
X142800000Y-109100000D02*
X137900000Y-109100000D01*
X137900000Y-109100000D02*
X137900000Y-105200000D01*
X137900000Y-105200000D02*
X142800000Y-105200000D01*
X142800000Y-105200000D02*
X142800000Y-109100000D01*
X148400000Y-106550000D02*
X148400000Y-104950000D01*
X147600000Y-106550000D02*
X148400000Y-106550000D01*
X147600000Y-106550000D02*
X147600000Y-104950000D01*
X147600000Y-104950000D02*
X148400000Y-104950000D01*
X154700000Y-106550000D02*
X154700000Y-104950000D01*
X153900000Y-106550000D02*
X154700000Y-106550000D01*
X153900000Y-106550000D02*
X153900000Y-104950000D01*
X153900000Y-104950000D02*
X154700000Y-104950000D01*
X209925000Y-106950000D02*
X211175000Y-106950000D01*
X211175000Y-106950000D02*
X211175000Y-104950000D01*
X209925000Y-104950000D02*
X211175000Y-104950000D01*
X209925000Y-106950000D02*
X209925000Y-104950000D01*
X175025000Y-106950000D02*
X176275000Y-106950000D01*
X176275000Y-106950000D02*
X176275000Y-104950000D01*
X175025000Y-104950000D02*
X176275000Y-104950000D01*
X175025000Y-106950000D02*
X175025000Y-104950000D01*
X145125000Y-106950000D02*
X146375000Y-106950000D01*
X146375000Y-106950000D02*
X146375000Y-104950000D01*
X145125000Y-104950000D02*
X146375000Y-104950000D01*
X145125000Y-106950000D02*
X145125000Y-104950000D01*
X125725000Y-107150000D02*
X126975000Y-107150000D01*
X126975000Y-107150000D02*
X126975000Y-105150000D01*
X125725000Y-105150000D02*
X126975000Y-105150000D01*
X125725000Y-107150000D02*
X125725000Y-105150000D01*
X90925000Y-107150000D02*
X92175000Y-107150000D01*
X92175000Y-107150000D02*
X92175000Y-105150000D01*
X90925000Y-105150000D02*
X92175000Y-105150000D01*
X90925000Y-107150000D02*
X90925000Y-105150000D01*
X210300000Y-108250000D02*
X211100000Y-108250000D01*
X211100000Y-109850000D02*
X211100000Y-108250000D01*
X210300000Y-109850000D02*
X211100000Y-109850000D01*
X210300000Y-109850000D02*
X210300000Y-108250000D01*
X175100000Y-108250000D02*
X175900000Y-108250000D01*
X175900000Y-109850000D02*
X175900000Y-108250000D01*
X175100000Y-109850000D02*
X175900000Y-109850000D01*
X175100000Y-109850000D02*
X175100000Y-108250000D01*
X156000000Y-108250000D02*
X156800000Y-108250000D01*
X156800000Y-109850000D02*
X156800000Y-108250000D01*
X156000000Y-109850000D02*
X156800000Y-109850000D01*
X156000000Y-109850000D02*
X156000000Y-108250000D01*
X145500000Y-108250000D02*
X146300000Y-108250000D01*
X146300000Y-109850000D02*
X146300000Y-108250000D01*
X145500000Y-109850000D02*
X146300000Y-109850000D01*
X145500000Y-109850000D02*
X145500000Y-108250000D01*
X126100000Y-108250000D02*
X126900000Y-108250000D01*
X126900000Y-109850000D02*
X126900000Y-108250000D01*
X126100000Y-109850000D02*
X126900000Y-109850000D01*
X126100000Y-109850000D02*
X126100000Y-108250000D01*
X91000000Y-108250000D02*
X91800000Y-108250000D01*
X91800000Y-109850000D02*
X91800000Y-108250000D01*
X91000000Y-109850000D02*
X91800000Y-109850000D01*
X91000000Y-109850000D02*
X91000000Y-108250000D01*
X156800000Y-100900000D02*
X156800000Y-96300000D01*
X144900000Y-100900000D02*
X156800000Y-100900000D01*
X144900000Y-96300000D02*
X144900000Y-100900000D01*
X156800000Y-96300000D02*
X144900000Y-96300000D01*
X156800000Y-96300000D02*
X144900000Y-96300000D01*
X144900000Y-96300000D02*
X144900000Y-100900000D01*
X144900000Y-100900000D02*
X156800000Y-100900000D01*
X156800000Y-100900000D02*
X156800000Y-96300000D01*
X130723810Y-110452381D02*
X130723810Y-109452381D01*
X131104763Y-109452381D01*
X131200001Y-109500000D01*
X131247620Y-109547619D01*
X131295239Y-109642857D01*
X131295239Y-109785714D01*
X131247620Y-109880952D01*
X131200001Y-109928571D01*
X131104763Y-109976190D01*
X130723810Y-109976190D01*
X131723810Y-110452381D02*
X131723810Y-109452381D01*
X132676191Y-109452381D02*
X132200000Y-109452381D01*
X132152381Y-109928571D01*
X132200000Y-109880952D01*
X132295238Y-109833333D01*
X132533334Y-109833333D01*
X132628572Y-109880952D01*
X132676191Y-109928571D01*
X132723810Y-110023810D01*
X132723810Y-110261905D01*
X132676191Y-110357143D01*
X132628572Y-110404762D01*
X132533334Y-110452381D01*
X132295238Y-110452381D01*
X132200000Y-110404762D01*
X132152381Y-110357143D01*
X84523810Y-110352381D02*
X84523810Y-109352381D01*
X84904763Y-109352381D01*
X85000001Y-109400000D01*
X85047620Y-109447619D01*
X85095239Y-109542857D01*
X85095239Y-109685714D01*
X85047620Y-109780952D01*
X85000001Y-109828571D01*
X84904763Y-109876190D01*
X84523810Y-109876190D01*
X85523810Y-110352381D02*
X85523810Y-109352381D01*
X86428572Y-109352381D02*
X86238095Y-109352381D01*
X86142857Y-109400000D01*
X86095238Y-109447619D01*
X86000000Y-109590476D01*
X85952381Y-109780952D01*
X85952381Y-110161905D01*
X86000000Y-110257143D01*
X86047619Y-110304762D01*
X86142857Y-110352381D01*
X86333334Y-110352381D01*
X86428572Y-110304762D01*
X86476191Y-110257143D01*
X86523810Y-110161905D01*
X86523810Y-109923810D01*
X86476191Y-109828571D01*
X86428572Y-109780952D01*
X86333334Y-109733333D01*
X86142857Y-109733333D01*
X86047619Y-109780952D01*
X86000000Y-109828571D01*
X85952381Y-109923810D01*
X215223810Y-110552381D02*
X215223810Y-109552381D01*
X215604763Y-109552381D01*
X215700001Y-109600000D01*
X215747620Y-109647619D01*
X215795239Y-109742857D01*
X215795239Y-109885714D01*
X215747620Y-109980952D01*
X215700001Y-110028571D01*
X215604763Y-110076190D01*
X215223810Y-110076190D01*
X216223810Y-110552381D02*
X216223810Y-109552381D01*
X217223810Y-110552381D02*
X216652381Y-110552381D01*
X216938095Y-110552381D02*
X216938095Y-109552381D01*
X216842857Y-109695238D01*
X216747619Y-109790476D01*
X216652381Y-109838095D01*
X169123810Y-110452381D02*
X169123810Y-109452381D01*
X169504763Y-109452381D01*
X169600001Y-109500000D01*
X169647620Y-109547619D01*
X169695239Y-109642857D01*
X169695239Y-109785714D01*
X169647620Y-109880952D01*
X169600001Y-109928571D01*
X169504763Y-109976190D01*
X169123810Y-109976190D01*
X170123810Y-110452381D02*
X170123810Y-109452381D01*
X170552381Y-109547619D02*
X170600000Y-109500000D01*
X170695238Y-109452381D01*
X170933334Y-109452381D01*
X171028572Y-109500000D01*
X171076191Y-109547619D01*
X171123810Y-109642857D01*
X171123810Y-109738095D01*
X171076191Y-109880952D01*
X170504762Y-110452381D01*
X171123810Y-110452381D01*
X158457143Y-106266666D02*
X158504762Y-106314285D01*
X158552381Y-106457142D01*
X158552381Y-106552380D01*
X158504762Y-106695238D01*
X158409524Y-106790476D01*
X158314286Y-106838095D01*
X158123810Y-106885714D01*
X157980952Y-106885714D01*
X157790476Y-106838095D01*
X157695238Y-106790476D01*
X157600000Y-106695238D01*
X157552381Y-106552380D01*
X157552381Y-106457142D01*
X157600000Y-106314285D01*
X157647619Y-106266666D01*
X157552381Y-105361904D02*
X157552381Y-105838095D01*
X158028571Y-105885714D01*
X157980952Y-105838095D01*
X157933333Y-105742857D01*
X157933333Y-105504761D01*
X157980952Y-105409523D01*
X158028571Y-105361904D01*
X158123810Y-105314285D01*
X158361905Y-105314285D01*
X158457143Y-105361904D01*
X158504762Y-105409523D01*
X158552381Y-105504761D01*
X158552381Y-105742857D01*
X158504762Y-105838095D01*
X158457143Y-105885714D01*
X160523810Y-110552381D02*
X160523810Y-109552381D01*
X160904763Y-109552381D01*
X161000001Y-109600000D01*
X161047620Y-109647619D01*
X161095239Y-109742857D01*
X161095239Y-109885714D01*
X161047620Y-109980952D01*
X161000001Y-110028571D01*
X160904763Y-110076190D01*
X160523810Y-110076190D01*
X161523810Y-110552381D02*
X161523810Y-109552381D01*
X161904762Y-109552381D02*
X162523810Y-109552381D01*
X162190476Y-109933333D01*
X162333334Y-109933333D01*
X162428572Y-109980952D01*
X162476191Y-110028571D01*
X162523810Y-110123810D01*
X162523810Y-110361905D01*
X162476191Y-110457143D01*
X162428572Y-110504762D01*
X162333334Y-110552381D01*
X162047619Y-110552381D01*
X161952381Y-110504762D01*
X161904762Y-110457143D01*
X139323810Y-110452381D02*
X139323810Y-109452381D01*
X139704763Y-109452381D01*
X139800001Y-109500000D01*
X139847620Y-109547619D01*
X139895239Y-109642857D01*
X139895239Y-109785714D01*
X139847620Y-109880952D01*
X139800001Y-109928571D01*
X139704763Y-109976190D01*
X139323810Y-109976190D01*
X140323810Y-110452381D02*
X140323810Y-109452381D01*
X141228572Y-109785714D02*
X141228572Y-110452381D01*
X140990476Y-109404762D02*
X140752381Y-110119048D01*
X141371429Y-110119048D01*
X148357143Y-108266666D02*
X148404762Y-108314285D01*
X148452381Y-108457142D01*
X148452381Y-108552380D01*
X148404762Y-108695238D01*
X148309524Y-108790476D01*
X148214286Y-108838095D01*
X148023810Y-108885714D01*
X147880952Y-108885714D01*
X147690476Y-108838095D01*
X147595238Y-108790476D01*
X147500000Y-108695238D01*
X147452381Y-108552380D01*
X147452381Y-108457142D01*
X147500000Y-108314285D01*
X147547619Y-108266666D01*
X148452381Y-107314285D02*
X148452381Y-107885714D01*
X148452381Y-107600000D02*
X147452381Y-107600000D01*
X147595238Y-107695238D01*
X147690476Y-107790476D01*
X147738095Y-107885714D01*
X154557143Y-108366666D02*
X154604762Y-108414285D01*
X154652381Y-108557142D01*
X154652381Y-108652380D01*
X154604762Y-108795238D01*
X154509524Y-108890476D01*
X154414286Y-108938095D01*
X154223810Y-108985714D01*
X154080952Y-108985714D01*
X153890476Y-108938095D01*
X153795238Y-108890476D01*
X153700000Y-108795238D01*
X153652381Y-108652380D01*
X153652381Y-108557142D01*
X153700000Y-108414285D01*
X153747619Y-108366666D01*
X153747619Y-107985714D02*
X153700000Y-107938095D01*
X153652381Y-107842857D01*
X153652381Y-107604761D01*
X153700000Y-107509523D01*
X153747619Y-107461904D01*
X153842857Y-107414285D01*
X153938095Y-107414285D01*
X154080952Y-107461904D01*
X154652381Y-108033333D01*
X154652381Y-107414285D01*
X209157143Y-106066666D02*
X209204762Y-106114285D01*
X209252381Y-106257142D01*
X209252381Y-106352380D01*
X209204762Y-106495238D01*
X209109524Y-106590476D01*
X209014286Y-106638095D01*
X208823810Y-106685714D01*
X208680952Y-106685714D01*
X208490476Y-106638095D01*
X208395238Y-106590476D01*
X208300000Y-106495238D01*
X208252381Y-106352380D01*
X208252381Y-106257142D01*
X208300000Y-106114285D01*
X208347619Y-106066666D01*
X208252381Y-105733333D02*
X208252381Y-105114285D01*
X208633333Y-105447619D01*
X208633333Y-105304761D01*
X208680952Y-105209523D01*
X208728571Y-105161904D01*
X208823810Y-105114285D01*
X209061905Y-105114285D01*
X209157143Y-105161904D01*
X209204762Y-105209523D01*
X209252381Y-105304761D01*
X209252381Y-105590476D01*
X209204762Y-105685714D01*
X209157143Y-105733333D01*
X174357143Y-106066666D02*
X174404762Y-106114285D01*
X174452381Y-106257142D01*
X174452381Y-106352380D01*
X174404762Y-106495238D01*
X174309524Y-106590476D01*
X174214286Y-106638095D01*
X174023810Y-106685714D01*
X173880952Y-106685714D01*
X173690476Y-106638095D01*
X173595238Y-106590476D01*
X173500000Y-106495238D01*
X173452381Y-106352380D01*
X173452381Y-106257142D01*
X173500000Y-106114285D01*
X173547619Y-106066666D01*
X173785714Y-105209523D02*
X174452381Y-105209523D01*
X173404762Y-105447619D02*
X174119048Y-105685714D01*
X174119048Y-105066666D01*
X144557143Y-106066666D02*
X144604762Y-106114285D01*
X144652381Y-106257142D01*
X144652381Y-106352380D01*
X144604762Y-106495238D01*
X144509524Y-106590476D01*
X144414286Y-106638095D01*
X144223810Y-106685714D01*
X144080952Y-106685714D01*
X143890476Y-106638095D01*
X143795238Y-106590476D01*
X143700000Y-106495238D01*
X143652381Y-106352380D01*
X143652381Y-106257142D01*
X143700000Y-106114285D01*
X143747619Y-106066666D01*
X143652381Y-105209523D02*
X143652381Y-105400000D01*
X143700000Y-105495238D01*
X143747619Y-105542857D01*
X143890476Y-105638095D01*
X144080952Y-105685714D01*
X144461905Y-105685714D01*
X144557143Y-105638095D01*
X144604762Y-105590476D01*
X144652381Y-105495238D01*
X144652381Y-105304761D01*
X144604762Y-105209523D01*
X144557143Y-105161904D01*
X144461905Y-105114285D01*
X144223810Y-105114285D01*
X144128571Y-105161904D01*
X144080952Y-105209523D01*
X144033333Y-105304761D01*
X144033333Y-105495238D01*
X144080952Y-105590476D01*
X144128571Y-105638095D01*
X144223810Y-105685714D01*
X124857143Y-106266666D02*
X124904762Y-106314285D01*
X124952381Y-106457142D01*
X124952381Y-106552380D01*
X124904762Y-106695238D01*
X124809524Y-106790476D01*
X124714286Y-106838095D01*
X124523810Y-106885714D01*
X124380952Y-106885714D01*
X124190476Y-106838095D01*
X124095238Y-106790476D01*
X124000000Y-106695238D01*
X123952381Y-106552380D01*
X123952381Y-106457142D01*
X124000000Y-106314285D01*
X124047619Y-106266666D01*
X123952381Y-105933333D02*
X123952381Y-105266666D01*
X124952381Y-105695238D01*
X90257143Y-106166666D02*
X90304762Y-106214285D01*
X90352381Y-106357142D01*
X90352381Y-106452380D01*
X90304762Y-106595238D01*
X90209524Y-106690476D01*
X90114286Y-106738095D01*
X89923810Y-106785714D01*
X89780952Y-106785714D01*
X89590476Y-106738095D01*
X89495238Y-106690476D01*
X89400000Y-106595238D01*
X89352381Y-106452380D01*
X89352381Y-106357142D01*
X89400000Y-106214285D01*
X89447619Y-106166666D01*
X89780952Y-105595238D02*
X89733333Y-105690476D01*
X89685714Y-105738095D01*
X89590476Y-105785714D01*
X89542857Y-105785714D01*
X89447619Y-105738095D01*
X89400000Y-105690476D01*
X89352381Y-105595238D01*
X89352381Y-105404761D01*
X89400000Y-105309523D01*
X89447619Y-105261904D01*
X89542857Y-105214285D01*
X89590476Y-105214285D01*
X89685714Y-105261904D01*
X89733333Y-105309523D01*
X89780952Y-105404761D01*
X89780952Y-105595238D01*
X89828571Y-105690476D01*
X89876190Y-105738095D01*
X89971429Y-105785714D01*
X90161905Y-105785714D01*
X90257143Y-105738095D01*
X90304762Y-105690476D01*
X90352381Y-105595238D01*
X90352381Y-105404761D01*
X90304762Y-105309523D01*
X90257143Y-105261904D01*
X90161905Y-105214285D01*
X89971429Y-105214285D01*
X89876190Y-105261904D01*
X89828571Y-105309523D01*
X89780952Y-105404761D01*
X209552381Y-109266666D02*
X209076190Y-109600000D01*
X209552381Y-109838095D02*
X208552381Y-109838095D01*
X208552381Y-109457142D01*
X208600000Y-109361904D01*
X208647619Y-109314285D01*
X208742857Y-109266666D01*
X208885714Y-109266666D01*
X208980952Y-109314285D01*
X209028571Y-109361904D01*
X209076190Y-109457142D01*
X209076190Y-109838095D01*
X209552381Y-108314285D02*
X209552381Y-108885714D01*
X209552381Y-108600000D02*
X208552381Y-108600000D01*
X208695238Y-108695238D01*
X208790476Y-108790476D01*
X208838095Y-108885714D01*
X174427381Y-108916666D02*
X173951190Y-109250000D01*
X174427381Y-109488095D02*
X173427381Y-109488095D01*
X173427381Y-109107142D01*
X173475000Y-109011904D01*
X173522619Y-108964285D01*
X173617857Y-108916666D01*
X173760714Y-108916666D01*
X173855952Y-108964285D01*
X173903571Y-109011904D01*
X173951190Y-109107142D01*
X173951190Y-109488095D01*
X173522619Y-108535714D02*
X173475000Y-108488095D01*
X173427381Y-108392857D01*
X173427381Y-108154761D01*
X173475000Y-108059523D01*
X173522619Y-108011904D01*
X173617857Y-107964285D01*
X173713095Y-107964285D01*
X173855952Y-108011904D01*
X174427381Y-108583333D01*
X174427381Y-107964285D01*
X158452381Y-109266666D02*
X157976190Y-109600000D01*
X158452381Y-109838095D02*
X157452381Y-109838095D01*
X157452381Y-109457142D01*
X157500000Y-109361904D01*
X157547619Y-109314285D01*
X157642857Y-109266666D01*
X157785714Y-109266666D01*
X157880952Y-109314285D01*
X157928571Y-109361904D01*
X157976190Y-109457142D01*
X157976190Y-109838095D01*
X157452381Y-108933333D02*
X157452381Y-108314285D01*
X157833333Y-108647619D01*
X157833333Y-108504761D01*
X157880952Y-108409523D01*
X157928571Y-108361904D01*
X158023810Y-108314285D01*
X158261905Y-108314285D01*
X158357143Y-108361904D01*
X158404762Y-108409523D01*
X158452381Y-108504761D01*
X158452381Y-108790476D01*
X158404762Y-108885714D01*
X158357143Y-108933333D01*
X144752381Y-109266666D02*
X144276190Y-109600000D01*
X144752381Y-109838095D02*
X143752381Y-109838095D01*
X143752381Y-109457142D01*
X143800000Y-109361904D01*
X143847619Y-109314285D01*
X143942857Y-109266666D01*
X144085714Y-109266666D01*
X144180952Y-109314285D01*
X144228571Y-109361904D01*
X144276190Y-109457142D01*
X144276190Y-109838095D01*
X144085714Y-108409523D02*
X144752381Y-108409523D01*
X143704762Y-108647619D02*
X144419048Y-108885714D01*
X144419048Y-108266666D01*
X125252381Y-109166666D02*
X124776190Y-109500000D01*
X125252381Y-109738095D02*
X124252381Y-109738095D01*
X124252381Y-109357142D01*
X124300000Y-109261904D01*
X124347619Y-109214285D01*
X124442857Y-109166666D01*
X124585714Y-109166666D01*
X124680952Y-109214285D01*
X124728571Y-109261904D01*
X124776190Y-109357142D01*
X124776190Y-109738095D01*
X124252381Y-108261904D02*
X124252381Y-108738095D01*
X124728571Y-108785714D01*
X124680952Y-108738095D01*
X124633333Y-108642857D01*
X124633333Y-108404761D01*
X124680952Y-108309523D01*
X124728571Y-108261904D01*
X124823810Y-108214285D01*
X125061905Y-108214285D01*
X125157143Y-108261904D01*
X125204762Y-108309523D01*
X125252381Y-108404761D01*
X125252381Y-108642857D01*
X125204762Y-108738095D01*
X125157143Y-108785714D01*
X90452381Y-109166666D02*
X89976190Y-109500000D01*
X90452381Y-109738095D02*
X89452381Y-109738095D01*
X89452381Y-109357142D01*
X89500000Y-109261904D01*
X89547619Y-109214285D01*
X89642857Y-109166666D01*
X89785714Y-109166666D01*
X89880952Y-109214285D01*
X89928571Y-109261904D01*
X89976190Y-109357142D01*
X89976190Y-109738095D01*
X89452381Y-108309523D02*
X89452381Y-108500000D01*
X89500000Y-108595238D01*
X89547619Y-108642857D01*
X89690476Y-108738095D01*
X89880952Y-108785714D01*
X90261905Y-108785714D01*
X90357143Y-108738095D01*
X90404762Y-108690476D01*
X90452381Y-108595238D01*
X90452381Y-108404761D01*
X90404762Y-108309523D01*
X90357143Y-108261904D01*
X90261905Y-108214285D01*
X90023810Y-108214285D01*
X89928571Y-108261904D01*
X89880952Y-108309523D01*
X89833333Y-108404761D01*
X89833333Y-108595238D01*
X89880952Y-108690476D01*
X89928571Y-108738095D01*
X90023810Y-108785714D01*
X157361905Y-98152381D02*
X157361905Y-97152381D01*
X157742858Y-97152381D01*
X157838096Y-97200000D01*
X157885715Y-97247619D01*
X157933334Y-97342857D01*
X157933334Y-97485714D01*
X157885715Y-97580952D01*
X157838096Y-97628571D01*
X157742858Y-97676190D01*
X157361905Y-97676190D01*
X158885715Y-98152381D02*
X158314286Y-98152381D01*
X158600000Y-98152381D02*
X158600000Y-97152381D01*
X158504762Y-97295238D01*
X158409524Y-97390476D01*
X158314286Y-97438095D01*
M02*
