G04 #@! TF.GenerationSoftware,KiCad,Pcbnew,(5.0.0)*
G04 #@! TF.CreationDate,2018-08-27T16:21:53+09:00*
G04 #@! TF.ProjectId,lancer_mainbord_v1,6C616E6365725F6D61696E626F72645F,rev?*
G04 #@! TF.SameCoordinates,Original*
G04 #@! TF.FileFunction,Legend,Top*
G04 #@! TF.FilePolarity,Positive*
%FSLAX46Y46*%
G04 Gerber Fmt 4.6, Leading zero omitted, Abs format (unit mm)*
G04 Created by KiCad (PCBNEW (5.0.0)) date 08/27/18 16:21:53*
%MOMM*%
%LPD*%
G01*
G04 APERTURE LIST*
%ADD10C,0.120000*%
%ADD11C,0.150000*%
G04 APERTURE END LIST*
D10*
G04 #@! TO.C,J4*
X198150000Y-125200000D02*
X202100000Y-125200000D01*
X202100000Y-125200000D02*
X202100000Y-116900000D01*
X202100000Y-116900000D02*
X198150000Y-116900000D01*
X198150000Y-116900000D02*
X198150000Y-125200000D01*
X197900000Y-122700000D02*
X197900000Y-125450000D01*
X197900000Y-125450000D02*
X200650000Y-125450000D01*
X200600000Y-125200000D02*
X200600000Y-124800000D01*
X200600000Y-116900000D02*
X200600000Y-117300000D01*
X198550000Y-121050000D02*
X198550000Y-124800000D01*
X198550000Y-124800000D02*
X199800000Y-124800000D01*
X199800000Y-124800000D02*
X199800000Y-124400000D01*
X199800000Y-124400000D02*
X200200000Y-124400000D01*
X200200000Y-124400000D02*
X200200000Y-124800000D01*
X200200000Y-124800000D02*
X202100000Y-124800000D01*
X198550000Y-121050000D02*
X198550000Y-117300000D01*
X198550000Y-117300000D02*
X199800000Y-117300000D01*
X199800000Y-117300000D02*
X199800000Y-117700000D01*
X199800000Y-117700000D02*
X200200000Y-117700000D01*
X200200000Y-117700000D02*
X200200000Y-117300000D01*
X200200000Y-117300000D02*
X202100000Y-117300000D01*
G04 #@! TO.C,P3*
X140550000Y-81200000D02*
X140550000Y-77250000D01*
X140550000Y-77250000D02*
X134250000Y-77250000D01*
X134250000Y-77250000D02*
X134250000Y-81200000D01*
X134250000Y-81200000D02*
X140550000Y-81200000D01*
X138050000Y-81450000D02*
X140800000Y-81450000D01*
X140800000Y-81450000D02*
X140800000Y-78700000D01*
X140550000Y-78750000D02*
X140150000Y-78750000D01*
X134250000Y-78750000D02*
X134650000Y-78750000D01*
X137400000Y-80800000D02*
X140150000Y-80800000D01*
X140150000Y-80800000D02*
X140150000Y-79550000D01*
X140150000Y-79550000D02*
X139750000Y-79550000D01*
X139750000Y-79550000D02*
X139750000Y-79150000D01*
X139750000Y-79150000D02*
X140150000Y-79150000D01*
X140150000Y-79150000D02*
X140150000Y-77250000D01*
X137400000Y-80800000D02*
X134650000Y-80800000D01*
X134650000Y-80800000D02*
X134650000Y-79550000D01*
X134650000Y-79550000D02*
X135050000Y-79550000D01*
X135050000Y-79550000D02*
X135050000Y-79150000D01*
X135050000Y-79150000D02*
X134650000Y-79150000D01*
X134650000Y-79150000D02*
X134650000Y-77250000D01*
D11*
G04 #@! TO.C,P2*
X133000000Y-82100000D02*
X133000000Y-76800000D01*
X133000000Y-82100000D02*
X127000000Y-82100000D01*
X127000000Y-79500000D02*
X127000000Y-76800000D01*
X127000000Y-76800000D02*
X133000000Y-76800000D01*
X127000000Y-82100000D02*
X127000000Y-79500000D01*
G04 #@! TO.C,CPU1*
X163900000Y-80850000D02*
X163900000Y-91150000D01*
X163900000Y-91150000D02*
X153600000Y-91150000D01*
X153600000Y-91150000D02*
X153600000Y-80950000D01*
X153600000Y-80950000D02*
X153600000Y-80900000D01*
X153600000Y-80900000D02*
X153600000Y-80850000D01*
X153600000Y-80850000D02*
X163900000Y-80850000D01*
X155110555Y-82000000D02*
G75*
G03X155110555Y-82000000I-360555J0D01*
G01*
G04 #@! TO.C,P10*
X140700000Y-56500000D02*
X140700000Y-51900000D01*
X152600000Y-56500000D02*
X140700000Y-56500000D01*
X152600000Y-51900000D02*
X152600000Y-56500000D01*
X140700000Y-51900000D02*
X152600000Y-51900000D01*
G04 #@! TO.C,LED1*
X131700000Y-84500000D02*
X130200000Y-84500000D01*
X131200000Y-85000000D02*
X131200000Y-84000000D01*
X130800000Y-84000000D02*
X130800000Y-85000000D01*
X131200000Y-84500000D02*
X130800000Y-84000000D01*
X130800000Y-85000000D02*
X131200000Y-84500000D01*
X131700000Y-84000000D02*
X131700000Y-85000000D01*
X130200000Y-84000000D02*
X131700000Y-84000000D01*
X130200000Y-85000000D02*
X130200000Y-84000000D01*
X131700000Y-85000000D02*
X130200000Y-85000000D01*
G04 #@! TO.C,LED2*
X145300000Y-83000000D02*
X143800000Y-83000000D01*
X144800000Y-83500000D02*
X144800000Y-82500000D01*
X144400000Y-82500000D02*
X144400000Y-83500000D01*
X144800000Y-83000000D02*
X144400000Y-82500000D01*
X144400000Y-83500000D02*
X144800000Y-83000000D01*
X145300000Y-82500000D02*
X145300000Y-83500000D01*
X143800000Y-82500000D02*
X145300000Y-82500000D01*
X143800000Y-83500000D02*
X143800000Y-82500000D01*
X145300000Y-83500000D02*
X143800000Y-83500000D01*
G04 #@! TO.C,C17*
X148600000Y-88550000D02*
X148600000Y-90150000D01*
X149400000Y-88550000D02*
X148600000Y-88550000D01*
X149400000Y-88550000D02*
X149400000Y-90150000D01*
X149400000Y-90150000D02*
X148600000Y-90150000D01*
G04 #@! TO.C,P11*
X185400000Y-82400000D02*
X169700000Y-82400000D01*
X169700000Y-82400000D02*
X169700000Y-86900000D01*
X169700000Y-86900000D02*
X185400000Y-86900000D01*
X185400000Y-86900000D02*
X185400000Y-82400000D01*
G04 #@! TO.C,BZ1*
X201100000Y-88900000D02*
G75*
G03X201100000Y-88900000I-6500000J0D01*
G01*
G04 #@! TO.C,C2*
X118450000Y-84900000D02*
X120050000Y-84900000D01*
X118450000Y-84100000D02*
X118450000Y-84900000D01*
X118450000Y-84100000D02*
X120050000Y-84100000D01*
X120050000Y-84100000D02*
X120050000Y-84900000D01*
G04 #@! TO.C,C3*
X123550000Y-84100000D02*
X121950000Y-84100000D01*
X123550000Y-84900000D02*
X123550000Y-84100000D01*
X123550000Y-84900000D02*
X121950000Y-84900000D01*
X121950000Y-84900000D02*
X121950000Y-84100000D01*
G04 #@! TO.C,C6*
X135450000Y-84900000D02*
X137050000Y-84900000D01*
X135450000Y-84100000D02*
X135450000Y-84900000D01*
X135450000Y-84100000D02*
X137050000Y-84100000D01*
X137050000Y-84100000D02*
X137050000Y-84900000D01*
G04 #@! TO.C,C7*
X140450000Y-84100000D02*
X138850000Y-84100000D01*
X140450000Y-84900000D02*
X140450000Y-84100000D01*
X140450000Y-84900000D02*
X138850000Y-84900000D01*
X138850000Y-84900000D02*
X138850000Y-84100000D01*
G04 #@! TO.C,FET1*
X113500000Y-119000000D02*
X113400000Y-119000000D01*
X109100000Y-119000000D02*
X113500000Y-119000000D01*
X109100000Y-122800000D02*
X109100000Y-119000000D01*
X113500000Y-122800000D02*
X109100000Y-122800000D01*
X113500000Y-122800000D02*
X113500000Y-119000000D01*
X113123607Y-119700000D02*
G75*
G03X113123607Y-119700000I-223607J0D01*
G01*
G04 #@! TO.C,FET2*
X118600000Y-119000000D02*
X118500000Y-119000000D01*
X114200000Y-119000000D02*
X118600000Y-119000000D01*
X114200000Y-122800000D02*
X114200000Y-119000000D01*
X118600000Y-122800000D02*
X114200000Y-122800000D01*
X118600000Y-122800000D02*
X118600000Y-119000000D01*
X118223607Y-119700000D02*
G75*
G03X118223607Y-119700000I-223607J0D01*
G01*
G04 #@! TO.C,FET3*
X126800000Y-119000000D02*
X126700000Y-119000000D01*
X122400000Y-119000000D02*
X126800000Y-119000000D01*
X122400000Y-122800000D02*
X122400000Y-119000000D01*
X126800000Y-122800000D02*
X122400000Y-122800000D01*
X126800000Y-122800000D02*
X126800000Y-119000000D01*
X126423607Y-119700000D02*
G75*
G03X126423607Y-119700000I-223607J0D01*
G01*
G04 #@! TO.C,FET4*
X131900000Y-119000000D02*
X131800000Y-119000000D01*
X127500000Y-119000000D02*
X131900000Y-119000000D01*
X127500000Y-122800000D02*
X127500000Y-119000000D01*
X131900000Y-122800000D02*
X127500000Y-122800000D01*
X131900000Y-122800000D02*
X131900000Y-119000000D01*
X131523607Y-119700000D02*
G75*
G03X131523607Y-119700000I-223607J0D01*
G01*
G04 #@! TO.C,FET5*
X140000000Y-119000000D02*
X139900000Y-119000000D01*
X135600000Y-119000000D02*
X140000000Y-119000000D01*
X135600000Y-122800000D02*
X135600000Y-119000000D01*
X140000000Y-122800000D02*
X135600000Y-122800000D01*
X140000000Y-122800000D02*
X140000000Y-119000000D01*
X139623607Y-119700000D02*
G75*
G03X139623607Y-119700000I-223607J0D01*
G01*
G04 #@! TO.C,FET6*
X145100000Y-119000000D02*
X145000000Y-119000000D01*
X140700000Y-119000000D02*
X145100000Y-119000000D01*
X140700000Y-122800000D02*
X140700000Y-119000000D01*
X145100000Y-122800000D02*
X140700000Y-122800000D01*
X145100000Y-122800000D02*
X145100000Y-119000000D01*
X144723607Y-119700000D02*
G75*
G03X144723607Y-119700000I-223607J0D01*
G01*
G04 #@! TO.C,FET7*
X166800000Y-119000000D02*
X166700000Y-119000000D01*
X162400000Y-119000000D02*
X166800000Y-119000000D01*
X162400000Y-122800000D02*
X162400000Y-119000000D01*
X166800000Y-122800000D02*
X162400000Y-122800000D01*
X166800000Y-122800000D02*
X166800000Y-119000000D01*
X166423607Y-119700000D02*
G75*
G03X166423607Y-119700000I-223607J0D01*
G01*
G04 #@! TO.C,FET8*
X171900000Y-119000000D02*
X171800000Y-119000000D01*
X167500000Y-119000000D02*
X171900000Y-119000000D01*
X167500000Y-122800000D02*
X167500000Y-119000000D01*
X171900000Y-122800000D02*
X167500000Y-122800000D01*
X171900000Y-122800000D02*
X171900000Y-119000000D01*
X171523607Y-119700000D02*
G75*
G03X171523607Y-119700000I-223607J0D01*
G01*
G04 #@! TO.C,FET9*
X180200000Y-119000000D02*
X180100000Y-119000000D01*
X175800000Y-119000000D02*
X180200000Y-119000000D01*
X175800000Y-122800000D02*
X175800000Y-119000000D01*
X180200000Y-122800000D02*
X175800000Y-122800000D01*
X180200000Y-122800000D02*
X180200000Y-119000000D01*
X179823607Y-119700000D02*
G75*
G03X179823607Y-119700000I-223607J0D01*
G01*
G04 #@! TO.C,FET10*
X185300000Y-119000000D02*
X185200000Y-119000000D01*
X180900000Y-119000000D02*
X185300000Y-119000000D01*
X180900000Y-122800000D02*
X180900000Y-119000000D01*
X185300000Y-122800000D02*
X180900000Y-122800000D01*
X185300000Y-122800000D02*
X185300000Y-119000000D01*
X184923607Y-119700000D02*
G75*
G03X184923607Y-119700000I-223607J0D01*
G01*
G04 #@! TO.C,FET11*
X153400000Y-119000000D02*
X153300000Y-119000000D01*
X149000000Y-119000000D02*
X153400000Y-119000000D01*
X149000000Y-122800000D02*
X149000000Y-119000000D01*
X153400000Y-122800000D02*
X149000000Y-122800000D01*
X153400000Y-122800000D02*
X153400000Y-119000000D01*
X153023607Y-119700000D02*
G75*
G03X153023607Y-119700000I-223607J0D01*
G01*
G04 #@! TO.C,FET12*
X158500000Y-119000000D02*
X158400000Y-119000000D01*
X154100000Y-119000000D02*
X158500000Y-119000000D01*
X154100000Y-122800000D02*
X154100000Y-119000000D01*
X158500000Y-122800000D02*
X154100000Y-122800000D01*
X158500000Y-122800000D02*
X158500000Y-119000000D01*
X158123607Y-119700000D02*
G75*
G03X158123607Y-119700000I-223607J0D01*
G01*
G04 #@! TO.C,IC1*
X118160555Y-104800000D02*
G75*
G03X118160555Y-104800000I-360555J0D01*
G01*
X118700000Y-103700000D02*
X118700000Y-111200000D01*
X118700000Y-111200000D02*
X109100000Y-111200000D01*
X109100000Y-111200000D02*
X109100000Y-103700000D01*
X109100000Y-103700000D02*
X118700000Y-103700000D01*
G04 #@! TO.C,IC2*
X131460555Y-104800000D02*
G75*
G03X131460555Y-104800000I-360555J0D01*
G01*
X132000000Y-103700000D02*
X132000000Y-111200000D01*
X132000000Y-111200000D02*
X122400000Y-111200000D01*
X122400000Y-111200000D02*
X122400000Y-103700000D01*
X122400000Y-103700000D02*
X132000000Y-103700000D01*
G04 #@! TO.C,IC3*
X144650555Y-104780000D02*
G75*
G03X144650555Y-104780000I-360555J0D01*
G01*
X145190000Y-103680000D02*
X145190000Y-111180000D01*
X145190000Y-111180000D02*
X135590000Y-111180000D01*
X135590000Y-111180000D02*
X135590000Y-103680000D01*
X135590000Y-103680000D02*
X145190000Y-103680000D01*
G04 #@! TO.C,IC4*
X171460555Y-104800000D02*
G75*
G03X171460555Y-104800000I-360555J0D01*
G01*
X172000000Y-103700000D02*
X172000000Y-111200000D01*
X172000000Y-111200000D02*
X162400000Y-111200000D01*
X162400000Y-111200000D02*
X162400000Y-103700000D01*
X162400000Y-103700000D02*
X172000000Y-103700000D01*
G04 #@! TO.C,IC5*
X184860555Y-104800000D02*
G75*
G03X184860555Y-104800000I-360555J0D01*
G01*
X185400000Y-103700000D02*
X185400000Y-111200000D01*
X185400000Y-111200000D02*
X175800000Y-111200000D01*
X175800000Y-111200000D02*
X175800000Y-103700000D01*
X175800000Y-103700000D02*
X185400000Y-103700000D01*
G04 #@! TO.C,IC6*
X158060555Y-104800000D02*
G75*
G03X158060555Y-104800000I-360555J0D01*
G01*
X158600000Y-103700000D02*
X158600000Y-111200000D01*
X158600000Y-111200000D02*
X149000000Y-111200000D01*
X149000000Y-111200000D02*
X149000000Y-103700000D01*
X149000000Y-103700000D02*
X158600000Y-103700000D01*
G04 #@! TO.C,J1*
X209300000Y-113800000D02*
X209300000Y-113900000D01*
X209300000Y-113900000D02*
X192200000Y-113900000D01*
X192200000Y-113900000D02*
X192200000Y-113800000D01*
X209200000Y-98800000D02*
X192200000Y-98800000D01*
X192200000Y-98800000D02*
X192200000Y-113800000D01*
X209300000Y-113800000D02*
X209300000Y-98800000D01*
X209300000Y-98800000D02*
X209200000Y-98800000D01*
G04 #@! TO.C,R1*
X126650000Y-84100000D02*
X128250000Y-84100000D01*
X126650000Y-84100000D02*
X126650000Y-84900000D01*
X126650000Y-84900000D02*
X128250000Y-84900000D01*
X128250000Y-84100000D02*
X128250000Y-84900000D01*
G04 #@! TO.C,R2*
X140950000Y-82600000D02*
X142550000Y-82600000D01*
X140950000Y-82600000D02*
X140950000Y-83400000D01*
X140950000Y-83400000D02*
X142550000Y-83400000D01*
X142550000Y-82600000D02*
X142550000Y-83400000D01*
G04 #@! TO.C,R54*
X140100000Y-64150000D02*
X140100000Y-65750000D01*
X140100000Y-64150000D02*
X139300000Y-64150000D01*
X139300000Y-64150000D02*
X139300000Y-65750000D01*
X140100000Y-65750000D02*
X139300000Y-65750000D01*
G04 #@! TO.C,R55*
X146600000Y-64250000D02*
X146600000Y-65850000D01*
X146600000Y-64250000D02*
X145800000Y-64250000D01*
X145800000Y-64250000D02*
X145800000Y-65850000D01*
X146600000Y-65850000D02*
X145800000Y-65850000D01*
G04 #@! TO.C,R56*
X153100000Y-64250000D02*
X153100000Y-65850000D01*
X153100000Y-64250000D02*
X152300000Y-64250000D01*
X152300000Y-64250000D02*
X152300000Y-65850000D01*
X153100000Y-65850000D02*
X152300000Y-65850000D01*
G04 #@! TO.C,R57*
X159600000Y-64250000D02*
X159600000Y-65850000D01*
X159600000Y-64250000D02*
X158800000Y-64250000D01*
X158800000Y-64250000D02*
X158800000Y-65850000D01*
X159600000Y-65850000D02*
X158800000Y-65850000D01*
G04 #@! TO.C,R58*
X166100000Y-64250000D02*
X166100000Y-65850000D01*
X166100000Y-64250000D02*
X165300000Y-64250000D01*
X165300000Y-64250000D02*
X165300000Y-65850000D01*
X166100000Y-65850000D02*
X165300000Y-65850000D01*
G04 #@! TO.C,R59*
X172600000Y-64250000D02*
X172600000Y-65850000D01*
X172600000Y-64250000D02*
X171800000Y-64250000D01*
X171800000Y-64250000D02*
X171800000Y-65850000D01*
X172600000Y-65850000D02*
X171800000Y-65850000D01*
G04 #@! TO.C,SW1*
X177300000Y-67450000D02*
X176800000Y-67950000D01*
X184800000Y-67950000D02*
X184300000Y-67450000D01*
X184300000Y-74450000D02*
X184800000Y-73950000D01*
X177300000Y-74450000D02*
X176800000Y-73950000D01*
X177300000Y-67450000D02*
X184300000Y-67450000D01*
X184800000Y-67950000D02*
X184800000Y-73950000D01*
X176800000Y-73950000D02*
X176800000Y-67950000D01*
X184300000Y-74450000D02*
X177300000Y-74450000D01*
G04 #@! TO.C,RV1*
X140856797Y-71300000D02*
G75*
G03X140856797Y-71300000I-1106797J0D01*
G01*
X142200000Y-73500000D02*
X137300000Y-73500000D01*
X137300000Y-69000000D02*
X142200000Y-69000000D01*
X137300000Y-69000000D02*
X137300000Y-73500000D01*
X142200000Y-69000000D02*
X142200000Y-73500000D01*
G04 #@! TO.C,RV2*
X147356797Y-71300000D02*
G75*
G03X147356797Y-71300000I-1106797J0D01*
G01*
X148700000Y-73500000D02*
X143800000Y-73500000D01*
X143800000Y-69000000D02*
X148700000Y-69000000D01*
X143800000Y-69000000D02*
X143800000Y-73500000D01*
X148700000Y-69000000D02*
X148700000Y-73500000D01*
G04 #@! TO.C,RV3*
X153856797Y-71300000D02*
G75*
G03X153856797Y-71300000I-1106797J0D01*
G01*
X155200000Y-73500000D02*
X150300000Y-73500000D01*
X150300000Y-69000000D02*
X155200000Y-69000000D01*
X150300000Y-69000000D02*
X150300000Y-73500000D01*
X155200000Y-69000000D02*
X155200000Y-73500000D01*
G04 #@! TO.C,RV4*
X160356797Y-71300000D02*
G75*
G03X160356797Y-71300000I-1106797J0D01*
G01*
X161700000Y-73500000D02*
X156800000Y-73500000D01*
X156800000Y-69000000D02*
X161700000Y-69000000D01*
X156800000Y-69000000D02*
X156800000Y-73500000D01*
X161700000Y-69000000D02*
X161700000Y-73500000D01*
G04 #@! TO.C,RV5*
X166856797Y-71300000D02*
G75*
G03X166856797Y-71300000I-1106797J0D01*
G01*
X168200000Y-73500000D02*
X163300000Y-73500000D01*
X163300000Y-69000000D02*
X168200000Y-69000000D01*
X163300000Y-69000000D02*
X163300000Y-73500000D01*
X168200000Y-69000000D02*
X168200000Y-73500000D01*
G04 #@! TO.C,RV6*
X173356797Y-71300000D02*
G75*
G03X173356797Y-71300000I-1106797J0D01*
G01*
X174700000Y-73500000D02*
X169800000Y-73500000D01*
X169800000Y-69000000D02*
X174700000Y-69000000D01*
X169800000Y-69000000D02*
X169800000Y-73500000D01*
X174700000Y-69000000D02*
X174700000Y-73500000D01*
G04 #@! TO.C,P4*
X117550000Y-137800000D02*
X110050000Y-137800000D01*
X117550000Y-125200000D02*
X110050000Y-125200000D01*
X110050000Y-137800000D02*
X110050000Y-125800000D01*
X110050000Y-125800000D02*
X110050000Y-125200000D01*
X117550000Y-125800000D02*
X117550000Y-125200000D01*
X117550000Y-137800000D02*
X117550000Y-125800000D01*
X117550000Y-136650000D02*
X110050000Y-136650000D01*
G04 #@! TO.C,P5*
X130850000Y-137800000D02*
X123350000Y-137800000D01*
X130850000Y-125200000D02*
X123350000Y-125200000D01*
X123350000Y-137800000D02*
X123350000Y-125800000D01*
X123350000Y-125800000D02*
X123350000Y-125200000D01*
X130850000Y-125800000D02*
X130850000Y-125200000D01*
X130850000Y-137800000D02*
X130850000Y-125800000D01*
X130850000Y-136650000D02*
X123350000Y-136650000D01*
G04 #@! TO.C,P6*
X144050000Y-137800000D02*
X136550000Y-137800000D01*
X144050000Y-125200000D02*
X136550000Y-125200000D01*
X136550000Y-137800000D02*
X136550000Y-125800000D01*
X136550000Y-125800000D02*
X136550000Y-125200000D01*
X144050000Y-125800000D02*
X144050000Y-125200000D01*
X144050000Y-137800000D02*
X144050000Y-125800000D01*
X144050000Y-136650000D02*
X136550000Y-136650000D01*
G04 #@! TO.C,P7*
X170850000Y-137800000D02*
X163350000Y-137800000D01*
X170850000Y-125200000D02*
X163350000Y-125200000D01*
X163350000Y-137800000D02*
X163350000Y-125800000D01*
X163350000Y-125800000D02*
X163350000Y-125200000D01*
X170850000Y-125800000D02*
X170850000Y-125200000D01*
X170850000Y-137800000D02*
X170850000Y-125800000D01*
X170850000Y-136650000D02*
X163350000Y-136650000D01*
G04 #@! TO.C,P8*
X184250000Y-137800000D02*
X176750000Y-137800000D01*
X184250000Y-125200000D02*
X176750000Y-125200000D01*
X176750000Y-137800000D02*
X176750000Y-125800000D01*
X176750000Y-125800000D02*
X176750000Y-125200000D01*
X184250000Y-125800000D02*
X184250000Y-125200000D01*
X184250000Y-137800000D02*
X184250000Y-125800000D01*
X184250000Y-136650000D02*
X176750000Y-136650000D01*
G04 #@! TO.C,P9*
X157450000Y-137800000D02*
X149950000Y-137800000D01*
X157450000Y-125200000D02*
X149950000Y-125200000D01*
X149950000Y-137800000D02*
X149950000Y-125800000D01*
X149950000Y-125800000D02*
X149950000Y-125200000D01*
X157450000Y-125800000D02*
X157450000Y-125200000D01*
X157450000Y-137800000D02*
X157450000Y-125800000D01*
X157450000Y-136650000D02*
X149950000Y-136650000D01*
D10*
G04 #@! TO.C,J2*
X198175000Y-138350000D02*
X202125000Y-138350000D01*
X202125000Y-138350000D02*
X202125000Y-128050000D01*
X202125000Y-128050000D02*
X198175000Y-128050000D01*
X198175000Y-128050000D02*
X198175000Y-138350000D01*
X197925000Y-135850000D02*
X197925000Y-138600000D01*
X197925000Y-138600000D02*
X200675000Y-138600000D01*
X200625000Y-138350000D02*
X200625000Y-137950000D01*
X200625000Y-128050000D02*
X200625000Y-128450000D01*
X198575000Y-133200000D02*
X198575000Y-137950000D01*
X198575000Y-137950000D02*
X199825000Y-137950000D01*
X199825000Y-137950000D02*
X199825000Y-137550000D01*
X199825000Y-137550000D02*
X200225000Y-137550000D01*
X200225000Y-137550000D02*
X200225000Y-137950000D01*
X200225000Y-137950000D02*
X202125000Y-137950000D01*
X198575000Y-133200000D02*
X198575000Y-128450000D01*
X198575000Y-128450000D02*
X199825000Y-128450000D01*
X199825000Y-128450000D02*
X199825000Y-128850000D01*
X199825000Y-128850000D02*
X200225000Y-128850000D01*
X200225000Y-128850000D02*
X200225000Y-128450000D01*
X200225000Y-128450000D02*
X202125000Y-128450000D01*
G04 #@! TO.C,J3*
X160250000Y-52150000D02*
X160250000Y-56100000D01*
X160250000Y-56100000D02*
X168550000Y-56100000D01*
X168550000Y-56100000D02*
X168550000Y-52150000D01*
X168550000Y-52150000D02*
X160250000Y-52150000D01*
X162750000Y-51900000D02*
X160000000Y-51900000D01*
X160000000Y-51900000D02*
X160000000Y-54650000D01*
X160250000Y-54600000D02*
X160650000Y-54600000D01*
X168550000Y-54600000D02*
X168150000Y-54600000D01*
X164400000Y-52550000D02*
X160650000Y-52550000D01*
X160650000Y-52550000D02*
X160650000Y-53800000D01*
X160650000Y-53800000D02*
X161050000Y-53800000D01*
X161050000Y-53800000D02*
X161050000Y-54200000D01*
X161050000Y-54200000D02*
X160650000Y-54200000D01*
X160650000Y-54200000D02*
X160650000Y-56100000D01*
X164400000Y-52550000D02*
X168150000Y-52550000D01*
X168150000Y-52550000D02*
X168150000Y-53800000D01*
X168150000Y-53800000D02*
X167750000Y-53800000D01*
X167750000Y-53800000D02*
X167750000Y-54200000D01*
X167750000Y-54200000D02*
X168150000Y-54200000D01*
X168150000Y-54200000D02*
X168150000Y-56100000D01*
D11*
G04 #@! TO.C,C27*
X161450000Y-94100000D02*
X163050000Y-94100000D01*
X161450000Y-93300000D02*
X161450000Y-94100000D01*
X161450000Y-93300000D02*
X163050000Y-93300000D01*
X163050000Y-93300000D02*
X163050000Y-94100000D01*
G04 #@! TO.C,R67*
X157050000Y-76500000D02*
X155450000Y-76500000D01*
X157050000Y-76500000D02*
X157050000Y-75700000D01*
X157050000Y-75700000D02*
X155450000Y-75700000D01*
X155450000Y-76500000D02*
X155450000Y-75700000D01*
D10*
G04 #@! TO.C,C1*
X111910000Y-94990000D02*
X114590000Y-94990000D01*
X120290000Y-94990000D02*
X117610000Y-94990000D01*
X119530000Y-86610000D02*
X117610000Y-86610000D01*
X112670000Y-86610000D02*
X114590000Y-86610000D01*
X111910000Y-94990000D02*
X111910000Y-87370000D01*
X111910000Y-87370000D02*
X112670000Y-86610000D01*
X119530000Y-86610000D02*
X120290000Y-87370000D01*
X120290000Y-87370000D02*
X120290000Y-94990000D01*
G04 #@! TO.C,C4*
X120710000Y-94990000D02*
X123390000Y-94990000D01*
X129090000Y-94990000D02*
X126410000Y-94990000D01*
X128330000Y-86610000D02*
X126410000Y-86610000D01*
X121470000Y-86610000D02*
X123390000Y-86610000D01*
X120710000Y-94990000D02*
X120710000Y-87370000D01*
X120710000Y-87370000D02*
X121470000Y-86610000D01*
X128330000Y-86610000D02*
X129090000Y-87370000D01*
X129090000Y-87370000D02*
X129090000Y-94990000D01*
G04 #@! TO.C,C5*
X129510000Y-94990000D02*
X132190000Y-94990000D01*
X137890000Y-94990000D02*
X135210000Y-94990000D01*
X137130000Y-86610000D02*
X135210000Y-86610000D01*
X130270000Y-86610000D02*
X132190000Y-86610000D01*
X129510000Y-94990000D02*
X129510000Y-87370000D01*
X129510000Y-87370000D02*
X130270000Y-86610000D01*
X137130000Y-86610000D02*
X137890000Y-87370000D01*
X137890000Y-87370000D02*
X137890000Y-94990000D01*
G04 #@! TO.C,C8*
X138310000Y-95040000D02*
X140990000Y-95040000D01*
X146690000Y-95040000D02*
X144010000Y-95040000D01*
X145930000Y-86660000D02*
X144010000Y-86660000D01*
X139070000Y-86660000D02*
X140990000Y-86660000D01*
X138310000Y-95040000D02*
X138310000Y-87420000D01*
X138310000Y-87420000D02*
X139070000Y-86660000D01*
X145930000Y-86660000D02*
X146690000Y-87420000D01*
X146690000Y-87420000D02*
X146690000Y-95040000D01*
D11*
G04 #@! TO.C,C26*
X146325000Y-76950000D02*
X146325000Y-78550000D01*
X147125000Y-76950000D02*
X146325000Y-76950000D01*
X147125000Y-76950000D02*
X147125000Y-78550000D01*
X147125000Y-78550000D02*
X146325000Y-78550000D01*
G04 #@! TO.C,Y1*
X149151777Y-77073224D02*
G75*
G03X149151777Y-77073224I-176777J0D01*
G01*
X150525000Y-76600000D02*
X148525000Y-76600000D01*
X150525000Y-79100000D02*
X150525000Y-76600000D01*
X148525000Y-79100000D02*
X150525000Y-79100000D01*
X148525000Y-76600000D02*
X148525000Y-79100000D01*
D10*
G04 #@! TO.C,C29*
X195690000Y-130095000D02*
X195690000Y-137715000D01*
X194930000Y-129335000D02*
X195690000Y-130095000D01*
X187310000Y-130095000D02*
X188070000Y-129335000D01*
X187310000Y-137715000D02*
X187310000Y-130095000D01*
X188070000Y-129335000D02*
X189990000Y-129335000D01*
X194930000Y-129335000D02*
X193010000Y-129335000D01*
X195690000Y-137715000D02*
X193010000Y-137715000D01*
X187310000Y-137715000D02*
X189990000Y-137715000D01*
G04 #@! TO.C,J4*
D11*
X202752380Y-122383333D02*
X203466666Y-122383333D01*
X203609523Y-122430952D01*
X203704761Y-122526190D01*
X203752380Y-122669047D01*
X203752380Y-122764285D01*
X203085714Y-121478571D02*
X203752380Y-121478571D01*
X202704761Y-121716666D02*
X203419047Y-121954761D01*
X203419047Y-121335714D01*
G04 #@! TO.C,P3*
X136686904Y-76427380D02*
X136686904Y-75427380D01*
X137067857Y-75427380D01*
X137163095Y-75475000D01*
X137210714Y-75522619D01*
X137258333Y-75617857D01*
X137258333Y-75760714D01*
X137210714Y-75855952D01*
X137163095Y-75903571D01*
X137067857Y-75951190D01*
X136686904Y-75951190D01*
X137591666Y-75427380D02*
X138210714Y-75427380D01*
X137877380Y-75808333D01*
X138020238Y-75808333D01*
X138115476Y-75855952D01*
X138163095Y-75903571D01*
X138210714Y-75998809D01*
X138210714Y-76236904D01*
X138163095Y-76332142D01*
X138115476Y-76379761D01*
X138020238Y-76427380D01*
X137734523Y-76427380D01*
X137639285Y-76379761D01*
X137591666Y-76332142D01*
G04 #@! TO.C,P2*
X129311904Y-76152380D02*
X129311904Y-75152380D01*
X129692857Y-75152380D01*
X129788095Y-75200000D01*
X129835714Y-75247619D01*
X129883333Y-75342857D01*
X129883333Y-75485714D01*
X129835714Y-75580952D01*
X129788095Y-75628571D01*
X129692857Y-75676190D01*
X129311904Y-75676190D01*
X130264285Y-75247619D02*
X130311904Y-75200000D01*
X130407142Y-75152380D01*
X130645238Y-75152380D01*
X130740476Y-75200000D01*
X130788095Y-75247619D01*
X130835714Y-75342857D01*
X130835714Y-75438095D01*
X130788095Y-75580952D01*
X130216666Y-76152380D01*
X130835714Y-76152380D01*
G04 #@! TO.C,P1*
X122511904Y-75202380D02*
X122511904Y-74202380D01*
X122892857Y-74202380D01*
X122988095Y-74250000D01*
X123035714Y-74297619D01*
X123083333Y-74392857D01*
X123083333Y-74535714D01*
X123035714Y-74630952D01*
X122988095Y-74678571D01*
X122892857Y-74726190D01*
X122511904Y-74726190D01*
X124035714Y-75202380D02*
X123464285Y-75202380D01*
X123750000Y-75202380D02*
X123750000Y-74202380D01*
X123654761Y-74345238D01*
X123559523Y-74440476D01*
X123464285Y-74488095D01*
X124869047Y-81421428D02*
X125630952Y-81421428D01*
X125250000Y-81802380D02*
X125250000Y-81040476D01*
G04 #@! TO.C,CPU1*
X164609523Y-80157142D02*
X164561904Y-80204761D01*
X164419047Y-80252380D01*
X164323809Y-80252380D01*
X164180952Y-80204761D01*
X164085714Y-80109523D01*
X164038095Y-80014285D01*
X163990476Y-79823809D01*
X163990476Y-79680952D01*
X164038095Y-79490476D01*
X164085714Y-79395238D01*
X164180952Y-79300000D01*
X164323809Y-79252380D01*
X164419047Y-79252380D01*
X164561904Y-79300000D01*
X164609523Y-79347619D01*
X165038095Y-80252380D02*
X165038095Y-79252380D01*
X165419047Y-79252380D01*
X165514285Y-79300000D01*
X165561904Y-79347619D01*
X165609523Y-79442857D01*
X165609523Y-79585714D01*
X165561904Y-79680952D01*
X165514285Y-79728571D01*
X165419047Y-79776190D01*
X165038095Y-79776190D01*
X166038095Y-79252380D02*
X166038095Y-80061904D01*
X166085714Y-80157142D01*
X166133333Y-80204761D01*
X166228571Y-80252380D01*
X166419047Y-80252380D01*
X166514285Y-80204761D01*
X166561904Y-80157142D01*
X166609523Y-80061904D01*
X166609523Y-79252380D01*
X167609523Y-80252380D02*
X167038095Y-80252380D01*
X167323809Y-80252380D02*
X167323809Y-79252380D01*
X167228571Y-79395238D01*
X167133333Y-79490476D01*
X167038095Y-79538095D01*
G04 #@! TO.C,P10*
X145185714Y-51152380D02*
X145185714Y-50152380D01*
X145566666Y-50152380D01*
X145661904Y-50200000D01*
X145709523Y-50247619D01*
X145757142Y-50342857D01*
X145757142Y-50485714D01*
X145709523Y-50580952D01*
X145661904Y-50628571D01*
X145566666Y-50676190D01*
X145185714Y-50676190D01*
X146709523Y-51152380D02*
X146138095Y-51152380D01*
X146423809Y-51152380D02*
X146423809Y-50152380D01*
X146328571Y-50295238D01*
X146233333Y-50390476D01*
X146138095Y-50438095D01*
X147328571Y-50152380D02*
X147423809Y-50152380D01*
X147519047Y-50200000D01*
X147566666Y-50247619D01*
X147614285Y-50342857D01*
X147661904Y-50533333D01*
X147661904Y-50771428D01*
X147614285Y-50961904D01*
X147566666Y-51057142D01*
X147519047Y-51104761D01*
X147423809Y-51152380D01*
X147328571Y-51152380D01*
X147233333Y-51104761D01*
X147185714Y-51057142D01*
X147138095Y-50961904D01*
X147090476Y-50771428D01*
X147090476Y-50533333D01*
X147138095Y-50342857D01*
X147185714Y-50247619D01*
X147233333Y-50200000D01*
X147328571Y-50152380D01*
G04 #@! TO.C,LED1*
X129980952Y-83452380D02*
X129504761Y-83452380D01*
X129504761Y-82452380D01*
X130314285Y-82928571D02*
X130647619Y-82928571D01*
X130790476Y-83452380D02*
X130314285Y-83452380D01*
X130314285Y-82452380D01*
X130790476Y-82452380D01*
X131219047Y-83452380D02*
X131219047Y-82452380D01*
X131457142Y-82452380D01*
X131600000Y-82500000D01*
X131695238Y-82595238D01*
X131742857Y-82690476D01*
X131790476Y-82880952D01*
X131790476Y-83023809D01*
X131742857Y-83214285D01*
X131695238Y-83309523D01*
X131600000Y-83404761D01*
X131457142Y-83452380D01*
X131219047Y-83452380D01*
X132742857Y-83452380D02*
X132171428Y-83452380D01*
X132457142Y-83452380D02*
X132457142Y-82452380D01*
X132361904Y-82595238D01*
X132266666Y-82690476D01*
X132171428Y-82738095D01*
G04 #@! TO.C,LED2*
X143430952Y-81852380D02*
X142954761Y-81852380D01*
X142954761Y-80852380D01*
X143764285Y-81328571D02*
X144097619Y-81328571D01*
X144240476Y-81852380D02*
X143764285Y-81852380D01*
X143764285Y-80852380D01*
X144240476Y-80852380D01*
X144669047Y-81852380D02*
X144669047Y-80852380D01*
X144907142Y-80852380D01*
X145050000Y-80900000D01*
X145145238Y-80995238D01*
X145192857Y-81090476D01*
X145240476Y-81280952D01*
X145240476Y-81423809D01*
X145192857Y-81614285D01*
X145145238Y-81709523D01*
X145050000Y-81804761D01*
X144907142Y-81852380D01*
X144669047Y-81852380D01*
X145621428Y-80947619D02*
X145669047Y-80900000D01*
X145764285Y-80852380D01*
X146002380Y-80852380D01*
X146097619Y-80900000D01*
X146145238Y-80947619D01*
X146192857Y-81042857D01*
X146192857Y-81138095D01*
X146145238Y-81280952D01*
X145573809Y-81852380D01*
X146192857Y-81852380D01*
G04 #@! TO.C,C17*
X150982142Y-90242857D02*
X151029761Y-90290476D01*
X151077380Y-90433333D01*
X151077380Y-90528571D01*
X151029761Y-90671428D01*
X150934523Y-90766666D01*
X150839285Y-90814285D01*
X150648809Y-90861904D01*
X150505952Y-90861904D01*
X150315476Y-90814285D01*
X150220238Y-90766666D01*
X150125000Y-90671428D01*
X150077380Y-90528571D01*
X150077380Y-90433333D01*
X150125000Y-90290476D01*
X150172619Y-90242857D01*
X151077380Y-89290476D02*
X151077380Y-89861904D01*
X151077380Y-89576190D02*
X150077380Y-89576190D01*
X150220238Y-89671428D01*
X150315476Y-89766666D01*
X150363095Y-89861904D01*
X150077380Y-88957142D02*
X150077380Y-88290476D01*
X151077380Y-88719047D01*
G04 #@! TO.C,P11*
X175985714Y-81952380D02*
X175985714Y-80952380D01*
X176366666Y-80952380D01*
X176461904Y-81000000D01*
X176509523Y-81047619D01*
X176557142Y-81142857D01*
X176557142Y-81285714D01*
X176509523Y-81380952D01*
X176461904Y-81428571D01*
X176366666Y-81476190D01*
X175985714Y-81476190D01*
X177509523Y-81952380D02*
X176938095Y-81952380D01*
X177223809Y-81952380D02*
X177223809Y-80952380D01*
X177128571Y-81095238D01*
X177033333Y-81190476D01*
X176938095Y-81238095D01*
X178461904Y-81952380D02*
X177890476Y-81952380D01*
X178176190Y-81952380D02*
X178176190Y-80952380D01*
X178080952Y-81095238D01*
X177985714Y-81190476D01*
X177890476Y-81238095D01*
G04 #@! TO.C,BZ1*
X193819047Y-81128571D02*
X193961904Y-81176190D01*
X194009523Y-81223809D01*
X194057142Y-81319047D01*
X194057142Y-81461904D01*
X194009523Y-81557142D01*
X193961904Y-81604761D01*
X193866666Y-81652380D01*
X193485714Y-81652380D01*
X193485714Y-80652380D01*
X193819047Y-80652380D01*
X193914285Y-80700000D01*
X193961904Y-80747619D01*
X194009523Y-80842857D01*
X194009523Y-80938095D01*
X193961904Y-81033333D01*
X193914285Y-81080952D01*
X193819047Y-81128571D01*
X193485714Y-81128571D01*
X194390476Y-80652380D02*
X195057142Y-80652380D01*
X194390476Y-81652380D01*
X195057142Y-81652380D01*
X195961904Y-81652380D02*
X195390476Y-81652380D01*
X195676190Y-81652380D02*
X195676190Y-80652380D01*
X195580952Y-80795238D01*
X195485714Y-80890476D01*
X195390476Y-80938095D01*
G04 #@! TO.C,C2*
X119233333Y-83457142D02*
X119185714Y-83504761D01*
X119042857Y-83552380D01*
X118947619Y-83552380D01*
X118804761Y-83504761D01*
X118709523Y-83409523D01*
X118661904Y-83314285D01*
X118614285Y-83123809D01*
X118614285Y-82980952D01*
X118661904Y-82790476D01*
X118709523Y-82695238D01*
X118804761Y-82600000D01*
X118947619Y-82552380D01*
X119042857Y-82552380D01*
X119185714Y-82600000D01*
X119233333Y-82647619D01*
X119614285Y-82647619D02*
X119661904Y-82600000D01*
X119757142Y-82552380D01*
X119995238Y-82552380D01*
X120090476Y-82600000D01*
X120138095Y-82647619D01*
X120185714Y-82742857D01*
X120185714Y-82838095D01*
X120138095Y-82980952D01*
X119566666Y-83552380D01*
X120185714Y-83552380D01*
G04 #@! TO.C,C3*
X122533333Y-83557142D02*
X122485714Y-83604761D01*
X122342857Y-83652380D01*
X122247619Y-83652380D01*
X122104761Y-83604761D01*
X122009523Y-83509523D01*
X121961904Y-83414285D01*
X121914285Y-83223809D01*
X121914285Y-83080952D01*
X121961904Y-82890476D01*
X122009523Y-82795238D01*
X122104761Y-82700000D01*
X122247619Y-82652380D01*
X122342857Y-82652380D01*
X122485714Y-82700000D01*
X122533333Y-82747619D01*
X122866666Y-82652380D02*
X123485714Y-82652380D01*
X123152380Y-83033333D01*
X123295238Y-83033333D01*
X123390476Y-83080952D01*
X123438095Y-83128571D01*
X123485714Y-83223809D01*
X123485714Y-83461904D01*
X123438095Y-83557142D01*
X123390476Y-83604761D01*
X123295238Y-83652380D01*
X123009523Y-83652380D01*
X122914285Y-83604761D01*
X122866666Y-83557142D01*
G04 #@! TO.C,C6*
X136033333Y-83357142D02*
X135985714Y-83404761D01*
X135842857Y-83452380D01*
X135747619Y-83452380D01*
X135604761Y-83404761D01*
X135509523Y-83309523D01*
X135461904Y-83214285D01*
X135414285Y-83023809D01*
X135414285Y-82880952D01*
X135461904Y-82690476D01*
X135509523Y-82595238D01*
X135604761Y-82500000D01*
X135747619Y-82452380D01*
X135842857Y-82452380D01*
X135985714Y-82500000D01*
X136033333Y-82547619D01*
X136890476Y-82452380D02*
X136700000Y-82452380D01*
X136604761Y-82500000D01*
X136557142Y-82547619D01*
X136461904Y-82690476D01*
X136414285Y-82880952D01*
X136414285Y-83261904D01*
X136461904Y-83357142D01*
X136509523Y-83404761D01*
X136604761Y-83452380D01*
X136795238Y-83452380D01*
X136890476Y-83404761D01*
X136938095Y-83357142D01*
X136985714Y-83261904D01*
X136985714Y-83023809D01*
X136938095Y-82928571D01*
X136890476Y-82880952D01*
X136795238Y-82833333D01*
X136604761Y-82833333D01*
X136509523Y-82880952D01*
X136461904Y-82928571D01*
X136414285Y-83023809D01*
G04 #@! TO.C,C7*
X139333333Y-83257142D02*
X139285714Y-83304761D01*
X139142857Y-83352380D01*
X139047619Y-83352380D01*
X138904761Y-83304761D01*
X138809523Y-83209523D01*
X138761904Y-83114285D01*
X138714285Y-82923809D01*
X138714285Y-82780952D01*
X138761904Y-82590476D01*
X138809523Y-82495238D01*
X138904761Y-82400000D01*
X139047619Y-82352380D01*
X139142857Y-82352380D01*
X139285714Y-82400000D01*
X139333333Y-82447619D01*
X139666666Y-82352380D02*
X140333333Y-82352380D01*
X139904761Y-83352380D01*
G04 #@! TO.C,FET1*
X110233333Y-116328571D02*
X109900000Y-116328571D01*
X109900000Y-116852380D02*
X109900000Y-115852380D01*
X110376190Y-115852380D01*
X110757142Y-116328571D02*
X111090476Y-116328571D01*
X111233333Y-116852380D02*
X110757142Y-116852380D01*
X110757142Y-115852380D01*
X111233333Y-115852380D01*
X111519047Y-115852380D02*
X112090476Y-115852380D01*
X111804761Y-116852380D02*
X111804761Y-115852380D01*
X112947619Y-116852380D02*
X112376190Y-116852380D01*
X112661904Y-116852380D02*
X112661904Y-115852380D01*
X112566666Y-115995238D01*
X112471428Y-116090476D01*
X112376190Y-116138095D01*
G04 #@! TO.C,FET2*
X115233333Y-116328571D02*
X114900000Y-116328571D01*
X114900000Y-116852380D02*
X114900000Y-115852380D01*
X115376190Y-115852380D01*
X115757142Y-116328571D02*
X116090476Y-116328571D01*
X116233333Y-116852380D02*
X115757142Y-116852380D01*
X115757142Y-115852380D01*
X116233333Y-115852380D01*
X116519047Y-115852380D02*
X117090476Y-115852380D01*
X116804761Y-116852380D02*
X116804761Y-115852380D01*
X117376190Y-115947619D02*
X117423809Y-115900000D01*
X117519047Y-115852380D01*
X117757142Y-115852380D01*
X117852380Y-115900000D01*
X117900000Y-115947619D01*
X117947619Y-116042857D01*
X117947619Y-116138095D01*
X117900000Y-116280952D01*
X117328571Y-116852380D01*
X117947619Y-116852380D01*
G04 #@! TO.C,FET3*
X123433333Y-116428571D02*
X123100000Y-116428571D01*
X123100000Y-116952380D02*
X123100000Y-115952380D01*
X123576190Y-115952380D01*
X123957142Y-116428571D02*
X124290476Y-116428571D01*
X124433333Y-116952380D02*
X123957142Y-116952380D01*
X123957142Y-115952380D01*
X124433333Y-115952380D01*
X124719047Y-115952380D02*
X125290476Y-115952380D01*
X125004761Y-116952380D02*
X125004761Y-115952380D01*
X125528571Y-115952380D02*
X126147619Y-115952380D01*
X125814285Y-116333333D01*
X125957142Y-116333333D01*
X126052380Y-116380952D01*
X126100000Y-116428571D01*
X126147619Y-116523809D01*
X126147619Y-116761904D01*
X126100000Y-116857142D01*
X126052380Y-116904761D01*
X125957142Y-116952380D01*
X125671428Y-116952380D01*
X125576190Y-116904761D01*
X125528571Y-116857142D01*
G04 #@! TO.C,FET4*
X128533333Y-116428571D02*
X128200000Y-116428571D01*
X128200000Y-116952380D02*
X128200000Y-115952380D01*
X128676190Y-115952380D01*
X129057142Y-116428571D02*
X129390476Y-116428571D01*
X129533333Y-116952380D02*
X129057142Y-116952380D01*
X129057142Y-115952380D01*
X129533333Y-115952380D01*
X129819047Y-115952380D02*
X130390476Y-115952380D01*
X130104761Y-116952380D02*
X130104761Y-115952380D01*
X131152380Y-116285714D02*
X131152380Y-116952380D01*
X130914285Y-115904761D02*
X130676190Y-116619047D01*
X131295238Y-116619047D01*
G04 #@! TO.C,FET5*
X136633333Y-116528571D02*
X136300000Y-116528571D01*
X136300000Y-117052380D02*
X136300000Y-116052380D01*
X136776190Y-116052380D01*
X137157142Y-116528571D02*
X137490476Y-116528571D01*
X137633333Y-117052380D02*
X137157142Y-117052380D01*
X137157142Y-116052380D01*
X137633333Y-116052380D01*
X137919047Y-116052380D02*
X138490476Y-116052380D01*
X138204761Y-117052380D02*
X138204761Y-116052380D01*
X139300000Y-116052380D02*
X138823809Y-116052380D01*
X138776190Y-116528571D01*
X138823809Y-116480952D01*
X138919047Y-116433333D01*
X139157142Y-116433333D01*
X139252380Y-116480952D01*
X139300000Y-116528571D01*
X139347619Y-116623809D01*
X139347619Y-116861904D01*
X139300000Y-116957142D01*
X139252380Y-117004761D01*
X139157142Y-117052380D01*
X138919047Y-117052380D01*
X138823809Y-117004761D01*
X138776190Y-116957142D01*
G04 #@! TO.C,FET6*
X141733333Y-116528571D02*
X141400000Y-116528571D01*
X141400000Y-117052380D02*
X141400000Y-116052380D01*
X141876190Y-116052380D01*
X142257142Y-116528571D02*
X142590476Y-116528571D01*
X142733333Y-117052380D02*
X142257142Y-117052380D01*
X142257142Y-116052380D01*
X142733333Y-116052380D01*
X143019047Y-116052380D02*
X143590476Y-116052380D01*
X143304761Y-117052380D02*
X143304761Y-116052380D01*
X144352380Y-116052380D02*
X144161904Y-116052380D01*
X144066666Y-116100000D01*
X144019047Y-116147619D01*
X143923809Y-116290476D01*
X143876190Y-116480952D01*
X143876190Y-116861904D01*
X143923809Y-116957142D01*
X143971428Y-117004761D01*
X144066666Y-117052380D01*
X144257142Y-117052380D01*
X144352380Y-117004761D01*
X144400000Y-116957142D01*
X144447619Y-116861904D01*
X144447619Y-116623809D01*
X144400000Y-116528571D01*
X144352380Y-116480952D01*
X144257142Y-116433333D01*
X144066666Y-116433333D01*
X143971428Y-116480952D01*
X143923809Y-116528571D01*
X143876190Y-116623809D01*
G04 #@! TO.C,FET7*
X163533333Y-116428571D02*
X163200000Y-116428571D01*
X163200000Y-116952380D02*
X163200000Y-115952380D01*
X163676190Y-115952380D01*
X164057142Y-116428571D02*
X164390476Y-116428571D01*
X164533333Y-116952380D02*
X164057142Y-116952380D01*
X164057142Y-115952380D01*
X164533333Y-115952380D01*
X164819047Y-115952380D02*
X165390476Y-115952380D01*
X165104761Y-116952380D02*
X165104761Y-115952380D01*
X165628571Y-115952380D02*
X166295238Y-115952380D01*
X165866666Y-116952380D01*
G04 #@! TO.C,FET8*
X168533333Y-116528571D02*
X168200000Y-116528571D01*
X168200000Y-117052380D02*
X168200000Y-116052380D01*
X168676190Y-116052380D01*
X169057142Y-116528571D02*
X169390476Y-116528571D01*
X169533333Y-117052380D02*
X169057142Y-117052380D01*
X169057142Y-116052380D01*
X169533333Y-116052380D01*
X169819047Y-116052380D02*
X170390476Y-116052380D01*
X170104761Y-117052380D02*
X170104761Y-116052380D01*
X170866666Y-116480952D02*
X170771428Y-116433333D01*
X170723809Y-116385714D01*
X170676190Y-116290476D01*
X170676190Y-116242857D01*
X170723809Y-116147619D01*
X170771428Y-116100000D01*
X170866666Y-116052380D01*
X171057142Y-116052380D01*
X171152380Y-116100000D01*
X171200000Y-116147619D01*
X171247619Y-116242857D01*
X171247619Y-116290476D01*
X171200000Y-116385714D01*
X171152380Y-116433333D01*
X171057142Y-116480952D01*
X170866666Y-116480952D01*
X170771428Y-116528571D01*
X170723809Y-116576190D01*
X170676190Y-116671428D01*
X170676190Y-116861904D01*
X170723809Y-116957142D01*
X170771428Y-117004761D01*
X170866666Y-117052380D01*
X171057142Y-117052380D01*
X171152380Y-117004761D01*
X171200000Y-116957142D01*
X171247619Y-116861904D01*
X171247619Y-116671428D01*
X171200000Y-116576190D01*
X171152380Y-116528571D01*
X171057142Y-116480952D01*
G04 #@! TO.C,FET9*
X177033333Y-116428571D02*
X176700000Y-116428571D01*
X176700000Y-116952380D02*
X176700000Y-115952380D01*
X177176190Y-115952380D01*
X177557142Y-116428571D02*
X177890476Y-116428571D01*
X178033333Y-116952380D02*
X177557142Y-116952380D01*
X177557142Y-115952380D01*
X178033333Y-115952380D01*
X178319047Y-115952380D02*
X178890476Y-115952380D01*
X178604761Y-116952380D02*
X178604761Y-115952380D01*
X179271428Y-116952380D02*
X179461904Y-116952380D01*
X179557142Y-116904761D01*
X179604761Y-116857142D01*
X179700000Y-116714285D01*
X179747619Y-116523809D01*
X179747619Y-116142857D01*
X179700000Y-116047619D01*
X179652380Y-116000000D01*
X179557142Y-115952380D01*
X179366666Y-115952380D01*
X179271428Y-116000000D01*
X179223809Y-116047619D01*
X179176190Y-116142857D01*
X179176190Y-116380952D01*
X179223809Y-116476190D01*
X179271428Y-116523809D01*
X179366666Y-116571428D01*
X179557142Y-116571428D01*
X179652380Y-116523809D01*
X179700000Y-116476190D01*
X179747619Y-116380952D01*
G04 #@! TO.C,FET10*
X181357142Y-116428571D02*
X181023809Y-116428571D01*
X181023809Y-116952380D02*
X181023809Y-115952380D01*
X181500000Y-115952380D01*
X181880952Y-116428571D02*
X182214285Y-116428571D01*
X182357142Y-116952380D02*
X181880952Y-116952380D01*
X181880952Y-115952380D01*
X182357142Y-115952380D01*
X182642857Y-115952380D02*
X183214285Y-115952380D01*
X182928571Y-116952380D02*
X182928571Y-115952380D01*
X184071428Y-116952380D02*
X183500000Y-116952380D01*
X183785714Y-116952380D02*
X183785714Y-115952380D01*
X183690476Y-116095238D01*
X183595238Y-116190476D01*
X183500000Y-116238095D01*
X184690476Y-115952380D02*
X184785714Y-115952380D01*
X184880952Y-116000000D01*
X184928571Y-116047619D01*
X184976190Y-116142857D01*
X185023809Y-116333333D01*
X185023809Y-116571428D01*
X184976190Y-116761904D01*
X184928571Y-116857142D01*
X184880952Y-116904761D01*
X184785714Y-116952380D01*
X184690476Y-116952380D01*
X184595238Y-116904761D01*
X184547619Y-116857142D01*
X184500000Y-116761904D01*
X184452380Y-116571428D01*
X184452380Y-116333333D01*
X184500000Y-116142857D01*
X184547619Y-116047619D01*
X184595238Y-116000000D01*
X184690476Y-115952380D01*
G04 #@! TO.C,FET11*
X149657142Y-116428571D02*
X149323809Y-116428571D01*
X149323809Y-116952380D02*
X149323809Y-115952380D01*
X149800000Y-115952380D01*
X150180952Y-116428571D02*
X150514285Y-116428571D01*
X150657142Y-116952380D02*
X150180952Y-116952380D01*
X150180952Y-115952380D01*
X150657142Y-115952380D01*
X150942857Y-115952380D02*
X151514285Y-115952380D01*
X151228571Y-116952380D02*
X151228571Y-115952380D01*
X152371428Y-116952380D02*
X151800000Y-116952380D01*
X152085714Y-116952380D02*
X152085714Y-115952380D01*
X151990476Y-116095238D01*
X151895238Y-116190476D01*
X151800000Y-116238095D01*
X153323809Y-116952380D02*
X152752380Y-116952380D01*
X153038095Y-116952380D02*
X153038095Y-115952380D01*
X152942857Y-116095238D01*
X152847619Y-116190476D01*
X152752380Y-116238095D01*
G04 #@! TO.C,FET12*
X154657142Y-116528571D02*
X154323809Y-116528571D01*
X154323809Y-117052380D02*
X154323809Y-116052380D01*
X154800000Y-116052380D01*
X155180952Y-116528571D02*
X155514285Y-116528571D01*
X155657142Y-117052380D02*
X155180952Y-117052380D01*
X155180952Y-116052380D01*
X155657142Y-116052380D01*
X155942857Y-116052380D02*
X156514285Y-116052380D01*
X156228571Y-117052380D02*
X156228571Y-116052380D01*
X157371428Y-117052380D02*
X156800000Y-117052380D01*
X157085714Y-117052380D02*
X157085714Y-116052380D01*
X156990476Y-116195238D01*
X156895238Y-116290476D01*
X156800000Y-116338095D01*
X157752380Y-116147619D02*
X157800000Y-116100000D01*
X157895238Y-116052380D01*
X158133333Y-116052380D01*
X158228571Y-116100000D01*
X158276190Y-116147619D01*
X158323809Y-116242857D01*
X158323809Y-116338095D01*
X158276190Y-116480952D01*
X157704761Y-117052380D01*
X158323809Y-117052380D01*
G04 #@! TO.C,IC1*
X112723809Y-101652380D02*
X112723809Y-100652380D01*
X113771428Y-101557142D02*
X113723809Y-101604761D01*
X113580952Y-101652380D01*
X113485714Y-101652380D01*
X113342857Y-101604761D01*
X113247619Y-101509523D01*
X113200000Y-101414285D01*
X113152380Y-101223809D01*
X113152380Y-101080952D01*
X113200000Y-100890476D01*
X113247619Y-100795238D01*
X113342857Y-100700000D01*
X113485714Y-100652380D01*
X113580952Y-100652380D01*
X113723809Y-100700000D01*
X113771428Y-100747619D01*
X114723809Y-101652380D02*
X114152380Y-101652380D01*
X114438095Y-101652380D02*
X114438095Y-100652380D01*
X114342857Y-100795238D01*
X114247619Y-100890476D01*
X114152380Y-100938095D01*
G04 #@! TO.C,IC2*
X126323809Y-101652380D02*
X126323809Y-100652380D01*
X127371428Y-101557142D02*
X127323809Y-101604761D01*
X127180952Y-101652380D01*
X127085714Y-101652380D01*
X126942857Y-101604761D01*
X126847619Y-101509523D01*
X126800000Y-101414285D01*
X126752380Y-101223809D01*
X126752380Y-101080952D01*
X126800000Y-100890476D01*
X126847619Y-100795238D01*
X126942857Y-100700000D01*
X127085714Y-100652380D01*
X127180952Y-100652380D01*
X127323809Y-100700000D01*
X127371428Y-100747619D01*
X127752380Y-100747619D02*
X127800000Y-100700000D01*
X127895238Y-100652380D01*
X128133333Y-100652380D01*
X128228571Y-100700000D01*
X128276190Y-100747619D01*
X128323809Y-100842857D01*
X128323809Y-100938095D01*
X128276190Y-101080952D01*
X127704761Y-101652380D01*
X128323809Y-101652380D01*
G04 #@! TO.C,IC3*
X139623809Y-101652380D02*
X139623809Y-100652380D01*
X140671428Y-101557142D02*
X140623809Y-101604761D01*
X140480952Y-101652380D01*
X140385714Y-101652380D01*
X140242857Y-101604761D01*
X140147619Y-101509523D01*
X140100000Y-101414285D01*
X140052380Y-101223809D01*
X140052380Y-101080952D01*
X140100000Y-100890476D01*
X140147619Y-100795238D01*
X140242857Y-100700000D01*
X140385714Y-100652380D01*
X140480952Y-100652380D01*
X140623809Y-100700000D01*
X140671428Y-100747619D01*
X141004761Y-100652380D02*
X141623809Y-100652380D01*
X141290476Y-101033333D01*
X141433333Y-101033333D01*
X141528571Y-101080952D01*
X141576190Y-101128571D01*
X141623809Y-101223809D01*
X141623809Y-101461904D01*
X141576190Y-101557142D01*
X141528571Y-101604761D01*
X141433333Y-101652380D01*
X141147619Y-101652380D01*
X141052380Y-101604761D01*
X141004761Y-101557142D01*
G04 #@! TO.C,IC4*
X166123809Y-101652380D02*
X166123809Y-100652380D01*
X167171428Y-101557142D02*
X167123809Y-101604761D01*
X166980952Y-101652380D01*
X166885714Y-101652380D01*
X166742857Y-101604761D01*
X166647619Y-101509523D01*
X166600000Y-101414285D01*
X166552380Y-101223809D01*
X166552380Y-101080952D01*
X166600000Y-100890476D01*
X166647619Y-100795238D01*
X166742857Y-100700000D01*
X166885714Y-100652380D01*
X166980952Y-100652380D01*
X167123809Y-100700000D01*
X167171428Y-100747619D01*
X168028571Y-100985714D02*
X168028571Y-101652380D01*
X167790476Y-100604761D02*
X167552380Y-101319047D01*
X168171428Y-101319047D01*
G04 #@! TO.C,IC5*
X179823809Y-101752380D02*
X179823809Y-100752380D01*
X180871428Y-101657142D02*
X180823809Y-101704761D01*
X180680952Y-101752380D01*
X180585714Y-101752380D01*
X180442857Y-101704761D01*
X180347619Y-101609523D01*
X180300000Y-101514285D01*
X180252380Y-101323809D01*
X180252380Y-101180952D01*
X180300000Y-100990476D01*
X180347619Y-100895238D01*
X180442857Y-100800000D01*
X180585714Y-100752380D01*
X180680952Y-100752380D01*
X180823809Y-100800000D01*
X180871428Y-100847619D01*
X181776190Y-100752380D02*
X181300000Y-100752380D01*
X181252380Y-101228571D01*
X181300000Y-101180952D01*
X181395238Y-101133333D01*
X181633333Y-101133333D01*
X181728571Y-101180952D01*
X181776190Y-101228571D01*
X181823809Y-101323809D01*
X181823809Y-101561904D01*
X181776190Y-101657142D01*
X181728571Y-101704761D01*
X181633333Y-101752380D01*
X181395238Y-101752380D01*
X181300000Y-101704761D01*
X181252380Y-101657142D01*
G04 #@! TO.C,IC6*
X153123809Y-101652380D02*
X153123809Y-100652380D01*
X154171428Y-101557142D02*
X154123809Y-101604761D01*
X153980952Y-101652380D01*
X153885714Y-101652380D01*
X153742857Y-101604761D01*
X153647619Y-101509523D01*
X153600000Y-101414285D01*
X153552380Y-101223809D01*
X153552380Y-101080952D01*
X153600000Y-100890476D01*
X153647619Y-100795238D01*
X153742857Y-100700000D01*
X153885714Y-100652380D01*
X153980952Y-100652380D01*
X154123809Y-100700000D01*
X154171428Y-100747619D01*
X155028571Y-100652380D02*
X154838095Y-100652380D01*
X154742857Y-100700000D01*
X154695238Y-100747619D01*
X154600000Y-100890476D01*
X154552380Y-101080952D01*
X154552380Y-101461904D01*
X154600000Y-101557142D01*
X154647619Y-101604761D01*
X154742857Y-101652380D01*
X154933333Y-101652380D01*
X155028571Y-101604761D01*
X155076190Y-101557142D01*
X155123809Y-101461904D01*
X155123809Y-101223809D01*
X155076190Y-101128571D01*
X155028571Y-101080952D01*
X154933333Y-101033333D01*
X154742857Y-101033333D01*
X154647619Y-101080952D01*
X154600000Y-101128571D01*
X154552380Y-101223809D01*
G04 #@! TO.C,J1*
X190152380Y-107433333D02*
X190866666Y-107433333D01*
X191009523Y-107480952D01*
X191104761Y-107576190D01*
X191152380Y-107719047D01*
X191152380Y-107814285D01*
X191152380Y-106433333D02*
X191152380Y-107004761D01*
X191152380Y-106719047D02*
X190152380Y-106719047D01*
X190295238Y-106814285D01*
X190390476Y-106909523D01*
X190438095Y-107004761D01*
G04 #@! TO.C,R1*
X127233333Y-83427380D02*
X126900000Y-82951190D01*
X126661904Y-83427380D02*
X126661904Y-82427380D01*
X127042857Y-82427380D01*
X127138095Y-82475000D01*
X127185714Y-82522619D01*
X127233333Y-82617857D01*
X127233333Y-82760714D01*
X127185714Y-82855952D01*
X127138095Y-82903571D01*
X127042857Y-82951190D01*
X126661904Y-82951190D01*
X128185714Y-83427380D02*
X127614285Y-83427380D01*
X127900000Y-83427380D02*
X127900000Y-82427380D01*
X127804761Y-82570238D01*
X127709523Y-82665476D01*
X127614285Y-82713095D01*
G04 #@! TO.C,R2*
X141633333Y-81927380D02*
X141300000Y-81451190D01*
X141061904Y-81927380D02*
X141061904Y-80927380D01*
X141442857Y-80927380D01*
X141538095Y-80975000D01*
X141585714Y-81022619D01*
X141633333Y-81117857D01*
X141633333Y-81260714D01*
X141585714Y-81355952D01*
X141538095Y-81403571D01*
X141442857Y-81451190D01*
X141061904Y-81451190D01*
X142014285Y-81022619D02*
X142061904Y-80975000D01*
X142157142Y-80927380D01*
X142395238Y-80927380D01*
X142490476Y-80975000D01*
X142538095Y-81022619D01*
X142585714Y-81117857D01*
X142585714Y-81213095D01*
X142538095Y-81355952D01*
X141966666Y-81927380D01*
X142585714Y-81927380D01*
G04 #@! TO.C,R54*
X139057142Y-63352380D02*
X138723809Y-62876190D01*
X138485714Y-63352380D02*
X138485714Y-62352380D01*
X138866666Y-62352380D01*
X138961904Y-62400000D01*
X139009523Y-62447619D01*
X139057142Y-62542857D01*
X139057142Y-62685714D01*
X139009523Y-62780952D01*
X138961904Y-62828571D01*
X138866666Y-62876190D01*
X138485714Y-62876190D01*
X139961904Y-62352380D02*
X139485714Y-62352380D01*
X139438095Y-62828571D01*
X139485714Y-62780952D01*
X139580952Y-62733333D01*
X139819047Y-62733333D01*
X139914285Y-62780952D01*
X139961904Y-62828571D01*
X140009523Y-62923809D01*
X140009523Y-63161904D01*
X139961904Y-63257142D01*
X139914285Y-63304761D01*
X139819047Y-63352380D01*
X139580952Y-63352380D01*
X139485714Y-63304761D01*
X139438095Y-63257142D01*
X140866666Y-62685714D02*
X140866666Y-63352380D01*
X140628571Y-62304761D02*
X140390476Y-63019047D01*
X141009523Y-63019047D01*
G04 #@! TO.C,R55*
X145557142Y-63552380D02*
X145223809Y-63076190D01*
X144985714Y-63552380D02*
X144985714Y-62552380D01*
X145366666Y-62552380D01*
X145461904Y-62600000D01*
X145509523Y-62647619D01*
X145557142Y-62742857D01*
X145557142Y-62885714D01*
X145509523Y-62980952D01*
X145461904Y-63028571D01*
X145366666Y-63076190D01*
X144985714Y-63076190D01*
X146461904Y-62552380D02*
X145985714Y-62552380D01*
X145938095Y-63028571D01*
X145985714Y-62980952D01*
X146080952Y-62933333D01*
X146319047Y-62933333D01*
X146414285Y-62980952D01*
X146461904Y-63028571D01*
X146509523Y-63123809D01*
X146509523Y-63361904D01*
X146461904Y-63457142D01*
X146414285Y-63504761D01*
X146319047Y-63552380D01*
X146080952Y-63552380D01*
X145985714Y-63504761D01*
X145938095Y-63457142D01*
X147414285Y-62552380D02*
X146938095Y-62552380D01*
X146890476Y-63028571D01*
X146938095Y-62980952D01*
X147033333Y-62933333D01*
X147271428Y-62933333D01*
X147366666Y-62980952D01*
X147414285Y-63028571D01*
X147461904Y-63123809D01*
X147461904Y-63361904D01*
X147414285Y-63457142D01*
X147366666Y-63504761D01*
X147271428Y-63552380D01*
X147033333Y-63552380D01*
X146938095Y-63504761D01*
X146890476Y-63457142D01*
G04 #@! TO.C,R56*
X152057142Y-63452380D02*
X151723809Y-62976190D01*
X151485714Y-63452380D02*
X151485714Y-62452380D01*
X151866666Y-62452380D01*
X151961904Y-62500000D01*
X152009523Y-62547619D01*
X152057142Y-62642857D01*
X152057142Y-62785714D01*
X152009523Y-62880952D01*
X151961904Y-62928571D01*
X151866666Y-62976190D01*
X151485714Y-62976190D01*
X152961904Y-62452380D02*
X152485714Y-62452380D01*
X152438095Y-62928571D01*
X152485714Y-62880952D01*
X152580952Y-62833333D01*
X152819047Y-62833333D01*
X152914285Y-62880952D01*
X152961904Y-62928571D01*
X153009523Y-63023809D01*
X153009523Y-63261904D01*
X152961904Y-63357142D01*
X152914285Y-63404761D01*
X152819047Y-63452380D01*
X152580952Y-63452380D01*
X152485714Y-63404761D01*
X152438095Y-63357142D01*
X153866666Y-62452380D02*
X153676190Y-62452380D01*
X153580952Y-62500000D01*
X153533333Y-62547619D01*
X153438095Y-62690476D01*
X153390476Y-62880952D01*
X153390476Y-63261904D01*
X153438095Y-63357142D01*
X153485714Y-63404761D01*
X153580952Y-63452380D01*
X153771428Y-63452380D01*
X153866666Y-63404761D01*
X153914285Y-63357142D01*
X153961904Y-63261904D01*
X153961904Y-63023809D01*
X153914285Y-62928571D01*
X153866666Y-62880952D01*
X153771428Y-62833333D01*
X153580952Y-62833333D01*
X153485714Y-62880952D01*
X153438095Y-62928571D01*
X153390476Y-63023809D01*
G04 #@! TO.C,R57*
X158557142Y-63452380D02*
X158223809Y-62976190D01*
X157985714Y-63452380D02*
X157985714Y-62452380D01*
X158366666Y-62452380D01*
X158461904Y-62500000D01*
X158509523Y-62547619D01*
X158557142Y-62642857D01*
X158557142Y-62785714D01*
X158509523Y-62880952D01*
X158461904Y-62928571D01*
X158366666Y-62976190D01*
X157985714Y-62976190D01*
X159461904Y-62452380D02*
X158985714Y-62452380D01*
X158938095Y-62928571D01*
X158985714Y-62880952D01*
X159080952Y-62833333D01*
X159319047Y-62833333D01*
X159414285Y-62880952D01*
X159461904Y-62928571D01*
X159509523Y-63023809D01*
X159509523Y-63261904D01*
X159461904Y-63357142D01*
X159414285Y-63404761D01*
X159319047Y-63452380D01*
X159080952Y-63452380D01*
X158985714Y-63404761D01*
X158938095Y-63357142D01*
X159842857Y-62452380D02*
X160509523Y-62452380D01*
X160080952Y-63452380D01*
G04 #@! TO.C,R58*
X165057142Y-63452380D02*
X164723809Y-62976190D01*
X164485714Y-63452380D02*
X164485714Y-62452380D01*
X164866666Y-62452380D01*
X164961904Y-62500000D01*
X165009523Y-62547619D01*
X165057142Y-62642857D01*
X165057142Y-62785714D01*
X165009523Y-62880952D01*
X164961904Y-62928571D01*
X164866666Y-62976190D01*
X164485714Y-62976190D01*
X165961904Y-62452380D02*
X165485714Y-62452380D01*
X165438095Y-62928571D01*
X165485714Y-62880952D01*
X165580952Y-62833333D01*
X165819047Y-62833333D01*
X165914285Y-62880952D01*
X165961904Y-62928571D01*
X166009523Y-63023809D01*
X166009523Y-63261904D01*
X165961904Y-63357142D01*
X165914285Y-63404761D01*
X165819047Y-63452380D01*
X165580952Y-63452380D01*
X165485714Y-63404761D01*
X165438095Y-63357142D01*
X166580952Y-62880952D02*
X166485714Y-62833333D01*
X166438095Y-62785714D01*
X166390476Y-62690476D01*
X166390476Y-62642857D01*
X166438095Y-62547619D01*
X166485714Y-62500000D01*
X166580952Y-62452380D01*
X166771428Y-62452380D01*
X166866666Y-62500000D01*
X166914285Y-62547619D01*
X166961904Y-62642857D01*
X166961904Y-62690476D01*
X166914285Y-62785714D01*
X166866666Y-62833333D01*
X166771428Y-62880952D01*
X166580952Y-62880952D01*
X166485714Y-62928571D01*
X166438095Y-62976190D01*
X166390476Y-63071428D01*
X166390476Y-63261904D01*
X166438095Y-63357142D01*
X166485714Y-63404761D01*
X166580952Y-63452380D01*
X166771428Y-63452380D01*
X166866666Y-63404761D01*
X166914285Y-63357142D01*
X166961904Y-63261904D01*
X166961904Y-63071428D01*
X166914285Y-62976190D01*
X166866666Y-62928571D01*
X166771428Y-62880952D01*
G04 #@! TO.C,R59*
X171557142Y-63452380D02*
X171223809Y-62976190D01*
X170985714Y-63452380D02*
X170985714Y-62452380D01*
X171366666Y-62452380D01*
X171461904Y-62500000D01*
X171509523Y-62547619D01*
X171557142Y-62642857D01*
X171557142Y-62785714D01*
X171509523Y-62880952D01*
X171461904Y-62928571D01*
X171366666Y-62976190D01*
X170985714Y-62976190D01*
X172461904Y-62452380D02*
X171985714Y-62452380D01*
X171938095Y-62928571D01*
X171985714Y-62880952D01*
X172080952Y-62833333D01*
X172319047Y-62833333D01*
X172414285Y-62880952D01*
X172461904Y-62928571D01*
X172509523Y-63023809D01*
X172509523Y-63261904D01*
X172461904Y-63357142D01*
X172414285Y-63404761D01*
X172319047Y-63452380D01*
X172080952Y-63452380D01*
X171985714Y-63404761D01*
X171938095Y-63357142D01*
X172985714Y-63452380D02*
X173176190Y-63452380D01*
X173271428Y-63404761D01*
X173319047Y-63357142D01*
X173414285Y-63214285D01*
X173461904Y-63023809D01*
X173461904Y-62642857D01*
X173414285Y-62547619D01*
X173366666Y-62500000D01*
X173271428Y-62452380D01*
X173080952Y-62452380D01*
X172985714Y-62500000D01*
X172938095Y-62547619D01*
X172890476Y-62642857D01*
X172890476Y-62880952D01*
X172938095Y-62976190D01*
X172985714Y-63023809D01*
X173080952Y-63071428D01*
X173271428Y-63071428D01*
X173366666Y-63023809D01*
X173414285Y-62976190D01*
X173461904Y-62880952D01*
G04 #@! TO.C,SW1*
X179466666Y-77354761D02*
X179609523Y-77402380D01*
X179847619Y-77402380D01*
X179942857Y-77354761D01*
X179990476Y-77307142D01*
X180038095Y-77211904D01*
X180038095Y-77116666D01*
X179990476Y-77021428D01*
X179942857Y-76973809D01*
X179847619Y-76926190D01*
X179657142Y-76878571D01*
X179561904Y-76830952D01*
X179514285Y-76783333D01*
X179466666Y-76688095D01*
X179466666Y-76592857D01*
X179514285Y-76497619D01*
X179561904Y-76450000D01*
X179657142Y-76402380D01*
X179895238Y-76402380D01*
X180038095Y-76450000D01*
X180371428Y-76402380D02*
X180609523Y-77402380D01*
X180800000Y-76688095D01*
X180990476Y-77402380D01*
X181228571Y-76402380D01*
X182133333Y-77402380D02*
X181561904Y-77402380D01*
X181847619Y-77402380D02*
X181847619Y-76402380D01*
X181752380Y-76545238D01*
X181657142Y-76640476D01*
X181561904Y-76688095D01*
G04 #@! TO.C,RV1*
X139304761Y-67252380D02*
X138971428Y-66776190D01*
X138733333Y-67252380D02*
X138733333Y-66252380D01*
X139114285Y-66252380D01*
X139209523Y-66300000D01*
X139257142Y-66347619D01*
X139304761Y-66442857D01*
X139304761Y-66585714D01*
X139257142Y-66680952D01*
X139209523Y-66728571D01*
X139114285Y-66776190D01*
X138733333Y-66776190D01*
X139590476Y-66252380D02*
X139923809Y-67252380D01*
X140257142Y-66252380D01*
X141114285Y-67252380D02*
X140542857Y-67252380D01*
X140828571Y-67252380D02*
X140828571Y-66252380D01*
X140733333Y-66395238D01*
X140638095Y-66490476D01*
X140542857Y-66538095D01*
G04 #@! TO.C,RV2*
X145804761Y-67252380D02*
X145471428Y-66776190D01*
X145233333Y-67252380D02*
X145233333Y-66252380D01*
X145614285Y-66252380D01*
X145709523Y-66300000D01*
X145757142Y-66347619D01*
X145804761Y-66442857D01*
X145804761Y-66585714D01*
X145757142Y-66680952D01*
X145709523Y-66728571D01*
X145614285Y-66776190D01*
X145233333Y-66776190D01*
X146090476Y-66252380D02*
X146423809Y-67252380D01*
X146757142Y-66252380D01*
X147042857Y-66347619D02*
X147090476Y-66300000D01*
X147185714Y-66252380D01*
X147423809Y-66252380D01*
X147519047Y-66300000D01*
X147566666Y-66347619D01*
X147614285Y-66442857D01*
X147614285Y-66538095D01*
X147566666Y-66680952D01*
X146995238Y-67252380D01*
X147614285Y-67252380D01*
G04 #@! TO.C,RV3*
X152304761Y-67252380D02*
X151971428Y-66776190D01*
X151733333Y-67252380D02*
X151733333Y-66252380D01*
X152114285Y-66252380D01*
X152209523Y-66300000D01*
X152257142Y-66347619D01*
X152304761Y-66442857D01*
X152304761Y-66585714D01*
X152257142Y-66680952D01*
X152209523Y-66728571D01*
X152114285Y-66776190D01*
X151733333Y-66776190D01*
X152590476Y-66252380D02*
X152923809Y-67252380D01*
X153257142Y-66252380D01*
X153495238Y-66252380D02*
X154114285Y-66252380D01*
X153780952Y-66633333D01*
X153923809Y-66633333D01*
X154019047Y-66680952D01*
X154066666Y-66728571D01*
X154114285Y-66823809D01*
X154114285Y-67061904D01*
X154066666Y-67157142D01*
X154019047Y-67204761D01*
X153923809Y-67252380D01*
X153638095Y-67252380D01*
X153542857Y-67204761D01*
X153495238Y-67157142D01*
G04 #@! TO.C,RV4*
X158804761Y-67252380D02*
X158471428Y-66776190D01*
X158233333Y-67252380D02*
X158233333Y-66252380D01*
X158614285Y-66252380D01*
X158709523Y-66300000D01*
X158757142Y-66347619D01*
X158804761Y-66442857D01*
X158804761Y-66585714D01*
X158757142Y-66680952D01*
X158709523Y-66728571D01*
X158614285Y-66776190D01*
X158233333Y-66776190D01*
X159090476Y-66252380D02*
X159423809Y-67252380D01*
X159757142Y-66252380D01*
X160519047Y-66585714D02*
X160519047Y-67252380D01*
X160280952Y-66204761D02*
X160042857Y-66919047D01*
X160661904Y-66919047D01*
G04 #@! TO.C,RV5*
X165304761Y-67252380D02*
X164971428Y-66776190D01*
X164733333Y-67252380D02*
X164733333Y-66252380D01*
X165114285Y-66252380D01*
X165209523Y-66300000D01*
X165257142Y-66347619D01*
X165304761Y-66442857D01*
X165304761Y-66585714D01*
X165257142Y-66680952D01*
X165209523Y-66728571D01*
X165114285Y-66776190D01*
X164733333Y-66776190D01*
X165590476Y-66252380D02*
X165923809Y-67252380D01*
X166257142Y-66252380D01*
X167066666Y-66252380D02*
X166590476Y-66252380D01*
X166542857Y-66728571D01*
X166590476Y-66680952D01*
X166685714Y-66633333D01*
X166923809Y-66633333D01*
X167019047Y-66680952D01*
X167066666Y-66728571D01*
X167114285Y-66823809D01*
X167114285Y-67061904D01*
X167066666Y-67157142D01*
X167019047Y-67204761D01*
X166923809Y-67252380D01*
X166685714Y-67252380D01*
X166590476Y-67204761D01*
X166542857Y-67157142D01*
G04 #@! TO.C,RV6*
X171904761Y-67452380D02*
X171571428Y-66976190D01*
X171333333Y-67452380D02*
X171333333Y-66452380D01*
X171714285Y-66452380D01*
X171809523Y-66500000D01*
X171857142Y-66547619D01*
X171904761Y-66642857D01*
X171904761Y-66785714D01*
X171857142Y-66880952D01*
X171809523Y-66928571D01*
X171714285Y-66976190D01*
X171333333Y-66976190D01*
X172190476Y-66452380D02*
X172523809Y-67452380D01*
X172857142Y-66452380D01*
X173619047Y-66452380D02*
X173428571Y-66452380D01*
X173333333Y-66500000D01*
X173285714Y-66547619D01*
X173190476Y-66690476D01*
X173142857Y-66880952D01*
X173142857Y-67261904D01*
X173190476Y-67357142D01*
X173238095Y-67404761D01*
X173333333Y-67452380D01*
X173523809Y-67452380D01*
X173619047Y-67404761D01*
X173666666Y-67357142D01*
X173714285Y-67261904D01*
X173714285Y-67023809D01*
X173666666Y-66928571D01*
X173619047Y-66880952D01*
X173523809Y-66833333D01*
X173333333Y-66833333D01*
X173238095Y-66880952D01*
X173190476Y-66928571D01*
X173142857Y-67023809D01*
G04 #@! TO.C,P4*
X113261904Y-139352380D02*
X113261904Y-138352380D01*
X113642857Y-138352380D01*
X113738095Y-138400000D01*
X113785714Y-138447619D01*
X113833333Y-138542857D01*
X113833333Y-138685714D01*
X113785714Y-138780952D01*
X113738095Y-138828571D01*
X113642857Y-138876190D01*
X113261904Y-138876190D01*
X114690476Y-138685714D02*
X114690476Y-139352380D01*
X114452380Y-138304761D02*
X114214285Y-139019047D01*
X114833333Y-139019047D01*
G04 #@! TO.C,P5*
X126561904Y-139352380D02*
X126561904Y-138352380D01*
X126942857Y-138352380D01*
X127038095Y-138400000D01*
X127085714Y-138447619D01*
X127133333Y-138542857D01*
X127133333Y-138685714D01*
X127085714Y-138780952D01*
X127038095Y-138828571D01*
X126942857Y-138876190D01*
X126561904Y-138876190D01*
X128038095Y-138352380D02*
X127561904Y-138352380D01*
X127514285Y-138828571D01*
X127561904Y-138780952D01*
X127657142Y-138733333D01*
X127895238Y-138733333D01*
X127990476Y-138780952D01*
X128038095Y-138828571D01*
X128085714Y-138923809D01*
X128085714Y-139161904D01*
X128038095Y-139257142D01*
X127990476Y-139304761D01*
X127895238Y-139352380D01*
X127657142Y-139352380D01*
X127561904Y-139304761D01*
X127514285Y-139257142D01*
G04 #@! TO.C,P6*
X139761904Y-139352380D02*
X139761904Y-138352380D01*
X140142857Y-138352380D01*
X140238095Y-138400000D01*
X140285714Y-138447619D01*
X140333333Y-138542857D01*
X140333333Y-138685714D01*
X140285714Y-138780952D01*
X140238095Y-138828571D01*
X140142857Y-138876190D01*
X139761904Y-138876190D01*
X141190476Y-138352380D02*
X141000000Y-138352380D01*
X140904761Y-138400000D01*
X140857142Y-138447619D01*
X140761904Y-138590476D01*
X140714285Y-138780952D01*
X140714285Y-139161904D01*
X140761904Y-139257142D01*
X140809523Y-139304761D01*
X140904761Y-139352380D01*
X141095238Y-139352380D01*
X141190476Y-139304761D01*
X141238095Y-139257142D01*
X141285714Y-139161904D01*
X141285714Y-138923809D01*
X141238095Y-138828571D01*
X141190476Y-138780952D01*
X141095238Y-138733333D01*
X140904761Y-138733333D01*
X140809523Y-138780952D01*
X140761904Y-138828571D01*
X140714285Y-138923809D01*
G04 #@! TO.C,P7*
X166561904Y-139352380D02*
X166561904Y-138352380D01*
X166942857Y-138352380D01*
X167038095Y-138400000D01*
X167085714Y-138447619D01*
X167133333Y-138542857D01*
X167133333Y-138685714D01*
X167085714Y-138780952D01*
X167038095Y-138828571D01*
X166942857Y-138876190D01*
X166561904Y-138876190D01*
X167466666Y-138352380D02*
X168133333Y-138352380D01*
X167704761Y-139352380D01*
G04 #@! TO.C,P8*
X179961904Y-139352380D02*
X179961904Y-138352380D01*
X180342857Y-138352380D01*
X180438095Y-138400000D01*
X180485714Y-138447619D01*
X180533333Y-138542857D01*
X180533333Y-138685714D01*
X180485714Y-138780952D01*
X180438095Y-138828571D01*
X180342857Y-138876190D01*
X179961904Y-138876190D01*
X181104761Y-138780952D02*
X181009523Y-138733333D01*
X180961904Y-138685714D01*
X180914285Y-138590476D01*
X180914285Y-138542857D01*
X180961904Y-138447619D01*
X181009523Y-138400000D01*
X181104761Y-138352380D01*
X181295238Y-138352380D01*
X181390476Y-138400000D01*
X181438095Y-138447619D01*
X181485714Y-138542857D01*
X181485714Y-138590476D01*
X181438095Y-138685714D01*
X181390476Y-138733333D01*
X181295238Y-138780952D01*
X181104761Y-138780952D01*
X181009523Y-138828571D01*
X180961904Y-138876190D01*
X180914285Y-138971428D01*
X180914285Y-139161904D01*
X180961904Y-139257142D01*
X181009523Y-139304761D01*
X181104761Y-139352380D01*
X181295238Y-139352380D01*
X181390476Y-139304761D01*
X181438095Y-139257142D01*
X181485714Y-139161904D01*
X181485714Y-138971428D01*
X181438095Y-138876190D01*
X181390476Y-138828571D01*
X181295238Y-138780952D01*
G04 #@! TO.C,P9*
X153161904Y-139352380D02*
X153161904Y-138352380D01*
X153542857Y-138352380D01*
X153638095Y-138400000D01*
X153685714Y-138447619D01*
X153733333Y-138542857D01*
X153733333Y-138685714D01*
X153685714Y-138780952D01*
X153638095Y-138828571D01*
X153542857Y-138876190D01*
X153161904Y-138876190D01*
X154209523Y-139352380D02*
X154400000Y-139352380D01*
X154495238Y-139304761D01*
X154542857Y-139257142D01*
X154638095Y-139114285D01*
X154685714Y-138923809D01*
X154685714Y-138542857D01*
X154638095Y-138447619D01*
X154590476Y-138400000D01*
X154495238Y-138352380D01*
X154304761Y-138352380D01*
X154209523Y-138400000D01*
X154161904Y-138447619D01*
X154114285Y-138542857D01*
X154114285Y-138780952D01*
X154161904Y-138876190D01*
X154209523Y-138923809D01*
X154304761Y-138971428D01*
X154495238Y-138971428D01*
X154590476Y-138923809D01*
X154638095Y-138876190D01*
X154685714Y-138780952D01*
G04 #@! TO.C,J2*
X202777380Y-133633333D02*
X203491666Y-133633333D01*
X203634523Y-133680952D01*
X203729761Y-133776190D01*
X203777380Y-133919047D01*
X203777380Y-134014285D01*
X202872619Y-133204761D02*
X202825000Y-133157142D01*
X202777380Y-133061904D01*
X202777380Y-132823809D01*
X202825000Y-132728571D01*
X202872619Y-132680952D01*
X202967857Y-132633333D01*
X203063095Y-132633333D01*
X203205952Y-132680952D01*
X203777380Y-133252380D01*
X203777380Y-132633333D01*
G04 #@! TO.C,J3*
X164066666Y-50252380D02*
X164066666Y-50966666D01*
X164019047Y-51109523D01*
X163923809Y-51204761D01*
X163780952Y-51252380D01*
X163685714Y-51252380D01*
X164447619Y-50252380D02*
X165066666Y-50252380D01*
X164733333Y-50633333D01*
X164876190Y-50633333D01*
X164971428Y-50680952D01*
X165019047Y-50728571D01*
X165066666Y-50823809D01*
X165066666Y-51061904D01*
X165019047Y-51157142D01*
X164971428Y-51204761D01*
X164876190Y-51252380D01*
X164590476Y-51252380D01*
X164495238Y-51204761D01*
X164447619Y-51157142D01*
G04 #@! TO.C,C27*
X161757142Y-95757142D02*
X161709523Y-95804761D01*
X161566666Y-95852380D01*
X161471428Y-95852380D01*
X161328571Y-95804761D01*
X161233333Y-95709523D01*
X161185714Y-95614285D01*
X161138095Y-95423809D01*
X161138095Y-95280952D01*
X161185714Y-95090476D01*
X161233333Y-94995238D01*
X161328571Y-94900000D01*
X161471428Y-94852380D01*
X161566666Y-94852380D01*
X161709523Y-94900000D01*
X161757142Y-94947619D01*
X162138095Y-94947619D02*
X162185714Y-94900000D01*
X162280952Y-94852380D01*
X162519047Y-94852380D01*
X162614285Y-94900000D01*
X162661904Y-94947619D01*
X162709523Y-95042857D01*
X162709523Y-95138095D01*
X162661904Y-95280952D01*
X162090476Y-95852380D01*
X162709523Y-95852380D01*
X163042857Y-94852380D02*
X163709523Y-94852380D01*
X163280952Y-95852380D01*
G04 #@! TO.C,R67*
X155657142Y-78152380D02*
X155323809Y-77676190D01*
X155085714Y-78152380D02*
X155085714Y-77152380D01*
X155466666Y-77152380D01*
X155561904Y-77200000D01*
X155609523Y-77247619D01*
X155657142Y-77342857D01*
X155657142Y-77485714D01*
X155609523Y-77580952D01*
X155561904Y-77628571D01*
X155466666Y-77676190D01*
X155085714Y-77676190D01*
X156514285Y-77152380D02*
X156323809Y-77152380D01*
X156228571Y-77200000D01*
X156180952Y-77247619D01*
X156085714Y-77390476D01*
X156038095Y-77580952D01*
X156038095Y-77961904D01*
X156085714Y-78057142D01*
X156133333Y-78104761D01*
X156228571Y-78152380D01*
X156419047Y-78152380D01*
X156514285Y-78104761D01*
X156561904Y-78057142D01*
X156609523Y-77961904D01*
X156609523Y-77723809D01*
X156561904Y-77628571D01*
X156514285Y-77580952D01*
X156419047Y-77533333D01*
X156228571Y-77533333D01*
X156133333Y-77580952D01*
X156085714Y-77628571D01*
X156038095Y-77723809D01*
X156942857Y-77152380D02*
X157609523Y-77152380D01*
X157180952Y-78152380D01*
G04 #@! TO.C,C1*
X116033333Y-98157142D02*
X115985714Y-98204761D01*
X115842857Y-98252380D01*
X115747619Y-98252380D01*
X115604761Y-98204761D01*
X115509523Y-98109523D01*
X115461904Y-98014285D01*
X115414285Y-97823809D01*
X115414285Y-97680952D01*
X115461904Y-97490476D01*
X115509523Y-97395238D01*
X115604761Y-97300000D01*
X115747619Y-97252380D01*
X115842857Y-97252380D01*
X115985714Y-97300000D01*
X116033333Y-97347619D01*
X116985714Y-98252380D02*
X116414285Y-98252380D01*
X116700000Y-98252380D02*
X116700000Y-97252380D01*
X116604761Y-97395238D01*
X116509523Y-97490476D01*
X116414285Y-97538095D01*
X112271428Y-86400952D02*
X112271428Y-85639047D01*
X112652380Y-86020000D02*
X111890476Y-86020000D01*
G04 #@! TO.C,C4*
X124833333Y-98157142D02*
X124785714Y-98204761D01*
X124642857Y-98252380D01*
X124547619Y-98252380D01*
X124404761Y-98204761D01*
X124309523Y-98109523D01*
X124261904Y-98014285D01*
X124214285Y-97823809D01*
X124214285Y-97680952D01*
X124261904Y-97490476D01*
X124309523Y-97395238D01*
X124404761Y-97300000D01*
X124547619Y-97252380D01*
X124642857Y-97252380D01*
X124785714Y-97300000D01*
X124833333Y-97347619D01*
X125690476Y-97585714D02*
X125690476Y-98252380D01*
X125452380Y-97204761D02*
X125214285Y-97919047D01*
X125833333Y-97919047D01*
X121071428Y-86400952D02*
X121071428Y-85639047D01*
X121452380Y-86020000D02*
X120690476Y-86020000D01*
G04 #@! TO.C,C5*
X133533333Y-98357142D02*
X133485714Y-98404761D01*
X133342857Y-98452380D01*
X133247619Y-98452380D01*
X133104761Y-98404761D01*
X133009523Y-98309523D01*
X132961904Y-98214285D01*
X132914285Y-98023809D01*
X132914285Y-97880952D01*
X132961904Y-97690476D01*
X133009523Y-97595238D01*
X133104761Y-97500000D01*
X133247619Y-97452380D01*
X133342857Y-97452380D01*
X133485714Y-97500000D01*
X133533333Y-97547619D01*
X134438095Y-97452380D02*
X133961904Y-97452380D01*
X133914285Y-97928571D01*
X133961904Y-97880952D01*
X134057142Y-97833333D01*
X134295238Y-97833333D01*
X134390476Y-97880952D01*
X134438095Y-97928571D01*
X134485714Y-98023809D01*
X134485714Y-98261904D01*
X134438095Y-98357142D01*
X134390476Y-98404761D01*
X134295238Y-98452380D01*
X134057142Y-98452380D01*
X133961904Y-98404761D01*
X133914285Y-98357142D01*
X129871428Y-86400952D02*
X129871428Y-85639047D01*
X130252380Y-86020000D02*
X129490476Y-86020000D01*
G04 #@! TO.C,C8*
X142333333Y-98257142D02*
X142285714Y-98304761D01*
X142142857Y-98352380D01*
X142047619Y-98352380D01*
X141904761Y-98304761D01*
X141809523Y-98209523D01*
X141761904Y-98114285D01*
X141714285Y-97923809D01*
X141714285Y-97780952D01*
X141761904Y-97590476D01*
X141809523Y-97495238D01*
X141904761Y-97400000D01*
X142047619Y-97352380D01*
X142142857Y-97352380D01*
X142285714Y-97400000D01*
X142333333Y-97447619D01*
X142904761Y-97780952D02*
X142809523Y-97733333D01*
X142761904Y-97685714D01*
X142714285Y-97590476D01*
X142714285Y-97542857D01*
X142761904Y-97447619D01*
X142809523Y-97400000D01*
X142904761Y-97352380D01*
X143095238Y-97352380D01*
X143190476Y-97400000D01*
X143238095Y-97447619D01*
X143285714Y-97542857D01*
X143285714Y-97590476D01*
X143238095Y-97685714D01*
X143190476Y-97733333D01*
X143095238Y-97780952D01*
X142904761Y-97780952D01*
X142809523Y-97828571D01*
X142761904Y-97876190D01*
X142714285Y-97971428D01*
X142714285Y-98161904D01*
X142761904Y-98257142D01*
X142809523Y-98304761D01*
X142904761Y-98352380D01*
X143095238Y-98352380D01*
X143190476Y-98304761D01*
X143238095Y-98257142D01*
X143285714Y-98161904D01*
X143285714Y-97971428D01*
X143238095Y-97876190D01*
X143190476Y-97828571D01*
X143095238Y-97780952D01*
X138671428Y-86450952D02*
X138671428Y-85689047D01*
X139052380Y-86070000D02*
X138290476Y-86070000D01*
G04 #@! TO.C,C26*
X145932142Y-76032142D02*
X145884523Y-76079761D01*
X145741666Y-76127380D01*
X145646428Y-76127380D01*
X145503571Y-76079761D01*
X145408333Y-75984523D01*
X145360714Y-75889285D01*
X145313095Y-75698809D01*
X145313095Y-75555952D01*
X145360714Y-75365476D01*
X145408333Y-75270238D01*
X145503571Y-75175000D01*
X145646428Y-75127380D01*
X145741666Y-75127380D01*
X145884523Y-75175000D01*
X145932142Y-75222619D01*
X146313095Y-75222619D02*
X146360714Y-75175000D01*
X146455952Y-75127380D01*
X146694047Y-75127380D01*
X146789285Y-75175000D01*
X146836904Y-75222619D01*
X146884523Y-75317857D01*
X146884523Y-75413095D01*
X146836904Y-75555952D01*
X146265476Y-76127380D01*
X146884523Y-76127380D01*
X147741666Y-75127380D02*
X147551190Y-75127380D01*
X147455952Y-75175000D01*
X147408333Y-75222619D01*
X147313095Y-75365476D01*
X147265476Y-75555952D01*
X147265476Y-75936904D01*
X147313095Y-76032142D01*
X147360714Y-76079761D01*
X147455952Y-76127380D01*
X147646428Y-76127380D01*
X147741666Y-76079761D01*
X147789285Y-76032142D01*
X147836904Y-75936904D01*
X147836904Y-75698809D01*
X147789285Y-75603571D01*
X147741666Y-75555952D01*
X147646428Y-75508333D01*
X147455952Y-75508333D01*
X147360714Y-75555952D01*
X147313095Y-75603571D01*
X147265476Y-75698809D01*
G04 #@! TO.C,Y1*
X149023809Y-75676190D02*
X149023809Y-76152380D01*
X148690476Y-75152380D02*
X149023809Y-75676190D01*
X149357142Y-75152380D01*
X150214285Y-76152380D02*
X149642857Y-76152380D01*
X149928571Y-76152380D02*
X149928571Y-75152380D01*
X149833333Y-75295238D01*
X149738095Y-75390476D01*
X149642857Y-75438095D01*
G04 #@! TO.C,C29*
X190807142Y-126682142D02*
X190759523Y-126729761D01*
X190616666Y-126777380D01*
X190521428Y-126777380D01*
X190378571Y-126729761D01*
X190283333Y-126634523D01*
X190235714Y-126539285D01*
X190188095Y-126348809D01*
X190188095Y-126205952D01*
X190235714Y-126015476D01*
X190283333Y-125920238D01*
X190378571Y-125825000D01*
X190521428Y-125777380D01*
X190616666Y-125777380D01*
X190759523Y-125825000D01*
X190807142Y-125872619D01*
X191188095Y-125872619D02*
X191235714Y-125825000D01*
X191330952Y-125777380D01*
X191569047Y-125777380D01*
X191664285Y-125825000D01*
X191711904Y-125872619D01*
X191759523Y-125967857D01*
X191759523Y-126063095D01*
X191711904Y-126205952D01*
X191140476Y-126777380D01*
X191759523Y-126777380D01*
X192235714Y-126777380D02*
X192426190Y-126777380D01*
X192521428Y-126729761D01*
X192569047Y-126682142D01*
X192664285Y-126539285D01*
X192711904Y-126348809D01*
X192711904Y-125967857D01*
X192664285Y-125872619D01*
X192616666Y-125825000D01*
X192521428Y-125777380D01*
X192330952Y-125777380D01*
X192235714Y-125825000D01*
X192188095Y-125872619D01*
X192140476Y-125967857D01*
X192140476Y-126205952D01*
X192188095Y-126301190D01*
X192235714Y-126348809D01*
X192330952Y-126396428D01*
X192521428Y-126396428D01*
X192616666Y-126348809D01*
X192664285Y-126301190D01*
X192711904Y-126205952D01*
X187671428Y-129125952D02*
X187671428Y-128364047D01*
X188052380Y-128745000D02*
X187290476Y-128745000D01*
G04 #@! TD*
M02*
