M48
;DRILL file {KiCad (5.0.0)} date 08/27/18 16:22:10
;FORMAT={3:3/ absolute / metric / suppress leading zeros}
FMAT,2
METRIC,TZ
T1C0.400
T2C0.600
T3C0.800
T4C0.850
T5C0.910
T6C1.100
T7C1.500
T8C2.000
T9C3.200
%
G90
G05
M71
T1
X109400Y-110200
X109400Y-116600
X109400Y-119800
X110700Y-104600
X110700Y-113500
X110700Y-119800
X111900Y-119800
X111900Y-125400
X113200Y-101400
X113200Y-113500
X113300Y-116600
X113500Y-91050
X113500Y-120700
X114000Y-108300
X114000Y-110100
X114500Y-113500
X114500Y-116600
X114500Y-119800
X115700Y-119800
X115760Y-125400
X115775Y-101450
X115900Y-104600
X117000Y-119800
X118400Y-120700
X120100Y-86800
X120800Y-108000
X120800Y-115300
X120900Y-101300
X121900Y-86800
X122700Y-110200
X122700Y-116600
X122700Y-119800
X124000Y-104600
X124000Y-113500
X124000Y-119800
X125190Y-125400
X125200Y-119800
X126500Y-101400
X126500Y-113500
X126600Y-116600
X126800Y-120700
X127300Y-90700
X127300Y-108300
X127300Y-110100
X127800Y-113500
X127800Y-116600
X127800Y-119800
X129000Y-119800
X129050Y-101425
X129050Y-125400
X129200Y-104600
X130300Y-119800
X130700Y-90700
X131700Y-120700
X133400Y-84500
X134000Y-107800
X134000Y-115100
X134200Y-101300
X135900Y-110200
X135900Y-116600
X135900Y-119800
X137150Y-86809
X137200Y-104600
X137200Y-113500
X137200Y-119800
X138390Y-125400
X138400Y-119800
X138850Y-86809
X139700Y-101400
X139700Y-113500
X139800Y-116600
X139900Y-50900
X140000Y-120700
X140500Y-108300
X140500Y-110100
X141000Y-113500
X141000Y-116600
X141000Y-119800
X142200Y-119800
X142250Y-101400
X142250Y-125400
X142400Y-104600
X143500Y-119800
X143900Y-54200
X144900Y-120700
X144914Y-54189
X145000Y-93900
X145275Y-85475
X145425Y-90109
X145914Y-54189
X146150Y-87400
X146200Y-86100
X146500Y-83500
X146500Y-81025
X146500Y-82225
X146914Y-54200
X146975Y-85000
X147100Y-102600
X147200Y-107600
X147200Y-115625
X147600Y-90100
X147650Y-88625
X147914Y-54187
X148900Y-51800
X148914Y-54189
X149300Y-110200
X149300Y-116600
X149300Y-119800
X150400Y-88000
X150600Y-90800
X150600Y-104600
X150600Y-113500
X150600Y-119800
X151450Y-89350
X151790Y-125400
X151800Y-119800
X152100Y-90500
X152775Y-81500
X153100Y-101400
X153100Y-113500
X153200Y-116600
X153400Y-120700
X153900Y-108300
X153900Y-110100
X154275Y-85296
X154400Y-89475
X154400Y-113500
X154400Y-116600
X154400Y-119800
X154800Y-82900
X154825Y-94575
X155600Y-78300
X155600Y-119800
X155650Y-125400
X155675Y-101400
X155800Y-104600
X155900Y-94600
X155900Y-88725
X156325Y-84356
X156325Y-85724
X156598Y-81890
X156769Y-82875
X156900Y-94600
X156900Y-119800
X157464Y-87764
X157924Y-78717
X158100Y-94600
X158220Y-81975
X158300Y-120700
X159000Y-86700
X159154Y-90550
X159179Y-89500
X159200Y-75900
X159800Y-85500
X159800Y-93000
X160300Y-76200
X160600Y-107600
X160625Y-115900
X160700Y-86700
X160800Y-101000
X161200Y-82700
X161497Y-95625
X161800Y-85900
X162006Y-90659
X162550Y-95650
X162700Y-110200
X162700Y-116600
X162700Y-119800
X162899Y-85475
X162900Y-83475
X162911Y-84475
X163236Y-88950
X163300Y-91900
X163490Y-95150
X164000Y-104600
X164000Y-113500
X164000Y-119800
X164500Y-81075
X164800Y-93725
X165190Y-125400
X165190Y-125400
X165200Y-119800
X166300Y-83600
X166300Y-84700
X166300Y-85900
X166500Y-101400
X166500Y-113500
X166600Y-116600
X166800Y-120700
X167300Y-81800
X167300Y-87800
X167300Y-108300
X167300Y-110100
X167800Y-80400
X167800Y-113500
X167800Y-116600
X167800Y-119800
X168300Y-87800
X169000Y-119800
X169050Y-125400
X169050Y-125400
X169125Y-101425
X169200Y-104600
X170300Y-119800
X171700Y-120700
X172100Y-76625
X172800Y-87300
X173300Y-76625
X174000Y-108900
X174000Y-115700
X174100Y-101100
X174500Y-87700
X176100Y-110200
X176100Y-116600
X176100Y-119800
X176400Y-70900
X176700Y-89925
X176700Y-88000
X177075Y-81300
X177400Y-104600
X177400Y-113500
X177400Y-119800
X177793Y-79625
X178600Y-84325
X178600Y-119800
X178640Y-125400
X179700Y-84325
X179900Y-101400
X179900Y-113500
X180000Y-116600
X180200Y-120700
X180300Y-88000
X180400Y-83600
X180700Y-108300
X180700Y-110100
X181000Y-82700
X181200Y-113500
X181200Y-116600
X181200Y-119800
X182400Y-119800
X182500Y-101325
X182500Y-125400
X182500Y-73500
X182600Y-104600
X183437Y-74937
X183700Y-119800
X185100Y-120700
X185900Y-69700
X186700Y-92975
X186975Y-101500
X187000Y-108150
X190000Y-114650
X191500Y-96300
X194000Y-116100
X194350Y-131175
X194375Y-136375
X194800Y-103500
X194800Y-111200
X195000Y-109100
X197100Y-96900
X197700Y-109100
X197900Y-116100
X198600Y-106800
X202000Y-109675
X203350Y-117850
X203375Y-128700
X203500Y-112100
X205125Y-109675
T2
X104800Y-98800
X104800Y-116800
X104800Y-130900
X120500Y-139000
X133790Y-139000
X146990Y-139000
X160390Y-139000
X173790Y-139000
X176800Y-57700
X185200Y-138700
X188100Y-83300
X201100Y-105800
X192100Y-88900
X197100Y-88900
T3
X118300Y-113500
X131600Y-113500
X144800Y-113500
X158200Y-113500
X171600Y-113500
X185000Y-113500
X207650Y-124425
X199825Y-130200
X199825Y-132200
X199825Y-134200
X199825Y-136200
X136400Y-79550
X138400Y-79550
X199800Y-119050
X199800Y-121050
X199800Y-123050
X162400Y-53800
X164400Y-53800
X166400Y-53800
T4
X129000Y-79500
X131000Y-79500
T5
X165800Y-128600
X168300Y-128600
X139000Y-128600
X141500Y-128600
X152400Y-128600
X154900Y-128600
X112500Y-128600
X115000Y-128600
X125800Y-128600
X128300Y-128600
X179200Y-128600
X181700Y-128600
T6
X178300Y-70950
X183300Y-70950
T7
X121150Y-78350
X125150Y-78350
T9
X104100Y-138500
X133800Y-49100
X208500Y-91500
X104100Y-91500
X178800Y-49100
X208500Y-138500
T8
X167455Y-135100G85X166645Y-135100
G05
X140655Y-135100G85X139845Y-135100
G05
X154055Y-135100G85X153245Y-135100
G05
X114155Y-135100G85X113345Y-135100
G05
X127455Y-135100G85X126645Y-135100
G05
X180855Y-135100G85X180045Y-135100
G05
T0
M30
