  0
SECTION
  2
HEADER
  9
$ANGBASE
  50
0.0
  9
$ANGDIR
  70
  1
  9
$MEASUREMENT
  70
0
  0
ENDSEC
  0
SECTION
  2
TABLES
  0
TABLE
  2
LTYPE
  70
4
  0
LTYPE
  5
40F
  2
CONTINUOUS
  70
0
  3
Solid line
  72
65
  73
0
  40
0.0
  0
LTYPE
  5
410
  2
DASHDOT
 70
0
  3
Dash Dot ____ _ ____ _
 72
65
 73
4
 40
2.0
 49
1.25
 49
-0.25
 49
0.25
 49
-0.25
  0
LTYPE
  5
411
  2
DASHED
 70
0
  3
Dashed __ __ __ __ __
 72
65
 73
2
 40
0.75
 49
0.5
 49
-0.25
  0
LTYPE
  5
43B
  2
DOTTED
 70
0
  3
Dotted .  .  .  .
 72
65
 73
2
 40
0.2
 49
0.0
 49
-0.2
  0
ENDTAB
  0
TABLE
  2
STYLE
  70
4
  0
STYLE
  2
KICAD
  70
0
  40
0
  41
1
  42
1
  50
0
  71
0
  3
isocp.shx
  0
STYLE
  2
KICADB
  70
0
  40
0
  41
1
  42
1
  50
0
  71
0
  3
isocp.shx
  0
STYLE
  2
KICADI
  70
0
  40
0
  41
1
  42
1
  50
15
  71
0
  3
isocp.shx
  0
STYLE
  2
KICADBI
  70
0
  40
0
  41
1
  42
1
  50
15
  71
0
  3
isocp.shx
  0
ENDTAB
  0
TABLE
  2
LAYER
  70
30
  0
LAYER
  2
BLACK
  70
0
  62
7
  6
CONTINUOUS
  0
LAYER
  2
GRAY1
  70
0
  62
251
  6
CONTINUOUS
  0
LAYER
  2
GRAY2
  70
0
  62
8
  6
CONTINUOUS
  0
LAYER
  2
GRAY3
  70
0
  62
9
  6
CONTINUOUS
  0
LAYER
  2
WHITE
  70
0
  62
7
  6
CONTINUOUS
  0
LAYER
  2
LYELLOW
  70
0
  62
51
  6
CONTINUOUS
  0
LAYER
  2
BLUE1
  70
0
  62
178
  6
CONTINUOUS
  0
LAYER
  2
GREEN1
  70
0
  62
98
  6
CONTINUOUS
  0
LAYER
  2
CYAN1
  70
0
  62
138
  6
CONTINUOUS
  0
LAYER
  2
RED1
  70
0
  62
18
  6
CONTINUOUS
  0
LAYER
  2
MAGENTA1
  70
0
  62
228
  6
CONTINUOUS
  0
LAYER
  2
BROWN1
  70
0
  62
58
  6
CONTINUOUS
  0
LAYER
  2
BLUE2
  70
0
  62
5
  6
CONTINUOUS
  0
LAYER
  2
GREEN2
  70
0
  62
3
  6
CONTINUOUS
  0
LAYER
  2
CYAN2
  70
0
  62
4
  6
CONTINUOUS
  0
LAYER
  2
RED2
  70
0
  62
1
  6
CONTINUOUS
  0
LAYER
  2
MAGENTA2
  70
0
  62
6
  6
CONTINUOUS
  0
LAYER
  2
BROWN2
  70
0
  62
54
  6
CONTINUOUS
  0
LAYER
  2
BLUE3
  70
0
  62
171
  6
CONTINUOUS
  0
LAYER
  2
GREEN3
  70
0
  62
91
  6
CONTINUOUS
  0
LAYER
  2
CYAN3
  70
0
  62
131
  6
CONTINUOUS
  0
LAYER
  2
RED3
  70
0
  62
11
  6
CONTINUOUS
  0
LAYER
  2
MAGENTA3
  70
0
  62
221
  6
CONTINUOUS
  0
LAYER
  2
YELLOW3
  70
0
  62
2
  6
CONTINUOUS
  0
LAYER
  2
BLUE4
  70
0
  62
5
  6
CONTINUOUS
  0
LAYER
  2
GREEN4
  70
0
  62
3
  6
CONTINUOUS
  0
LAYER
  2
CYAN4
  70
0
  62
4
  6
CONTINUOUS
  0
LAYER
  2
RED4
  70
0
  62
1
  6
CONTINUOUS
  0
LAYER
  2
MAGENTA4
  70
0
  62
6
  6
CONTINUOUS
  0
LAYER
  2
YELLOW4
  70
0
  62
2
  6
CONTINUOUS
  0
ENDTAB
  0
ENDSEC
  0
SECTION
  2
ENTITIES
0
LINE
8
BLACK
6
CONTINUOUS
10
219.222
20
-90.05
11
219.231
21
-90.05
0
LINE
8
BLACK
6
CONTINUOUS
10
219.231
20
-90.05
11
219.24
21
-90.053
0
LINE
8
BLACK
6
CONTINUOUS
10
219.24
20
-90.053
11
219.248
21
-90.0546
0
LINE
8
BLACK
6
CONTINUOUS
10
219.248
20
-90.0546
11
219.256
21
-90.059
0
LINE
8
BLACK
6
CONTINUOUS
10
219.256
20
-90.059
11
219.264
21
-90.0621
0
LINE
8
BLACK
6
CONTINUOUS
10
219.264
20
-90.0621
11
219.271
21
-90.0678
0
LINE
8
BLACK
6
CONTINUOUS
10
219.271
20
-90.0678
11
219.279
21
-90.0722
0
LINE
8
BLACK
6
CONTINUOUS
10
219.279
20
-90.0722
11
219.285
21
-90.079
0
LINE
8
BLACK
6
CONTINUOUS
10
219.285
20
-90.079
11
219.291
21
-90.0847
0
LINE
8
BLACK
6
CONTINUOUS
10
219.291
20
-90.0847
11
219.296
21
-90.0924
0
LINE
8
BLACK
6
CONTINUOUS
10
219.296
20
-90.0924
11
219.302
21
-90.0992
0
LINE
8
BLACK
6
CONTINUOUS
10
219.302
20
-90.0992
11
219.305
21
-90.1076
0
LINE
8
BLACK
6
CONTINUOUS
10
219.305
20
-90.1076
11
219.309
21
-90.1153
0
LINE
8
BLACK
6
CONTINUOUS
10
219.309
20
-90.1153
11
219.311
21
-90.124
0
LINE
8
BLACK
6
CONTINUOUS
10
219.311
20
-90.124
11
219.314
21
-90.1324
0
LINE
8
BLACK
6
CONTINUOUS
10
219.314
20
-90.1324
11
219.314
21
-90.1412
0
LINE
8
BLACK
6
CONTINUOUS
10
219.314
20
-90.1412
11
219.314
21
-90.1413
0
LINE
8
BLACK
6
CONTINUOUS
10
219.314
20
-90.1413
11
219.314
21
-100.159
0
LINE
8
BLACK
6
CONTINUOUS
10
219.314
20
-100.159
11
219.314
21
-100.159
0
LINE
8
BLACK
6
CONTINUOUS
10
219.314
20
-100.159
11
219.314
21
-100.168
0
LINE
8
BLACK
6
CONTINUOUS
10
219.314
20
-100.168
11
219.311
21
-100.176
0
LINE
8
BLACK
6
CONTINUOUS
10
219.311
20
-100.176
11
219.309
21
-100.185
0
LINE
8
BLACK
6
CONTINUOUS
10
219.309
20
-100.185
11
219.305
21
-100.192
0
LINE
8
BLACK
6
CONTINUOUS
10
219.305
20
-100.192
11
219.302
21
-100.201
0
LINE
8
BLACK
6
CONTINUOUS
10
219.302
20
-100.201
11
219.296
21
-100.208
0
LINE
8
BLACK
6
CONTINUOUS
10
219.296
20
-100.208
11
219.291
21
-100.215
0
LINE
8
BLACK
6
CONTINUOUS
10
219.291
20
-100.215
11
219.285
21
-100.221
0
LINE
8
BLACK
6
CONTINUOUS
10
219.285
20
-100.221
11
219.279
21
-100.228
0
LINE
8
BLACK
6
CONTINUOUS
10
219.279
20
-100.228
11
219.271
21
-100.232
0
LINE
8
BLACK
6
CONTINUOUS
10
219.271
20
-100.232
11
219.264
21
-100.238
0
LINE
8
BLACK
6
CONTINUOUS
10
219.264
20
-100.238
11
219.256
21
-100.241
0
LINE
8
BLACK
6
CONTINUOUS
10
219.256
20
-100.241
11
219.248
21
-100.245
0
LINE
8
BLACK
6
CONTINUOUS
10
219.248
20
-100.245
11
219.24
21
-100.247
0
LINE
8
BLACK
6
CONTINUOUS
10
219.24
20
-100.247
11
219.231
21
-100.25
0
LINE
8
BLACK
6
CONTINUOUS
10
219.231
20
-100.25
11
219.222
21
-100.25
0
LINE
8
BLACK
6
CONTINUOUS
10
219.222
20
-100.25
11
219.222
21
-100.25
0
LINE
8
BLACK
6
CONTINUOUS
10
219.222
20
-100.25
11
170.255
21
-100.25
0
LINE
8
BLACK
6
CONTINUOUS
10
170.255
20
-100.25
11
167.314
21
-103.191
0
LINE
8
BLACK
6
CONTINUOUS
10
167.314
20
-103.191
11
167.314
21
-105.159
0
LINE
8
BLACK
6
CONTINUOUS
10
167.314
20
-105.159
11
167.314
21
-105.159
0
LINE
8
BLACK
6
CONTINUOUS
10
167.314
20
-105.159
11
167.314
21
-105.168
0
LINE
8
BLACK
6
CONTINUOUS
10
167.314
20
-105.168
11
167.311
21
-105.176
0
LINE
8
BLACK
6
CONTINUOUS
10
167.311
20
-105.176
11
167.309
21
-105.185
0
LINE
8
BLACK
6
CONTINUOUS
10
167.309
20
-105.185
11
167.305
21
-105.192
0
LINE
8
BLACK
6
CONTINUOUS
10
167.305
20
-105.192
11
167.302
21
-105.201
0
LINE
8
BLACK
6
CONTINUOUS
10
167.302
20
-105.201
11
167.296
21
-105.208
0
LINE
8
BLACK
6
CONTINUOUS
10
167.296
20
-105.208
11
167.291
21
-105.215
0
LINE
8
BLACK
6
CONTINUOUS
10
167.291
20
-105.215
11
167.285
21
-105.221
0
LINE
8
BLACK
6
CONTINUOUS
10
167.285
20
-105.221
11
167.279
21
-105.228
0
LINE
8
BLACK
6
CONTINUOUS
10
167.279
20
-105.228
11
167.271
21
-105.232
0
LINE
8
BLACK
6
CONTINUOUS
10
167.271
20
-105.232
11
167.264
21
-105.238
0
LINE
8
BLACK
6
CONTINUOUS
10
167.264
20
-105.238
11
167.256
21
-105.241
0
LINE
8
BLACK
6
CONTINUOUS
10
167.256
20
-105.241
11
167.248
21
-105.245
0
LINE
8
BLACK
6
CONTINUOUS
10
167.248
20
-105.245
11
167.24
21
-105.247
0
LINE
8
BLACK
6
CONTINUOUS
10
167.24
20
-105.247
11
167.231
21
-105.25
0
LINE
8
BLACK
6
CONTINUOUS
10
167.231
20
-105.25
11
167.222
21
-105.25
0
LINE
8
BLACK
6
CONTINUOUS
10
167.222
20
-105.25
11
167.222
21
-105.25
0
LINE
8
BLACK
6
CONTINUOUS
10
167.222
20
-105.25
11
133.205
21
-105.25
0
LINE
8
BLACK
6
CONTINUOUS
10
133.205
20
-105.25
11
133.205
21
-105.25
0
LINE
8
BLACK
6
CONTINUOUS
10
133.205
20
-105.25
11
133.196
21
-105.25
0
LINE
8
BLACK
6
CONTINUOUS
10
133.196
20
-105.25
11
133.188
21
-105.247
0
LINE
8
BLACK
6
CONTINUOUS
10
133.188
20
-105.247
11
133.179
21
-105.245
0
LINE
8
BLACK
6
CONTINUOUS
10
133.179
20
-105.245
11
133.171
21
-105.241
0
LINE
8
BLACK
6
CONTINUOUS
10
133.171
20
-105.241
11
133.163
21
-105.238
0
LINE
8
BLACK
6
CONTINUOUS
10
133.163
20
-105.238
11
133.156
21
-105.232
0
LINE
8
BLACK
6
CONTINUOUS
10
133.156
20
-105.232
11
133.148
21
-105.228
0
LINE
8
BLACK
6
CONTINUOUS
10
133.148
20
-105.228
11
133.143
21
-105.221
0
LINE
8
BLACK
6
CONTINUOUS
10
133.143
20
-105.221
11
133.136
21
-105.215
0
LINE
8
BLACK
6
CONTINUOUS
10
133.136
20
-105.215
11
133.131
21
-105.208
0
LINE
8
BLACK
6
CONTINUOUS
10
133.131
20
-105.208
11
133.126
21
-105.201
0
LINE
8
BLACK
6
CONTINUOUS
10
133.126
20
-105.201
11
133.123
21
-105.192
0
LINE
8
BLACK
6
CONTINUOUS
10
133.123
20
-105.192
11
133.118
21
-105.185
0
LINE
8
BLACK
6
CONTINUOUS
10
133.118
20
-105.185
11
133.117
21
-105.176
0
LINE
8
BLACK
6
CONTINUOUS
10
133.117
20
-105.176
11
133.114
21
-105.168
0
LINE
8
BLACK
6
CONTINUOUS
10
133.114
20
-105.168
11
133.114
21
-105.132
0
LINE
8
BLACK
6
CONTINUOUS
10
133.114
20
-105.132
11
133.114
21
-103.191
0
LINE
8
BLACK
6
CONTINUOUS
10
133.114
20
-103.191
11
130.172
21
-100.25
0
LINE
8
BLACK
6
CONTINUOUS
10
130.172
20
-100.25
11
81.2049
21
-100.25
0
LINE
8
BLACK
6
CONTINUOUS
10
81.2049
20
-100.25
11
81.2049
21
-100.25
0
LINE
8
BLACK
6
CONTINUOUS
10
81.2049
20
-100.25
11
81.196
21
-100.25
0
LINE
8
BLACK
6
CONTINUOUS
10
81.196
20
-100.25
11
81.1877
21
-100.247
0
LINE
8
BLACK
6
CONTINUOUS
10
81.1877
20
-100.247
11
81.1789
21
-100.245
0
LINE
8
BLACK
6
CONTINUOUS
10
81.1789
20
-100.245
11
81.1712
21
-100.241
0
LINE
8
BLACK
6
CONTINUOUS
10
81.1712
20
-100.241
11
81.1629
21
-100.238
0
LINE
8
BLACK
6
CONTINUOUS
10
81.1629
20
-100.238
11
81.1561
21
-100.232
0
LINE
8
BLACK
6
CONTINUOUS
10
81.1561
20
-100.232
11
81.1484
21
-100.228
0
LINE
8
BLACK
6
CONTINUOUS
10
81.1484
20
-100.228
11
81.1427
21
-100.221
0
LINE
8
BLACK
6
CONTINUOUS
10
81.1427
20
-100.221
11
81.1359
21
-100.215
0
LINE
8
BLACK
6
CONTINUOUS
10
81.1359
20
-100.215
11
81.1314
21
-100.208
0
LINE
8
BLACK
6
CONTINUOUS
10
81.1314
20
-100.208
11
81.1257
21
-100.201
0
LINE
8
BLACK
6
CONTINUOUS
10
81.1257
20
-100.201
11
81.1227
21
-100.192
0
LINE
8
BLACK
6
CONTINUOUS
10
81.1227
20
-100.192
11
81.1182
21
-100.185
0
LINE
8
BLACK
6
CONTINUOUS
10
81.1182
20
-100.185
11
81.1167
21
-100.176
0
LINE
8
BLACK
6
CONTINUOUS
10
81.1167
20
-100.176
11
81.1137
21
-100.168
0
LINE
8
BLACK
6
CONTINUOUS
10
81.1137
20
-100.168
11
81.1137
21
-100.159
0
LINE
8
BLACK
6
CONTINUOUS
10
81.1137
20
-100.159
11
81.1137
21
-100.159
0
LINE
8
BLACK
6
CONTINUOUS
10
81.1137
20
-100.159
11
81.1137
21
-90.1413
0
LINE
8
BLACK
6
CONTINUOUS
10
81.1137
20
-90.1413
11
81.1137
21
-90.1324
0
LINE
8
BLACK
6
CONTINUOUS
10
81.1137
20
-90.1324
11
81.1167
21
-90.124
0
LINE
8
BLACK
6
CONTINUOUS
10
81.1167
20
-90.124
11
81.1182
21
-90.1153
0
LINE
8
BLACK
6
CONTINUOUS
10
81.1182
20
-90.1153
11
81.1227
21
-90.1076
0
LINE
8
BLACK
6
CONTINUOUS
10
81.1227
20
-90.1076
11
81.1257
21
-90.0992
0
LINE
8
BLACK
6
CONTINUOUS
10
81.1257
20
-90.0992
11
81.1314
21
-90.0924
0
LINE
8
BLACK
6
CONTINUOUS
10
81.1314
20
-90.0924
11
81.1359
21
-90.0847
0
LINE
8
BLACK
6
CONTINUOUS
10
81.1359
20
-90.0847
11
81.1427
21
-90.079
0
LINE
8
BLACK
6
CONTINUOUS
10
81.1427
20
-90.079
11
81.1484
21
-90.0722
0
LINE
8
BLACK
6
CONTINUOUS
10
81.1484
20
-90.0722
11
81.1561
21
-90.0678
0
LINE
8
BLACK
6
CONTINUOUS
10
81.1561
20
-90.0678
11
81.1629
21
-90.0621
0
LINE
8
BLACK
6
CONTINUOUS
10
81.1629
20
-90.0621
11
81.1712
21
-90.059
0
LINE
8
BLACK
6
CONTINUOUS
10
81.1712
20
-90.059
11
81.1789
21
-90.0546
0
LINE
8
BLACK
6
CONTINUOUS
10
81.1789
20
-90.0546
11
81.1877
21
-90.053
0
LINE
8
BLACK
6
CONTINUOUS
10
81.1877
20
-90.053
11
81.196
21
-90.05
0
LINE
8
BLACK
6
CONTINUOUS
10
81.196
20
-90.05
11
81.2049
21
-90.05
0
LINE
8
BLACK
6
CONTINUOUS
10
81.2049
20
-90.05
11
81.2049
21
-90.05
0
LINE
8
BLACK
6
CONTINUOUS
10
81.2049
20
-90.05
11
219.222
21
-90.05
0
LINE
8
BLACK
6
CONTINUOUS
10
219.222
20
-90.05
11
219.222
21
-90.05
0
LINE
8
BLACK
6
CONTINUOUS
10
81.3137
20
-90.25
11
81.3137
21
-100.05
0
LINE
8
BLACK
6
CONTINUOUS
10
81.3137
20
-100.05
11
130.209
21
-100.05
0
LINE
8
BLACK
6
CONTINUOUS
10
130.209
20
-100.05
11
130.223
21
-100.049
0
LINE
8
BLACK
6
CONTINUOUS
10
130.223
20
-100.049
11
130.235
21
-100.052
0
LINE
8
BLACK
6
CONTINUOUS
10
130.235
20
-100.052
11
130.248
21
-100.055
0
LINE
8
BLACK
6
CONTINUOUS
10
130.248
20
-100.055
11
130.252
21
-100.057
0
LINE
8
BLACK
6
CONTINUOUS
10
130.252
20
-100.057
11
130.257
21
-100.058
0
LINE
8
BLACK
6
CONTINUOUS
10
130.257
20
-100.058
11
130.267
21
-100.066
0
LINE
8
BLACK
6
CONTINUOUS
10
130.267
20
-100.066
11
130.279
21
-100.072
0
LINE
8
BLACK
6
CONTINUOUS
10
130.279
20
-100.072
11
130.287
21
-100.082
0
LINE
8
BLACK
6
CONTINUOUS
10
130.287
20
-100.082
11
133.281
21
-103.076
0
LINE
8
BLACK
6
CONTINUOUS
10
133.281
20
-103.076
11
133.291
21
-103.085
0
LINE
8
BLACK
6
CONTINUOUS
10
133.291
20
-103.085
11
133.298
21
-103.096
0
LINE
8
BLACK
6
CONTINUOUS
10
133.298
20
-103.096
11
133.306
21
-103.107
0
LINE
8
BLACK
6
CONTINUOUS
10
133.306
20
-103.107
11
133.307
21
-103.111
0
LINE
8
BLACK
6
CONTINUOUS
10
133.307
20
-103.111
11
133.309
21
-103.115
0
LINE
8
BLACK
6
CONTINUOUS
10
133.309
20
-103.115
11
133.311
21
-103.128
0
LINE
8
BLACK
6
CONTINUOUS
10
133.311
20
-103.128
11
133.315
21
-103.141
0
LINE
8
BLACK
6
CONTINUOUS
10
133.315
20
-103.141
11
133.314
21
-103.154
0
LINE
8
BLACK
6
CONTINUOUS
10
133.314
20
-103.154
11
133.314
21
-105.05
0
LINE
8
BLACK
6
CONTINUOUS
10
133.314
20
-105.05
11
167.114
21
-105.05
0
LINE
8
BLACK
6
CONTINUOUS
10
167.114
20
-105.05
11
167.114
21
-103.154
0
LINE
8
BLACK
6
CONTINUOUS
10
167.114
20
-103.154
11
167.112
21
-103.141
0
LINE
8
BLACK
6
CONTINUOUS
10
167.112
20
-103.141
11
167.116
21
-103.128
0
LINE
8
BLACK
6
CONTINUOUS
10
167.116
20
-103.128
11
167.118
21
-103.115
0
LINE
8
BLACK
6
CONTINUOUS
10
167.118
20
-103.115
11
167.12
21
-103.111
0
LINE
8
BLACK
6
CONTINUOUS
10
167.12
20
-103.111
11
167.122
21
-103.107
0
LINE
8
BLACK
6
CONTINUOUS
10
167.122
20
-103.107
11
167.129
21
-103.096
0
LINE
8
BLACK
6
CONTINUOUS
10
167.129
20
-103.096
11
167.136
21
-103.085
0
LINE
8
BLACK
6
CONTINUOUS
10
167.136
20
-103.085
11
167.146
21
-103.076
0
LINE
8
BLACK
6
CONTINUOUS
10
167.146
20
-103.076
11
170.14
21
-100.082
0
LINE
8
BLACK
6
CONTINUOUS
10
170.14
20
-100.082
11
170.148
21
-100.072
0
LINE
8
BLACK
6
CONTINUOUS
10
170.148
20
-100.072
11
170.16
21
-100.066
0
LINE
8
BLACK
6
CONTINUOUS
10
170.16
20
-100.066
11
170.171
21
-100.058
0
LINE
8
BLACK
6
CONTINUOUS
10
170.171
20
-100.058
11
170.175
21
-100.057
0
LINE
8
BLACK
6
CONTINUOUS
10
170.175
20
-100.057
11
170.179
21
-100.055
0
LINE
8
BLACK
6
CONTINUOUS
10
170.179
20
-100.055
11
170.192
21
-100.052
0
LINE
8
BLACK
6
CONTINUOUS
10
170.192
20
-100.052
11
170.205
21
-100.049
0
LINE
8
BLACK
6
CONTINUOUS
10
170.205
20
-100.049
11
170.218
21
-100.05
0
LINE
8
BLACK
6
CONTINUOUS
10
170.218
20
-100.05
11
219.114
21
-100.05
0
LINE
8
BLACK
6
CONTINUOUS
10
219.114
20
-100.05
11
219.114
21
-90.25
0
LINE
8
BLACK
6
CONTINUOUS
10
219.114
20
-90.25
11
81.3137
21
-90.25
0
LINE
8
BLACK
6
CONTINUOUS
10
165.494
20
-103.643
11
165.103
21
-104.005
0
LINE
8
BLACK
6
CONTINUOUS
10
165.103
20
-104.005
11
164.617
21
-104.22
0
LINE
8
BLACK
6
CONTINUOUS
10
164.617
20
-104.22
11
164.087
21
-104.266
0
LINE
8
BLACK
6
CONTINUOUS
10
164.087
20
-104.266
11
163.57
21
-104.137
0
LINE
8
BLACK
6
CONTINUOUS
10
163.57
20
-104.137
11
163.123
21
-103.849
0
LINE
8
BLACK
6
CONTINUOUS
10
163.123
20
-103.849
11
162.794
21
-103.431
0
LINE
8
BLACK
6
CONTINUOUS
10
162.794
20
-103.431
11
162.618
21
-102.929
0
LINE
8
BLACK
6
CONTINUOUS
10
162.618
20
-102.929
11
162.614
21
-102.397
0
LINE
8
BLACK
6
CONTINUOUS
10
162.614
20
-102.397
11
162.782
21
-101.892
0
LINE
8
BLACK
6
CONTINUOUS
10
162.782
20
-101.892
11
163.105
21
-101.47
0
LINE
8
BLACK
6
CONTINUOUS
10
163.105
20
-101.47
11
163.547
21
-101.174
0
LINE
8
BLACK
6
CONTINUOUS
10
163.547
20
-101.174
11
164.061
21
-101.038
0
LINE
8
BLACK
6
CONTINUOUS
10
164.061
20
-101.038
11
164.592
21
-101.075
0
LINE
8
BLACK
6
CONTINUOUS
10
164.592
20
-101.075
11
165.082
21
-101.283
0
LINE
8
BLACK
6
CONTINUOUS
10
165.082
20
-101.283
11
165.478
21
-101.638
0
LINE
8
BLACK
6
CONTINUOUS
10
165.478
20
-101.638
11
165.738
21
-102.102
0
LINE
8
BLACK
6
CONTINUOUS
10
165.738
20
-102.102
11
165.833
21
-102.625
0
LINE
8
BLACK
6
CONTINUOUS
10
165.833
20
-102.625
11
165.834
21
-102.651
0
LINE
8
BLACK
6
CONTINUOUS
10
165.834
20
-102.651
11
165.746
21
-103.175
0
LINE
8
BLACK
6
CONTINUOUS
10
165.746
20
-103.175
11
165.494
21
-103.643
0
LINE
8
BLACK
6
CONTINUOUS
10
165.32
20
-101.792
11
164.982
21
-101.48
0
LINE
8
BLACK
6
CONTINUOUS
10
164.982
20
-101.48
11
164.562
21
-101.294
0
LINE
8
BLACK
6
CONTINUOUS
10
164.562
20
-101.294
11
164.104
21
-101.255
0
LINE
8
BLACK
6
CONTINUOUS
10
164.104
20
-101.255
11
163.658
21
-101.366
0
LINE
8
BLACK
6
CONTINUOUS
10
163.658
20
-101.366
11
163.271
21
-101.615
0
LINE
8
BLACK
6
CONTINUOUS
10
163.271
20
-101.615
11
162.987
21
-101.976
0
LINE
8
BLACK
6
CONTINUOUS
10
162.987
20
-101.976
11
162.835
21
-102.41
0
LINE
8
BLACK
6
CONTINUOUS
10
162.835
20
-102.41
11
162.831
21
-102.87
0
LINE
8
BLACK
6
CONTINUOUS
10
162.831
20
-102.87
11
162.976
21
-103.306
0
LINE
8
BLACK
6
CONTINUOUS
10
162.976
20
-103.306
11
163.255
21
-103.671
0
LINE
8
BLACK
6
CONTINUOUS
10
163.255
20
-103.671
11
163.638
21
-103.926
0
LINE
8
BLACK
6
CONTINUOUS
10
163.638
20
-103.926
11
164.082
21
-104.044
0
LINE
8
BLACK
6
CONTINUOUS
10
164.082
20
-104.044
11
164.54
21
-104.012
0
LINE
8
BLACK
6
CONTINUOUS
10
164.54
20
-104.012
11
164.964
21
-103.833
0
LINE
8
BLACK
6
CONTINUOUS
10
164.964
20
-103.833
11
165.306
21
-103.526
0
LINE
8
BLACK
6
CONTINUOUS
10
165.306
20
-103.526
11
165.531
21
-103.125
0
LINE
8
BLACK
6
CONTINUOUS
10
165.531
20
-103.125
11
165.613
21
-102.672
0
LINE
8
BLACK
6
CONTINUOUS
10
165.613
20
-102.672
11
165.614
21
-102.651
0
LINE
8
BLACK
6
CONTINUOUS
10
165.614
20
-102.651
11
165.538
21
-102.197
0
LINE
8
BLACK
6
CONTINUOUS
10
165.538
20
-102.197
11
165.32
21
-101.792
0
LINE
8
BLACK
6
CONTINUOUS
10
137.494
20
-103.643
11
137.103
21
-104.005
0
LINE
8
BLACK
6
CONTINUOUS
10
137.103
20
-104.005
11
136.617
21
-104.22
0
LINE
8
BLACK
6
CONTINUOUS
10
136.617
20
-104.22
11
136.087
21
-104.266
0
LINE
8
BLACK
6
CONTINUOUS
10
136.087
20
-104.266
11
135.57
21
-104.137
0
LINE
8
BLACK
6
CONTINUOUS
10
135.57
20
-104.137
11
135.123
21
-103.849
0
LINE
8
BLACK
6
CONTINUOUS
10
135.123
20
-103.849
11
134.794
21
-103.431
0
LINE
8
BLACK
6
CONTINUOUS
10
134.794
20
-103.431
11
134.618
21
-102.929
0
LINE
8
BLACK
6
CONTINUOUS
10
134.618
20
-102.929
11
134.614
21
-102.397
0
LINE
8
BLACK
6
CONTINUOUS
10
134.614
20
-102.397
11
134.782
21
-101.892
0
LINE
8
BLACK
6
CONTINUOUS
10
134.782
20
-101.892
11
135.105
21
-101.47
0
LINE
8
BLACK
6
CONTINUOUS
10
135.105
20
-101.47
11
135.547
21
-101.174
0
LINE
8
BLACK
6
CONTINUOUS
10
135.547
20
-101.174
11
136.061
21
-101.038
0
LINE
8
BLACK
6
CONTINUOUS
10
136.061
20
-101.038
11
136.592
21
-101.075
0
LINE
8
BLACK
6
CONTINUOUS
10
136.592
20
-101.075
11
137.082
21
-101.283
0
LINE
8
BLACK
6
CONTINUOUS
10
137.082
20
-101.283
11
137.478
21
-101.638
0
LINE
8
BLACK
6
CONTINUOUS
10
137.478
20
-101.638
11
137.738
21
-102.102
0
LINE
8
BLACK
6
CONTINUOUS
10
137.738
20
-102.102
11
137.833
21
-102.625
0
LINE
8
BLACK
6
CONTINUOUS
10
137.833
20
-102.625
11
137.834
21
-102.651
0
LINE
8
BLACK
6
CONTINUOUS
10
137.834
20
-102.651
11
137.746
21
-103.175
0
LINE
8
BLACK
6
CONTINUOUS
10
137.746
20
-103.175
11
137.494
21
-103.643
0
LINE
8
BLACK
6
CONTINUOUS
10
137.32
20
-101.792
11
136.982
21
-101.48
0
LINE
8
BLACK
6
CONTINUOUS
10
136.982
20
-101.48
11
136.562
21
-101.294
0
LINE
8
BLACK
6
CONTINUOUS
10
136.562
20
-101.294
11
136.104
21
-101.255
0
LINE
8
BLACK
6
CONTINUOUS
10
136.104
20
-101.255
11
135.658
21
-101.366
0
LINE
8
BLACK
6
CONTINUOUS
10
135.658
20
-101.366
11
135.271
21
-101.615
0
LINE
8
BLACK
6
CONTINUOUS
10
135.271
20
-101.615
11
134.987
21
-101.976
0
LINE
8
BLACK
6
CONTINUOUS
10
134.987
20
-101.976
11
134.835
21
-102.41
0
LINE
8
BLACK
6
CONTINUOUS
10
134.835
20
-102.41
11
134.831
21
-102.87
0
LINE
8
BLACK
6
CONTINUOUS
10
134.831
20
-102.87
11
134.976
21
-103.306
0
LINE
8
BLACK
6
CONTINUOUS
10
134.976
20
-103.306
11
135.255
21
-103.671
0
LINE
8
BLACK
6
CONTINUOUS
10
135.255
20
-103.671
11
135.638
21
-103.926
0
LINE
8
BLACK
6
CONTINUOUS
10
135.638
20
-103.926
11
136.082
21
-104.044
0
LINE
8
BLACK
6
CONTINUOUS
10
136.082
20
-104.044
11
136.54
21
-104.012
0
LINE
8
BLACK
6
CONTINUOUS
10
136.54
20
-104.012
11
136.964
21
-103.833
0
LINE
8
BLACK
6
CONTINUOUS
10
136.964
20
-103.833
11
137.306
21
-103.526
0
LINE
8
BLACK
6
CONTINUOUS
10
137.306
20
-103.526
11
137.531
21
-103.125
0
LINE
8
BLACK
6
CONTINUOUS
10
137.531
20
-103.125
11
137.613
21
-102.672
0
LINE
8
BLACK
6
CONTINUOUS
10
137.613
20
-102.672
11
137.614
21
-102.651
0
LINE
8
BLACK
6
CONTINUOUS
10
137.614
20
-102.651
11
137.538
21
-102.197
0
LINE
8
BLACK
6
CONTINUOUS
10
137.538
20
-102.197
11
137.32
21
-101.792
  0
ENDSEC
  0
EOF
