G04 #@! TF.GenerationSoftware,KiCad,Pcbnew,(5.0.0)*
G04 #@! TF.CreationDate,2018-08-29T15:01:26+09:00*
G04 #@! TF.ProjectId,lancer_sensorbord_v2,6C616E6365725F73656E736F72626F72,rev?*
G04 #@! TF.SameCoordinates,Original*
G04 #@! TF.FileFunction,Legend,Bot*
G04 #@! TF.FilePolarity,Positive*
%FSLAX46Y46*%
G04 Gerber Fmt 4.6, Leading zero omitted, Abs format (unit mm)*
G04 Created by KiCad (PCBNEW (5.0.0)) date 08/29/18 15:01:26*
%MOMM*%
%LPD*%
G01*
G04 APERTURE LIST*
%ADD10C,0.200000*%
%ADD11C,0.150000*%
%ADD12C,0.010000*%
G04 APERTURE END LIST*
D10*
X111300000Y-96353571D02*
X111300000Y-94853571D01*
X110942857Y-94853571D01*
X110728571Y-94925000D01*
X110585714Y-95067857D01*
X110514285Y-95210714D01*
X110442857Y-95496428D01*
X110442857Y-95710714D01*
X110514285Y-95996428D01*
X110585714Y-96139285D01*
X110728571Y-96282142D01*
X110942857Y-96353571D01*
X111300000Y-96353571D01*
X109228571Y-96282142D02*
X109371428Y-96353571D01*
X109657142Y-96353571D01*
X109800000Y-96282142D01*
X109871428Y-96139285D01*
X109871428Y-95567857D01*
X109800000Y-95425000D01*
X109657142Y-95353571D01*
X109371428Y-95353571D01*
X109228571Y-95425000D01*
X109157142Y-95567857D01*
X109157142Y-95710714D01*
X109871428Y-95853571D01*
X108585714Y-96282142D02*
X108442857Y-96353571D01*
X108157142Y-96353571D01*
X108014285Y-96282142D01*
X107942857Y-96139285D01*
X107942857Y-96067857D01*
X108014285Y-95925000D01*
X108157142Y-95853571D01*
X108371428Y-95853571D01*
X108514285Y-95782142D01*
X108585714Y-95639285D01*
X108585714Y-95567857D01*
X108514285Y-95425000D01*
X108371428Y-95353571D01*
X108157142Y-95353571D01*
X108014285Y-95425000D01*
X107300000Y-96353571D02*
X107300000Y-95353571D01*
X107300000Y-94853571D02*
X107371428Y-94925000D01*
X107300000Y-94996428D01*
X107228571Y-94925000D01*
X107300000Y-94853571D01*
X107300000Y-94996428D01*
X105942857Y-95353571D02*
X105942857Y-96567857D01*
X106014285Y-96710714D01*
X106085714Y-96782142D01*
X106228571Y-96853571D01*
X106442857Y-96853571D01*
X106585714Y-96782142D01*
X105942857Y-96282142D02*
X106085714Y-96353571D01*
X106371428Y-96353571D01*
X106514285Y-96282142D01*
X106585714Y-96210714D01*
X106657142Y-96067857D01*
X106657142Y-95639285D01*
X106585714Y-95496428D01*
X106514285Y-95425000D01*
X106371428Y-95353571D01*
X106085714Y-95353571D01*
X105942857Y-95425000D01*
X105228571Y-95353571D02*
X105228571Y-96353571D01*
X105228571Y-95496428D02*
X105157142Y-95425000D01*
X105014285Y-95353571D01*
X104800000Y-95353571D01*
X104657142Y-95425000D01*
X104585714Y-95567857D01*
X104585714Y-96353571D01*
X103300000Y-96282142D02*
X103442857Y-96353571D01*
X103728571Y-96353571D01*
X103871428Y-96282142D01*
X103942857Y-96139285D01*
X103942857Y-95567857D01*
X103871428Y-95425000D01*
X103728571Y-95353571D01*
X103442857Y-95353571D01*
X103300000Y-95425000D01*
X103228571Y-95567857D01*
X103228571Y-95710714D01*
X103942857Y-95853571D01*
X101942857Y-96353571D02*
X101942857Y-94853571D01*
X101942857Y-96282142D02*
X102085714Y-96353571D01*
X102371428Y-96353571D01*
X102514285Y-96282142D01*
X102585714Y-96210714D01*
X102657142Y-96067857D01*
X102657142Y-95639285D01*
X102585714Y-95496428D01*
X102514285Y-95425000D01*
X102371428Y-95353571D01*
X102085714Y-95353571D01*
X101942857Y-95425000D01*
X100085714Y-96353571D02*
X100085714Y-94853571D01*
X100085714Y-95425000D02*
X99942857Y-95353571D01*
X99657142Y-95353571D01*
X99514285Y-95425000D01*
X99442857Y-95496428D01*
X99371428Y-95639285D01*
X99371428Y-96067857D01*
X99442857Y-96210714D01*
X99514285Y-96282142D01*
X99657142Y-96353571D01*
X99942857Y-96353571D01*
X100085714Y-96282142D01*
X98871428Y-95353571D02*
X98514285Y-96353571D01*
X98157142Y-95353571D02*
X98514285Y-96353571D01*
X98657142Y-96710714D01*
X98728571Y-96782142D01*
X98871428Y-96853571D01*
X96514285Y-96282142D02*
X96300000Y-96353571D01*
X95942857Y-96353571D01*
X95800000Y-96282142D01*
X95728571Y-96210714D01*
X95657142Y-96067857D01*
X95657142Y-95925000D01*
X95728571Y-95782142D01*
X95800000Y-95710714D01*
X95942857Y-95639285D01*
X96228571Y-95567857D01*
X96371428Y-95496428D01*
X96442857Y-95425000D01*
X96514285Y-95282142D01*
X96514285Y-95139285D01*
X96442857Y-94996428D01*
X96371428Y-94925000D01*
X96228571Y-94853571D01*
X95871428Y-94853571D01*
X95657142Y-94925000D01*
X95014285Y-96353571D02*
X95014285Y-94853571D01*
X94371428Y-96353571D02*
X94371428Y-95567857D01*
X94442857Y-95425000D01*
X94585714Y-95353571D01*
X94800000Y-95353571D01*
X94942857Y-95425000D01*
X95014285Y-95496428D01*
X93657142Y-96353571D02*
X93657142Y-95353571D01*
X93657142Y-94853571D02*
X93728571Y-94925000D01*
X93657142Y-94996428D01*
X93585714Y-94925000D01*
X93657142Y-94853571D01*
X93657142Y-94996428D01*
X92942857Y-96353571D02*
X92942857Y-95353571D01*
X92942857Y-95496428D02*
X92871428Y-95425000D01*
X92728571Y-95353571D01*
X92514285Y-95353571D01*
X92371428Y-95425000D01*
X92300000Y-95567857D01*
X92300000Y-96353571D01*
X92300000Y-95567857D02*
X92228571Y-95425000D01*
X92085714Y-95353571D01*
X91871428Y-95353571D01*
X91728571Y-95425000D01*
X91657142Y-95567857D01*
X91657142Y-96353571D01*
X90728571Y-96353571D02*
X90871428Y-96282142D01*
X90942857Y-96210714D01*
X91014285Y-96067857D01*
X91014285Y-95639285D01*
X90942857Y-95496428D01*
X90871428Y-95425000D01*
X90728571Y-95353571D01*
X90514285Y-95353571D01*
X90371428Y-95425000D01*
X90300000Y-95496428D01*
X90228571Y-95639285D01*
X90228571Y-96067857D01*
X90300000Y-96210714D01*
X90371428Y-96282142D01*
X90514285Y-96353571D01*
X90728571Y-96353571D01*
X89800000Y-95353571D02*
X89228571Y-95353571D01*
X89585714Y-94853571D02*
X89585714Y-96139285D01*
X89514285Y-96282142D01*
X89371428Y-96353571D01*
X89228571Y-96353571D01*
X88514285Y-96353571D02*
X88657142Y-96282142D01*
X88728571Y-96210714D01*
X88800000Y-96067857D01*
X88800000Y-95639285D01*
X88728571Y-95496428D01*
X88657142Y-95425000D01*
X88514285Y-95353571D01*
X88300000Y-95353571D01*
X88157142Y-95425000D01*
X88085714Y-95496428D01*
X88014285Y-95639285D01*
X88014285Y-96067857D01*
X88085714Y-96210714D01*
X88157142Y-96282142D01*
X88300000Y-96353571D01*
X88514285Y-96353571D01*
X87371428Y-96353571D02*
X87371428Y-95353571D01*
X87371428Y-95639285D02*
X87299999Y-95496428D01*
X87228571Y-95425000D01*
X87085714Y-95353571D01*
X86942857Y-95353571D01*
X86442857Y-96353571D02*
X86442857Y-95353571D01*
X86442857Y-94853571D02*
X86514285Y-94925000D01*
X86442857Y-94996428D01*
X86371428Y-94925000D01*
X86442857Y-94853571D01*
X86442857Y-94996428D01*
X96371428Y-98803571D02*
X96371428Y-97303571D01*
X96371428Y-98017857D02*
X95514285Y-98017857D01*
X95514285Y-98803571D02*
X95514285Y-97303571D01*
X94157142Y-98803571D02*
X94157142Y-98017857D01*
X94228571Y-97875000D01*
X94371428Y-97803571D01*
X94657142Y-97803571D01*
X94800000Y-97875000D01*
X94157142Y-98732142D02*
X94300000Y-98803571D01*
X94657142Y-98803571D01*
X94800000Y-98732142D01*
X94871428Y-98589285D01*
X94871428Y-98446428D01*
X94800000Y-98303571D01*
X94657142Y-98232142D01*
X94300000Y-98232142D01*
X94157142Y-98160714D01*
X93442857Y-98803571D02*
X93442857Y-97803571D01*
X93442857Y-98089285D02*
X93371428Y-97946428D01*
X93300000Y-97875000D01*
X93157142Y-97803571D01*
X93014285Y-97803571D01*
X91871428Y-97803571D02*
X91871428Y-98803571D01*
X92514285Y-97803571D02*
X92514285Y-98589285D01*
X92442857Y-98732142D01*
X92300000Y-98803571D01*
X92085714Y-98803571D01*
X91942857Y-98732142D01*
X91871428Y-98660714D01*
X91157142Y-98803571D02*
X91157142Y-97303571D01*
X91014285Y-98232142D02*
X90585714Y-98803571D01*
X90585714Y-97803571D02*
X91157142Y-98375000D01*
X89942857Y-98803571D02*
X89942857Y-97803571D01*
X89942857Y-97303571D02*
X90014285Y-97375000D01*
X89942857Y-97446428D01*
X89871428Y-97375000D01*
X89942857Y-97303571D01*
X89942857Y-97446428D01*
D11*
G04 #@! TO.C,Q5*
X179200000Y-96700000D02*
X182000000Y-96700000D01*
X179200000Y-98300000D02*
X179200000Y-96700000D01*
X182000000Y-98300000D02*
X179200000Y-98300000D01*
X182000000Y-96700000D02*
X182000000Y-98300000D01*
G04 #@! TO.C,C1*
X152300000Y-92250000D02*
X152300000Y-93850000D01*
X151500000Y-92250000D02*
X152300000Y-92250000D01*
X151500000Y-92250000D02*
X151500000Y-93850000D01*
X151500000Y-93850000D02*
X152300000Y-93850000D01*
G04 #@! TO.C,C2*
X148900000Y-92250000D02*
X148900000Y-93850000D01*
X148100000Y-92250000D02*
X148900000Y-92250000D01*
X148100000Y-92250000D02*
X148100000Y-93850000D01*
X148100000Y-93850000D02*
X148900000Y-93850000D01*
G04 #@! TO.C,D1*
X84400000Y-91900000D02*
X84400000Y-92900000D01*
X84000000Y-92400000D02*
X84400000Y-91900000D01*
X84400000Y-92900000D02*
X84000000Y-92400000D01*
X85000000Y-92400000D02*
X83500000Y-92400000D01*
X83500000Y-92900000D02*
X83500000Y-91900000D01*
X83500000Y-91900000D02*
X85000000Y-91900000D01*
X85000000Y-91900000D02*
X85000000Y-92900000D01*
X85000000Y-92900000D02*
X83500000Y-92900000D01*
G04 #@! TO.C,D2*
X119900000Y-91900000D02*
X119900000Y-92900000D01*
X119500000Y-92400000D02*
X119900000Y-91900000D01*
X119900000Y-92900000D02*
X119500000Y-92400000D01*
X120500000Y-92400000D02*
X119000000Y-92400000D01*
X119000000Y-92900000D02*
X119000000Y-91900000D01*
X119000000Y-91900000D02*
X120500000Y-91900000D01*
X120500000Y-91900000D02*
X120500000Y-92900000D01*
X120500000Y-92900000D02*
X119000000Y-92900000D01*
G04 #@! TO.C,D3*
X145800000Y-91900000D02*
X145800000Y-92900000D01*
X145400000Y-92400000D02*
X145800000Y-91900000D01*
X145800000Y-92900000D02*
X145400000Y-92400000D01*
X146400000Y-92400000D02*
X144900000Y-92400000D01*
X144900000Y-92900000D02*
X144900000Y-91900000D01*
X144900000Y-91900000D02*
X146400000Y-91900000D01*
X146400000Y-91900000D02*
X146400000Y-92900000D01*
X146400000Y-92900000D02*
X144900000Y-92900000D01*
G04 #@! TO.C,D4*
X154600000Y-92900000D02*
X154600000Y-91900000D01*
X155000000Y-92400000D02*
X154600000Y-92900000D01*
X154600000Y-91900000D02*
X155000000Y-92400000D01*
X154000000Y-92400000D02*
X155500000Y-92400000D01*
X155500000Y-91900000D02*
X155500000Y-92900000D01*
X155500000Y-92900000D02*
X154000000Y-92900000D01*
X154000000Y-92900000D02*
X154000000Y-91900000D01*
X154000000Y-91900000D02*
X155500000Y-91900000D01*
G04 #@! TO.C,D5*
X180500000Y-92800000D02*
X180500000Y-91800000D01*
X180900000Y-92300000D02*
X180500000Y-92800000D01*
X180500000Y-91800000D02*
X180900000Y-92300000D01*
X179900000Y-92300000D02*
X181400000Y-92300000D01*
X181400000Y-91800000D02*
X181400000Y-92800000D01*
X181400000Y-92800000D02*
X179900000Y-92800000D01*
X179900000Y-92800000D02*
X179900000Y-91800000D01*
X179900000Y-91800000D02*
X181400000Y-91800000D01*
G04 #@! TO.C,D6*
X216100000Y-92900000D02*
X216100000Y-91900000D01*
X216500000Y-92400000D02*
X216100000Y-92900000D01*
X216100000Y-91900000D02*
X216500000Y-92400000D01*
X215500000Y-92400000D02*
X217000000Y-92400000D01*
X217000000Y-91900000D02*
X217000000Y-92900000D01*
X217000000Y-92900000D02*
X215500000Y-92900000D01*
X215500000Y-92900000D02*
X215500000Y-91900000D01*
X215500000Y-91900000D02*
X217000000Y-91900000D01*
G04 #@! TO.C,P1*
X144200000Y-99700000D02*
X144200000Y-104300000D01*
X156100000Y-99700000D02*
X144200000Y-99700000D01*
X156100000Y-104300000D02*
X156100000Y-99700000D01*
X144200000Y-104300000D02*
X156100000Y-104300000D01*
G04 #@! TO.C,Q1*
X85800000Y-98300000D02*
X83000000Y-98300000D01*
X85800000Y-96700000D02*
X85800000Y-98300000D01*
X83000000Y-96700000D02*
X85800000Y-96700000D01*
X83000000Y-98300000D02*
X83000000Y-96700000D01*
G04 #@! TO.C,Q2*
X121200000Y-98300000D02*
X118400000Y-98300000D01*
X121200000Y-96700000D02*
X121200000Y-98300000D01*
X118400000Y-96700000D02*
X121200000Y-96700000D01*
X118400000Y-98300000D02*
X118400000Y-96700000D01*
G04 #@! TO.C,Q3*
X147100000Y-98300000D02*
X144300000Y-98300000D01*
X147100000Y-96700000D02*
X147100000Y-98300000D01*
X144300000Y-96700000D02*
X147100000Y-96700000D01*
X144300000Y-98300000D02*
X144300000Y-96700000D01*
G04 #@! TO.C,Q4*
X153300000Y-96700000D02*
X156100000Y-96700000D01*
X153300000Y-98300000D02*
X153300000Y-96700000D01*
X156100000Y-98300000D02*
X153300000Y-98300000D01*
X156100000Y-96700000D02*
X156100000Y-98300000D01*
G04 #@! TO.C,Q6*
X214675000Y-96675000D02*
X217475000Y-96675000D01*
X214675000Y-98275000D02*
X214675000Y-96675000D01*
X217475000Y-98275000D02*
X214675000Y-98275000D01*
X217475000Y-96675000D02*
X217475000Y-98275000D01*
G04 #@! TO.C,R1*
X87600000Y-92250000D02*
X87600000Y-93850000D01*
X86800000Y-92250000D02*
X87600000Y-92250000D01*
X86800000Y-92250000D02*
X86800000Y-93850000D01*
X86800000Y-93850000D02*
X87600000Y-93850000D01*
G04 #@! TO.C,R2*
X123100000Y-92250000D02*
X123100000Y-93850000D01*
X122300000Y-92250000D02*
X123100000Y-92250000D01*
X122300000Y-92250000D02*
X122300000Y-93850000D01*
X122300000Y-93850000D02*
X123100000Y-93850000D01*
G04 #@! TO.C,R3*
X142100000Y-92250000D02*
X142100000Y-93850000D01*
X141300000Y-92250000D02*
X142100000Y-92250000D01*
X141300000Y-92250000D02*
X141300000Y-93850000D01*
X141300000Y-93850000D02*
X142100000Y-93850000D01*
G04 #@! TO.C,R4*
X159100000Y-92250000D02*
X159100000Y-93850000D01*
X158300000Y-92250000D02*
X159100000Y-92250000D01*
X158300000Y-92250000D02*
X158300000Y-93850000D01*
X158300000Y-93850000D02*
X159100000Y-93850000D01*
G04 #@! TO.C,R5*
X178100000Y-92250000D02*
X178100000Y-93850000D01*
X177300000Y-92250000D02*
X178100000Y-92250000D01*
X177300000Y-92250000D02*
X177300000Y-93850000D01*
X177300000Y-93850000D02*
X178100000Y-93850000D01*
G04 #@! TO.C,R6*
X213700000Y-92250000D02*
X213700000Y-93850000D01*
X212900000Y-92250000D02*
X213700000Y-92250000D01*
X212900000Y-92250000D02*
X212900000Y-93850000D01*
X212900000Y-93850000D02*
X213700000Y-93850000D01*
D12*
G04 #@! TO.C,G\002A\002A\002A*
G36*
X113716412Y-96750169D02*
X113795554Y-96749914D01*
X113869572Y-96749508D01*
X113937202Y-96748965D01*
X113997182Y-96748301D01*
X114048247Y-96747530D01*
X114089135Y-96746668D01*
X114118582Y-96745728D01*
X114135325Y-96744727D01*
X114138314Y-96744279D01*
X114148575Y-96738150D01*
X114167265Y-96722974D01*
X114194633Y-96698517D01*
X114230928Y-96664545D01*
X114276397Y-96620824D01*
X114331289Y-96567121D01*
X114395853Y-96503201D01*
X114417846Y-96481300D01*
X114675606Y-96224299D01*
X114925846Y-96475054D01*
X114976122Y-96525248D01*
X115023822Y-96572515D01*
X115067865Y-96615808D01*
X115107171Y-96654081D01*
X115140659Y-96686290D01*
X115167248Y-96711386D01*
X115185857Y-96728326D01*
X115195406Y-96736062D01*
X115195682Y-96736218D01*
X115223820Y-96744734D01*
X115257048Y-96745694D01*
X115288087Y-96739139D01*
X115295980Y-96735664D01*
X115313646Y-96722518D01*
X115331406Y-96703354D01*
X115335534Y-96697694D01*
X115353885Y-96670688D01*
X115353885Y-95607273D01*
X115353880Y-95462053D01*
X115353858Y-95330639D01*
X115353811Y-95212323D01*
X115353730Y-95106399D01*
X115353605Y-95012157D01*
X115353430Y-94928891D01*
X115353194Y-94855892D01*
X115352889Y-94792453D01*
X115352506Y-94737866D01*
X115352037Y-94691423D01*
X115351472Y-94652416D01*
X115350803Y-94620137D01*
X115350021Y-94593879D01*
X115349118Y-94572934D01*
X115348084Y-94556593D01*
X115346912Y-94544150D01*
X115345591Y-94534896D01*
X115344114Y-94528124D01*
X115342471Y-94523126D01*
X115340654Y-94519193D01*
X115340421Y-94518753D01*
X115323087Y-94497064D01*
X115298283Y-94478531D01*
X115295736Y-94477138D01*
X115264517Y-94460628D01*
X114778952Y-94460628D01*
X114670961Y-94460721D01*
X114577046Y-94461005D01*
X114496771Y-94461487D01*
X114429700Y-94462173D01*
X114375394Y-94463072D01*
X114333419Y-94464188D01*
X114303337Y-94465531D01*
X114284712Y-94467106D01*
X114277537Y-94468646D01*
X114269382Y-94475240D01*
X114252036Y-94491098D01*
X114226550Y-94515200D01*
X114193977Y-94546528D01*
X114155369Y-94584063D01*
X114111778Y-94626786D01*
X114064256Y-94673679D01*
X114013856Y-94723723D01*
X114005920Y-94731630D01*
X113750156Y-94986596D01*
X113494292Y-94731280D01*
X113443409Y-94680756D01*
X113395079Y-94633247D01*
X113350374Y-94589774D01*
X113310365Y-94551356D01*
X113276124Y-94519014D01*
X113248724Y-94493767D01*
X113229236Y-94476637D01*
X113218732Y-94468644D01*
X113217998Y-94468296D01*
X113184837Y-94461178D01*
X113151645Y-94466041D01*
X113128125Y-94475724D01*
X113100659Y-94495071D01*
X113082768Y-94521553D01*
X113080730Y-94525921D01*
X113078887Y-94530668D01*
X113077229Y-94536508D01*
X113075747Y-94544156D01*
X113074431Y-94554330D01*
X113073270Y-94567744D01*
X113072255Y-94585113D01*
X113071377Y-94607155D01*
X113070625Y-94634584D01*
X113069989Y-94668115D01*
X113069460Y-94708465D01*
X113069029Y-94756350D01*
X113068684Y-94812484D01*
X113068565Y-94841672D01*
X113292857Y-94841672D01*
X113443420Y-94992236D01*
X113593984Y-95142800D01*
X113593950Y-95142834D01*
X113906137Y-95142834D01*
X114363199Y-94685600D01*
X115128914Y-94685600D01*
X115128914Y-95451315D01*
X114900296Y-95679846D01*
X114671679Y-95908377D01*
X114288908Y-95525605D01*
X113906137Y-95142834D01*
X113593950Y-95142834D01*
X113292857Y-95443927D01*
X113292857Y-94841672D01*
X113068565Y-94841672D01*
X113068417Y-94877584D01*
X113068217Y-94952365D01*
X113068075Y-95037543D01*
X113067980Y-95133833D01*
X113067924Y-95241951D01*
X113067896Y-95362614D01*
X113067886Y-95496535D01*
X113067885Y-95606637D01*
X113067865Y-95753769D01*
X113067827Y-95887085D01*
X113067804Y-96007282D01*
X113067828Y-96115058D01*
X113067934Y-96211112D01*
X113068154Y-96296142D01*
X113068521Y-96370844D01*
X113069068Y-96435918D01*
X113069828Y-96492060D01*
X113070601Y-96528914D01*
X113292857Y-96528914D01*
X113292857Y-95756113D01*
X113519599Y-95529285D01*
X113566845Y-95482102D01*
X113610921Y-95438241D01*
X113650775Y-95398738D01*
X113685353Y-95364630D01*
X113713602Y-95336953D01*
X113734470Y-95316743D01*
X113746903Y-95305038D01*
X113750039Y-95302457D01*
X113755640Y-95307461D01*
X113770686Y-95321942D01*
X113794371Y-95345100D01*
X113825888Y-95376137D01*
X113864431Y-95414254D01*
X113909194Y-95458652D01*
X113959370Y-95508534D01*
X114014153Y-95563099D01*
X114072737Y-95621549D01*
X114134315Y-95683086D01*
X114134677Y-95683449D01*
X114515617Y-96064440D01*
X114511842Y-96068217D01*
X114831369Y-96068217D01*
X114978261Y-95921194D01*
X115015976Y-95883508D01*
X115050237Y-95849395D01*
X115079742Y-95820140D01*
X115103189Y-95797032D01*
X115119274Y-95781357D01*
X115126695Y-95774403D01*
X115127033Y-95774171D01*
X115127440Y-95781175D01*
X115127816Y-95801170D01*
X115128152Y-95832636D01*
X115128439Y-95874049D01*
X115128667Y-95923887D01*
X115128826Y-95980629D01*
X115128906Y-96042752D01*
X115128914Y-96069833D01*
X115128914Y-96365496D01*
X114980142Y-96216856D01*
X114831369Y-96068217D01*
X114511842Y-96068217D01*
X114051313Y-96528914D01*
X113292857Y-96528914D01*
X113070601Y-96528914D01*
X113070834Y-96539969D01*
X113072119Y-96580343D01*
X113073717Y-96613879D01*
X113075660Y-96641276D01*
X113077981Y-96663232D01*
X113080713Y-96680443D01*
X113083890Y-96693609D01*
X113087544Y-96703427D01*
X113091709Y-96710595D01*
X113096417Y-96715810D01*
X113101701Y-96719772D01*
X113107595Y-96723177D01*
X113114132Y-96726723D01*
X113121101Y-96730947D01*
X113150277Y-96750257D01*
X113633410Y-96750257D01*
X113716412Y-96750169D01*
X113716412Y-96750169D01*
G37*
X113716412Y-96750169D02*
X113795554Y-96749914D01*
X113869572Y-96749508D01*
X113937202Y-96748965D01*
X113997182Y-96748301D01*
X114048247Y-96747530D01*
X114089135Y-96746668D01*
X114118582Y-96745728D01*
X114135325Y-96744727D01*
X114138314Y-96744279D01*
X114148575Y-96738150D01*
X114167265Y-96722974D01*
X114194633Y-96698517D01*
X114230928Y-96664545D01*
X114276397Y-96620824D01*
X114331289Y-96567121D01*
X114395853Y-96503201D01*
X114417846Y-96481300D01*
X114675606Y-96224299D01*
X114925846Y-96475054D01*
X114976122Y-96525248D01*
X115023822Y-96572515D01*
X115067865Y-96615808D01*
X115107171Y-96654081D01*
X115140659Y-96686290D01*
X115167248Y-96711386D01*
X115185857Y-96728326D01*
X115195406Y-96736062D01*
X115195682Y-96736218D01*
X115223820Y-96744734D01*
X115257048Y-96745694D01*
X115288087Y-96739139D01*
X115295980Y-96735664D01*
X115313646Y-96722518D01*
X115331406Y-96703354D01*
X115335534Y-96697694D01*
X115353885Y-96670688D01*
X115353885Y-95607273D01*
X115353880Y-95462053D01*
X115353858Y-95330639D01*
X115353811Y-95212323D01*
X115353730Y-95106399D01*
X115353605Y-95012157D01*
X115353430Y-94928891D01*
X115353194Y-94855892D01*
X115352889Y-94792453D01*
X115352506Y-94737866D01*
X115352037Y-94691423D01*
X115351472Y-94652416D01*
X115350803Y-94620137D01*
X115350021Y-94593879D01*
X115349118Y-94572934D01*
X115348084Y-94556593D01*
X115346912Y-94544150D01*
X115345591Y-94534896D01*
X115344114Y-94528124D01*
X115342471Y-94523126D01*
X115340654Y-94519193D01*
X115340421Y-94518753D01*
X115323087Y-94497064D01*
X115298283Y-94478531D01*
X115295736Y-94477138D01*
X115264517Y-94460628D01*
X114778952Y-94460628D01*
X114670961Y-94460721D01*
X114577046Y-94461005D01*
X114496771Y-94461487D01*
X114429700Y-94462173D01*
X114375394Y-94463072D01*
X114333419Y-94464188D01*
X114303337Y-94465531D01*
X114284712Y-94467106D01*
X114277537Y-94468646D01*
X114269382Y-94475240D01*
X114252036Y-94491098D01*
X114226550Y-94515200D01*
X114193977Y-94546528D01*
X114155369Y-94584063D01*
X114111778Y-94626786D01*
X114064256Y-94673679D01*
X114013856Y-94723723D01*
X114005920Y-94731630D01*
X113750156Y-94986596D01*
X113494292Y-94731280D01*
X113443409Y-94680756D01*
X113395079Y-94633247D01*
X113350374Y-94589774D01*
X113310365Y-94551356D01*
X113276124Y-94519014D01*
X113248724Y-94493767D01*
X113229236Y-94476637D01*
X113218732Y-94468644D01*
X113217998Y-94468296D01*
X113184837Y-94461178D01*
X113151645Y-94466041D01*
X113128125Y-94475724D01*
X113100659Y-94495071D01*
X113082768Y-94521553D01*
X113080730Y-94525921D01*
X113078887Y-94530668D01*
X113077229Y-94536508D01*
X113075747Y-94544156D01*
X113074431Y-94554330D01*
X113073270Y-94567744D01*
X113072255Y-94585113D01*
X113071377Y-94607155D01*
X113070625Y-94634584D01*
X113069989Y-94668115D01*
X113069460Y-94708465D01*
X113069029Y-94756350D01*
X113068684Y-94812484D01*
X113068565Y-94841672D01*
X113292857Y-94841672D01*
X113443420Y-94992236D01*
X113593984Y-95142800D01*
X113593950Y-95142834D01*
X113906137Y-95142834D01*
X114363199Y-94685600D01*
X115128914Y-94685600D01*
X115128914Y-95451315D01*
X114900296Y-95679846D01*
X114671679Y-95908377D01*
X114288908Y-95525605D01*
X113906137Y-95142834D01*
X113593950Y-95142834D01*
X113292857Y-95443927D01*
X113292857Y-94841672D01*
X113068565Y-94841672D01*
X113068417Y-94877584D01*
X113068217Y-94952365D01*
X113068075Y-95037543D01*
X113067980Y-95133833D01*
X113067924Y-95241951D01*
X113067896Y-95362614D01*
X113067886Y-95496535D01*
X113067885Y-95606637D01*
X113067865Y-95753769D01*
X113067827Y-95887085D01*
X113067804Y-96007282D01*
X113067828Y-96115058D01*
X113067934Y-96211112D01*
X113068154Y-96296142D01*
X113068521Y-96370844D01*
X113069068Y-96435918D01*
X113069828Y-96492060D01*
X113070601Y-96528914D01*
X113292857Y-96528914D01*
X113292857Y-95756113D01*
X113519599Y-95529285D01*
X113566845Y-95482102D01*
X113610921Y-95438241D01*
X113650775Y-95398738D01*
X113685353Y-95364630D01*
X113713602Y-95336953D01*
X113734470Y-95316743D01*
X113746903Y-95305038D01*
X113750039Y-95302457D01*
X113755640Y-95307461D01*
X113770686Y-95321942D01*
X113794371Y-95345100D01*
X113825888Y-95376137D01*
X113864431Y-95414254D01*
X113909194Y-95458652D01*
X113959370Y-95508534D01*
X114014153Y-95563099D01*
X114072737Y-95621549D01*
X114134315Y-95683086D01*
X114134677Y-95683449D01*
X114515617Y-96064440D01*
X114511842Y-96068217D01*
X114831369Y-96068217D01*
X114978261Y-95921194D01*
X115015976Y-95883508D01*
X115050237Y-95849395D01*
X115079742Y-95820140D01*
X115103189Y-95797032D01*
X115119274Y-95781357D01*
X115126695Y-95774403D01*
X115127033Y-95774171D01*
X115127440Y-95781175D01*
X115127816Y-95801170D01*
X115128152Y-95832636D01*
X115128439Y-95874049D01*
X115128667Y-95923887D01*
X115128826Y-95980629D01*
X115128906Y-96042752D01*
X115128914Y-96069833D01*
X115128914Y-96365496D01*
X114980142Y-96216856D01*
X114831369Y-96068217D01*
X114511842Y-96068217D01*
X114051313Y-96528914D01*
X113292857Y-96528914D01*
X113070601Y-96528914D01*
X113070834Y-96539969D01*
X113072119Y-96580343D01*
X113073717Y-96613879D01*
X113075660Y-96641276D01*
X113077981Y-96663232D01*
X113080713Y-96680443D01*
X113083890Y-96693609D01*
X113087544Y-96703427D01*
X113091709Y-96710595D01*
X113096417Y-96715810D01*
X113101701Y-96719772D01*
X113107595Y-96723177D01*
X113114132Y-96726723D01*
X113121101Y-96730947D01*
X113150277Y-96750257D01*
X113633410Y-96750257D01*
X113716412Y-96750169D01*
G36*
X114313839Y-97338085D02*
X114366575Y-97333601D01*
X114404685Y-97410229D01*
X114421608Y-97444039D01*
X114434589Y-97466733D01*
X114446519Y-97479999D01*
X114460290Y-97485525D01*
X114478796Y-97484999D01*
X114504927Y-97480110D01*
X114519231Y-97477086D01*
X114559063Y-97468714D01*
X114571943Y-97385765D01*
X114577225Y-97352870D01*
X114581922Y-97325687D01*
X114585501Y-97307160D01*
X114587368Y-97300269D01*
X114595409Y-97296710D01*
X114611431Y-97291555D01*
X114612528Y-97291238D01*
X114622312Y-97288914D01*
X114630502Y-97289585D01*
X114639132Y-97295026D01*
X114650237Y-97307010D01*
X114665853Y-97327311D01*
X114686735Y-97355941D01*
X114738328Y-97427129D01*
X114790293Y-97411346D01*
X114842257Y-97395562D01*
X114845885Y-97306223D01*
X114849514Y-97216884D01*
X114871285Y-97207585D01*
X114880782Y-97204013D01*
X114889103Y-97203531D01*
X114898568Y-97207576D01*
X114911500Y-97217587D01*
X114930221Y-97235000D01*
X114955508Y-97259734D01*
X115017960Y-97321181D01*
X115069911Y-97295019D01*
X115096016Y-97281308D01*
X115111224Y-97271361D01*
X115117919Y-97263085D01*
X115118485Y-97254386D01*
X115118133Y-97252671D01*
X115115398Y-97238573D01*
X115111176Y-97214273D01*
X115106175Y-97183917D01*
X115103570Y-97167543D01*
X115098682Y-97135676D01*
X115096262Y-97114991D01*
X115096520Y-97102333D01*
X115099667Y-97094545D01*
X115105914Y-97088473D01*
X115109011Y-97086061D01*
X115123685Y-97076751D01*
X115133407Y-97073361D01*
X115142182Y-97077354D01*
X115159945Y-97088330D01*
X115184059Y-97104577D01*
X115210135Y-97123110D01*
X115278740Y-97173021D01*
X115320987Y-97141417D01*
X115342076Y-97125533D01*
X115358259Y-97113142D01*
X115366329Y-97106703D01*
X115366569Y-97106478D01*
X115365715Y-97098704D01*
X115360912Y-97080032D01*
X115352951Y-97053281D01*
X115342890Y-97022070D01*
X115315875Y-96940997D01*
X115351769Y-96905103D01*
X115431460Y-96945069D01*
X115511150Y-96985036D01*
X115552012Y-96944173D01*
X115592875Y-96903311D01*
X115551650Y-96824879D01*
X115510426Y-96746446D01*
X115546287Y-96710585D01*
X115628596Y-96736363D01*
X115660848Y-96746130D01*
X115687732Y-96753641D01*
X115706431Y-96758151D01*
X115714121Y-96758926D01*
X115723464Y-96747877D01*
X115736634Y-96730353D01*
X115750978Y-96710161D01*
X115763840Y-96691104D01*
X115772566Y-96676989D01*
X115774800Y-96671955D01*
X115770735Y-96663690D01*
X115759726Y-96646493D01*
X115743547Y-96623035D01*
X115727628Y-96600950D01*
X115708492Y-96574052D01*
X115693118Y-96550866D01*
X115683290Y-96534186D01*
X115680618Y-96527355D01*
X115684881Y-96515062D01*
X115693318Y-96501745D01*
X115697723Y-96496113D01*
X115702357Y-96492118D01*
X115709170Y-96489868D01*
X115720112Y-96489468D01*
X115737132Y-96491025D01*
X115762183Y-96494642D01*
X115797212Y-96500428D01*
X115844172Y-96508488D01*
X115856442Y-96510601D01*
X115866929Y-96511314D01*
X115875295Y-96507553D01*
X115883907Y-96496838D01*
X115895126Y-96476690D01*
X115902419Y-96462370D01*
X115928438Y-96410703D01*
X115866575Y-96348251D01*
X115804711Y-96285800D01*
X115814710Y-96262441D01*
X115824708Y-96239082D01*
X115912933Y-96237041D01*
X116001159Y-96235000D01*
X116033981Y-96131402D01*
X115966162Y-96082862D01*
X115939069Y-96063224D01*
X115916637Y-96046499D01*
X115901338Y-96034562D01*
X115895694Y-96029432D01*
X115895583Y-96019685D01*
X115898954Y-96002817D01*
X115899179Y-96001979D01*
X115902202Y-95992350D01*
X115906815Y-95985496D01*
X115915596Y-95980389D01*
X115931124Y-95975997D01*
X115955980Y-95971292D01*
X115990127Y-95965668D01*
X116027195Y-95959647D01*
X116052577Y-95954273D01*
X116068808Y-95947304D01*
X116078427Y-95936494D01*
X116083969Y-95919600D01*
X116087970Y-95894379D01*
X116090310Y-95877047D01*
X116095238Y-95841216D01*
X116018476Y-95800042D01*
X115986056Y-95782465D01*
X115964344Y-95769804D01*
X115951196Y-95760224D01*
X115944472Y-95751892D01*
X115942027Y-95742973D01*
X115941714Y-95734351D01*
X115941714Y-95709836D01*
X116025438Y-95682280D01*
X116109161Y-95654725D01*
X116107080Y-95597108D01*
X116105000Y-95539492D01*
X116025171Y-95512937D01*
X115945342Y-95486383D01*
X115943107Y-95460012D01*
X115940871Y-95433641D01*
X116015678Y-95396244D01*
X116045419Y-95381294D01*
X116070003Y-95368782D01*
X116086752Y-95360081D01*
X116092946Y-95356615D01*
X116093155Y-95348892D01*
X116091328Y-95331250D01*
X116088133Y-95308030D01*
X116084240Y-95283571D01*
X116080319Y-95262214D01*
X116077038Y-95248300D01*
X116075797Y-95245436D01*
X116067780Y-95243018D01*
X116048428Y-95238873D01*
X116020734Y-95233603D01*
X115990999Y-95228370D01*
X115958465Y-95222692D01*
X115931686Y-95217731D01*
X115913605Y-95214053D01*
X115907191Y-95212296D01*
X115903872Y-95204512D01*
X115898832Y-95188640D01*
X115898495Y-95187472D01*
X115896172Y-95177693D01*
X115896841Y-95169506D01*
X115902275Y-95160879D01*
X115914248Y-95149779D01*
X115934533Y-95134173D01*
X115963293Y-95113196D01*
X116034576Y-95061533D01*
X116016518Y-95007824D01*
X115998459Y-94954114D01*
X115824899Y-94954114D01*
X115814805Y-94930528D01*
X115804711Y-94906943D01*
X115866575Y-94844491D01*
X115928438Y-94782040D01*
X115902903Y-94731335D01*
X115877369Y-94680630D01*
X115791822Y-94694237D01*
X115706276Y-94707844D01*
X115693527Y-94691279D01*
X115684128Y-94676519D01*
X115680618Y-94666592D01*
X115684611Y-94657811D01*
X115695582Y-94640050D01*
X115711818Y-94615953D01*
X115730133Y-94590187D01*
X115779808Y-94521904D01*
X115757245Y-94492512D01*
X115741540Y-94471601D01*
X115727839Y-94452607D01*
X115723504Y-94446287D01*
X115712327Y-94429453D01*
X115630291Y-94456789D01*
X115548254Y-94484124D01*
X115512360Y-94448230D01*
X115552326Y-94368540D01*
X115592292Y-94288849D01*
X115510941Y-94207498D01*
X115432759Y-94248792D01*
X115354577Y-94290085D01*
X115335652Y-94271342D01*
X115316728Y-94252598D01*
X115343193Y-94170734D01*
X115353022Y-94138427D01*
X115360142Y-94111221D01*
X115363876Y-94092004D01*
X115363586Y-94083695D01*
X115349882Y-94072984D01*
X115330927Y-94059307D01*
X115310495Y-94045235D01*
X115292360Y-94033339D01*
X115280295Y-94026191D01*
X115277736Y-94025200D01*
X115270090Y-94029251D01*
X115253421Y-94040227D01*
X115230332Y-94056362D01*
X115208207Y-94072371D01*
X115181308Y-94091507D01*
X115158123Y-94106881D01*
X115141443Y-94116710D01*
X115134612Y-94119381D01*
X115122324Y-94115093D01*
X115109170Y-94106681D01*
X115101812Y-94100426D01*
X115097610Y-94093566D01*
X115096355Y-94082943D01*
X115097839Y-94065399D01*
X115101856Y-94037775D01*
X115103813Y-94025200D01*
X115108896Y-93993355D01*
X115113553Y-93965466D01*
X115117083Y-93945680D01*
X115118217Y-93940071D01*
X115118415Y-93931070D01*
X115112880Y-93922841D01*
X115099225Y-93913291D01*
X115075064Y-93900331D01*
X115069911Y-93897723D01*
X115017960Y-93871561D01*
X114954670Y-93934557D01*
X114891381Y-93997554D01*
X114868633Y-93985790D01*
X114845885Y-93974027D01*
X114845885Y-93801540D01*
X114792425Y-93783566D01*
X114738965Y-93765591D01*
X114690272Y-93833623D01*
X114670603Y-93860761D01*
X114653846Y-93883240D01*
X114641872Y-93898594D01*
X114636689Y-93904305D01*
X114626960Y-93904404D01*
X114610027Y-93901035D01*
X114608863Y-93900724D01*
X114600719Y-93898611D01*
X114594567Y-93896030D01*
X114589782Y-93890999D01*
X114585739Y-93881537D01*
X114581812Y-93865662D01*
X114577375Y-93841391D01*
X114571805Y-93806744D01*
X114564569Y-93760341D01*
X114558901Y-93724083D01*
X114505469Y-93714514D01*
X114478988Y-93710636D01*
X114458185Y-93709192D01*
X114447028Y-93710429D01*
X114446435Y-93710858D01*
X114440925Y-93719355D01*
X114430306Y-93737827D01*
X114416200Y-93763394D01*
X114403020Y-93787916D01*
X114365206Y-93859060D01*
X114338909Y-93856858D01*
X114312611Y-93854657D01*
X114262255Y-93691371D01*
X114203913Y-93691392D01*
X114145571Y-93691412D01*
X114120068Y-93773035D01*
X114094565Y-93854657D01*
X114068307Y-93856858D01*
X114042050Y-93859060D01*
X114004236Y-93787916D01*
X113988472Y-93758652D01*
X113974846Y-93734092D01*
X113964984Y-93717119D01*
X113960821Y-93710858D01*
X113951443Y-93709201D01*
X113931827Y-93710260D01*
X113905941Y-93713791D01*
X113901787Y-93714514D01*
X113848355Y-93724083D01*
X113842687Y-93760341D01*
X113835380Y-93807198D01*
X113829826Y-93841717D01*
X113825399Y-93865883D01*
X113821474Y-93881675D01*
X113817425Y-93891076D01*
X113812629Y-93896069D01*
X113806458Y-93898633D01*
X113798393Y-93900724D01*
X113781227Y-93904284D01*
X113770843Y-93904431D01*
X113770567Y-93904305D01*
X113764635Y-93897672D01*
X113752202Y-93881647D01*
X113735139Y-93858697D01*
X113716984Y-93833623D01*
X113668291Y-93765591D01*
X113614831Y-93783566D01*
X113561371Y-93801540D01*
X113561371Y-93974027D01*
X113538623Y-93985790D01*
X113515876Y-93997554D01*
X113452586Y-93934557D01*
X113389297Y-93871561D01*
X113337346Y-93897723D01*
X113311225Y-93911447D01*
X113296003Y-93921415D01*
X113289294Y-93929718D01*
X113288713Y-93938447D01*
X113289040Y-93940071D01*
X113291730Y-93954171D01*
X113295904Y-93978473D01*
X113300859Y-94008832D01*
X113303443Y-94025200D01*
X113308294Y-94057078D01*
X113310685Y-94077776D01*
X113310408Y-94090452D01*
X113307256Y-94098265D01*
X113301021Y-94104373D01*
X113298086Y-94106681D01*
X113283012Y-94116051D01*
X113272644Y-94119381D01*
X113263291Y-94115361D01*
X113245169Y-94104349D01*
X113221068Y-94088128D01*
X113199050Y-94072371D01*
X113172614Y-94053300D01*
X113150443Y-94037925D01*
X113135139Y-94028013D01*
X113129520Y-94025200D01*
X113121834Y-94029064D01*
X113106218Y-94038942D01*
X113086446Y-94052263D01*
X113066292Y-94066456D01*
X113049529Y-94078949D01*
X113043670Y-94083695D01*
X113043408Y-94092217D01*
X113047197Y-94111574D01*
X113054362Y-94138877D01*
X113064063Y-94170734D01*
X113090528Y-94252598D01*
X113071604Y-94271342D01*
X113052679Y-94290085D01*
X112974497Y-94248792D01*
X112896315Y-94207498D01*
X112814964Y-94288849D01*
X112854930Y-94368540D01*
X112894896Y-94448230D01*
X112859002Y-94484124D01*
X112776966Y-94456789D01*
X112694929Y-94429453D01*
X112683752Y-94446287D01*
X112672578Y-94462200D01*
X112657208Y-94483035D01*
X112650011Y-94492512D01*
X112627448Y-94521904D01*
X112677124Y-94590187D01*
X112696717Y-94617801D01*
X112712639Y-94641538D01*
X112723175Y-94658754D01*
X112726638Y-94666592D01*
X112722417Y-94677878D01*
X112713729Y-94691279D01*
X112700981Y-94707844D01*
X112529887Y-94680630D01*
X112504353Y-94731335D01*
X112478818Y-94782040D01*
X112540681Y-94844491D01*
X112602545Y-94906943D01*
X112592451Y-94930528D01*
X112582357Y-94954114D01*
X112408797Y-94954114D01*
X112390739Y-95007824D01*
X112372680Y-95061533D01*
X112443964Y-95113196D01*
X112473841Y-95135002D01*
X112493713Y-95150362D01*
X112505353Y-95161306D01*
X112510534Y-95169869D01*
X112511030Y-95178084D01*
X112508761Y-95187472D01*
X112503681Y-95203664D01*
X112500188Y-95212152D01*
X112500065Y-95212296D01*
X112492462Y-95214315D01*
X112473482Y-95218131D01*
X112446067Y-95223179D01*
X112416258Y-95228370D01*
X112383595Y-95234139D01*
X112356570Y-95239328D01*
X112338172Y-95243333D01*
X112331459Y-95245436D01*
X112328783Y-95253700D01*
X112325115Y-95271688D01*
X112321124Y-95295058D01*
X112317479Y-95319470D01*
X112314849Y-95340585D01*
X112313905Y-95354060D01*
X112314310Y-95356615D01*
X112321397Y-95360553D01*
X112338803Y-95369577D01*
X112363850Y-95382312D01*
X112391578Y-95396244D01*
X112466385Y-95433641D01*
X112464150Y-95460012D01*
X112461914Y-95486383D01*
X112382085Y-95512937D01*
X112302257Y-95539492D01*
X112300176Y-95597108D01*
X112300072Y-95600000D01*
X112564077Y-95600000D01*
X112564958Y-95520760D01*
X112567564Y-95452458D01*
X112572355Y-95391569D01*
X112579793Y-95334573D01*
X112590337Y-95277946D01*
X112604450Y-95218165D01*
X112622591Y-95151709D01*
X112622842Y-95150835D01*
X112671593Y-95006221D01*
X112732767Y-94868153D01*
X112805643Y-94737271D01*
X112889504Y-94614217D01*
X112983630Y-94499630D01*
X113087302Y-94394151D01*
X113199802Y-94298420D01*
X113320410Y-94213079D01*
X113448409Y-94138768D01*
X113583078Y-94076127D01*
X113723700Y-94025796D01*
X113869555Y-93988417D01*
X113942371Y-93975078D01*
X113986331Y-93968208D01*
X114022776Y-93963039D01*
X114054960Y-93959375D01*
X114086136Y-93957020D01*
X114119559Y-93955780D01*
X114158482Y-93955457D01*
X114206160Y-93955857D01*
X114250800Y-93956532D01*
X114310988Y-93957983D01*
X114360950Y-93960380D01*
X114404961Y-93964085D01*
X114447297Y-93969461D01*
X114492234Y-93976873D01*
X114493914Y-93977175D01*
X114645530Y-94011565D01*
X114790952Y-94058612D01*
X114929616Y-94117685D01*
X115060961Y-94188154D01*
X115184425Y-94269391D01*
X115299446Y-94360765D01*
X115405461Y-94461647D01*
X115501908Y-94571406D01*
X115588226Y-94689414D01*
X115663853Y-94815039D01*
X115728226Y-94947653D01*
X115780783Y-95086625D01*
X115820962Y-95231326D01*
X115848201Y-95381126D01*
X115860555Y-95508466D01*
X115862605Y-95663222D01*
X115850504Y-95815723D01*
X115824537Y-95965225D01*
X115784988Y-96110984D01*
X115732142Y-96252257D01*
X115666284Y-96388300D01*
X115587697Y-96518370D01*
X115496668Y-96641723D01*
X115393479Y-96757615D01*
X115375617Y-96775657D01*
X115260126Y-96880614D01*
X115137158Y-96973233D01*
X115007268Y-97053263D01*
X114871010Y-97120456D01*
X114728940Y-97174561D01*
X114581611Y-97215331D01*
X114429578Y-97242515D01*
X114311735Y-97253904D01*
X114159027Y-97256344D01*
X114008884Y-97244904D01*
X113862043Y-97220101D01*
X113719241Y-97182456D01*
X113581215Y-97132485D01*
X113448702Y-97070707D01*
X113322440Y-96997641D01*
X113203165Y-96913805D01*
X113091615Y-96819718D01*
X112988527Y-96715897D01*
X112894638Y-96602862D01*
X112810685Y-96481131D01*
X112737406Y-96351221D01*
X112675537Y-96213653D01*
X112625815Y-96068943D01*
X112625564Y-96068085D01*
X112605947Y-95997246D01*
X112590731Y-95932608D01*
X112579444Y-95870586D01*
X112571615Y-95807596D01*
X112566775Y-95740053D01*
X112564451Y-95664372D01*
X112564077Y-95600000D01*
X112300072Y-95600000D01*
X112298095Y-95654725D01*
X112381819Y-95682280D01*
X112465542Y-95709836D01*
X112465542Y-95734351D01*
X112464959Y-95745018D01*
X112461781Y-95753657D01*
X112453865Y-95762102D01*
X112439069Y-95772186D01*
X112415250Y-95785743D01*
X112388780Y-95800042D01*
X112312018Y-95841216D01*
X112316946Y-95877047D01*
X112321155Y-95907540D01*
X112325572Y-95928526D01*
X112332734Y-95942250D01*
X112345178Y-95950956D01*
X112365439Y-95956887D01*
X112396056Y-95962288D01*
X112417129Y-95965668D01*
X112453096Y-95971605D01*
X112477313Y-95976262D01*
X112492359Y-95980668D01*
X112500814Y-95985852D01*
X112505256Y-95992844D01*
X112508077Y-96001979D01*
X112511588Y-96019013D01*
X112511656Y-96029236D01*
X112511562Y-96029432D01*
X112504927Y-96035367D01*
X112488906Y-96047798D01*
X112465968Y-96064853D01*
X112441094Y-96082862D01*
X112373275Y-96131402D01*
X112389686Y-96183201D01*
X112406098Y-96235000D01*
X112582548Y-96239082D01*
X112592546Y-96262441D01*
X112602545Y-96285800D01*
X112540681Y-96348251D01*
X112478818Y-96410703D01*
X112504837Y-96462370D01*
X112518237Y-96488140D01*
X112527851Y-96503242D01*
X112536044Y-96510155D01*
X112545179Y-96511360D01*
X112550814Y-96510601D01*
X112600694Y-96502021D01*
X112638210Y-96495739D01*
X112665312Y-96491648D01*
X112683951Y-96489642D01*
X112696077Y-96489616D01*
X112703640Y-96491463D01*
X112708590Y-96495078D01*
X112712878Y-96500355D01*
X112713938Y-96501745D01*
X112723284Y-96516895D01*
X112726638Y-96527355D01*
X112722616Y-96536683D01*
X112711591Y-96554810D01*
X112695333Y-96578971D01*
X112678919Y-96601916D01*
X112658859Y-96630629D01*
X112644078Y-96654578D01*
X112635974Y-96671350D01*
X112635056Y-96677621D01*
X112641333Y-96688854D01*
X112652938Y-96706049D01*
X112667125Y-96725536D01*
X112681148Y-96743644D01*
X112692262Y-96756701D01*
X112697506Y-96761101D01*
X112705573Y-96759028D01*
X112724567Y-96753428D01*
X112751581Y-96745174D01*
X112781228Y-96735922D01*
X112861057Y-96710785D01*
X112878944Y-96728615D01*
X112896830Y-96746446D01*
X112855606Y-96824879D01*
X112814382Y-96903311D01*
X112855244Y-96944173D01*
X112896106Y-96985036D01*
X112975797Y-96945069D01*
X113055487Y-96905103D01*
X113091381Y-96940997D01*
X113064367Y-97022070D01*
X113054086Y-97053989D01*
X113046190Y-97080581D01*
X113041472Y-97099027D01*
X113040687Y-97106478D01*
X113047750Y-97112172D01*
X113063253Y-97124069D01*
X113083989Y-97139710D01*
X113086269Y-97141417D01*
X113128516Y-97173021D01*
X113197122Y-97123110D01*
X113224800Y-97103467D01*
X113248603Y-97087492D01*
X113265893Y-97076894D01*
X113273849Y-97073361D01*
X113285173Y-97077585D01*
X113298245Y-97086061D01*
X113305677Y-97092294D01*
X113309932Y-97099089D01*
X113311221Y-97109601D01*
X113309755Y-97126987D01*
X113305745Y-97154402D01*
X113303686Y-97167543D01*
X113298562Y-97199385D01*
X113293856Y-97227273D01*
X113290279Y-97247059D01*
X113289124Y-97252671D01*
X113288864Y-97261658D01*
X113294320Y-97269858D01*
X113307873Y-97279363D01*
X113331907Y-97292267D01*
X113337346Y-97295019D01*
X113389297Y-97321181D01*
X113451748Y-97259734D01*
X113478127Y-97233949D01*
X113496509Y-97216933D01*
X113509216Y-97207250D01*
X113518570Y-97203461D01*
X113526894Y-97204128D01*
X113535971Y-97207585D01*
X113557742Y-97216884D01*
X113565000Y-97395562D01*
X113616964Y-97411346D01*
X113668928Y-97427129D01*
X113720521Y-97355941D01*
X113742311Y-97326086D01*
X113757657Y-97306237D01*
X113768592Y-97294618D01*
X113777152Y-97289455D01*
X113785373Y-97288973D01*
X113794728Y-97291238D01*
X113811040Y-97296421D01*
X113819739Y-97300139D01*
X113819888Y-97300269D01*
X113821940Y-97308023D01*
X113825605Y-97327189D01*
X113830355Y-97354822D01*
X113835313Y-97385765D01*
X113848193Y-97468714D01*
X113888025Y-97477086D01*
X113918326Y-97483333D01*
X113939756Y-97485942D01*
X113955209Y-97483226D01*
X113967577Y-97473495D01*
X113979751Y-97455063D01*
X113994625Y-97426240D01*
X114002572Y-97410229D01*
X114040681Y-97333601D01*
X114067377Y-97335843D01*
X114094072Y-97338085D01*
X114144308Y-97501371D01*
X114262921Y-97501371D01*
X114313839Y-97338085D01*
X114313839Y-97338085D01*
G37*
X114313839Y-97338085D02*
X114366575Y-97333601D01*
X114404685Y-97410229D01*
X114421608Y-97444039D01*
X114434589Y-97466733D01*
X114446519Y-97479999D01*
X114460290Y-97485525D01*
X114478796Y-97484999D01*
X114504927Y-97480110D01*
X114519231Y-97477086D01*
X114559063Y-97468714D01*
X114571943Y-97385765D01*
X114577225Y-97352870D01*
X114581922Y-97325687D01*
X114585501Y-97307160D01*
X114587368Y-97300269D01*
X114595409Y-97296710D01*
X114611431Y-97291555D01*
X114612528Y-97291238D01*
X114622312Y-97288914D01*
X114630502Y-97289585D01*
X114639132Y-97295026D01*
X114650237Y-97307010D01*
X114665853Y-97327311D01*
X114686735Y-97355941D01*
X114738328Y-97427129D01*
X114790293Y-97411346D01*
X114842257Y-97395562D01*
X114845885Y-97306223D01*
X114849514Y-97216884D01*
X114871285Y-97207585D01*
X114880782Y-97204013D01*
X114889103Y-97203531D01*
X114898568Y-97207576D01*
X114911500Y-97217587D01*
X114930221Y-97235000D01*
X114955508Y-97259734D01*
X115017960Y-97321181D01*
X115069911Y-97295019D01*
X115096016Y-97281308D01*
X115111224Y-97271361D01*
X115117919Y-97263085D01*
X115118485Y-97254386D01*
X115118133Y-97252671D01*
X115115398Y-97238573D01*
X115111176Y-97214273D01*
X115106175Y-97183917D01*
X115103570Y-97167543D01*
X115098682Y-97135676D01*
X115096262Y-97114991D01*
X115096520Y-97102333D01*
X115099667Y-97094545D01*
X115105914Y-97088473D01*
X115109011Y-97086061D01*
X115123685Y-97076751D01*
X115133407Y-97073361D01*
X115142182Y-97077354D01*
X115159945Y-97088330D01*
X115184059Y-97104577D01*
X115210135Y-97123110D01*
X115278740Y-97173021D01*
X115320987Y-97141417D01*
X115342076Y-97125533D01*
X115358259Y-97113142D01*
X115366329Y-97106703D01*
X115366569Y-97106478D01*
X115365715Y-97098704D01*
X115360912Y-97080032D01*
X115352951Y-97053281D01*
X115342890Y-97022070D01*
X115315875Y-96940997D01*
X115351769Y-96905103D01*
X115431460Y-96945069D01*
X115511150Y-96985036D01*
X115552012Y-96944173D01*
X115592875Y-96903311D01*
X115551650Y-96824879D01*
X115510426Y-96746446D01*
X115546287Y-96710585D01*
X115628596Y-96736363D01*
X115660848Y-96746130D01*
X115687732Y-96753641D01*
X115706431Y-96758151D01*
X115714121Y-96758926D01*
X115723464Y-96747877D01*
X115736634Y-96730353D01*
X115750978Y-96710161D01*
X115763840Y-96691104D01*
X115772566Y-96676989D01*
X115774800Y-96671955D01*
X115770735Y-96663690D01*
X115759726Y-96646493D01*
X115743547Y-96623035D01*
X115727628Y-96600950D01*
X115708492Y-96574052D01*
X115693118Y-96550866D01*
X115683290Y-96534186D01*
X115680618Y-96527355D01*
X115684881Y-96515062D01*
X115693318Y-96501745D01*
X115697723Y-96496113D01*
X115702357Y-96492118D01*
X115709170Y-96489868D01*
X115720112Y-96489468D01*
X115737132Y-96491025D01*
X115762183Y-96494642D01*
X115797212Y-96500428D01*
X115844172Y-96508488D01*
X115856442Y-96510601D01*
X115866929Y-96511314D01*
X115875295Y-96507553D01*
X115883907Y-96496838D01*
X115895126Y-96476690D01*
X115902419Y-96462370D01*
X115928438Y-96410703D01*
X115866575Y-96348251D01*
X115804711Y-96285800D01*
X115814710Y-96262441D01*
X115824708Y-96239082D01*
X115912933Y-96237041D01*
X116001159Y-96235000D01*
X116033981Y-96131402D01*
X115966162Y-96082862D01*
X115939069Y-96063224D01*
X115916637Y-96046499D01*
X115901338Y-96034562D01*
X115895694Y-96029432D01*
X115895583Y-96019685D01*
X115898954Y-96002817D01*
X115899179Y-96001979D01*
X115902202Y-95992350D01*
X115906815Y-95985496D01*
X115915596Y-95980389D01*
X115931124Y-95975997D01*
X115955980Y-95971292D01*
X115990127Y-95965668D01*
X116027195Y-95959647D01*
X116052577Y-95954273D01*
X116068808Y-95947304D01*
X116078427Y-95936494D01*
X116083969Y-95919600D01*
X116087970Y-95894379D01*
X116090310Y-95877047D01*
X116095238Y-95841216D01*
X116018476Y-95800042D01*
X115986056Y-95782465D01*
X115964344Y-95769804D01*
X115951196Y-95760224D01*
X115944472Y-95751892D01*
X115942027Y-95742973D01*
X115941714Y-95734351D01*
X115941714Y-95709836D01*
X116025438Y-95682280D01*
X116109161Y-95654725D01*
X116107080Y-95597108D01*
X116105000Y-95539492D01*
X116025171Y-95512937D01*
X115945342Y-95486383D01*
X115943107Y-95460012D01*
X115940871Y-95433641D01*
X116015678Y-95396244D01*
X116045419Y-95381294D01*
X116070003Y-95368782D01*
X116086752Y-95360081D01*
X116092946Y-95356615D01*
X116093155Y-95348892D01*
X116091328Y-95331250D01*
X116088133Y-95308030D01*
X116084240Y-95283571D01*
X116080319Y-95262214D01*
X116077038Y-95248300D01*
X116075797Y-95245436D01*
X116067780Y-95243018D01*
X116048428Y-95238873D01*
X116020734Y-95233603D01*
X115990999Y-95228370D01*
X115958465Y-95222692D01*
X115931686Y-95217731D01*
X115913605Y-95214053D01*
X115907191Y-95212296D01*
X115903872Y-95204512D01*
X115898832Y-95188640D01*
X115898495Y-95187472D01*
X115896172Y-95177693D01*
X115896841Y-95169506D01*
X115902275Y-95160879D01*
X115914248Y-95149779D01*
X115934533Y-95134173D01*
X115963293Y-95113196D01*
X116034576Y-95061533D01*
X116016518Y-95007824D01*
X115998459Y-94954114D01*
X115824899Y-94954114D01*
X115814805Y-94930528D01*
X115804711Y-94906943D01*
X115866575Y-94844491D01*
X115928438Y-94782040D01*
X115902903Y-94731335D01*
X115877369Y-94680630D01*
X115791822Y-94694237D01*
X115706276Y-94707844D01*
X115693527Y-94691279D01*
X115684128Y-94676519D01*
X115680618Y-94666592D01*
X115684611Y-94657811D01*
X115695582Y-94640050D01*
X115711818Y-94615953D01*
X115730133Y-94590187D01*
X115779808Y-94521904D01*
X115757245Y-94492512D01*
X115741540Y-94471601D01*
X115727839Y-94452607D01*
X115723504Y-94446287D01*
X115712327Y-94429453D01*
X115630291Y-94456789D01*
X115548254Y-94484124D01*
X115512360Y-94448230D01*
X115552326Y-94368540D01*
X115592292Y-94288849D01*
X115510941Y-94207498D01*
X115432759Y-94248792D01*
X115354577Y-94290085D01*
X115335652Y-94271342D01*
X115316728Y-94252598D01*
X115343193Y-94170734D01*
X115353022Y-94138427D01*
X115360142Y-94111221D01*
X115363876Y-94092004D01*
X115363586Y-94083695D01*
X115349882Y-94072984D01*
X115330927Y-94059307D01*
X115310495Y-94045235D01*
X115292360Y-94033339D01*
X115280295Y-94026191D01*
X115277736Y-94025200D01*
X115270090Y-94029251D01*
X115253421Y-94040227D01*
X115230332Y-94056362D01*
X115208207Y-94072371D01*
X115181308Y-94091507D01*
X115158123Y-94106881D01*
X115141443Y-94116710D01*
X115134612Y-94119381D01*
X115122324Y-94115093D01*
X115109170Y-94106681D01*
X115101812Y-94100426D01*
X115097610Y-94093566D01*
X115096355Y-94082943D01*
X115097839Y-94065399D01*
X115101856Y-94037775D01*
X115103813Y-94025200D01*
X115108896Y-93993355D01*
X115113553Y-93965466D01*
X115117083Y-93945680D01*
X115118217Y-93940071D01*
X115118415Y-93931070D01*
X115112880Y-93922841D01*
X115099225Y-93913291D01*
X115075064Y-93900331D01*
X115069911Y-93897723D01*
X115017960Y-93871561D01*
X114954670Y-93934557D01*
X114891381Y-93997554D01*
X114868633Y-93985790D01*
X114845885Y-93974027D01*
X114845885Y-93801540D01*
X114792425Y-93783566D01*
X114738965Y-93765591D01*
X114690272Y-93833623D01*
X114670603Y-93860761D01*
X114653846Y-93883240D01*
X114641872Y-93898594D01*
X114636689Y-93904305D01*
X114626960Y-93904404D01*
X114610027Y-93901035D01*
X114608863Y-93900724D01*
X114600719Y-93898611D01*
X114594567Y-93896030D01*
X114589782Y-93890999D01*
X114585739Y-93881537D01*
X114581812Y-93865662D01*
X114577375Y-93841391D01*
X114571805Y-93806744D01*
X114564569Y-93760341D01*
X114558901Y-93724083D01*
X114505469Y-93714514D01*
X114478988Y-93710636D01*
X114458185Y-93709192D01*
X114447028Y-93710429D01*
X114446435Y-93710858D01*
X114440925Y-93719355D01*
X114430306Y-93737827D01*
X114416200Y-93763394D01*
X114403020Y-93787916D01*
X114365206Y-93859060D01*
X114338909Y-93856858D01*
X114312611Y-93854657D01*
X114262255Y-93691371D01*
X114203913Y-93691392D01*
X114145571Y-93691412D01*
X114120068Y-93773035D01*
X114094565Y-93854657D01*
X114068307Y-93856858D01*
X114042050Y-93859060D01*
X114004236Y-93787916D01*
X113988472Y-93758652D01*
X113974846Y-93734092D01*
X113964984Y-93717119D01*
X113960821Y-93710858D01*
X113951443Y-93709201D01*
X113931827Y-93710260D01*
X113905941Y-93713791D01*
X113901787Y-93714514D01*
X113848355Y-93724083D01*
X113842687Y-93760341D01*
X113835380Y-93807198D01*
X113829826Y-93841717D01*
X113825399Y-93865883D01*
X113821474Y-93881675D01*
X113817425Y-93891076D01*
X113812629Y-93896069D01*
X113806458Y-93898633D01*
X113798393Y-93900724D01*
X113781227Y-93904284D01*
X113770843Y-93904431D01*
X113770567Y-93904305D01*
X113764635Y-93897672D01*
X113752202Y-93881647D01*
X113735139Y-93858697D01*
X113716984Y-93833623D01*
X113668291Y-93765591D01*
X113614831Y-93783566D01*
X113561371Y-93801540D01*
X113561371Y-93974027D01*
X113538623Y-93985790D01*
X113515876Y-93997554D01*
X113452586Y-93934557D01*
X113389297Y-93871561D01*
X113337346Y-93897723D01*
X113311225Y-93911447D01*
X113296003Y-93921415D01*
X113289294Y-93929718D01*
X113288713Y-93938447D01*
X113289040Y-93940071D01*
X113291730Y-93954171D01*
X113295904Y-93978473D01*
X113300859Y-94008832D01*
X113303443Y-94025200D01*
X113308294Y-94057078D01*
X113310685Y-94077776D01*
X113310408Y-94090452D01*
X113307256Y-94098265D01*
X113301021Y-94104373D01*
X113298086Y-94106681D01*
X113283012Y-94116051D01*
X113272644Y-94119381D01*
X113263291Y-94115361D01*
X113245169Y-94104349D01*
X113221068Y-94088128D01*
X113199050Y-94072371D01*
X113172614Y-94053300D01*
X113150443Y-94037925D01*
X113135139Y-94028013D01*
X113129520Y-94025200D01*
X113121834Y-94029064D01*
X113106218Y-94038942D01*
X113086446Y-94052263D01*
X113066292Y-94066456D01*
X113049529Y-94078949D01*
X113043670Y-94083695D01*
X113043408Y-94092217D01*
X113047197Y-94111574D01*
X113054362Y-94138877D01*
X113064063Y-94170734D01*
X113090528Y-94252598D01*
X113071604Y-94271342D01*
X113052679Y-94290085D01*
X112974497Y-94248792D01*
X112896315Y-94207498D01*
X112814964Y-94288849D01*
X112854930Y-94368540D01*
X112894896Y-94448230D01*
X112859002Y-94484124D01*
X112776966Y-94456789D01*
X112694929Y-94429453D01*
X112683752Y-94446287D01*
X112672578Y-94462200D01*
X112657208Y-94483035D01*
X112650011Y-94492512D01*
X112627448Y-94521904D01*
X112677124Y-94590187D01*
X112696717Y-94617801D01*
X112712639Y-94641538D01*
X112723175Y-94658754D01*
X112726638Y-94666592D01*
X112722417Y-94677878D01*
X112713729Y-94691279D01*
X112700981Y-94707844D01*
X112529887Y-94680630D01*
X112504353Y-94731335D01*
X112478818Y-94782040D01*
X112540681Y-94844491D01*
X112602545Y-94906943D01*
X112592451Y-94930528D01*
X112582357Y-94954114D01*
X112408797Y-94954114D01*
X112390739Y-95007824D01*
X112372680Y-95061533D01*
X112443964Y-95113196D01*
X112473841Y-95135002D01*
X112493713Y-95150362D01*
X112505353Y-95161306D01*
X112510534Y-95169869D01*
X112511030Y-95178084D01*
X112508761Y-95187472D01*
X112503681Y-95203664D01*
X112500188Y-95212152D01*
X112500065Y-95212296D01*
X112492462Y-95214315D01*
X112473482Y-95218131D01*
X112446067Y-95223179D01*
X112416258Y-95228370D01*
X112383595Y-95234139D01*
X112356570Y-95239328D01*
X112338172Y-95243333D01*
X112331459Y-95245436D01*
X112328783Y-95253700D01*
X112325115Y-95271688D01*
X112321124Y-95295058D01*
X112317479Y-95319470D01*
X112314849Y-95340585D01*
X112313905Y-95354060D01*
X112314310Y-95356615D01*
X112321397Y-95360553D01*
X112338803Y-95369577D01*
X112363850Y-95382312D01*
X112391578Y-95396244D01*
X112466385Y-95433641D01*
X112464150Y-95460012D01*
X112461914Y-95486383D01*
X112382085Y-95512937D01*
X112302257Y-95539492D01*
X112300176Y-95597108D01*
X112300072Y-95600000D01*
X112564077Y-95600000D01*
X112564958Y-95520760D01*
X112567564Y-95452458D01*
X112572355Y-95391569D01*
X112579793Y-95334573D01*
X112590337Y-95277946D01*
X112604450Y-95218165D01*
X112622591Y-95151709D01*
X112622842Y-95150835D01*
X112671593Y-95006221D01*
X112732767Y-94868153D01*
X112805643Y-94737271D01*
X112889504Y-94614217D01*
X112983630Y-94499630D01*
X113087302Y-94394151D01*
X113199802Y-94298420D01*
X113320410Y-94213079D01*
X113448409Y-94138768D01*
X113583078Y-94076127D01*
X113723700Y-94025796D01*
X113869555Y-93988417D01*
X113942371Y-93975078D01*
X113986331Y-93968208D01*
X114022776Y-93963039D01*
X114054960Y-93959375D01*
X114086136Y-93957020D01*
X114119559Y-93955780D01*
X114158482Y-93955457D01*
X114206160Y-93955857D01*
X114250800Y-93956532D01*
X114310988Y-93957983D01*
X114360950Y-93960380D01*
X114404961Y-93964085D01*
X114447297Y-93969461D01*
X114492234Y-93976873D01*
X114493914Y-93977175D01*
X114645530Y-94011565D01*
X114790952Y-94058612D01*
X114929616Y-94117685D01*
X115060961Y-94188154D01*
X115184425Y-94269391D01*
X115299446Y-94360765D01*
X115405461Y-94461647D01*
X115501908Y-94571406D01*
X115588226Y-94689414D01*
X115663853Y-94815039D01*
X115728226Y-94947653D01*
X115780783Y-95086625D01*
X115820962Y-95231326D01*
X115848201Y-95381126D01*
X115860555Y-95508466D01*
X115862605Y-95663222D01*
X115850504Y-95815723D01*
X115824537Y-95965225D01*
X115784988Y-96110984D01*
X115732142Y-96252257D01*
X115666284Y-96388300D01*
X115587697Y-96518370D01*
X115496668Y-96641723D01*
X115393479Y-96757615D01*
X115375617Y-96775657D01*
X115260126Y-96880614D01*
X115137158Y-96973233D01*
X115007268Y-97053263D01*
X114871010Y-97120456D01*
X114728940Y-97174561D01*
X114581611Y-97215331D01*
X114429578Y-97242515D01*
X114311735Y-97253904D01*
X114159027Y-97256344D01*
X114008884Y-97244904D01*
X113862043Y-97220101D01*
X113719241Y-97182456D01*
X113581215Y-97132485D01*
X113448702Y-97070707D01*
X113322440Y-96997641D01*
X113203165Y-96913805D01*
X113091615Y-96819718D01*
X112988527Y-96715897D01*
X112894638Y-96602862D01*
X112810685Y-96481131D01*
X112737406Y-96351221D01*
X112675537Y-96213653D01*
X112625815Y-96068943D01*
X112625564Y-96068085D01*
X112605947Y-95997246D01*
X112590731Y-95932608D01*
X112579444Y-95870586D01*
X112571615Y-95807596D01*
X112566775Y-95740053D01*
X112564451Y-95664372D01*
X112564077Y-95600000D01*
X112300072Y-95600000D01*
X112298095Y-95654725D01*
X112381819Y-95682280D01*
X112465542Y-95709836D01*
X112465542Y-95734351D01*
X112464959Y-95745018D01*
X112461781Y-95753657D01*
X112453865Y-95762102D01*
X112439069Y-95772186D01*
X112415250Y-95785743D01*
X112388780Y-95800042D01*
X112312018Y-95841216D01*
X112316946Y-95877047D01*
X112321155Y-95907540D01*
X112325572Y-95928526D01*
X112332734Y-95942250D01*
X112345178Y-95950956D01*
X112365439Y-95956887D01*
X112396056Y-95962288D01*
X112417129Y-95965668D01*
X112453096Y-95971605D01*
X112477313Y-95976262D01*
X112492359Y-95980668D01*
X112500814Y-95985852D01*
X112505256Y-95992844D01*
X112508077Y-96001979D01*
X112511588Y-96019013D01*
X112511656Y-96029236D01*
X112511562Y-96029432D01*
X112504927Y-96035367D01*
X112488906Y-96047798D01*
X112465968Y-96064853D01*
X112441094Y-96082862D01*
X112373275Y-96131402D01*
X112389686Y-96183201D01*
X112406098Y-96235000D01*
X112582548Y-96239082D01*
X112592546Y-96262441D01*
X112602545Y-96285800D01*
X112540681Y-96348251D01*
X112478818Y-96410703D01*
X112504837Y-96462370D01*
X112518237Y-96488140D01*
X112527851Y-96503242D01*
X112536044Y-96510155D01*
X112545179Y-96511360D01*
X112550814Y-96510601D01*
X112600694Y-96502021D01*
X112638210Y-96495739D01*
X112665312Y-96491648D01*
X112683951Y-96489642D01*
X112696077Y-96489616D01*
X112703640Y-96491463D01*
X112708590Y-96495078D01*
X112712878Y-96500355D01*
X112713938Y-96501745D01*
X112723284Y-96516895D01*
X112726638Y-96527355D01*
X112722616Y-96536683D01*
X112711591Y-96554810D01*
X112695333Y-96578971D01*
X112678919Y-96601916D01*
X112658859Y-96630629D01*
X112644078Y-96654578D01*
X112635974Y-96671350D01*
X112635056Y-96677621D01*
X112641333Y-96688854D01*
X112652938Y-96706049D01*
X112667125Y-96725536D01*
X112681148Y-96743644D01*
X112692262Y-96756701D01*
X112697506Y-96761101D01*
X112705573Y-96759028D01*
X112724567Y-96753428D01*
X112751581Y-96745174D01*
X112781228Y-96735922D01*
X112861057Y-96710785D01*
X112878944Y-96728615D01*
X112896830Y-96746446D01*
X112855606Y-96824879D01*
X112814382Y-96903311D01*
X112855244Y-96944173D01*
X112896106Y-96985036D01*
X112975797Y-96945069D01*
X113055487Y-96905103D01*
X113091381Y-96940997D01*
X113064367Y-97022070D01*
X113054086Y-97053989D01*
X113046190Y-97080581D01*
X113041472Y-97099027D01*
X113040687Y-97106478D01*
X113047750Y-97112172D01*
X113063253Y-97124069D01*
X113083989Y-97139710D01*
X113086269Y-97141417D01*
X113128516Y-97173021D01*
X113197122Y-97123110D01*
X113224800Y-97103467D01*
X113248603Y-97087492D01*
X113265893Y-97076894D01*
X113273849Y-97073361D01*
X113285173Y-97077585D01*
X113298245Y-97086061D01*
X113305677Y-97092294D01*
X113309932Y-97099089D01*
X113311221Y-97109601D01*
X113309755Y-97126987D01*
X113305745Y-97154402D01*
X113303686Y-97167543D01*
X113298562Y-97199385D01*
X113293856Y-97227273D01*
X113290279Y-97247059D01*
X113289124Y-97252671D01*
X113288864Y-97261658D01*
X113294320Y-97269858D01*
X113307873Y-97279363D01*
X113331907Y-97292267D01*
X113337346Y-97295019D01*
X113389297Y-97321181D01*
X113451748Y-97259734D01*
X113478127Y-97233949D01*
X113496509Y-97216933D01*
X113509216Y-97207250D01*
X113518570Y-97203461D01*
X113526894Y-97204128D01*
X113535971Y-97207585D01*
X113557742Y-97216884D01*
X113565000Y-97395562D01*
X113616964Y-97411346D01*
X113668928Y-97427129D01*
X113720521Y-97355941D01*
X113742311Y-97326086D01*
X113757657Y-97306237D01*
X113768592Y-97294618D01*
X113777152Y-97289455D01*
X113785373Y-97288973D01*
X113794728Y-97291238D01*
X113811040Y-97296421D01*
X113819739Y-97300139D01*
X113819888Y-97300269D01*
X113821940Y-97308023D01*
X113825605Y-97327189D01*
X113830355Y-97354822D01*
X113835313Y-97385765D01*
X113848193Y-97468714D01*
X113888025Y-97477086D01*
X113918326Y-97483333D01*
X113939756Y-97485942D01*
X113955209Y-97483226D01*
X113967577Y-97473495D01*
X113979751Y-97455063D01*
X113994625Y-97426240D01*
X114002572Y-97410229D01*
X114040681Y-97333601D01*
X114067377Y-97335843D01*
X114094072Y-97338085D01*
X114144308Y-97501371D01*
X114262921Y-97501371D01*
X114313839Y-97338085D01*
G04 #@! TO.C,Q5*
D11*
X180695238Y-96347619D02*
X180790476Y-96300000D01*
X180885714Y-96204761D01*
X181028571Y-96061904D01*
X181123809Y-96014285D01*
X181219047Y-96014285D01*
X181171428Y-96252380D02*
X181266666Y-96204761D01*
X181361904Y-96109523D01*
X181409523Y-95919047D01*
X181409523Y-95585714D01*
X181361904Y-95395238D01*
X181266666Y-95300000D01*
X181171428Y-95252380D01*
X180980952Y-95252380D01*
X180885714Y-95300000D01*
X180790476Y-95395238D01*
X180742857Y-95585714D01*
X180742857Y-95919047D01*
X180790476Y-96109523D01*
X180885714Y-96204761D01*
X180980952Y-96252380D01*
X181171428Y-96252380D01*
X179838095Y-95252380D02*
X180314285Y-95252380D01*
X180361904Y-95728571D01*
X180314285Y-95680952D01*
X180219047Y-95633333D01*
X179980952Y-95633333D01*
X179885714Y-95680952D01*
X179838095Y-95728571D01*
X179790476Y-95823809D01*
X179790476Y-96061904D01*
X179838095Y-96157142D01*
X179885714Y-96204761D01*
X179980952Y-96252380D01*
X180219047Y-96252380D01*
X180314285Y-96204761D01*
X180361904Y-96157142D01*
X177290476Y-97957142D02*
X177338095Y-98004761D01*
X177480952Y-98052380D01*
X177576190Y-98052380D01*
X177719047Y-98004761D01*
X177814285Y-97909523D01*
X177861904Y-97814285D01*
X177909523Y-97623809D01*
X177909523Y-97480952D01*
X177861904Y-97290476D01*
X177814285Y-97195238D01*
X177719047Y-97100000D01*
X177576190Y-97052380D01*
X177480952Y-97052380D01*
X177338095Y-97100000D01*
X177290476Y-97147619D01*
X183814285Y-97528571D02*
X183480952Y-97528571D01*
X183338095Y-98052380D02*
X183814285Y-98052380D01*
X183814285Y-97052380D01*
X183338095Y-97052380D01*
G04 #@! TO.C,C1*
X152066666Y-91457142D02*
X152114285Y-91504761D01*
X152257142Y-91552380D01*
X152352380Y-91552380D01*
X152495238Y-91504761D01*
X152590476Y-91409523D01*
X152638095Y-91314285D01*
X152685714Y-91123809D01*
X152685714Y-90980952D01*
X152638095Y-90790476D01*
X152590476Y-90695238D01*
X152495238Y-90600000D01*
X152352380Y-90552380D01*
X152257142Y-90552380D01*
X152114285Y-90600000D01*
X152066666Y-90647619D01*
X151114285Y-91552380D02*
X151685714Y-91552380D01*
X151400000Y-91552380D02*
X151400000Y-90552380D01*
X151495238Y-90695238D01*
X151590476Y-90790476D01*
X151685714Y-90838095D01*
G04 #@! TO.C,C2*
X148666666Y-91457142D02*
X148714285Y-91504761D01*
X148857142Y-91552380D01*
X148952380Y-91552380D01*
X149095238Y-91504761D01*
X149190476Y-91409523D01*
X149238095Y-91314285D01*
X149285714Y-91123809D01*
X149285714Y-90980952D01*
X149238095Y-90790476D01*
X149190476Y-90695238D01*
X149095238Y-90600000D01*
X148952380Y-90552380D01*
X148857142Y-90552380D01*
X148714285Y-90600000D01*
X148666666Y-90647619D01*
X148285714Y-90647619D02*
X148238095Y-90600000D01*
X148142857Y-90552380D01*
X147904761Y-90552380D01*
X147809523Y-90600000D01*
X147761904Y-90647619D01*
X147714285Y-90742857D01*
X147714285Y-90838095D01*
X147761904Y-90980952D01*
X148333333Y-91552380D01*
X147714285Y-91552380D01*
G04 #@! TO.C,D1*
X84938095Y-91552380D02*
X84938095Y-90552380D01*
X84700000Y-90552380D01*
X84557142Y-90600000D01*
X84461904Y-90695238D01*
X84414285Y-90790476D01*
X84366666Y-90980952D01*
X84366666Y-91123809D01*
X84414285Y-91314285D01*
X84461904Y-91409523D01*
X84557142Y-91504761D01*
X84700000Y-91552380D01*
X84938095Y-91552380D01*
X83414285Y-91552380D02*
X83985714Y-91552380D01*
X83700000Y-91552380D02*
X83700000Y-90552380D01*
X83795238Y-90695238D01*
X83890476Y-90790476D01*
X83985714Y-90838095D01*
G04 #@! TO.C,D2*
X120538095Y-91652380D02*
X120538095Y-90652380D01*
X120300000Y-90652380D01*
X120157142Y-90700000D01*
X120061904Y-90795238D01*
X120014285Y-90890476D01*
X119966666Y-91080952D01*
X119966666Y-91223809D01*
X120014285Y-91414285D01*
X120061904Y-91509523D01*
X120157142Y-91604761D01*
X120300000Y-91652380D01*
X120538095Y-91652380D01*
X119585714Y-90747619D02*
X119538095Y-90700000D01*
X119442857Y-90652380D01*
X119204761Y-90652380D01*
X119109523Y-90700000D01*
X119061904Y-90747619D01*
X119014285Y-90842857D01*
X119014285Y-90938095D01*
X119061904Y-91080952D01*
X119633333Y-91652380D01*
X119014285Y-91652380D01*
G04 #@! TO.C,D3*
X146338095Y-91552380D02*
X146338095Y-90552380D01*
X146100000Y-90552380D01*
X145957142Y-90600000D01*
X145861904Y-90695238D01*
X145814285Y-90790476D01*
X145766666Y-90980952D01*
X145766666Y-91123809D01*
X145814285Y-91314285D01*
X145861904Y-91409523D01*
X145957142Y-91504761D01*
X146100000Y-91552380D01*
X146338095Y-91552380D01*
X145433333Y-90552380D02*
X144814285Y-90552380D01*
X145147619Y-90933333D01*
X145004761Y-90933333D01*
X144909523Y-90980952D01*
X144861904Y-91028571D01*
X144814285Y-91123809D01*
X144814285Y-91361904D01*
X144861904Y-91457142D01*
X144909523Y-91504761D01*
X145004761Y-91552380D01*
X145290476Y-91552380D01*
X145385714Y-91504761D01*
X145433333Y-91457142D01*
G04 #@! TO.C,D4*
X155438095Y-91552380D02*
X155438095Y-90552380D01*
X155200000Y-90552380D01*
X155057142Y-90600000D01*
X154961904Y-90695238D01*
X154914285Y-90790476D01*
X154866666Y-90980952D01*
X154866666Y-91123809D01*
X154914285Y-91314285D01*
X154961904Y-91409523D01*
X155057142Y-91504761D01*
X155200000Y-91552380D01*
X155438095Y-91552380D01*
X154009523Y-90885714D02*
X154009523Y-91552380D01*
X154247619Y-90504761D02*
X154485714Y-91219047D01*
X153866666Y-91219047D01*
G04 #@! TO.C,D5*
X181338095Y-91452380D02*
X181338095Y-90452380D01*
X181100000Y-90452380D01*
X180957142Y-90500000D01*
X180861904Y-90595238D01*
X180814285Y-90690476D01*
X180766666Y-90880952D01*
X180766666Y-91023809D01*
X180814285Y-91214285D01*
X180861904Y-91309523D01*
X180957142Y-91404761D01*
X181100000Y-91452380D01*
X181338095Y-91452380D01*
X179861904Y-90452380D02*
X180338095Y-90452380D01*
X180385714Y-90928571D01*
X180338095Y-90880952D01*
X180242857Y-90833333D01*
X180004761Y-90833333D01*
X179909523Y-90880952D01*
X179861904Y-90928571D01*
X179814285Y-91023809D01*
X179814285Y-91261904D01*
X179861904Y-91357142D01*
X179909523Y-91404761D01*
X180004761Y-91452380D01*
X180242857Y-91452380D01*
X180338095Y-91404761D01*
X180385714Y-91357142D01*
G04 #@! TO.C,D6*
X217038095Y-91452380D02*
X217038095Y-90452380D01*
X216800000Y-90452380D01*
X216657142Y-90500000D01*
X216561904Y-90595238D01*
X216514285Y-90690476D01*
X216466666Y-90880952D01*
X216466666Y-91023809D01*
X216514285Y-91214285D01*
X216561904Y-91309523D01*
X216657142Y-91404761D01*
X216800000Y-91452380D01*
X217038095Y-91452380D01*
X215609523Y-90452380D02*
X215800000Y-90452380D01*
X215895238Y-90500000D01*
X215942857Y-90547619D01*
X216038095Y-90690476D01*
X216085714Y-90880952D01*
X216085714Y-91261904D01*
X216038095Y-91357142D01*
X215990476Y-91404761D01*
X215895238Y-91452380D01*
X215704761Y-91452380D01*
X215609523Y-91404761D01*
X215561904Y-91357142D01*
X215514285Y-91261904D01*
X215514285Y-91023809D01*
X215561904Y-90928571D01*
X215609523Y-90880952D01*
X215704761Y-90833333D01*
X215895238Y-90833333D01*
X215990476Y-90880952D01*
X216038095Y-90928571D01*
X216085714Y-91023809D01*
G04 #@! TO.C,P1*
X150638095Y-105952380D02*
X150638095Y-104952380D01*
X150257142Y-104952380D01*
X150161904Y-105000000D01*
X150114285Y-105047619D01*
X150066666Y-105142857D01*
X150066666Y-105285714D01*
X150114285Y-105380952D01*
X150161904Y-105428571D01*
X150257142Y-105476190D01*
X150638095Y-105476190D01*
X149114285Y-105952380D02*
X149685714Y-105952380D01*
X149400000Y-105952380D02*
X149400000Y-104952380D01*
X149495238Y-105095238D01*
X149590476Y-105190476D01*
X149685714Y-105238095D01*
G04 #@! TO.C,Q1*
X84495238Y-96247619D02*
X84590476Y-96200000D01*
X84685714Y-96104761D01*
X84828571Y-95961904D01*
X84923809Y-95914285D01*
X85019047Y-95914285D01*
X84971428Y-96152380D02*
X85066666Y-96104761D01*
X85161904Y-96009523D01*
X85209523Y-95819047D01*
X85209523Y-95485714D01*
X85161904Y-95295238D01*
X85066666Y-95200000D01*
X84971428Y-95152380D01*
X84780952Y-95152380D01*
X84685714Y-95200000D01*
X84590476Y-95295238D01*
X84542857Y-95485714D01*
X84542857Y-95819047D01*
X84590476Y-96009523D01*
X84685714Y-96104761D01*
X84780952Y-96152380D01*
X84971428Y-96152380D01*
X83590476Y-96152380D02*
X84161904Y-96152380D01*
X83876190Y-96152380D02*
X83876190Y-95152380D01*
X83971428Y-95295238D01*
X84066666Y-95390476D01*
X84161904Y-95438095D01*
X87090476Y-97757142D02*
X87138095Y-97804761D01*
X87280952Y-97852380D01*
X87376190Y-97852380D01*
X87519047Y-97804761D01*
X87614285Y-97709523D01*
X87661904Y-97614285D01*
X87709523Y-97423809D01*
X87709523Y-97280952D01*
X87661904Y-97090476D01*
X87614285Y-96995238D01*
X87519047Y-96900000D01*
X87376190Y-96852380D01*
X87280952Y-96852380D01*
X87138095Y-96900000D01*
X87090476Y-96947619D01*
X82189285Y-97328571D02*
X81855952Y-97328571D01*
X81713095Y-97852380D02*
X82189285Y-97852380D01*
X82189285Y-96852380D01*
X81713095Y-96852380D01*
G04 #@! TO.C,Q2*
X119995238Y-96347619D02*
X120090476Y-96300000D01*
X120185714Y-96204761D01*
X120328571Y-96061904D01*
X120423809Y-96014285D01*
X120519047Y-96014285D01*
X120471428Y-96252380D02*
X120566666Y-96204761D01*
X120661904Y-96109523D01*
X120709523Y-95919047D01*
X120709523Y-95585714D01*
X120661904Y-95395238D01*
X120566666Y-95300000D01*
X120471428Y-95252380D01*
X120280952Y-95252380D01*
X120185714Y-95300000D01*
X120090476Y-95395238D01*
X120042857Y-95585714D01*
X120042857Y-95919047D01*
X120090476Y-96109523D01*
X120185714Y-96204761D01*
X120280952Y-96252380D01*
X120471428Y-96252380D01*
X119661904Y-95347619D02*
X119614285Y-95300000D01*
X119519047Y-95252380D01*
X119280952Y-95252380D01*
X119185714Y-95300000D01*
X119138095Y-95347619D01*
X119090476Y-95442857D01*
X119090476Y-95538095D01*
X119138095Y-95680952D01*
X119709523Y-96252380D01*
X119090476Y-96252380D01*
X122490476Y-97757142D02*
X122538095Y-97804761D01*
X122680952Y-97852380D01*
X122776190Y-97852380D01*
X122919047Y-97804761D01*
X123014285Y-97709523D01*
X123061904Y-97614285D01*
X123109523Y-97423809D01*
X123109523Y-97280952D01*
X123061904Y-97090476D01*
X123014285Y-96995238D01*
X122919047Y-96900000D01*
X122776190Y-96852380D01*
X122680952Y-96852380D01*
X122538095Y-96900000D01*
X122490476Y-96947619D01*
X117014285Y-97328571D02*
X116680952Y-97328571D01*
X116538095Y-97852380D02*
X117014285Y-97852380D01*
X117014285Y-96852380D01*
X116538095Y-96852380D01*
G04 #@! TO.C,Q3*
X145895238Y-96147619D02*
X145990476Y-96100000D01*
X146085714Y-96004761D01*
X146228571Y-95861904D01*
X146323809Y-95814285D01*
X146419047Y-95814285D01*
X146371428Y-96052380D02*
X146466666Y-96004761D01*
X146561904Y-95909523D01*
X146609523Y-95719047D01*
X146609523Y-95385714D01*
X146561904Y-95195238D01*
X146466666Y-95100000D01*
X146371428Y-95052380D01*
X146180952Y-95052380D01*
X146085714Y-95100000D01*
X145990476Y-95195238D01*
X145942857Y-95385714D01*
X145942857Y-95719047D01*
X145990476Y-95909523D01*
X146085714Y-96004761D01*
X146180952Y-96052380D01*
X146371428Y-96052380D01*
X145609523Y-95052380D02*
X144990476Y-95052380D01*
X145323809Y-95433333D01*
X145180952Y-95433333D01*
X145085714Y-95480952D01*
X145038095Y-95528571D01*
X144990476Y-95623809D01*
X144990476Y-95861904D01*
X145038095Y-95957142D01*
X145085714Y-96004761D01*
X145180952Y-96052380D01*
X145466666Y-96052380D01*
X145561904Y-96004761D01*
X145609523Y-95957142D01*
X148390476Y-97757142D02*
X148438095Y-97804761D01*
X148580952Y-97852380D01*
X148676190Y-97852380D01*
X148819047Y-97804761D01*
X148914285Y-97709523D01*
X148961904Y-97614285D01*
X149009523Y-97423809D01*
X149009523Y-97280952D01*
X148961904Y-97090476D01*
X148914285Y-96995238D01*
X148819047Y-96900000D01*
X148676190Y-96852380D01*
X148580952Y-96852380D01*
X148438095Y-96900000D01*
X148390476Y-96947619D01*
X142914285Y-97328571D02*
X142580952Y-97328571D01*
X142438095Y-97852380D02*
X142914285Y-97852380D01*
X142914285Y-96852380D01*
X142438095Y-96852380D01*
G04 #@! TO.C,Q4*
X154795238Y-96347619D02*
X154890476Y-96300000D01*
X154985714Y-96204761D01*
X155128571Y-96061904D01*
X155223809Y-96014285D01*
X155319047Y-96014285D01*
X155271428Y-96252380D02*
X155366666Y-96204761D01*
X155461904Y-96109523D01*
X155509523Y-95919047D01*
X155509523Y-95585714D01*
X155461904Y-95395238D01*
X155366666Y-95300000D01*
X155271428Y-95252380D01*
X155080952Y-95252380D01*
X154985714Y-95300000D01*
X154890476Y-95395238D01*
X154842857Y-95585714D01*
X154842857Y-95919047D01*
X154890476Y-96109523D01*
X154985714Y-96204761D01*
X155080952Y-96252380D01*
X155271428Y-96252380D01*
X153985714Y-95585714D02*
X153985714Y-96252380D01*
X154223809Y-95204761D02*
X154461904Y-95919047D01*
X153842857Y-95919047D01*
X151390476Y-97957142D02*
X151438095Y-98004761D01*
X151580952Y-98052380D01*
X151676190Y-98052380D01*
X151819047Y-98004761D01*
X151914285Y-97909523D01*
X151961904Y-97814285D01*
X152009523Y-97623809D01*
X152009523Y-97480952D01*
X151961904Y-97290476D01*
X151914285Y-97195238D01*
X151819047Y-97100000D01*
X151676190Y-97052380D01*
X151580952Y-97052380D01*
X151438095Y-97100000D01*
X151390476Y-97147619D01*
X157914285Y-97528571D02*
X157580952Y-97528571D01*
X157438095Y-98052380D02*
X157914285Y-98052380D01*
X157914285Y-97052380D01*
X157438095Y-97052380D01*
G04 #@! TO.C,Q6*
X216195238Y-96347619D02*
X216290476Y-96300000D01*
X216385714Y-96204761D01*
X216528571Y-96061904D01*
X216623809Y-96014285D01*
X216719047Y-96014285D01*
X216671428Y-96252380D02*
X216766666Y-96204761D01*
X216861904Y-96109523D01*
X216909523Y-95919047D01*
X216909523Y-95585714D01*
X216861904Y-95395238D01*
X216766666Y-95300000D01*
X216671428Y-95252380D01*
X216480952Y-95252380D01*
X216385714Y-95300000D01*
X216290476Y-95395238D01*
X216242857Y-95585714D01*
X216242857Y-95919047D01*
X216290476Y-96109523D01*
X216385714Y-96204761D01*
X216480952Y-96252380D01*
X216671428Y-96252380D01*
X215385714Y-95252380D02*
X215576190Y-95252380D01*
X215671428Y-95300000D01*
X215719047Y-95347619D01*
X215814285Y-95490476D01*
X215861904Y-95680952D01*
X215861904Y-96061904D01*
X215814285Y-96157142D01*
X215766666Y-96204761D01*
X215671428Y-96252380D01*
X215480952Y-96252380D01*
X215385714Y-96204761D01*
X215338095Y-96157142D01*
X215290476Y-96061904D01*
X215290476Y-95823809D01*
X215338095Y-95728571D01*
X215385714Y-95680952D01*
X215480952Y-95633333D01*
X215671428Y-95633333D01*
X215766666Y-95680952D01*
X215814285Y-95728571D01*
X215861904Y-95823809D01*
X212765476Y-97932142D02*
X212813095Y-97979761D01*
X212955952Y-98027380D01*
X213051190Y-98027380D01*
X213194047Y-97979761D01*
X213289285Y-97884523D01*
X213336904Y-97789285D01*
X213384523Y-97598809D01*
X213384523Y-97455952D01*
X213336904Y-97265476D01*
X213289285Y-97170238D01*
X213194047Y-97075000D01*
X213051190Y-97027380D01*
X212955952Y-97027380D01*
X212813095Y-97075000D01*
X212765476Y-97122619D01*
X218539285Y-97428571D02*
X218205952Y-97428571D01*
X218063095Y-97952380D02*
X218539285Y-97952380D01*
X218539285Y-96952380D01*
X218063095Y-96952380D01*
G04 #@! TO.C,R1*
X87366666Y-91552380D02*
X87700000Y-91076190D01*
X87938095Y-91552380D02*
X87938095Y-90552380D01*
X87557142Y-90552380D01*
X87461904Y-90600000D01*
X87414285Y-90647619D01*
X87366666Y-90742857D01*
X87366666Y-90885714D01*
X87414285Y-90980952D01*
X87461904Y-91028571D01*
X87557142Y-91076190D01*
X87938095Y-91076190D01*
X86414285Y-91552380D02*
X86985714Y-91552380D01*
X86700000Y-91552380D02*
X86700000Y-90552380D01*
X86795238Y-90695238D01*
X86890476Y-90790476D01*
X86985714Y-90838095D01*
G04 #@! TO.C,R2*
X122866666Y-91652380D02*
X123200000Y-91176190D01*
X123438095Y-91652380D02*
X123438095Y-90652380D01*
X123057142Y-90652380D01*
X122961904Y-90700000D01*
X122914285Y-90747619D01*
X122866666Y-90842857D01*
X122866666Y-90985714D01*
X122914285Y-91080952D01*
X122961904Y-91128571D01*
X123057142Y-91176190D01*
X123438095Y-91176190D01*
X122485714Y-90747619D02*
X122438095Y-90700000D01*
X122342857Y-90652380D01*
X122104761Y-90652380D01*
X122009523Y-90700000D01*
X121961904Y-90747619D01*
X121914285Y-90842857D01*
X121914285Y-90938095D01*
X121961904Y-91080952D01*
X122533333Y-91652380D01*
X121914285Y-91652380D01*
G04 #@! TO.C,R3*
X141866666Y-91552380D02*
X142200000Y-91076190D01*
X142438095Y-91552380D02*
X142438095Y-90552380D01*
X142057142Y-90552380D01*
X141961904Y-90600000D01*
X141914285Y-90647619D01*
X141866666Y-90742857D01*
X141866666Y-90885714D01*
X141914285Y-90980952D01*
X141961904Y-91028571D01*
X142057142Y-91076190D01*
X142438095Y-91076190D01*
X141533333Y-90552380D02*
X140914285Y-90552380D01*
X141247619Y-90933333D01*
X141104761Y-90933333D01*
X141009523Y-90980952D01*
X140961904Y-91028571D01*
X140914285Y-91123809D01*
X140914285Y-91361904D01*
X140961904Y-91457142D01*
X141009523Y-91504761D01*
X141104761Y-91552380D01*
X141390476Y-91552380D01*
X141485714Y-91504761D01*
X141533333Y-91457142D01*
G04 #@! TO.C,R4*
X158766666Y-91552380D02*
X159100000Y-91076190D01*
X159338095Y-91552380D02*
X159338095Y-90552380D01*
X158957142Y-90552380D01*
X158861904Y-90600000D01*
X158814285Y-90647619D01*
X158766666Y-90742857D01*
X158766666Y-90885714D01*
X158814285Y-90980952D01*
X158861904Y-91028571D01*
X158957142Y-91076190D01*
X159338095Y-91076190D01*
X157909523Y-90885714D02*
X157909523Y-91552380D01*
X158147619Y-90504761D02*
X158385714Y-91219047D01*
X157766666Y-91219047D01*
G04 #@! TO.C,R5*
X177866666Y-91452380D02*
X178200000Y-90976190D01*
X178438095Y-91452380D02*
X178438095Y-90452380D01*
X178057142Y-90452380D01*
X177961904Y-90500000D01*
X177914285Y-90547619D01*
X177866666Y-90642857D01*
X177866666Y-90785714D01*
X177914285Y-90880952D01*
X177961904Y-90928571D01*
X178057142Y-90976190D01*
X178438095Y-90976190D01*
X176961904Y-90452380D02*
X177438095Y-90452380D01*
X177485714Y-90928571D01*
X177438095Y-90880952D01*
X177342857Y-90833333D01*
X177104761Y-90833333D01*
X177009523Y-90880952D01*
X176961904Y-90928571D01*
X176914285Y-91023809D01*
X176914285Y-91261904D01*
X176961904Y-91357142D01*
X177009523Y-91404761D01*
X177104761Y-91452380D01*
X177342857Y-91452380D01*
X177438095Y-91404761D01*
X177485714Y-91357142D01*
G04 #@! TO.C,R6*
X213466666Y-91452380D02*
X213800000Y-90976190D01*
X214038095Y-91452380D02*
X214038095Y-90452380D01*
X213657142Y-90452380D01*
X213561904Y-90500000D01*
X213514285Y-90547619D01*
X213466666Y-90642857D01*
X213466666Y-90785714D01*
X213514285Y-90880952D01*
X213561904Y-90928571D01*
X213657142Y-90976190D01*
X214038095Y-90976190D01*
X212609523Y-90452380D02*
X212800000Y-90452380D01*
X212895238Y-90500000D01*
X212942857Y-90547619D01*
X213038095Y-90690476D01*
X213085714Y-90880952D01*
X213085714Y-91261904D01*
X213038095Y-91357142D01*
X212990476Y-91404761D01*
X212895238Y-91452380D01*
X212704761Y-91452380D01*
X212609523Y-91404761D01*
X212561904Y-91357142D01*
X212514285Y-91261904D01*
X212514285Y-91023809D01*
X212561904Y-90928571D01*
X212609523Y-90880952D01*
X212704761Y-90833333D01*
X212895238Y-90833333D01*
X212990476Y-90880952D01*
X213038095Y-90928571D01*
X213085714Y-91023809D01*
G04 #@! TD*
M02*
