M48
;DRILL file {KiCad (5.0.0)} date 08/29/18 15:01:29
;FORMAT={3:3/ absolute / metric / suppress leading zeros}
FMAT,2
METRIC,TZ
T1C0.400
T2C3.200
%
G90
G05
M71
T1
X82700Y-94800
X87025Y-97475
X88575Y-93825
X90500Y-92400
X101200Y-98200
X116475Y-93550
X117550Y-97500
X117575Y-92400
X121225Y-93950
X122900Y-97775
X122925Y-95025
X140075Y-100500
X140290Y-93820
X143425Y-92425
X143425Y-97050
X144800Y-94225
X146100Y-100500
X146500Y-99050
X148175Y-97375
X150200Y-92425
X153900Y-99050
X154250Y-100500
X157125Y-92425
X157250Y-93825
X159975Y-99400
X162750Y-91900
X176450Y-93875
X178250Y-97500
X182675Y-92300
X182700Y-97500
X210300Y-94200
X212325Y-95600
X213475Y-97275
X217700Y-94800
T2
X164200Y-102650
X136200Y-102650
T0
M30
