G04 #@! TF.GenerationSoftware,KiCad,Pcbnew,(5.0.0)*
G04 #@! TF.CreationDate,2018-08-26T14:27:57+09:00*
G04 #@! TF.ProjectId,lancer_subbord,6C616E6365725F737562626F72642E6B,rev?*
G04 #@! TF.SameCoordinates,Original*
G04 #@! TF.FileFunction,Copper,L2,Bot,Signal*
G04 #@! TF.FilePolarity,Positive*
%FSLAX46Y46*%
G04 Gerber Fmt 4.6, Leading zero omitted, Abs format (unit mm)*
G04 Created by KiCad (PCBNEW (5.0.0)) date 08/26/18 14:27:57*
%MOMM*%
%LPD*%
G01*
G04 APERTURE LIST*
G04 #@! TA.AperFunction,ComponentPad*
%ADD10C,1.524000*%
G04 #@! TD*
G04 #@! TA.AperFunction,ComponentPad*
%ADD11R,1.524000X1.524000*%
G04 #@! TD*
G04 #@! TA.AperFunction,ComponentPad*
%ADD12O,1.000000X2.000000*%
G04 #@! TD*
G04 #@! TA.AperFunction,SMDPad,CuDef*
%ADD13R,0.800000X0.500000*%
G04 #@! TD*
G04 #@! TA.AperFunction,ComponentPad*
%ADD14C,2.000000*%
G04 #@! TD*
G04 #@! TA.AperFunction,SMDPad,CuDef*
%ADD15R,0.700000X0.800000*%
G04 #@! TD*
G04 #@! TA.AperFunction,SMDPad,CuDef*
%ADD16R,0.800000X0.700000*%
G04 #@! TD*
G04 #@! TA.AperFunction,SMDPad,CuDef*
%ADD17R,2.500000X4.000000*%
G04 #@! TD*
G04 #@! TA.AperFunction,SMDPad,CuDef*
%ADD18R,0.230000X1.250000*%
G04 #@! TD*
G04 #@! TA.AperFunction,SMDPad,CuDef*
%ADD19R,2.200000X2.000000*%
G04 #@! TD*
G04 #@! TA.AperFunction,ViaPad*
%ADD20C,0.800000*%
G04 #@! TD*
G04 #@! TA.AperFunction,ViaPad*
%ADD21C,1.800000*%
G04 #@! TD*
G04 #@! TA.AperFunction,Conductor*
%ADD22C,0.500000*%
G04 #@! TD*
G04 #@! TA.AperFunction,Conductor*
%ADD23C,0.250000*%
G04 #@! TD*
G04 #@! TA.AperFunction,Conductor*
%ADD24C,0.350000*%
G04 #@! TD*
G04 APERTURE END LIST*
D10*
G04 #@! TO.P,R_SW,4*
G04 #@! TO.N,R_SW4*
X168925000Y-94625000D03*
G04 #@! TO.P,R_SW,C*
G04 #@! TO.N,GND*
X171465000Y-94625000D03*
D11*
G04 #@! TO.P,R_SW,1*
G04 #@! TO.N,R_SW1*
X174005000Y-94625000D03*
D10*
G04 #@! TO.P,R_SW,2*
G04 #@! TO.N,R_SW2*
X168925000Y-102245000D03*
G04 #@! TO.P,R_SW,C*
G04 #@! TO.N,GND*
X171465000Y-102245000D03*
G04 #@! TO.P,R_SW,8*
G04 #@! TO.N,R_SW8*
X174005000Y-102245000D03*
G04 #@! TD*
D12*
G04 #@! TO.P,LCD1,9*
G04 #@! TO.N,+3V3*
X157000000Y-105500000D03*
G04 #@! TO.P,LCD1,8*
G04 #@! TO.N,SCL*
X155500000Y-105500000D03*
G04 #@! TO.P,LCD1,7*
G04 #@! TO.N,SDA*
X154000000Y-105500000D03*
G04 #@! TO.P,LCD1,6*
G04 #@! TO.N,GND*
X152500000Y-105500000D03*
G04 #@! TO.P,LCD1,5*
G04 #@! TO.N,+3V3*
X151000000Y-105500000D03*
G04 #@! TO.P,LCD1,4*
G04 #@! TO.N,Net-(C3-Pad1)*
X149500000Y-105500000D03*
G04 #@! TO.P,LCD1,3*
G04 #@! TO.N,Net-(C3-Pad2)*
X148000000Y-105500000D03*
G04 #@! TO.P,LCD1,2*
G04 #@! TO.N,Net-(C2-Pad1)*
X146500000Y-105500000D03*
G04 #@! TO.P,LCD1,1*
G04 #@! TO.N,Net-(LCD1-Pad1)*
X145000000Y-105500000D03*
G04 #@! TD*
D11*
G04 #@! TO.P,Writer,1*
G04 #@! TO.N,+3V3*
X130500000Y-99000000D03*
D10*
G04 #@! TO.P,Writer,2*
G04 #@! TO.N,TCK*
X130500000Y-97000000D03*
G04 #@! TO.P,Writer,3*
G04 #@! TO.N,GND*
X130500000Y-95000000D03*
G04 #@! TO.P,Writer,4*
G04 #@! TO.N,TMS*
X130500000Y-93000000D03*
G04 #@! TO.P,Writer,5*
G04 #@! TO.N,NRST*
X130500000Y-91000000D03*
G04 #@! TO.P,Writer,6*
G04 #@! TO.N,SWO*
X130500000Y-89000000D03*
G04 #@! TD*
D13*
G04 #@! TO.P,R6,2*
G04 #@! TO.N,GND*
X178200000Y-96100000D03*
G04 #@! TO.P,R6,1*
G04 #@! TO.N,R_SW1*
X178200000Y-94600000D03*
G04 #@! TD*
D14*
G04 #@! TO.P,3,1*
G04 #@! TO.N,TACT_SW3*
X156500000Y-108500000D03*
G04 #@! TO.P,3,2*
G04 #@! TO.N,GND*
X156500000Y-113500000D03*
G04 #@! TD*
G04 #@! TO.P,1,1*
G04 #@! TO.N,TACT_SW1*
X138500000Y-108500000D03*
G04 #@! TO.P,1,2*
G04 #@! TO.N,GND*
X138500000Y-113500000D03*
G04 #@! TD*
D13*
G04 #@! TO.P,R8,2*
G04 #@! TO.N,GND*
X178175000Y-100750000D03*
G04 #@! TO.P,R8,1*
G04 #@! TO.N,R_SW8*
X178175000Y-102250000D03*
G04 #@! TD*
G04 #@! TO.P,R7,2*
G04 #@! TO.N,GND*
X164900000Y-100750000D03*
G04 #@! TO.P,R7,1*
G04 #@! TO.N,R_SW2*
X164900000Y-102250000D03*
G04 #@! TD*
G04 #@! TO.P,R3,2*
G04 #@! TO.N,SDA*
X154000000Y-102500000D03*
G04 #@! TO.P,R3,1*
G04 #@! TO.N,+3V3*
X154000000Y-101000000D03*
G04 #@! TD*
G04 #@! TO.P,R2,2*
G04 #@! TO.N,SCL*
X157000000Y-102500000D03*
G04 #@! TO.P,R2,1*
G04 #@! TO.N,+3V3*
X157000000Y-101000000D03*
G04 #@! TD*
G04 #@! TO.P,R1,2*
G04 #@! TO.N,GND*
X164900000Y-96100000D03*
G04 #@! TO.P,R1,1*
G04 #@! TO.N,R_SW4*
X164900000Y-94600000D03*
G04 #@! TD*
D11*
G04 #@! TO.P,Debugger,1*
G04 #@! TO.N,+3V3*
X130500000Y-110000000D03*
D10*
G04 #@! TO.P,Debugger,2*
G04 #@! TO.N,RX*
X130500000Y-108000000D03*
G04 #@! TO.P,Debugger,3*
G04 #@! TO.N,TX*
X130500000Y-106000000D03*
G04 #@! TO.P,Debugger,4*
G04 #@! TO.N,GND*
X130500000Y-104000000D03*
G04 #@! TD*
D15*
G04 #@! TO.P,C4,1*
G04 #@! TO.N,+3V3*
X177825000Y-90400000D03*
G04 #@! TO.P,C4,2*
G04 #@! TO.N,GND*
X179325000Y-90400000D03*
G04 #@! TD*
D16*
G04 #@! TO.P,C3,1*
G04 #@! TO.N,Net-(C3-Pad1)*
X149500000Y-102575000D03*
G04 #@! TO.P,C3,2*
G04 #@! TO.N,Net-(C3-Pad2)*
X149500000Y-101075000D03*
G04 #@! TD*
G04 #@! TO.P,C2,1*
G04 #@! TO.N,Net-(C2-Pad1)*
X146500000Y-102675000D03*
G04 #@! TO.P,C2,2*
G04 #@! TO.N,+3V3*
X146500000Y-101175000D03*
G04 #@! TD*
G04 #@! TO.P,C1,1*
G04 #@! TO.N,+3V3*
X152500000Y-101025000D03*
G04 #@! TO.P,C1,2*
G04 #@! TO.N,GND*
X152500000Y-102525000D03*
G04 #@! TD*
D14*
G04 #@! TO.P,2,1*
G04 #@! TO.N,TACT_SW2*
X147500000Y-108500000D03*
G04 #@! TO.P,2,2*
G04 #@! TO.N,GND*
X147500000Y-113500000D03*
G04 #@! TD*
G04 #@! TO.P,4,1*
G04 #@! TO.N,TACT_SW4*
X165500000Y-108500000D03*
G04 #@! TO.P,4,2*
G04 #@! TO.N,GND*
X165500000Y-113500000D03*
G04 #@! TD*
D17*
G04 #@! TO.P,C5,1*
G04 #@! TO.N,+3V3*
X171400000Y-89950000D03*
G04 #@! TO.P,C5,2*
G04 #@! TO.N,GND*
X171400000Y-83850000D03*
G04 #@! TD*
D18*
G04 #@! TO.P,Subbord,19*
G04 #@! TO.N,SWO*
X162550000Y-86500000D03*
G04 #@! TO.P,Subbord,18*
G04 #@! TO.N,NRST*
X162050000Y-86500000D03*
G04 #@! TO.P,Subbord,17*
G04 #@! TO.N,TMS*
X161550000Y-86500000D03*
G04 #@! TO.P,Subbord,16*
G04 #@! TO.N,TCK*
X161050000Y-86500000D03*
G04 #@! TO.P,Subbord,15*
G04 #@! TO.N,TX*
X160550000Y-86500000D03*
G04 #@! TO.P,Subbord,1*
G04 #@! TO.N,+3V3*
X153550000Y-86500000D03*
G04 #@! TO.P,Subbord,2*
G04 #@! TO.N,R_SW1*
X154050000Y-86500000D03*
G04 #@! TO.P,Subbord,3*
G04 #@! TO.N,R_SW2*
X154550000Y-86500000D03*
G04 #@! TO.P,Subbord,4*
G04 #@! TO.N,R_SW4*
X155050000Y-86500000D03*
G04 #@! TO.P,Subbord,5*
G04 #@! TO.N,R_SW8*
X155550000Y-86500000D03*
G04 #@! TO.P,Subbord,6*
G04 #@! TO.N,SCL*
X156050000Y-86500000D03*
G04 #@! TO.P,Subbord,7*
G04 #@! TO.N,SDA*
X156550000Y-86500000D03*
G04 #@! TO.P,Subbord,8*
G04 #@! TO.N,TACT_SW4*
X157050000Y-86500000D03*
G04 #@! TO.P,Subbord,9*
G04 #@! TO.N,TACT_SW3*
X157550000Y-86500000D03*
G04 #@! TO.P,Subbord,10*
G04 #@! TO.N,TACT_SW2*
X158050000Y-86500000D03*
G04 #@! TO.P,Subbord,11*
G04 #@! TO.N,TACT_SW1*
X158550000Y-86500000D03*
G04 #@! TO.P,Subbord,12*
G04 #@! TO.N,DEBUG_LED2*
X159050000Y-86500000D03*
G04 #@! TO.P,Subbord,13*
G04 #@! TO.N,DEBUG_LED1*
X159550000Y-86500000D03*
G04 #@! TO.P,Subbord,14*
G04 #@! TO.N,RX*
X160050000Y-86500000D03*
D19*
G04 #@! TO.P,Subbord,*
G04 #@! TO.N,*
X164900000Y-88800000D03*
X151700000Y-88800000D03*
D18*
G04 #@! TO.P,Subbord,20*
G04 #@! TO.N,GND*
X163050000Y-86500000D03*
G04 #@! TD*
D20*
G04 #@! TO.N,GND*
X127200000Y-114000000D03*
X176400000Y-114100000D03*
X176200000Y-86900000D03*
D21*
X124850000Y-100550000D03*
D20*
G04 #@! TO.N,+3V3*
X146500006Y-99000000D03*
X174300000Y-87100000D03*
X152650000Y-86500000D03*
G04 #@! TO.N,SCL*
X155824990Y-97400004D03*
X155500005Y-99692803D03*
G04 #@! TO.N,DEBUG_LED2*
X170250000Y-111900000D03*
G04 #@! TO.N,DEBUG_LED1*
X134100000Y-111800000D03*
G04 #@! TO.N,TACT_SW4*
X157050000Y-99500000D03*
X159674990Y-99500004D03*
G04 #@! TO.N,TACT_SW2*
X155150000Y-95500000D03*
X158350000Y-95500000D03*
G04 #@! TO.N,R_SW8*
X155250000Y-93000000D03*
X161450000Y-92949998D03*
G04 #@! TO.N,R_SW4*
X164900000Y-93500000D03*
X154750000Y-92050000D03*
G04 #@! TO.N,R_SW2*
X153650000Y-92050000D03*
X162250000Y-94600000D03*
G04 #@! TO.N,R_SW1*
X152850002Y-91250000D03*
X161449992Y-91250000D03*
G04 #@! TD*
D22*
G04 #@! TO.N,GND*
X165500000Y-115300000D02*
X156500000Y-115300000D01*
X156500000Y-115300000D02*
X152500054Y-115302103D01*
X152500054Y-115302103D02*
X147500000Y-115300000D01*
X147500000Y-115300000D02*
X138500000Y-115300000D01*
X165500000Y-113500000D02*
X165500000Y-115300000D01*
X156500000Y-113500000D02*
X156500000Y-115300000D01*
X156500000Y-115300000D02*
X156500000Y-115200000D01*
X156500000Y-115200000D02*
X156500000Y-115300000D01*
X147500000Y-113500000D02*
X147500000Y-115300000D01*
X138500000Y-113500000D02*
X138500000Y-115300000D01*
X138500000Y-115300000D02*
X138500000Y-115200000D01*
X138500000Y-115200000D02*
X138500000Y-115300000D01*
X180400000Y-96300000D02*
X180400000Y-98200000D01*
X152500000Y-105500000D02*
X152475000Y-102500000D01*
X152475000Y-102500000D02*
X152500000Y-102525000D01*
X176900000Y-115300000D02*
X176500000Y-115300000D01*
X176500000Y-115300000D02*
X165500000Y-115300000D01*
X180400000Y-111800000D02*
X176900000Y-115300000D01*
X138500000Y-115300000D02*
X127100000Y-115300000D01*
X127100000Y-115300000D02*
X125800000Y-115300000D01*
X124900000Y-114400000D02*
X124900000Y-106925000D01*
X125800000Y-115300000D02*
X124900000Y-114400000D01*
X130500000Y-104000000D02*
X124900000Y-104000000D01*
X127100000Y-115300000D02*
X127100000Y-114100000D01*
X127100000Y-114100000D02*
X127200000Y-114000000D01*
X176500000Y-115300000D02*
X176500000Y-114200000D01*
X176500000Y-114200000D02*
X176400000Y-114100000D01*
X180200000Y-96100000D02*
X180400000Y-96300000D01*
X180400000Y-89275000D02*
X180400000Y-89300000D01*
X176200000Y-85125000D02*
X176225000Y-85100000D01*
X176200000Y-86900000D02*
X176200000Y-85125000D01*
X176225000Y-85100000D02*
X180400000Y-89275000D01*
X180300000Y-90400000D02*
X180400000Y-90300000D01*
X179325000Y-90400000D02*
X180300000Y-90400000D01*
X180400000Y-96300000D02*
X180400000Y-90300000D01*
X180400000Y-90300000D02*
X180400000Y-89300000D01*
X172250000Y-83850000D02*
X172600000Y-83850000D01*
X174975000Y-83850000D02*
X172600000Y-83850000D01*
X176225000Y-85100000D02*
X174975000Y-83850000D01*
X168750000Y-83850000D02*
X172600000Y-83850000D01*
X165550000Y-86500000D02*
X166100000Y-86500000D01*
X166100000Y-86500000D02*
X168750000Y-83850000D01*
X126400000Y-95000000D02*
X130500000Y-95000000D01*
X124900000Y-104000000D02*
X124900000Y-96500000D01*
X124900000Y-96500000D02*
X126400000Y-95000000D01*
X165550000Y-86500000D02*
X163850000Y-86500000D01*
D23*
X163050000Y-86500000D02*
X163850000Y-86500000D01*
D22*
X152500000Y-105500000D02*
X152500054Y-115302103D01*
X124900000Y-106925000D02*
X124900000Y-104000000D01*
D23*
X178200000Y-100725000D02*
X178175000Y-100750000D01*
X180400000Y-98550000D02*
X178200000Y-98550000D01*
X178200000Y-98550000D02*
X178200000Y-100725000D01*
X178200000Y-96100000D02*
X178200000Y-98550000D01*
D22*
X180400000Y-98200000D02*
X180400000Y-98550000D01*
X180400000Y-98550000D02*
X180400000Y-111800000D01*
D23*
X171565000Y-98550000D02*
X171465000Y-98650000D01*
X178200000Y-98550000D02*
X171565000Y-98550000D01*
X171465000Y-94625000D02*
X171465000Y-98650000D01*
X171465000Y-98650000D02*
X171465000Y-102245000D01*
X164950000Y-98550000D02*
X164900000Y-98500000D01*
X171565000Y-98550000D02*
X164950000Y-98550000D01*
X164900000Y-96100000D02*
X164900000Y-98500000D01*
X164900000Y-98500000D02*
X164900000Y-100750000D01*
D22*
G04 #@! TO.N,+3V3*
X152500000Y-101025000D02*
X153975000Y-101025000D01*
X153975000Y-101025000D02*
X154000000Y-101000000D01*
X151000000Y-105500000D02*
X151000000Y-99725000D01*
X146500000Y-99000006D02*
X146500006Y-99000000D01*
X146500000Y-101175000D02*
X146500000Y-99000006D01*
X152500000Y-99600000D02*
X152500000Y-101025000D01*
X151900000Y-99000000D02*
X152500000Y-99600000D01*
X151000000Y-99725000D02*
X151000000Y-99000000D01*
X146500006Y-99000000D02*
X151000000Y-99000000D01*
X151000000Y-99000000D02*
X151900000Y-99000000D01*
X177375000Y-89950000D02*
X177825000Y-90400000D01*
X172600000Y-89950000D02*
X177375000Y-89950000D01*
X157000000Y-105300000D02*
X157000000Y-105500000D01*
X158300000Y-104000000D02*
X157000000Y-105300000D01*
X158300000Y-101250000D02*
X158300000Y-104000000D01*
X157000000Y-101000000D02*
X158050000Y-101000000D01*
X158050000Y-101000000D02*
X158300000Y-101250000D01*
X173000000Y-87100000D02*
X174300000Y-87100000D01*
X172600000Y-89950000D02*
X172600000Y-87500000D01*
X172600000Y-87500000D02*
X173000000Y-87100000D01*
D23*
X153550000Y-86500000D02*
X153185000Y-86500000D01*
X153185000Y-86500000D02*
X152900000Y-86500000D01*
X152900000Y-86500000D02*
X152650000Y-86500000D01*
G04 #@! TO.N,Net-(C2-Pad1)*
X146500000Y-102675000D02*
X146500000Y-105500000D01*
G04 #@! TO.N,Net-(C3-Pad1)*
X149500000Y-102575000D02*
X149500000Y-105500000D01*
G04 #@! TO.N,Net-(C3-Pad2)*
X148000000Y-105500000D02*
X148000000Y-102575000D01*
X148000000Y-102575000D02*
X149500000Y-101075000D01*
G04 #@! TO.N,SWO*
X162550000Y-85625000D02*
X162550000Y-86500000D01*
X162550000Y-84200000D02*
X162550000Y-85625000D01*
X143300000Y-89000000D02*
X144075000Y-88225000D01*
X130500000Y-89000000D02*
X143300000Y-89000000D01*
X144075000Y-88225000D02*
X144075000Y-84925000D01*
X144075000Y-84925000D02*
X146825077Y-82174923D01*
X146825077Y-82174923D02*
X160524923Y-82174923D01*
X160524923Y-82174923D02*
X162550000Y-84200000D01*
G04 #@! TO.N,NRST*
X162050000Y-85625000D02*
X162050000Y-86500000D01*
X162050000Y-84450000D02*
X162050000Y-85625000D01*
X143850000Y-91000000D02*
X144525000Y-90325000D01*
X144525000Y-90325000D02*
X144525000Y-85275000D01*
X144525000Y-85275000D02*
X147175066Y-82624934D01*
X130500000Y-91000000D02*
X143850000Y-91000000D01*
X147175066Y-82624934D02*
X160224934Y-82624934D01*
X160224934Y-82624934D02*
X162050000Y-84450000D01*
G04 #@! TO.N,TMS*
X161550000Y-85625000D02*
X161550000Y-86500000D01*
X161550000Y-84700000D02*
X161550000Y-85625000D01*
X143325000Y-93000000D02*
X145000000Y-91325000D01*
X130500000Y-93000000D02*
X143325000Y-93000000D01*
X145000000Y-91325000D02*
X145000000Y-85600000D01*
X145000000Y-85600000D02*
X147525055Y-83074945D01*
X147525055Y-83074945D02*
X159924945Y-83074945D01*
X159924945Y-83074945D02*
X161550000Y-84700000D01*
G04 #@! TO.N,TCK*
X161050000Y-85625000D02*
X161050000Y-86500000D01*
X130500000Y-97000000D02*
X140150000Y-97000000D01*
X145475000Y-91675000D02*
X145475000Y-85900000D01*
X140150000Y-97000000D02*
X145475000Y-91675000D01*
X145475000Y-85900000D02*
X147850044Y-83524956D01*
X161050000Y-85000000D02*
X161050000Y-85625000D01*
X147850044Y-83524956D02*
X159574956Y-83524956D01*
X159574956Y-83524956D02*
X161050000Y-85000000D01*
G04 #@! TO.N,TX*
X160550000Y-85625000D02*
X160550000Y-86500000D01*
X160550000Y-85300000D02*
X160550000Y-85625000D01*
X132150000Y-106000000D02*
X146050000Y-92100000D01*
X130500000Y-106000000D02*
X132150000Y-106000000D01*
X146050000Y-92100000D02*
X146050000Y-85961410D01*
X146050000Y-85961410D02*
X148036443Y-83974967D01*
X148036443Y-83974967D02*
X159224967Y-83974967D01*
X159224967Y-83974967D02*
X160550000Y-85300000D01*
G04 #@! TO.N,RX*
X160050000Y-85625000D02*
X160050000Y-86500000D01*
X146500011Y-92699989D02*
X146500011Y-86147809D01*
X131200000Y-108000000D02*
X146500011Y-92699989D01*
X146500011Y-86147809D02*
X148222842Y-84424978D01*
X160050000Y-85538587D02*
X160050000Y-85625000D01*
X130500000Y-108000000D02*
X131200000Y-108000000D01*
X148222842Y-84424978D02*
X158936391Y-84424978D01*
X158936391Y-84424978D02*
X160050000Y-85538587D01*
G04 #@! TO.N,SCL*
X157000000Y-102500000D02*
X156500000Y-102500000D01*
X156500000Y-102500000D02*
X155600000Y-101600000D01*
X155500000Y-105500000D02*
X155500000Y-101700000D01*
X155600000Y-101600000D02*
X155500000Y-101500000D01*
X155500000Y-101700000D02*
X155500000Y-101500000D01*
X156050000Y-86500000D02*
X156050000Y-97174994D01*
X156050000Y-97174994D02*
X155824990Y-97400004D01*
X155500000Y-101500000D02*
X155500005Y-101499995D01*
X155500005Y-101499995D02*
X155500005Y-100258488D01*
X155500005Y-100258488D02*
X155500005Y-99692803D01*
G04 #@! TO.N,SDA*
X154000000Y-105500000D02*
X154000000Y-102500000D01*
X156550000Y-98150000D02*
X156550000Y-86500000D01*
X156150000Y-98550000D02*
X156550000Y-98150000D01*
X155325000Y-98550000D02*
X156150000Y-98550000D01*
X154774998Y-99100002D02*
X155325000Y-98550000D01*
X154000000Y-102500000D02*
X154774998Y-101725002D01*
X154774998Y-101725002D02*
X154774998Y-99100002D01*
G04 #@! TO.N,DEBUG_LED2*
X159050000Y-94750000D02*
X159050000Y-86500000D01*
X160550000Y-96250000D02*
X159050000Y-94750000D01*
X160550000Y-101200000D02*
X160550000Y-96250000D01*
X170250000Y-111900000D02*
X170250000Y-110900000D01*
X170250000Y-110900000D02*
X160550000Y-101200000D01*
G04 #@! TO.N,DEBUG_LED1*
X148409241Y-84874989D02*
X158749992Y-84874989D01*
X147150000Y-86134230D02*
X148409241Y-84874989D01*
X159550000Y-85674997D02*
X159550000Y-86500000D01*
X134100000Y-106100000D02*
X147150000Y-93050000D01*
X158749992Y-84874989D02*
X159550000Y-85674997D01*
X134100000Y-111800000D02*
X134100000Y-106100000D01*
X147150000Y-93050000D02*
X147150000Y-86134230D01*
G04 #@! TO.N,TACT_SW4*
X157050000Y-86500000D02*
X157050000Y-99500000D01*
X165500000Y-108500000D02*
X159674990Y-102674990D01*
X159674990Y-102674990D02*
X159674990Y-100065689D01*
X159674990Y-100065689D02*
X159674990Y-99500004D01*
G04 #@! TO.N,TACT_SW3*
X158949989Y-99152003D02*
X158950000Y-99151992D01*
X157550000Y-97752014D02*
X158949989Y-99152003D01*
X157550000Y-86500000D02*
X157550000Y-97752014D01*
X157950000Y-108500000D02*
X158949989Y-107500011D01*
X156500000Y-108500000D02*
X157950000Y-108500000D01*
X158949989Y-107500011D02*
X158949989Y-99152003D01*
G04 #@! TO.N,TACT_SW2*
X158050000Y-86500000D02*
X158050000Y-95200000D01*
X158050000Y-95200000D02*
X158350000Y-95500000D01*
X155100000Y-95450000D02*
X155150000Y-95500000D01*
X146750000Y-95450000D02*
X155100000Y-95450000D01*
X143200000Y-99000000D02*
X146750000Y-95450000D01*
X143200000Y-106500000D02*
X143200000Y-99000000D01*
X147500000Y-108500000D02*
X145200000Y-108500000D01*
X145200000Y-108500000D02*
X143200000Y-106500000D01*
G04 #@! TO.N,TACT_SW1*
X158550000Y-85625000D02*
X158550000Y-86500000D01*
X138500000Y-108500000D02*
X138500000Y-102650000D01*
X147700000Y-86220640D02*
X148595640Y-85325000D01*
X147700000Y-93450000D02*
X147700000Y-86220640D01*
X158250000Y-85325000D02*
X158550000Y-85625000D01*
X148595640Y-85325000D02*
X158250000Y-85325000D01*
X138500000Y-102650000D02*
X147700000Y-93450000D01*
G04 #@! TO.N,R_SW8*
X155550000Y-92700000D02*
X155250000Y-93000000D01*
X155550000Y-86500000D02*
X155550000Y-92700000D01*
X174010000Y-102250000D02*
X174005000Y-102245000D01*
X178175000Y-102250000D02*
X174010000Y-102250000D01*
X161450000Y-93515683D02*
X161450000Y-92949998D01*
X161450000Y-100875000D02*
X161450000Y-93515683D01*
X164825000Y-104250000D02*
X161450000Y-100875000D01*
X173525000Y-104250000D02*
X164825000Y-104250000D01*
X174005000Y-102245000D02*
X174005000Y-103770000D01*
X174005000Y-103770000D02*
X173525000Y-104250000D01*
G04 #@! TO.N,R_SW4*
X164900000Y-94600000D02*
X164900000Y-93500000D01*
X155050000Y-91750000D02*
X154750000Y-92050000D01*
X155050000Y-86500000D02*
X155050000Y-91750000D01*
X164925000Y-94625000D02*
X164900000Y-94600000D01*
X168925000Y-94625000D02*
X164925000Y-94625000D01*
G04 #@! TO.N,R_SW2*
X154550000Y-91150000D02*
X153650000Y-92050000D01*
X154550000Y-86500000D02*
X154550000Y-91150000D01*
X164905000Y-102245000D02*
X164900000Y-102250000D01*
X168925000Y-102245000D02*
X164905000Y-102245000D01*
X162250000Y-95165685D02*
X162250000Y-94600000D01*
X162250000Y-100250000D02*
X162250000Y-95165685D01*
X164250000Y-102250000D02*
X162250000Y-100250000D01*
X164900000Y-102250000D02*
X164250000Y-102250000D01*
G04 #@! TO.N,R_SW1*
X154050000Y-86500000D02*
X154050000Y-90050002D01*
X154050000Y-90050002D02*
X153250001Y-90850001D01*
X153250001Y-90850001D02*
X152850002Y-91250000D01*
X174030000Y-94600000D02*
X174005000Y-94625000D01*
X178200000Y-94600000D02*
X174030000Y-94600000D01*
X174005000Y-93280000D02*
X174005000Y-94625000D01*
X173725000Y-93000000D02*
X174005000Y-93280000D01*
X169750000Y-93000000D02*
X173725000Y-93000000D01*
X161449992Y-91250000D02*
X168000000Y-91250000D01*
X168000000Y-91250000D02*
X169750000Y-93000000D01*
G04 #@! TD*
D24*
G04 #@! TO.N,GND*
G36*
X143300006Y-84598529D02*
X143312002Y-84660192D01*
X143259329Y-84925000D01*
X143275001Y-85003789D01*
X143275000Y-87893629D01*
X142968630Y-88200000D01*
X131724026Y-88200000D01*
X131718229Y-88186005D01*
X131313995Y-87781771D01*
X130785837Y-87563000D01*
X130214163Y-87563000D01*
X129686005Y-87781771D01*
X129281771Y-88186005D01*
X129063000Y-88714163D01*
X129063000Y-89285837D01*
X129281771Y-89813995D01*
X129467776Y-90000000D01*
X129281771Y-90186005D01*
X129063000Y-90714163D01*
X129063000Y-91285837D01*
X129281771Y-91813995D01*
X129467776Y-92000000D01*
X129281771Y-92186005D01*
X129063000Y-92714163D01*
X129063000Y-93285837D01*
X129281771Y-93813995D01*
X129686005Y-94218229D01*
X130214163Y-94437000D01*
X130325000Y-94437000D01*
X130325000Y-95563000D01*
X130214163Y-95563000D01*
X129686005Y-95781771D01*
X129281771Y-96186005D01*
X129063000Y-96714163D01*
X129063000Y-97285837D01*
X129254854Y-97749012D01*
X129251352Y-97751352D01*
X129102164Y-97974628D01*
X129049776Y-98238000D01*
X129049776Y-99762000D01*
X129102164Y-100025372D01*
X129251352Y-100248648D01*
X129474628Y-100397836D01*
X129738000Y-100450224D01*
X131225000Y-100450224D01*
X131225000Y-104744908D01*
X130785837Y-104563000D01*
X130214163Y-104563000D01*
X129686005Y-104781771D01*
X129281771Y-105186005D01*
X129063000Y-105714163D01*
X129063000Y-106285837D01*
X129281771Y-106813995D01*
X129467776Y-107000000D01*
X129281771Y-107186005D01*
X129063000Y-107714163D01*
X129063000Y-108285837D01*
X129254854Y-108749012D01*
X129251352Y-108751352D01*
X129102164Y-108974628D01*
X129049776Y-109238000D01*
X129049776Y-110762000D01*
X129102164Y-111025372D01*
X129251352Y-111248648D01*
X129474628Y-111397836D01*
X129738000Y-111450224D01*
X131262000Y-111450224D01*
X131388809Y-111425000D01*
X133091759Y-111425000D01*
X133025000Y-111586169D01*
X133025000Y-112013831D01*
X133188659Y-112408938D01*
X133491062Y-112711341D01*
X133886169Y-112875000D01*
X134313831Y-112875000D01*
X134708938Y-112711341D01*
X135011341Y-112408938D01*
X135175000Y-112013831D01*
X135175000Y-111586169D01*
X135011341Y-111191062D01*
X134900000Y-111079721D01*
X134900000Y-110175000D01*
X138833178Y-110175000D01*
X139448811Y-109919996D01*
X139919996Y-109448811D01*
X140175000Y-108833178D01*
X140175000Y-108166822D01*
X139919996Y-107551189D01*
X139448811Y-107080004D01*
X139300000Y-107018364D01*
X139300000Y-104975000D01*
X142400000Y-104975000D01*
X142400000Y-106421216D01*
X142384329Y-106500000D01*
X142400000Y-106578784D01*
X142400000Y-106578788D01*
X142446417Y-106812143D01*
X142623233Y-107076767D01*
X142690028Y-107121398D01*
X144578604Y-109009974D01*
X144623233Y-109076767D01*
X144887856Y-109253583D01*
X145121211Y-109300000D01*
X145121215Y-109300000D01*
X145199999Y-109315671D01*
X145278783Y-109300000D01*
X146018364Y-109300000D01*
X146080004Y-109448811D01*
X146551189Y-109919996D01*
X147166822Y-110175000D01*
X147833178Y-110175000D01*
X148448811Y-109919996D01*
X148919996Y-109448811D01*
X149175000Y-108833178D01*
X149175000Y-108166822D01*
X148919996Y-107551189D01*
X148468755Y-107099948D01*
X148750001Y-106912025D01*
X149041539Y-107106825D01*
X149500000Y-107198019D01*
X149958462Y-107106825D01*
X150250001Y-106912025D01*
X150541539Y-107106825D01*
X151000000Y-107198019D01*
X151458462Y-107106825D01*
X151847127Y-106847127D01*
X152106825Y-106458462D01*
X152175000Y-106115724D01*
X152175000Y-104884276D01*
X152153264Y-104775000D01*
X152846737Y-104775000D01*
X152825000Y-104884277D01*
X152825000Y-106115724D01*
X152893175Y-106458462D01*
X153152874Y-106847127D01*
X153541539Y-107106825D01*
X154000000Y-107198019D01*
X154458462Y-107106825D01*
X154750001Y-106912025D01*
X155041539Y-107106825D01*
X155444261Y-107186932D01*
X155080004Y-107551189D01*
X154825000Y-108166822D01*
X154825000Y-108833178D01*
X155080004Y-109448811D01*
X155551189Y-109919996D01*
X156166822Y-110175000D01*
X156833178Y-110175000D01*
X157448811Y-109919996D01*
X157919996Y-109448811D01*
X157977402Y-109310220D01*
X158028784Y-109300000D01*
X158028789Y-109300000D01*
X158262144Y-109253583D01*
X158526767Y-109076767D01*
X158571398Y-109009972D01*
X159459964Y-108121407D01*
X159526756Y-108076778D01*
X159703572Y-107812155D01*
X159749989Y-107578800D01*
X159749989Y-107578796D01*
X159765660Y-107500012D01*
X159749989Y-107421228D01*
X159749989Y-106275000D01*
X162143629Y-106275000D01*
X163886640Y-108018011D01*
X163825000Y-108166822D01*
X163825000Y-108833178D01*
X164080004Y-109448811D01*
X164551189Y-109919996D01*
X165166822Y-110175000D01*
X165428136Y-110175000D01*
X165483030Y-110211679D01*
X165550000Y-110225000D01*
X165616970Y-110211679D01*
X165671864Y-110175000D01*
X168393630Y-110175000D01*
X169424176Y-111205546D01*
X169338659Y-111291062D01*
X169175000Y-111686169D01*
X169175000Y-112113831D01*
X169338659Y-112508938D01*
X169641062Y-112811341D01*
X170036169Y-112975000D01*
X170463831Y-112975000D01*
X170858938Y-112811341D01*
X171161341Y-112508938D01*
X171325000Y-112113831D01*
X171325000Y-111686169D01*
X171161341Y-111291062D01*
X171050000Y-111179721D01*
X171050000Y-110978789D01*
X171065672Y-110900000D01*
X171050011Y-110821265D01*
X171066087Y-105050000D01*
X173446216Y-105050000D01*
X173525000Y-105065671D01*
X173603784Y-105050000D01*
X173603789Y-105050000D01*
X173837144Y-105003583D01*
X174101767Y-104826767D01*
X174146398Y-104759972D01*
X174514972Y-104391398D01*
X174581767Y-104346767D01*
X174648555Y-104246812D01*
X174758583Y-104082145D01*
X174820672Y-103770000D01*
X174805000Y-103691211D01*
X174805000Y-103469026D01*
X174818995Y-103463229D01*
X175223229Y-103058995D01*
X175226955Y-103050000D01*
X177383165Y-103050000D01*
X177511628Y-103135836D01*
X177775000Y-103188224D01*
X178575000Y-103188224D01*
X178838372Y-103135836D01*
X179061648Y-102986648D01*
X179210836Y-102763372D01*
X179263224Y-102500000D01*
X179263224Y-102000000D01*
X179210836Y-101736628D01*
X179061648Y-101513352D01*
X178838372Y-101364164D01*
X178575000Y-101311776D01*
X177775000Y-101311776D01*
X177511628Y-101364164D01*
X177383165Y-101450000D01*
X175231097Y-101450000D01*
X175223229Y-101431005D01*
X174818995Y-101026771D01*
X174290837Y-100808000D01*
X173719163Y-100808000D01*
X173191005Y-101026771D01*
X172786771Y-101431005D01*
X172568000Y-101959163D01*
X172568000Y-102530837D01*
X172786771Y-103058995D01*
X173177776Y-103450000D01*
X171070544Y-103450000D01*
X171074999Y-101850487D01*
X171061679Y-101783030D01*
X171023744Y-101726256D01*
X170966970Y-101688321D01*
X170900000Y-101675000D01*
X170244295Y-101675000D01*
X170143229Y-101431005D01*
X169738995Y-101026771D01*
X169210837Y-100808000D01*
X168639163Y-100808000D01*
X168111005Y-101026771D01*
X167706771Y-101431005D01*
X167700974Y-101445000D01*
X165684352Y-101445000D01*
X165563372Y-101364164D01*
X165300000Y-101311776D01*
X164500000Y-101311776D01*
X164452579Y-101321209D01*
X163050000Y-99918630D01*
X163050000Y-95475000D01*
X164150000Y-95475000D01*
X164204259Y-95464207D01*
X164236628Y-95485836D01*
X164500000Y-95538224D01*
X165300000Y-95538224D01*
X165563372Y-95485836D01*
X165654420Y-95425000D01*
X167700974Y-95425000D01*
X167706771Y-95438995D01*
X168111005Y-95843229D01*
X168639163Y-96062000D01*
X169210837Y-96062000D01*
X169738995Y-95843229D01*
X170143229Y-95438995D01*
X170362000Y-94910837D01*
X170362000Y-94339163D01*
X170143229Y-93811005D01*
X170132224Y-93800000D01*
X172567307Y-93800000D01*
X172554776Y-93863000D01*
X172554776Y-95387000D01*
X172607164Y-95650372D01*
X172756352Y-95873648D01*
X172979628Y-96022836D01*
X173243000Y-96075224D01*
X174767000Y-96075224D01*
X175030372Y-96022836D01*
X175253648Y-95873648D01*
X175402836Y-95650372D01*
X175452638Y-95400000D01*
X177408165Y-95400000D01*
X177536628Y-95485836D01*
X177800000Y-95538224D01*
X178600000Y-95538224D01*
X178863372Y-95485836D01*
X179086648Y-95336648D01*
X179235836Y-95113372D01*
X179288224Y-94850000D01*
X179288224Y-94350000D01*
X179235836Y-94086628D01*
X179086648Y-93863352D01*
X178875000Y-93721934D01*
X178875000Y-90700000D01*
X178863224Y-90640797D01*
X178863224Y-90000000D01*
X178810836Y-89736628D01*
X178661648Y-89513352D01*
X178438372Y-89364164D01*
X178175000Y-89311776D01*
X178061039Y-89311776D01*
X178041887Y-89283113D01*
X177735917Y-89078670D01*
X177466100Y-89025000D01*
X177466096Y-89025000D01*
X177375000Y-89006880D01*
X177283904Y-89025000D01*
X175375000Y-89025000D01*
X175375000Y-86886169D01*
X175211341Y-86491062D01*
X174908938Y-86188659D01*
X174513831Y-86025000D01*
X174086169Y-86025000D01*
X173724038Y-86175000D01*
X173091094Y-86175000D01*
X172999999Y-86156880D01*
X172908904Y-86175000D01*
X172908900Y-86175000D01*
X172639083Y-86228670D01*
X172333113Y-86433113D01*
X172281507Y-86510347D01*
X172010343Y-86781510D01*
X171933114Y-86833113D01*
X171881511Y-86910342D01*
X171881509Y-86910344D01*
X171728670Y-87139084D01*
X171704265Y-87261776D01*
X170347370Y-87261776D01*
X170325208Y-87227738D01*
X170268889Y-87189130D01*
X170202083Y-87175012D01*
X166070645Y-87125828D01*
X166000000Y-87111776D01*
X163800000Y-87111776D01*
X163536628Y-87164164D01*
X163316127Y-87311498D01*
X163353224Y-87125000D01*
X163353224Y-85875000D01*
X163350000Y-85858792D01*
X163350000Y-84278783D01*
X163365671Y-84199999D01*
X163351246Y-84127479D01*
X163371015Y-81775000D01*
X178007664Y-81775000D01*
X177571348Y-82211316D01*
X177225000Y-83047474D01*
X177225000Y-83952526D01*
X177571348Y-84788684D01*
X178211316Y-85428652D01*
X179047474Y-85775000D01*
X179952526Y-85775000D01*
X180788684Y-85428652D01*
X181225001Y-84992335D01*
X181225000Y-117007664D01*
X180788684Y-116571348D01*
X179952526Y-116225000D01*
X179047474Y-116225000D01*
X178211316Y-116571348D01*
X177571348Y-117211316D01*
X177225000Y-118047474D01*
X177225000Y-118952526D01*
X177571348Y-119788684D01*
X178007664Y-120225000D01*
X125992336Y-120225000D01*
X126428652Y-119788684D01*
X126775000Y-118952526D01*
X126775000Y-118047474D01*
X126428652Y-117211316D01*
X125788684Y-116571348D01*
X124952526Y-116225000D01*
X124047474Y-116225000D01*
X123211316Y-116571348D01*
X122775000Y-117007664D01*
X122775000Y-84992336D01*
X123211316Y-85428652D01*
X124047474Y-85775000D01*
X124952526Y-85775000D01*
X125788684Y-85428652D01*
X126428652Y-84788684D01*
X126775000Y-83952526D01*
X126775000Y-83047474D01*
X126428652Y-82211316D01*
X125992336Y-81775000D01*
X143323733Y-81775000D01*
X143300006Y-84598529D01*
X143300006Y-84598529D01*
G37*
X143300006Y-84598529D02*
X143312002Y-84660192D01*
X143259329Y-84925000D01*
X143275001Y-85003789D01*
X143275000Y-87893629D01*
X142968630Y-88200000D01*
X131724026Y-88200000D01*
X131718229Y-88186005D01*
X131313995Y-87781771D01*
X130785837Y-87563000D01*
X130214163Y-87563000D01*
X129686005Y-87781771D01*
X129281771Y-88186005D01*
X129063000Y-88714163D01*
X129063000Y-89285837D01*
X129281771Y-89813995D01*
X129467776Y-90000000D01*
X129281771Y-90186005D01*
X129063000Y-90714163D01*
X129063000Y-91285837D01*
X129281771Y-91813995D01*
X129467776Y-92000000D01*
X129281771Y-92186005D01*
X129063000Y-92714163D01*
X129063000Y-93285837D01*
X129281771Y-93813995D01*
X129686005Y-94218229D01*
X130214163Y-94437000D01*
X130325000Y-94437000D01*
X130325000Y-95563000D01*
X130214163Y-95563000D01*
X129686005Y-95781771D01*
X129281771Y-96186005D01*
X129063000Y-96714163D01*
X129063000Y-97285837D01*
X129254854Y-97749012D01*
X129251352Y-97751352D01*
X129102164Y-97974628D01*
X129049776Y-98238000D01*
X129049776Y-99762000D01*
X129102164Y-100025372D01*
X129251352Y-100248648D01*
X129474628Y-100397836D01*
X129738000Y-100450224D01*
X131225000Y-100450224D01*
X131225000Y-104744908D01*
X130785837Y-104563000D01*
X130214163Y-104563000D01*
X129686005Y-104781771D01*
X129281771Y-105186005D01*
X129063000Y-105714163D01*
X129063000Y-106285837D01*
X129281771Y-106813995D01*
X129467776Y-107000000D01*
X129281771Y-107186005D01*
X129063000Y-107714163D01*
X129063000Y-108285837D01*
X129254854Y-108749012D01*
X129251352Y-108751352D01*
X129102164Y-108974628D01*
X129049776Y-109238000D01*
X129049776Y-110762000D01*
X129102164Y-111025372D01*
X129251352Y-111248648D01*
X129474628Y-111397836D01*
X129738000Y-111450224D01*
X131262000Y-111450224D01*
X131388809Y-111425000D01*
X133091759Y-111425000D01*
X133025000Y-111586169D01*
X133025000Y-112013831D01*
X133188659Y-112408938D01*
X133491062Y-112711341D01*
X133886169Y-112875000D01*
X134313831Y-112875000D01*
X134708938Y-112711341D01*
X135011341Y-112408938D01*
X135175000Y-112013831D01*
X135175000Y-111586169D01*
X135011341Y-111191062D01*
X134900000Y-111079721D01*
X134900000Y-110175000D01*
X138833178Y-110175000D01*
X139448811Y-109919996D01*
X139919996Y-109448811D01*
X140175000Y-108833178D01*
X140175000Y-108166822D01*
X139919996Y-107551189D01*
X139448811Y-107080004D01*
X139300000Y-107018364D01*
X139300000Y-104975000D01*
X142400000Y-104975000D01*
X142400000Y-106421216D01*
X142384329Y-106500000D01*
X142400000Y-106578784D01*
X142400000Y-106578788D01*
X142446417Y-106812143D01*
X142623233Y-107076767D01*
X142690028Y-107121398D01*
X144578604Y-109009974D01*
X144623233Y-109076767D01*
X144887856Y-109253583D01*
X145121211Y-109300000D01*
X145121215Y-109300000D01*
X145199999Y-109315671D01*
X145278783Y-109300000D01*
X146018364Y-109300000D01*
X146080004Y-109448811D01*
X146551189Y-109919996D01*
X147166822Y-110175000D01*
X147833178Y-110175000D01*
X148448811Y-109919996D01*
X148919996Y-109448811D01*
X149175000Y-108833178D01*
X149175000Y-108166822D01*
X148919996Y-107551189D01*
X148468755Y-107099948D01*
X148750001Y-106912025D01*
X149041539Y-107106825D01*
X149500000Y-107198019D01*
X149958462Y-107106825D01*
X150250001Y-106912025D01*
X150541539Y-107106825D01*
X151000000Y-107198019D01*
X151458462Y-107106825D01*
X151847127Y-106847127D01*
X152106825Y-106458462D01*
X152175000Y-106115724D01*
X152175000Y-104884276D01*
X152153264Y-104775000D01*
X152846737Y-104775000D01*
X152825000Y-104884277D01*
X152825000Y-106115724D01*
X152893175Y-106458462D01*
X153152874Y-106847127D01*
X153541539Y-107106825D01*
X154000000Y-107198019D01*
X154458462Y-107106825D01*
X154750001Y-106912025D01*
X155041539Y-107106825D01*
X155444261Y-107186932D01*
X155080004Y-107551189D01*
X154825000Y-108166822D01*
X154825000Y-108833178D01*
X155080004Y-109448811D01*
X155551189Y-109919996D01*
X156166822Y-110175000D01*
X156833178Y-110175000D01*
X157448811Y-109919996D01*
X157919996Y-109448811D01*
X157977402Y-109310220D01*
X158028784Y-109300000D01*
X158028789Y-109300000D01*
X158262144Y-109253583D01*
X158526767Y-109076767D01*
X158571398Y-109009972D01*
X159459964Y-108121407D01*
X159526756Y-108076778D01*
X159703572Y-107812155D01*
X159749989Y-107578800D01*
X159749989Y-107578796D01*
X159765660Y-107500012D01*
X159749989Y-107421228D01*
X159749989Y-106275000D01*
X162143629Y-106275000D01*
X163886640Y-108018011D01*
X163825000Y-108166822D01*
X163825000Y-108833178D01*
X164080004Y-109448811D01*
X164551189Y-109919996D01*
X165166822Y-110175000D01*
X165428136Y-110175000D01*
X165483030Y-110211679D01*
X165550000Y-110225000D01*
X165616970Y-110211679D01*
X165671864Y-110175000D01*
X168393630Y-110175000D01*
X169424176Y-111205546D01*
X169338659Y-111291062D01*
X169175000Y-111686169D01*
X169175000Y-112113831D01*
X169338659Y-112508938D01*
X169641062Y-112811341D01*
X170036169Y-112975000D01*
X170463831Y-112975000D01*
X170858938Y-112811341D01*
X171161341Y-112508938D01*
X171325000Y-112113831D01*
X171325000Y-111686169D01*
X171161341Y-111291062D01*
X171050000Y-111179721D01*
X171050000Y-110978789D01*
X171065672Y-110900000D01*
X171050011Y-110821265D01*
X171066087Y-105050000D01*
X173446216Y-105050000D01*
X173525000Y-105065671D01*
X173603784Y-105050000D01*
X173603789Y-105050000D01*
X173837144Y-105003583D01*
X174101767Y-104826767D01*
X174146398Y-104759972D01*
X174514972Y-104391398D01*
X174581767Y-104346767D01*
X174648555Y-104246812D01*
X174758583Y-104082145D01*
X174820672Y-103770000D01*
X174805000Y-103691211D01*
X174805000Y-103469026D01*
X174818995Y-103463229D01*
X175223229Y-103058995D01*
X175226955Y-103050000D01*
X177383165Y-103050000D01*
X177511628Y-103135836D01*
X177775000Y-103188224D01*
X178575000Y-103188224D01*
X178838372Y-103135836D01*
X179061648Y-102986648D01*
X179210836Y-102763372D01*
X179263224Y-102500000D01*
X179263224Y-102000000D01*
X179210836Y-101736628D01*
X179061648Y-101513352D01*
X178838372Y-101364164D01*
X178575000Y-101311776D01*
X177775000Y-101311776D01*
X177511628Y-101364164D01*
X177383165Y-101450000D01*
X175231097Y-101450000D01*
X175223229Y-101431005D01*
X174818995Y-101026771D01*
X174290837Y-100808000D01*
X173719163Y-100808000D01*
X173191005Y-101026771D01*
X172786771Y-101431005D01*
X172568000Y-101959163D01*
X172568000Y-102530837D01*
X172786771Y-103058995D01*
X173177776Y-103450000D01*
X171070544Y-103450000D01*
X171074999Y-101850487D01*
X171061679Y-101783030D01*
X171023744Y-101726256D01*
X170966970Y-101688321D01*
X170900000Y-101675000D01*
X170244295Y-101675000D01*
X170143229Y-101431005D01*
X169738995Y-101026771D01*
X169210837Y-100808000D01*
X168639163Y-100808000D01*
X168111005Y-101026771D01*
X167706771Y-101431005D01*
X167700974Y-101445000D01*
X165684352Y-101445000D01*
X165563372Y-101364164D01*
X165300000Y-101311776D01*
X164500000Y-101311776D01*
X164452579Y-101321209D01*
X163050000Y-99918630D01*
X163050000Y-95475000D01*
X164150000Y-95475000D01*
X164204259Y-95464207D01*
X164236628Y-95485836D01*
X164500000Y-95538224D01*
X165300000Y-95538224D01*
X165563372Y-95485836D01*
X165654420Y-95425000D01*
X167700974Y-95425000D01*
X167706771Y-95438995D01*
X168111005Y-95843229D01*
X168639163Y-96062000D01*
X169210837Y-96062000D01*
X169738995Y-95843229D01*
X170143229Y-95438995D01*
X170362000Y-94910837D01*
X170362000Y-94339163D01*
X170143229Y-93811005D01*
X170132224Y-93800000D01*
X172567307Y-93800000D01*
X172554776Y-93863000D01*
X172554776Y-95387000D01*
X172607164Y-95650372D01*
X172756352Y-95873648D01*
X172979628Y-96022836D01*
X173243000Y-96075224D01*
X174767000Y-96075224D01*
X175030372Y-96022836D01*
X175253648Y-95873648D01*
X175402836Y-95650372D01*
X175452638Y-95400000D01*
X177408165Y-95400000D01*
X177536628Y-95485836D01*
X177800000Y-95538224D01*
X178600000Y-95538224D01*
X178863372Y-95485836D01*
X179086648Y-95336648D01*
X179235836Y-95113372D01*
X179288224Y-94850000D01*
X179288224Y-94350000D01*
X179235836Y-94086628D01*
X179086648Y-93863352D01*
X178875000Y-93721934D01*
X178875000Y-90700000D01*
X178863224Y-90640797D01*
X178863224Y-90000000D01*
X178810836Y-89736628D01*
X178661648Y-89513352D01*
X178438372Y-89364164D01*
X178175000Y-89311776D01*
X178061039Y-89311776D01*
X178041887Y-89283113D01*
X177735917Y-89078670D01*
X177466100Y-89025000D01*
X177466096Y-89025000D01*
X177375000Y-89006880D01*
X177283904Y-89025000D01*
X175375000Y-89025000D01*
X175375000Y-86886169D01*
X175211341Y-86491062D01*
X174908938Y-86188659D01*
X174513831Y-86025000D01*
X174086169Y-86025000D01*
X173724038Y-86175000D01*
X173091094Y-86175000D01*
X172999999Y-86156880D01*
X172908904Y-86175000D01*
X172908900Y-86175000D01*
X172639083Y-86228670D01*
X172333113Y-86433113D01*
X172281507Y-86510347D01*
X172010343Y-86781510D01*
X171933114Y-86833113D01*
X171881511Y-86910342D01*
X171881509Y-86910344D01*
X171728670Y-87139084D01*
X171704265Y-87261776D01*
X170347370Y-87261776D01*
X170325208Y-87227738D01*
X170268889Y-87189130D01*
X170202083Y-87175012D01*
X166070645Y-87125828D01*
X166000000Y-87111776D01*
X163800000Y-87111776D01*
X163536628Y-87164164D01*
X163316127Y-87311498D01*
X163353224Y-87125000D01*
X163353224Y-85875000D01*
X163350000Y-85858792D01*
X163350000Y-84278783D01*
X163365671Y-84199999D01*
X163351246Y-84127479D01*
X163371015Y-81775000D01*
X178007664Y-81775000D01*
X177571348Y-82211316D01*
X177225000Y-83047474D01*
X177225000Y-83952526D01*
X177571348Y-84788684D01*
X178211316Y-85428652D01*
X179047474Y-85775000D01*
X179952526Y-85775000D01*
X180788684Y-85428652D01*
X181225001Y-84992335D01*
X181225000Y-117007664D01*
X180788684Y-116571348D01*
X179952526Y-116225000D01*
X179047474Y-116225000D01*
X178211316Y-116571348D01*
X177571348Y-117211316D01*
X177225000Y-118047474D01*
X177225000Y-118952526D01*
X177571348Y-119788684D01*
X178007664Y-120225000D01*
X125992336Y-120225000D01*
X126428652Y-119788684D01*
X126775000Y-118952526D01*
X126775000Y-118047474D01*
X126428652Y-117211316D01*
X125788684Y-116571348D01*
X124952526Y-116225000D01*
X124047474Y-116225000D01*
X123211316Y-116571348D01*
X122775000Y-117007664D01*
X122775000Y-84992336D01*
X123211316Y-85428652D01*
X124047474Y-85775000D01*
X124952526Y-85775000D01*
X125788684Y-85428652D01*
X126428652Y-84788684D01*
X126775000Y-83952526D01*
X126775000Y-83047474D01*
X126428652Y-82211316D01*
X125992336Y-81775000D01*
X143323733Y-81775000D01*
X143300006Y-84598529D01*
G04 #@! TD*
M02*
