G04 #@! TF.GenerationSoftware,KiCad,Pcbnew,(5.0.0)*
G04 #@! TF.CreationDate,2018-08-29T14:02:58+09:00*
G04 #@! TF.ProjectId,lancer_subbord,6C616E6365725F737562626F72642E6B,rev?*
G04 #@! TF.SameCoordinates,Original*
G04 #@! TF.FileFunction,Legend,Bot*
G04 #@! TF.FilePolarity,Positive*
%FSLAX46Y46*%
G04 Gerber Fmt 4.6, Leading zero omitted, Abs format (unit mm)*
G04 Created by KiCad (PCBNEW (5.0.0)) date 08/29/18 14:02:58*
%MOMM*%
%LPD*%
G01*
G04 APERTURE LIST*
%ADD10C,0.200000*%
%ADD11C,0.150000*%
%ADD12C,0.120000*%
%ADD13C,0.010000*%
G04 APERTURE END LIST*
D10*
X143032142Y-85146428D02*
X142960714Y-85075000D01*
X142817857Y-85003571D01*
X142460714Y-85003571D01*
X142317857Y-85075000D01*
X142246428Y-85146428D01*
X142175000Y-85289285D01*
X142175000Y-85432142D01*
X142246428Y-85646428D01*
X143103571Y-86503571D01*
X142175000Y-86503571D01*
X141246428Y-85003571D02*
X141103571Y-85003571D01*
X140960714Y-85075000D01*
X140889285Y-85146428D01*
X140817857Y-85289285D01*
X140746428Y-85575000D01*
X140746428Y-85932142D01*
X140817857Y-86217857D01*
X140889285Y-86360714D01*
X140960714Y-86432142D01*
X141103571Y-86503571D01*
X141246428Y-86503571D01*
X141389285Y-86432142D01*
X141460714Y-86360714D01*
X141532142Y-86217857D01*
X141603571Y-85932142D01*
X141603571Y-85575000D01*
X141532142Y-85289285D01*
X141460714Y-85146428D01*
X141389285Y-85075000D01*
X141246428Y-85003571D01*
X139317857Y-86503571D02*
X140175000Y-86503571D01*
X139746428Y-86503571D02*
X139746428Y-85003571D01*
X139889285Y-85217857D01*
X140032142Y-85360714D01*
X140175000Y-85432142D01*
X138460714Y-85646428D02*
X138603571Y-85575000D01*
X138675000Y-85503571D01*
X138746428Y-85360714D01*
X138746428Y-85289285D01*
X138675000Y-85146428D01*
X138603571Y-85075000D01*
X138460714Y-85003571D01*
X138175000Y-85003571D01*
X138032142Y-85075000D01*
X137960714Y-85146428D01*
X137889285Y-85289285D01*
X137889285Y-85360714D01*
X137960714Y-85503571D01*
X138032142Y-85575000D01*
X138175000Y-85646428D01*
X138460714Y-85646428D01*
X138603571Y-85717857D01*
X138675000Y-85789285D01*
X138746428Y-85932142D01*
X138746428Y-86217857D01*
X138675000Y-86360714D01*
X138603571Y-86432142D01*
X138460714Y-86503571D01*
X138175000Y-86503571D01*
X138032142Y-86432142D01*
X137960714Y-86360714D01*
X137889285Y-86217857D01*
X137889285Y-85932142D01*
X137960714Y-85789285D01*
X138032142Y-85717857D01*
X138175000Y-85646428D01*
X137603571Y-86646428D02*
X136460714Y-86646428D01*
X136175000Y-86075000D02*
X135460714Y-86075000D01*
X136317857Y-86503571D02*
X135817857Y-85003571D01*
X135317857Y-86503571D01*
X134174999Y-85503571D02*
X134174999Y-86503571D01*
X134817857Y-85503571D02*
X134817857Y-86289285D01*
X134746428Y-86432142D01*
X134603571Y-86503571D01*
X134389285Y-86503571D01*
X134246428Y-86432142D01*
X134174999Y-86360714D01*
X132817857Y-85503571D02*
X132817857Y-86717857D01*
X132889285Y-86860714D01*
X132960714Y-86932142D01*
X133103571Y-87003571D01*
X133317857Y-87003571D01*
X133460714Y-86932142D01*
X132817857Y-86432142D02*
X132960714Y-86503571D01*
X133246428Y-86503571D01*
X133389285Y-86432142D01*
X133460714Y-86360714D01*
X133532142Y-86217857D01*
X133532142Y-85789285D01*
X133460714Y-85646428D01*
X133389285Y-85575000D01*
X133246428Y-85503571D01*
X132960714Y-85503571D01*
X132817857Y-85575000D01*
X131460714Y-85503571D02*
X131460714Y-86503571D01*
X132103571Y-85503571D02*
X132103571Y-86289285D01*
X132032142Y-86432142D01*
X131889285Y-86503571D01*
X131674999Y-86503571D01*
X131532142Y-86432142D01*
X131460714Y-86360714D01*
X130817857Y-86432142D02*
X130674999Y-86503571D01*
X130389285Y-86503571D01*
X130246428Y-86432142D01*
X130174999Y-86289285D01*
X130174999Y-86217857D01*
X130246428Y-86075000D01*
X130389285Y-86003571D01*
X130603571Y-86003571D01*
X130746428Y-85932142D01*
X130817857Y-85789285D01*
X130817857Y-85717857D01*
X130746428Y-85575000D01*
X130603571Y-85503571D01*
X130389285Y-85503571D01*
X130246428Y-85575000D01*
X129746428Y-85503571D02*
X129174999Y-85503571D01*
X129532142Y-85003571D02*
X129532142Y-86289285D01*
X129460714Y-86432142D01*
X129317857Y-86503571D01*
X129174999Y-86503571D01*
X162046428Y-119278571D02*
X162046428Y-117778571D01*
X161689285Y-117778571D01*
X161475000Y-117850000D01*
X161332142Y-117992857D01*
X161260714Y-118135714D01*
X161189285Y-118421428D01*
X161189285Y-118635714D01*
X161260714Y-118921428D01*
X161332142Y-119064285D01*
X161475000Y-119207142D01*
X161689285Y-119278571D01*
X162046428Y-119278571D01*
X159975000Y-119207142D02*
X160117857Y-119278571D01*
X160403571Y-119278571D01*
X160546428Y-119207142D01*
X160617857Y-119064285D01*
X160617857Y-118492857D01*
X160546428Y-118350000D01*
X160403571Y-118278571D01*
X160117857Y-118278571D01*
X159975000Y-118350000D01*
X159903571Y-118492857D01*
X159903571Y-118635714D01*
X160617857Y-118778571D01*
X159332142Y-119207142D02*
X159189285Y-119278571D01*
X158903571Y-119278571D01*
X158760714Y-119207142D01*
X158689285Y-119064285D01*
X158689285Y-118992857D01*
X158760714Y-118850000D01*
X158903571Y-118778571D01*
X159117857Y-118778571D01*
X159260714Y-118707142D01*
X159332142Y-118564285D01*
X159332142Y-118492857D01*
X159260714Y-118350000D01*
X159117857Y-118278571D01*
X158903571Y-118278571D01*
X158760714Y-118350000D01*
X158046428Y-119278571D02*
X158046428Y-118278571D01*
X158046428Y-117778571D02*
X158117857Y-117850000D01*
X158046428Y-117921428D01*
X157975000Y-117850000D01*
X158046428Y-117778571D01*
X158046428Y-117921428D01*
X156689285Y-118278571D02*
X156689285Y-119492857D01*
X156760714Y-119635714D01*
X156832142Y-119707142D01*
X156975000Y-119778571D01*
X157189285Y-119778571D01*
X157332142Y-119707142D01*
X156689285Y-119207142D02*
X156832142Y-119278571D01*
X157117857Y-119278571D01*
X157260714Y-119207142D01*
X157332142Y-119135714D01*
X157403571Y-118992857D01*
X157403571Y-118564285D01*
X157332142Y-118421428D01*
X157260714Y-118350000D01*
X157117857Y-118278571D01*
X156832142Y-118278571D01*
X156689285Y-118350000D01*
X155975000Y-118278571D02*
X155975000Y-119278571D01*
X155975000Y-118421428D02*
X155903571Y-118350000D01*
X155760714Y-118278571D01*
X155546428Y-118278571D01*
X155403571Y-118350000D01*
X155332142Y-118492857D01*
X155332142Y-119278571D01*
X154046428Y-119207142D02*
X154189285Y-119278571D01*
X154475000Y-119278571D01*
X154617857Y-119207142D01*
X154689285Y-119064285D01*
X154689285Y-118492857D01*
X154617857Y-118350000D01*
X154475000Y-118278571D01*
X154189285Y-118278571D01*
X154046428Y-118350000D01*
X153975000Y-118492857D01*
X153975000Y-118635714D01*
X154689285Y-118778571D01*
X152689285Y-119278571D02*
X152689285Y-117778571D01*
X152689285Y-119207142D02*
X152832142Y-119278571D01*
X153117857Y-119278571D01*
X153260714Y-119207142D01*
X153332142Y-119135714D01*
X153403571Y-118992857D01*
X153403571Y-118564285D01*
X153332142Y-118421428D01*
X153260714Y-118350000D01*
X153117857Y-118278571D01*
X152832142Y-118278571D01*
X152689285Y-118350000D01*
X150832142Y-119278571D02*
X150832142Y-117778571D01*
X150832142Y-118350000D02*
X150689285Y-118278571D01*
X150403571Y-118278571D01*
X150260714Y-118350000D01*
X150189285Y-118421428D01*
X150117857Y-118564285D01*
X150117857Y-118992857D01*
X150189285Y-119135714D01*
X150260714Y-119207142D01*
X150403571Y-119278571D01*
X150689285Y-119278571D01*
X150832142Y-119207142D01*
X149617857Y-118278571D02*
X149260714Y-119278571D01*
X148903571Y-118278571D02*
X149260714Y-119278571D01*
X149403571Y-119635714D01*
X149475000Y-119707142D01*
X149617857Y-119778571D01*
X147260714Y-119207142D02*
X147046428Y-119278571D01*
X146689285Y-119278571D01*
X146546428Y-119207142D01*
X146475000Y-119135714D01*
X146403571Y-118992857D01*
X146403571Y-118850000D01*
X146475000Y-118707142D01*
X146546428Y-118635714D01*
X146689285Y-118564285D01*
X146975000Y-118492857D01*
X147117857Y-118421428D01*
X147189285Y-118350000D01*
X147260714Y-118207142D01*
X147260714Y-118064285D01*
X147189285Y-117921428D01*
X147117857Y-117850000D01*
X146975000Y-117778571D01*
X146617857Y-117778571D01*
X146403571Y-117850000D01*
X145760714Y-119278571D02*
X145760714Y-117778571D01*
X145117857Y-119278571D02*
X145117857Y-118492857D01*
X145189285Y-118350000D01*
X145332142Y-118278571D01*
X145546428Y-118278571D01*
X145689285Y-118350000D01*
X145760714Y-118421428D01*
X144403571Y-119278571D02*
X144403571Y-118278571D01*
X144403571Y-117778571D02*
X144475000Y-117850000D01*
X144403571Y-117921428D01*
X144332142Y-117850000D01*
X144403571Y-117778571D01*
X144403571Y-117921428D01*
X143689285Y-119278571D02*
X143689285Y-118278571D01*
X143689285Y-118421428D02*
X143617857Y-118350000D01*
X143475000Y-118278571D01*
X143260714Y-118278571D01*
X143117857Y-118350000D01*
X143046428Y-118492857D01*
X143046428Y-119278571D01*
X143046428Y-118492857D02*
X142975000Y-118350000D01*
X142832142Y-118278571D01*
X142617857Y-118278571D01*
X142475000Y-118350000D01*
X142403571Y-118492857D01*
X142403571Y-119278571D01*
X141475000Y-119278571D02*
X141617857Y-119207142D01*
X141689285Y-119135714D01*
X141760714Y-118992857D01*
X141760714Y-118564285D01*
X141689285Y-118421428D01*
X141617857Y-118350000D01*
X141475000Y-118278571D01*
X141260714Y-118278571D01*
X141117857Y-118350000D01*
X141046428Y-118421428D01*
X140975000Y-118564285D01*
X140975000Y-118992857D01*
X141046428Y-119135714D01*
X141117857Y-119207142D01*
X141260714Y-119278571D01*
X141475000Y-119278571D01*
X140546428Y-118278571D02*
X139975000Y-118278571D01*
X140332142Y-117778571D02*
X140332142Y-119064285D01*
X140260714Y-119207142D01*
X140117857Y-119278571D01*
X139975000Y-119278571D01*
X139260714Y-119278571D02*
X139403571Y-119207142D01*
X139475000Y-119135714D01*
X139546428Y-118992857D01*
X139546428Y-118564285D01*
X139475000Y-118421428D01*
X139403571Y-118350000D01*
X139260714Y-118278571D01*
X139046428Y-118278571D01*
X138903571Y-118350000D01*
X138832142Y-118421428D01*
X138760714Y-118564285D01*
X138760714Y-118992857D01*
X138832142Y-119135714D01*
X138903571Y-119207142D01*
X139046428Y-119278571D01*
X139260714Y-119278571D01*
X138117857Y-119278571D02*
X138117857Y-118278571D01*
X138117857Y-118564285D02*
X138046428Y-118421428D01*
X137975000Y-118350000D01*
X137832142Y-118278571D01*
X137689285Y-118278571D01*
X137189285Y-119278571D02*
X137189285Y-118278571D01*
X137189285Y-117778571D02*
X137260714Y-117850000D01*
X137189285Y-117921428D01*
X137117857Y-117850000D01*
X137189285Y-117778571D01*
X137189285Y-117921428D01*
X135332142Y-119278571D02*
X135332142Y-117778571D01*
X135332142Y-118492857D02*
X134475000Y-118492857D01*
X134475000Y-119278571D02*
X134475000Y-117778571D01*
X133117857Y-119278571D02*
X133117857Y-118492857D01*
X133189285Y-118350000D01*
X133332142Y-118278571D01*
X133617857Y-118278571D01*
X133760714Y-118350000D01*
X133117857Y-119207142D02*
X133260714Y-119278571D01*
X133617857Y-119278571D01*
X133760714Y-119207142D01*
X133832142Y-119064285D01*
X133832142Y-118921428D01*
X133760714Y-118778571D01*
X133617857Y-118707142D01*
X133260714Y-118707142D01*
X133117857Y-118635714D01*
X132403571Y-119278571D02*
X132403571Y-118278571D01*
X132403571Y-118564285D02*
X132332142Y-118421428D01*
X132260714Y-118350000D01*
X132117857Y-118278571D01*
X131975000Y-118278571D01*
X130832142Y-118278571D02*
X130832142Y-119278571D01*
X131475000Y-118278571D02*
X131475000Y-119064285D01*
X131403571Y-119207142D01*
X131260714Y-119278571D01*
X131046428Y-119278571D01*
X130903571Y-119207142D01*
X130832142Y-119135714D01*
X130117857Y-119278571D02*
X130117857Y-117778571D01*
X129975000Y-118707142D02*
X129546428Y-119278571D01*
X129546428Y-118278571D02*
X130117857Y-118850000D01*
X128903571Y-119278571D02*
X128903571Y-118278571D01*
X128903571Y-117778571D02*
X128975000Y-117850000D01*
X128903571Y-117921428D01*
X128832142Y-117850000D01*
X128903571Y-117778571D01*
X128903571Y-117921428D01*
X150214285Y-84203571D02*
X150928571Y-84203571D01*
X150928571Y-82703571D01*
X149071428Y-84203571D02*
X149071428Y-83417857D01*
X149142857Y-83275000D01*
X149285714Y-83203571D01*
X149571428Y-83203571D01*
X149714285Y-83275000D01*
X149071428Y-84132142D02*
X149214285Y-84203571D01*
X149571428Y-84203571D01*
X149714285Y-84132142D01*
X149785714Y-83989285D01*
X149785714Y-83846428D01*
X149714285Y-83703571D01*
X149571428Y-83632142D01*
X149214285Y-83632142D01*
X149071428Y-83560714D01*
X148357142Y-83203571D02*
X148357142Y-84203571D01*
X148357142Y-83346428D02*
X148285714Y-83275000D01*
X148142857Y-83203571D01*
X147928571Y-83203571D01*
X147785714Y-83275000D01*
X147714285Y-83417857D01*
X147714285Y-84203571D01*
X146357142Y-84132142D02*
X146500000Y-84203571D01*
X146785714Y-84203571D01*
X146928571Y-84132142D01*
X147000000Y-84060714D01*
X147071428Y-83917857D01*
X147071428Y-83489285D01*
X147000000Y-83346428D01*
X146928571Y-83275000D01*
X146785714Y-83203571D01*
X146500000Y-83203571D01*
X146357142Y-83275000D01*
X145142857Y-84132142D02*
X145285714Y-84203571D01*
X145571428Y-84203571D01*
X145714285Y-84132142D01*
X145785714Y-83989285D01*
X145785714Y-83417857D01*
X145714285Y-83275000D01*
X145571428Y-83203571D01*
X145285714Y-83203571D01*
X145142857Y-83275000D01*
X145071428Y-83417857D01*
X145071428Y-83560714D01*
X145785714Y-83703571D01*
X144428571Y-84203571D02*
X144428571Y-83203571D01*
X144428571Y-83489285D02*
X144357142Y-83346428D01*
X144285714Y-83275000D01*
X144142857Y-83203571D01*
X144000000Y-83203571D01*
X142428571Y-84132142D02*
X142285714Y-84203571D01*
X142000000Y-84203571D01*
X141857142Y-84132142D01*
X141785714Y-83989285D01*
X141785714Y-83917857D01*
X141857142Y-83775000D01*
X142000000Y-83703571D01*
X142214285Y-83703571D01*
X142357142Y-83632142D01*
X142428571Y-83489285D01*
X142428571Y-83417857D01*
X142357142Y-83275000D01*
X142214285Y-83203571D01*
X142000000Y-83203571D01*
X141857142Y-83275000D01*
X140500000Y-83203571D02*
X140500000Y-84203571D01*
X141142857Y-83203571D02*
X141142857Y-83989285D01*
X141071428Y-84132142D01*
X140928571Y-84203571D01*
X140714285Y-84203571D01*
X140571428Y-84132142D01*
X140500000Y-84060714D01*
X139785714Y-84203571D02*
X139785714Y-82703571D01*
X139785714Y-83275000D02*
X139642857Y-83203571D01*
X139357142Y-83203571D01*
X139214285Y-83275000D01*
X139142857Y-83346428D01*
X139071428Y-83489285D01*
X139071428Y-83917857D01*
X139142857Y-84060714D01*
X139214285Y-84132142D01*
X139357142Y-84203571D01*
X139642857Y-84203571D01*
X139785714Y-84132142D01*
X138428571Y-84203571D02*
X138428571Y-82703571D01*
X138428571Y-83275000D02*
X138285714Y-83203571D01*
X138000000Y-83203571D01*
X137857142Y-83275000D01*
X137785714Y-83346428D01*
X137714285Y-83489285D01*
X137714285Y-83917857D01*
X137785714Y-84060714D01*
X137857142Y-84132142D01*
X138000000Y-84203571D01*
X138285714Y-84203571D01*
X138428571Y-84132142D01*
X136857142Y-84203571D02*
X137000000Y-84132142D01*
X137071428Y-84060714D01*
X137142857Y-83917857D01*
X137142857Y-83489285D01*
X137071428Y-83346428D01*
X137000000Y-83275000D01*
X136857142Y-83203571D01*
X136642857Y-83203571D01*
X136500000Y-83275000D01*
X136428571Y-83346428D01*
X136357142Y-83489285D01*
X136357142Y-83917857D01*
X136428571Y-84060714D01*
X136500000Y-84132142D01*
X136642857Y-84203571D01*
X136857142Y-84203571D01*
X135071428Y-84203571D02*
X135071428Y-83417857D01*
X135142857Y-83275000D01*
X135285714Y-83203571D01*
X135571428Y-83203571D01*
X135714285Y-83275000D01*
X135071428Y-84132142D02*
X135214285Y-84203571D01*
X135571428Y-84203571D01*
X135714285Y-84132142D01*
X135785714Y-83989285D01*
X135785714Y-83846428D01*
X135714285Y-83703571D01*
X135571428Y-83632142D01*
X135214285Y-83632142D01*
X135071428Y-83560714D01*
X134357142Y-84203571D02*
X134357142Y-83203571D01*
X134357142Y-83489285D02*
X134285714Y-83346428D01*
X134214285Y-83275000D01*
X134071428Y-83203571D01*
X133928571Y-83203571D01*
X132785714Y-84203571D02*
X132785714Y-82703571D01*
X132785714Y-84132142D02*
X132928571Y-84203571D01*
X133214285Y-84203571D01*
X133357142Y-84132142D01*
X133428571Y-84060714D01*
X133500000Y-83917857D01*
X133500000Y-83489285D01*
X133428571Y-83346428D01*
X133357142Y-83275000D01*
X133214285Y-83203571D01*
X132928571Y-83203571D01*
X132785714Y-83275000D01*
X131071428Y-83203571D02*
X130714285Y-84203571D01*
X130357142Y-83203571D01*
X129000000Y-84203571D02*
X129857142Y-84203571D01*
X129428571Y-84203571D02*
X129428571Y-82703571D01*
X129571428Y-82917857D01*
X129714285Y-83060714D01*
X129857142Y-83132142D01*
D11*
G04 #@! TO.C,R6*
X177800000Y-94550000D02*
X177800000Y-96150000D01*
X177800000Y-94550000D02*
X178600000Y-94550000D01*
X178600000Y-94550000D02*
X178600000Y-96150000D01*
X177800000Y-96150000D02*
X178600000Y-96150000D01*
G04 #@! TO.C,R8*
X178575000Y-102300000D02*
X178575000Y-100700000D01*
X178575000Y-102300000D02*
X177775000Y-102300000D01*
X177775000Y-102300000D02*
X177775000Y-100700000D01*
X178575000Y-100700000D02*
X177775000Y-100700000D01*
G04 #@! TO.C,R7*
X165300000Y-102300000D02*
X165300000Y-100700000D01*
X165300000Y-102300000D02*
X164500000Y-102300000D01*
X164500000Y-102300000D02*
X164500000Y-100700000D01*
X165300000Y-100700000D02*
X164500000Y-100700000D01*
G04 #@! TO.C,R3*
X153600000Y-100950000D02*
X153600000Y-102550000D01*
X153600000Y-100950000D02*
X154400000Y-100950000D01*
X154400000Y-100950000D02*
X154400000Y-102550000D01*
X153600000Y-102550000D02*
X154400000Y-102550000D01*
G04 #@! TO.C,R2*
X156600000Y-100950000D02*
X156600000Y-102550000D01*
X156600000Y-100950000D02*
X157400000Y-100950000D01*
X157400000Y-100950000D02*
X157400000Y-102550000D01*
X156600000Y-102550000D02*
X157400000Y-102550000D01*
G04 #@! TO.C,R1*
X164500000Y-94550000D02*
X164500000Y-96150000D01*
X164500000Y-94550000D02*
X165300000Y-94550000D01*
X165300000Y-94550000D02*
X165300000Y-96150000D01*
X164500000Y-96150000D02*
X165300000Y-96150000D01*
G04 #@! TO.C,C4*
X177750000Y-90000000D02*
X179350000Y-90000000D01*
X177750000Y-90800000D02*
X177750000Y-90000000D01*
X177750000Y-90800000D02*
X179350000Y-90800000D01*
X179350000Y-90800000D02*
X179350000Y-90000000D01*
G04 #@! TO.C,C3*
X149100000Y-102650000D02*
X149100000Y-101050000D01*
X149900000Y-102650000D02*
X149100000Y-102650000D01*
X149900000Y-102650000D02*
X149900000Y-101050000D01*
X149900000Y-101050000D02*
X149100000Y-101050000D01*
G04 #@! TO.C,C2*
X146100000Y-102750000D02*
X146100000Y-101150000D01*
X146900000Y-102750000D02*
X146100000Y-102750000D01*
X146900000Y-102750000D02*
X146900000Y-101150000D01*
X146900000Y-101150000D02*
X146100000Y-101150000D01*
G04 #@! TO.C,C1*
X152900000Y-100950000D02*
X152900000Y-102550000D01*
X152100000Y-100950000D02*
X152900000Y-100950000D01*
X152100000Y-100950000D02*
X152100000Y-102550000D01*
X152100000Y-102550000D02*
X152900000Y-102550000D01*
D12*
G04 #@! TO.C,C5*
X167210000Y-82710000D02*
X169890000Y-82710000D01*
X175590000Y-82710000D02*
X172910000Y-82710000D01*
X174830000Y-91090000D02*
X172910000Y-91090000D01*
X167970000Y-91090000D02*
X169890000Y-91090000D01*
X167210000Y-82710000D02*
X167210000Y-90330000D01*
X167210000Y-90330000D02*
X167970000Y-91090000D01*
X174830000Y-91090000D02*
X175590000Y-90330000D01*
X175590000Y-90330000D02*
X175590000Y-82710000D01*
D13*
G04 #@! TO.C,G\002A\002A\002A*
G36*
X164666412Y-119575169D02*
X164745554Y-119574914D01*
X164819572Y-119574508D01*
X164887202Y-119573965D01*
X164947182Y-119573301D01*
X164998247Y-119572530D01*
X165039135Y-119571668D01*
X165068582Y-119570728D01*
X165085325Y-119569727D01*
X165088314Y-119569279D01*
X165098575Y-119563150D01*
X165117265Y-119547974D01*
X165144633Y-119523517D01*
X165180928Y-119489545D01*
X165226397Y-119445824D01*
X165281289Y-119392121D01*
X165345853Y-119328201D01*
X165367846Y-119306300D01*
X165625606Y-119049299D01*
X165875846Y-119300054D01*
X165926122Y-119350248D01*
X165973822Y-119397515D01*
X166017865Y-119440808D01*
X166057171Y-119479081D01*
X166090659Y-119511290D01*
X166117248Y-119536386D01*
X166135857Y-119553326D01*
X166145406Y-119561062D01*
X166145682Y-119561218D01*
X166173820Y-119569734D01*
X166207048Y-119570694D01*
X166238087Y-119564139D01*
X166245980Y-119560664D01*
X166263646Y-119547518D01*
X166281406Y-119528354D01*
X166285534Y-119522694D01*
X166303885Y-119495688D01*
X166303885Y-118432273D01*
X166303880Y-118287053D01*
X166303858Y-118155639D01*
X166303811Y-118037323D01*
X166303730Y-117931399D01*
X166303605Y-117837157D01*
X166303430Y-117753891D01*
X166303194Y-117680892D01*
X166302889Y-117617453D01*
X166302506Y-117562866D01*
X166302037Y-117516423D01*
X166301472Y-117477416D01*
X166300803Y-117445137D01*
X166300021Y-117418879D01*
X166299118Y-117397934D01*
X166298084Y-117381593D01*
X166296912Y-117369150D01*
X166295591Y-117359896D01*
X166294114Y-117353124D01*
X166292471Y-117348126D01*
X166290654Y-117344193D01*
X166290421Y-117343753D01*
X166273087Y-117322064D01*
X166248283Y-117303531D01*
X166245736Y-117302138D01*
X166214517Y-117285628D01*
X165728952Y-117285628D01*
X165620961Y-117285721D01*
X165527046Y-117286005D01*
X165446771Y-117286487D01*
X165379700Y-117287173D01*
X165325394Y-117288072D01*
X165283419Y-117289188D01*
X165253337Y-117290531D01*
X165234712Y-117292106D01*
X165227537Y-117293646D01*
X165219382Y-117300240D01*
X165202036Y-117316098D01*
X165176550Y-117340200D01*
X165143977Y-117371528D01*
X165105369Y-117409063D01*
X165061778Y-117451786D01*
X165014256Y-117498679D01*
X164963856Y-117548723D01*
X164955920Y-117556630D01*
X164700156Y-117811596D01*
X164444292Y-117556280D01*
X164393409Y-117505756D01*
X164345079Y-117458247D01*
X164300374Y-117414774D01*
X164260365Y-117376356D01*
X164226124Y-117344014D01*
X164198724Y-117318767D01*
X164179236Y-117301637D01*
X164168732Y-117293644D01*
X164167998Y-117293296D01*
X164134837Y-117286178D01*
X164101645Y-117291041D01*
X164078125Y-117300724D01*
X164050659Y-117320071D01*
X164032768Y-117346553D01*
X164030730Y-117350921D01*
X164028887Y-117355668D01*
X164027229Y-117361508D01*
X164025747Y-117369156D01*
X164024431Y-117379330D01*
X164023270Y-117392744D01*
X164022255Y-117410113D01*
X164021377Y-117432155D01*
X164020625Y-117459584D01*
X164019989Y-117493115D01*
X164019460Y-117533465D01*
X164019029Y-117581350D01*
X164018684Y-117637484D01*
X164018565Y-117666672D01*
X164242857Y-117666672D01*
X164393420Y-117817236D01*
X164543984Y-117967800D01*
X164543950Y-117967834D01*
X164856137Y-117967834D01*
X165313199Y-117510600D01*
X166078914Y-117510600D01*
X166078914Y-118276315D01*
X165850296Y-118504846D01*
X165621679Y-118733377D01*
X165238908Y-118350605D01*
X164856137Y-117967834D01*
X164543950Y-117967834D01*
X164242857Y-118268927D01*
X164242857Y-117666672D01*
X164018565Y-117666672D01*
X164018417Y-117702584D01*
X164018217Y-117777365D01*
X164018075Y-117862543D01*
X164017980Y-117958833D01*
X164017924Y-118066951D01*
X164017896Y-118187614D01*
X164017886Y-118321535D01*
X164017885Y-118431637D01*
X164017865Y-118578769D01*
X164017827Y-118712085D01*
X164017804Y-118832282D01*
X164017828Y-118940058D01*
X164017934Y-119036112D01*
X164018154Y-119121142D01*
X164018521Y-119195844D01*
X164019068Y-119260918D01*
X164019828Y-119317060D01*
X164020601Y-119353914D01*
X164242857Y-119353914D01*
X164242857Y-118581113D01*
X164469599Y-118354285D01*
X164516845Y-118307102D01*
X164560921Y-118263241D01*
X164600775Y-118223738D01*
X164635353Y-118189630D01*
X164663602Y-118161953D01*
X164684470Y-118141743D01*
X164696903Y-118130038D01*
X164700039Y-118127457D01*
X164705640Y-118132461D01*
X164720686Y-118146942D01*
X164744371Y-118170100D01*
X164775888Y-118201137D01*
X164814431Y-118239254D01*
X164859194Y-118283652D01*
X164909370Y-118333534D01*
X164964153Y-118388099D01*
X165022737Y-118446549D01*
X165084315Y-118508086D01*
X165084677Y-118508449D01*
X165465617Y-118889440D01*
X165461842Y-118893217D01*
X165781369Y-118893217D01*
X165928261Y-118746194D01*
X165965976Y-118708508D01*
X166000237Y-118674395D01*
X166029742Y-118645140D01*
X166053189Y-118622032D01*
X166069274Y-118606357D01*
X166076695Y-118599403D01*
X166077033Y-118599171D01*
X166077440Y-118606175D01*
X166077816Y-118626170D01*
X166078152Y-118657636D01*
X166078439Y-118699049D01*
X166078667Y-118748887D01*
X166078826Y-118805629D01*
X166078906Y-118867752D01*
X166078914Y-118894833D01*
X166078914Y-119190496D01*
X165930142Y-119041856D01*
X165781369Y-118893217D01*
X165461842Y-118893217D01*
X165001313Y-119353914D01*
X164242857Y-119353914D01*
X164020601Y-119353914D01*
X164020834Y-119364969D01*
X164022119Y-119405343D01*
X164023717Y-119438879D01*
X164025660Y-119466276D01*
X164027981Y-119488232D01*
X164030713Y-119505443D01*
X164033890Y-119518609D01*
X164037544Y-119528427D01*
X164041709Y-119535595D01*
X164046417Y-119540810D01*
X164051701Y-119544772D01*
X164057595Y-119548177D01*
X164064132Y-119551723D01*
X164071101Y-119555947D01*
X164100277Y-119575257D01*
X164583410Y-119575257D01*
X164666412Y-119575169D01*
X164666412Y-119575169D01*
G37*
X164666412Y-119575169D02*
X164745554Y-119574914D01*
X164819572Y-119574508D01*
X164887202Y-119573965D01*
X164947182Y-119573301D01*
X164998247Y-119572530D01*
X165039135Y-119571668D01*
X165068582Y-119570728D01*
X165085325Y-119569727D01*
X165088314Y-119569279D01*
X165098575Y-119563150D01*
X165117265Y-119547974D01*
X165144633Y-119523517D01*
X165180928Y-119489545D01*
X165226397Y-119445824D01*
X165281289Y-119392121D01*
X165345853Y-119328201D01*
X165367846Y-119306300D01*
X165625606Y-119049299D01*
X165875846Y-119300054D01*
X165926122Y-119350248D01*
X165973822Y-119397515D01*
X166017865Y-119440808D01*
X166057171Y-119479081D01*
X166090659Y-119511290D01*
X166117248Y-119536386D01*
X166135857Y-119553326D01*
X166145406Y-119561062D01*
X166145682Y-119561218D01*
X166173820Y-119569734D01*
X166207048Y-119570694D01*
X166238087Y-119564139D01*
X166245980Y-119560664D01*
X166263646Y-119547518D01*
X166281406Y-119528354D01*
X166285534Y-119522694D01*
X166303885Y-119495688D01*
X166303885Y-118432273D01*
X166303880Y-118287053D01*
X166303858Y-118155639D01*
X166303811Y-118037323D01*
X166303730Y-117931399D01*
X166303605Y-117837157D01*
X166303430Y-117753891D01*
X166303194Y-117680892D01*
X166302889Y-117617453D01*
X166302506Y-117562866D01*
X166302037Y-117516423D01*
X166301472Y-117477416D01*
X166300803Y-117445137D01*
X166300021Y-117418879D01*
X166299118Y-117397934D01*
X166298084Y-117381593D01*
X166296912Y-117369150D01*
X166295591Y-117359896D01*
X166294114Y-117353124D01*
X166292471Y-117348126D01*
X166290654Y-117344193D01*
X166290421Y-117343753D01*
X166273087Y-117322064D01*
X166248283Y-117303531D01*
X166245736Y-117302138D01*
X166214517Y-117285628D01*
X165728952Y-117285628D01*
X165620961Y-117285721D01*
X165527046Y-117286005D01*
X165446771Y-117286487D01*
X165379700Y-117287173D01*
X165325394Y-117288072D01*
X165283419Y-117289188D01*
X165253337Y-117290531D01*
X165234712Y-117292106D01*
X165227537Y-117293646D01*
X165219382Y-117300240D01*
X165202036Y-117316098D01*
X165176550Y-117340200D01*
X165143977Y-117371528D01*
X165105369Y-117409063D01*
X165061778Y-117451786D01*
X165014256Y-117498679D01*
X164963856Y-117548723D01*
X164955920Y-117556630D01*
X164700156Y-117811596D01*
X164444292Y-117556280D01*
X164393409Y-117505756D01*
X164345079Y-117458247D01*
X164300374Y-117414774D01*
X164260365Y-117376356D01*
X164226124Y-117344014D01*
X164198724Y-117318767D01*
X164179236Y-117301637D01*
X164168732Y-117293644D01*
X164167998Y-117293296D01*
X164134837Y-117286178D01*
X164101645Y-117291041D01*
X164078125Y-117300724D01*
X164050659Y-117320071D01*
X164032768Y-117346553D01*
X164030730Y-117350921D01*
X164028887Y-117355668D01*
X164027229Y-117361508D01*
X164025747Y-117369156D01*
X164024431Y-117379330D01*
X164023270Y-117392744D01*
X164022255Y-117410113D01*
X164021377Y-117432155D01*
X164020625Y-117459584D01*
X164019989Y-117493115D01*
X164019460Y-117533465D01*
X164019029Y-117581350D01*
X164018684Y-117637484D01*
X164018565Y-117666672D01*
X164242857Y-117666672D01*
X164393420Y-117817236D01*
X164543984Y-117967800D01*
X164543950Y-117967834D01*
X164856137Y-117967834D01*
X165313199Y-117510600D01*
X166078914Y-117510600D01*
X166078914Y-118276315D01*
X165850296Y-118504846D01*
X165621679Y-118733377D01*
X165238908Y-118350605D01*
X164856137Y-117967834D01*
X164543950Y-117967834D01*
X164242857Y-118268927D01*
X164242857Y-117666672D01*
X164018565Y-117666672D01*
X164018417Y-117702584D01*
X164018217Y-117777365D01*
X164018075Y-117862543D01*
X164017980Y-117958833D01*
X164017924Y-118066951D01*
X164017896Y-118187614D01*
X164017886Y-118321535D01*
X164017885Y-118431637D01*
X164017865Y-118578769D01*
X164017827Y-118712085D01*
X164017804Y-118832282D01*
X164017828Y-118940058D01*
X164017934Y-119036112D01*
X164018154Y-119121142D01*
X164018521Y-119195844D01*
X164019068Y-119260918D01*
X164019828Y-119317060D01*
X164020601Y-119353914D01*
X164242857Y-119353914D01*
X164242857Y-118581113D01*
X164469599Y-118354285D01*
X164516845Y-118307102D01*
X164560921Y-118263241D01*
X164600775Y-118223738D01*
X164635353Y-118189630D01*
X164663602Y-118161953D01*
X164684470Y-118141743D01*
X164696903Y-118130038D01*
X164700039Y-118127457D01*
X164705640Y-118132461D01*
X164720686Y-118146942D01*
X164744371Y-118170100D01*
X164775888Y-118201137D01*
X164814431Y-118239254D01*
X164859194Y-118283652D01*
X164909370Y-118333534D01*
X164964153Y-118388099D01*
X165022737Y-118446549D01*
X165084315Y-118508086D01*
X165084677Y-118508449D01*
X165465617Y-118889440D01*
X165461842Y-118893217D01*
X165781369Y-118893217D01*
X165928261Y-118746194D01*
X165965976Y-118708508D01*
X166000237Y-118674395D01*
X166029742Y-118645140D01*
X166053189Y-118622032D01*
X166069274Y-118606357D01*
X166076695Y-118599403D01*
X166077033Y-118599171D01*
X166077440Y-118606175D01*
X166077816Y-118626170D01*
X166078152Y-118657636D01*
X166078439Y-118699049D01*
X166078667Y-118748887D01*
X166078826Y-118805629D01*
X166078906Y-118867752D01*
X166078914Y-118894833D01*
X166078914Y-119190496D01*
X165930142Y-119041856D01*
X165781369Y-118893217D01*
X165461842Y-118893217D01*
X165001313Y-119353914D01*
X164242857Y-119353914D01*
X164020601Y-119353914D01*
X164020834Y-119364969D01*
X164022119Y-119405343D01*
X164023717Y-119438879D01*
X164025660Y-119466276D01*
X164027981Y-119488232D01*
X164030713Y-119505443D01*
X164033890Y-119518609D01*
X164037544Y-119528427D01*
X164041709Y-119535595D01*
X164046417Y-119540810D01*
X164051701Y-119544772D01*
X164057595Y-119548177D01*
X164064132Y-119551723D01*
X164071101Y-119555947D01*
X164100277Y-119575257D01*
X164583410Y-119575257D01*
X164666412Y-119575169D01*
G36*
X165263839Y-120163085D02*
X165316575Y-120158601D01*
X165354685Y-120235229D01*
X165371608Y-120269039D01*
X165384589Y-120291733D01*
X165396519Y-120304999D01*
X165410290Y-120310525D01*
X165428796Y-120309999D01*
X165454927Y-120305110D01*
X165469231Y-120302086D01*
X165509063Y-120293714D01*
X165521943Y-120210765D01*
X165527225Y-120177870D01*
X165531922Y-120150687D01*
X165535501Y-120132160D01*
X165537368Y-120125269D01*
X165545409Y-120121710D01*
X165561431Y-120116555D01*
X165562528Y-120116238D01*
X165572312Y-120113914D01*
X165580502Y-120114585D01*
X165589132Y-120120026D01*
X165600237Y-120132010D01*
X165615853Y-120152311D01*
X165636735Y-120180941D01*
X165688328Y-120252129D01*
X165740293Y-120236346D01*
X165792257Y-120220562D01*
X165795885Y-120131223D01*
X165799514Y-120041884D01*
X165821285Y-120032585D01*
X165830782Y-120029013D01*
X165839103Y-120028531D01*
X165848568Y-120032576D01*
X165861500Y-120042587D01*
X165880221Y-120060000D01*
X165905508Y-120084734D01*
X165967960Y-120146181D01*
X166019911Y-120120019D01*
X166046016Y-120106308D01*
X166061224Y-120096361D01*
X166067919Y-120088085D01*
X166068485Y-120079386D01*
X166068133Y-120077671D01*
X166065398Y-120063573D01*
X166061176Y-120039273D01*
X166056175Y-120008917D01*
X166053570Y-119992543D01*
X166048682Y-119960676D01*
X166046262Y-119939991D01*
X166046520Y-119927333D01*
X166049667Y-119919545D01*
X166055914Y-119913473D01*
X166059011Y-119911061D01*
X166073685Y-119901751D01*
X166083407Y-119898361D01*
X166092182Y-119902354D01*
X166109945Y-119913330D01*
X166134059Y-119929577D01*
X166160135Y-119948110D01*
X166228740Y-119998021D01*
X166270987Y-119966417D01*
X166292076Y-119950533D01*
X166308259Y-119938142D01*
X166316329Y-119931703D01*
X166316569Y-119931478D01*
X166315715Y-119923704D01*
X166310912Y-119905032D01*
X166302951Y-119878281D01*
X166292890Y-119847070D01*
X166265875Y-119765997D01*
X166301769Y-119730103D01*
X166381460Y-119770069D01*
X166461150Y-119810036D01*
X166502012Y-119769173D01*
X166542875Y-119728311D01*
X166501650Y-119649879D01*
X166460426Y-119571446D01*
X166496287Y-119535585D01*
X166578596Y-119561363D01*
X166610848Y-119571130D01*
X166637732Y-119578641D01*
X166656431Y-119583151D01*
X166664121Y-119583926D01*
X166673464Y-119572877D01*
X166686634Y-119555353D01*
X166700978Y-119535161D01*
X166713840Y-119516104D01*
X166722566Y-119501989D01*
X166724800Y-119496955D01*
X166720735Y-119488690D01*
X166709726Y-119471493D01*
X166693547Y-119448035D01*
X166677628Y-119425950D01*
X166658492Y-119399052D01*
X166643118Y-119375866D01*
X166633290Y-119359186D01*
X166630618Y-119352355D01*
X166634881Y-119340062D01*
X166643318Y-119326745D01*
X166647723Y-119321113D01*
X166652357Y-119317118D01*
X166659170Y-119314868D01*
X166670112Y-119314468D01*
X166687132Y-119316025D01*
X166712183Y-119319642D01*
X166747212Y-119325428D01*
X166794172Y-119333488D01*
X166806442Y-119335601D01*
X166816929Y-119336314D01*
X166825295Y-119332553D01*
X166833907Y-119321838D01*
X166845126Y-119301690D01*
X166852419Y-119287370D01*
X166878438Y-119235703D01*
X166816575Y-119173251D01*
X166754711Y-119110800D01*
X166764710Y-119087441D01*
X166774708Y-119064082D01*
X166862933Y-119062041D01*
X166951159Y-119060000D01*
X166983981Y-118956402D01*
X166916162Y-118907862D01*
X166889069Y-118888224D01*
X166866637Y-118871499D01*
X166851338Y-118859562D01*
X166845694Y-118854432D01*
X166845583Y-118844685D01*
X166848954Y-118827817D01*
X166849179Y-118826979D01*
X166852202Y-118817350D01*
X166856815Y-118810496D01*
X166865596Y-118805389D01*
X166881124Y-118800997D01*
X166905980Y-118796292D01*
X166940127Y-118790668D01*
X166977195Y-118784647D01*
X167002577Y-118779273D01*
X167018808Y-118772304D01*
X167028427Y-118761494D01*
X167033969Y-118744600D01*
X167037970Y-118719379D01*
X167040310Y-118702047D01*
X167045238Y-118666216D01*
X166968476Y-118625042D01*
X166936056Y-118607465D01*
X166914344Y-118594804D01*
X166901196Y-118585224D01*
X166894472Y-118576892D01*
X166892027Y-118567973D01*
X166891714Y-118559351D01*
X166891714Y-118534836D01*
X166975438Y-118507280D01*
X167059161Y-118479725D01*
X167057080Y-118422108D01*
X167055000Y-118364492D01*
X166975171Y-118337937D01*
X166895342Y-118311383D01*
X166893107Y-118285012D01*
X166890871Y-118258641D01*
X166965678Y-118221244D01*
X166995419Y-118206294D01*
X167020003Y-118193782D01*
X167036752Y-118185081D01*
X167042946Y-118181615D01*
X167043155Y-118173892D01*
X167041328Y-118156250D01*
X167038133Y-118133030D01*
X167034240Y-118108571D01*
X167030319Y-118087214D01*
X167027038Y-118073300D01*
X167025797Y-118070436D01*
X167017780Y-118068018D01*
X166998428Y-118063873D01*
X166970734Y-118058603D01*
X166940999Y-118053370D01*
X166908465Y-118047692D01*
X166881686Y-118042731D01*
X166863605Y-118039053D01*
X166857191Y-118037296D01*
X166853872Y-118029512D01*
X166848832Y-118013640D01*
X166848495Y-118012472D01*
X166846172Y-118002693D01*
X166846841Y-117994506D01*
X166852275Y-117985879D01*
X166864248Y-117974779D01*
X166884533Y-117959173D01*
X166913293Y-117938196D01*
X166984576Y-117886533D01*
X166966518Y-117832824D01*
X166948459Y-117779114D01*
X166774899Y-117779114D01*
X166764805Y-117755528D01*
X166754711Y-117731943D01*
X166816575Y-117669491D01*
X166878438Y-117607040D01*
X166852903Y-117556335D01*
X166827369Y-117505630D01*
X166741822Y-117519237D01*
X166656276Y-117532844D01*
X166643527Y-117516279D01*
X166634128Y-117501519D01*
X166630618Y-117491592D01*
X166634611Y-117482811D01*
X166645582Y-117465050D01*
X166661818Y-117440953D01*
X166680133Y-117415187D01*
X166729808Y-117346904D01*
X166707245Y-117317512D01*
X166691540Y-117296601D01*
X166677839Y-117277607D01*
X166673504Y-117271287D01*
X166662327Y-117254453D01*
X166580291Y-117281789D01*
X166498254Y-117309124D01*
X166462360Y-117273230D01*
X166502326Y-117193540D01*
X166542292Y-117113849D01*
X166460941Y-117032498D01*
X166382759Y-117073792D01*
X166304577Y-117115085D01*
X166285652Y-117096342D01*
X166266728Y-117077598D01*
X166293193Y-116995734D01*
X166303022Y-116963427D01*
X166310142Y-116936221D01*
X166313876Y-116917004D01*
X166313586Y-116908695D01*
X166299882Y-116897984D01*
X166280927Y-116884307D01*
X166260495Y-116870235D01*
X166242360Y-116858339D01*
X166230295Y-116851191D01*
X166227736Y-116850200D01*
X166220090Y-116854251D01*
X166203421Y-116865227D01*
X166180332Y-116881362D01*
X166158207Y-116897371D01*
X166131308Y-116916507D01*
X166108123Y-116931881D01*
X166091443Y-116941710D01*
X166084612Y-116944381D01*
X166072324Y-116940093D01*
X166059170Y-116931681D01*
X166051812Y-116925426D01*
X166047610Y-116918566D01*
X166046355Y-116907943D01*
X166047839Y-116890399D01*
X166051856Y-116862775D01*
X166053813Y-116850200D01*
X166058896Y-116818355D01*
X166063553Y-116790466D01*
X166067083Y-116770680D01*
X166068217Y-116765071D01*
X166068415Y-116756070D01*
X166062880Y-116747841D01*
X166049225Y-116738291D01*
X166025064Y-116725331D01*
X166019911Y-116722723D01*
X165967960Y-116696561D01*
X165904670Y-116759557D01*
X165841381Y-116822554D01*
X165818633Y-116810790D01*
X165795885Y-116799027D01*
X165795885Y-116626540D01*
X165742425Y-116608566D01*
X165688965Y-116590591D01*
X165640272Y-116658623D01*
X165620603Y-116685761D01*
X165603846Y-116708240D01*
X165591872Y-116723594D01*
X165586689Y-116729305D01*
X165576960Y-116729404D01*
X165560027Y-116726035D01*
X165558863Y-116725724D01*
X165550719Y-116723611D01*
X165544567Y-116721030D01*
X165539782Y-116715999D01*
X165535739Y-116706537D01*
X165531812Y-116690662D01*
X165527375Y-116666391D01*
X165521805Y-116631744D01*
X165514569Y-116585341D01*
X165508901Y-116549083D01*
X165455469Y-116539514D01*
X165428988Y-116535636D01*
X165408185Y-116534192D01*
X165397028Y-116535429D01*
X165396435Y-116535858D01*
X165390925Y-116544355D01*
X165380306Y-116562827D01*
X165366200Y-116588394D01*
X165353020Y-116612916D01*
X165315206Y-116684060D01*
X165288909Y-116681858D01*
X165262611Y-116679657D01*
X165212255Y-116516371D01*
X165153913Y-116516392D01*
X165095571Y-116516412D01*
X165070068Y-116598035D01*
X165044565Y-116679657D01*
X165018307Y-116681858D01*
X164992050Y-116684060D01*
X164954236Y-116612916D01*
X164938472Y-116583652D01*
X164924846Y-116559092D01*
X164914984Y-116542119D01*
X164910821Y-116535858D01*
X164901443Y-116534201D01*
X164881827Y-116535260D01*
X164855941Y-116538791D01*
X164851787Y-116539514D01*
X164798355Y-116549083D01*
X164792687Y-116585341D01*
X164785380Y-116632198D01*
X164779826Y-116666717D01*
X164775399Y-116690883D01*
X164771474Y-116706675D01*
X164767425Y-116716076D01*
X164762629Y-116721069D01*
X164756458Y-116723633D01*
X164748393Y-116725724D01*
X164731227Y-116729284D01*
X164720843Y-116729431D01*
X164720567Y-116729305D01*
X164714635Y-116722672D01*
X164702202Y-116706647D01*
X164685139Y-116683697D01*
X164666984Y-116658623D01*
X164618291Y-116590591D01*
X164564831Y-116608566D01*
X164511371Y-116626540D01*
X164511371Y-116799027D01*
X164488623Y-116810790D01*
X164465876Y-116822554D01*
X164402586Y-116759557D01*
X164339297Y-116696561D01*
X164287346Y-116722723D01*
X164261225Y-116736447D01*
X164246003Y-116746415D01*
X164239294Y-116754718D01*
X164238713Y-116763447D01*
X164239040Y-116765071D01*
X164241730Y-116779171D01*
X164245904Y-116803473D01*
X164250859Y-116833832D01*
X164253443Y-116850200D01*
X164258294Y-116882078D01*
X164260685Y-116902776D01*
X164260408Y-116915452D01*
X164257256Y-116923265D01*
X164251021Y-116929373D01*
X164248086Y-116931681D01*
X164233012Y-116941051D01*
X164222644Y-116944381D01*
X164213291Y-116940361D01*
X164195169Y-116929349D01*
X164171068Y-116913128D01*
X164149050Y-116897371D01*
X164122614Y-116878300D01*
X164100443Y-116862925D01*
X164085139Y-116853013D01*
X164079520Y-116850200D01*
X164071834Y-116854064D01*
X164056218Y-116863942D01*
X164036446Y-116877263D01*
X164016292Y-116891456D01*
X163999529Y-116903949D01*
X163993670Y-116908695D01*
X163993408Y-116917217D01*
X163997197Y-116936574D01*
X164004362Y-116963877D01*
X164014063Y-116995734D01*
X164040528Y-117077598D01*
X164021604Y-117096342D01*
X164002679Y-117115085D01*
X163924497Y-117073792D01*
X163846315Y-117032498D01*
X163764964Y-117113849D01*
X163804930Y-117193540D01*
X163844896Y-117273230D01*
X163809002Y-117309124D01*
X163726966Y-117281789D01*
X163644929Y-117254453D01*
X163633752Y-117271287D01*
X163622578Y-117287200D01*
X163607208Y-117308035D01*
X163600011Y-117317512D01*
X163577448Y-117346904D01*
X163627124Y-117415187D01*
X163646717Y-117442801D01*
X163662639Y-117466538D01*
X163673175Y-117483754D01*
X163676638Y-117491592D01*
X163672417Y-117502878D01*
X163663729Y-117516279D01*
X163650981Y-117532844D01*
X163479887Y-117505630D01*
X163454353Y-117556335D01*
X163428818Y-117607040D01*
X163490681Y-117669491D01*
X163552545Y-117731943D01*
X163542451Y-117755528D01*
X163532357Y-117779114D01*
X163358797Y-117779114D01*
X163340739Y-117832824D01*
X163322680Y-117886533D01*
X163393964Y-117938196D01*
X163423841Y-117960002D01*
X163443713Y-117975362D01*
X163455353Y-117986306D01*
X163460534Y-117994869D01*
X163461030Y-118003084D01*
X163458761Y-118012472D01*
X163453681Y-118028664D01*
X163450188Y-118037152D01*
X163450065Y-118037296D01*
X163442462Y-118039315D01*
X163423482Y-118043131D01*
X163396067Y-118048179D01*
X163366258Y-118053370D01*
X163333595Y-118059139D01*
X163306570Y-118064328D01*
X163288172Y-118068333D01*
X163281459Y-118070436D01*
X163278783Y-118078700D01*
X163275115Y-118096688D01*
X163271124Y-118120058D01*
X163267479Y-118144470D01*
X163264849Y-118165585D01*
X163263905Y-118179060D01*
X163264310Y-118181615D01*
X163271397Y-118185553D01*
X163288803Y-118194577D01*
X163313850Y-118207312D01*
X163341578Y-118221244D01*
X163416385Y-118258641D01*
X163414150Y-118285012D01*
X163411914Y-118311383D01*
X163332085Y-118337937D01*
X163252257Y-118364492D01*
X163250176Y-118422108D01*
X163250072Y-118425000D01*
X163514077Y-118425000D01*
X163514958Y-118345760D01*
X163517564Y-118277458D01*
X163522355Y-118216569D01*
X163529793Y-118159573D01*
X163540337Y-118102946D01*
X163554450Y-118043165D01*
X163572591Y-117976709D01*
X163572842Y-117975835D01*
X163621593Y-117831221D01*
X163682767Y-117693153D01*
X163755643Y-117562271D01*
X163839504Y-117439217D01*
X163933630Y-117324630D01*
X164037302Y-117219151D01*
X164149802Y-117123420D01*
X164270410Y-117038079D01*
X164398409Y-116963768D01*
X164533078Y-116901127D01*
X164673700Y-116850796D01*
X164819555Y-116813417D01*
X164892371Y-116800078D01*
X164936331Y-116793208D01*
X164972776Y-116788039D01*
X165004960Y-116784375D01*
X165036136Y-116782020D01*
X165069559Y-116780780D01*
X165108482Y-116780457D01*
X165156160Y-116780857D01*
X165200800Y-116781532D01*
X165260988Y-116782983D01*
X165310950Y-116785380D01*
X165354961Y-116789085D01*
X165397297Y-116794461D01*
X165442234Y-116801873D01*
X165443914Y-116802175D01*
X165595530Y-116836565D01*
X165740952Y-116883612D01*
X165879616Y-116942685D01*
X166010961Y-117013154D01*
X166134425Y-117094391D01*
X166249446Y-117185765D01*
X166355461Y-117286647D01*
X166451908Y-117396406D01*
X166538226Y-117514414D01*
X166613853Y-117640039D01*
X166678226Y-117772653D01*
X166730783Y-117911625D01*
X166770962Y-118056326D01*
X166798201Y-118206126D01*
X166810555Y-118333466D01*
X166812605Y-118488222D01*
X166800504Y-118640723D01*
X166774537Y-118790225D01*
X166734988Y-118935984D01*
X166682142Y-119077257D01*
X166616284Y-119213300D01*
X166537697Y-119343370D01*
X166446668Y-119466723D01*
X166343479Y-119582615D01*
X166325617Y-119600657D01*
X166210126Y-119705614D01*
X166087158Y-119798233D01*
X165957268Y-119878263D01*
X165821010Y-119945456D01*
X165678940Y-119999561D01*
X165531611Y-120040331D01*
X165379578Y-120067515D01*
X165261735Y-120078904D01*
X165109027Y-120081344D01*
X164958884Y-120069904D01*
X164812043Y-120045101D01*
X164669241Y-120007456D01*
X164531215Y-119957485D01*
X164398702Y-119895707D01*
X164272440Y-119822641D01*
X164153165Y-119738805D01*
X164041615Y-119644718D01*
X163938527Y-119540897D01*
X163844638Y-119427862D01*
X163760685Y-119306131D01*
X163687406Y-119176221D01*
X163625537Y-119038653D01*
X163575815Y-118893943D01*
X163575564Y-118893085D01*
X163555947Y-118822246D01*
X163540731Y-118757608D01*
X163529444Y-118695586D01*
X163521615Y-118632596D01*
X163516775Y-118565053D01*
X163514451Y-118489372D01*
X163514077Y-118425000D01*
X163250072Y-118425000D01*
X163248095Y-118479725D01*
X163331819Y-118507280D01*
X163415542Y-118534836D01*
X163415542Y-118559351D01*
X163414959Y-118570018D01*
X163411781Y-118578657D01*
X163403865Y-118587102D01*
X163389069Y-118597186D01*
X163365250Y-118610743D01*
X163338780Y-118625042D01*
X163262018Y-118666216D01*
X163266946Y-118702047D01*
X163271155Y-118732540D01*
X163275572Y-118753526D01*
X163282734Y-118767250D01*
X163295178Y-118775956D01*
X163315439Y-118781887D01*
X163346056Y-118787288D01*
X163367129Y-118790668D01*
X163403096Y-118796605D01*
X163427313Y-118801262D01*
X163442359Y-118805668D01*
X163450814Y-118810852D01*
X163455256Y-118817844D01*
X163458077Y-118826979D01*
X163461588Y-118844013D01*
X163461656Y-118854236D01*
X163461562Y-118854432D01*
X163454927Y-118860367D01*
X163438906Y-118872798D01*
X163415968Y-118889853D01*
X163391094Y-118907862D01*
X163323275Y-118956402D01*
X163339686Y-119008201D01*
X163356098Y-119060000D01*
X163532548Y-119064082D01*
X163542546Y-119087441D01*
X163552545Y-119110800D01*
X163490681Y-119173251D01*
X163428818Y-119235703D01*
X163454837Y-119287370D01*
X163468237Y-119313140D01*
X163477851Y-119328242D01*
X163486044Y-119335155D01*
X163495179Y-119336360D01*
X163500814Y-119335601D01*
X163550694Y-119327021D01*
X163588210Y-119320739D01*
X163615312Y-119316648D01*
X163633951Y-119314642D01*
X163646077Y-119314616D01*
X163653640Y-119316463D01*
X163658590Y-119320078D01*
X163662878Y-119325355D01*
X163663938Y-119326745D01*
X163673284Y-119341895D01*
X163676638Y-119352355D01*
X163672616Y-119361683D01*
X163661591Y-119379810D01*
X163645333Y-119403971D01*
X163628919Y-119426916D01*
X163608859Y-119455629D01*
X163594078Y-119479578D01*
X163585974Y-119496350D01*
X163585056Y-119502621D01*
X163591333Y-119513854D01*
X163602938Y-119531049D01*
X163617125Y-119550536D01*
X163631148Y-119568644D01*
X163642262Y-119581701D01*
X163647506Y-119586101D01*
X163655573Y-119584028D01*
X163674567Y-119578428D01*
X163701581Y-119570174D01*
X163731228Y-119560922D01*
X163811057Y-119535785D01*
X163828944Y-119553615D01*
X163846830Y-119571446D01*
X163805606Y-119649879D01*
X163764382Y-119728311D01*
X163805244Y-119769173D01*
X163846106Y-119810036D01*
X163925797Y-119770069D01*
X164005487Y-119730103D01*
X164041381Y-119765997D01*
X164014367Y-119847070D01*
X164004086Y-119878989D01*
X163996190Y-119905581D01*
X163991472Y-119924027D01*
X163990687Y-119931478D01*
X163997750Y-119937172D01*
X164013253Y-119949069D01*
X164033989Y-119964710D01*
X164036269Y-119966417D01*
X164078516Y-119998021D01*
X164147122Y-119948110D01*
X164174800Y-119928467D01*
X164198603Y-119912492D01*
X164215893Y-119901894D01*
X164223849Y-119898361D01*
X164235173Y-119902585D01*
X164248245Y-119911061D01*
X164255677Y-119917294D01*
X164259932Y-119924089D01*
X164261221Y-119934601D01*
X164259755Y-119951987D01*
X164255745Y-119979402D01*
X164253686Y-119992543D01*
X164248562Y-120024385D01*
X164243856Y-120052273D01*
X164240279Y-120072059D01*
X164239124Y-120077671D01*
X164238864Y-120086658D01*
X164244320Y-120094858D01*
X164257873Y-120104363D01*
X164281907Y-120117267D01*
X164287346Y-120120019D01*
X164339297Y-120146181D01*
X164401748Y-120084734D01*
X164428127Y-120058949D01*
X164446509Y-120041933D01*
X164459216Y-120032250D01*
X164468570Y-120028461D01*
X164476894Y-120029128D01*
X164485971Y-120032585D01*
X164507742Y-120041884D01*
X164515000Y-120220562D01*
X164566964Y-120236346D01*
X164618928Y-120252129D01*
X164670521Y-120180941D01*
X164692311Y-120151086D01*
X164707657Y-120131237D01*
X164718592Y-120119618D01*
X164727152Y-120114455D01*
X164735373Y-120113973D01*
X164744728Y-120116238D01*
X164761040Y-120121421D01*
X164769739Y-120125139D01*
X164769888Y-120125269D01*
X164771940Y-120133023D01*
X164775605Y-120152189D01*
X164780355Y-120179822D01*
X164785313Y-120210765D01*
X164798193Y-120293714D01*
X164838025Y-120302086D01*
X164868326Y-120308333D01*
X164889756Y-120310942D01*
X164905209Y-120308226D01*
X164917577Y-120298495D01*
X164929751Y-120280063D01*
X164944625Y-120251240D01*
X164952572Y-120235229D01*
X164990681Y-120158601D01*
X165017377Y-120160843D01*
X165044072Y-120163085D01*
X165094308Y-120326371D01*
X165212921Y-120326371D01*
X165263839Y-120163085D01*
X165263839Y-120163085D01*
G37*
X165263839Y-120163085D02*
X165316575Y-120158601D01*
X165354685Y-120235229D01*
X165371608Y-120269039D01*
X165384589Y-120291733D01*
X165396519Y-120304999D01*
X165410290Y-120310525D01*
X165428796Y-120309999D01*
X165454927Y-120305110D01*
X165469231Y-120302086D01*
X165509063Y-120293714D01*
X165521943Y-120210765D01*
X165527225Y-120177870D01*
X165531922Y-120150687D01*
X165535501Y-120132160D01*
X165537368Y-120125269D01*
X165545409Y-120121710D01*
X165561431Y-120116555D01*
X165562528Y-120116238D01*
X165572312Y-120113914D01*
X165580502Y-120114585D01*
X165589132Y-120120026D01*
X165600237Y-120132010D01*
X165615853Y-120152311D01*
X165636735Y-120180941D01*
X165688328Y-120252129D01*
X165740293Y-120236346D01*
X165792257Y-120220562D01*
X165795885Y-120131223D01*
X165799514Y-120041884D01*
X165821285Y-120032585D01*
X165830782Y-120029013D01*
X165839103Y-120028531D01*
X165848568Y-120032576D01*
X165861500Y-120042587D01*
X165880221Y-120060000D01*
X165905508Y-120084734D01*
X165967960Y-120146181D01*
X166019911Y-120120019D01*
X166046016Y-120106308D01*
X166061224Y-120096361D01*
X166067919Y-120088085D01*
X166068485Y-120079386D01*
X166068133Y-120077671D01*
X166065398Y-120063573D01*
X166061176Y-120039273D01*
X166056175Y-120008917D01*
X166053570Y-119992543D01*
X166048682Y-119960676D01*
X166046262Y-119939991D01*
X166046520Y-119927333D01*
X166049667Y-119919545D01*
X166055914Y-119913473D01*
X166059011Y-119911061D01*
X166073685Y-119901751D01*
X166083407Y-119898361D01*
X166092182Y-119902354D01*
X166109945Y-119913330D01*
X166134059Y-119929577D01*
X166160135Y-119948110D01*
X166228740Y-119998021D01*
X166270987Y-119966417D01*
X166292076Y-119950533D01*
X166308259Y-119938142D01*
X166316329Y-119931703D01*
X166316569Y-119931478D01*
X166315715Y-119923704D01*
X166310912Y-119905032D01*
X166302951Y-119878281D01*
X166292890Y-119847070D01*
X166265875Y-119765997D01*
X166301769Y-119730103D01*
X166381460Y-119770069D01*
X166461150Y-119810036D01*
X166502012Y-119769173D01*
X166542875Y-119728311D01*
X166501650Y-119649879D01*
X166460426Y-119571446D01*
X166496287Y-119535585D01*
X166578596Y-119561363D01*
X166610848Y-119571130D01*
X166637732Y-119578641D01*
X166656431Y-119583151D01*
X166664121Y-119583926D01*
X166673464Y-119572877D01*
X166686634Y-119555353D01*
X166700978Y-119535161D01*
X166713840Y-119516104D01*
X166722566Y-119501989D01*
X166724800Y-119496955D01*
X166720735Y-119488690D01*
X166709726Y-119471493D01*
X166693547Y-119448035D01*
X166677628Y-119425950D01*
X166658492Y-119399052D01*
X166643118Y-119375866D01*
X166633290Y-119359186D01*
X166630618Y-119352355D01*
X166634881Y-119340062D01*
X166643318Y-119326745D01*
X166647723Y-119321113D01*
X166652357Y-119317118D01*
X166659170Y-119314868D01*
X166670112Y-119314468D01*
X166687132Y-119316025D01*
X166712183Y-119319642D01*
X166747212Y-119325428D01*
X166794172Y-119333488D01*
X166806442Y-119335601D01*
X166816929Y-119336314D01*
X166825295Y-119332553D01*
X166833907Y-119321838D01*
X166845126Y-119301690D01*
X166852419Y-119287370D01*
X166878438Y-119235703D01*
X166816575Y-119173251D01*
X166754711Y-119110800D01*
X166764710Y-119087441D01*
X166774708Y-119064082D01*
X166862933Y-119062041D01*
X166951159Y-119060000D01*
X166983981Y-118956402D01*
X166916162Y-118907862D01*
X166889069Y-118888224D01*
X166866637Y-118871499D01*
X166851338Y-118859562D01*
X166845694Y-118854432D01*
X166845583Y-118844685D01*
X166848954Y-118827817D01*
X166849179Y-118826979D01*
X166852202Y-118817350D01*
X166856815Y-118810496D01*
X166865596Y-118805389D01*
X166881124Y-118800997D01*
X166905980Y-118796292D01*
X166940127Y-118790668D01*
X166977195Y-118784647D01*
X167002577Y-118779273D01*
X167018808Y-118772304D01*
X167028427Y-118761494D01*
X167033969Y-118744600D01*
X167037970Y-118719379D01*
X167040310Y-118702047D01*
X167045238Y-118666216D01*
X166968476Y-118625042D01*
X166936056Y-118607465D01*
X166914344Y-118594804D01*
X166901196Y-118585224D01*
X166894472Y-118576892D01*
X166892027Y-118567973D01*
X166891714Y-118559351D01*
X166891714Y-118534836D01*
X166975438Y-118507280D01*
X167059161Y-118479725D01*
X167057080Y-118422108D01*
X167055000Y-118364492D01*
X166975171Y-118337937D01*
X166895342Y-118311383D01*
X166893107Y-118285012D01*
X166890871Y-118258641D01*
X166965678Y-118221244D01*
X166995419Y-118206294D01*
X167020003Y-118193782D01*
X167036752Y-118185081D01*
X167042946Y-118181615D01*
X167043155Y-118173892D01*
X167041328Y-118156250D01*
X167038133Y-118133030D01*
X167034240Y-118108571D01*
X167030319Y-118087214D01*
X167027038Y-118073300D01*
X167025797Y-118070436D01*
X167017780Y-118068018D01*
X166998428Y-118063873D01*
X166970734Y-118058603D01*
X166940999Y-118053370D01*
X166908465Y-118047692D01*
X166881686Y-118042731D01*
X166863605Y-118039053D01*
X166857191Y-118037296D01*
X166853872Y-118029512D01*
X166848832Y-118013640D01*
X166848495Y-118012472D01*
X166846172Y-118002693D01*
X166846841Y-117994506D01*
X166852275Y-117985879D01*
X166864248Y-117974779D01*
X166884533Y-117959173D01*
X166913293Y-117938196D01*
X166984576Y-117886533D01*
X166966518Y-117832824D01*
X166948459Y-117779114D01*
X166774899Y-117779114D01*
X166764805Y-117755528D01*
X166754711Y-117731943D01*
X166816575Y-117669491D01*
X166878438Y-117607040D01*
X166852903Y-117556335D01*
X166827369Y-117505630D01*
X166741822Y-117519237D01*
X166656276Y-117532844D01*
X166643527Y-117516279D01*
X166634128Y-117501519D01*
X166630618Y-117491592D01*
X166634611Y-117482811D01*
X166645582Y-117465050D01*
X166661818Y-117440953D01*
X166680133Y-117415187D01*
X166729808Y-117346904D01*
X166707245Y-117317512D01*
X166691540Y-117296601D01*
X166677839Y-117277607D01*
X166673504Y-117271287D01*
X166662327Y-117254453D01*
X166580291Y-117281789D01*
X166498254Y-117309124D01*
X166462360Y-117273230D01*
X166502326Y-117193540D01*
X166542292Y-117113849D01*
X166460941Y-117032498D01*
X166382759Y-117073792D01*
X166304577Y-117115085D01*
X166285652Y-117096342D01*
X166266728Y-117077598D01*
X166293193Y-116995734D01*
X166303022Y-116963427D01*
X166310142Y-116936221D01*
X166313876Y-116917004D01*
X166313586Y-116908695D01*
X166299882Y-116897984D01*
X166280927Y-116884307D01*
X166260495Y-116870235D01*
X166242360Y-116858339D01*
X166230295Y-116851191D01*
X166227736Y-116850200D01*
X166220090Y-116854251D01*
X166203421Y-116865227D01*
X166180332Y-116881362D01*
X166158207Y-116897371D01*
X166131308Y-116916507D01*
X166108123Y-116931881D01*
X166091443Y-116941710D01*
X166084612Y-116944381D01*
X166072324Y-116940093D01*
X166059170Y-116931681D01*
X166051812Y-116925426D01*
X166047610Y-116918566D01*
X166046355Y-116907943D01*
X166047839Y-116890399D01*
X166051856Y-116862775D01*
X166053813Y-116850200D01*
X166058896Y-116818355D01*
X166063553Y-116790466D01*
X166067083Y-116770680D01*
X166068217Y-116765071D01*
X166068415Y-116756070D01*
X166062880Y-116747841D01*
X166049225Y-116738291D01*
X166025064Y-116725331D01*
X166019911Y-116722723D01*
X165967960Y-116696561D01*
X165904670Y-116759557D01*
X165841381Y-116822554D01*
X165818633Y-116810790D01*
X165795885Y-116799027D01*
X165795885Y-116626540D01*
X165742425Y-116608566D01*
X165688965Y-116590591D01*
X165640272Y-116658623D01*
X165620603Y-116685761D01*
X165603846Y-116708240D01*
X165591872Y-116723594D01*
X165586689Y-116729305D01*
X165576960Y-116729404D01*
X165560027Y-116726035D01*
X165558863Y-116725724D01*
X165550719Y-116723611D01*
X165544567Y-116721030D01*
X165539782Y-116715999D01*
X165535739Y-116706537D01*
X165531812Y-116690662D01*
X165527375Y-116666391D01*
X165521805Y-116631744D01*
X165514569Y-116585341D01*
X165508901Y-116549083D01*
X165455469Y-116539514D01*
X165428988Y-116535636D01*
X165408185Y-116534192D01*
X165397028Y-116535429D01*
X165396435Y-116535858D01*
X165390925Y-116544355D01*
X165380306Y-116562827D01*
X165366200Y-116588394D01*
X165353020Y-116612916D01*
X165315206Y-116684060D01*
X165288909Y-116681858D01*
X165262611Y-116679657D01*
X165212255Y-116516371D01*
X165153913Y-116516392D01*
X165095571Y-116516412D01*
X165070068Y-116598035D01*
X165044565Y-116679657D01*
X165018307Y-116681858D01*
X164992050Y-116684060D01*
X164954236Y-116612916D01*
X164938472Y-116583652D01*
X164924846Y-116559092D01*
X164914984Y-116542119D01*
X164910821Y-116535858D01*
X164901443Y-116534201D01*
X164881827Y-116535260D01*
X164855941Y-116538791D01*
X164851787Y-116539514D01*
X164798355Y-116549083D01*
X164792687Y-116585341D01*
X164785380Y-116632198D01*
X164779826Y-116666717D01*
X164775399Y-116690883D01*
X164771474Y-116706675D01*
X164767425Y-116716076D01*
X164762629Y-116721069D01*
X164756458Y-116723633D01*
X164748393Y-116725724D01*
X164731227Y-116729284D01*
X164720843Y-116729431D01*
X164720567Y-116729305D01*
X164714635Y-116722672D01*
X164702202Y-116706647D01*
X164685139Y-116683697D01*
X164666984Y-116658623D01*
X164618291Y-116590591D01*
X164564831Y-116608566D01*
X164511371Y-116626540D01*
X164511371Y-116799027D01*
X164488623Y-116810790D01*
X164465876Y-116822554D01*
X164402586Y-116759557D01*
X164339297Y-116696561D01*
X164287346Y-116722723D01*
X164261225Y-116736447D01*
X164246003Y-116746415D01*
X164239294Y-116754718D01*
X164238713Y-116763447D01*
X164239040Y-116765071D01*
X164241730Y-116779171D01*
X164245904Y-116803473D01*
X164250859Y-116833832D01*
X164253443Y-116850200D01*
X164258294Y-116882078D01*
X164260685Y-116902776D01*
X164260408Y-116915452D01*
X164257256Y-116923265D01*
X164251021Y-116929373D01*
X164248086Y-116931681D01*
X164233012Y-116941051D01*
X164222644Y-116944381D01*
X164213291Y-116940361D01*
X164195169Y-116929349D01*
X164171068Y-116913128D01*
X164149050Y-116897371D01*
X164122614Y-116878300D01*
X164100443Y-116862925D01*
X164085139Y-116853013D01*
X164079520Y-116850200D01*
X164071834Y-116854064D01*
X164056218Y-116863942D01*
X164036446Y-116877263D01*
X164016292Y-116891456D01*
X163999529Y-116903949D01*
X163993670Y-116908695D01*
X163993408Y-116917217D01*
X163997197Y-116936574D01*
X164004362Y-116963877D01*
X164014063Y-116995734D01*
X164040528Y-117077598D01*
X164021604Y-117096342D01*
X164002679Y-117115085D01*
X163924497Y-117073792D01*
X163846315Y-117032498D01*
X163764964Y-117113849D01*
X163804930Y-117193540D01*
X163844896Y-117273230D01*
X163809002Y-117309124D01*
X163726966Y-117281789D01*
X163644929Y-117254453D01*
X163633752Y-117271287D01*
X163622578Y-117287200D01*
X163607208Y-117308035D01*
X163600011Y-117317512D01*
X163577448Y-117346904D01*
X163627124Y-117415187D01*
X163646717Y-117442801D01*
X163662639Y-117466538D01*
X163673175Y-117483754D01*
X163676638Y-117491592D01*
X163672417Y-117502878D01*
X163663729Y-117516279D01*
X163650981Y-117532844D01*
X163479887Y-117505630D01*
X163454353Y-117556335D01*
X163428818Y-117607040D01*
X163490681Y-117669491D01*
X163552545Y-117731943D01*
X163542451Y-117755528D01*
X163532357Y-117779114D01*
X163358797Y-117779114D01*
X163340739Y-117832824D01*
X163322680Y-117886533D01*
X163393964Y-117938196D01*
X163423841Y-117960002D01*
X163443713Y-117975362D01*
X163455353Y-117986306D01*
X163460534Y-117994869D01*
X163461030Y-118003084D01*
X163458761Y-118012472D01*
X163453681Y-118028664D01*
X163450188Y-118037152D01*
X163450065Y-118037296D01*
X163442462Y-118039315D01*
X163423482Y-118043131D01*
X163396067Y-118048179D01*
X163366258Y-118053370D01*
X163333595Y-118059139D01*
X163306570Y-118064328D01*
X163288172Y-118068333D01*
X163281459Y-118070436D01*
X163278783Y-118078700D01*
X163275115Y-118096688D01*
X163271124Y-118120058D01*
X163267479Y-118144470D01*
X163264849Y-118165585D01*
X163263905Y-118179060D01*
X163264310Y-118181615D01*
X163271397Y-118185553D01*
X163288803Y-118194577D01*
X163313850Y-118207312D01*
X163341578Y-118221244D01*
X163416385Y-118258641D01*
X163414150Y-118285012D01*
X163411914Y-118311383D01*
X163332085Y-118337937D01*
X163252257Y-118364492D01*
X163250176Y-118422108D01*
X163250072Y-118425000D01*
X163514077Y-118425000D01*
X163514958Y-118345760D01*
X163517564Y-118277458D01*
X163522355Y-118216569D01*
X163529793Y-118159573D01*
X163540337Y-118102946D01*
X163554450Y-118043165D01*
X163572591Y-117976709D01*
X163572842Y-117975835D01*
X163621593Y-117831221D01*
X163682767Y-117693153D01*
X163755643Y-117562271D01*
X163839504Y-117439217D01*
X163933630Y-117324630D01*
X164037302Y-117219151D01*
X164149802Y-117123420D01*
X164270410Y-117038079D01*
X164398409Y-116963768D01*
X164533078Y-116901127D01*
X164673700Y-116850796D01*
X164819555Y-116813417D01*
X164892371Y-116800078D01*
X164936331Y-116793208D01*
X164972776Y-116788039D01*
X165004960Y-116784375D01*
X165036136Y-116782020D01*
X165069559Y-116780780D01*
X165108482Y-116780457D01*
X165156160Y-116780857D01*
X165200800Y-116781532D01*
X165260988Y-116782983D01*
X165310950Y-116785380D01*
X165354961Y-116789085D01*
X165397297Y-116794461D01*
X165442234Y-116801873D01*
X165443914Y-116802175D01*
X165595530Y-116836565D01*
X165740952Y-116883612D01*
X165879616Y-116942685D01*
X166010961Y-117013154D01*
X166134425Y-117094391D01*
X166249446Y-117185765D01*
X166355461Y-117286647D01*
X166451908Y-117396406D01*
X166538226Y-117514414D01*
X166613853Y-117640039D01*
X166678226Y-117772653D01*
X166730783Y-117911625D01*
X166770962Y-118056326D01*
X166798201Y-118206126D01*
X166810555Y-118333466D01*
X166812605Y-118488222D01*
X166800504Y-118640723D01*
X166774537Y-118790225D01*
X166734988Y-118935984D01*
X166682142Y-119077257D01*
X166616284Y-119213300D01*
X166537697Y-119343370D01*
X166446668Y-119466723D01*
X166343479Y-119582615D01*
X166325617Y-119600657D01*
X166210126Y-119705614D01*
X166087158Y-119798233D01*
X165957268Y-119878263D01*
X165821010Y-119945456D01*
X165678940Y-119999561D01*
X165531611Y-120040331D01*
X165379578Y-120067515D01*
X165261735Y-120078904D01*
X165109027Y-120081344D01*
X164958884Y-120069904D01*
X164812043Y-120045101D01*
X164669241Y-120007456D01*
X164531215Y-119957485D01*
X164398702Y-119895707D01*
X164272440Y-119822641D01*
X164153165Y-119738805D01*
X164041615Y-119644718D01*
X163938527Y-119540897D01*
X163844638Y-119427862D01*
X163760685Y-119306131D01*
X163687406Y-119176221D01*
X163625537Y-119038653D01*
X163575815Y-118893943D01*
X163575564Y-118893085D01*
X163555947Y-118822246D01*
X163540731Y-118757608D01*
X163529444Y-118695586D01*
X163521615Y-118632596D01*
X163516775Y-118565053D01*
X163514451Y-118489372D01*
X163514077Y-118425000D01*
X163250072Y-118425000D01*
X163248095Y-118479725D01*
X163331819Y-118507280D01*
X163415542Y-118534836D01*
X163415542Y-118559351D01*
X163414959Y-118570018D01*
X163411781Y-118578657D01*
X163403865Y-118587102D01*
X163389069Y-118597186D01*
X163365250Y-118610743D01*
X163338780Y-118625042D01*
X163262018Y-118666216D01*
X163266946Y-118702047D01*
X163271155Y-118732540D01*
X163275572Y-118753526D01*
X163282734Y-118767250D01*
X163295178Y-118775956D01*
X163315439Y-118781887D01*
X163346056Y-118787288D01*
X163367129Y-118790668D01*
X163403096Y-118796605D01*
X163427313Y-118801262D01*
X163442359Y-118805668D01*
X163450814Y-118810852D01*
X163455256Y-118817844D01*
X163458077Y-118826979D01*
X163461588Y-118844013D01*
X163461656Y-118854236D01*
X163461562Y-118854432D01*
X163454927Y-118860367D01*
X163438906Y-118872798D01*
X163415968Y-118889853D01*
X163391094Y-118907862D01*
X163323275Y-118956402D01*
X163339686Y-119008201D01*
X163356098Y-119060000D01*
X163532548Y-119064082D01*
X163542546Y-119087441D01*
X163552545Y-119110800D01*
X163490681Y-119173251D01*
X163428818Y-119235703D01*
X163454837Y-119287370D01*
X163468237Y-119313140D01*
X163477851Y-119328242D01*
X163486044Y-119335155D01*
X163495179Y-119336360D01*
X163500814Y-119335601D01*
X163550694Y-119327021D01*
X163588210Y-119320739D01*
X163615312Y-119316648D01*
X163633951Y-119314642D01*
X163646077Y-119314616D01*
X163653640Y-119316463D01*
X163658590Y-119320078D01*
X163662878Y-119325355D01*
X163663938Y-119326745D01*
X163673284Y-119341895D01*
X163676638Y-119352355D01*
X163672616Y-119361683D01*
X163661591Y-119379810D01*
X163645333Y-119403971D01*
X163628919Y-119426916D01*
X163608859Y-119455629D01*
X163594078Y-119479578D01*
X163585974Y-119496350D01*
X163585056Y-119502621D01*
X163591333Y-119513854D01*
X163602938Y-119531049D01*
X163617125Y-119550536D01*
X163631148Y-119568644D01*
X163642262Y-119581701D01*
X163647506Y-119586101D01*
X163655573Y-119584028D01*
X163674567Y-119578428D01*
X163701581Y-119570174D01*
X163731228Y-119560922D01*
X163811057Y-119535785D01*
X163828944Y-119553615D01*
X163846830Y-119571446D01*
X163805606Y-119649879D01*
X163764382Y-119728311D01*
X163805244Y-119769173D01*
X163846106Y-119810036D01*
X163925797Y-119770069D01*
X164005487Y-119730103D01*
X164041381Y-119765997D01*
X164014367Y-119847070D01*
X164004086Y-119878989D01*
X163996190Y-119905581D01*
X163991472Y-119924027D01*
X163990687Y-119931478D01*
X163997750Y-119937172D01*
X164013253Y-119949069D01*
X164033989Y-119964710D01*
X164036269Y-119966417D01*
X164078516Y-119998021D01*
X164147122Y-119948110D01*
X164174800Y-119928467D01*
X164198603Y-119912492D01*
X164215893Y-119901894D01*
X164223849Y-119898361D01*
X164235173Y-119902585D01*
X164248245Y-119911061D01*
X164255677Y-119917294D01*
X164259932Y-119924089D01*
X164261221Y-119934601D01*
X164259755Y-119951987D01*
X164255745Y-119979402D01*
X164253686Y-119992543D01*
X164248562Y-120024385D01*
X164243856Y-120052273D01*
X164240279Y-120072059D01*
X164239124Y-120077671D01*
X164238864Y-120086658D01*
X164244320Y-120094858D01*
X164257873Y-120104363D01*
X164281907Y-120117267D01*
X164287346Y-120120019D01*
X164339297Y-120146181D01*
X164401748Y-120084734D01*
X164428127Y-120058949D01*
X164446509Y-120041933D01*
X164459216Y-120032250D01*
X164468570Y-120028461D01*
X164476894Y-120029128D01*
X164485971Y-120032585D01*
X164507742Y-120041884D01*
X164515000Y-120220562D01*
X164566964Y-120236346D01*
X164618928Y-120252129D01*
X164670521Y-120180941D01*
X164692311Y-120151086D01*
X164707657Y-120131237D01*
X164718592Y-120119618D01*
X164727152Y-120114455D01*
X164735373Y-120113973D01*
X164744728Y-120116238D01*
X164761040Y-120121421D01*
X164769739Y-120125139D01*
X164769888Y-120125269D01*
X164771940Y-120133023D01*
X164775605Y-120152189D01*
X164780355Y-120179822D01*
X164785313Y-120210765D01*
X164798193Y-120293714D01*
X164838025Y-120302086D01*
X164868326Y-120308333D01*
X164889756Y-120310942D01*
X164905209Y-120308226D01*
X164917577Y-120298495D01*
X164929751Y-120280063D01*
X164944625Y-120251240D01*
X164952572Y-120235229D01*
X164990681Y-120158601D01*
X165017377Y-120160843D01*
X165044072Y-120163085D01*
X165094308Y-120326371D01*
X165212921Y-120326371D01*
X165263839Y-120163085D01*
D11*
G04 #@! TO.C,Subbord*
X166150000Y-85600000D02*
X166150000Y-90100000D01*
X150450000Y-85600000D02*
X166150000Y-85600000D01*
X150450000Y-90100000D02*
X150450000Y-85600000D01*
X166150000Y-90100000D02*
X150450000Y-90100000D01*
G04 #@! TO.C,R6*
X178266666Y-93952380D02*
X178600000Y-93476190D01*
X178838095Y-93952380D02*
X178838095Y-92952380D01*
X178457142Y-92952380D01*
X178361904Y-93000000D01*
X178314285Y-93047619D01*
X178266666Y-93142857D01*
X178266666Y-93285714D01*
X178314285Y-93380952D01*
X178361904Y-93428571D01*
X178457142Y-93476190D01*
X178838095Y-93476190D01*
X177409523Y-92952380D02*
X177600000Y-92952380D01*
X177695238Y-93000000D01*
X177742857Y-93047619D01*
X177838095Y-93190476D01*
X177885714Y-93380952D01*
X177885714Y-93761904D01*
X177838095Y-93857142D01*
X177790476Y-93904761D01*
X177695238Y-93952380D01*
X177504761Y-93952380D01*
X177409523Y-93904761D01*
X177361904Y-93857142D01*
X177314285Y-93761904D01*
X177314285Y-93523809D01*
X177361904Y-93428571D01*
X177409523Y-93380952D01*
X177504761Y-93333333D01*
X177695238Y-93333333D01*
X177790476Y-93380952D01*
X177838095Y-93428571D01*
X177885714Y-93523809D01*
G04 #@! TO.C,R8*
X178241666Y-104102380D02*
X178575000Y-103626190D01*
X178813095Y-104102380D02*
X178813095Y-103102380D01*
X178432142Y-103102380D01*
X178336904Y-103150000D01*
X178289285Y-103197619D01*
X178241666Y-103292857D01*
X178241666Y-103435714D01*
X178289285Y-103530952D01*
X178336904Y-103578571D01*
X178432142Y-103626190D01*
X178813095Y-103626190D01*
X177670238Y-103530952D02*
X177765476Y-103483333D01*
X177813095Y-103435714D01*
X177860714Y-103340476D01*
X177860714Y-103292857D01*
X177813095Y-103197619D01*
X177765476Y-103150000D01*
X177670238Y-103102380D01*
X177479761Y-103102380D01*
X177384523Y-103150000D01*
X177336904Y-103197619D01*
X177289285Y-103292857D01*
X177289285Y-103340476D01*
X177336904Y-103435714D01*
X177384523Y-103483333D01*
X177479761Y-103530952D01*
X177670238Y-103530952D01*
X177765476Y-103578571D01*
X177813095Y-103626190D01*
X177860714Y-103721428D01*
X177860714Y-103911904D01*
X177813095Y-104007142D01*
X177765476Y-104054761D01*
X177670238Y-104102380D01*
X177479761Y-104102380D01*
X177384523Y-104054761D01*
X177336904Y-104007142D01*
X177289285Y-103911904D01*
X177289285Y-103721428D01*
X177336904Y-103626190D01*
X177384523Y-103578571D01*
X177479761Y-103530952D01*
G04 #@! TO.C,R7*
X164966666Y-104002380D02*
X165300000Y-103526190D01*
X165538095Y-104002380D02*
X165538095Y-103002380D01*
X165157142Y-103002380D01*
X165061904Y-103050000D01*
X165014285Y-103097619D01*
X164966666Y-103192857D01*
X164966666Y-103335714D01*
X165014285Y-103430952D01*
X165061904Y-103478571D01*
X165157142Y-103526190D01*
X165538095Y-103526190D01*
X164633333Y-103002380D02*
X163966666Y-103002380D01*
X164395238Y-104002380D01*
G04 #@! TO.C,R3*
X154366666Y-99952380D02*
X154700000Y-99476190D01*
X154938095Y-99952380D02*
X154938095Y-98952380D01*
X154557142Y-98952380D01*
X154461904Y-99000000D01*
X154414285Y-99047619D01*
X154366666Y-99142857D01*
X154366666Y-99285714D01*
X154414285Y-99380952D01*
X154461904Y-99428571D01*
X154557142Y-99476190D01*
X154938095Y-99476190D01*
X154033333Y-98952380D02*
X153414285Y-98952380D01*
X153747619Y-99333333D01*
X153604761Y-99333333D01*
X153509523Y-99380952D01*
X153461904Y-99428571D01*
X153414285Y-99523809D01*
X153414285Y-99761904D01*
X153461904Y-99857142D01*
X153509523Y-99904761D01*
X153604761Y-99952380D01*
X153890476Y-99952380D01*
X153985714Y-99904761D01*
X154033333Y-99857142D01*
G04 #@! TO.C,R2*
X157166666Y-100052380D02*
X157500000Y-99576190D01*
X157738095Y-100052380D02*
X157738095Y-99052380D01*
X157357142Y-99052380D01*
X157261904Y-99100000D01*
X157214285Y-99147619D01*
X157166666Y-99242857D01*
X157166666Y-99385714D01*
X157214285Y-99480952D01*
X157261904Y-99528571D01*
X157357142Y-99576190D01*
X157738095Y-99576190D01*
X156785714Y-99147619D02*
X156738095Y-99100000D01*
X156642857Y-99052380D01*
X156404761Y-99052380D01*
X156309523Y-99100000D01*
X156261904Y-99147619D01*
X156214285Y-99242857D01*
X156214285Y-99338095D01*
X156261904Y-99480952D01*
X156833333Y-100052380D01*
X156214285Y-100052380D01*
G04 #@! TO.C,R1*
X165066666Y-94052380D02*
X165400000Y-93576190D01*
X165638095Y-94052380D02*
X165638095Y-93052380D01*
X165257142Y-93052380D01*
X165161904Y-93100000D01*
X165114285Y-93147619D01*
X165066666Y-93242857D01*
X165066666Y-93385714D01*
X165114285Y-93480952D01*
X165161904Y-93528571D01*
X165257142Y-93576190D01*
X165638095Y-93576190D01*
X164114285Y-94052380D02*
X164685714Y-94052380D01*
X164400000Y-94052380D02*
X164400000Y-93052380D01*
X164495238Y-93195238D01*
X164590476Y-93290476D01*
X164685714Y-93338095D01*
G04 #@! TO.C,C4*
X178966666Y-89457142D02*
X179014285Y-89504761D01*
X179157142Y-89552380D01*
X179252380Y-89552380D01*
X179395238Y-89504761D01*
X179490476Y-89409523D01*
X179538095Y-89314285D01*
X179585714Y-89123809D01*
X179585714Y-88980952D01*
X179538095Y-88790476D01*
X179490476Y-88695238D01*
X179395238Y-88600000D01*
X179252380Y-88552380D01*
X179157142Y-88552380D01*
X179014285Y-88600000D01*
X178966666Y-88647619D01*
X178109523Y-88885714D02*
X178109523Y-89552380D01*
X178347619Y-88504761D02*
X178585714Y-89219047D01*
X177966666Y-89219047D01*
G04 #@! TO.C,C3*
X149766666Y-99957142D02*
X149814285Y-100004761D01*
X149957142Y-100052380D01*
X150052380Y-100052380D01*
X150195238Y-100004761D01*
X150290476Y-99909523D01*
X150338095Y-99814285D01*
X150385714Y-99623809D01*
X150385714Y-99480952D01*
X150338095Y-99290476D01*
X150290476Y-99195238D01*
X150195238Y-99100000D01*
X150052380Y-99052380D01*
X149957142Y-99052380D01*
X149814285Y-99100000D01*
X149766666Y-99147619D01*
X149433333Y-99052380D02*
X148814285Y-99052380D01*
X149147619Y-99433333D01*
X149004761Y-99433333D01*
X148909523Y-99480952D01*
X148861904Y-99528571D01*
X148814285Y-99623809D01*
X148814285Y-99861904D01*
X148861904Y-99957142D01*
X148909523Y-100004761D01*
X149004761Y-100052380D01*
X149290476Y-100052380D01*
X149385714Y-100004761D01*
X149433333Y-99957142D01*
G04 #@! TO.C,C2*
X146766666Y-99957142D02*
X146814285Y-100004761D01*
X146957142Y-100052380D01*
X147052380Y-100052380D01*
X147195238Y-100004761D01*
X147290476Y-99909523D01*
X147338095Y-99814285D01*
X147385714Y-99623809D01*
X147385714Y-99480952D01*
X147338095Y-99290476D01*
X147290476Y-99195238D01*
X147195238Y-99100000D01*
X147052380Y-99052380D01*
X146957142Y-99052380D01*
X146814285Y-99100000D01*
X146766666Y-99147619D01*
X146385714Y-99147619D02*
X146338095Y-99100000D01*
X146242857Y-99052380D01*
X146004761Y-99052380D01*
X145909523Y-99100000D01*
X145861904Y-99147619D01*
X145814285Y-99242857D01*
X145814285Y-99338095D01*
X145861904Y-99480952D01*
X146433333Y-100052380D01*
X145814285Y-100052380D01*
G04 #@! TO.C,C1*
X152566666Y-99857142D02*
X152614285Y-99904761D01*
X152757142Y-99952380D01*
X152852380Y-99952380D01*
X152995238Y-99904761D01*
X153090476Y-99809523D01*
X153138095Y-99714285D01*
X153185714Y-99523809D01*
X153185714Y-99380952D01*
X153138095Y-99190476D01*
X153090476Y-99095238D01*
X152995238Y-99000000D01*
X152852380Y-98952380D01*
X152757142Y-98952380D01*
X152614285Y-99000000D01*
X152566666Y-99047619D01*
X151614285Y-99952380D02*
X152185714Y-99952380D01*
X151900000Y-99952380D02*
X151900000Y-98952380D01*
X151995238Y-99095238D01*
X152090476Y-99190476D01*
X152185714Y-99238095D01*
G04 #@! TO.C,C5*
X171566666Y-93657142D02*
X171614285Y-93704761D01*
X171757142Y-93752380D01*
X171852380Y-93752380D01*
X171995238Y-93704761D01*
X172090476Y-93609523D01*
X172138095Y-93514285D01*
X172185714Y-93323809D01*
X172185714Y-93180952D01*
X172138095Y-92990476D01*
X172090476Y-92895238D01*
X171995238Y-92800000D01*
X171852380Y-92752380D01*
X171757142Y-92752380D01*
X171614285Y-92800000D01*
X171566666Y-92847619D01*
X170661904Y-92752380D02*
X171138095Y-92752380D01*
X171185714Y-93228571D01*
X171138095Y-93180952D01*
X171042857Y-93133333D01*
X170804761Y-93133333D01*
X170709523Y-93180952D01*
X170661904Y-93228571D01*
X170614285Y-93323809D01*
X170614285Y-93561904D01*
X170661904Y-93657142D01*
X170709523Y-93704761D01*
X170804761Y-93752380D01*
X171042857Y-93752380D01*
X171138095Y-93704761D01*
X171185714Y-93657142D01*
X167571428Y-91299047D02*
X167571428Y-92060952D01*
X167952380Y-91680000D02*
X167190476Y-91680000D01*
G04 #@! TO.C,Subbord*
X160807142Y-91404761D02*
X160664285Y-91452380D01*
X160426190Y-91452380D01*
X160330952Y-91404761D01*
X160283333Y-91357142D01*
X160235714Y-91261904D01*
X160235714Y-91166666D01*
X160283333Y-91071428D01*
X160330952Y-91023809D01*
X160426190Y-90976190D01*
X160616666Y-90928571D01*
X160711904Y-90880952D01*
X160759523Y-90833333D01*
X160807142Y-90738095D01*
X160807142Y-90642857D01*
X160759523Y-90547619D01*
X160711904Y-90500000D01*
X160616666Y-90452380D01*
X160378571Y-90452380D01*
X160235714Y-90500000D01*
X159378571Y-90785714D02*
X159378571Y-91452380D01*
X159807142Y-90785714D02*
X159807142Y-91309523D01*
X159759523Y-91404761D01*
X159664285Y-91452380D01*
X159521428Y-91452380D01*
X159426190Y-91404761D01*
X159378571Y-91357142D01*
X158902380Y-91452380D02*
X158902380Y-90452380D01*
X158902380Y-90833333D02*
X158807142Y-90785714D01*
X158616666Y-90785714D01*
X158521428Y-90833333D01*
X158473809Y-90880952D01*
X158426190Y-90976190D01*
X158426190Y-91261904D01*
X158473809Y-91357142D01*
X158521428Y-91404761D01*
X158616666Y-91452380D01*
X158807142Y-91452380D01*
X158902380Y-91404761D01*
X157997619Y-91452380D02*
X157997619Y-90452380D01*
X157997619Y-90833333D02*
X157902380Y-90785714D01*
X157711904Y-90785714D01*
X157616666Y-90833333D01*
X157569047Y-90880952D01*
X157521428Y-90976190D01*
X157521428Y-91261904D01*
X157569047Y-91357142D01*
X157616666Y-91404761D01*
X157711904Y-91452380D01*
X157902380Y-91452380D01*
X157997619Y-91404761D01*
X156950000Y-91452380D02*
X157045238Y-91404761D01*
X157092857Y-91357142D01*
X157140476Y-91261904D01*
X157140476Y-90976190D01*
X157092857Y-90880952D01*
X157045238Y-90833333D01*
X156950000Y-90785714D01*
X156807142Y-90785714D01*
X156711904Y-90833333D01*
X156664285Y-90880952D01*
X156616666Y-90976190D01*
X156616666Y-91261904D01*
X156664285Y-91357142D01*
X156711904Y-91404761D01*
X156807142Y-91452380D01*
X156950000Y-91452380D01*
X156188095Y-91452380D02*
X156188095Y-90785714D01*
X156188095Y-90976190D02*
X156140476Y-90880952D01*
X156092857Y-90833333D01*
X155997619Y-90785714D01*
X155902380Y-90785714D01*
X155140476Y-91452380D02*
X155140476Y-90452380D01*
X155140476Y-91404761D02*
X155235714Y-91452380D01*
X155426190Y-91452380D01*
X155521428Y-91404761D01*
X155569047Y-91357142D01*
X155616666Y-91261904D01*
X155616666Y-90976190D01*
X155569047Y-90880952D01*
X155521428Y-90833333D01*
X155426190Y-90785714D01*
X155235714Y-90785714D01*
X155140476Y-90833333D01*
G04 #@! TD*
M02*
