G04 #@! TF.GenerationSoftware,KiCad,Pcbnew,(5.0.0)*
G04 #@! TF.CreationDate,2019-02-16T18:39:58+09:00*
G04 #@! TF.ProjectId,lancer_sensorboard_v3,6C616E6365725F73656E736F72626F61,rev?*
G04 #@! TF.SameCoordinates,Original*
G04 #@! TF.FileFunction,Profile,NP*
%FSLAX46Y46*%
G04 Gerber Fmt 4.6, Leading zero omitted, Abs format (unit mm)*
G04 Created by KiCad (PCBNEW (5.0.0)) date 02/16/19 18:39:58*
%MOMM*%
%LPD*%
G01*
G04 APERTURE LIST*
%ADD10C,0.150000*%
%ADD11C,0.200000*%
G04 APERTURE END LIST*
D10*
X103000000Y-70000000D02*
X51000000Y-70000000D01*
X135000000Y-70000000D02*
X105000000Y-70000000D01*
X137000000Y-70000000D02*
X189000000Y-70000000D01*
X137000000Y-69000000D02*
X189000000Y-69000000D01*
X105000000Y-69000000D02*
X135000000Y-69000000D01*
X103000000Y-69000000D02*
X51000000Y-69000000D01*
X137000000Y-70000000D02*
X137000000Y-69000000D01*
X105000000Y-70000000D02*
X105000000Y-69000000D01*
X103000000Y-70000000D02*
X103000000Y-69000000D01*
X135000000Y-69000000D02*
X135000000Y-70000000D01*
X105000000Y-102000000D02*
X105000000Y-101000000D01*
X135000000Y-102000000D02*
X135000000Y-101000000D01*
X105000000Y-86000000D02*
X105000000Y-85000000D01*
X135000000Y-85000000D02*
X135000000Y-86000000D01*
X103000000Y-102000000D02*
X51000000Y-102000000D01*
X133000000Y-102000000D02*
X105000000Y-102000000D01*
X135000000Y-102000000D02*
X189000000Y-102000000D01*
X135000000Y-101000000D02*
X189000000Y-101000000D01*
X105000000Y-101000000D02*
X133000000Y-101000000D01*
X103000000Y-101000000D02*
X51000000Y-101000000D01*
X105000000Y-86000000D02*
X135000000Y-86000000D01*
X105000000Y-85000000D02*
X135000000Y-85000000D01*
X137000000Y-86000000D02*
X137000000Y-85000000D01*
X103000000Y-86000000D02*
X103000000Y-85000000D01*
X133000000Y-102000000D02*
X133000000Y-101000000D01*
X103000000Y-102000000D02*
X103000000Y-101000000D01*
X135000000Y-117000000D02*
X105000000Y-117000000D01*
X105000000Y-118000000D02*
X135000000Y-118000000D01*
X105000000Y-118000000D02*
X105000000Y-117000000D01*
X135000000Y-118000000D02*
X135000000Y-117000000D01*
X103000000Y-118000000D02*
X103000000Y-117000000D01*
X137000000Y-118000000D02*
X137000000Y-117000000D01*
X105000000Y-134000000D02*
X135000000Y-134000000D01*
X105000000Y-133000000D02*
X135000000Y-133000000D01*
X105000000Y-134000000D02*
X105000000Y-133000000D01*
X103000000Y-134000000D02*
X51000000Y-134000000D01*
X189000000Y-134000000D02*
X137000000Y-134000000D01*
X137000000Y-133000000D02*
X189000000Y-133000000D01*
X135000000Y-134000000D02*
X135000000Y-133000000D01*
X137000000Y-134000000D02*
X137000000Y-133000000D01*
X51000000Y-133000000D02*
X103000000Y-133000000D01*
X103000000Y-134000000D02*
X103000000Y-133000000D01*
D11*
X137000000Y-56000000D02*
X140000000Y-59000000D01*
X100000000Y-59000000D02*
X103000000Y-56000000D01*
X100000000Y-59000000D02*
X51000000Y-59000000D01*
X137000000Y-56000000D02*
X137000000Y-54000000D01*
X189000000Y-59000000D02*
X189000000Y-69000000D01*
X51000000Y-69000000D02*
X51000000Y-59000000D01*
X137000000Y-54000000D02*
X103000000Y-54000000D01*
X103000000Y-54000000D02*
X103000000Y-56000000D01*
X135500000Y-56499496D02*
G75*
G03X135500000Y-56499496I-1500000J0D01*
G01*
X189000000Y-59000000D02*
X140000000Y-59000000D01*
X107500000Y-56499496D02*
G75*
G03X107500000Y-56499496I-1500000J0D01*
G01*
X103000000Y-83000000D02*
X100000000Y-80000000D01*
X140000000Y-80000000D02*
X137000000Y-83000000D01*
X140000000Y-80000000D02*
X189000000Y-80000000D01*
X103000000Y-83000000D02*
X103000000Y-85000000D01*
X51000000Y-80000000D02*
X51000000Y-70000000D01*
X189000000Y-70000000D02*
X189000000Y-80000000D01*
X137000000Y-85000000D02*
X137000000Y-83000000D01*
X107500000Y-82500504D02*
G75*
G03X107500000Y-82500504I-1500000J0D01*
G01*
X51000000Y-80000000D02*
X100000000Y-80000000D01*
X135500000Y-82500504D02*
G75*
G03X135500000Y-82500504I-1500000J0D01*
G01*
X137000000Y-88000000D02*
X140000000Y-91000000D01*
X100000000Y-91000000D02*
X103000000Y-88000000D01*
X100000000Y-91000000D02*
X51000000Y-91000000D01*
X137000000Y-88000000D02*
X137000000Y-86000000D01*
X189000000Y-91000000D02*
X189000000Y-101000000D01*
X51000000Y-101000000D02*
X51000000Y-91000000D01*
X103000000Y-86000000D02*
X103000000Y-88000000D01*
X135500000Y-88499496D02*
G75*
G03X135500000Y-88499496I-1500000J0D01*
G01*
X189000000Y-91000000D02*
X140000000Y-91000000D01*
X107500000Y-88499496D02*
G75*
G03X107500000Y-88499496I-1500000J0D01*
G01*
X103000000Y-115000000D02*
X100000000Y-112000000D01*
X140000000Y-112000000D02*
X137000000Y-115000000D01*
X140000000Y-112000000D02*
X189000000Y-112000000D01*
X103000000Y-115000000D02*
X103000000Y-117000000D01*
X51000000Y-112000000D02*
X51000000Y-102000000D01*
X189000000Y-102000000D02*
X189000000Y-112000000D01*
X137000000Y-117000000D02*
X137000000Y-115000000D01*
X107500000Y-114500504D02*
G75*
G03X107500000Y-114500504I-1500000J0D01*
G01*
X51000000Y-112000000D02*
X100000000Y-112000000D01*
X135500000Y-114500504D02*
G75*
G03X135500000Y-114500504I-1500000J0D01*
G01*
X137000000Y-120000000D02*
X140000000Y-123000000D01*
X100000000Y-123000000D02*
X103000000Y-120000000D01*
X100000000Y-123000000D02*
X51000000Y-123000000D01*
X137000000Y-120000000D02*
X137000000Y-118000000D01*
X189000000Y-123000000D02*
X189000000Y-133000000D01*
X51000000Y-133000000D02*
X51000000Y-123000000D01*
X103000000Y-118000000D02*
X103000000Y-120000000D01*
X135500000Y-120499496D02*
G75*
G03X135500000Y-120499496I-1500000J0D01*
G01*
X189000000Y-123000000D02*
X140000000Y-123000000D01*
X107500000Y-120499496D02*
G75*
G03X107500000Y-120499496I-1500000J0D01*
G01*
X103000000Y-147000000D02*
X100000000Y-144000000D01*
X140000000Y-144000000D02*
X137000000Y-147000000D01*
X140000000Y-144000000D02*
X189000000Y-144000000D01*
X103000000Y-147000000D02*
X103000000Y-149000000D01*
X51000000Y-144000000D02*
X51000000Y-134000000D01*
X189000000Y-134000000D02*
X189000000Y-144000000D01*
X103000000Y-149000000D02*
X137000000Y-149000000D01*
X137000000Y-149000000D02*
X137000000Y-147000000D01*
X107500000Y-146500504D02*
G75*
G03X107500000Y-146500504I-1500000J0D01*
G01*
X51000000Y-144000000D02*
X100000000Y-144000000D01*
X135500000Y-146500504D02*
G75*
G03X135500000Y-146500504I-1500000J0D01*
G01*
M02*
