M48
;DRILL file {KiCad (5.0.0)} date 02/16/19 18:40:06
;FORMAT={-:-/ absolute / metric / decimal}
FMAT,2
METRIC,TZ
T1C0.400
T2C3.200
%
G90
G05
M71
T1
X54.739Y-64.65
X54.739Y-96.65
X54.739Y-128.65
X55.111Y-74.899
X55.111Y-106.899
X55.111Y-138.899
X56.986Y-77.35
X56.986Y-109.35
X56.986Y-141.35
X58.439Y-63.875
X58.439Y-95.875
X58.439Y-127.875
X58.739Y-61.625
X58.739Y-93.625
X58.739Y-125.625
X59.411Y-75.125
X59.411Y-107.125
X59.411Y-139.125
X62.811Y-77.35
X62.811Y-109.35
X62.811Y-141.35
X64.964Y-61.6
X64.964Y-93.6
X64.964Y-125.6
X86.286Y-77.35
X86.286Y-109.35
X86.286Y-141.35
X86.414Y-61.6
X86.414Y-93.6
X86.414Y-125.6
X90.736Y-74.675
X90.736Y-106.675
X90.736Y-138.675
X90.764Y-63.875
X90.764Y-95.875
X90.764Y-127.875
X93.289Y-61.575
X93.289Y-93.575
X93.289Y-125.575
X93.611Y-77.3
X93.611Y-109.3
X93.611Y-141.3
X94.439Y-63.725
X94.439Y-95.725
X94.439Y-127.725
X94.486Y-73.825
X94.486Y-105.825
X94.486Y-137.825
X101.914Y-66.15
X101.914Y-98.15
X101.914Y-130.15
X101.914Y-61.65
X101.914Y-93.65
X101.914Y-125.65
X101.986Y-73.95
X101.986Y-76.9
X101.986Y-105.95
X101.986Y-108.9
X101.986Y-137.95
X101.986Y-140.9
X105.945Y-62.2
X105.945Y-94.2
X105.945Y-126.2
X105.986Y-72.35
X105.986Y-77.55
X105.986Y-104.35
X105.986Y-109.55
X105.986Y-136.35
X105.986Y-141.55
X106.014Y-65.1
X106.014Y-97.1
X106.014Y-129.1
X110.414Y-65.15
X110.414Y-97.15
X110.414Y-129.15
X111.664Y-57.725
X111.664Y-89.725
X111.664Y-121.725
X112.086Y-72.2
X112.086Y-80.95
X112.086Y-104.2
X112.086Y-112.95
X112.086Y-136.2
X112.086Y-144.95
X113.414Y-67.15
X113.414Y-99.15
X113.414Y-131.15
X116.314Y-67.15
X116.314Y-99.15
X116.314Y-131.15
X119.986Y-72.175
X119.986Y-104.175
X119.986Y-136.175
X120.014Y-66.825
X120.014Y-98.825
X120.014Y-130.825
X123.686Y-71.85
X123.686Y-103.85
X123.686Y-135.85
X126.586Y-71.85
X126.586Y-103.85
X126.586Y-135.85
X127.914Y-58.05
X127.914Y-66.8
X127.914Y-90.05
X127.914Y-98.8
X127.914Y-122.05
X127.914Y-130.8
X128.336Y-81.275
X128.336Y-113.275
X128.336Y-145.275
X129.586Y-73.85
X129.586Y-105.85
X129.586Y-137.85
X133.986Y-73.9
X133.986Y-105.9
X133.986Y-137.9
X134.014Y-61.45
X134.014Y-66.65
X134.014Y-93.45
X134.014Y-98.65
X134.014Y-125.45
X134.014Y-130.65
X134.055Y-76.8
X134.055Y-108.8
X134.055Y-140.8
X138.014Y-62.1
X138.014Y-65.05
X138.014Y-94.1
X138.014Y-97.05
X138.014Y-126.1
X138.014Y-129.05
X138.086Y-77.35
X138.086Y-109.35
X138.086Y-141.35
X138.086Y-72.85
X138.086Y-104.85
X138.086Y-136.85
X145.514Y-65.175
X145.514Y-97.175
X145.514Y-129.175
X145.561Y-75.275
X145.561Y-107.275
X145.561Y-139.275
X146.389Y-61.7
X146.389Y-93.7
X146.389Y-125.7
X146.711Y-77.425
X146.711Y-109.425
X146.711Y-141.425
X149.236Y-75.125
X149.236Y-107.125
X149.236Y-139.125
X149.264Y-64.325
X149.264Y-96.325
X149.264Y-128.325
X153.586Y-77.4
X153.586Y-109.4
X153.586Y-141.4
X153.714Y-61.65
X153.714Y-93.65
X153.714Y-125.65
X175.036Y-77.4
X175.036Y-109.4
X175.036Y-141.4
X177.189Y-61.65
X177.189Y-93.65
X177.189Y-125.65
X180.589Y-63.875
X180.589Y-95.875
X180.589Y-127.875
X181.261Y-77.375
X181.261Y-109.375
X181.261Y-141.375
X181.561Y-75.125
X181.561Y-107.125
X181.561Y-139.125
X183.014Y-61.65
X183.014Y-93.65
X183.014Y-125.65
X184.889Y-64.101
X184.889Y-96.101
X184.889Y-128.101
X185.261Y-74.35
X185.261Y-106.35
X185.261Y-138.35
T2
X106.Y-82.5
X134.014Y-56.5
X106.014Y-56.5
X134.Y-82.5
X106.014Y-88.5
X133.986Y-114.5
X105.986Y-114.5
X134.014Y-88.5
X133.986Y-146.5
X134.014Y-120.5
X106.014Y-120.5
X105.986Y-146.5
T0
M30
