G04 #@! TF.GenerationSoftware,KiCad,Pcbnew,(5.0.0)*
G04 #@! TF.CreationDate,2019-02-16T18:39:58+09:00*
G04 #@! TF.ProjectId,lancer_sensorboard_v3,6C616E6365725F73656E736F72626F61,rev?*
G04 #@! TF.SameCoordinates,Original*
G04 #@! TF.FileFunction,Copper,L1,Top,Signal*
G04 #@! TF.FilePolarity,Positive*
%FSLAX46Y46*%
G04 Gerber Fmt 4.6, Leading zero omitted, Abs format (unit mm)*
G04 Created by KiCad (PCBNEW (5.0.0)) date 02/16/19 18:39:58*
%MOMM*%
%LPD*%
G01*
G04 APERTURE LIST*
G04 #@! TA.AperFunction,ViaPad*
%ADD10C,0.800000*%
G04 #@! TD*
G04 #@! TA.AperFunction,Conductor*
%ADD11C,0.300000*%
G04 #@! TD*
G04 #@! TA.AperFunction,NonConductor*
%ADD12C,0.254000*%
G04 #@! TD*
G04 APERTURE END LIST*
D10*
G04 #@! TO.N,*
X123686346Y-135850000D03*
X101986346Y-137950000D03*
X133986352Y-137899990D03*
X94486346Y-137824990D03*
X134054525Y-140799990D03*
X55110666Y-138899320D03*
X112086346Y-144950000D03*
X129586350Y-137850000D03*
X56986350Y-141350000D03*
X105986346Y-136349998D03*
X62811346Y-141350000D03*
X153586346Y-141400000D03*
X145561346Y-139275000D03*
X93611346Y-141300000D03*
X138086346Y-136850000D03*
X126586346Y-135850000D03*
X86286346Y-141350000D03*
X149236346Y-139125000D03*
X146711346Y-141424990D03*
X181561346Y-139125000D03*
X119986346Y-136174998D03*
X181261346Y-141375000D03*
X105986346Y-141550000D03*
X59411348Y-139125000D03*
X112086346Y-136200010D03*
X138086330Y-141350000D03*
X175036346Y-141400000D03*
X185261346Y-138350000D03*
X128336347Y-145275001D03*
X101986346Y-140899990D03*
X90736346Y-138675000D03*
X116313654Y-131150000D03*
X138013654Y-129050000D03*
X106013648Y-129100010D03*
X145513654Y-129175010D03*
X105945475Y-126200010D03*
X184889334Y-128100680D03*
X127913654Y-122050000D03*
X110413650Y-129150000D03*
X183013650Y-125650000D03*
X134013654Y-130650002D03*
X177188654Y-125650000D03*
X86413654Y-125600000D03*
X94438654Y-127725000D03*
X146388654Y-125700000D03*
X101913654Y-130150000D03*
X113413654Y-131150000D03*
X153713654Y-125650000D03*
X90763654Y-127875000D03*
X93288654Y-125575010D03*
X58438654Y-127875000D03*
X120013654Y-130825002D03*
X58738654Y-125625000D03*
X134013654Y-125450000D03*
X180588652Y-127875000D03*
X127913654Y-130799990D03*
X101913670Y-125650000D03*
X64963654Y-125600000D03*
X54738654Y-128650000D03*
X111663653Y-121724999D03*
X138013654Y-126100010D03*
X149263654Y-128325000D03*
X123686346Y-103850000D03*
X101986346Y-105950000D03*
X133986352Y-105899990D03*
X94486346Y-105824990D03*
X134054525Y-108799990D03*
X55110666Y-106899320D03*
X112086346Y-112950000D03*
X129586350Y-105850000D03*
X56986350Y-109350000D03*
X105986346Y-104349998D03*
X62811346Y-109350000D03*
X153586346Y-109400000D03*
X145561346Y-107275000D03*
X93611346Y-109300000D03*
X138086346Y-104850000D03*
X126586346Y-103850000D03*
X86286346Y-109350000D03*
X149236346Y-107125000D03*
X146711346Y-109424990D03*
X181561346Y-107125000D03*
X119986346Y-104174998D03*
X181261346Y-109375000D03*
X105986346Y-109550000D03*
X59411348Y-107125000D03*
X112086346Y-104200010D03*
X138086330Y-109350000D03*
X175036346Y-109400000D03*
X185261346Y-106350000D03*
X128336347Y-113275001D03*
X101986346Y-108899990D03*
X90736346Y-106675000D03*
X116313654Y-99150000D03*
X138013654Y-97050000D03*
X106013648Y-97100010D03*
X145513654Y-97175010D03*
X105945475Y-94200010D03*
X184889334Y-96100680D03*
X127913654Y-90050000D03*
X110413650Y-97150000D03*
X183013650Y-93650000D03*
X134013654Y-98650002D03*
X177188654Y-93650000D03*
X86413654Y-93600000D03*
X94438654Y-95725000D03*
X146388654Y-93700000D03*
X101913654Y-98150000D03*
X113413654Y-99150000D03*
X153713654Y-93650000D03*
X90763654Y-95875000D03*
X93288654Y-93575010D03*
X58438654Y-95875000D03*
X120013654Y-98825002D03*
X58738654Y-93625000D03*
X134013654Y-93450000D03*
X180588652Y-95875000D03*
X127913654Y-98799990D03*
X101913670Y-93650000D03*
X64963654Y-93600000D03*
X54738654Y-96650000D03*
X111663653Y-89724999D03*
X138013654Y-94100010D03*
X149263654Y-96325000D03*
X123686346Y-71850000D03*
X101986346Y-73950000D03*
X133986352Y-73899990D03*
X94486346Y-73824990D03*
X134054525Y-76799990D03*
X55110666Y-74899320D03*
X112086346Y-80950000D03*
X129586350Y-73850000D03*
X56986350Y-77350000D03*
X105986346Y-72349998D03*
X62811346Y-77350000D03*
X153586346Y-77400000D03*
X145561346Y-75275000D03*
X93611346Y-77300000D03*
X138086346Y-72850000D03*
X126586346Y-71850000D03*
X86286346Y-77350000D03*
X149236346Y-75125000D03*
X146711346Y-77424990D03*
X181561346Y-75125000D03*
X119986346Y-72174998D03*
X181261346Y-77375000D03*
X105986346Y-77550000D03*
X59411348Y-75125000D03*
X112086346Y-72200010D03*
X138086330Y-77350000D03*
X175036346Y-77400000D03*
X185261346Y-74350000D03*
X128336347Y-81275001D03*
X101986346Y-76899990D03*
X90736346Y-74675000D03*
X116313654Y-67150000D03*
X138013654Y-65050000D03*
X106013648Y-65100010D03*
X145513654Y-65175010D03*
X105945475Y-62200010D03*
X184889334Y-64100680D03*
X127913654Y-58050000D03*
X110413650Y-65150000D03*
X183013650Y-61650000D03*
X134013654Y-66650002D03*
X177188654Y-61650000D03*
X86413654Y-61600000D03*
X94438654Y-63725000D03*
X146388654Y-61700000D03*
X101913654Y-66150000D03*
X113413654Y-67150000D03*
X153713654Y-61650000D03*
X90763654Y-63875000D03*
X93288654Y-61575010D03*
X58438654Y-63875000D03*
X120013654Y-66825002D03*
X58738654Y-61625000D03*
X134013654Y-61450000D03*
X180588652Y-63875000D03*
X127913654Y-66799990D03*
X101913670Y-61650000D03*
X64963654Y-61600000D03*
X54738654Y-64650000D03*
X111663653Y-57724999D03*
X138013654Y-62100010D03*
X149263654Y-64325000D03*
G04 #@! TD*
D11*
G04 #@! TO.N,*
X149236346Y-139125000D02*
X145711346Y-139125000D01*
X133986352Y-137899990D02*
X133986352Y-140731817D01*
X125386346Y-137550000D02*
X127884342Y-137550000D01*
X133186353Y-137099991D02*
X133986352Y-137899990D01*
X128734344Y-136699998D02*
X132786360Y-136699998D01*
X127884342Y-137550000D02*
X128734344Y-136699998D01*
X132786360Y-136699998D02*
X133186353Y-137099991D01*
X123686346Y-135850000D02*
X125386346Y-137550000D01*
X93611346Y-141300000D02*
X86336346Y-141300000D01*
X182336346Y-138350000D02*
X181561346Y-139125000D01*
X145711346Y-139125000D02*
X145561346Y-139275000D01*
X101986346Y-137950000D02*
X101986346Y-140899990D01*
X86336346Y-141300000D02*
X86286346Y-141350000D01*
X55336346Y-139125000D02*
X55110666Y-138899320D01*
X185261346Y-138350000D02*
X182336346Y-138350000D01*
X90736346Y-138675000D02*
X93636336Y-138675000D01*
X93636336Y-138675000D02*
X93686347Y-138624989D01*
X59411348Y-139125000D02*
X55336346Y-139125000D01*
X93686347Y-138624989D02*
X94486346Y-137824990D01*
X128311346Y-144875000D02*
X128311346Y-145250000D01*
X125186356Y-134450010D02*
X125786347Y-135050001D01*
X128336347Y-145275001D02*
X128336347Y-139100003D01*
X153586346Y-141400000D02*
X146736336Y-141400000D01*
X128336347Y-139100003D02*
X128786351Y-138649999D01*
X105986346Y-136349998D02*
X105986346Y-141550000D01*
X118261358Y-134450010D02*
X107886334Y-134450010D01*
X119986346Y-136174998D02*
X118261358Y-134450010D01*
X133986352Y-140731817D02*
X134054525Y-140799990D01*
X119986346Y-136174998D02*
X121711334Y-134450010D01*
X128311346Y-145250000D02*
X128336347Y-145275001D01*
X62811346Y-141350000D02*
X56986350Y-141350000D01*
X138086346Y-141349984D02*
X138086330Y-141350000D01*
X128786351Y-138649999D02*
X129586350Y-137850000D01*
X181236346Y-141400000D02*
X181261346Y-141375000D01*
X125786347Y-135050001D02*
X126586346Y-135850000D01*
X175036346Y-141400000D02*
X181236346Y-141400000D01*
X107886334Y-134450010D02*
X106786345Y-135549999D01*
X121711334Y-134450010D02*
X125186356Y-134450010D01*
X106786345Y-135549999D02*
X105986346Y-136349998D01*
X112086346Y-144950000D02*
X112086346Y-136200010D01*
X146736336Y-141400000D02*
X146711346Y-141424990D01*
X138086346Y-136850000D02*
X138086346Y-141349984D01*
X90763654Y-127875000D02*
X94288654Y-127875000D01*
X106013648Y-129100010D02*
X106013648Y-126268183D01*
X114613654Y-129450000D02*
X112115658Y-129450000D01*
X106813647Y-129900009D02*
X106013648Y-129100010D01*
X111265656Y-130300002D02*
X107213640Y-130300002D01*
X112115658Y-129450000D02*
X111265656Y-130300002D01*
X107213640Y-130300002D02*
X106813647Y-129900009D01*
X116313654Y-131150000D02*
X114613654Y-129450000D01*
X146388654Y-125700000D02*
X153663654Y-125700000D01*
X57663654Y-128650000D02*
X58438654Y-127875000D01*
X94288654Y-127875000D02*
X94438654Y-127725000D01*
X138013654Y-129050000D02*
X138013654Y-126100010D01*
X153663654Y-125700000D02*
X153713654Y-125650000D01*
X184663654Y-127875000D02*
X184889334Y-128100680D01*
X54738654Y-128650000D02*
X57663654Y-128650000D01*
X149263654Y-128325000D02*
X146363664Y-128325000D01*
X146363664Y-128325000D02*
X146313653Y-128375011D01*
X180588652Y-127875000D02*
X184663654Y-127875000D01*
X146313653Y-128375011D02*
X145513654Y-129175010D01*
X111688654Y-122125000D02*
X111688654Y-121750000D01*
X114813644Y-132549990D02*
X114213653Y-131949999D01*
X111663653Y-121724999D02*
X111663653Y-127899997D01*
X86413654Y-125600000D02*
X93263664Y-125600000D01*
X111663653Y-127899997D02*
X111213649Y-128350001D01*
X134013654Y-130650002D02*
X134013654Y-125450000D01*
X121738642Y-132549990D02*
X132113666Y-132549990D01*
X120013654Y-130825002D02*
X121738642Y-132549990D01*
X106013648Y-126268183D02*
X105945475Y-126200010D01*
X120013654Y-130825002D02*
X118288666Y-132549990D01*
X111688654Y-121750000D02*
X111663653Y-121724999D01*
X177188654Y-125650000D02*
X183013650Y-125650000D01*
X101913654Y-125650016D02*
X101913670Y-125650000D01*
X111213649Y-128350001D02*
X110413650Y-129150000D01*
X58763654Y-125600000D02*
X58738654Y-125625000D01*
X114213653Y-131949999D02*
X113413654Y-131150000D01*
X64963654Y-125600000D02*
X58763654Y-125600000D01*
X132113666Y-132549990D02*
X133213655Y-131450001D01*
X118288666Y-132549990D02*
X114813644Y-132549990D01*
X133213655Y-131450001D02*
X134013654Y-130650002D01*
X127913654Y-122050000D02*
X127913654Y-130799990D01*
X93263664Y-125600000D02*
X93288654Y-125575010D01*
X101913654Y-130150000D02*
X101913654Y-125650016D01*
X149236346Y-107125000D02*
X145711346Y-107125000D01*
X133986352Y-105899990D02*
X133986352Y-108731817D01*
X125386346Y-105550000D02*
X127884342Y-105550000D01*
X133186353Y-105099991D02*
X133986352Y-105899990D01*
X128734344Y-104699998D02*
X132786360Y-104699998D01*
X127884342Y-105550000D02*
X128734344Y-104699998D01*
X132786360Y-104699998D02*
X133186353Y-105099991D01*
X123686346Y-103850000D02*
X125386346Y-105550000D01*
X93611346Y-109300000D02*
X86336346Y-109300000D01*
X182336346Y-106350000D02*
X181561346Y-107125000D01*
X145711346Y-107125000D02*
X145561346Y-107275000D01*
X101986346Y-105950000D02*
X101986346Y-108899990D01*
X86336346Y-109300000D02*
X86286346Y-109350000D01*
X55336346Y-107125000D02*
X55110666Y-106899320D01*
X185261346Y-106350000D02*
X182336346Y-106350000D01*
X90736346Y-106675000D02*
X93636336Y-106675000D01*
X93636336Y-106675000D02*
X93686347Y-106624989D01*
X59411348Y-107125000D02*
X55336346Y-107125000D01*
X93686347Y-106624989D02*
X94486346Y-105824990D01*
X128311346Y-112875000D02*
X128311346Y-113250000D01*
X125186356Y-102450010D02*
X125786347Y-103050001D01*
X128336347Y-113275001D02*
X128336347Y-107100003D01*
X153586346Y-109400000D02*
X146736336Y-109400000D01*
X128336347Y-107100003D02*
X128786351Y-106649999D01*
X105986346Y-104349998D02*
X105986346Y-109550000D01*
X118261358Y-102450010D02*
X107886334Y-102450010D01*
X119986346Y-104174998D02*
X118261358Y-102450010D01*
X133986352Y-108731817D02*
X134054525Y-108799990D01*
X119986346Y-104174998D02*
X121711334Y-102450010D01*
X128311346Y-113250000D02*
X128336347Y-113275001D01*
X62811346Y-109350000D02*
X56986350Y-109350000D01*
X138086346Y-109349984D02*
X138086330Y-109350000D01*
X128786351Y-106649999D02*
X129586350Y-105850000D01*
X181236346Y-109400000D02*
X181261346Y-109375000D01*
X125786347Y-103050001D02*
X126586346Y-103850000D01*
X175036346Y-109400000D02*
X181236346Y-109400000D01*
X107886334Y-102450010D02*
X106786345Y-103549999D01*
X121711334Y-102450010D02*
X125186356Y-102450010D01*
X106786345Y-103549999D02*
X105986346Y-104349998D01*
X112086346Y-112950000D02*
X112086346Y-104200010D01*
X146736336Y-109400000D02*
X146711346Y-109424990D01*
X138086346Y-104850000D02*
X138086346Y-109349984D01*
X90763654Y-95875000D02*
X94288654Y-95875000D01*
X106013648Y-97100010D02*
X106013648Y-94268183D01*
X114613654Y-97450000D02*
X112115658Y-97450000D01*
X106813647Y-97900009D02*
X106013648Y-97100010D01*
X111265656Y-98300002D02*
X107213640Y-98300002D01*
X112115658Y-97450000D02*
X111265656Y-98300002D01*
X107213640Y-98300002D02*
X106813647Y-97900009D01*
X116313654Y-99150000D02*
X114613654Y-97450000D01*
X146388654Y-93700000D02*
X153663654Y-93700000D01*
X57663654Y-96650000D02*
X58438654Y-95875000D01*
X94288654Y-95875000D02*
X94438654Y-95725000D01*
X138013654Y-97050000D02*
X138013654Y-94100010D01*
X153663654Y-93700000D02*
X153713654Y-93650000D01*
X184663654Y-95875000D02*
X184889334Y-96100680D01*
X54738654Y-96650000D02*
X57663654Y-96650000D01*
X149263654Y-96325000D02*
X146363664Y-96325000D01*
X146363664Y-96325000D02*
X146313653Y-96375011D01*
X180588652Y-95875000D02*
X184663654Y-95875000D01*
X146313653Y-96375011D02*
X145513654Y-97175010D01*
X111688654Y-90125000D02*
X111688654Y-89750000D01*
X114813644Y-100549990D02*
X114213653Y-99949999D01*
X111663653Y-89724999D02*
X111663653Y-95899997D01*
X86413654Y-93600000D02*
X93263664Y-93600000D01*
X111663653Y-95899997D02*
X111213649Y-96350001D01*
X134013654Y-98650002D02*
X134013654Y-93450000D01*
X121738642Y-100549990D02*
X132113666Y-100549990D01*
X120013654Y-98825002D02*
X121738642Y-100549990D01*
X106013648Y-94268183D02*
X105945475Y-94200010D01*
X120013654Y-98825002D02*
X118288666Y-100549990D01*
X111688654Y-89750000D02*
X111663653Y-89724999D01*
X177188654Y-93650000D02*
X183013650Y-93650000D01*
X101913654Y-93650016D02*
X101913670Y-93650000D01*
X111213649Y-96350001D02*
X110413650Y-97150000D01*
X58763654Y-93600000D02*
X58738654Y-93625000D01*
X114213653Y-99949999D02*
X113413654Y-99150000D01*
X64963654Y-93600000D02*
X58763654Y-93600000D01*
X132113666Y-100549990D02*
X133213655Y-99450001D01*
X118288666Y-100549990D02*
X114813644Y-100549990D01*
X133213655Y-99450001D02*
X134013654Y-98650002D01*
X127913654Y-90050000D02*
X127913654Y-98799990D01*
X93263664Y-93600000D02*
X93288654Y-93575010D01*
X101913654Y-98150000D02*
X101913654Y-93650016D01*
X149236346Y-75125000D02*
X145711346Y-75125000D01*
X133986352Y-73899990D02*
X133986352Y-76731817D01*
X125386346Y-73550000D02*
X127884342Y-73550000D01*
X133186353Y-73099991D02*
X133986352Y-73899990D01*
X128734344Y-72699998D02*
X132786360Y-72699998D01*
X127884342Y-73550000D02*
X128734344Y-72699998D01*
X132786360Y-72699998D02*
X133186353Y-73099991D01*
X123686346Y-71850000D02*
X125386346Y-73550000D01*
X93611346Y-77300000D02*
X86336346Y-77300000D01*
X182336346Y-74350000D02*
X181561346Y-75125000D01*
X145711346Y-75125000D02*
X145561346Y-75275000D01*
X101986346Y-73950000D02*
X101986346Y-76899990D01*
X86336346Y-77300000D02*
X86286346Y-77350000D01*
X55336346Y-75125000D02*
X55110666Y-74899320D01*
X185261346Y-74350000D02*
X182336346Y-74350000D01*
X90736346Y-74675000D02*
X93636336Y-74675000D01*
X93636336Y-74675000D02*
X93686347Y-74624989D01*
X59411348Y-75125000D02*
X55336346Y-75125000D01*
X93686347Y-74624989D02*
X94486346Y-73824990D01*
X128311346Y-80875000D02*
X128311346Y-81250000D01*
X125186356Y-70450010D02*
X125786347Y-71050001D01*
X128336347Y-81275001D02*
X128336347Y-75100003D01*
X153586346Y-77400000D02*
X146736336Y-77400000D01*
X128336347Y-75100003D02*
X128786351Y-74649999D01*
X105986346Y-72349998D02*
X105986346Y-77550000D01*
X118261358Y-70450010D02*
X107886334Y-70450010D01*
X119986346Y-72174998D02*
X118261358Y-70450010D01*
X133986352Y-76731817D02*
X134054525Y-76799990D01*
X119986346Y-72174998D02*
X121711334Y-70450010D01*
X128311346Y-81250000D02*
X128336347Y-81275001D01*
X62811346Y-77350000D02*
X56986350Y-77350000D01*
X138086346Y-77349984D02*
X138086330Y-77350000D01*
X128786351Y-74649999D02*
X129586350Y-73850000D01*
X181236346Y-77400000D02*
X181261346Y-77375000D01*
X125786347Y-71050001D02*
X126586346Y-71850000D01*
X175036346Y-77400000D02*
X181236346Y-77400000D01*
X107886334Y-70450010D02*
X106786345Y-71549999D01*
X121711334Y-70450010D02*
X125186356Y-70450010D01*
X106786345Y-71549999D02*
X105986346Y-72349998D01*
X112086346Y-80950000D02*
X112086346Y-72200010D01*
X146736336Y-77400000D02*
X146711346Y-77424990D01*
X138086346Y-72850000D02*
X138086346Y-77349984D01*
X90763654Y-63875000D02*
X94288654Y-63875000D01*
X106013648Y-65100010D02*
X106013648Y-62268183D01*
X114613654Y-65450000D02*
X112115658Y-65450000D01*
X106813647Y-65900009D02*
X106013648Y-65100010D01*
X111265656Y-66300002D02*
X107213640Y-66300002D01*
X112115658Y-65450000D02*
X111265656Y-66300002D01*
X107213640Y-66300002D02*
X106813647Y-65900009D01*
X116313654Y-67150000D02*
X114613654Y-65450000D01*
X146388654Y-61700000D02*
X153663654Y-61700000D01*
X57663654Y-64650000D02*
X58438654Y-63875000D01*
X94288654Y-63875000D02*
X94438654Y-63725000D01*
X138013654Y-65050000D02*
X138013654Y-62100010D01*
X153663654Y-61700000D02*
X153713654Y-61650000D01*
X184663654Y-63875000D02*
X184889334Y-64100680D01*
X54738654Y-64650000D02*
X57663654Y-64650000D01*
X149263654Y-64325000D02*
X146363664Y-64325000D01*
X146363664Y-64325000D02*
X146313653Y-64375011D01*
X180588652Y-63875000D02*
X184663654Y-63875000D01*
X146313653Y-64375011D02*
X145513654Y-65175010D01*
X111688654Y-58125000D02*
X111688654Y-57750000D01*
X114813644Y-68549990D02*
X114213653Y-67949999D01*
X111663653Y-57724999D02*
X111663653Y-63899997D01*
X86413654Y-61600000D02*
X93263664Y-61600000D01*
X111663653Y-63899997D02*
X111213649Y-64350001D01*
X134013654Y-66650002D02*
X134013654Y-61450000D01*
X121738642Y-68549990D02*
X132113666Y-68549990D01*
X120013654Y-66825002D02*
X121738642Y-68549990D01*
X106013648Y-62268183D02*
X105945475Y-62200010D01*
X120013654Y-66825002D02*
X118288666Y-68549990D01*
X111688654Y-57750000D02*
X111663653Y-57724999D01*
X177188654Y-61650000D02*
X183013650Y-61650000D01*
X101913654Y-61650016D02*
X101913670Y-61650000D01*
X111213649Y-64350001D02*
X110413650Y-65150000D01*
X58763654Y-61600000D02*
X58738654Y-61625000D01*
X114213653Y-67949999D02*
X113413654Y-67150000D01*
X64963654Y-61600000D02*
X58763654Y-61600000D01*
X132113666Y-68549990D02*
X133213655Y-67450001D01*
X118288666Y-68549990D02*
X114813644Y-68549990D01*
X133213655Y-67450001D02*
X134013654Y-66650002D01*
X127913654Y-58050000D02*
X127913654Y-66799990D01*
X93263664Y-61600000D02*
X93288654Y-61575010D01*
X101913654Y-66150000D02*
X101913654Y-61650016D01*
G04 #@! TD*
D12*
G36*
X188265001Y-143265000D02*
X140072388Y-143265000D01*
X140000000Y-143250601D01*
X139927612Y-143265000D01*
X139713217Y-143307646D01*
X139470095Y-143470095D01*
X139429091Y-143531463D01*
X136531463Y-146429091D01*
X136470096Y-146470095D01*
X136429092Y-146531462D01*
X136429091Y-146531463D01*
X136307646Y-146713218D01*
X136250602Y-147000000D01*
X136265001Y-147072389D01*
X136265000Y-148265000D01*
X135382113Y-148265000D01*
X135553046Y-148094067D01*
X135781800Y-147882609D01*
X135802069Y-147845044D01*
X135881087Y-147766026D01*
X136001305Y-147475793D01*
X136133422Y-147230938D01*
X136154042Y-147107056D01*
X136221346Y-146944569D01*
X136221346Y-146702695D01*
X136255000Y-146500504D01*
X136254722Y-146465084D01*
X136221346Y-146282335D01*
X136221346Y-146055431D01*
X136147225Y-145876487D01*
X136121686Y-145736650D01*
X135997309Y-145514559D01*
X135881087Y-145233974D01*
X135788098Y-145140985D01*
X135759871Y-145090582D01*
X135547309Y-144900196D01*
X135252372Y-144605259D01*
X134430915Y-144265000D01*
X133921790Y-144265000D01*
X133787786Y-144255512D01*
X133752002Y-144265000D01*
X133541777Y-144265000D01*
X133167855Y-144419884D01*
X133072035Y-144445290D01*
X133015792Y-144482870D01*
X132720320Y-144605259D01*
X132494177Y-144831402D01*
X132456346Y-144856680D01*
X132415894Y-144909685D01*
X132091605Y-145233974D01*
X131751346Y-146055431D01*
X131751346Y-146944569D01*
X132091605Y-147766026D01*
X132439175Y-148113596D01*
X132482357Y-148168372D01*
X132515080Y-148189501D01*
X132590579Y-148265000D01*
X107382113Y-148265000D01*
X107553046Y-148094067D01*
X107781800Y-147882609D01*
X107802069Y-147845044D01*
X107881087Y-147766026D01*
X108001305Y-147475793D01*
X108133422Y-147230938D01*
X108154042Y-147107056D01*
X108221346Y-146944569D01*
X108221346Y-146702695D01*
X108255000Y-146500504D01*
X108254722Y-146465084D01*
X108221346Y-146282335D01*
X108221346Y-146055431D01*
X108147225Y-145876487D01*
X108121686Y-145736650D01*
X107997309Y-145514559D01*
X107881087Y-145233974D01*
X107788098Y-145140985D01*
X107759871Y-145090582D01*
X107547309Y-144900196D01*
X107252372Y-144605259D01*
X106430915Y-144265000D01*
X105921790Y-144265000D01*
X105787786Y-144255512D01*
X105752002Y-144265000D01*
X105541777Y-144265000D01*
X105167855Y-144419884D01*
X105072035Y-144445290D01*
X105015792Y-144482870D01*
X104720320Y-144605259D01*
X104494177Y-144831402D01*
X104456346Y-144856680D01*
X104415894Y-144909685D01*
X104091605Y-145233974D01*
X103751346Y-146055431D01*
X103751346Y-146944569D01*
X104091605Y-147766026D01*
X104439175Y-148113596D01*
X104482357Y-148168372D01*
X104515080Y-148189501D01*
X104590579Y-148265000D01*
X103735000Y-148265000D01*
X103735000Y-147072388D01*
X103749399Y-147000000D01*
X103692354Y-146713218D01*
X103692354Y-146713217D01*
X103529905Y-146470095D01*
X103468538Y-146429091D01*
X100570911Y-143531465D01*
X100529905Y-143470095D01*
X100286783Y-143307646D01*
X100072388Y-143265000D01*
X100072384Y-143265000D01*
X100000000Y-143250602D01*
X99927616Y-143265000D01*
X51735000Y-143265000D01*
X51735000Y-138693446D01*
X54075666Y-138693446D01*
X54075666Y-139105194D01*
X54233235Y-139485600D01*
X54524386Y-139776751D01*
X54904792Y-139934320D01*
X55316540Y-139934320D01*
X55339774Y-139924696D01*
X55413658Y-139910000D01*
X58732637Y-139910000D01*
X58825068Y-140002431D01*
X59205474Y-140160000D01*
X59617222Y-140160000D01*
X59997628Y-140002431D01*
X60288779Y-139711280D01*
X60446348Y-139330874D01*
X60446348Y-138919126D01*
X60288779Y-138538720D01*
X60219185Y-138469126D01*
X89701346Y-138469126D01*
X89701346Y-138880874D01*
X89858915Y-139261280D01*
X90150066Y-139552431D01*
X90530472Y-139710000D01*
X90942220Y-139710000D01*
X91322626Y-139552431D01*
X91415057Y-139460000D01*
X93559024Y-139460000D01*
X93636336Y-139475378D01*
X93713648Y-139460000D01*
X93713652Y-139460000D01*
X93942628Y-139414454D01*
X94202289Y-139240953D01*
X94246085Y-139175408D01*
X94561503Y-138859990D01*
X94692220Y-138859990D01*
X95072626Y-138702421D01*
X95363777Y-138411270D01*
X95521346Y-138030864D01*
X95521346Y-137744126D01*
X100951346Y-137744126D01*
X100951346Y-138155874D01*
X101108915Y-138536280D01*
X101201346Y-138628711D01*
X101201347Y-140221278D01*
X101108915Y-140313710D01*
X100951346Y-140694116D01*
X100951346Y-141105864D01*
X101108915Y-141486270D01*
X101400066Y-141777421D01*
X101780472Y-141934990D01*
X102192220Y-141934990D01*
X102572626Y-141777421D01*
X102863777Y-141486270D01*
X103021346Y-141105864D01*
X103021346Y-140694116D01*
X102863777Y-140313710D01*
X102771346Y-140221279D01*
X102771346Y-138628711D01*
X102863777Y-138536280D01*
X103021346Y-138155874D01*
X103021346Y-137744126D01*
X102863777Y-137363720D01*
X102572626Y-137072569D01*
X102192220Y-136915000D01*
X101780472Y-136915000D01*
X101400066Y-137072569D01*
X101108915Y-137363720D01*
X100951346Y-137744126D01*
X95521346Y-137744126D01*
X95521346Y-137619116D01*
X95363777Y-137238710D01*
X95072626Y-136947559D01*
X94692220Y-136789990D01*
X94280472Y-136789990D01*
X93900066Y-136947559D01*
X93608915Y-137238710D01*
X93451346Y-137619116D01*
X93451346Y-137749833D01*
X93311179Y-137890000D01*
X91415057Y-137890000D01*
X91322626Y-137797569D01*
X90942220Y-137640000D01*
X90530472Y-137640000D01*
X90150066Y-137797569D01*
X89858915Y-138088720D01*
X89701346Y-138469126D01*
X60219185Y-138469126D01*
X59997628Y-138247569D01*
X59617222Y-138090000D01*
X59205474Y-138090000D01*
X58825068Y-138247569D01*
X58732637Y-138340000D01*
X55999264Y-138340000D01*
X55988097Y-138313040D01*
X55696946Y-138021889D01*
X55316540Y-137864320D01*
X54904792Y-137864320D01*
X54524386Y-138021889D01*
X54233235Y-138313040D01*
X54075666Y-138693446D01*
X51735000Y-138693446D01*
X51735000Y-135994136D01*
X111051346Y-135994136D01*
X111051346Y-136405884D01*
X111208915Y-136786290D01*
X111301347Y-136878722D01*
X111301346Y-144271289D01*
X111208915Y-144363720D01*
X111051346Y-144744126D01*
X111051346Y-145155874D01*
X111208915Y-145536280D01*
X111500066Y-145827431D01*
X111880472Y-145985000D01*
X112292220Y-145985000D01*
X112672626Y-145827431D01*
X112963777Y-145536280D01*
X113121346Y-145155874D01*
X113121346Y-144744126D01*
X112963777Y-144363720D01*
X112871346Y-144271289D01*
X112871346Y-136878721D01*
X112963777Y-136786290D01*
X113121346Y-136405884D01*
X113121346Y-135994136D01*
X112976368Y-135644126D01*
X122651346Y-135644126D01*
X122651346Y-136055874D01*
X122808915Y-136436280D01*
X123100066Y-136727431D01*
X123480472Y-136885000D01*
X123611189Y-136885000D01*
X124776599Y-138050411D01*
X124820393Y-138115953D01*
X124885935Y-138159747D01*
X124885937Y-138159749D01*
X125006041Y-138240000D01*
X125080054Y-138289454D01*
X125309030Y-138335000D01*
X125309033Y-138335000D01*
X125386345Y-138350378D01*
X125463657Y-138335000D01*
X127807030Y-138335000D01*
X127884342Y-138350378D01*
X127961654Y-138335000D01*
X127961658Y-138335000D01*
X128190634Y-138289454D01*
X128450295Y-138115953D01*
X128494091Y-138050408D01*
X129059502Y-137484998D01*
X132461204Y-137484998D01*
X132576602Y-137600397D01*
X132951352Y-137975147D01*
X132951352Y-138105864D01*
X133108921Y-138486270D01*
X133201352Y-138578701D01*
X133201353Y-140189451D01*
X133177094Y-140213710D01*
X133019525Y-140594116D01*
X133019525Y-141005864D01*
X133177094Y-141386270D01*
X133468245Y-141677421D01*
X133848651Y-141834990D01*
X134260399Y-141834990D01*
X134640805Y-141677421D01*
X134931956Y-141386270D01*
X135089525Y-141005864D01*
X135089525Y-140594116D01*
X134931956Y-140213710D01*
X134771352Y-140053106D01*
X134771352Y-139069126D01*
X144526346Y-139069126D01*
X144526346Y-139480874D01*
X144683915Y-139861280D01*
X144975066Y-140152431D01*
X145355472Y-140310000D01*
X145767220Y-140310000D01*
X146147626Y-140152431D01*
X146390057Y-139910000D01*
X148557635Y-139910000D01*
X148650066Y-140002431D01*
X149030472Y-140160000D01*
X149442220Y-140160000D01*
X149822626Y-140002431D01*
X150113777Y-139711280D01*
X150271346Y-139330874D01*
X150271346Y-138919126D01*
X180526346Y-138919126D01*
X180526346Y-139330874D01*
X180683915Y-139711280D01*
X180975066Y-140002431D01*
X181355472Y-140160000D01*
X181767220Y-140160000D01*
X182147626Y-140002431D01*
X182438777Y-139711280D01*
X182596346Y-139330874D01*
X182596346Y-139200157D01*
X182661503Y-139135000D01*
X184582635Y-139135000D01*
X184675066Y-139227431D01*
X185055472Y-139385000D01*
X185467220Y-139385000D01*
X185847626Y-139227431D01*
X186138777Y-138936280D01*
X186296346Y-138555874D01*
X186296346Y-138144126D01*
X186138777Y-137763720D01*
X185847626Y-137472569D01*
X185467220Y-137315000D01*
X185055472Y-137315000D01*
X184675066Y-137472569D01*
X184582635Y-137565000D01*
X182413658Y-137565000D01*
X182336346Y-137549622D01*
X182259034Y-137565000D01*
X182259030Y-137565000D01*
X182030054Y-137610546D01*
X181770393Y-137784047D01*
X181726597Y-137849592D01*
X181486189Y-138090000D01*
X181355472Y-138090000D01*
X180975066Y-138247569D01*
X180683915Y-138538720D01*
X180526346Y-138919126D01*
X150271346Y-138919126D01*
X150113777Y-138538720D01*
X149822626Y-138247569D01*
X149442220Y-138090000D01*
X149030472Y-138090000D01*
X148650066Y-138247569D01*
X148557635Y-138340000D01*
X146008642Y-138340000D01*
X145767220Y-138240000D01*
X145355472Y-138240000D01*
X144975066Y-138397569D01*
X144683915Y-138688720D01*
X144526346Y-139069126D01*
X134771352Y-139069126D01*
X134771352Y-138578701D01*
X134863783Y-138486270D01*
X135021352Y-138105864D01*
X135021352Y-137694116D01*
X134863783Y-137313710D01*
X134572632Y-137022559D01*
X134192226Y-136864990D01*
X134061509Y-136864990D01*
X133396110Y-136199591D01*
X133352313Y-136134045D01*
X133092652Y-135960544D01*
X132863676Y-135914998D01*
X132863672Y-135914998D01*
X132786360Y-135899620D01*
X132709048Y-135914998D01*
X128811654Y-135914998D01*
X128734343Y-135899620D01*
X128657032Y-135914998D01*
X128657028Y-135914998D01*
X128428052Y-135960544D01*
X128428050Y-135960545D01*
X128428051Y-135960545D01*
X128233935Y-136090249D01*
X128233933Y-136090251D01*
X128168391Y-136134045D01*
X128124597Y-136199587D01*
X127559185Y-136765000D01*
X125711504Y-136765000D01*
X124721346Y-135774843D01*
X124721346Y-135644126D01*
X124563777Y-135263720D01*
X124272626Y-134972569D01*
X123892220Y-134815000D01*
X123480472Y-134815000D01*
X123100066Y-134972569D01*
X122808915Y-135263720D01*
X122651346Y-135644126D01*
X112976368Y-135644126D01*
X112963777Y-135613730D01*
X112672626Y-135322579D01*
X112292220Y-135165010D01*
X111880472Y-135165010D01*
X111500066Y-135322579D01*
X111208915Y-135613730D01*
X111051346Y-135994136D01*
X51735000Y-135994136D01*
X51735000Y-134735000D01*
X188265000Y-134735000D01*
X188265001Y-143265000D01*
X188265001Y-143265000D01*
G37*
X188265001Y-143265000D02*
X140072388Y-143265000D01*
X140000000Y-143250601D01*
X139927612Y-143265000D01*
X139713217Y-143307646D01*
X139470095Y-143470095D01*
X139429091Y-143531463D01*
X136531463Y-146429091D01*
X136470096Y-146470095D01*
X136429092Y-146531462D01*
X136429091Y-146531463D01*
X136307646Y-146713218D01*
X136250602Y-147000000D01*
X136265001Y-147072389D01*
X136265000Y-148265000D01*
X135382113Y-148265000D01*
X135553046Y-148094067D01*
X135781800Y-147882609D01*
X135802069Y-147845044D01*
X135881087Y-147766026D01*
X136001305Y-147475793D01*
X136133422Y-147230938D01*
X136154042Y-147107056D01*
X136221346Y-146944569D01*
X136221346Y-146702695D01*
X136255000Y-146500504D01*
X136254722Y-146465084D01*
X136221346Y-146282335D01*
X136221346Y-146055431D01*
X136147225Y-145876487D01*
X136121686Y-145736650D01*
X135997309Y-145514559D01*
X135881087Y-145233974D01*
X135788098Y-145140985D01*
X135759871Y-145090582D01*
X135547309Y-144900196D01*
X135252372Y-144605259D01*
X134430915Y-144265000D01*
X133921790Y-144265000D01*
X133787786Y-144255512D01*
X133752002Y-144265000D01*
X133541777Y-144265000D01*
X133167855Y-144419884D01*
X133072035Y-144445290D01*
X133015792Y-144482870D01*
X132720320Y-144605259D01*
X132494177Y-144831402D01*
X132456346Y-144856680D01*
X132415894Y-144909685D01*
X132091605Y-145233974D01*
X131751346Y-146055431D01*
X131751346Y-146944569D01*
X132091605Y-147766026D01*
X132439175Y-148113596D01*
X132482357Y-148168372D01*
X132515080Y-148189501D01*
X132590579Y-148265000D01*
X107382113Y-148265000D01*
X107553046Y-148094067D01*
X107781800Y-147882609D01*
X107802069Y-147845044D01*
X107881087Y-147766026D01*
X108001305Y-147475793D01*
X108133422Y-147230938D01*
X108154042Y-147107056D01*
X108221346Y-146944569D01*
X108221346Y-146702695D01*
X108255000Y-146500504D01*
X108254722Y-146465084D01*
X108221346Y-146282335D01*
X108221346Y-146055431D01*
X108147225Y-145876487D01*
X108121686Y-145736650D01*
X107997309Y-145514559D01*
X107881087Y-145233974D01*
X107788098Y-145140985D01*
X107759871Y-145090582D01*
X107547309Y-144900196D01*
X107252372Y-144605259D01*
X106430915Y-144265000D01*
X105921790Y-144265000D01*
X105787786Y-144255512D01*
X105752002Y-144265000D01*
X105541777Y-144265000D01*
X105167855Y-144419884D01*
X105072035Y-144445290D01*
X105015792Y-144482870D01*
X104720320Y-144605259D01*
X104494177Y-144831402D01*
X104456346Y-144856680D01*
X104415894Y-144909685D01*
X104091605Y-145233974D01*
X103751346Y-146055431D01*
X103751346Y-146944569D01*
X104091605Y-147766026D01*
X104439175Y-148113596D01*
X104482357Y-148168372D01*
X104515080Y-148189501D01*
X104590579Y-148265000D01*
X103735000Y-148265000D01*
X103735000Y-147072388D01*
X103749399Y-147000000D01*
X103692354Y-146713218D01*
X103692354Y-146713217D01*
X103529905Y-146470095D01*
X103468538Y-146429091D01*
X100570911Y-143531465D01*
X100529905Y-143470095D01*
X100286783Y-143307646D01*
X100072388Y-143265000D01*
X100072384Y-143265000D01*
X100000000Y-143250602D01*
X99927616Y-143265000D01*
X51735000Y-143265000D01*
X51735000Y-138693446D01*
X54075666Y-138693446D01*
X54075666Y-139105194D01*
X54233235Y-139485600D01*
X54524386Y-139776751D01*
X54904792Y-139934320D01*
X55316540Y-139934320D01*
X55339774Y-139924696D01*
X55413658Y-139910000D01*
X58732637Y-139910000D01*
X58825068Y-140002431D01*
X59205474Y-140160000D01*
X59617222Y-140160000D01*
X59997628Y-140002431D01*
X60288779Y-139711280D01*
X60446348Y-139330874D01*
X60446348Y-138919126D01*
X60288779Y-138538720D01*
X60219185Y-138469126D01*
X89701346Y-138469126D01*
X89701346Y-138880874D01*
X89858915Y-139261280D01*
X90150066Y-139552431D01*
X90530472Y-139710000D01*
X90942220Y-139710000D01*
X91322626Y-139552431D01*
X91415057Y-139460000D01*
X93559024Y-139460000D01*
X93636336Y-139475378D01*
X93713648Y-139460000D01*
X93713652Y-139460000D01*
X93942628Y-139414454D01*
X94202289Y-139240953D01*
X94246085Y-139175408D01*
X94561503Y-138859990D01*
X94692220Y-138859990D01*
X95072626Y-138702421D01*
X95363777Y-138411270D01*
X95521346Y-138030864D01*
X95521346Y-137744126D01*
X100951346Y-137744126D01*
X100951346Y-138155874D01*
X101108915Y-138536280D01*
X101201346Y-138628711D01*
X101201347Y-140221278D01*
X101108915Y-140313710D01*
X100951346Y-140694116D01*
X100951346Y-141105864D01*
X101108915Y-141486270D01*
X101400066Y-141777421D01*
X101780472Y-141934990D01*
X102192220Y-141934990D01*
X102572626Y-141777421D01*
X102863777Y-141486270D01*
X103021346Y-141105864D01*
X103021346Y-140694116D01*
X102863777Y-140313710D01*
X102771346Y-140221279D01*
X102771346Y-138628711D01*
X102863777Y-138536280D01*
X103021346Y-138155874D01*
X103021346Y-137744126D01*
X102863777Y-137363720D01*
X102572626Y-137072569D01*
X102192220Y-136915000D01*
X101780472Y-136915000D01*
X101400066Y-137072569D01*
X101108915Y-137363720D01*
X100951346Y-137744126D01*
X95521346Y-137744126D01*
X95521346Y-137619116D01*
X95363777Y-137238710D01*
X95072626Y-136947559D01*
X94692220Y-136789990D01*
X94280472Y-136789990D01*
X93900066Y-136947559D01*
X93608915Y-137238710D01*
X93451346Y-137619116D01*
X93451346Y-137749833D01*
X93311179Y-137890000D01*
X91415057Y-137890000D01*
X91322626Y-137797569D01*
X90942220Y-137640000D01*
X90530472Y-137640000D01*
X90150066Y-137797569D01*
X89858915Y-138088720D01*
X89701346Y-138469126D01*
X60219185Y-138469126D01*
X59997628Y-138247569D01*
X59617222Y-138090000D01*
X59205474Y-138090000D01*
X58825068Y-138247569D01*
X58732637Y-138340000D01*
X55999264Y-138340000D01*
X55988097Y-138313040D01*
X55696946Y-138021889D01*
X55316540Y-137864320D01*
X54904792Y-137864320D01*
X54524386Y-138021889D01*
X54233235Y-138313040D01*
X54075666Y-138693446D01*
X51735000Y-138693446D01*
X51735000Y-135994136D01*
X111051346Y-135994136D01*
X111051346Y-136405884D01*
X111208915Y-136786290D01*
X111301347Y-136878722D01*
X111301346Y-144271289D01*
X111208915Y-144363720D01*
X111051346Y-144744126D01*
X111051346Y-145155874D01*
X111208915Y-145536280D01*
X111500066Y-145827431D01*
X111880472Y-145985000D01*
X112292220Y-145985000D01*
X112672626Y-145827431D01*
X112963777Y-145536280D01*
X113121346Y-145155874D01*
X113121346Y-144744126D01*
X112963777Y-144363720D01*
X112871346Y-144271289D01*
X112871346Y-136878721D01*
X112963777Y-136786290D01*
X113121346Y-136405884D01*
X113121346Y-135994136D01*
X112976368Y-135644126D01*
X122651346Y-135644126D01*
X122651346Y-136055874D01*
X122808915Y-136436280D01*
X123100066Y-136727431D01*
X123480472Y-136885000D01*
X123611189Y-136885000D01*
X124776599Y-138050411D01*
X124820393Y-138115953D01*
X124885935Y-138159747D01*
X124885937Y-138159749D01*
X125006041Y-138240000D01*
X125080054Y-138289454D01*
X125309030Y-138335000D01*
X125309033Y-138335000D01*
X125386345Y-138350378D01*
X125463657Y-138335000D01*
X127807030Y-138335000D01*
X127884342Y-138350378D01*
X127961654Y-138335000D01*
X127961658Y-138335000D01*
X128190634Y-138289454D01*
X128450295Y-138115953D01*
X128494091Y-138050408D01*
X129059502Y-137484998D01*
X132461204Y-137484998D01*
X132576602Y-137600397D01*
X132951352Y-137975147D01*
X132951352Y-138105864D01*
X133108921Y-138486270D01*
X133201352Y-138578701D01*
X133201353Y-140189451D01*
X133177094Y-140213710D01*
X133019525Y-140594116D01*
X133019525Y-141005864D01*
X133177094Y-141386270D01*
X133468245Y-141677421D01*
X133848651Y-141834990D01*
X134260399Y-141834990D01*
X134640805Y-141677421D01*
X134931956Y-141386270D01*
X135089525Y-141005864D01*
X135089525Y-140594116D01*
X134931956Y-140213710D01*
X134771352Y-140053106D01*
X134771352Y-139069126D01*
X144526346Y-139069126D01*
X144526346Y-139480874D01*
X144683915Y-139861280D01*
X144975066Y-140152431D01*
X145355472Y-140310000D01*
X145767220Y-140310000D01*
X146147626Y-140152431D01*
X146390057Y-139910000D01*
X148557635Y-139910000D01*
X148650066Y-140002431D01*
X149030472Y-140160000D01*
X149442220Y-140160000D01*
X149822626Y-140002431D01*
X150113777Y-139711280D01*
X150271346Y-139330874D01*
X150271346Y-138919126D01*
X180526346Y-138919126D01*
X180526346Y-139330874D01*
X180683915Y-139711280D01*
X180975066Y-140002431D01*
X181355472Y-140160000D01*
X181767220Y-140160000D01*
X182147626Y-140002431D01*
X182438777Y-139711280D01*
X182596346Y-139330874D01*
X182596346Y-139200157D01*
X182661503Y-139135000D01*
X184582635Y-139135000D01*
X184675066Y-139227431D01*
X185055472Y-139385000D01*
X185467220Y-139385000D01*
X185847626Y-139227431D01*
X186138777Y-138936280D01*
X186296346Y-138555874D01*
X186296346Y-138144126D01*
X186138777Y-137763720D01*
X185847626Y-137472569D01*
X185467220Y-137315000D01*
X185055472Y-137315000D01*
X184675066Y-137472569D01*
X184582635Y-137565000D01*
X182413658Y-137565000D01*
X182336346Y-137549622D01*
X182259034Y-137565000D01*
X182259030Y-137565000D01*
X182030054Y-137610546D01*
X181770393Y-137784047D01*
X181726597Y-137849592D01*
X181486189Y-138090000D01*
X181355472Y-138090000D01*
X180975066Y-138247569D01*
X180683915Y-138538720D01*
X180526346Y-138919126D01*
X150271346Y-138919126D01*
X150113777Y-138538720D01*
X149822626Y-138247569D01*
X149442220Y-138090000D01*
X149030472Y-138090000D01*
X148650066Y-138247569D01*
X148557635Y-138340000D01*
X146008642Y-138340000D01*
X145767220Y-138240000D01*
X145355472Y-138240000D01*
X144975066Y-138397569D01*
X144683915Y-138688720D01*
X144526346Y-139069126D01*
X134771352Y-139069126D01*
X134771352Y-138578701D01*
X134863783Y-138486270D01*
X135021352Y-138105864D01*
X135021352Y-137694116D01*
X134863783Y-137313710D01*
X134572632Y-137022559D01*
X134192226Y-136864990D01*
X134061509Y-136864990D01*
X133396110Y-136199591D01*
X133352313Y-136134045D01*
X133092652Y-135960544D01*
X132863676Y-135914998D01*
X132863672Y-135914998D01*
X132786360Y-135899620D01*
X132709048Y-135914998D01*
X128811654Y-135914998D01*
X128734343Y-135899620D01*
X128657032Y-135914998D01*
X128657028Y-135914998D01*
X128428052Y-135960544D01*
X128428050Y-135960545D01*
X128428051Y-135960545D01*
X128233935Y-136090249D01*
X128233933Y-136090251D01*
X128168391Y-136134045D01*
X128124597Y-136199587D01*
X127559185Y-136765000D01*
X125711504Y-136765000D01*
X124721346Y-135774843D01*
X124721346Y-135644126D01*
X124563777Y-135263720D01*
X124272626Y-134972569D01*
X123892220Y-134815000D01*
X123480472Y-134815000D01*
X123100066Y-134972569D01*
X122808915Y-135263720D01*
X122651346Y-135644126D01*
X112976368Y-135644126D01*
X112963777Y-135613730D01*
X112672626Y-135322579D01*
X112292220Y-135165010D01*
X111880472Y-135165010D01*
X111500066Y-135322579D01*
X111208915Y-135613730D01*
X111051346Y-135994136D01*
X51735000Y-135994136D01*
X51735000Y-134735000D01*
X188265000Y-134735000D01*
X188265001Y-143265000D01*
G36*
X51734999Y-123735000D02*
X99927612Y-123735000D01*
X100000000Y-123749399D01*
X100072388Y-123735000D01*
X100286783Y-123692354D01*
X100529905Y-123529905D01*
X100570909Y-123468537D01*
X103468537Y-120570909D01*
X103529904Y-120529905D01*
X103570908Y-120468538D01*
X103570909Y-120468537D01*
X103692354Y-120286782D01*
X103749398Y-120000000D01*
X103734999Y-119927611D01*
X103735000Y-118735000D01*
X104617887Y-118735000D01*
X104446954Y-118905933D01*
X104218200Y-119117391D01*
X104197931Y-119154956D01*
X104118913Y-119233974D01*
X103998695Y-119524207D01*
X103866578Y-119769062D01*
X103845958Y-119892944D01*
X103778654Y-120055431D01*
X103778654Y-120297305D01*
X103745000Y-120499496D01*
X103745278Y-120534916D01*
X103778654Y-120717665D01*
X103778654Y-120944569D01*
X103852775Y-121123513D01*
X103878314Y-121263350D01*
X104002691Y-121485441D01*
X104118913Y-121766026D01*
X104211902Y-121859015D01*
X104240129Y-121909418D01*
X104452691Y-122099804D01*
X104747628Y-122394741D01*
X105569085Y-122735000D01*
X106078210Y-122735000D01*
X106212214Y-122744488D01*
X106247998Y-122735000D01*
X106458223Y-122735000D01*
X106832145Y-122580116D01*
X106927965Y-122554710D01*
X106984208Y-122517130D01*
X107279680Y-122394741D01*
X107505823Y-122168598D01*
X107543654Y-122143320D01*
X107584106Y-122090315D01*
X107908395Y-121766026D01*
X108248654Y-120944569D01*
X108248654Y-120055431D01*
X107908395Y-119233974D01*
X107560825Y-118886404D01*
X107517643Y-118831628D01*
X107484920Y-118810499D01*
X107409421Y-118735000D01*
X132617887Y-118735000D01*
X132446954Y-118905933D01*
X132218200Y-119117391D01*
X132197931Y-119154956D01*
X132118913Y-119233974D01*
X131998695Y-119524207D01*
X131866578Y-119769062D01*
X131845958Y-119892944D01*
X131778654Y-120055431D01*
X131778654Y-120297305D01*
X131745000Y-120499496D01*
X131745278Y-120534916D01*
X131778654Y-120717665D01*
X131778654Y-120944569D01*
X131852775Y-121123513D01*
X131878314Y-121263350D01*
X132002691Y-121485441D01*
X132118913Y-121766026D01*
X132211902Y-121859015D01*
X132240129Y-121909418D01*
X132452691Y-122099804D01*
X132747628Y-122394741D01*
X133569085Y-122735000D01*
X134078210Y-122735000D01*
X134212214Y-122744488D01*
X134247998Y-122735000D01*
X134458223Y-122735000D01*
X134832145Y-122580116D01*
X134927965Y-122554710D01*
X134984208Y-122517130D01*
X135279680Y-122394741D01*
X135505823Y-122168598D01*
X135543654Y-122143320D01*
X135584106Y-122090315D01*
X135908395Y-121766026D01*
X136248654Y-120944569D01*
X136248654Y-120055431D01*
X135908395Y-119233974D01*
X135560825Y-118886404D01*
X135517643Y-118831628D01*
X135484920Y-118810499D01*
X135409421Y-118735000D01*
X136265000Y-118735000D01*
X136265000Y-119927612D01*
X136250601Y-120000000D01*
X136307646Y-120286782D01*
X136307646Y-120286783D01*
X136470095Y-120529905D01*
X136531462Y-120570909D01*
X139429089Y-123468535D01*
X139470095Y-123529905D01*
X139713217Y-123692354D01*
X139927612Y-123735000D01*
X139927616Y-123735000D01*
X140000000Y-123749398D01*
X140072384Y-123735000D01*
X188265000Y-123735000D01*
X188265000Y-128306554D01*
X185924334Y-128306554D01*
X185924334Y-127894806D01*
X185766765Y-127514400D01*
X185475614Y-127223249D01*
X185095208Y-127065680D01*
X184683460Y-127065680D01*
X184660226Y-127075304D01*
X184586342Y-127090000D01*
X181267363Y-127090000D01*
X181174932Y-126997569D01*
X180794526Y-126840000D01*
X180382778Y-126840000D01*
X180002372Y-126997569D01*
X179711221Y-127288720D01*
X179553652Y-127669126D01*
X179553652Y-128080874D01*
X179711221Y-128461280D01*
X179780815Y-128530874D01*
X150298654Y-128530874D01*
X150298654Y-128119126D01*
X150141085Y-127738720D01*
X149849934Y-127447569D01*
X149469528Y-127290000D01*
X149057780Y-127290000D01*
X148677374Y-127447569D01*
X148584943Y-127540000D01*
X146440976Y-127540000D01*
X146363664Y-127524622D01*
X146286352Y-127540000D01*
X146286348Y-127540000D01*
X146057372Y-127585546D01*
X145797711Y-127759047D01*
X145753915Y-127824592D01*
X145438497Y-128140010D01*
X145307780Y-128140010D01*
X144927374Y-128297579D01*
X144636223Y-128588730D01*
X144478654Y-128969136D01*
X144478654Y-129255874D01*
X139048654Y-129255874D01*
X139048654Y-128844126D01*
X138891085Y-128463720D01*
X138798654Y-128371289D01*
X138798653Y-126778722D01*
X138891085Y-126686290D01*
X139048654Y-126305884D01*
X139048654Y-125894136D01*
X138891085Y-125513730D01*
X138599934Y-125222579D01*
X138219528Y-125065010D01*
X137807780Y-125065010D01*
X137427374Y-125222579D01*
X137136223Y-125513730D01*
X136978654Y-125894136D01*
X136978654Y-126305884D01*
X137136223Y-126686290D01*
X137228654Y-126778721D01*
X137228654Y-128371289D01*
X137136223Y-128463720D01*
X136978654Y-128844126D01*
X136978654Y-129255874D01*
X137136223Y-129636280D01*
X137427374Y-129927431D01*
X137807780Y-130085000D01*
X138219528Y-130085000D01*
X138599934Y-129927431D01*
X138891085Y-129636280D01*
X139048654Y-129255874D01*
X144478654Y-129255874D01*
X144478654Y-129380884D01*
X144636223Y-129761290D01*
X144927374Y-130052441D01*
X145307780Y-130210010D01*
X145719528Y-130210010D01*
X146099934Y-130052441D01*
X146391085Y-129761290D01*
X146548654Y-129380884D01*
X146548654Y-129250167D01*
X146688821Y-129110000D01*
X148584943Y-129110000D01*
X148677374Y-129202431D01*
X149057780Y-129360000D01*
X149469528Y-129360000D01*
X149849934Y-129202431D01*
X150141085Y-128911280D01*
X150298654Y-128530874D01*
X179780815Y-128530874D01*
X180002372Y-128752431D01*
X180382778Y-128910000D01*
X180794526Y-128910000D01*
X181174932Y-128752431D01*
X181267363Y-128660000D01*
X184000736Y-128660000D01*
X184011903Y-128686960D01*
X184303054Y-128978111D01*
X184683460Y-129135680D01*
X185095208Y-129135680D01*
X185475614Y-128978111D01*
X185766765Y-128686960D01*
X185924334Y-128306554D01*
X188265000Y-128306554D01*
X188265000Y-131005864D01*
X128948654Y-131005864D01*
X128948654Y-130594116D01*
X128791085Y-130213710D01*
X128698653Y-130121278D01*
X128698654Y-122728711D01*
X128791085Y-122636280D01*
X128948654Y-122255874D01*
X128948654Y-121844126D01*
X128791085Y-121463720D01*
X128499934Y-121172569D01*
X128119528Y-121015000D01*
X127707780Y-121015000D01*
X127327374Y-121172569D01*
X127036223Y-121463720D01*
X126878654Y-121844126D01*
X126878654Y-122255874D01*
X127036223Y-122636280D01*
X127128654Y-122728711D01*
X127128654Y-130121279D01*
X127036223Y-130213710D01*
X126878654Y-130594116D01*
X126878654Y-131005864D01*
X127023632Y-131355874D01*
X117348654Y-131355874D01*
X117348654Y-130944126D01*
X117191085Y-130563720D01*
X116899934Y-130272569D01*
X116519528Y-130115000D01*
X116388811Y-130115000D01*
X115223401Y-128949589D01*
X115179607Y-128884047D01*
X115114065Y-128840253D01*
X115114063Y-128840251D01*
X114993959Y-128760000D01*
X114919946Y-128710546D01*
X114690970Y-128665000D01*
X114690967Y-128665000D01*
X114613655Y-128649622D01*
X114536343Y-128665000D01*
X112192970Y-128665000D01*
X112115658Y-128649622D01*
X112038346Y-128665000D01*
X112038342Y-128665000D01*
X111809366Y-128710546D01*
X111549705Y-128884047D01*
X111505909Y-128949592D01*
X110940498Y-129515002D01*
X107538796Y-129515002D01*
X107423398Y-129399603D01*
X107048648Y-129024853D01*
X107048648Y-128894136D01*
X106891079Y-128513730D01*
X106798648Y-128421299D01*
X106798647Y-126810549D01*
X106822906Y-126786290D01*
X106980475Y-126405884D01*
X106980475Y-125994136D01*
X106822906Y-125613730D01*
X106531755Y-125322579D01*
X106151349Y-125165010D01*
X105739601Y-125165010D01*
X105359195Y-125322579D01*
X105068044Y-125613730D01*
X104910475Y-125994136D01*
X104910475Y-126405884D01*
X105068044Y-126786290D01*
X105228648Y-126946894D01*
X105228648Y-127930874D01*
X95473654Y-127930874D01*
X95473654Y-127519126D01*
X95316085Y-127138720D01*
X95024934Y-126847569D01*
X94644528Y-126690000D01*
X94232780Y-126690000D01*
X93852374Y-126847569D01*
X93609943Y-127090000D01*
X91442365Y-127090000D01*
X91349934Y-126997569D01*
X90969528Y-126840000D01*
X90557780Y-126840000D01*
X90177374Y-126997569D01*
X89886223Y-127288720D01*
X89728654Y-127669126D01*
X89728654Y-128080874D01*
X59473654Y-128080874D01*
X59473654Y-127669126D01*
X59316085Y-127288720D01*
X59024934Y-126997569D01*
X58644528Y-126840000D01*
X58232780Y-126840000D01*
X57852374Y-126997569D01*
X57561223Y-127288720D01*
X57403654Y-127669126D01*
X57403654Y-127799843D01*
X57338497Y-127865000D01*
X55417365Y-127865000D01*
X55324934Y-127772569D01*
X54944528Y-127615000D01*
X54532780Y-127615000D01*
X54152374Y-127772569D01*
X53861223Y-128063720D01*
X53703654Y-128444126D01*
X53703654Y-128855874D01*
X53861223Y-129236280D01*
X54152374Y-129527431D01*
X54532780Y-129685000D01*
X54944528Y-129685000D01*
X55324934Y-129527431D01*
X55417365Y-129435000D01*
X57586342Y-129435000D01*
X57663654Y-129450378D01*
X57740966Y-129435000D01*
X57740970Y-129435000D01*
X57969946Y-129389454D01*
X58229607Y-129215953D01*
X58273403Y-129150408D01*
X58513811Y-128910000D01*
X58644528Y-128910000D01*
X59024934Y-128752431D01*
X59316085Y-128461280D01*
X59473654Y-128080874D01*
X89728654Y-128080874D01*
X89886223Y-128461280D01*
X90177374Y-128752431D01*
X90557780Y-128910000D01*
X90969528Y-128910000D01*
X91349934Y-128752431D01*
X91442365Y-128660000D01*
X93991358Y-128660000D01*
X94232780Y-128760000D01*
X94644528Y-128760000D01*
X95024934Y-128602431D01*
X95316085Y-128311280D01*
X95473654Y-127930874D01*
X105228648Y-127930874D01*
X105228648Y-128421299D01*
X105136217Y-128513730D01*
X104978648Y-128894136D01*
X104978648Y-129305884D01*
X105136217Y-129686290D01*
X105427368Y-129977441D01*
X105807774Y-130135010D01*
X105938491Y-130135010D01*
X106603890Y-130800409D01*
X106647687Y-130865955D01*
X106907348Y-131039456D01*
X107136324Y-131085002D01*
X107136328Y-131085002D01*
X107213640Y-131100380D01*
X107290952Y-131085002D01*
X111188346Y-131085002D01*
X111265657Y-131100380D01*
X111342968Y-131085002D01*
X111342972Y-131085002D01*
X111571948Y-131039456D01*
X111571950Y-131039455D01*
X111571949Y-131039455D01*
X111766065Y-130909751D01*
X111766067Y-130909749D01*
X111831609Y-130865955D01*
X111875403Y-130800413D01*
X112440815Y-130235000D01*
X114288496Y-130235000D01*
X115278654Y-131225157D01*
X115278654Y-131355874D01*
X115436223Y-131736280D01*
X115727374Y-132027431D01*
X116107780Y-132185000D01*
X116519528Y-132185000D01*
X116899934Y-132027431D01*
X117191085Y-131736280D01*
X117348654Y-131355874D01*
X127023632Y-131355874D01*
X127036223Y-131386270D01*
X127327374Y-131677421D01*
X127707780Y-131834990D01*
X128119528Y-131834990D01*
X128499934Y-131677421D01*
X128791085Y-131386270D01*
X128948654Y-131005864D01*
X188265000Y-131005864D01*
X188265000Y-132265000D01*
X51735000Y-132265000D01*
X51734999Y-123735000D01*
X51734999Y-123735000D01*
G37*
X51734999Y-123735000D02*
X99927612Y-123735000D01*
X100000000Y-123749399D01*
X100072388Y-123735000D01*
X100286783Y-123692354D01*
X100529905Y-123529905D01*
X100570909Y-123468537D01*
X103468537Y-120570909D01*
X103529904Y-120529905D01*
X103570908Y-120468538D01*
X103570909Y-120468537D01*
X103692354Y-120286782D01*
X103749398Y-120000000D01*
X103734999Y-119927611D01*
X103735000Y-118735000D01*
X104617887Y-118735000D01*
X104446954Y-118905933D01*
X104218200Y-119117391D01*
X104197931Y-119154956D01*
X104118913Y-119233974D01*
X103998695Y-119524207D01*
X103866578Y-119769062D01*
X103845958Y-119892944D01*
X103778654Y-120055431D01*
X103778654Y-120297305D01*
X103745000Y-120499496D01*
X103745278Y-120534916D01*
X103778654Y-120717665D01*
X103778654Y-120944569D01*
X103852775Y-121123513D01*
X103878314Y-121263350D01*
X104002691Y-121485441D01*
X104118913Y-121766026D01*
X104211902Y-121859015D01*
X104240129Y-121909418D01*
X104452691Y-122099804D01*
X104747628Y-122394741D01*
X105569085Y-122735000D01*
X106078210Y-122735000D01*
X106212214Y-122744488D01*
X106247998Y-122735000D01*
X106458223Y-122735000D01*
X106832145Y-122580116D01*
X106927965Y-122554710D01*
X106984208Y-122517130D01*
X107279680Y-122394741D01*
X107505823Y-122168598D01*
X107543654Y-122143320D01*
X107584106Y-122090315D01*
X107908395Y-121766026D01*
X108248654Y-120944569D01*
X108248654Y-120055431D01*
X107908395Y-119233974D01*
X107560825Y-118886404D01*
X107517643Y-118831628D01*
X107484920Y-118810499D01*
X107409421Y-118735000D01*
X132617887Y-118735000D01*
X132446954Y-118905933D01*
X132218200Y-119117391D01*
X132197931Y-119154956D01*
X132118913Y-119233974D01*
X131998695Y-119524207D01*
X131866578Y-119769062D01*
X131845958Y-119892944D01*
X131778654Y-120055431D01*
X131778654Y-120297305D01*
X131745000Y-120499496D01*
X131745278Y-120534916D01*
X131778654Y-120717665D01*
X131778654Y-120944569D01*
X131852775Y-121123513D01*
X131878314Y-121263350D01*
X132002691Y-121485441D01*
X132118913Y-121766026D01*
X132211902Y-121859015D01*
X132240129Y-121909418D01*
X132452691Y-122099804D01*
X132747628Y-122394741D01*
X133569085Y-122735000D01*
X134078210Y-122735000D01*
X134212214Y-122744488D01*
X134247998Y-122735000D01*
X134458223Y-122735000D01*
X134832145Y-122580116D01*
X134927965Y-122554710D01*
X134984208Y-122517130D01*
X135279680Y-122394741D01*
X135505823Y-122168598D01*
X135543654Y-122143320D01*
X135584106Y-122090315D01*
X135908395Y-121766026D01*
X136248654Y-120944569D01*
X136248654Y-120055431D01*
X135908395Y-119233974D01*
X135560825Y-118886404D01*
X135517643Y-118831628D01*
X135484920Y-118810499D01*
X135409421Y-118735000D01*
X136265000Y-118735000D01*
X136265000Y-119927612D01*
X136250601Y-120000000D01*
X136307646Y-120286782D01*
X136307646Y-120286783D01*
X136470095Y-120529905D01*
X136531462Y-120570909D01*
X139429089Y-123468535D01*
X139470095Y-123529905D01*
X139713217Y-123692354D01*
X139927612Y-123735000D01*
X139927616Y-123735000D01*
X140000000Y-123749398D01*
X140072384Y-123735000D01*
X188265000Y-123735000D01*
X188265000Y-128306554D01*
X185924334Y-128306554D01*
X185924334Y-127894806D01*
X185766765Y-127514400D01*
X185475614Y-127223249D01*
X185095208Y-127065680D01*
X184683460Y-127065680D01*
X184660226Y-127075304D01*
X184586342Y-127090000D01*
X181267363Y-127090000D01*
X181174932Y-126997569D01*
X180794526Y-126840000D01*
X180382778Y-126840000D01*
X180002372Y-126997569D01*
X179711221Y-127288720D01*
X179553652Y-127669126D01*
X179553652Y-128080874D01*
X179711221Y-128461280D01*
X179780815Y-128530874D01*
X150298654Y-128530874D01*
X150298654Y-128119126D01*
X150141085Y-127738720D01*
X149849934Y-127447569D01*
X149469528Y-127290000D01*
X149057780Y-127290000D01*
X148677374Y-127447569D01*
X148584943Y-127540000D01*
X146440976Y-127540000D01*
X146363664Y-127524622D01*
X146286352Y-127540000D01*
X146286348Y-127540000D01*
X146057372Y-127585546D01*
X145797711Y-127759047D01*
X145753915Y-127824592D01*
X145438497Y-128140010D01*
X145307780Y-128140010D01*
X144927374Y-128297579D01*
X144636223Y-128588730D01*
X144478654Y-128969136D01*
X144478654Y-129255874D01*
X139048654Y-129255874D01*
X139048654Y-128844126D01*
X138891085Y-128463720D01*
X138798654Y-128371289D01*
X138798653Y-126778722D01*
X138891085Y-126686290D01*
X139048654Y-126305884D01*
X139048654Y-125894136D01*
X138891085Y-125513730D01*
X138599934Y-125222579D01*
X138219528Y-125065010D01*
X137807780Y-125065010D01*
X137427374Y-125222579D01*
X137136223Y-125513730D01*
X136978654Y-125894136D01*
X136978654Y-126305884D01*
X137136223Y-126686290D01*
X137228654Y-126778721D01*
X137228654Y-128371289D01*
X137136223Y-128463720D01*
X136978654Y-128844126D01*
X136978654Y-129255874D01*
X137136223Y-129636280D01*
X137427374Y-129927431D01*
X137807780Y-130085000D01*
X138219528Y-130085000D01*
X138599934Y-129927431D01*
X138891085Y-129636280D01*
X139048654Y-129255874D01*
X144478654Y-129255874D01*
X144478654Y-129380884D01*
X144636223Y-129761290D01*
X144927374Y-130052441D01*
X145307780Y-130210010D01*
X145719528Y-130210010D01*
X146099934Y-130052441D01*
X146391085Y-129761290D01*
X146548654Y-129380884D01*
X146548654Y-129250167D01*
X146688821Y-129110000D01*
X148584943Y-129110000D01*
X148677374Y-129202431D01*
X149057780Y-129360000D01*
X149469528Y-129360000D01*
X149849934Y-129202431D01*
X150141085Y-128911280D01*
X150298654Y-128530874D01*
X179780815Y-128530874D01*
X180002372Y-128752431D01*
X180382778Y-128910000D01*
X180794526Y-128910000D01*
X181174932Y-128752431D01*
X181267363Y-128660000D01*
X184000736Y-128660000D01*
X184011903Y-128686960D01*
X184303054Y-128978111D01*
X184683460Y-129135680D01*
X185095208Y-129135680D01*
X185475614Y-128978111D01*
X185766765Y-128686960D01*
X185924334Y-128306554D01*
X188265000Y-128306554D01*
X188265000Y-131005864D01*
X128948654Y-131005864D01*
X128948654Y-130594116D01*
X128791085Y-130213710D01*
X128698653Y-130121278D01*
X128698654Y-122728711D01*
X128791085Y-122636280D01*
X128948654Y-122255874D01*
X128948654Y-121844126D01*
X128791085Y-121463720D01*
X128499934Y-121172569D01*
X128119528Y-121015000D01*
X127707780Y-121015000D01*
X127327374Y-121172569D01*
X127036223Y-121463720D01*
X126878654Y-121844126D01*
X126878654Y-122255874D01*
X127036223Y-122636280D01*
X127128654Y-122728711D01*
X127128654Y-130121279D01*
X127036223Y-130213710D01*
X126878654Y-130594116D01*
X126878654Y-131005864D01*
X127023632Y-131355874D01*
X117348654Y-131355874D01*
X117348654Y-130944126D01*
X117191085Y-130563720D01*
X116899934Y-130272569D01*
X116519528Y-130115000D01*
X116388811Y-130115000D01*
X115223401Y-128949589D01*
X115179607Y-128884047D01*
X115114065Y-128840253D01*
X115114063Y-128840251D01*
X114993959Y-128760000D01*
X114919946Y-128710546D01*
X114690970Y-128665000D01*
X114690967Y-128665000D01*
X114613655Y-128649622D01*
X114536343Y-128665000D01*
X112192970Y-128665000D01*
X112115658Y-128649622D01*
X112038346Y-128665000D01*
X112038342Y-128665000D01*
X111809366Y-128710546D01*
X111549705Y-128884047D01*
X111505909Y-128949592D01*
X110940498Y-129515002D01*
X107538796Y-129515002D01*
X107423398Y-129399603D01*
X107048648Y-129024853D01*
X107048648Y-128894136D01*
X106891079Y-128513730D01*
X106798648Y-128421299D01*
X106798647Y-126810549D01*
X106822906Y-126786290D01*
X106980475Y-126405884D01*
X106980475Y-125994136D01*
X106822906Y-125613730D01*
X106531755Y-125322579D01*
X106151349Y-125165010D01*
X105739601Y-125165010D01*
X105359195Y-125322579D01*
X105068044Y-125613730D01*
X104910475Y-125994136D01*
X104910475Y-126405884D01*
X105068044Y-126786290D01*
X105228648Y-126946894D01*
X105228648Y-127930874D01*
X95473654Y-127930874D01*
X95473654Y-127519126D01*
X95316085Y-127138720D01*
X95024934Y-126847569D01*
X94644528Y-126690000D01*
X94232780Y-126690000D01*
X93852374Y-126847569D01*
X93609943Y-127090000D01*
X91442365Y-127090000D01*
X91349934Y-126997569D01*
X90969528Y-126840000D01*
X90557780Y-126840000D01*
X90177374Y-126997569D01*
X89886223Y-127288720D01*
X89728654Y-127669126D01*
X89728654Y-128080874D01*
X59473654Y-128080874D01*
X59473654Y-127669126D01*
X59316085Y-127288720D01*
X59024934Y-126997569D01*
X58644528Y-126840000D01*
X58232780Y-126840000D01*
X57852374Y-126997569D01*
X57561223Y-127288720D01*
X57403654Y-127669126D01*
X57403654Y-127799843D01*
X57338497Y-127865000D01*
X55417365Y-127865000D01*
X55324934Y-127772569D01*
X54944528Y-127615000D01*
X54532780Y-127615000D01*
X54152374Y-127772569D01*
X53861223Y-128063720D01*
X53703654Y-128444126D01*
X53703654Y-128855874D01*
X53861223Y-129236280D01*
X54152374Y-129527431D01*
X54532780Y-129685000D01*
X54944528Y-129685000D01*
X55324934Y-129527431D01*
X55417365Y-129435000D01*
X57586342Y-129435000D01*
X57663654Y-129450378D01*
X57740966Y-129435000D01*
X57740970Y-129435000D01*
X57969946Y-129389454D01*
X58229607Y-129215953D01*
X58273403Y-129150408D01*
X58513811Y-128910000D01*
X58644528Y-128910000D01*
X59024934Y-128752431D01*
X59316085Y-128461280D01*
X59473654Y-128080874D01*
X89728654Y-128080874D01*
X89886223Y-128461280D01*
X90177374Y-128752431D01*
X90557780Y-128910000D01*
X90969528Y-128910000D01*
X91349934Y-128752431D01*
X91442365Y-128660000D01*
X93991358Y-128660000D01*
X94232780Y-128760000D01*
X94644528Y-128760000D01*
X95024934Y-128602431D01*
X95316085Y-128311280D01*
X95473654Y-127930874D01*
X105228648Y-127930874D01*
X105228648Y-128421299D01*
X105136217Y-128513730D01*
X104978648Y-128894136D01*
X104978648Y-129305884D01*
X105136217Y-129686290D01*
X105427368Y-129977441D01*
X105807774Y-130135010D01*
X105938491Y-130135010D01*
X106603890Y-130800409D01*
X106647687Y-130865955D01*
X106907348Y-131039456D01*
X107136324Y-131085002D01*
X107136328Y-131085002D01*
X107213640Y-131100380D01*
X107290952Y-131085002D01*
X111188346Y-131085002D01*
X111265657Y-131100380D01*
X111342968Y-131085002D01*
X111342972Y-131085002D01*
X111571948Y-131039456D01*
X111571950Y-131039455D01*
X111571949Y-131039455D01*
X111766065Y-130909751D01*
X111766067Y-130909749D01*
X111831609Y-130865955D01*
X111875403Y-130800413D01*
X112440815Y-130235000D01*
X114288496Y-130235000D01*
X115278654Y-131225157D01*
X115278654Y-131355874D01*
X115436223Y-131736280D01*
X115727374Y-132027431D01*
X116107780Y-132185000D01*
X116519528Y-132185000D01*
X116899934Y-132027431D01*
X117191085Y-131736280D01*
X117348654Y-131355874D01*
X127023632Y-131355874D01*
X127036223Y-131386270D01*
X127327374Y-131677421D01*
X127707780Y-131834990D01*
X128119528Y-131834990D01*
X128499934Y-131677421D01*
X128791085Y-131386270D01*
X128948654Y-131005864D01*
X188265000Y-131005864D01*
X188265000Y-132265000D01*
X51735000Y-132265000D01*
X51734999Y-123735000D01*
G36*
X188265001Y-111265000D02*
X140072388Y-111265000D01*
X140000000Y-111250601D01*
X139927612Y-111265000D01*
X139713217Y-111307646D01*
X139470095Y-111470095D01*
X139429091Y-111531463D01*
X136531463Y-114429091D01*
X136470096Y-114470095D01*
X136429092Y-114531462D01*
X136429091Y-114531463D01*
X136307646Y-114713218D01*
X136250602Y-115000000D01*
X136265001Y-115072389D01*
X136265000Y-116265000D01*
X135382113Y-116265000D01*
X135553046Y-116094067D01*
X135781800Y-115882609D01*
X135802069Y-115845044D01*
X135881087Y-115766026D01*
X136001305Y-115475793D01*
X136133422Y-115230938D01*
X136154042Y-115107056D01*
X136221346Y-114944569D01*
X136221346Y-114702695D01*
X136255000Y-114500504D01*
X136254722Y-114465084D01*
X136221346Y-114282335D01*
X136221346Y-114055431D01*
X136147225Y-113876487D01*
X136121686Y-113736650D01*
X135997309Y-113514559D01*
X135881087Y-113233974D01*
X135788098Y-113140985D01*
X135759871Y-113090582D01*
X135547309Y-112900196D01*
X135252372Y-112605259D01*
X134430915Y-112265000D01*
X133921790Y-112265000D01*
X133787786Y-112255512D01*
X133752002Y-112265000D01*
X133541777Y-112265000D01*
X133167855Y-112419884D01*
X133072035Y-112445290D01*
X133015792Y-112482870D01*
X132720320Y-112605259D01*
X132494177Y-112831402D01*
X132456346Y-112856680D01*
X132415894Y-112909685D01*
X132091605Y-113233974D01*
X131751346Y-114055431D01*
X131751346Y-114944569D01*
X132091605Y-115766026D01*
X132439175Y-116113596D01*
X132482357Y-116168372D01*
X132515080Y-116189501D01*
X132590579Y-116265000D01*
X107382113Y-116265000D01*
X107553046Y-116094067D01*
X107781800Y-115882609D01*
X107802069Y-115845044D01*
X107881087Y-115766026D01*
X108001305Y-115475793D01*
X108133422Y-115230938D01*
X108154042Y-115107056D01*
X108221346Y-114944569D01*
X108221346Y-114702695D01*
X108255000Y-114500504D01*
X108254722Y-114465084D01*
X108221346Y-114282335D01*
X108221346Y-114055431D01*
X108147225Y-113876487D01*
X108121686Y-113736650D01*
X107997309Y-113514559D01*
X107881087Y-113233974D01*
X107788098Y-113140985D01*
X107759871Y-113090582D01*
X107547309Y-112900196D01*
X107252372Y-112605259D01*
X106430915Y-112265000D01*
X105921790Y-112265000D01*
X105787786Y-112255512D01*
X105752002Y-112265000D01*
X105541777Y-112265000D01*
X105167855Y-112419884D01*
X105072035Y-112445290D01*
X105015792Y-112482870D01*
X104720320Y-112605259D01*
X104494177Y-112831402D01*
X104456346Y-112856680D01*
X104415894Y-112909685D01*
X104091605Y-113233974D01*
X103751346Y-114055431D01*
X103751346Y-114944569D01*
X104091605Y-115766026D01*
X104439175Y-116113596D01*
X104482357Y-116168372D01*
X104515080Y-116189501D01*
X104590579Y-116265000D01*
X103735000Y-116265000D01*
X103735000Y-115072388D01*
X103749399Y-115000000D01*
X103692354Y-114713218D01*
X103692354Y-114713217D01*
X103529905Y-114470095D01*
X103468538Y-114429091D01*
X100570911Y-111531465D01*
X100529905Y-111470095D01*
X100286783Y-111307646D01*
X100072388Y-111265000D01*
X100072384Y-111265000D01*
X100000000Y-111250602D01*
X99927616Y-111265000D01*
X51735000Y-111265000D01*
X51735000Y-106693446D01*
X54075666Y-106693446D01*
X54075666Y-107105194D01*
X54233235Y-107485600D01*
X54524386Y-107776751D01*
X54904792Y-107934320D01*
X55316540Y-107934320D01*
X55339774Y-107924696D01*
X55413658Y-107910000D01*
X58732637Y-107910000D01*
X58825068Y-108002431D01*
X59205474Y-108160000D01*
X59617222Y-108160000D01*
X59997628Y-108002431D01*
X60288779Y-107711280D01*
X60446348Y-107330874D01*
X60446348Y-106919126D01*
X60288779Y-106538720D01*
X60219185Y-106469126D01*
X89701346Y-106469126D01*
X89701346Y-106880874D01*
X89858915Y-107261280D01*
X90150066Y-107552431D01*
X90530472Y-107710000D01*
X90942220Y-107710000D01*
X91322626Y-107552431D01*
X91415057Y-107460000D01*
X93559024Y-107460000D01*
X93636336Y-107475378D01*
X93713648Y-107460000D01*
X93713652Y-107460000D01*
X93942628Y-107414454D01*
X94202289Y-107240953D01*
X94246085Y-107175408D01*
X94561503Y-106859990D01*
X94692220Y-106859990D01*
X95072626Y-106702421D01*
X95363777Y-106411270D01*
X95521346Y-106030864D01*
X95521346Y-105744126D01*
X100951346Y-105744126D01*
X100951346Y-106155874D01*
X101108915Y-106536280D01*
X101201346Y-106628711D01*
X101201347Y-108221278D01*
X101108915Y-108313710D01*
X100951346Y-108694116D01*
X100951346Y-109105864D01*
X101108915Y-109486270D01*
X101400066Y-109777421D01*
X101780472Y-109934990D01*
X102192220Y-109934990D01*
X102572626Y-109777421D01*
X102863777Y-109486270D01*
X103021346Y-109105864D01*
X103021346Y-108694116D01*
X102863777Y-108313710D01*
X102771346Y-108221279D01*
X102771346Y-106628711D01*
X102863777Y-106536280D01*
X103021346Y-106155874D01*
X103021346Y-105744126D01*
X102863777Y-105363720D01*
X102572626Y-105072569D01*
X102192220Y-104915000D01*
X101780472Y-104915000D01*
X101400066Y-105072569D01*
X101108915Y-105363720D01*
X100951346Y-105744126D01*
X95521346Y-105744126D01*
X95521346Y-105619116D01*
X95363777Y-105238710D01*
X95072626Y-104947559D01*
X94692220Y-104789990D01*
X94280472Y-104789990D01*
X93900066Y-104947559D01*
X93608915Y-105238710D01*
X93451346Y-105619116D01*
X93451346Y-105749833D01*
X93311179Y-105890000D01*
X91415057Y-105890000D01*
X91322626Y-105797569D01*
X90942220Y-105640000D01*
X90530472Y-105640000D01*
X90150066Y-105797569D01*
X89858915Y-106088720D01*
X89701346Y-106469126D01*
X60219185Y-106469126D01*
X59997628Y-106247569D01*
X59617222Y-106090000D01*
X59205474Y-106090000D01*
X58825068Y-106247569D01*
X58732637Y-106340000D01*
X55999264Y-106340000D01*
X55988097Y-106313040D01*
X55696946Y-106021889D01*
X55316540Y-105864320D01*
X54904792Y-105864320D01*
X54524386Y-106021889D01*
X54233235Y-106313040D01*
X54075666Y-106693446D01*
X51735000Y-106693446D01*
X51735000Y-103994136D01*
X111051346Y-103994136D01*
X111051346Y-104405884D01*
X111208915Y-104786290D01*
X111301347Y-104878722D01*
X111301346Y-112271289D01*
X111208915Y-112363720D01*
X111051346Y-112744126D01*
X111051346Y-113155874D01*
X111208915Y-113536280D01*
X111500066Y-113827431D01*
X111880472Y-113985000D01*
X112292220Y-113985000D01*
X112672626Y-113827431D01*
X112963777Y-113536280D01*
X113121346Y-113155874D01*
X113121346Y-112744126D01*
X112963777Y-112363720D01*
X112871346Y-112271289D01*
X112871346Y-104878721D01*
X112963777Y-104786290D01*
X113121346Y-104405884D01*
X113121346Y-103994136D01*
X112976368Y-103644126D01*
X122651346Y-103644126D01*
X122651346Y-104055874D01*
X122808915Y-104436280D01*
X123100066Y-104727431D01*
X123480472Y-104885000D01*
X123611189Y-104885000D01*
X124776599Y-106050411D01*
X124820393Y-106115953D01*
X124885935Y-106159747D01*
X124885937Y-106159749D01*
X125006041Y-106240000D01*
X125080054Y-106289454D01*
X125309030Y-106335000D01*
X125309033Y-106335000D01*
X125386345Y-106350378D01*
X125463657Y-106335000D01*
X127807030Y-106335000D01*
X127884342Y-106350378D01*
X127961654Y-106335000D01*
X127961658Y-106335000D01*
X128190634Y-106289454D01*
X128450295Y-106115953D01*
X128494091Y-106050408D01*
X129059502Y-105484998D01*
X132461204Y-105484998D01*
X132576602Y-105600397D01*
X132951352Y-105975147D01*
X132951352Y-106105864D01*
X133108921Y-106486270D01*
X133201352Y-106578701D01*
X133201353Y-108189451D01*
X133177094Y-108213710D01*
X133019525Y-108594116D01*
X133019525Y-109005864D01*
X133177094Y-109386270D01*
X133468245Y-109677421D01*
X133848651Y-109834990D01*
X134260399Y-109834990D01*
X134640805Y-109677421D01*
X134931956Y-109386270D01*
X135089525Y-109005864D01*
X135089525Y-108594116D01*
X134931956Y-108213710D01*
X134771352Y-108053106D01*
X134771352Y-107069126D01*
X144526346Y-107069126D01*
X144526346Y-107480874D01*
X144683915Y-107861280D01*
X144975066Y-108152431D01*
X145355472Y-108310000D01*
X145767220Y-108310000D01*
X146147626Y-108152431D01*
X146390057Y-107910000D01*
X148557635Y-107910000D01*
X148650066Y-108002431D01*
X149030472Y-108160000D01*
X149442220Y-108160000D01*
X149822626Y-108002431D01*
X150113777Y-107711280D01*
X150271346Y-107330874D01*
X150271346Y-106919126D01*
X180526346Y-106919126D01*
X180526346Y-107330874D01*
X180683915Y-107711280D01*
X180975066Y-108002431D01*
X181355472Y-108160000D01*
X181767220Y-108160000D01*
X182147626Y-108002431D01*
X182438777Y-107711280D01*
X182596346Y-107330874D01*
X182596346Y-107200157D01*
X182661503Y-107135000D01*
X184582635Y-107135000D01*
X184675066Y-107227431D01*
X185055472Y-107385000D01*
X185467220Y-107385000D01*
X185847626Y-107227431D01*
X186138777Y-106936280D01*
X186296346Y-106555874D01*
X186296346Y-106144126D01*
X186138777Y-105763720D01*
X185847626Y-105472569D01*
X185467220Y-105315000D01*
X185055472Y-105315000D01*
X184675066Y-105472569D01*
X184582635Y-105565000D01*
X182413658Y-105565000D01*
X182336346Y-105549622D01*
X182259034Y-105565000D01*
X182259030Y-105565000D01*
X182030054Y-105610546D01*
X181770393Y-105784047D01*
X181726597Y-105849592D01*
X181486189Y-106090000D01*
X181355472Y-106090000D01*
X180975066Y-106247569D01*
X180683915Y-106538720D01*
X180526346Y-106919126D01*
X150271346Y-106919126D01*
X150113777Y-106538720D01*
X149822626Y-106247569D01*
X149442220Y-106090000D01*
X149030472Y-106090000D01*
X148650066Y-106247569D01*
X148557635Y-106340000D01*
X146008642Y-106340000D01*
X145767220Y-106240000D01*
X145355472Y-106240000D01*
X144975066Y-106397569D01*
X144683915Y-106688720D01*
X144526346Y-107069126D01*
X134771352Y-107069126D01*
X134771352Y-106578701D01*
X134863783Y-106486270D01*
X135021352Y-106105864D01*
X135021352Y-105694116D01*
X134863783Y-105313710D01*
X134572632Y-105022559D01*
X134192226Y-104864990D01*
X134061509Y-104864990D01*
X133396110Y-104199591D01*
X133352313Y-104134045D01*
X133092652Y-103960544D01*
X132863676Y-103914998D01*
X132863672Y-103914998D01*
X132786360Y-103899620D01*
X132709048Y-103914998D01*
X128811654Y-103914998D01*
X128734343Y-103899620D01*
X128657032Y-103914998D01*
X128657028Y-103914998D01*
X128428052Y-103960544D01*
X128428050Y-103960545D01*
X128428051Y-103960545D01*
X128233935Y-104090249D01*
X128233933Y-104090251D01*
X128168391Y-104134045D01*
X128124597Y-104199587D01*
X127559185Y-104765000D01*
X125711504Y-104765000D01*
X124721346Y-103774843D01*
X124721346Y-103644126D01*
X124563777Y-103263720D01*
X124272626Y-102972569D01*
X123892220Y-102815000D01*
X123480472Y-102815000D01*
X123100066Y-102972569D01*
X122808915Y-103263720D01*
X122651346Y-103644126D01*
X112976368Y-103644126D01*
X112963777Y-103613730D01*
X112672626Y-103322579D01*
X112292220Y-103165010D01*
X111880472Y-103165010D01*
X111500066Y-103322579D01*
X111208915Y-103613730D01*
X111051346Y-103994136D01*
X51735000Y-103994136D01*
X51735000Y-102735000D01*
X188265000Y-102735000D01*
X188265001Y-111265000D01*
X188265001Y-111265000D01*
G37*
X188265001Y-111265000D02*
X140072388Y-111265000D01*
X140000000Y-111250601D01*
X139927612Y-111265000D01*
X139713217Y-111307646D01*
X139470095Y-111470095D01*
X139429091Y-111531463D01*
X136531463Y-114429091D01*
X136470096Y-114470095D01*
X136429092Y-114531462D01*
X136429091Y-114531463D01*
X136307646Y-114713218D01*
X136250602Y-115000000D01*
X136265001Y-115072389D01*
X136265000Y-116265000D01*
X135382113Y-116265000D01*
X135553046Y-116094067D01*
X135781800Y-115882609D01*
X135802069Y-115845044D01*
X135881087Y-115766026D01*
X136001305Y-115475793D01*
X136133422Y-115230938D01*
X136154042Y-115107056D01*
X136221346Y-114944569D01*
X136221346Y-114702695D01*
X136255000Y-114500504D01*
X136254722Y-114465084D01*
X136221346Y-114282335D01*
X136221346Y-114055431D01*
X136147225Y-113876487D01*
X136121686Y-113736650D01*
X135997309Y-113514559D01*
X135881087Y-113233974D01*
X135788098Y-113140985D01*
X135759871Y-113090582D01*
X135547309Y-112900196D01*
X135252372Y-112605259D01*
X134430915Y-112265000D01*
X133921790Y-112265000D01*
X133787786Y-112255512D01*
X133752002Y-112265000D01*
X133541777Y-112265000D01*
X133167855Y-112419884D01*
X133072035Y-112445290D01*
X133015792Y-112482870D01*
X132720320Y-112605259D01*
X132494177Y-112831402D01*
X132456346Y-112856680D01*
X132415894Y-112909685D01*
X132091605Y-113233974D01*
X131751346Y-114055431D01*
X131751346Y-114944569D01*
X132091605Y-115766026D01*
X132439175Y-116113596D01*
X132482357Y-116168372D01*
X132515080Y-116189501D01*
X132590579Y-116265000D01*
X107382113Y-116265000D01*
X107553046Y-116094067D01*
X107781800Y-115882609D01*
X107802069Y-115845044D01*
X107881087Y-115766026D01*
X108001305Y-115475793D01*
X108133422Y-115230938D01*
X108154042Y-115107056D01*
X108221346Y-114944569D01*
X108221346Y-114702695D01*
X108255000Y-114500504D01*
X108254722Y-114465084D01*
X108221346Y-114282335D01*
X108221346Y-114055431D01*
X108147225Y-113876487D01*
X108121686Y-113736650D01*
X107997309Y-113514559D01*
X107881087Y-113233974D01*
X107788098Y-113140985D01*
X107759871Y-113090582D01*
X107547309Y-112900196D01*
X107252372Y-112605259D01*
X106430915Y-112265000D01*
X105921790Y-112265000D01*
X105787786Y-112255512D01*
X105752002Y-112265000D01*
X105541777Y-112265000D01*
X105167855Y-112419884D01*
X105072035Y-112445290D01*
X105015792Y-112482870D01*
X104720320Y-112605259D01*
X104494177Y-112831402D01*
X104456346Y-112856680D01*
X104415894Y-112909685D01*
X104091605Y-113233974D01*
X103751346Y-114055431D01*
X103751346Y-114944569D01*
X104091605Y-115766026D01*
X104439175Y-116113596D01*
X104482357Y-116168372D01*
X104515080Y-116189501D01*
X104590579Y-116265000D01*
X103735000Y-116265000D01*
X103735000Y-115072388D01*
X103749399Y-115000000D01*
X103692354Y-114713218D01*
X103692354Y-114713217D01*
X103529905Y-114470095D01*
X103468538Y-114429091D01*
X100570911Y-111531465D01*
X100529905Y-111470095D01*
X100286783Y-111307646D01*
X100072388Y-111265000D01*
X100072384Y-111265000D01*
X100000000Y-111250602D01*
X99927616Y-111265000D01*
X51735000Y-111265000D01*
X51735000Y-106693446D01*
X54075666Y-106693446D01*
X54075666Y-107105194D01*
X54233235Y-107485600D01*
X54524386Y-107776751D01*
X54904792Y-107934320D01*
X55316540Y-107934320D01*
X55339774Y-107924696D01*
X55413658Y-107910000D01*
X58732637Y-107910000D01*
X58825068Y-108002431D01*
X59205474Y-108160000D01*
X59617222Y-108160000D01*
X59997628Y-108002431D01*
X60288779Y-107711280D01*
X60446348Y-107330874D01*
X60446348Y-106919126D01*
X60288779Y-106538720D01*
X60219185Y-106469126D01*
X89701346Y-106469126D01*
X89701346Y-106880874D01*
X89858915Y-107261280D01*
X90150066Y-107552431D01*
X90530472Y-107710000D01*
X90942220Y-107710000D01*
X91322626Y-107552431D01*
X91415057Y-107460000D01*
X93559024Y-107460000D01*
X93636336Y-107475378D01*
X93713648Y-107460000D01*
X93713652Y-107460000D01*
X93942628Y-107414454D01*
X94202289Y-107240953D01*
X94246085Y-107175408D01*
X94561503Y-106859990D01*
X94692220Y-106859990D01*
X95072626Y-106702421D01*
X95363777Y-106411270D01*
X95521346Y-106030864D01*
X95521346Y-105744126D01*
X100951346Y-105744126D01*
X100951346Y-106155874D01*
X101108915Y-106536280D01*
X101201346Y-106628711D01*
X101201347Y-108221278D01*
X101108915Y-108313710D01*
X100951346Y-108694116D01*
X100951346Y-109105864D01*
X101108915Y-109486270D01*
X101400066Y-109777421D01*
X101780472Y-109934990D01*
X102192220Y-109934990D01*
X102572626Y-109777421D01*
X102863777Y-109486270D01*
X103021346Y-109105864D01*
X103021346Y-108694116D01*
X102863777Y-108313710D01*
X102771346Y-108221279D01*
X102771346Y-106628711D01*
X102863777Y-106536280D01*
X103021346Y-106155874D01*
X103021346Y-105744126D01*
X102863777Y-105363720D01*
X102572626Y-105072569D01*
X102192220Y-104915000D01*
X101780472Y-104915000D01*
X101400066Y-105072569D01*
X101108915Y-105363720D01*
X100951346Y-105744126D01*
X95521346Y-105744126D01*
X95521346Y-105619116D01*
X95363777Y-105238710D01*
X95072626Y-104947559D01*
X94692220Y-104789990D01*
X94280472Y-104789990D01*
X93900066Y-104947559D01*
X93608915Y-105238710D01*
X93451346Y-105619116D01*
X93451346Y-105749833D01*
X93311179Y-105890000D01*
X91415057Y-105890000D01*
X91322626Y-105797569D01*
X90942220Y-105640000D01*
X90530472Y-105640000D01*
X90150066Y-105797569D01*
X89858915Y-106088720D01*
X89701346Y-106469126D01*
X60219185Y-106469126D01*
X59997628Y-106247569D01*
X59617222Y-106090000D01*
X59205474Y-106090000D01*
X58825068Y-106247569D01*
X58732637Y-106340000D01*
X55999264Y-106340000D01*
X55988097Y-106313040D01*
X55696946Y-106021889D01*
X55316540Y-105864320D01*
X54904792Y-105864320D01*
X54524386Y-106021889D01*
X54233235Y-106313040D01*
X54075666Y-106693446D01*
X51735000Y-106693446D01*
X51735000Y-103994136D01*
X111051346Y-103994136D01*
X111051346Y-104405884D01*
X111208915Y-104786290D01*
X111301347Y-104878722D01*
X111301346Y-112271289D01*
X111208915Y-112363720D01*
X111051346Y-112744126D01*
X111051346Y-113155874D01*
X111208915Y-113536280D01*
X111500066Y-113827431D01*
X111880472Y-113985000D01*
X112292220Y-113985000D01*
X112672626Y-113827431D01*
X112963777Y-113536280D01*
X113121346Y-113155874D01*
X113121346Y-112744126D01*
X112963777Y-112363720D01*
X112871346Y-112271289D01*
X112871346Y-104878721D01*
X112963777Y-104786290D01*
X113121346Y-104405884D01*
X113121346Y-103994136D01*
X112976368Y-103644126D01*
X122651346Y-103644126D01*
X122651346Y-104055874D01*
X122808915Y-104436280D01*
X123100066Y-104727431D01*
X123480472Y-104885000D01*
X123611189Y-104885000D01*
X124776599Y-106050411D01*
X124820393Y-106115953D01*
X124885935Y-106159747D01*
X124885937Y-106159749D01*
X125006041Y-106240000D01*
X125080054Y-106289454D01*
X125309030Y-106335000D01*
X125309033Y-106335000D01*
X125386345Y-106350378D01*
X125463657Y-106335000D01*
X127807030Y-106335000D01*
X127884342Y-106350378D01*
X127961654Y-106335000D01*
X127961658Y-106335000D01*
X128190634Y-106289454D01*
X128450295Y-106115953D01*
X128494091Y-106050408D01*
X129059502Y-105484998D01*
X132461204Y-105484998D01*
X132576602Y-105600397D01*
X132951352Y-105975147D01*
X132951352Y-106105864D01*
X133108921Y-106486270D01*
X133201352Y-106578701D01*
X133201353Y-108189451D01*
X133177094Y-108213710D01*
X133019525Y-108594116D01*
X133019525Y-109005864D01*
X133177094Y-109386270D01*
X133468245Y-109677421D01*
X133848651Y-109834990D01*
X134260399Y-109834990D01*
X134640805Y-109677421D01*
X134931956Y-109386270D01*
X135089525Y-109005864D01*
X135089525Y-108594116D01*
X134931956Y-108213710D01*
X134771352Y-108053106D01*
X134771352Y-107069126D01*
X144526346Y-107069126D01*
X144526346Y-107480874D01*
X144683915Y-107861280D01*
X144975066Y-108152431D01*
X145355472Y-108310000D01*
X145767220Y-108310000D01*
X146147626Y-108152431D01*
X146390057Y-107910000D01*
X148557635Y-107910000D01*
X148650066Y-108002431D01*
X149030472Y-108160000D01*
X149442220Y-108160000D01*
X149822626Y-108002431D01*
X150113777Y-107711280D01*
X150271346Y-107330874D01*
X150271346Y-106919126D01*
X180526346Y-106919126D01*
X180526346Y-107330874D01*
X180683915Y-107711280D01*
X180975066Y-108002431D01*
X181355472Y-108160000D01*
X181767220Y-108160000D01*
X182147626Y-108002431D01*
X182438777Y-107711280D01*
X182596346Y-107330874D01*
X182596346Y-107200157D01*
X182661503Y-107135000D01*
X184582635Y-107135000D01*
X184675066Y-107227431D01*
X185055472Y-107385000D01*
X185467220Y-107385000D01*
X185847626Y-107227431D01*
X186138777Y-106936280D01*
X186296346Y-106555874D01*
X186296346Y-106144126D01*
X186138777Y-105763720D01*
X185847626Y-105472569D01*
X185467220Y-105315000D01*
X185055472Y-105315000D01*
X184675066Y-105472569D01*
X184582635Y-105565000D01*
X182413658Y-105565000D01*
X182336346Y-105549622D01*
X182259034Y-105565000D01*
X182259030Y-105565000D01*
X182030054Y-105610546D01*
X181770393Y-105784047D01*
X181726597Y-105849592D01*
X181486189Y-106090000D01*
X181355472Y-106090000D01*
X180975066Y-106247569D01*
X180683915Y-106538720D01*
X180526346Y-106919126D01*
X150271346Y-106919126D01*
X150113777Y-106538720D01*
X149822626Y-106247569D01*
X149442220Y-106090000D01*
X149030472Y-106090000D01*
X148650066Y-106247569D01*
X148557635Y-106340000D01*
X146008642Y-106340000D01*
X145767220Y-106240000D01*
X145355472Y-106240000D01*
X144975066Y-106397569D01*
X144683915Y-106688720D01*
X144526346Y-107069126D01*
X134771352Y-107069126D01*
X134771352Y-106578701D01*
X134863783Y-106486270D01*
X135021352Y-106105864D01*
X135021352Y-105694116D01*
X134863783Y-105313710D01*
X134572632Y-105022559D01*
X134192226Y-104864990D01*
X134061509Y-104864990D01*
X133396110Y-104199591D01*
X133352313Y-104134045D01*
X133092652Y-103960544D01*
X132863676Y-103914998D01*
X132863672Y-103914998D01*
X132786360Y-103899620D01*
X132709048Y-103914998D01*
X128811654Y-103914998D01*
X128734343Y-103899620D01*
X128657032Y-103914998D01*
X128657028Y-103914998D01*
X128428052Y-103960544D01*
X128428050Y-103960545D01*
X128428051Y-103960545D01*
X128233935Y-104090249D01*
X128233933Y-104090251D01*
X128168391Y-104134045D01*
X128124597Y-104199587D01*
X127559185Y-104765000D01*
X125711504Y-104765000D01*
X124721346Y-103774843D01*
X124721346Y-103644126D01*
X124563777Y-103263720D01*
X124272626Y-102972569D01*
X123892220Y-102815000D01*
X123480472Y-102815000D01*
X123100066Y-102972569D01*
X122808915Y-103263720D01*
X122651346Y-103644126D01*
X112976368Y-103644126D01*
X112963777Y-103613730D01*
X112672626Y-103322579D01*
X112292220Y-103165010D01*
X111880472Y-103165010D01*
X111500066Y-103322579D01*
X111208915Y-103613730D01*
X111051346Y-103994136D01*
X51735000Y-103994136D01*
X51735000Y-102735000D01*
X188265000Y-102735000D01*
X188265001Y-111265000D01*
G36*
X51734999Y-91735000D02*
X99927612Y-91735000D01*
X100000000Y-91749399D01*
X100072388Y-91735000D01*
X100286783Y-91692354D01*
X100529905Y-91529905D01*
X100570909Y-91468537D01*
X103468537Y-88570909D01*
X103529904Y-88529905D01*
X103570908Y-88468538D01*
X103570909Y-88468537D01*
X103692354Y-88286782D01*
X103749398Y-88000000D01*
X103734999Y-87927611D01*
X103735000Y-86735000D01*
X104617887Y-86735000D01*
X104446954Y-86905933D01*
X104218200Y-87117391D01*
X104197931Y-87154956D01*
X104118913Y-87233974D01*
X103998695Y-87524207D01*
X103866578Y-87769062D01*
X103845958Y-87892944D01*
X103778654Y-88055431D01*
X103778654Y-88297305D01*
X103745000Y-88499496D01*
X103745278Y-88534916D01*
X103778654Y-88717665D01*
X103778654Y-88944569D01*
X103852775Y-89123513D01*
X103878314Y-89263350D01*
X104002691Y-89485441D01*
X104118913Y-89766026D01*
X104211902Y-89859015D01*
X104240129Y-89909418D01*
X104452691Y-90099804D01*
X104747628Y-90394741D01*
X105569085Y-90735000D01*
X106078210Y-90735000D01*
X106212214Y-90744488D01*
X106247998Y-90735000D01*
X106458223Y-90735000D01*
X106832145Y-90580116D01*
X106927965Y-90554710D01*
X106984208Y-90517130D01*
X107279680Y-90394741D01*
X107505823Y-90168598D01*
X107543654Y-90143320D01*
X107584106Y-90090315D01*
X107908395Y-89766026D01*
X108248654Y-88944569D01*
X108248654Y-88055431D01*
X107908395Y-87233974D01*
X107560825Y-86886404D01*
X107517643Y-86831628D01*
X107484920Y-86810499D01*
X107409421Y-86735000D01*
X132617887Y-86735000D01*
X132446954Y-86905933D01*
X132218200Y-87117391D01*
X132197931Y-87154956D01*
X132118913Y-87233974D01*
X131998695Y-87524207D01*
X131866578Y-87769062D01*
X131845958Y-87892944D01*
X131778654Y-88055431D01*
X131778654Y-88297305D01*
X131745000Y-88499496D01*
X131745278Y-88534916D01*
X131778654Y-88717665D01*
X131778654Y-88944569D01*
X131852775Y-89123513D01*
X131878314Y-89263350D01*
X132002691Y-89485441D01*
X132118913Y-89766026D01*
X132211902Y-89859015D01*
X132240129Y-89909418D01*
X132452691Y-90099804D01*
X132747628Y-90394741D01*
X133569085Y-90735000D01*
X134078210Y-90735000D01*
X134212214Y-90744488D01*
X134247998Y-90735000D01*
X134458223Y-90735000D01*
X134832145Y-90580116D01*
X134927965Y-90554710D01*
X134984208Y-90517130D01*
X135279680Y-90394741D01*
X135505823Y-90168598D01*
X135543654Y-90143320D01*
X135584106Y-90090315D01*
X135908395Y-89766026D01*
X136248654Y-88944569D01*
X136248654Y-88055431D01*
X135908395Y-87233974D01*
X135560825Y-86886404D01*
X135517643Y-86831628D01*
X135484920Y-86810499D01*
X135409421Y-86735000D01*
X136265000Y-86735000D01*
X136265000Y-87927612D01*
X136250601Y-88000000D01*
X136307646Y-88286782D01*
X136307646Y-88286783D01*
X136470095Y-88529905D01*
X136531462Y-88570909D01*
X139429089Y-91468535D01*
X139470095Y-91529905D01*
X139713217Y-91692354D01*
X139927612Y-91735000D01*
X139927616Y-91735000D01*
X140000000Y-91749398D01*
X140072384Y-91735000D01*
X188265000Y-91735000D01*
X188265000Y-96306554D01*
X185924334Y-96306554D01*
X185924334Y-95894806D01*
X185766765Y-95514400D01*
X185475614Y-95223249D01*
X185095208Y-95065680D01*
X184683460Y-95065680D01*
X184660226Y-95075304D01*
X184586342Y-95090000D01*
X181267363Y-95090000D01*
X181174932Y-94997569D01*
X180794526Y-94840000D01*
X180382778Y-94840000D01*
X180002372Y-94997569D01*
X179711221Y-95288720D01*
X179553652Y-95669126D01*
X179553652Y-96080874D01*
X179711221Y-96461280D01*
X179780815Y-96530874D01*
X150298654Y-96530874D01*
X150298654Y-96119126D01*
X150141085Y-95738720D01*
X149849934Y-95447569D01*
X149469528Y-95290000D01*
X149057780Y-95290000D01*
X148677374Y-95447569D01*
X148584943Y-95540000D01*
X146440976Y-95540000D01*
X146363664Y-95524622D01*
X146286352Y-95540000D01*
X146286348Y-95540000D01*
X146057372Y-95585546D01*
X145797711Y-95759047D01*
X145753915Y-95824592D01*
X145438497Y-96140010D01*
X145307780Y-96140010D01*
X144927374Y-96297579D01*
X144636223Y-96588730D01*
X144478654Y-96969136D01*
X144478654Y-97255874D01*
X139048654Y-97255874D01*
X139048654Y-96844126D01*
X138891085Y-96463720D01*
X138798654Y-96371289D01*
X138798653Y-94778722D01*
X138891085Y-94686290D01*
X139048654Y-94305884D01*
X139048654Y-93894136D01*
X138891085Y-93513730D01*
X138599934Y-93222579D01*
X138219528Y-93065010D01*
X137807780Y-93065010D01*
X137427374Y-93222579D01*
X137136223Y-93513730D01*
X136978654Y-93894136D01*
X136978654Y-94305884D01*
X137136223Y-94686290D01*
X137228654Y-94778721D01*
X137228654Y-96371289D01*
X137136223Y-96463720D01*
X136978654Y-96844126D01*
X136978654Y-97255874D01*
X137136223Y-97636280D01*
X137427374Y-97927431D01*
X137807780Y-98085000D01*
X138219528Y-98085000D01*
X138599934Y-97927431D01*
X138891085Y-97636280D01*
X139048654Y-97255874D01*
X144478654Y-97255874D01*
X144478654Y-97380884D01*
X144636223Y-97761290D01*
X144927374Y-98052441D01*
X145307780Y-98210010D01*
X145719528Y-98210010D01*
X146099934Y-98052441D01*
X146391085Y-97761290D01*
X146548654Y-97380884D01*
X146548654Y-97250167D01*
X146688821Y-97110000D01*
X148584943Y-97110000D01*
X148677374Y-97202431D01*
X149057780Y-97360000D01*
X149469528Y-97360000D01*
X149849934Y-97202431D01*
X150141085Y-96911280D01*
X150298654Y-96530874D01*
X179780815Y-96530874D01*
X180002372Y-96752431D01*
X180382778Y-96910000D01*
X180794526Y-96910000D01*
X181174932Y-96752431D01*
X181267363Y-96660000D01*
X184000736Y-96660000D01*
X184011903Y-96686960D01*
X184303054Y-96978111D01*
X184683460Y-97135680D01*
X185095208Y-97135680D01*
X185475614Y-96978111D01*
X185766765Y-96686960D01*
X185924334Y-96306554D01*
X188265000Y-96306554D01*
X188265000Y-99005864D01*
X128948654Y-99005864D01*
X128948654Y-98594116D01*
X128791085Y-98213710D01*
X128698653Y-98121278D01*
X128698654Y-90728711D01*
X128791085Y-90636280D01*
X128948654Y-90255874D01*
X128948654Y-89844126D01*
X128791085Y-89463720D01*
X128499934Y-89172569D01*
X128119528Y-89015000D01*
X127707780Y-89015000D01*
X127327374Y-89172569D01*
X127036223Y-89463720D01*
X126878654Y-89844126D01*
X126878654Y-90255874D01*
X127036223Y-90636280D01*
X127128654Y-90728711D01*
X127128654Y-98121279D01*
X127036223Y-98213710D01*
X126878654Y-98594116D01*
X126878654Y-99005864D01*
X127023632Y-99355874D01*
X117348654Y-99355874D01*
X117348654Y-98944126D01*
X117191085Y-98563720D01*
X116899934Y-98272569D01*
X116519528Y-98115000D01*
X116388811Y-98115000D01*
X115223401Y-96949589D01*
X115179607Y-96884047D01*
X115114065Y-96840253D01*
X115114063Y-96840251D01*
X114993959Y-96760000D01*
X114919946Y-96710546D01*
X114690970Y-96665000D01*
X114690967Y-96665000D01*
X114613655Y-96649622D01*
X114536343Y-96665000D01*
X112192970Y-96665000D01*
X112115658Y-96649622D01*
X112038346Y-96665000D01*
X112038342Y-96665000D01*
X111809366Y-96710546D01*
X111549705Y-96884047D01*
X111505909Y-96949592D01*
X110940498Y-97515002D01*
X107538796Y-97515002D01*
X107423398Y-97399603D01*
X107048648Y-97024853D01*
X107048648Y-96894136D01*
X106891079Y-96513730D01*
X106798648Y-96421299D01*
X106798647Y-94810549D01*
X106822906Y-94786290D01*
X106980475Y-94405884D01*
X106980475Y-93994136D01*
X106822906Y-93613730D01*
X106531755Y-93322579D01*
X106151349Y-93165010D01*
X105739601Y-93165010D01*
X105359195Y-93322579D01*
X105068044Y-93613730D01*
X104910475Y-93994136D01*
X104910475Y-94405884D01*
X105068044Y-94786290D01*
X105228648Y-94946894D01*
X105228648Y-95930874D01*
X95473654Y-95930874D01*
X95473654Y-95519126D01*
X95316085Y-95138720D01*
X95024934Y-94847569D01*
X94644528Y-94690000D01*
X94232780Y-94690000D01*
X93852374Y-94847569D01*
X93609943Y-95090000D01*
X91442365Y-95090000D01*
X91349934Y-94997569D01*
X90969528Y-94840000D01*
X90557780Y-94840000D01*
X90177374Y-94997569D01*
X89886223Y-95288720D01*
X89728654Y-95669126D01*
X89728654Y-96080874D01*
X59473654Y-96080874D01*
X59473654Y-95669126D01*
X59316085Y-95288720D01*
X59024934Y-94997569D01*
X58644528Y-94840000D01*
X58232780Y-94840000D01*
X57852374Y-94997569D01*
X57561223Y-95288720D01*
X57403654Y-95669126D01*
X57403654Y-95799843D01*
X57338497Y-95865000D01*
X55417365Y-95865000D01*
X55324934Y-95772569D01*
X54944528Y-95615000D01*
X54532780Y-95615000D01*
X54152374Y-95772569D01*
X53861223Y-96063720D01*
X53703654Y-96444126D01*
X53703654Y-96855874D01*
X53861223Y-97236280D01*
X54152374Y-97527431D01*
X54532780Y-97685000D01*
X54944528Y-97685000D01*
X55324934Y-97527431D01*
X55417365Y-97435000D01*
X57586342Y-97435000D01*
X57663654Y-97450378D01*
X57740966Y-97435000D01*
X57740970Y-97435000D01*
X57969946Y-97389454D01*
X58229607Y-97215953D01*
X58273403Y-97150408D01*
X58513811Y-96910000D01*
X58644528Y-96910000D01*
X59024934Y-96752431D01*
X59316085Y-96461280D01*
X59473654Y-96080874D01*
X89728654Y-96080874D01*
X89886223Y-96461280D01*
X90177374Y-96752431D01*
X90557780Y-96910000D01*
X90969528Y-96910000D01*
X91349934Y-96752431D01*
X91442365Y-96660000D01*
X93991358Y-96660000D01*
X94232780Y-96760000D01*
X94644528Y-96760000D01*
X95024934Y-96602431D01*
X95316085Y-96311280D01*
X95473654Y-95930874D01*
X105228648Y-95930874D01*
X105228648Y-96421299D01*
X105136217Y-96513730D01*
X104978648Y-96894136D01*
X104978648Y-97305884D01*
X105136217Y-97686290D01*
X105427368Y-97977441D01*
X105807774Y-98135010D01*
X105938491Y-98135010D01*
X106603890Y-98800409D01*
X106647687Y-98865955D01*
X106907348Y-99039456D01*
X107136324Y-99085002D01*
X107136328Y-99085002D01*
X107213640Y-99100380D01*
X107290952Y-99085002D01*
X111188346Y-99085002D01*
X111265657Y-99100380D01*
X111342968Y-99085002D01*
X111342972Y-99085002D01*
X111571948Y-99039456D01*
X111571950Y-99039455D01*
X111571949Y-99039455D01*
X111766065Y-98909751D01*
X111766067Y-98909749D01*
X111831609Y-98865955D01*
X111875403Y-98800413D01*
X112440815Y-98235000D01*
X114288496Y-98235000D01*
X115278654Y-99225157D01*
X115278654Y-99355874D01*
X115436223Y-99736280D01*
X115727374Y-100027431D01*
X116107780Y-100185000D01*
X116519528Y-100185000D01*
X116899934Y-100027431D01*
X117191085Y-99736280D01*
X117348654Y-99355874D01*
X127023632Y-99355874D01*
X127036223Y-99386270D01*
X127327374Y-99677421D01*
X127707780Y-99834990D01*
X128119528Y-99834990D01*
X128499934Y-99677421D01*
X128791085Y-99386270D01*
X128948654Y-99005864D01*
X188265000Y-99005864D01*
X188265000Y-100265000D01*
X51735000Y-100265000D01*
X51734999Y-91735000D01*
X51734999Y-91735000D01*
G37*
X51734999Y-91735000D02*
X99927612Y-91735000D01*
X100000000Y-91749399D01*
X100072388Y-91735000D01*
X100286783Y-91692354D01*
X100529905Y-91529905D01*
X100570909Y-91468537D01*
X103468537Y-88570909D01*
X103529904Y-88529905D01*
X103570908Y-88468538D01*
X103570909Y-88468537D01*
X103692354Y-88286782D01*
X103749398Y-88000000D01*
X103734999Y-87927611D01*
X103735000Y-86735000D01*
X104617887Y-86735000D01*
X104446954Y-86905933D01*
X104218200Y-87117391D01*
X104197931Y-87154956D01*
X104118913Y-87233974D01*
X103998695Y-87524207D01*
X103866578Y-87769062D01*
X103845958Y-87892944D01*
X103778654Y-88055431D01*
X103778654Y-88297305D01*
X103745000Y-88499496D01*
X103745278Y-88534916D01*
X103778654Y-88717665D01*
X103778654Y-88944569D01*
X103852775Y-89123513D01*
X103878314Y-89263350D01*
X104002691Y-89485441D01*
X104118913Y-89766026D01*
X104211902Y-89859015D01*
X104240129Y-89909418D01*
X104452691Y-90099804D01*
X104747628Y-90394741D01*
X105569085Y-90735000D01*
X106078210Y-90735000D01*
X106212214Y-90744488D01*
X106247998Y-90735000D01*
X106458223Y-90735000D01*
X106832145Y-90580116D01*
X106927965Y-90554710D01*
X106984208Y-90517130D01*
X107279680Y-90394741D01*
X107505823Y-90168598D01*
X107543654Y-90143320D01*
X107584106Y-90090315D01*
X107908395Y-89766026D01*
X108248654Y-88944569D01*
X108248654Y-88055431D01*
X107908395Y-87233974D01*
X107560825Y-86886404D01*
X107517643Y-86831628D01*
X107484920Y-86810499D01*
X107409421Y-86735000D01*
X132617887Y-86735000D01*
X132446954Y-86905933D01*
X132218200Y-87117391D01*
X132197931Y-87154956D01*
X132118913Y-87233974D01*
X131998695Y-87524207D01*
X131866578Y-87769062D01*
X131845958Y-87892944D01*
X131778654Y-88055431D01*
X131778654Y-88297305D01*
X131745000Y-88499496D01*
X131745278Y-88534916D01*
X131778654Y-88717665D01*
X131778654Y-88944569D01*
X131852775Y-89123513D01*
X131878314Y-89263350D01*
X132002691Y-89485441D01*
X132118913Y-89766026D01*
X132211902Y-89859015D01*
X132240129Y-89909418D01*
X132452691Y-90099804D01*
X132747628Y-90394741D01*
X133569085Y-90735000D01*
X134078210Y-90735000D01*
X134212214Y-90744488D01*
X134247998Y-90735000D01*
X134458223Y-90735000D01*
X134832145Y-90580116D01*
X134927965Y-90554710D01*
X134984208Y-90517130D01*
X135279680Y-90394741D01*
X135505823Y-90168598D01*
X135543654Y-90143320D01*
X135584106Y-90090315D01*
X135908395Y-89766026D01*
X136248654Y-88944569D01*
X136248654Y-88055431D01*
X135908395Y-87233974D01*
X135560825Y-86886404D01*
X135517643Y-86831628D01*
X135484920Y-86810499D01*
X135409421Y-86735000D01*
X136265000Y-86735000D01*
X136265000Y-87927612D01*
X136250601Y-88000000D01*
X136307646Y-88286782D01*
X136307646Y-88286783D01*
X136470095Y-88529905D01*
X136531462Y-88570909D01*
X139429089Y-91468535D01*
X139470095Y-91529905D01*
X139713217Y-91692354D01*
X139927612Y-91735000D01*
X139927616Y-91735000D01*
X140000000Y-91749398D01*
X140072384Y-91735000D01*
X188265000Y-91735000D01*
X188265000Y-96306554D01*
X185924334Y-96306554D01*
X185924334Y-95894806D01*
X185766765Y-95514400D01*
X185475614Y-95223249D01*
X185095208Y-95065680D01*
X184683460Y-95065680D01*
X184660226Y-95075304D01*
X184586342Y-95090000D01*
X181267363Y-95090000D01*
X181174932Y-94997569D01*
X180794526Y-94840000D01*
X180382778Y-94840000D01*
X180002372Y-94997569D01*
X179711221Y-95288720D01*
X179553652Y-95669126D01*
X179553652Y-96080874D01*
X179711221Y-96461280D01*
X179780815Y-96530874D01*
X150298654Y-96530874D01*
X150298654Y-96119126D01*
X150141085Y-95738720D01*
X149849934Y-95447569D01*
X149469528Y-95290000D01*
X149057780Y-95290000D01*
X148677374Y-95447569D01*
X148584943Y-95540000D01*
X146440976Y-95540000D01*
X146363664Y-95524622D01*
X146286352Y-95540000D01*
X146286348Y-95540000D01*
X146057372Y-95585546D01*
X145797711Y-95759047D01*
X145753915Y-95824592D01*
X145438497Y-96140010D01*
X145307780Y-96140010D01*
X144927374Y-96297579D01*
X144636223Y-96588730D01*
X144478654Y-96969136D01*
X144478654Y-97255874D01*
X139048654Y-97255874D01*
X139048654Y-96844126D01*
X138891085Y-96463720D01*
X138798654Y-96371289D01*
X138798653Y-94778722D01*
X138891085Y-94686290D01*
X139048654Y-94305884D01*
X139048654Y-93894136D01*
X138891085Y-93513730D01*
X138599934Y-93222579D01*
X138219528Y-93065010D01*
X137807780Y-93065010D01*
X137427374Y-93222579D01*
X137136223Y-93513730D01*
X136978654Y-93894136D01*
X136978654Y-94305884D01*
X137136223Y-94686290D01*
X137228654Y-94778721D01*
X137228654Y-96371289D01*
X137136223Y-96463720D01*
X136978654Y-96844126D01*
X136978654Y-97255874D01*
X137136223Y-97636280D01*
X137427374Y-97927431D01*
X137807780Y-98085000D01*
X138219528Y-98085000D01*
X138599934Y-97927431D01*
X138891085Y-97636280D01*
X139048654Y-97255874D01*
X144478654Y-97255874D01*
X144478654Y-97380884D01*
X144636223Y-97761290D01*
X144927374Y-98052441D01*
X145307780Y-98210010D01*
X145719528Y-98210010D01*
X146099934Y-98052441D01*
X146391085Y-97761290D01*
X146548654Y-97380884D01*
X146548654Y-97250167D01*
X146688821Y-97110000D01*
X148584943Y-97110000D01*
X148677374Y-97202431D01*
X149057780Y-97360000D01*
X149469528Y-97360000D01*
X149849934Y-97202431D01*
X150141085Y-96911280D01*
X150298654Y-96530874D01*
X179780815Y-96530874D01*
X180002372Y-96752431D01*
X180382778Y-96910000D01*
X180794526Y-96910000D01*
X181174932Y-96752431D01*
X181267363Y-96660000D01*
X184000736Y-96660000D01*
X184011903Y-96686960D01*
X184303054Y-96978111D01*
X184683460Y-97135680D01*
X185095208Y-97135680D01*
X185475614Y-96978111D01*
X185766765Y-96686960D01*
X185924334Y-96306554D01*
X188265000Y-96306554D01*
X188265000Y-99005864D01*
X128948654Y-99005864D01*
X128948654Y-98594116D01*
X128791085Y-98213710D01*
X128698653Y-98121278D01*
X128698654Y-90728711D01*
X128791085Y-90636280D01*
X128948654Y-90255874D01*
X128948654Y-89844126D01*
X128791085Y-89463720D01*
X128499934Y-89172569D01*
X128119528Y-89015000D01*
X127707780Y-89015000D01*
X127327374Y-89172569D01*
X127036223Y-89463720D01*
X126878654Y-89844126D01*
X126878654Y-90255874D01*
X127036223Y-90636280D01*
X127128654Y-90728711D01*
X127128654Y-98121279D01*
X127036223Y-98213710D01*
X126878654Y-98594116D01*
X126878654Y-99005864D01*
X127023632Y-99355874D01*
X117348654Y-99355874D01*
X117348654Y-98944126D01*
X117191085Y-98563720D01*
X116899934Y-98272569D01*
X116519528Y-98115000D01*
X116388811Y-98115000D01*
X115223401Y-96949589D01*
X115179607Y-96884047D01*
X115114065Y-96840253D01*
X115114063Y-96840251D01*
X114993959Y-96760000D01*
X114919946Y-96710546D01*
X114690970Y-96665000D01*
X114690967Y-96665000D01*
X114613655Y-96649622D01*
X114536343Y-96665000D01*
X112192970Y-96665000D01*
X112115658Y-96649622D01*
X112038346Y-96665000D01*
X112038342Y-96665000D01*
X111809366Y-96710546D01*
X111549705Y-96884047D01*
X111505909Y-96949592D01*
X110940498Y-97515002D01*
X107538796Y-97515002D01*
X107423398Y-97399603D01*
X107048648Y-97024853D01*
X107048648Y-96894136D01*
X106891079Y-96513730D01*
X106798648Y-96421299D01*
X106798647Y-94810549D01*
X106822906Y-94786290D01*
X106980475Y-94405884D01*
X106980475Y-93994136D01*
X106822906Y-93613730D01*
X106531755Y-93322579D01*
X106151349Y-93165010D01*
X105739601Y-93165010D01*
X105359195Y-93322579D01*
X105068044Y-93613730D01*
X104910475Y-93994136D01*
X104910475Y-94405884D01*
X105068044Y-94786290D01*
X105228648Y-94946894D01*
X105228648Y-95930874D01*
X95473654Y-95930874D01*
X95473654Y-95519126D01*
X95316085Y-95138720D01*
X95024934Y-94847569D01*
X94644528Y-94690000D01*
X94232780Y-94690000D01*
X93852374Y-94847569D01*
X93609943Y-95090000D01*
X91442365Y-95090000D01*
X91349934Y-94997569D01*
X90969528Y-94840000D01*
X90557780Y-94840000D01*
X90177374Y-94997569D01*
X89886223Y-95288720D01*
X89728654Y-95669126D01*
X89728654Y-96080874D01*
X59473654Y-96080874D01*
X59473654Y-95669126D01*
X59316085Y-95288720D01*
X59024934Y-94997569D01*
X58644528Y-94840000D01*
X58232780Y-94840000D01*
X57852374Y-94997569D01*
X57561223Y-95288720D01*
X57403654Y-95669126D01*
X57403654Y-95799843D01*
X57338497Y-95865000D01*
X55417365Y-95865000D01*
X55324934Y-95772569D01*
X54944528Y-95615000D01*
X54532780Y-95615000D01*
X54152374Y-95772569D01*
X53861223Y-96063720D01*
X53703654Y-96444126D01*
X53703654Y-96855874D01*
X53861223Y-97236280D01*
X54152374Y-97527431D01*
X54532780Y-97685000D01*
X54944528Y-97685000D01*
X55324934Y-97527431D01*
X55417365Y-97435000D01*
X57586342Y-97435000D01*
X57663654Y-97450378D01*
X57740966Y-97435000D01*
X57740970Y-97435000D01*
X57969946Y-97389454D01*
X58229607Y-97215953D01*
X58273403Y-97150408D01*
X58513811Y-96910000D01*
X58644528Y-96910000D01*
X59024934Y-96752431D01*
X59316085Y-96461280D01*
X59473654Y-96080874D01*
X89728654Y-96080874D01*
X89886223Y-96461280D01*
X90177374Y-96752431D01*
X90557780Y-96910000D01*
X90969528Y-96910000D01*
X91349934Y-96752431D01*
X91442365Y-96660000D01*
X93991358Y-96660000D01*
X94232780Y-96760000D01*
X94644528Y-96760000D01*
X95024934Y-96602431D01*
X95316085Y-96311280D01*
X95473654Y-95930874D01*
X105228648Y-95930874D01*
X105228648Y-96421299D01*
X105136217Y-96513730D01*
X104978648Y-96894136D01*
X104978648Y-97305884D01*
X105136217Y-97686290D01*
X105427368Y-97977441D01*
X105807774Y-98135010D01*
X105938491Y-98135010D01*
X106603890Y-98800409D01*
X106647687Y-98865955D01*
X106907348Y-99039456D01*
X107136324Y-99085002D01*
X107136328Y-99085002D01*
X107213640Y-99100380D01*
X107290952Y-99085002D01*
X111188346Y-99085002D01*
X111265657Y-99100380D01*
X111342968Y-99085002D01*
X111342972Y-99085002D01*
X111571948Y-99039456D01*
X111571950Y-99039455D01*
X111571949Y-99039455D01*
X111766065Y-98909751D01*
X111766067Y-98909749D01*
X111831609Y-98865955D01*
X111875403Y-98800413D01*
X112440815Y-98235000D01*
X114288496Y-98235000D01*
X115278654Y-99225157D01*
X115278654Y-99355874D01*
X115436223Y-99736280D01*
X115727374Y-100027431D01*
X116107780Y-100185000D01*
X116519528Y-100185000D01*
X116899934Y-100027431D01*
X117191085Y-99736280D01*
X117348654Y-99355874D01*
X127023632Y-99355874D01*
X127036223Y-99386270D01*
X127327374Y-99677421D01*
X127707780Y-99834990D01*
X128119528Y-99834990D01*
X128499934Y-99677421D01*
X128791085Y-99386270D01*
X128948654Y-99005864D01*
X188265000Y-99005864D01*
X188265000Y-100265000D01*
X51735000Y-100265000D01*
X51734999Y-91735000D01*
G36*
X188265001Y-79265000D02*
X140072388Y-79265000D01*
X140000000Y-79250601D01*
X139927612Y-79265000D01*
X139713217Y-79307646D01*
X139470095Y-79470095D01*
X139429091Y-79531463D01*
X136531463Y-82429091D01*
X136470096Y-82470095D01*
X136429092Y-82531462D01*
X136429091Y-82531463D01*
X136307646Y-82713218D01*
X136250602Y-83000000D01*
X136265001Y-83072389D01*
X136265000Y-84265000D01*
X135382113Y-84265000D01*
X135553046Y-84094067D01*
X135781800Y-83882609D01*
X135802069Y-83845044D01*
X135881087Y-83766026D01*
X136001305Y-83475793D01*
X136133422Y-83230938D01*
X136154042Y-83107056D01*
X136221346Y-82944569D01*
X136221346Y-82702695D01*
X136255000Y-82500504D01*
X136254722Y-82465084D01*
X136221346Y-82282335D01*
X136221346Y-82055431D01*
X136147225Y-81876487D01*
X136121686Y-81736650D01*
X135997309Y-81514559D01*
X135881087Y-81233974D01*
X135788098Y-81140985D01*
X135759871Y-81090582D01*
X135547309Y-80900196D01*
X135252372Y-80605259D01*
X134430915Y-80265000D01*
X133921790Y-80265000D01*
X133787786Y-80255512D01*
X133752002Y-80265000D01*
X133541777Y-80265000D01*
X133167855Y-80419884D01*
X133072035Y-80445290D01*
X133015792Y-80482870D01*
X132720320Y-80605259D01*
X132494177Y-80831402D01*
X132456346Y-80856680D01*
X132415894Y-80909685D01*
X132091605Y-81233974D01*
X131751346Y-82055431D01*
X131751346Y-82944569D01*
X132091605Y-83766026D01*
X132439175Y-84113596D01*
X132482357Y-84168372D01*
X132515080Y-84189501D01*
X132590579Y-84265000D01*
X107382113Y-84265000D01*
X107553046Y-84094067D01*
X107781800Y-83882609D01*
X107802069Y-83845044D01*
X107881087Y-83766026D01*
X108001305Y-83475793D01*
X108133422Y-83230938D01*
X108154042Y-83107056D01*
X108221346Y-82944569D01*
X108221346Y-82702695D01*
X108255000Y-82500504D01*
X108254722Y-82465084D01*
X108221346Y-82282335D01*
X108221346Y-82055431D01*
X108147225Y-81876487D01*
X108121686Y-81736650D01*
X107997309Y-81514559D01*
X107881087Y-81233974D01*
X107788098Y-81140985D01*
X107759871Y-81090582D01*
X107547309Y-80900196D01*
X107252372Y-80605259D01*
X106430915Y-80265000D01*
X105921790Y-80265000D01*
X105787786Y-80255512D01*
X105752002Y-80265000D01*
X105541777Y-80265000D01*
X105167855Y-80419884D01*
X105072035Y-80445290D01*
X105015792Y-80482870D01*
X104720320Y-80605259D01*
X104494177Y-80831402D01*
X104456346Y-80856680D01*
X104415894Y-80909685D01*
X104091605Y-81233974D01*
X103751346Y-82055431D01*
X103751346Y-82944569D01*
X104091605Y-83766026D01*
X104439175Y-84113596D01*
X104482357Y-84168372D01*
X104515080Y-84189501D01*
X104590579Y-84265000D01*
X103735000Y-84265000D01*
X103735000Y-83072388D01*
X103749399Y-83000000D01*
X103692354Y-82713218D01*
X103692354Y-82713217D01*
X103529905Y-82470095D01*
X103468538Y-82429091D01*
X100570911Y-79531465D01*
X100529905Y-79470095D01*
X100286783Y-79307646D01*
X100072388Y-79265000D01*
X100072384Y-79265000D01*
X100000000Y-79250602D01*
X99927616Y-79265000D01*
X51735000Y-79265000D01*
X51735000Y-74693446D01*
X54075666Y-74693446D01*
X54075666Y-75105194D01*
X54233235Y-75485600D01*
X54524386Y-75776751D01*
X54904792Y-75934320D01*
X55316540Y-75934320D01*
X55339774Y-75924696D01*
X55413658Y-75910000D01*
X58732637Y-75910000D01*
X58825068Y-76002431D01*
X59205474Y-76160000D01*
X59617222Y-76160000D01*
X59997628Y-76002431D01*
X60288779Y-75711280D01*
X60446348Y-75330874D01*
X60446348Y-74919126D01*
X60288779Y-74538720D01*
X60219185Y-74469126D01*
X89701346Y-74469126D01*
X89701346Y-74880874D01*
X89858915Y-75261280D01*
X90150066Y-75552431D01*
X90530472Y-75710000D01*
X90942220Y-75710000D01*
X91322626Y-75552431D01*
X91415057Y-75460000D01*
X93559024Y-75460000D01*
X93636336Y-75475378D01*
X93713648Y-75460000D01*
X93713652Y-75460000D01*
X93942628Y-75414454D01*
X94202289Y-75240953D01*
X94246085Y-75175408D01*
X94561503Y-74859990D01*
X94692220Y-74859990D01*
X95072626Y-74702421D01*
X95363777Y-74411270D01*
X95521346Y-74030864D01*
X95521346Y-73744126D01*
X100951346Y-73744126D01*
X100951346Y-74155874D01*
X101108915Y-74536280D01*
X101201346Y-74628711D01*
X101201347Y-76221278D01*
X101108915Y-76313710D01*
X100951346Y-76694116D01*
X100951346Y-77105864D01*
X101108915Y-77486270D01*
X101400066Y-77777421D01*
X101780472Y-77934990D01*
X102192220Y-77934990D01*
X102572626Y-77777421D01*
X102863777Y-77486270D01*
X103021346Y-77105864D01*
X103021346Y-76694116D01*
X102863777Y-76313710D01*
X102771346Y-76221279D01*
X102771346Y-74628711D01*
X102863777Y-74536280D01*
X103021346Y-74155874D01*
X103021346Y-73744126D01*
X102863777Y-73363720D01*
X102572626Y-73072569D01*
X102192220Y-72915000D01*
X101780472Y-72915000D01*
X101400066Y-73072569D01*
X101108915Y-73363720D01*
X100951346Y-73744126D01*
X95521346Y-73744126D01*
X95521346Y-73619116D01*
X95363777Y-73238710D01*
X95072626Y-72947559D01*
X94692220Y-72789990D01*
X94280472Y-72789990D01*
X93900066Y-72947559D01*
X93608915Y-73238710D01*
X93451346Y-73619116D01*
X93451346Y-73749833D01*
X93311179Y-73890000D01*
X91415057Y-73890000D01*
X91322626Y-73797569D01*
X90942220Y-73640000D01*
X90530472Y-73640000D01*
X90150066Y-73797569D01*
X89858915Y-74088720D01*
X89701346Y-74469126D01*
X60219185Y-74469126D01*
X59997628Y-74247569D01*
X59617222Y-74090000D01*
X59205474Y-74090000D01*
X58825068Y-74247569D01*
X58732637Y-74340000D01*
X55999264Y-74340000D01*
X55988097Y-74313040D01*
X55696946Y-74021889D01*
X55316540Y-73864320D01*
X54904792Y-73864320D01*
X54524386Y-74021889D01*
X54233235Y-74313040D01*
X54075666Y-74693446D01*
X51735000Y-74693446D01*
X51735000Y-71994136D01*
X111051346Y-71994136D01*
X111051346Y-72405884D01*
X111208915Y-72786290D01*
X111301347Y-72878722D01*
X111301346Y-80271289D01*
X111208915Y-80363720D01*
X111051346Y-80744126D01*
X111051346Y-81155874D01*
X111208915Y-81536280D01*
X111500066Y-81827431D01*
X111880472Y-81985000D01*
X112292220Y-81985000D01*
X112672626Y-81827431D01*
X112963777Y-81536280D01*
X113121346Y-81155874D01*
X113121346Y-80744126D01*
X112963777Y-80363720D01*
X112871346Y-80271289D01*
X112871346Y-72878721D01*
X112963777Y-72786290D01*
X113121346Y-72405884D01*
X113121346Y-71994136D01*
X112976368Y-71644126D01*
X122651346Y-71644126D01*
X122651346Y-72055874D01*
X122808915Y-72436280D01*
X123100066Y-72727431D01*
X123480472Y-72885000D01*
X123611189Y-72885000D01*
X124776599Y-74050411D01*
X124820393Y-74115953D01*
X124885935Y-74159747D01*
X124885937Y-74159749D01*
X125006041Y-74240000D01*
X125080054Y-74289454D01*
X125309030Y-74335000D01*
X125309033Y-74335000D01*
X125386345Y-74350378D01*
X125463657Y-74335000D01*
X127807030Y-74335000D01*
X127884342Y-74350378D01*
X127961654Y-74335000D01*
X127961658Y-74335000D01*
X128190634Y-74289454D01*
X128450295Y-74115953D01*
X128494091Y-74050408D01*
X129059502Y-73484998D01*
X132461204Y-73484998D01*
X132576602Y-73600397D01*
X132951352Y-73975147D01*
X132951352Y-74105864D01*
X133108921Y-74486270D01*
X133201352Y-74578701D01*
X133201353Y-76189451D01*
X133177094Y-76213710D01*
X133019525Y-76594116D01*
X133019525Y-77005864D01*
X133177094Y-77386270D01*
X133468245Y-77677421D01*
X133848651Y-77834990D01*
X134260399Y-77834990D01*
X134640805Y-77677421D01*
X134931956Y-77386270D01*
X135089525Y-77005864D01*
X135089525Y-76594116D01*
X134931956Y-76213710D01*
X134771352Y-76053106D01*
X134771352Y-75069126D01*
X144526346Y-75069126D01*
X144526346Y-75480874D01*
X144683915Y-75861280D01*
X144975066Y-76152431D01*
X145355472Y-76310000D01*
X145767220Y-76310000D01*
X146147626Y-76152431D01*
X146390057Y-75910000D01*
X148557635Y-75910000D01*
X148650066Y-76002431D01*
X149030472Y-76160000D01*
X149442220Y-76160000D01*
X149822626Y-76002431D01*
X150113777Y-75711280D01*
X150271346Y-75330874D01*
X150271346Y-74919126D01*
X180526346Y-74919126D01*
X180526346Y-75330874D01*
X180683915Y-75711280D01*
X180975066Y-76002431D01*
X181355472Y-76160000D01*
X181767220Y-76160000D01*
X182147626Y-76002431D01*
X182438777Y-75711280D01*
X182596346Y-75330874D01*
X182596346Y-75200157D01*
X182661503Y-75135000D01*
X184582635Y-75135000D01*
X184675066Y-75227431D01*
X185055472Y-75385000D01*
X185467220Y-75385000D01*
X185847626Y-75227431D01*
X186138777Y-74936280D01*
X186296346Y-74555874D01*
X186296346Y-74144126D01*
X186138777Y-73763720D01*
X185847626Y-73472569D01*
X185467220Y-73315000D01*
X185055472Y-73315000D01*
X184675066Y-73472569D01*
X184582635Y-73565000D01*
X182413658Y-73565000D01*
X182336346Y-73549622D01*
X182259034Y-73565000D01*
X182259030Y-73565000D01*
X182030054Y-73610546D01*
X181770393Y-73784047D01*
X181726597Y-73849592D01*
X181486189Y-74090000D01*
X181355472Y-74090000D01*
X180975066Y-74247569D01*
X180683915Y-74538720D01*
X180526346Y-74919126D01*
X150271346Y-74919126D01*
X150113777Y-74538720D01*
X149822626Y-74247569D01*
X149442220Y-74090000D01*
X149030472Y-74090000D01*
X148650066Y-74247569D01*
X148557635Y-74340000D01*
X146008642Y-74340000D01*
X145767220Y-74240000D01*
X145355472Y-74240000D01*
X144975066Y-74397569D01*
X144683915Y-74688720D01*
X144526346Y-75069126D01*
X134771352Y-75069126D01*
X134771352Y-74578701D01*
X134863783Y-74486270D01*
X135021352Y-74105864D01*
X135021352Y-73694116D01*
X134863783Y-73313710D01*
X134572632Y-73022559D01*
X134192226Y-72864990D01*
X134061509Y-72864990D01*
X133396110Y-72199591D01*
X133352313Y-72134045D01*
X133092652Y-71960544D01*
X132863676Y-71914998D01*
X132863672Y-71914998D01*
X132786360Y-71899620D01*
X132709048Y-71914998D01*
X128811654Y-71914998D01*
X128734343Y-71899620D01*
X128657032Y-71914998D01*
X128657028Y-71914998D01*
X128428052Y-71960544D01*
X128428050Y-71960545D01*
X128428051Y-71960545D01*
X128233935Y-72090249D01*
X128233933Y-72090251D01*
X128168391Y-72134045D01*
X128124597Y-72199587D01*
X127559185Y-72765000D01*
X125711504Y-72765000D01*
X124721346Y-71774843D01*
X124721346Y-71644126D01*
X124563777Y-71263720D01*
X124272626Y-70972569D01*
X123892220Y-70815000D01*
X123480472Y-70815000D01*
X123100066Y-70972569D01*
X122808915Y-71263720D01*
X122651346Y-71644126D01*
X112976368Y-71644126D01*
X112963777Y-71613730D01*
X112672626Y-71322579D01*
X112292220Y-71165010D01*
X111880472Y-71165010D01*
X111500066Y-71322579D01*
X111208915Y-71613730D01*
X111051346Y-71994136D01*
X51735000Y-71994136D01*
X51735000Y-70735000D01*
X188265000Y-70735000D01*
X188265001Y-79265000D01*
X188265001Y-79265000D01*
G37*
X188265001Y-79265000D02*
X140072388Y-79265000D01*
X140000000Y-79250601D01*
X139927612Y-79265000D01*
X139713217Y-79307646D01*
X139470095Y-79470095D01*
X139429091Y-79531463D01*
X136531463Y-82429091D01*
X136470096Y-82470095D01*
X136429092Y-82531462D01*
X136429091Y-82531463D01*
X136307646Y-82713218D01*
X136250602Y-83000000D01*
X136265001Y-83072389D01*
X136265000Y-84265000D01*
X135382113Y-84265000D01*
X135553046Y-84094067D01*
X135781800Y-83882609D01*
X135802069Y-83845044D01*
X135881087Y-83766026D01*
X136001305Y-83475793D01*
X136133422Y-83230938D01*
X136154042Y-83107056D01*
X136221346Y-82944569D01*
X136221346Y-82702695D01*
X136255000Y-82500504D01*
X136254722Y-82465084D01*
X136221346Y-82282335D01*
X136221346Y-82055431D01*
X136147225Y-81876487D01*
X136121686Y-81736650D01*
X135997309Y-81514559D01*
X135881087Y-81233974D01*
X135788098Y-81140985D01*
X135759871Y-81090582D01*
X135547309Y-80900196D01*
X135252372Y-80605259D01*
X134430915Y-80265000D01*
X133921790Y-80265000D01*
X133787786Y-80255512D01*
X133752002Y-80265000D01*
X133541777Y-80265000D01*
X133167855Y-80419884D01*
X133072035Y-80445290D01*
X133015792Y-80482870D01*
X132720320Y-80605259D01*
X132494177Y-80831402D01*
X132456346Y-80856680D01*
X132415894Y-80909685D01*
X132091605Y-81233974D01*
X131751346Y-82055431D01*
X131751346Y-82944569D01*
X132091605Y-83766026D01*
X132439175Y-84113596D01*
X132482357Y-84168372D01*
X132515080Y-84189501D01*
X132590579Y-84265000D01*
X107382113Y-84265000D01*
X107553046Y-84094067D01*
X107781800Y-83882609D01*
X107802069Y-83845044D01*
X107881087Y-83766026D01*
X108001305Y-83475793D01*
X108133422Y-83230938D01*
X108154042Y-83107056D01*
X108221346Y-82944569D01*
X108221346Y-82702695D01*
X108255000Y-82500504D01*
X108254722Y-82465084D01*
X108221346Y-82282335D01*
X108221346Y-82055431D01*
X108147225Y-81876487D01*
X108121686Y-81736650D01*
X107997309Y-81514559D01*
X107881087Y-81233974D01*
X107788098Y-81140985D01*
X107759871Y-81090582D01*
X107547309Y-80900196D01*
X107252372Y-80605259D01*
X106430915Y-80265000D01*
X105921790Y-80265000D01*
X105787786Y-80255512D01*
X105752002Y-80265000D01*
X105541777Y-80265000D01*
X105167855Y-80419884D01*
X105072035Y-80445290D01*
X105015792Y-80482870D01*
X104720320Y-80605259D01*
X104494177Y-80831402D01*
X104456346Y-80856680D01*
X104415894Y-80909685D01*
X104091605Y-81233974D01*
X103751346Y-82055431D01*
X103751346Y-82944569D01*
X104091605Y-83766026D01*
X104439175Y-84113596D01*
X104482357Y-84168372D01*
X104515080Y-84189501D01*
X104590579Y-84265000D01*
X103735000Y-84265000D01*
X103735000Y-83072388D01*
X103749399Y-83000000D01*
X103692354Y-82713218D01*
X103692354Y-82713217D01*
X103529905Y-82470095D01*
X103468538Y-82429091D01*
X100570911Y-79531465D01*
X100529905Y-79470095D01*
X100286783Y-79307646D01*
X100072388Y-79265000D01*
X100072384Y-79265000D01*
X100000000Y-79250602D01*
X99927616Y-79265000D01*
X51735000Y-79265000D01*
X51735000Y-74693446D01*
X54075666Y-74693446D01*
X54075666Y-75105194D01*
X54233235Y-75485600D01*
X54524386Y-75776751D01*
X54904792Y-75934320D01*
X55316540Y-75934320D01*
X55339774Y-75924696D01*
X55413658Y-75910000D01*
X58732637Y-75910000D01*
X58825068Y-76002431D01*
X59205474Y-76160000D01*
X59617222Y-76160000D01*
X59997628Y-76002431D01*
X60288779Y-75711280D01*
X60446348Y-75330874D01*
X60446348Y-74919126D01*
X60288779Y-74538720D01*
X60219185Y-74469126D01*
X89701346Y-74469126D01*
X89701346Y-74880874D01*
X89858915Y-75261280D01*
X90150066Y-75552431D01*
X90530472Y-75710000D01*
X90942220Y-75710000D01*
X91322626Y-75552431D01*
X91415057Y-75460000D01*
X93559024Y-75460000D01*
X93636336Y-75475378D01*
X93713648Y-75460000D01*
X93713652Y-75460000D01*
X93942628Y-75414454D01*
X94202289Y-75240953D01*
X94246085Y-75175408D01*
X94561503Y-74859990D01*
X94692220Y-74859990D01*
X95072626Y-74702421D01*
X95363777Y-74411270D01*
X95521346Y-74030864D01*
X95521346Y-73744126D01*
X100951346Y-73744126D01*
X100951346Y-74155874D01*
X101108915Y-74536280D01*
X101201346Y-74628711D01*
X101201347Y-76221278D01*
X101108915Y-76313710D01*
X100951346Y-76694116D01*
X100951346Y-77105864D01*
X101108915Y-77486270D01*
X101400066Y-77777421D01*
X101780472Y-77934990D01*
X102192220Y-77934990D01*
X102572626Y-77777421D01*
X102863777Y-77486270D01*
X103021346Y-77105864D01*
X103021346Y-76694116D01*
X102863777Y-76313710D01*
X102771346Y-76221279D01*
X102771346Y-74628711D01*
X102863777Y-74536280D01*
X103021346Y-74155874D01*
X103021346Y-73744126D01*
X102863777Y-73363720D01*
X102572626Y-73072569D01*
X102192220Y-72915000D01*
X101780472Y-72915000D01*
X101400066Y-73072569D01*
X101108915Y-73363720D01*
X100951346Y-73744126D01*
X95521346Y-73744126D01*
X95521346Y-73619116D01*
X95363777Y-73238710D01*
X95072626Y-72947559D01*
X94692220Y-72789990D01*
X94280472Y-72789990D01*
X93900066Y-72947559D01*
X93608915Y-73238710D01*
X93451346Y-73619116D01*
X93451346Y-73749833D01*
X93311179Y-73890000D01*
X91415057Y-73890000D01*
X91322626Y-73797569D01*
X90942220Y-73640000D01*
X90530472Y-73640000D01*
X90150066Y-73797569D01*
X89858915Y-74088720D01*
X89701346Y-74469126D01*
X60219185Y-74469126D01*
X59997628Y-74247569D01*
X59617222Y-74090000D01*
X59205474Y-74090000D01*
X58825068Y-74247569D01*
X58732637Y-74340000D01*
X55999264Y-74340000D01*
X55988097Y-74313040D01*
X55696946Y-74021889D01*
X55316540Y-73864320D01*
X54904792Y-73864320D01*
X54524386Y-74021889D01*
X54233235Y-74313040D01*
X54075666Y-74693446D01*
X51735000Y-74693446D01*
X51735000Y-71994136D01*
X111051346Y-71994136D01*
X111051346Y-72405884D01*
X111208915Y-72786290D01*
X111301347Y-72878722D01*
X111301346Y-80271289D01*
X111208915Y-80363720D01*
X111051346Y-80744126D01*
X111051346Y-81155874D01*
X111208915Y-81536280D01*
X111500066Y-81827431D01*
X111880472Y-81985000D01*
X112292220Y-81985000D01*
X112672626Y-81827431D01*
X112963777Y-81536280D01*
X113121346Y-81155874D01*
X113121346Y-80744126D01*
X112963777Y-80363720D01*
X112871346Y-80271289D01*
X112871346Y-72878721D01*
X112963777Y-72786290D01*
X113121346Y-72405884D01*
X113121346Y-71994136D01*
X112976368Y-71644126D01*
X122651346Y-71644126D01*
X122651346Y-72055874D01*
X122808915Y-72436280D01*
X123100066Y-72727431D01*
X123480472Y-72885000D01*
X123611189Y-72885000D01*
X124776599Y-74050411D01*
X124820393Y-74115953D01*
X124885935Y-74159747D01*
X124885937Y-74159749D01*
X125006041Y-74240000D01*
X125080054Y-74289454D01*
X125309030Y-74335000D01*
X125309033Y-74335000D01*
X125386345Y-74350378D01*
X125463657Y-74335000D01*
X127807030Y-74335000D01*
X127884342Y-74350378D01*
X127961654Y-74335000D01*
X127961658Y-74335000D01*
X128190634Y-74289454D01*
X128450295Y-74115953D01*
X128494091Y-74050408D01*
X129059502Y-73484998D01*
X132461204Y-73484998D01*
X132576602Y-73600397D01*
X132951352Y-73975147D01*
X132951352Y-74105864D01*
X133108921Y-74486270D01*
X133201352Y-74578701D01*
X133201353Y-76189451D01*
X133177094Y-76213710D01*
X133019525Y-76594116D01*
X133019525Y-77005864D01*
X133177094Y-77386270D01*
X133468245Y-77677421D01*
X133848651Y-77834990D01*
X134260399Y-77834990D01*
X134640805Y-77677421D01*
X134931956Y-77386270D01*
X135089525Y-77005864D01*
X135089525Y-76594116D01*
X134931956Y-76213710D01*
X134771352Y-76053106D01*
X134771352Y-75069126D01*
X144526346Y-75069126D01*
X144526346Y-75480874D01*
X144683915Y-75861280D01*
X144975066Y-76152431D01*
X145355472Y-76310000D01*
X145767220Y-76310000D01*
X146147626Y-76152431D01*
X146390057Y-75910000D01*
X148557635Y-75910000D01*
X148650066Y-76002431D01*
X149030472Y-76160000D01*
X149442220Y-76160000D01*
X149822626Y-76002431D01*
X150113777Y-75711280D01*
X150271346Y-75330874D01*
X150271346Y-74919126D01*
X180526346Y-74919126D01*
X180526346Y-75330874D01*
X180683915Y-75711280D01*
X180975066Y-76002431D01*
X181355472Y-76160000D01*
X181767220Y-76160000D01*
X182147626Y-76002431D01*
X182438777Y-75711280D01*
X182596346Y-75330874D01*
X182596346Y-75200157D01*
X182661503Y-75135000D01*
X184582635Y-75135000D01*
X184675066Y-75227431D01*
X185055472Y-75385000D01*
X185467220Y-75385000D01*
X185847626Y-75227431D01*
X186138777Y-74936280D01*
X186296346Y-74555874D01*
X186296346Y-74144126D01*
X186138777Y-73763720D01*
X185847626Y-73472569D01*
X185467220Y-73315000D01*
X185055472Y-73315000D01*
X184675066Y-73472569D01*
X184582635Y-73565000D01*
X182413658Y-73565000D01*
X182336346Y-73549622D01*
X182259034Y-73565000D01*
X182259030Y-73565000D01*
X182030054Y-73610546D01*
X181770393Y-73784047D01*
X181726597Y-73849592D01*
X181486189Y-74090000D01*
X181355472Y-74090000D01*
X180975066Y-74247569D01*
X180683915Y-74538720D01*
X180526346Y-74919126D01*
X150271346Y-74919126D01*
X150113777Y-74538720D01*
X149822626Y-74247569D01*
X149442220Y-74090000D01*
X149030472Y-74090000D01*
X148650066Y-74247569D01*
X148557635Y-74340000D01*
X146008642Y-74340000D01*
X145767220Y-74240000D01*
X145355472Y-74240000D01*
X144975066Y-74397569D01*
X144683915Y-74688720D01*
X144526346Y-75069126D01*
X134771352Y-75069126D01*
X134771352Y-74578701D01*
X134863783Y-74486270D01*
X135021352Y-74105864D01*
X135021352Y-73694116D01*
X134863783Y-73313710D01*
X134572632Y-73022559D01*
X134192226Y-72864990D01*
X134061509Y-72864990D01*
X133396110Y-72199591D01*
X133352313Y-72134045D01*
X133092652Y-71960544D01*
X132863676Y-71914998D01*
X132863672Y-71914998D01*
X132786360Y-71899620D01*
X132709048Y-71914998D01*
X128811654Y-71914998D01*
X128734343Y-71899620D01*
X128657032Y-71914998D01*
X128657028Y-71914998D01*
X128428052Y-71960544D01*
X128428050Y-71960545D01*
X128428051Y-71960545D01*
X128233935Y-72090249D01*
X128233933Y-72090251D01*
X128168391Y-72134045D01*
X128124597Y-72199587D01*
X127559185Y-72765000D01*
X125711504Y-72765000D01*
X124721346Y-71774843D01*
X124721346Y-71644126D01*
X124563777Y-71263720D01*
X124272626Y-70972569D01*
X123892220Y-70815000D01*
X123480472Y-70815000D01*
X123100066Y-70972569D01*
X122808915Y-71263720D01*
X122651346Y-71644126D01*
X112976368Y-71644126D01*
X112963777Y-71613730D01*
X112672626Y-71322579D01*
X112292220Y-71165010D01*
X111880472Y-71165010D01*
X111500066Y-71322579D01*
X111208915Y-71613730D01*
X111051346Y-71994136D01*
X51735000Y-71994136D01*
X51735000Y-70735000D01*
X188265000Y-70735000D01*
X188265001Y-79265000D01*
G36*
X51734999Y-59735000D02*
X99927612Y-59735000D01*
X100000000Y-59749399D01*
X100072388Y-59735000D01*
X100286783Y-59692354D01*
X100529905Y-59529905D01*
X100570909Y-59468537D01*
X103468537Y-56570909D01*
X103529904Y-56529905D01*
X103570908Y-56468538D01*
X103570909Y-56468537D01*
X103692354Y-56286782D01*
X103749398Y-56000000D01*
X103734999Y-55927611D01*
X103735000Y-54735000D01*
X104617887Y-54735000D01*
X104446954Y-54905933D01*
X104218200Y-55117391D01*
X104197931Y-55154956D01*
X104118913Y-55233974D01*
X103998695Y-55524207D01*
X103866578Y-55769062D01*
X103845958Y-55892944D01*
X103778654Y-56055431D01*
X103778654Y-56297305D01*
X103745000Y-56499496D01*
X103745278Y-56534916D01*
X103778654Y-56717665D01*
X103778654Y-56944569D01*
X103852775Y-57123513D01*
X103878314Y-57263350D01*
X104002691Y-57485441D01*
X104118913Y-57766026D01*
X104211902Y-57859015D01*
X104240129Y-57909418D01*
X104452691Y-58099804D01*
X104747628Y-58394741D01*
X105569085Y-58735000D01*
X106078210Y-58735000D01*
X106212214Y-58744488D01*
X106247998Y-58735000D01*
X106458223Y-58735000D01*
X106832145Y-58580116D01*
X106927965Y-58554710D01*
X106984208Y-58517130D01*
X107279680Y-58394741D01*
X107505823Y-58168598D01*
X107543654Y-58143320D01*
X107584106Y-58090315D01*
X107908395Y-57766026D01*
X108248654Y-56944569D01*
X108248654Y-56055431D01*
X107908395Y-55233974D01*
X107560825Y-54886404D01*
X107517643Y-54831628D01*
X107484920Y-54810499D01*
X107409421Y-54735000D01*
X132617887Y-54735000D01*
X132446954Y-54905933D01*
X132218200Y-55117391D01*
X132197931Y-55154956D01*
X132118913Y-55233974D01*
X131998695Y-55524207D01*
X131866578Y-55769062D01*
X131845958Y-55892944D01*
X131778654Y-56055431D01*
X131778654Y-56297305D01*
X131745000Y-56499496D01*
X131745278Y-56534916D01*
X131778654Y-56717665D01*
X131778654Y-56944569D01*
X131852775Y-57123513D01*
X131878314Y-57263350D01*
X132002691Y-57485441D01*
X132118913Y-57766026D01*
X132211902Y-57859015D01*
X132240129Y-57909418D01*
X132452691Y-58099804D01*
X132747628Y-58394741D01*
X133569085Y-58735000D01*
X134078210Y-58735000D01*
X134212214Y-58744488D01*
X134247998Y-58735000D01*
X134458223Y-58735000D01*
X134832145Y-58580116D01*
X134927965Y-58554710D01*
X134984208Y-58517130D01*
X135279680Y-58394741D01*
X135505823Y-58168598D01*
X135543654Y-58143320D01*
X135584106Y-58090315D01*
X135908395Y-57766026D01*
X136248654Y-56944569D01*
X136248654Y-56055431D01*
X135908395Y-55233974D01*
X135560825Y-54886404D01*
X135517643Y-54831628D01*
X135484920Y-54810499D01*
X135409421Y-54735000D01*
X136265000Y-54735000D01*
X136265000Y-55927612D01*
X136250601Y-56000000D01*
X136307646Y-56286782D01*
X136307646Y-56286783D01*
X136470095Y-56529905D01*
X136531462Y-56570909D01*
X139429089Y-59468535D01*
X139470095Y-59529905D01*
X139713217Y-59692354D01*
X139927612Y-59735000D01*
X139927616Y-59735000D01*
X140000000Y-59749398D01*
X140072384Y-59735000D01*
X188265000Y-59735000D01*
X188265000Y-64306554D01*
X185924334Y-64306554D01*
X185924334Y-63894806D01*
X185766765Y-63514400D01*
X185475614Y-63223249D01*
X185095208Y-63065680D01*
X184683460Y-63065680D01*
X184660226Y-63075304D01*
X184586342Y-63090000D01*
X181267363Y-63090000D01*
X181174932Y-62997569D01*
X180794526Y-62840000D01*
X180382778Y-62840000D01*
X180002372Y-62997569D01*
X179711221Y-63288720D01*
X179553652Y-63669126D01*
X179553652Y-64080874D01*
X179711221Y-64461280D01*
X179780815Y-64530874D01*
X150298654Y-64530874D01*
X150298654Y-64119126D01*
X150141085Y-63738720D01*
X149849934Y-63447569D01*
X149469528Y-63290000D01*
X149057780Y-63290000D01*
X148677374Y-63447569D01*
X148584943Y-63540000D01*
X146440976Y-63540000D01*
X146363664Y-63524622D01*
X146286352Y-63540000D01*
X146286348Y-63540000D01*
X146057372Y-63585546D01*
X145797711Y-63759047D01*
X145753915Y-63824592D01*
X145438497Y-64140010D01*
X145307780Y-64140010D01*
X144927374Y-64297579D01*
X144636223Y-64588730D01*
X144478654Y-64969136D01*
X144478654Y-65255874D01*
X139048654Y-65255874D01*
X139048654Y-64844126D01*
X138891085Y-64463720D01*
X138798654Y-64371289D01*
X138798653Y-62778722D01*
X138891085Y-62686290D01*
X139048654Y-62305884D01*
X139048654Y-61894136D01*
X138891085Y-61513730D01*
X138599934Y-61222579D01*
X138219528Y-61065010D01*
X137807780Y-61065010D01*
X137427374Y-61222579D01*
X137136223Y-61513730D01*
X136978654Y-61894136D01*
X136978654Y-62305884D01*
X137136223Y-62686290D01*
X137228654Y-62778721D01*
X137228654Y-64371289D01*
X137136223Y-64463720D01*
X136978654Y-64844126D01*
X136978654Y-65255874D01*
X137136223Y-65636280D01*
X137427374Y-65927431D01*
X137807780Y-66085000D01*
X138219528Y-66085000D01*
X138599934Y-65927431D01*
X138891085Y-65636280D01*
X139048654Y-65255874D01*
X144478654Y-65255874D01*
X144478654Y-65380884D01*
X144636223Y-65761290D01*
X144927374Y-66052441D01*
X145307780Y-66210010D01*
X145719528Y-66210010D01*
X146099934Y-66052441D01*
X146391085Y-65761290D01*
X146548654Y-65380884D01*
X146548654Y-65250167D01*
X146688821Y-65110000D01*
X148584943Y-65110000D01*
X148677374Y-65202431D01*
X149057780Y-65360000D01*
X149469528Y-65360000D01*
X149849934Y-65202431D01*
X150141085Y-64911280D01*
X150298654Y-64530874D01*
X179780815Y-64530874D01*
X180002372Y-64752431D01*
X180382778Y-64910000D01*
X180794526Y-64910000D01*
X181174932Y-64752431D01*
X181267363Y-64660000D01*
X184000736Y-64660000D01*
X184011903Y-64686960D01*
X184303054Y-64978111D01*
X184683460Y-65135680D01*
X185095208Y-65135680D01*
X185475614Y-64978111D01*
X185766765Y-64686960D01*
X185924334Y-64306554D01*
X188265000Y-64306554D01*
X188265000Y-67005864D01*
X128948654Y-67005864D01*
X128948654Y-66594116D01*
X128791085Y-66213710D01*
X128698653Y-66121278D01*
X128698654Y-58728711D01*
X128791085Y-58636280D01*
X128948654Y-58255874D01*
X128948654Y-57844126D01*
X128791085Y-57463720D01*
X128499934Y-57172569D01*
X128119528Y-57015000D01*
X127707780Y-57015000D01*
X127327374Y-57172569D01*
X127036223Y-57463720D01*
X126878654Y-57844126D01*
X126878654Y-58255874D01*
X127036223Y-58636280D01*
X127128654Y-58728711D01*
X127128654Y-66121279D01*
X127036223Y-66213710D01*
X126878654Y-66594116D01*
X126878654Y-67005864D01*
X127023632Y-67355874D01*
X117348654Y-67355874D01*
X117348654Y-66944126D01*
X117191085Y-66563720D01*
X116899934Y-66272569D01*
X116519528Y-66115000D01*
X116388811Y-66115000D01*
X115223401Y-64949589D01*
X115179607Y-64884047D01*
X115114065Y-64840253D01*
X115114063Y-64840251D01*
X114993959Y-64760000D01*
X114919946Y-64710546D01*
X114690970Y-64665000D01*
X114690967Y-64665000D01*
X114613655Y-64649622D01*
X114536343Y-64665000D01*
X112192970Y-64665000D01*
X112115658Y-64649622D01*
X112038346Y-64665000D01*
X112038342Y-64665000D01*
X111809366Y-64710546D01*
X111549705Y-64884047D01*
X111505909Y-64949592D01*
X110940498Y-65515002D01*
X107538796Y-65515002D01*
X107423398Y-65399603D01*
X107048648Y-65024853D01*
X107048648Y-64894136D01*
X106891079Y-64513730D01*
X106798648Y-64421299D01*
X106798647Y-62810549D01*
X106822906Y-62786290D01*
X106980475Y-62405884D01*
X106980475Y-61994136D01*
X106822906Y-61613730D01*
X106531755Y-61322579D01*
X106151349Y-61165010D01*
X105739601Y-61165010D01*
X105359195Y-61322579D01*
X105068044Y-61613730D01*
X104910475Y-61994136D01*
X104910475Y-62405884D01*
X105068044Y-62786290D01*
X105228648Y-62946894D01*
X105228648Y-63930874D01*
X95473654Y-63930874D01*
X95473654Y-63519126D01*
X95316085Y-63138720D01*
X95024934Y-62847569D01*
X94644528Y-62690000D01*
X94232780Y-62690000D01*
X93852374Y-62847569D01*
X93609943Y-63090000D01*
X91442365Y-63090000D01*
X91349934Y-62997569D01*
X90969528Y-62840000D01*
X90557780Y-62840000D01*
X90177374Y-62997569D01*
X89886223Y-63288720D01*
X89728654Y-63669126D01*
X89728654Y-64080874D01*
X59473654Y-64080874D01*
X59473654Y-63669126D01*
X59316085Y-63288720D01*
X59024934Y-62997569D01*
X58644528Y-62840000D01*
X58232780Y-62840000D01*
X57852374Y-62997569D01*
X57561223Y-63288720D01*
X57403654Y-63669126D01*
X57403654Y-63799843D01*
X57338497Y-63865000D01*
X55417365Y-63865000D01*
X55324934Y-63772569D01*
X54944528Y-63615000D01*
X54532780Y-63615000D01*
X54152374Y-63772569D01*
X53861223Y-64063720D01*
X53703654Y-64444126D01*
X53703654Y-64855874D01*
X53861223Y-65236280D01*
X54152374Y-65527431D01*
X54532780Y-65685000D01*
X54944528Y-65685000D01*
X55324934Y-65527431D01*
X55417365Y-65435000D01*
X57586342Y-65435000D01*
X57663654Y-65450378D01*
X57740966Y-65435000D01*
X57740970Y-65435000D01*
X57969946Y-65389454D01*
X58229607Y-65215953D01*
X58273403Y-65150408D01*
X58513811Y-64910000D01*
X58644528Y-64910000D01*
X59024934Y-64752431D01*
X59316085Y-64461280D01*
X59473654Y-64080874D01*
X89728654Y-64080874D01*
X89886223Y-64461280D01*
X90177374Y-64752431D01*
X90557780Y-64910000D01*
X90969528Y-64910000D01*
X91349934Y-64752431D01*
X91442365Y-64660000D01*
X93991358Y-64660000D01*
X94232780Y-64760000D01*
X94644528Y-64760000D01*
X95024934Y-64602431D01*
X95316085Y-64311280D01*
X95473654Y-63930874D01*
X105228648Y-63930874D01*
X105228648Y-64421299D01*
X105136217Y-64513730D01*
X104978648Y-64894136D01*
X104978648Y-65305884D01*
X105136217Y-65686290D01*
X105427368Y-65977441D01*
X105807774Y-66135010D01*
X105938491Y-66135010D01*
X106603890Y-66800409D01*
X106647687Y-66865955D01*
X106907348Y-67039456D01*
X107136324Y-67085002D01*
X107136328Y-67085002D01*
X107213640Y-67100380D01*
X107290952Y-67085002D01*
X111188346Y-67085002D01*
X111265657Y-67100380D01*
X111342968Y-67085002D01*
X111342972Y-67085002D01*
X111571948Y-67039456D01*
X111571950Y-67039455D01*
X111571949Y-67039455D01*
X111766065Y-66909751D01*
X111766067Y-66909749D01*
X111831609Y-66865955D01*
X111875403Y-66800413D01*
X112440815Y-66235000D01*
X114288496Y-66235000D01*
X115278654Y-67225157D01*
X115278654Y-67355874D01*
X115436223Y-67736280D01*
X115727374Y-68027431D01*
X116107780Y-68185000D01*
X116519528Y-68185000D01*
X116899934Y-68027431D01*
X117191085Y-67736280D01*
X117348654Y-67355874D01*
X127023632Y-67355874D01*
X127036223Y-67386270D01*
X127327374Y-67677421D01*
X127707780Y-67834990D01*
X128119528Y-67834990D01*
X128499934Y-67677421D01*
X128791085Y-67386270D01*
X128948654Y-67005864D01*
X188265000Y-67005864D01*
X188265000Y-68265000D01*
X51735000Y-68265000D01*
X51734999Y-59735000D01*
X51734999Y-59735000D01*
G37*
X51734999Y-59735000D02*
X99927612Y-59735000D01*
X100000000Y-59749399D01*
X100072388Y-59735000D01*
X100286783Y-59692354D01*
X100529905Y-59529905D01*
X100570909Y-59468537D01*
X103468537Y-56570909D01*
X103529904Y-56529905D01*
X103570908Y-56468538D01*
X103570909Y-56468537D01*
X103692354Y-56286782D01*
X103749398Y-56000000D01*
X103734999Y-55927611D01*
X103735000Y-54735000D01*
X104617887Y-54735000D01*
X104446954Y-54905933D01*
X104218200Y-55117391D01*
X104197931Y-55154956D01*
X104118913Y-55233974D01*
X103998695Y-55524207D01*
X103866578Y-55769062D01*
X103845958Y-55892944D01*
X103778654Y-56055431D01*
X103778654Y-56297305D01*
X103745000Y-56499496D01*
X103745278Y-56534916D01*
X103778654Y-56717665D01*
X103778654Y-56944569D01*
X103852775Y-57123513D01*
X103878314Y-57263350D01*
X104002691Y-57485441D01*
X104118913Y-57766026D01*
X104211902Y-57859015D01*
X104240129Y-57909418D01*
X104452691Y-58099804D01*
X104747628Y-58394741D01*
X105569085Y-58735000D01*
X106078210Y-58735000D01*
X106212214Y-58744488D01*
X106247998Y-58735000D01*
X106458223Y-58735000D01*
X106832145Y-58580116D01*
X106927965Y-58554710D01*
X106984208Y-58517130D01*
X107279680Y-58394741D01*
X107505823Y-58168598D01*
X107543654Y-58143320D01*
X107584106Y-58090315D01*
X107908395Y-57766026D01*
X108248654Y-56944569D01*
X108248654Y-56055431D01*
X107908395Y-55233974D01*
X107560825Y-54886404D01*
X107517643Y-54831628D01*
X107484920Y-54810499D01*
X107409421Y-54735000D01*
X132617887Y-54735000D01*
X132446954Y-54905933D01*
X132218200Y-55117391D01*
X132197931Y-55154956D01*
X132118913Y-55233974D01*
X131998695Y-55524207D01*
X131866578Y-55769062D01*
X131845958Y-55892944D01*
X131778654Y-56055431D01*
X131778654Y-56297305D01*
X131745000Y-56499496D01*
X131745278Y-56534916D01*
X131778654Y-56717665D01*
X131778654Y-56944569D01*
X131852775Y-57123513D01*
X131878314Y-57263350D01*
X132002691Y-57485441D01*
X132118913Y-57766026D01*
X132211902Y-57859015D01*
X132240129Y-57909418D01*
X132452691Y-58099804D01*
X132747628Y-58394741D01*
X133569085Y-58735000D01*
X134078210Y-58735000D01*
X134212214Y-58744488D01*
X134247998Y-58735000D01*
X134458223Y-58735000D01*
X134832145Y-58580116D01*
X134927965Y-58554710D01*
X134984208Y-58517130D01*
X135279680Y-58394741D01*
X135505823Y-58168598D01*
X135543654Y-58143320D01*
X135584106Y-58090315D01*
X135908395Y-57766026D01*
X136248654Y-56944569D01*
X136248654Y-56055431D01*
X135908395Y-55233974D01*
X135560825Y-54886404D01*
X135517643Y-54831628D01*
X135484920Y-54810499D01*
X135409421Y-54735000D01*
X136265000Y-54735000D01*
X136265000Y-55927612D01*
X136250601Y-56000000D01*
X136307646Y-56286782D01*
X136307646Y-56286783D01*
X136470095Y-56529905D01*
X136531462Y-56570909D01*
X139429089Y-59468535D01*
X139470095Y-59529905D01*
X139713217Y-59692354D01*
X139927612Y-59735000D01*
X139927616Y-59735000D01*
X140000000Y-59749398D01*
X140072384Y-59735000D01*
X188265000Y-59735000D01*
X188265000Y-64306554D01*
X185924334Y-64306554D01*
X185924334Y-63894806D01*
X185766765Y-63514400D01*
X185475614Y-63223249D01*
X185095208Y-63065680D01*
X184683460Y-63065680D01*
X184660226Y-63075304D01*
X184586342Y-63090000D01*
X181267363Y-63090000D01*
X181174932Y-62997569D01*
X180794526Y-62840000D01*
X180382778Y-62840000D01*
X180002372Y-62997569D01*
X179711221Y-63288720D01*
X179553652Y-63669126D01*
X179553652Y-64080874D01*
X179711221Y-64461280D01*
X179780815Y-64530874D01*
X150298654Y-64530874D01*
X150298654Y-64119126D01*
X150141085Y-63738720D01*
X149849934Y-63447569D01*
X149469528Y-63290000D01*
X149057780Y-63290000D01*
X148677374Y-63447569D01*
X148584943Y-63540000D01*
X146440976Y-63540000D01*
X146363664Y-63524622D01*
X146286352Y-63540000D01*
X146286348Y-63540000D01*
X146057372Y-63585546D01*
X145797711Y-63759047D01*
X145753915Y-63824592D01*
X145438497Y-64140010D01*
X145307780Y-64140010D01*
X144927374Y-64297579D01*
X144636223Y-64588730D01*
X144478654Y-64969136D01*
X144478654Y-65255874D01*
X139048654Y-65255874D01*
X139048654Y-64844126D01*
X138891085Y-64463720D01*
X138798654Y-64371289D01*
X138798653Y-62778722D01*
X138891085Y-62686290D01*
X139048654Y-62305884D01*
X139048654Y-61894136D01*
X138891085Y-61513730D01*
X138599934Y-61222579D01*
X138219528Y-61065010D01*
X137807780Y-61065010D01*
X137427374Y-61222579D01*
X137136223Y-61513730D01*
X136978654Y-61894136D01*
X136978654Y-62305884D01*
X137136223Y-62686290D01*
X137228654Y-62778721D01*
X137228654Y-64371289D01*
X137136223Y-64463720D01*
X136978654Y-64844126D01*
X136978654Y-65255874D01*
X137136223Y-65636280D01*
X137427374Y-65927431D01*
X137807780Y-66085000D01*
X138219528Y-66085000D01*
X138599934Y-65927431D01*
X138891085Y-65636280D01*
X139048654Y-65255874D01*
X144478654Y-65255874D01*
X144478654Y-65380884D01*
X144636223Y-65761290D01*
X144927374Y-66052441D01*
X145307780Y-66210010D01*
X145719528Y-66210010D01*
X146099934Y-66052441D01*
X146391085Y-65761290D01*
X146548654Y-65380884D01*
X146548654Y-65250167D01*
X146688821Y-65110000D01*
X148584943Y-65110000D01*
X148677374Y-65202431D01*
X149057780Y-65360000D01*
X149469528Y-65360000D01*
X149849934Y-65202431D01*
X150141085Y-64911280D01*
X150298654Y-64530874D01*
X179780815Y-64530874D01*
X180002372Y-64752431D01*
X180382778Y-64910000D01*
X180794526Y-64910000D01*
X181174932Y-64752431D01*
X181267363Y-64660000D01*
X184000736Y-64660000D01*
X184011903Y-64686960D01*
X184303054Y-64978111D01*
X184683460Y-65135680D01*
X185095208Y-65135680D01*
X185475614Y-64978111D01*
X185766765Y-64686960D01*
X185924334Y-64306554D01*
X188265000Y-64306554D01*
X188265000Y-67005864D01*
X128948654Y-67005864D01*
X128948654Y-66594116D01*
X128791085Y-66213710D01*
X128698653Y-66121278D01*
X128698654Y-58728711D01*
X128791085Y-58636280D01*
X128948654Y-58255874D01*
X128948654Y-57844126D01*
X128791085Y-57463720D01*
X128499934Y-57172569D01*
X128119528Y-57015000D01*
X127707780Y-57015000D01*
X127327374Y-57172569D01*
X127036223Y-57463720D01*
X126878654Y-57844126D01*
X126878654Y-58255874D01*
X127036223Y-58636280D01*
X127128654Y-58728711D01*
X127128654Y-66121279D01*
X127036223Y-66213710D01*
X126878654Y-66594116D01*
X126878654Y-67005864D01*
X127023632Y-67355874D01*
X117348654Y-67355874D01*
X117348654Y-66944126D01*
X117191085Y-66563720D01*
X116899934Y-66272569D01*
X116519528Y-66115000D01*
X116388811Y-66115000D01*
X115223401Y-64949589D01*
X115179607Y-64884047D01*
X115114065Y-64840253D01*
X115114063Y-64840251D01*
X114993959Y-64760000D01*
X114919946Y-64710546D01*
X114690970Y-64665000D01*
X114690967Y-64665000D01*
X114613655Y-64649622D01*
X114536343Y-64665000D01*
X112192970Y-64665000D01*
X112115658Y-64649622D01*
X112038346Y-64665000D01*
X112038342Y-64665000D01*
X111809366Y-64710546D01*
X111549705Y-64884047D01*
X111505909Y-64949592D01*
X110940498Y-65515002D01*
X107538796Y-65515002D01*
X107423398Y-65399603D01*
X107048648Y-65024853D01*
X107048648Y-64894136D01*
X106891079Y-64513730D01*
X106798648Y-64421299D01*
X106798647Y-62810549D01*
X106822906Y-62786290D01*
X106980475Y-62405884D01*
X106980475Y-61994136D01*
X106822906Y-61613730D01*
X106531755Y-61322579D01*
X106151349Y-61165010D01*
X105739601Y-61165010D01*
X105359195Y-61322579D01*
X105068044Y-61613730D01*
X104910475Y-61994136D01*
X104910475Y-62405884D01*
X105068044Y-62786290D01*
X105228648Y-62946894D01*
X105228648Y-63930874D01*
X95473654Y-63930874D01*
X95473654Y-63519126D01*
X95316085Y-63138720D01*
X95024934Y-62847569D01*
X94644528Y-62690000D01*
X94232780Y-62690000D01*
X93852374Y-62847569D01*
X93609943Y-63090000D01*
X91442365Y-63090000D01*
X91349934Y-62997569D01*
X90969528Y-62840000D01*
X90557780Y-62840000D01*
X90177374Y-62997569D01*
X89886223Y-63288720D01*
X89728654Y-63669126D01*
X89728654Y-64080874D01*
X59473654Y-64080874D01*
X59473654Y-63669126D01*
X59316085Y-63288720D01*
X59024934Y-62997569D01*
X58644528Y-62840000D01*
X58232780Y-62840000D01*
X57852374Y-62997569D01*
X57561223Y-63288720D01*
X57403654Y-63669126D01*
X57403654Y-63799843D01*
X57338497Y-63865000D01*
X55417365Y-63865000D01*
X55324934Y-63772569D01*
X54944528Y-63615000D01*
X54532780Y-63615000D01*
X54152374Y-63772569D01*
X53861223Y-64063720D01*
X53703654Y-64444126D01*
X53703654Y-64855874D01*
X53861223Y-65236280D01*
X54152374Y-65527431D01*
X54532780Y-65685000D01*
X54944528Y-65685000D01*
X55324934Y-65527431D01*
X55417365Y-65435000D01*
X57586342Y-65435000D01*
X57663654Y-65450378D01*
X57740966Y-65435000D01*
X57740970Y-65435000D01*
X57969946Y-65389454D01*
X58229607Y-65215953D01*
X58273403Y-65150408D01*
X58513811Y-64910000D01*
X58644528Y-64910000D01*
X59024934Y-64752431D01*
X59316085Y-64461280D01*
X59473654Y-64080874D01*
X89728654Y-64080874D01*
X89886223Y-64461280D01*
X90177374Y-64752431D01*
X90557780Y-64910000D01*
X90969528Y-64910000D01*
X91349934Y-64752431D01*
X91442365Y-64660000D01*
X93991358Y-64660000D01*
X94232780Y-64760000D01*
X94644528Y-64760000D01*
X95024934Y-64602431D01*
X95316085Y-64311280D01*
X95473654Y-63930874D01*
X105228648Y-63930874D01*
X105228648Y-64421299D01*
X105136217Y-64513730D01*
X104978648Y-64894136D01*
X104978648Y-65305884D01*
X105136217Y-65686290D01*
X105427368Y-65977441D01*
X105807774Y-66135010D01*
X105938491Y-66135010D01*
X106603890Y-66800409D01*
X106647687Y-66865955D01*
X106907348Y-67039456D01*
X107136324Y-67085002D01*
X107136328Y-67085002D01*
X107213640Y-67100380D01*
X107290952Y-67085002D01*
X111188346Y-67085002D01*
X111265657Y-67100380D01*
X111342968Y-67085002D01*
X111342972Y-67085002D01*
X111571948Y-67039456D01*
X111571950Y-67039455D01*
X111571949Y-67039455D01*
X111766065Y-66909751D01*
X111766067Y-66909749D01*
X111831609Y-66865955D01*
X111875403Y-66800413D01*
X112440815Y-66235000D01*
X114288496Y-66235000D01*
X115278654Y-67225157D01*
X115278654Y-67355874D01*
X115436223Y-67736280D01*
X115727374Y-68027431D01*
X116107780Y-68185000D01*
X116519528Y-68185000D01*
X116899934Y-68027431D01*
X117191085Y-67736280D01*
X117348654Y-67355874D01*
X127023632Y-67355874D01*
X127036223Y-67386270D01*
X127327374Y-67677421D01*
X127707780Y-67834990D01*
X128119528Y-67834990D01*
X128499934Y-67677421D01*
X128791085Y-67386270D01*
X128948654Y-67005864D01*
X188265000Y-67005864D01*
X188265000Y-68265000D01*
X51735000Y-68265000D01*
X51734999Y-59735000D01*
M02*
