G04 #@! TF.GenerationSoftware,KiCad,Pcbnew,(5.0.0)*
G04 #@! TF.CreationDate,2018-08-29T14:06:50+09:00*
G04 #@! TF.ProjectId,lancer_sensorbord_v1,6C616E6365725F73656E736F72626F72,rev?*
G04 #@! TF.SameCoordinates,Original*
G04 #@! TF.FileFunction,Copper,L2,Bot,Signal*
G04 #@! TF.FilePolarity,Positive*
%FSLAX46Y46*%
G04 Gerber Fmt 4.6, Leading zero omitted, Abs format (unit mm)*
G04 Created by KiCad (PCBNEW (5.0.0)) date 08/29/18 14:06:50*
%MOMM*%
%LPD*%
G01*
G04 APERTURE LIST*
G04 #@! TA.AperFunction,SMDPad,CuDef*
%ADD10R,1.200000X1.100000*%
G04 #@! TD*
G04 #@! TA.AperFunction,SMDPad,CuDef*
%ADD11R,0.300000X1.250000*%
G04 #@! TD*
G04 #@! TA.AperFunction,SMDPad,CuDef*
%ADD12R,1.800000X2.000000*%
G04 #@! TD*
G04 #@! TA.AperFunction,ViaPad*
%ADD13C,0.800000*%
G04 #@! TD*
G04 #@! TA.AperFunction,Conductor*
%ADD14C,0.250000*%
G04 #@! TD*
G04 #@! TA.AperFunction,Conductor*
%ADD15C,0.500000*%
G04 #@! TD*
G04 #@! TA.AperFunction,Conductor*
%ADD16C,0.200000*%
G04 #@! TD*
G04 #@! TA.AperFunction,Conductor*
%ADD17C,0.254000*%
G04 #@! TD*
G04 APERTURE END LIST*
D10*
G04 #@! TO.P,PI4,3*
G04 #@! TO.N,GND*
X168400000Y-98700000D03*
G04 #@! TO.P,PI4,2*
G04 #@! TO.N,ANALOG_SEN4*
X165100000Y-98700000D03*
G04 #@! TO.P,PI4,4*
G04 #@! TO.N,VR4*
X168400000Y-96300000D03*
G04 #@! TO.P,PI4,1*
G04 #@! TO.N,GND*
X165100000Y-96300000D03*
G04 #@! TD*
D11*
G04 #@! TO.P,LineSensor,14*
G04 #@! TO.N,GND*
X154300000Y-104900000D03*
G04 #@! TO.P,LineSensor,13*
G04 #@! TO.N,VR6*
X153800000Y-104900000D03*
G04 #@! TO.P,LineSensor,12*
G04 #@! TO.N,ANALOG_SEN6*
X153300000Y-104900000D03*
G04 #@! TO.P,LineSensor,11*
G04 #@! TO.N,VR5*
X152800000Y-104900000D03*
G04 #@! TO.P,LineSensor,10*
G04 #@! TO.N,ANALOG_SEN5*
X152300000Y-104900000D03*
G04 #@! TO.P,LineSensor,9*
G04 #@! TO.N,VR4*
X151800000Y-104900000D03*
G04 #@! TO.P,LineSensor,8*
G04 #@! TO.N,ANALOG_SEN4*
X151300000Y-104900000D03*
G04 #@! TO.P,LineSensor,7*
G04 #@! TO.N,VR3*
X150800000Y-104900000D03*
G04 #@! TO.P,LineSensor,6*
G04 #@! TO.N,ANALOG_SEN3*
X150300000Y-104900000D03*
G04 #@! TO.P,LineSensor,5*
G04 #@! TO.N,VR2*
X149800000Y-104900000D03*
G04 #@! TO.P,LineSensor,4*
G04 #@! TO.N,ANALOG_SEN2*
X149300000Y-104900000D03*
G04 #@! TO.P,LineSensor,3*
G04 #@! TO.N,VR1*
X148800000Y-104900000D03*
G04 #@! TO.P,LineSensor,2*
G04 #@! TO.N,ANALOG_SEN1*
X148300000Y-104900000D03*
D12*
G04 #@! TO.P,LineSensor,*
G04 #@! TO.N,*
X146150000Y-107575000D03*
X155950000Y-107575000D03*
D11*
G04 #@! TO.P,LineSensor,1*
G04 #@! TO.N,+3V3*
X147800000Y-104900000D03*
X147800000Y-104900000D03*
D12*
G04 #@! TO.P,LineSensor,*
G04 #@! TO.N,*
X155950000Y-107575000D03*
X146150000Y-107575000D03*
D11*
G04 #@! TO.P,LineSensor,2*
G04 #@! TO.N,ANALOG_SEN1*
X148300000Y-104900000D03*
G04 #@! TO.P,LineSensor,3*
G04 #@! TO.N,VR1*
X148800000Y-104900000D03*
G04 #@! TO.P,LineSensor,4*
G04 #@! TO.N,ANALOG_SEN2*
X149300000Y-104900000D03*
G04 #@! TO.P,LineSensor,5*
G04 #@! TO.N,VR2*
X149800000Y-104900000D03*
G04 #@! TO.P,LineSensor,6*
G04 #@! TO.N,ANALOG_SEN3*
X150300000Y-104900000D03*
G04 #@! TO.P,LineSensor,7*
G04 #@! TO.N,VR3*
X150800000Y-104900000D03*
G04 #@! TO.P,LineSensor,8*
G04 #@! TO.N,ANALOG_SEN4*
X151300000Y-104900000D03*
G04 #@! TO.P,LineSensor,9*
G04 #@! TO.N,VR4*
X151800000Y-104900000D03*
G04 #@! TO.P,LineSensor,10*
G04 #@! TO.N,ANALOG_SEN5*
X152300000Y-104900000D03*
G04 #@! TO.P,LineSensor,11*
G04 #@! TO.N,VR5*
X152800000Y-104900000D03*
G04 #@! TO.P,LineSensor,12*
G04 #@! TO.N,ANALOG_SEN6*
X153300000Y-104900000D03*
G04 #@! TO.P,LineSensor,13*
G04 #@! TO.N,VR6*
X153800000Y-104900000D03*
G04 #@! TO.P,LineSensor,14*
G04 #@! TO.N,GND*
X154300000Y-104900000D03*
G04 #@! TD*
D10*
G04 #@! TO.P,PI2,3*
G04 #@! TO.N,GND*
X127500000Y-98700000D03*
G04 #@! TO.P,PI2,2*
G04 #@! TO.N,ANALOG_SEN2*
X124200000Y-98700000D03*
G04 #@! TO.P,PI2,4*
G04 #@! TO.N,VR2*
X127500000Y-96300000D03*
G04 #@! TO.P,PI2,1*
G04 #@! TO.N,GND*
X124200000Y-96300000D03*
G04 #@! TD*
G04 #@! TO.P,PI5,3*
G04 #@! TO.N,GND*
X174500000Y-96400000D03*
G04 #@! TO.P,PI5,2*
G04 #@! TO.N,ANALOG_SEN5*
X177800000Y-96400000D03*
G04 #@! TO.P,PI5,4*
G04 #@! TO.N,VR5*
X174500000Y-98800000D03*
G04 #@! TO.P,PI5,1*
G04 #@! TO.N,GND*
X177800000Y-98800000D03*
G04 #@! TD*
G04 #@! TO.P,PI6,3*
G04 #@! TO.N,GND*
X214400000Y-96400000D03*
G04 #@! TO.P,PI6,2*
G04 #@! TO.N,ANALOG_SEN6*
X217700000Y-96400000D03*
G04 #@! TO.P,PI6,4*
G04 #@! TO.N,VR6*
X214400000Y-98800000D03*
G04 #@! TO.P,PI6,1*
G04 #@! TO.N,GND*
X217700000Y-98800000D03*
G04 #@! TD*
G04 #@! TO.P,PI1,3*
G04 #@! TO.N,GND*
X87600000Y-98700000D03*
G04 #@! TO.P,PI1,2*
G04 #@! TO.N,ANALOG_SEN1*
X84300000Y-98700000D03*
G04 #@! TO.P,PI1,4*
G04 #@! TO.N,VR1*
X87600000Y-96300000D03*
G04 #@! TO.P,PI1,1*
G04 #@! TO.N,GND*
X84300000Y-96300000D03*
G04 #@! TD*
G04 #@! TO.P,PI3,3*
G04 #@! TO.N,GND*
X133600000Y-96400000D03*
G04 #@! TO.P,PI3,2*
G04 #@! TO.N,ANALOG_SEN3*
X136900000Y-96400000D03*
G04 #@! TO.P,PI3,4*
G04 #@! TO.N,VR3*
X133600000Y-98800000D03*
G04 #@! TO.P,PI3,1*
G04 #@! TO.N,GND*
X136900000Y-98800000D03*
G04 #@! TD*
D13*
G04 #@! TO.N,+3V3*
X131300000Y-98800000D03*
X132400000Y-100900000D03*
X146800000Y-104900000D03*
G04 #@! TO.N,GND*
X87600000Y-100000000D03*
X155100000Y-104900000D03*
X217700000Y-99900000D03*
G04 #@! TO.N,ANALOG_SEN1*
X94400000Y-98800000D03*
G04 #@! TO.N,ANALOG_SEN2*
X122200000Y-98500000D03*
G04 #@! TO.N,ANALOG_SEN3*
X145600000Y-98100000D03*
G04 #@! TO.N,ANALOG_SEN4*
X159700000Y-98700000D03*
G04 #@! TO.N,ANALOG_SEN5*
X179500000Y-98900000D03*
X172400000Y-101500000D03*
X175200000Y-101500000D03*
G04 #@! TO.N,ANALOG_SEN6*
X206700000Y-98700000D03*
X212500000Y-95700000D03*
G04 #@! TO.N,VR3*
X149900000Y-101000000D03*
X147000000Y-101000000D03*
G04 #@! TD*
D14*
G04 #@! TO.N,+3V3*
X147800000Y-104900000D02*
X146800000Y-104900000D01*
D15*
X131300000Y-99800000D02*
X131300000Y-98800000D01*
X132400000Y-100900000D02*
X131300000Y-99800000D01*
G04 #@! TO.N,GND*
X87600000Y-100000000D02*
X87600000Y-98700000D01*
D14*
X154300000Y-104900000D02*
X155100000Y-104900000D01*
D15*
X217700000Y-99900000D02*
X217700000Y-98800000D01*
D14*
G04 #@! TO.N,ANALOG_SEN1*
X94400000Y-100900000D02*
X96900000Y-103400000D01*
X94400000Y-98800000D02*
X94400000Y-100900000D01*
X148300000Y-103800000D02*
X148300000Y-104900000D01*
X147900000Y-103400000D02*
X148300000Y-103800000D01*
X96900000Y-103400000D02*
X147900000Y-103400000D01*
X84300000Y-98700000D02*
X84300000Y-101300000D01*
X86400000Y-103400000D02*
X96900000Y-103400000D01*
X84300000Y-101300000D02*
X86400000Y-103400000D01*
G04 #@! TO.N,ANALOG_SEN2*
X122400000Y-98700000D02*
X124200000Y-98700000D01*
X122200000Y-98500000D02*
X122400000Y-98700000D01*
X124200000Y-98700000D02*
X124200000Y-101400000D01*
X149300000Y-103200000D02*
X149300000Y-104900000D01*
X148400000Y-102300000D02*
X149300000Y-103200000D01*
X125100000Y-102300000D02*
X148400000Y-102300000D01*
X124200000Y-101400000D02*
X125100000Y-102300000D01*
G04 #@! TO.N,ANALOG_SEN3*
X136900000Y-96400000D02*
X143900000Y-96400000D01*
X143900000Y-96400000D02*
X145600000Y-98100000D01*
X150300000Y-102800000D02*
X150300000Y-104900000D01*
X145600000Y-98100000D02*
X150300000Y-102800000D01*
G04 #@! TO.N,ANALOG_SEN4*
X165100000Y-98700000D02*
X159700000Y-98700000D01*
X159700000Y-98700000D02*
X155200000Y-98700000D01*
X155200000Y-98700000D02*
X151300000Y-102600000D01*
X151300000Y-102600000D02*
X151300000Y-104900000D01*
G04 #@! TO.N,ANALOG_SEN5*
X177800000Y-96400000D02*
X178600000Y-96400000D01*
X179500000Y-97300000D02*
X179500000Y-98900000D01*
X178600000Y-96400000D02*
X179500000Y-97300000D01*
X179500000Y-98900000D02*
X179500000Y-101100000D01*
X152300000Y-103000000D02*
X152300000Y-104900000D01*
X153500000Y-101800000D02*
X152300000Y-103000000D01*
X172100000Y-101800000D02*
X153500000Y-101800000D01*
X172400000Y-101500000D02*
X172100000Y-101800000D01*
X179100000Y-101500000D02*
X175200000Y-101500000D01*
X179500000Y-101100000D02*
X179100000Y-101500000D01*
G04 #@! TO.N,ANALOG_SEN6*
X153300000Y-103400000D02*
X153300000Y-104900000D01*
X153900000Y-102800000D02*
X153300000Y-103400000D01*
X202600000Y-102800000D02*
X153900000Y-102800000D01*
X206700000Y-98700000D02*
X202600000Y-102800000D01*
X217700000Y-96400000D02*
X217700000Y-95500000D01*
X213300000Y-94900000D02*
X212500000Y-95700000D01*
X217100000Y-94900000D02*
X213300000Y-94900000D01*
X217700000Y-95500000D02*
X217100000Y-94900000D01*
G04 #@! TO.N,VR1*
X87600000Y-96300000D02*
X95100000Y-96300000D01*
X148800000Y-103400000D02*
X148800000Y-104900000D01*
X148200000Y-102800000D02*
X148800000Y-103400000D01*
X101600000Y-102800000D02*
X148200000Y-102800000D01*
X95100000Y-96300000D02*
X101600000Y-102800000D01*
G04 #@! TO.N,VR2*
X127500000Y-96300000D02*
X128100000Y-96300000D01*
X149800000Y-103000000D02*
X149800000Y-104900000D01*
X148600000Y-101800000D02*
X149800000Y-103000000D01*
X132000000Y-101800000D02*
X148600000Y-101800000D01*
X129500000Y-99300000D02*
X132000000Y-101800000D01*
X129500000Y-97700000D02*
X129500000Y-99300000D01*
X128100000Y-96300000D02*
X129500000Y-97700000D01*
G04 #@! TO.N,VR3*
X133600000Y-98800000D02*
X133600000Y-100200000D01*
X150800000Y-101900000D02*
X150800000Y-104900000D01*
X149900000Y-101000000D02*
X150800000Y-101900000D01*
X134400000Y-101000000D02*
X147000000Y-101000000D01*
X133600000Y-100200000D02*
X134400000Y-101000000D01*
G04 #@! TO.N,VR4*
X168400000Y-96300000D02*
X169300000Y-96300000D01*
X151800000Y-102800000D02*
X151800000Y-104900000D01*
X153300000Y-101300000D02*
X151800000Y-102800000D01*
X168900000Y-101300000D02*
X153300000Y-101300000D01*
X170300000Y-99900000D02*
X168900000Y-101300000D01*
X170300000Y-97300000D02*
X170300000Y-99900000D01*
X169300000Y-96300000D02*
X170300000Y-97300000D01*
G04 #@! TO.N,VR5*
X174500000Y-98800000D02*
X174500000Y-100800000D01*
X152800000Y-103200000D02*
X152800000Y-104900000D01*
X153700000Y-102300000D02*
X152800000Y-103200000D01*
X173000000Y-102300000D02*
X153700000Y-102300000D01*
X174500000Y-100800000D02*
X173000000Y-102300000D01*
D16*
G04 #@! TO.N,VR6*
X153806080Y-104893920D02*
X153800000Y-104900000D01*
D14*
X214400000Y-98800000D02*
X214400000Y-100500000D01*
X153800000Y-103700000D02*
X153800000Y-104900000D01*
X154100000Y-103400000D02*
X153800000Y-103700000D01*
X211500000Y-103400000D02*
X154100000Y-103400000D01*
X214400000Y-100500000D02*
X211500000Y-103400000D01*
G04 #@! TD*
D17*
G04 #@! TO.N,GND*
G36*
X162773000Y-106086117D02*
X162765000Y-106105431D01*
X162765000Y-106994569D01*
X163105259Y-107816026D01*
X163654233Y-108365000D01*
X157497440Y-108365000D01*
X157497440Y-106575000D01*
X157448157Y-106327235D01*
X157307809Y-106117191D01*
X157097765Y-105976843D01*
X156850000Y-105927560D01*
X155050000Y-105927560D01*
X154821555Y-105973000D01*
X154727000Y-105973000D01*
X154727000Y-105500000D01*
X154717333Y-105451399D01*
X154689803Y-105410197D01*
X154648601Y-105382667D01*
X154600000Y-105373000D01*
X154597440Y-105373000D01*
X154597440Y-104275000D01*
X154574565Y-104160000D01*
X162773000Y-104160000D01*
X162773000Y-106086117D01*
X162773000Y-106086117D01*
G37*
X162773000Y-106086117D02*
X162765000Y-106105431D01*
X162765000Y-106994569D01*
X163105259Y-107816026D01*
X163654233Y-108365000D01*
X157497440Y-108365000D01*
X157497440Y-106575000D01*
X157448157Y-106327235D01*
X157307809Y-106117191D01*
X157097765Y-105976843D01*
X156850000Y-105927560D01*
X155050000Y-105927560D01*
X154821555Y-105973000D01*
X154727000Y-105973000D01*
X154727000Y-105500000D01*
X154717333Y-105451399D01*
X154689803Y-105410197D01*
X154648601Y-105382667D01*
X154600000Y-105373000D01*
X154597440Y-105373000D01*
X154597440Y-104275000D01*
X154574565Y-104160000D01*
X162773000Y-104160000D01*
X162773000Y-106086117D01*
G36*
X211913720Y-94822569D02*
X211622569Y-95113720D01*
X211465000Y-95494126D01*
X211465000Y-95905874D01*
X211622569Y-96286280D01*
X211913720Y-96577431D01*
X212294126Y-96735000D01*
X212705874Y-96735000D01*
X213086280Y-96577431D01*
X213377431Y-96286280D01*
X213535000Y-95905874D01*
X213535000Y-95739802D01*
X213614802Y-95660000D01*
X216490353Y-95660000D01*
X216452560Y-95850000D01*
X216452560Y-96950000D01*
X216501843Y-97197765D01*
X216642191Y-97407809D01*
X216852235Y-97548157D01*
X217100000Y-97597440D01*
X218221627Y-97597440D01*
X218251399Y-97617333D01*
X218300000Y-97627000D01*
X219315001Y-97627000D01*
X219315000Y-103365000D01*
X212609801Y-103365000D01*
X214884476Y-101090327D01*
X214947929Y-101047929D01*
X214990327Y-100984476D01*
X214990329Y-100984474D01*
X215095549Y-100827000D01*
X215115904Y-100796537D01*
X215160000Y-100574852D01*
X215160000Y-100574848D01*
X215174888Y-100500001D01*
X215160000Y-100425154D01*
X215160000Y-99965614D01*
X215247765Y-99948157D01*
X215457809Y-99807809D01*
X215598157Y-99597765D01*
X215647440Y-99350000D01*
X215647440Y-98250000D01*
X215598157Y-98002235D01*
X215457809Y-97792191D01*
X215247765Y-97651843D01*
X215000000Y-97602560D01*
X213800000Y-97602560D01*
X213552235Y-97651843D01*
X213342191Y-97792191D01*
X213201843Y-98002235D01*
X213152560Y-98250000D01*
X213152560Y-99350000D01*
X213201843Y-99597765D01*
X213342191Y-99807809D01*
X213552235Y-99948157D01*
X213640001Y-99965614D01*
X213640001Y-100185196D01*
X211185199Y-102640000D01*
X203834801Y-102640000D01*
X206739802Y-99735000D01*
X206905874Y-99735000D01*
X207286280Y-99577431D01*
X207577431Y-99286280D01*
X207735000Y-98905874D01*
X207735000Y-98494126D01*
X207577431Y-98113720D01*
X207286280Y-97822569D01*
X206905874Y-97665000D01*
X206494126Y-97665000D01*
X206113720Y-97822569D01*
X205822569Y-98113720D01*
X205665000Y-98494126D01*
X205665000Y-98660198D01*
X202285199Y-102040000D01*
X179653227Y-102040000D01*
X179690331Y-101984471D01*
X179984472Y-101690329D01*
X180047929Y-101647929D01*
X180215904Y-101396537D01*
X180260000Y-101174852D01*
X180260000Y-101174848D01*
X180274888Y-101100001D01*
X180260000Y-101025154D01*
X180260000Y-99603711D01*
X180377431Y-99486280D01*
X180535000Y-99105874D01*
X180535000Y-98694126D01*
X180377431Y-98313720D01*
X180260000Y-98196289D01*
X180260000Y-97374846D01*
X180274888Y-97299999D01*
X180260000Y-97225152D01*
X180260000Y-97225148D01*
X180215904Y-97003463D01*
X180047929Y-96752071D01*
X179984473Y-96709671D01*
X179190331Y-95915530D01*
X179147929Y-95852071D01*
X179032512Y-95774952D01*
X178998157Y-95602235D01*
X178857809Y-95392191D01*
X178647765Y-95251843D01*
X178400000Y-95202560D01*
X177200000Y-95202560D01*
X176952235Y-95251843D01*
X176742191Y-95392191D01*
X176601843Y-95602235D01*
X176552560Y-95850000D01*
X176552560Y-96950000D01*
X176601843Y-97197765D01*
X176742191Y-97407809D01*
X176952235Y-97548157D01*
X177200000Y-97597440D01*
X178400000Y-97597440D01*
X178647765Y-97548157D01*
X178663105Y-97537907D01*
X178740000Y-97614802D01*
X178740001Y-98196288D01*
X178622569Y-98313720D01*
X178465000Y-98694126D01*
X178465000Y-99105874D01*
X178622569Y-99486280D01*
X178740000Y-99603711D01*
X178740001Y-100740000D01*
X175903711Y-100740000D01*
X175786280Y-100622569D01*
X175405874Y-100465000D01*
X175260000Y-100465000D01*
X175260000Y-99965614D01*
X175347765Y-99948157D01*
X175557809Y-99807809D01*
X175698157Y-99597765D01*
X175747440Y-99350000D01*
X175747440Y-98250000D01*
X175698157Y-98002235D01*
X175557809Y-97792191D01*
X175347765Y-97651843D01*
X175100000Y-97602560D01*
X173900000Y-97602560D01*
X173652235Y-97651843D01*
X173629485Y-97667044D01*
X171060000Y-97578441D01*
X171060000Y-97374848D01*
X171074888Y-97300000D01*
X171060000Y-97225152D01*
X171060000Y-97225148D01*
X171015904Y-97003463D01*
X170847929Y-96752071D01*
X170784473Y-96709671D01*
X169890331Y-95815530D01*
X169847929Y-95752071D01*
X169617184Y-95597892D01*
X169598157Y-95502235D01*
X169457809Y-95292191D01*
X169247765Y-95151843D01*
X169000000Y-95102560D01*
X167800000Y-95102560D01*
X167552235Y-95151843D01*
X167342191Y-95292191D01*
X167201843Y-95502235D01*
X167152560Y-95750000D01*
X167152560Y-96850000D01*
X167201843Y-97097765D01*
X167342191Y-97307809D01*
X167552235Y-97448157D01*
X167800000Y-97497440D01*
X169000000Y-97497440D01*
X169247765Y-97448157D01*
X169323051Y-97397852D01*
X169540000Y-97614802D01*
X169540001Y-99585197D01*
X168585199Y-100540000D01*
X166327000Y-100540000D01*
X166327000Y-99352760D01*
X166347440Y-99250000D01*
X166347440Y-98150000D01*
X166298157Y-97902235D01*
X166157809Y-97692191D01*
X165947765Y-97551843D01*
X165700000Y-97502560D01*
X164500000Y-97502560D01*
X164252235Y-97551843D01*
X164042191Y-97692191D01*
X163901843Y-97902235D01*
X163894331Y-97940000D01*
X160403711Y-97940000D01*
X160286280Y-97822569D01*
X159905874Y-97665000D01*
X159494126Y-97665000D01*
X159113720Y-97822569D01*
X158996289Y-97940000D01*
X155274847Y-97940000D01*
X155200000Y-97925112D01*
X155125153Y-97940000D01*
X155125148Y-97940000D01*
X154903463Y-97984096D01*
X154652071Y-98152071D01*
X154609671Y-98215527D01*
X151398077Y-101427122D01*
X151347929Y-101352071D01*
X151284473Y-101309671D01*
X150935000Y-100960198D01*
X150935000Y-100794126D01*
X150777431Y-100413720D01*
X150486280Y-100122569D01*
X150105874Y-99965000D01*
X149694126Y-99965000D01*
X149313720Y-100122569D01*
X149022569Y-100413720D01*
X149012597Y-100437795D01*
X146635000Y-98060199D01*
X146635000Y-97894126D01*
X146477431Y-97513720D01*
X146186280Y-97222569D01*
X145805874Y-97065000D01*
X145639802Y-97065000D01*
X144490331Y-95915530D01*
X144447929Y-95852071D01*
X144196537Y-95684096D01*
X143974852Y-95640000D01*
X143974847Y-95640000D01*
X143900000Y-95625112D01*
X143825153Y-95640000D01*
X138105669Y-95640000D01*
X138098157Y-95602235D01*
X137957809Y-95392191D01*
X137747765Y-95251843D01*
X137500000Y-95202560D01*
X136300000Y-95202560D01*
X136052235Y-95251843D01*
X135842191Y-95392191D01*
X135701843Y-95602235D01*
X135652560Y-95850000D01*
X135652560Y-96950000D01*
X135701843Y-97197765D01*
X135842191Y-97407809D01*
X136052235Y-97548157D01*
X136300000Y-97597440D01*
X137500000Y-97597440D01*
X137747765Y-97548157D01*
X137957809Y-97407809D01*
X138098157Y-97197765D01*
X138105669Y-97160000D01*
X143585199Y-97160000D01*
X144565000Y-98139802D01*
X144565000Y-98305874D01*
X144722569Y-98686280D01*
X145013720Y-98977431D01*
X145394126Y-99135000D01*
X145560199Y-99135000D01*
X146508506Y-100083307D01*
X146413720Y-100122569D01*
X146296289Y-100240000D01*
X134714802Y-100240000D01*
X134427074Y-99952273D01*
X134447765Y-99948157D01*
X134657809Y-99807809D01*
X134798157Y-99597765D01*
X134847440Y-99350000D01*
X134847440Y-98250000D01*
X134798157Y-98002235D01*
X134657809Y-97792191D01*
X134447765Y-97651843D01*
X134200000Y-97602560D01*
X133000000Y-97602560D01*
X132752235Y-97651843D01*
X132715853Y-97676153D01*
X132700000Y-97673000D01*
X130269517Y-97673000D01*
X130260000Y-97625153D01*
X130260000Y-97625148D01*
X130215904Y-97403463D01*
X130047929Y-97152071D01*
X129984473Y-97109671D01*
X128747440Y-95872639D01*
X128747440Y-95750000D01*
X128698157Y-95502235D01*
X128557809Y-95292191D01*
X128347765Y-95151843D01*
X128100000Y-95102560D01*
X126900000Y-95102560D01*
X126652235Y-95151843D01*
X126442191Y-95292191D01*
X126301843Y-95502235D01*
X126252560Y-95750000D01*
X126252560Y-96850000D01*
X126301843Y-97097765D01*
X126442191Y-97307809D01*
X126652235Y-97448157D01*
X126900000Y-97497440D01*
X128100000Y-97497440D01*
X128202292Y-97477093D01*
X128740000Y-98014802D01*
X128740001Y-99225149D01*
X128725112Y-99300000D01*
X128740001Y-99374852D01*
X128780297Y-99577431D01*
X128784097Y-99596537D01*
X128909421Y-99784097D01*
X128952072Y-99847929D01*
X129015528Y-99890329D01*
X130665198Y-101540000D01*
X125414802Y-101540000D01*
X124960000Y-101085199D01*
X124960000Y-99865614D01*
X125047765Y-99848157D01*
X125257809Y-99707809D01*
X125398157Y-99497765D01*
X125447440Y-99250000D01*
X125447440Y-98150000D01*
X125398157Y-97902235D01*
X125257809Y-97692191D01*
X125047765Y-97551843D01*
X124800000Y-97502560D01*
X123600000Y-97502560D01*
X123352235Y-97551843D01*
X123142191Y-97692191D01*
X123027519Y-97863808D01*
X122786280Y-97622569D01*
X122405874Y-97465000D01*
X121994126Y-97465000D01*
X121613720Y-97622569D01*
X121322569Y-97913720D01*
X121165000Y-98294126D01*
X121165000Y-98705874D01*
X121322569Y-99086280D01*
X121613720Y-99377431D01*
X121994126Y-99535000D01*
X122405874Y-99535000D01*
X122586940Y-99460000D01*
X122994331Y-99460000D01*
X123001843Y-99497765D01*
X123142191Y-99707809D01*
X123352235Y-99848157D01*
X123440000Y-99865614D01*
X123440001Y-101325148D01*
X123425112Y-101400000D01*
X123484097Y-101696537D01*
X123604967Y-101877431D01*
X123652072Y-101947929D01*
X123715528Y-101990329D01*
X123765199Y-102040000D01*
X101914802Y-102040000D01*
X95690331Y-95815530D01*
X95647929Y-95752071D01*
X95396537Y-95584096D01*
X95174852Y-95540000D01*
X95174847Y-95540000D01*
X95100000Y-95525112D01*
X95025153Y-95540000D01*
X88805669Y-95540000D01*
X88798157Y-95502235D01*
X88657809Y-95292191D01*
X88447765Y-95151843D01*
X88200000Y-95102560D01*
X87000000Y-95102560D01*
X86752235Y-95151843D01*
X86542191Y-95292191D01*
X86401843Y-95502235D01*
X86352560Y-95750000D01*
X86352560Y-96850000D01*
X86401843Y-97097765D01*
X86542191Y-97307809D01*
X86752235Y-97448157D01*
X87000000Y-97497440D01*
X88200000Y-97497440D01*
X88447765Y-97448157D01*
X88657809Y-97307809D01*
X88798157Y-97097765D01*
X88805669Y-97060000D01*
X93373000Y-97060000D01*
X93373000Y-98574812D01*
X93365000Y-98594126D01*
X93365000Y-99005874D01*
X93522569Y-99386280D01*
X93640000Y-99503711D01*
X93640001Y-100825148D01*
X93625112Y-100900000D01*
X93684097Y-101196537D01*
X93788022Y-101352071D01*
X93852072Y-101447929D01*
X93915528Y-101490329D01*
X95065199Y-102640000D01*
X86714803Y-102640000D01*
X85060000Y-100985199D01*
X85060000Y-99865614D01*
X85147765Y-99848157D01*
X85357809Y-99707809D01*
X85498157Y-99497765D01*
X85547440Y-99250000D01*
X85547440Y-98150000D01*
X85498157Y-97902235D01*
X85357809Y-97692191D01*
X85147765Y-97551843D01*
X84900000Y-97502560D01*
X83700000Y-97502560D01*
X83452235Y-97551843D01*
X83420572Y-97573000D01*
X82685000Y-97573000D01*
X82685000Y-94735000D01*
X212125131Y-94735000D01*
X211913720Y-94822569D01*
X211913720Y-94822569D01*
G37*
X211913720Y-94822569D02*
X211622569Y-95113720D01*
X211465000Y-95494126D01*
X211465000Y-95905874D01*
X211622569Y-96286280D01*
X211913720Y-96577431D01*
X212294126Y-96735000D01*
X212705874Y-96735000D01*
X213086280Y-96577431D01*
X213377431Y-96286280D01*
X213535000Y-95905874D01*
X213535000Y-95739802D01*
X213614802Y-95660000D01*
X216490353Y-95660000D01*
X216452560Y-95850000D01*
X216452560Y-96950000D01*
X216501843Y-97197765D01*
X216642191Y-97407809D01*
X216852235Y-97548157D01*
X217100000Y-97597440D01*
X218221627Y-97597440D01*
X218251399Y-97617333D01*
X218300000Y-97627000D01*
X219315001Y-97627000D01*
X219315000Y-103365000D01*
X212609801Y-103365000D01*
X214884476Y-101090327D01*
X214947929Y-101047929D01*
X214990327Y-100984476D01*
X214990329Y-100984474D01*
X215095549Y-100827000D01*
X215115904Y-100796537D01*
X215160000Y-100574852D01*
X215160000Y-100574848D01*
X215174888Y-100500001D01*
X215160000Y-100425154D01*
X215160000Y-99965614D01*
X215247765Y-99948157D01*
X215457809Y-99807809D01*
X215598157Y-99597765D01*
X215647440Y-99350000D01*
X215647440Y-98250000D01*
X215598157Y-98002235D01*
X215457809Y-97792191D01*
X215247765Y-97651843D01*
X215000000Y-97602560D01*
X213800000Y-97602560D01*
X213552235Y-97651843D01*
X213342191Y-97792191D01*
X213201843Y-98002235D01*
X213152560Y-98250000D01*
X213152560Y-99350000D01*
X213201843Y-99597765D01*
X213342191Y-99807809D01*
X213552235Y-99948157D01*
X213640001Y-99965614D01*
X213640001Y-100185196D01*
X211185199Y-102640000D01*
X203834801Y-102640000D01*
X206739802Y-99735000D01*
X206905874Y-99735000D01*
X207286280Y-99577431D01*
X207577431Y-99286280D01*
X207735000Y-98905874D01*
X207735000Y-98494126D01*
X207577431Y-98113720D01*
X207286280Y-97822569D01*
X206905874Y-97665000D01*
X206494126Y-97665000D01*
X206113720Y-97822569D01*
X205822569Y-98113720D01*
X205665000Y-98494126D01*
X205665000Y-98660198D01*
X202285199Y-102040000D01*
X179653227Y-102040000D01*
X179690331Y-101984471D01*
X179984472Y-101690329D01*
X180047929Y-101647929D01*
X180215904Y-101396537D01*
X180260000Y-101174852D01*
X180260000Y-101174848D01*
X180274888Y-101100001D01*
X180260000Y-101025154D01*
X180260000Y-99603711D01*
X180377431Y-99486280D01*
X180535000Y-99105874D01*
X180535000Y-98694126D01*
X180377431Y-98313720D01*
X180260000Y-98196289D01*
X180260000Y-97374846D01*
X180274888Y-97299999D01*
X180260000Y-97225152D01*
X180260000Y-97225148D01*
X180215904Y-97003463D01*
X180047929Y-96752071D01*
X179984473Y-96709671D01*
X179190331Y-95915530D01*
X179147929Y-95852071D01*
X179032512Y-95774952D01*
X178998157Y-95602235D01*
X178857809Y-95392191D01*
X178647765Y-95251843D01*
X178400000Y-95202560D01*
X177200000Y-95202560D01*
X176952235Y-95251843D01*
X176742191Y-95392191D01*
X176601843Y-95602235D01*
X176552560Y-95850000D01*
X176552560Y-96950000D01*
X176601843Y-97197765D01*
X176742191Y-97407809D01*
X176952235Y-97548157D01*
X177200000Y-97597440D01*
X178400000Y-97597440D01*
X178647765Y-97548157D01*
X178663105Y-97537907D01*
X178740000Y-97614802D01*
X178740001Y-98196288D01*
X178622569Y-98313720D01*
X178465000Y-98694126D01*
X178465000Y-99105874D01*
X178622569Y-99486280D01*
X178740000Y-99603711D01*
X178740001Y-100740000D01*
X175903711Y-100740000D01*
X175786280Y-100622569D01*
X175405874Y-100465000D01*
X175260000Y-100465000D01*
X175260000Y-99965614D01*
X175347765Y-99948157D01*
X175557809Y-99807809D01*
X175698157Y-99597765D01*
X175747440Y-99350000D01*
X175747440Y-98250000D01*
X175698157Y-98002235D01*
X175557809Y-97792191D01*
X175347765Y-97651843D01*
X175100000Y-97602560D01*
X173900000Y-97602560D01*
X173652235Y-97651843D01*
X173629485Y-97667044D01*
X171060000Y-97578441D01*
X171060000Y-97374848D01*
X171074888Y-97300000D01*
X171060000Y-97225152D01*
X171060000Y-97225148D01*
X171015904Y-97003463D01*
X170847929Y-96752071D01*
X170784473Y-96709671D01*
X169890331Y-95815530D01*
X169847929Y-95752071D01*
X169617184Y-95597892D01*
X169598157Y-95502235D01*
X169457809Y-95292191D01*
X169247765Y-95151843D01*
X169000000Y-95102560D01*
X167800000Y-95102560D01*
X167552235Y-95151843D01*
X167342191Y-95292191D01*
X167201843Y-95502235D01*
X167152560Y-95750000D01*
X167152560Y-96850000D01*
X167201843Y-97097765D01*
X167342191Y-97307809D01*
X167552235Y-97448157D01*
X167800000Y-97497440D01*
X169000000Y-97497440D01*
X169247765Y-97448157D01*
X169323051Y-97397852D01*
X169540000Y-97614802D01*
X169540001Y-99585197D01*
X168585199Y-100540000D01*
X166327000Y-100540000D01*
X166327000Y-99352760D01*
X166347440Y-99250000D01*
X166347440Y-98150000D01*
X166298157Y-97902235D01*
X166157809Y-97692191D01*
X165947765Y-97551843D01*
X165700000Y-97502560D01*
X164500000Y-97502560D01*
X164252235Y-97551843D01*
X164042191Y-97692191D01*
X163901843Y-97902235D01*
X163894331Y-97940000D01*
X160403711Y-97940000D01*
X160286280Y-97822569D01*
X159905874Y-97665000D01*
X159494126Y-97665000D01*
X159113720Y-97822569D01*
X158996289Y-97940000D01*
X155274847Y-97940000D01*
X155200000Y-97925112D01*
X155125153Y-97940000D01*
X155125148Y-97940000D01*
X154903463Y-97984096D01*
X154652071Y-98152071D01*
X154609671Y-98215527D01*
X151398077Y-101427122D01*
X151347929Y-101352071D01*
X151284473Y-101309671D01*
X150935000Y-100960198D01*
X150935000Y-100794126D01*
X150777431Y-100413720D01*
X150486280Y-100122569D01*
X150105874Y-99965000D01*
X149694126Y-99965000D01*
X149313720Y-100122569D01*
X149022569Y-100413720D01*
X149012597Y-100437795D01*
X146635000Y-98060199D01*
X146635000Y-97894126D01*
X146477431Y-97513720D01*
X146186280Y-97222569D01*
X145805874Y-97065000D01*
X145639802Y-97065000D01*
X144490331Y-95915530D01*
X144447929Y-95852071D01*
X144196537Y-95684096D01*
X143974852Y-95640000D01*
X143974847Y-95640000D01*
X143900000Y-95625112D01*
X143825153Y-95640000D01*
X138105669Y-95640000D01*
X138098157Y-95602235D01*
X137957809Y-95392191D01*
X137747765Y-95251843D01*
X137500000Y-95202560D01*
X136300000Y-95202560D01*
X136052235Y-95251843D01*
X135842191Y-95392191D01*
X135701843Y-95602235D01*
X135652560Y-95850000D01*
X135652560Y-96950000D01*
X135701843Y-97197765D01*
X135842191Y-97407809D01*
X136052235Y-97548157D01*
X136300000Y-97597440D01*
X137500000Y-97597440D01*
X137747765Y-97548157D01*
X137957809Y-97407809D01*
X138098157Y-97197765D01*
X138105669Y-97160000D01*
X143585199Y-97160000D01*
X144565000Y-98139802D01*
X144565000Y-98305874D01*
X144722569Y-98686280D01*
X145013720Y-98977431D01*
X145394126Y-99135000D01*
X145560199Y-99135000D01*
X146508506Y-100083307D01*
X146413720Y-100122569D01*
X146296289Y-100240000D01*
X134714802Y-100240000D01*
X134427074Y-99952273D01*
X134447765Y-99948157D01*
X134657809Y-99807809D01*
X134798157Y-99597765D01*
X134847440Y-99350000D01*
X134847440Y-98250000D01*
X134798157Y-98002235D01*
X134657809Y-97792191D01*
X134447765Y-97651843D01*
X134200000Y-97602560D01*
X133000000Y-97602560D01*
X132752235Y-97651843D01*
X132715853Y-97676153D01*
X132700000Y-97673000D01*
X130269517Y-97673000D01*
X130260000Y-97625153D01*
X130260000Y-97625148D01*
X130215904Y-97403463D01*
X130047929Y-97152071D01*
X129984473Y-97109671D01*
X128747440Y-95872639D01*
X128747440Y-95750000D01*
X128698157Y-95502235D01*
X128557809Y-95292191D01*
X128347765Y-95151843D01*
X128100000Y-95102560D01*
X126900000Y-95102560D01*
X126652235Y-95151843D01*
X126442191Y-95292191D01*
X126301843Y-95502235D01*
X126252560Y-95750000D01*
X126252560Y-96850000D01*
X126301843Y-97097765D01*
X126442191Y-97307809D01*
X126652235Y-97448157D01*
X126900000Y-97497440D01*
X128100000Y-97497440D01*
X128202292Y-97477093D01*
X128740000Y-98014802D01*
X128740001Y-99225149D01*
X128725112Y-99300000D01*
X128740001Y-99374852D01*
X128780297Y-99577431D01*
X128784097Y-99596537D01*
X128909421Y-99784097D01*
X128952072Y-99847929D01*
X129015528Y-99890329D01*
X130665198Y-101540000D01*
X125414802Y-101540000D01*
X124960000Y-101085199D01*
X124960000Y-99865614D01*
X125047765Y-99848157D01*
X125257809Y-99707809D01*
X125398157Y-99497765D01*
X125447440Y-99250000D01*
X125447440Y-98150000D01*
X125398157Y-97902235D01*
X125257809Y-97692191D01*
X125047765Y-97551843D01*
X124800000Y-97502560D01*
X123600000Y-97502560D01*
X123352235Y-97551843D01*
X123142191Y-97692191D01*
X123027519Y-97863808D01*
X122786280Y-97622569D01*
X122405874Y-97465000D01*
X121994126Y-97465000D01*
X121613720Y-97622569D01*
X121322569Y-97913720D01*
X121165000Y-98294126D01*
X121165000Y-98705874D01*
X121322569Y-99086280D01*
X121613720Y-99377431D01*
X121994126Y-99535000D01*
X122405874Y-99535000D01*
X122586940Y-99460000D01*
X122994331Y-99460000D01*
X123001843Y-99497765D01*
X123142191Y-99707809D01*
X123352235Y-99848157D01*
X123440000Y-99865614D01*
X123440001Y-101325148D01*
X123425112Y-101400000D01*
X123484097Y-101696537D01*
X123604967Y-101877431D01*
X123652072Y-101947929D01*
X123715528Y-101990329D01*
X123765199Y-102040000D01*
X101914802Y-102040000D01*
X95690331Y-95815530D01*
X95647929Y-95752071D01*
X95396537Y-95584096D01*
X95174852Y-95540000D01*
X95174847Y-95540000D01*
X95100000Y-95525112D01*
X95025153Y-95540000D01*
X88805669Y-95540000D01*
X88798157Y-95502235D01*
X88657809Y-95292191D01*
X88447765Y-95151843D01*
X88200000Y-95102560D01*
X87000000Y-95102560D01*
X86752235Y-95151843D01*
X86542191Y-95292191D01*
X86401843Y-95502235D01*
X86352560Y-95750000D01*
X86352560Y-96850000D01*
X86401843Y-97097765D01*
X86542191Y-97307809D01*
X86752235Y-97448157D01*
X87000000Y-97497440D01*
X88200000Y-97497440D01*
X88447765Y-97448157D01*
X88657809Y-97307809D01*
X88798157Y-97097765D01*
X88805669Y-97060000D01*
X93373000Y-97060000D01*
X93373000Y-98574812D01*
X93365000Y-98594126D01*
X93365000Y-99005874D01*
X93522569Y-99386280D01*
X93640000Y-99503711D01*
X93640001Y-100825148D01*
X93625112Y-100900000D01*
X93684097Y-101196537D01*
X93788022Y-101352071D01*
X93852072Y-101447929D01*
X93915528Y-101490329D01*
X95065199Y-102640000D01*
X86714803Y-102640000D01*
X85060000Y-100985199D01*
X85060000Y-99865614D01*
X85147765Y-99848157D01*
X85357809Y-99707809D01*
X85498157Y-99497765D01*
X85547440Y-99250000D01*
X85547440Y-98150000D01*
X85498157Y-97902235D01*
X85357809Y-97692191D01*
X85147765Y-97551843D01*
X84900000Y-97502560D01*
X83700000Y-97502560D01*
X83452235Y-97551843D01*
X83420572Y-97573000D01*
X82685000Y-97573000D01*
X82685000Y-94735000D01*
X212125131Y-94735000D01*
X211913720Y-94822569D01*
G04 #@! TD*
M02*
