G04 #@! TF.GenerationSoftware,KiCad,Pcbnew,(5.0.0)*
G04 #@! TF.CreationDate,2018-08-29T14:06:50+09:00*
G04 #@! TF.ProjectId,lancer_sensorbord_v1,6C616E6365725F73656E736F72626F72,rev?*
G04 #@! TF.SameCoordinates,Original*
G04 #@! TF.FileFunction,Legend,Top*
G04 #@! TF.FilePolarity,Positive*
%FSLAX46Y46*%
G04 Gerber Fmt 4.6, Leading zero omitted, Abs format (unit mm)*
G04 Created by KiCad (PCBNEW (5.0.0)) date 08/29/18 14:06:50*
%MOMM*%
%LPD*%
G01*
G04 APERTURE LIST*
%ADD10C,0.200000*%
%ADD11C,0.150000*%
G04 APERTURE END LIST*
D10*
X186742857Y-100021428D02*
X186814285Y-99950000D01*
X186957142Y-99878571D01*
X187314285Y-99878571D01*
X187457142Y-99950000D01*
X187528571Y-100021428D01*
X187600000Y-100164285D01*
X187600000Y-100307142D01*
X187528571Y-100521428D01*
X186671428Y-101378571D01*
X187600000Y-101378571D01*
X188528571Y-99878571D02*
X188671428Y-99878571D01*
X188814285Y-99950000D01*
X188885714Y-100021428D01*
X188957142Y-100164285D01*
X189028571Y-100450000D01*
X189028571Y-100807142D01*
X188957142Y-101092857D01*
X188885714Y-101235714D01*
X188814285Y-101307142D01*
X188671428Y-101378571D01*
X188528571Y-101378571D01*
X188385714Y-101307142D01*
X188314285Y-101235714D01*
X188242857Y-101092857D01*
X188171428Y-100807142D01*
X188171428Y-100450000D01*
X188242857Y-100164285D01*
X188314285Y-100021428D01*
X188385714Y-99950000D01*
X188528571Y-99878571D01*
X190457142Y-101378571D02*
X189600000Y-101378571D01*
X190028571Y-101378571D02*
X190028571Y-99878571D01*
X189885714Y-100092857D01*
X189742857Y-100235714D01*
X189600000Y-100307142D01*
X191314285Y-100521428D02*
X191171428Y-100450000D01*
X191100000Y-100378571D01*
X191028571Y-100235714D01*
X191028571Y-100164285D01*
X191100000Y-100021428D01*
X191171428Y-99950000D01*
X191314285Y-99878571D01*
X191600000Y-99878571D01*
X191742857Y-99950000D01*
X191814285Y-100021428D01*
X191885714Y-100164285D01*
X191885714Y-100235714D01*
X191814285Y-100378571D01*
X191742857Y-100450000D01*
X191600000Y-100521428D01*
X191314285Y-100521428D01*
X191171428Y-100592857D01*
X191100000Y-100664285D01*
X191028571Y-100807142D01*
X191028571Y-101092857D01*
X191100000Y-101235714D01*
X191171428Y-101307142D01*
X191314285Y-101378571D01*
X191600000Y-101378571D01*
X191742857Y-101307142D01*
X191814285Y-101235714D01*
X191885714Y-101092857D01*
X191885714Y-100807142D01*
X191814285Y-100664285D01*
X191742857Y-100592857D01*
X191600000Y-100521428D01*
X192171428Y-101521428D02*
X193314285Y-101521428D01*
X193600000Y-100950000D02*
X194314285Y-100950000D01*
X193457142Y-101378571D02*
X193957142Y-99878571D01*
X194457142Y-101378571D01*
X195600000Y-100378571D02*
X195600000Y-101378571D01*
X194957142Y-100378571D02*
X194957142Y-101164285D01*
X195028571Y-101307142D01*
X195171428Y-101378571D01*
X195385714Y-101378571D01*
X195528571Y-101307142D01*
X195600000Y-101235714D01*
X196957142Y-100378571D02*
X196957142Y-101592857D01*
X196885714Y-101735714D01*
X196814285Y-101807142D01*
X196671428Y-101878571D01*
X196457142Y-101878571D01*
X196314285Y-101807142D01*
X196957142Y-101307142D02*
X196814285Y-101378571D01*
X196528571Y-101378571D01*
X196385714Y-101307142D01*
X196314285Y-101235714D01*
X196242857Y-101092857D01*
X196242857Y-100664285D01*
X196314285Y-100521428D01*
X196385714Y-100450000D01*
X196528571Y-100378571D01*
X196814285Y-100378571D01*
X196957142Y-100450000D01*
X198314285Y-100378571D02*
X198314285Y-101378571D01*
X197671428Y-100378571D02*
X197671428Y-101164285D01*
X197742857Y-101307142D01*
X197885714Y-101378571D01*
X198100000Y-101378571D01*
X198242857Y-101307142D01*
X198314285Y-101235714D01*
X198957142Y-101307142D02*
X199100000Y-101378571D01*
X199385714Y-101378571D01*
X199528571Y-101307142D01*
X199600000Y-101164285D01*
X199600000Y-101092857D01*
X199528571Y-100950000D01*
X199385714Y-100878571D01*
X199171428Y-100878571D01*
X199028571Y-100807142D01*
X198957142Y-100664285D01*
X198957142Y-100592857D01*
X199028571Y-100450000D01*
X199171428Y-100378571D01*
X199385714Y-100378571D01*
X199528571Y-100450000D01*
X200028571Y-100378571D02*
X200600000Y-100378571D01*
X200242857Y-99878571D02*
X200242857Y-101164285D01*
X200314285Y-101307142D01*
X200457142Y-101378571D01*
X200600000Y-101378571D01*
X187428571Y-103378571D02*
X186714285Y-103378571D01*
X186714285Y-101878571D01*
X188571428Y-103378571D02*
X188571428Y-102592857D01*
X188500000Y-102450000D01*
X188357142Y-102378571D01*
X188071428Y-102378571D01*
X187928571Y-102450000D01*
X188571428Y-103307142D02*
X188428571Y-103378571D01*
X188071428Y-103378571D01*
X187928571Y-103307142D01*
X187857142Y-103164285D01*
X187857142Y-103021428D01*
X187928571Y-102878571D01*
X188071428Y-102807142D01*
X188428571Y-102807142D01*
X188571428Y-102735714D01*
X189285714Y-102378571D02*
X189285714Y-103378571D01*
X189285714Y-102521428D02*
X189357142Y-102450000D01*
X189500000Y-102378571D01*
X189714285Y-102378571D01*
X189857142Y-102450000D01*
X189928571Y-102592857D01*
X189928571Y-103378571D01*
X191285714Y-103307142D02*
X191142857Y-103378571D01*
X190857142Y-103378571D01*
X190714285Y-103307142D01*
X190642857Y-103235714D01*
X190571428Y-103092857D01*
X190571428Y-102664285D01*
X190642857Y-102521428D01*
X190714285Y-102450000D01*
X190857142Y-102378571D01*
X191142857Y-102378571D01*
X191285714Y-102450000D01*
X192500000Y-103307142D02*
X192357142Y-103378571D01*
X192071428Y-103378571D01*
X191928571Y-103307142D01*
X191857142Y-103164285D01*
X191857142Y-102592857D01*
X191928571Y-102450000D01*
X192071428Y-102378571D01*
X192357142Y-102378571D01*
X192500000Y-102450000D01*
X192571428Y-102592857D01*
X192571428Y-102735714D01*
X191857142Y-102878571D01*
X193214285Y-103378571D02*
X193214285Y-102378571D01*
X193214285Y-102664285D02*
X193285714Y-102521428D01*
X193357142Y-102450000D01*
X193500000Y-102378571D01*
X193642857Y-102378571D01*
X195214285Y-103307142D02*
X195357142Y-103378571D01*
X195642857Y-103378571D01*
X195785714Y-103307142D01*
X195857142Y-103164285D01*
X195857142Y-103092857D01*
X195785714Y-102950000D01*
X195642857Y-102878571D01*
X195428571Y-102878571D01*
X195285714Y-102807142D01*
X195214285Y-102664285D01*
X195214285Y-102592857D01*
X195285714Y-102450000D01*
X195428571Y-102378571D01*
X195642857Y-102378571D01*
X195785714Y-102450000D01*
X197071428Y-103307142D02*
X196928571Y-103378571D01*
X196642857Y-103378571D01*
X196500000Y-103307142D01*
X196428571Y-103164285D01*
X196428571Y-102592857D01*
X196500000Y-102450000D01*
X196642857Y-102378571D01*
X196928571Y-102378571D01*
X197071428Y-102450000D01*
X197142857Y-102592857D01*
X197142857Y-102735714D01*
X196428571Y-102878571D01*
X197785714Y-102378571D02*
X197785714Y-103378571D01*
X197785714Y-102521428D02*
X197857142Y-102450000D01*
X198000000Y-102378571D01*
X198214285Y-102378571D01*
X198357142Y-102450000D01*
X198428571Y-102592857D01*
X198428571Y-103378571D01*
X199071428Y-103307142D02*
X199214285Y-103378571D01*
X199500000Y-103378571D01*
X199642857Y-103307142D01*
X199714285Y-103164285D01*
X199714285Y-103092857D01*
X199642857Y-102950000D01*
X199500000Y-102878571D01*
X199285714Y-102878571D01*
X199142857Y-102807142D01*
X199071428Y-102664285D01*
X199071428Y-102592857D01*
X199142857Y-102450000D01*
X199285714Y-102378571D01*
X199500000Y-102378571D01*
X199642857Y-102450000D01*
X200571428Y-103378571D02*
X200428571Y-103307142D01*
X200357142Y-103235714D01*
X200285714Y-103092857D01*
X200285714Y-102664285D01*
X200357142Y-102521428D01*
X200428571Y-102450000D01*
X200571428Y-102378571D01*
X200785714Y-102378571D01*
X200928571Y-102450000D01*
X201000000Y-102521428D01*
X201071428Y-102664285D01*
X201071428Y-103092857D01*
X201000000Y-103235714D01*
X200928571Y-103307142D01*
X200785714Y-103378571D01*
X200571428Y-103378571D01*
X201714285Y-103378571D02*
X201714285Y-102378571D01*
X201714285Y-102664285D02*
X201785714Y-102521428D01*
X201857142Y-102450000D01*
X202000000Y-102378571D01*
X202142857Y-102378571D01*
X202642857Y-103378571D02*
X202642857Y-101878571D01*
X202642857Y-102450000D02*
X202785714Y-102378571D01*
X203071428Y-102378571D01*
X203214285Y-102450000D01*
X203285714Y-102521428D01*
X203357142Y-102664285D01*
X203357142Y-103092857D01*
X203285714Y-103235714D01*
X203214285Y-103307142D01*
X203071428Y-103378571D01*
X202785714Y-103378571D01*
X202642857Y-103307142D01*
X204214285Y-103378571D02*
X204071428Y-103307142D01*
X204000000Y-103235714D01*
X203928571Y-103092857D01*
X203928571Y-102664285D01*
X204000000Y-102521428D01*
X204071428Y-102450000D01*
X204214285Y-102378571D01*
X204428571Y-102378571D01*
X204571428Y-102450000D01*
X204642857Y-102521428D01*
X204714285Y-102664285D01*
X204714285Y-103092857D01*
X204642857Y-103235714D01*
X204571428Y-103307142D01*
X204428571Y-103378571D01*
X204214285Y-103378571D01*
X206000000Y-103378571D02*
X206000000Y-102592857D01*
X205928571Y-102450000D01*
X205785714Y-102378571D01*
X205500000Y-102378571D01*
X205357142Y-102450000D01*
X206000000Y-103307142D02*
X205857142Y-103378571D01*
X205500000Y-103378571D01*
X205357142Y-103307142D01*
X205285714Y-103164285D01*
X205285714Y-103021428D01*
X205357142Y-102878571D01*
X205500000Y-102807142D01*
X205857142Y-102807142D01*
X206000000Y-102735714D01*
X206714285Y-103378571D02*
X206714285Y-102378571D01*
X206714285Y-102664285D02*
X206785714Y-102521428D01*
X206857142Y-102450000D01*
X207000000Y-102378571D01*
X207142857Y-102378571D01*
X208285714Y-103378571D02*
X208285714Y-101878571D01*
X208285714Y-103307142D02*
X208142857Y-103378571D01*
X207857142Y-103378571D01*
X207714285Y-103307142D01*
X207642857Y-103235714D01*
X207571428Y-103092857D01*
X207571428Y-102664285D01*
X207642857Y-102521428D01*
X207714285Y-102450000D01*
X207857142Y-102378571D01*
X208142857Y-102378571D01*
X208285714Y-102450000D01*
X210000000Y-102378571D02*
X210357142Y-103378571D01*
X210714285Y-102378571D01*
X212071428Y-103378571D02*
X211214285Y-103378571D01*
X211642857Y-103378571D02*
X211642857Y-101878571D01*
X211500000Y-102092857D01*
X211357142Y-102235714D01*
X211214285Y-102307142D01*
X214357142Y-102592857D02*
X214571428Y-102664285D01*
X214642857Y-102735714D01*
X214714285Y-102878571D01*
X214714285Y-103092857D01*
X214642857Y-103235714D01*
X214571428Y-103307142D01*
X214428571Y-103378571D01*
X213857142Y-103378571D01*
X213857142Y-101878571D01*
X214357142Y-101878571D01*
X214500000Y-101950000D01*
X214571428Y-102021428D01*
X214642857Y-102164285D01*
X214642857Y-102307142D01*
X214571428Y-102450000D01*
X214500000Y-102521428D01*
X214357142Y-102592857D01*
X213857142Y-102592857D01*
X215571428Y-103378571D02*
X215428571Y-103307142D01*
X215357142Y-103164285D01*
X215357142Y-101878571D01*
X216785714Y-103378571D02*
X216785714Y-102592857D01*
X216714285Y-102450000D01*
X216571428Y-102378571D01*
X216285714Y-102378571D01*
X216142857Y-102450000D01*
X216785714Y-103307142D02*
X216642857Y-103378571D01*
X216285714Y-103378571D01*
X216142857Y-103307142D01*
X216071428Y-103164285D01*
X216071428Y-103021428D01*
X216142857Y-102878571D01*
X216285714Y-102807142D01*
X216642857Y-102807142D01*
X216785714Y-102735714D01*
X218142857Y-103307142D02*
X218000000Y-103378571D01*
X217714285Y-103378571D01*
X217571428Y-103307142D01*
X217500000Y-103235714D01*
X217428571Y-103092857D01*
X217428571Y-102664285D01*
X217500000Y-102521428D01*
X217571428Y-102450000D01*
X217714285Y-102378571D01*
X218000000Y-102378571D01*
X218142857Y-102450000D01*
X218785714Y-103378571D02*
X218785714Y-101878571D01*
X218928571Y-102807142D02*
X219357142Y-103378571D01*
X219357142Y-102378571D02*
X218785714Y-102950000D01*
D11*
G04 #@! TO.C,D1*
X151500000Y-100000000D02*
X150500000Y-100000000D01*
X151500000Y-98500000D02*
X151500000Y-100000000D01*
X150500000Y-98500000D02*
X151500000Y-98500000D01*
X150500000Y-100000000D02*
X150500000Y-98500000D01*
G04 #@! TO.C,C5*
X141075000Y-98050000D02*
X139825000Y-98050000D01*
X139825000Y-98050000D02*
X139825000Y-100050000D01*
X141075000Y-100050000D02*
X139825000Y-100050000D01*
X141075000Y-98050000D02*
X141075000Y-100050000D01*
G04 #@! TO.C,C1*
X153600000Y-98450000D02*
X153600000Y-100050000D01*
X154400000Y-98450000D02*
X153600000Y-98450000D01*
X154400000Y-98450000D02*
X154400000Y-100050000D01*
X154400000Y-100050000D02*
X153600000Y-100050000D01*
G04 #@! TO.C,C2*
X147600000Y-98450000D02*
X147600000Y-100050000D01*
X148400000Y-98450000D02*
X147600000Y-98450000D01*
X148400000Y-98450000D02*
X148400000Y-100050000D01*
X148400000Y-100050000D02*
X147600000Y-100050000D01*
G04 #@! TO.C,C3*
X92075000Y-98050000D02*
X90825000Y-98050000D01*
X90825000Y-98050000D02*
X90825000Y-100050000D01*
X92075000Y-100050000D02*
X90825000Y-100050000D01*
X92075000Y-98050000D02*
X92075000Y-100050000D01*
G04 #@! TO.C,C4*
X120975000Y-98050000D02*
X119725000Y-98050000D01*
X119725000Y-98050000D02*
X119725000Y-100050000D01*
X120975000Y-100050000D02*
X119725000Y-100050000D01*
X120975000Y-98050000D02*
X120975000Y-100050000D01*
G04 #@! TO.C,C6*
X162175000Y-98050000D02*
X160925000Y-98050000D01*
X160925000Y-98050000D02*
X160925000Y-100050000D01*
X162175000Y-100050000D02*
X160925000Y-100050000D01*
X162175000Y-98050000D02*
X162175000Y-100050000D01*
G04 #@! TO.C,C7*
X182275000Y-98050000D02*
X181025000Y-98050000D01*
X181025000Y-98050000D02*
X181025000Y-100050000D01*
X182275000Y-100050000D02*
X181025000Y-100050000D01*
X182275000Y-98050000D02*
X182275000Y-100050000D01*
G04 #@! TO.C,C8*
X211175000Y-98050000D02*
X209925000Y-98050000D01*
X209925000Y-98050000D02*
X209925000Y-100050000D01*
X211175000Y-100050000D02*
X209925000Y-100050000D01*
X211175000Y-98050000D02*
X211175000Y-100050000D01*
G04 #@! TO.C,R1*
X91700000Y-96750000D02*
X90900000Y-96750000D01*
X90900000Y-95150000D02*
X90900000Y-96750000D01*
X91700000Y-95150000D02*
X90900000Y-95150000D01*
X91700000Y-95150000D02*
X91700000Y-96750000D01*
G04 #@! TO.C,R2*
X120900000Y-96750000D02*
X120100000Y-96750000D01*
X120100000Y-95150000D02*
X120100000Y-96750000D01*
X120900000Y-95150000D02*
X120100000Y-95150000D01*
X120900000Y-95150000D02*
X120900000Y-96750000D01*
G04 #@! TO.C,R3*
X141000000Y-96750000D02*
X140200000Y-96750000D01*
X140200000Y-95150000D02*
X140200000Y-96750000D01*
X141000000Y-95150000D02*
X140200000Y-95150000D01*
X141000000Y-95150000D02*
X141000000Y-96750000D01*
G04 #@! TO.C,R4*
X161800000Y-96750000D02*
X161000000Y-96750000D01*
X161000000Y-95150000D02*
X161000000Y-96750000D01*
X161800000Y-95150000D02*
X161000000Y-95150000D01*
X161800000Y-95150000D02*
X161800000Y-96750000D01*
G04 #@! TO.C,R5*
X181900000Y-96750000D02*
X181100000Y-96750000D01*
X181100000Y-95150000D02*
X181100000Y-96750000D01*
X181900000Y-95150000D02*
X181100000Y-95150000D01*
X181900000Y-95150000D02*
X181900000Y-96750000D01*
G04 #@! TO.C,R6*
X211100000Y-96750000D02*
X210300000Y-96750000D01*
X210300000Y-95150000D02*
X210300000Y-96750000D01*
X211100000Y-95150000D02*
X210300000Y-95150000D01*
X211100000Y-95150000D02*
X211100000Y-96750000D01*
G04 #@! TO.C,R7*
X151400000Y-96750000D02*
X150600000Y-96750000D01*
X150600000Y-95150000D02*
X150600000Y-96750000D01*
X151400000Y-95150000D02*
X150600000Y-95150000D01*
X151400000Y-95150000D02*
X151400000Y-96750000D01*
G04 #@! TO.C,D1*
X151861904Y-99652380D02*
X151861904Y-98652380D01*
X152100000Y-98652380D01*
X152242857Y-98700000D01*
X152338095Y-98795238D01*
X152385714Y-98890476D01*
X152433333Y-99080952D01*
X152433333Y-99223809D01*
X152385714Y-99414285D01*
X152338095Y-99509523D01*
X152242857Y-99604761D01*
X152100000Y-99652380D01*
X151861904Y-99652380D01*
X153385714Y-99652380D02*
X152814285Y-99652380D01*
X153100000Y-99652380D02*
X153100000Y-98652380D01*
X153004761Y-98795238D01*
X152909523Y-98890476D01*
X152814285Y-98938095D01*
G04 #@! TO.C,C5*
X138533333Y-99457142D02*
X138485714Y-99504761D01*
X138342857Y-99552380D01*
X138247619Y-99552380D01*
X138104761Y-99504761D01*
X138009523Y-99409523D01*
X137961904Y-99314285D01*
X137914285Y-99123809D01*
X137914285Y-98980952D01*
X137961904Y-98790476D01*
X138009523Y-98695238D01*
X138104761Y-98600000D01*
X138247619Y-98552380D01*
X138342857Y-98552380D01*
X138485714Y-98600000D01*
X138533333Y-98647619D01*
X139438095Y-98552380D02*
X138961904Y-98552380D01*
X138914285Y-99028571D01*
X138961904Y-98980952D01*
X139057142Y-98933333D01*
X139295238Y-98933333D01*
X139390476Y-98980952D01*
X139438095Y-99028571D01*
X139485714Y-99123809D01*
X139485714Y-99361904D01*
X139438095Y-99457142D01*
X139390476Y-99504761D01*
X139295238Y-99552380D01*
X139057142Y-99552380D01*
X138961904Y-99504761D01*
X138914285Y-99457142D01*
G04 #@! TO.C,C1*
X153933333Y-101257142D02*
X153885714Y-101304761D01*
X153742857Y-101352380D01*
X153647619Y-101352380D01*
X153504761Y-101304761D01*
X153409523Y-101209523D01*
X153361904Y-101114285D01*
X153314285Y-100923809D01*
X153314285Y-100780952D01*
X153361904Y-100590476D01*
X153409523Y-100495238D01*
X153504761Y-100400000D01*
X153647619Y-100352380D01*
X153742857Y-100352380D01*
X153885714Y-100400000D01*
X153933333Y-100447619D01*
X154885714Y-101352380D02*
X154314285Y-101352380D01*
X154600000Y-101352380D02*
X154600000Y-100352380D01*
X154504761Y-100495238D01*
X154409523Y-100590476D01*
X154314285Y-100638095D01*
G04 #@! TO.C,C2*
X147833333Y-101257142D02*
X147785714Y-101304761D01*
X147642857Y-101352380D01*
X147547619Y-101352380D01*
X147404761Y-101304761D01*
X147309523Y-101209523D01*
X147261904Y-101114285D01*
X147214285Y-100923809D01*
X147214285Y-100780952D01*
X147261904Y-100590476D01*
X147309523Y-100495238D01*
X147404761Y-100400000D01*
X147547619Y-100352380D01*
X147642857Y-100352380D01*
X147785714Y-100400000D01*
X147833333Y-100447619D01*
X148214285Y-100447619D02*
X148261904Y-100400000D01*
X148357142Y-100352380D01*
X148595238Y-100352380D01*
X148690476Y-100400000D01*
X148738095Y-100447619D01*
X148785714Y-100542857D01*
X148785714Y-100638095D01*
X148738095Y-100780952D01*
X148166666Y-101352380D01*
X148785714Y-101352380D01*
G04 #@! TO.C,C3*
X89333333Y-99357142D02*
X89285714Y-99404761D01*
X89142857Y-99452380D01*
X89047619Y-99452380D01*
X88904761Y-99404761D01*
X88809523Y-99309523D01*
X88761904Y-99214285D01*
X88714285Y-99023809D01*
X88714285Y-98880952D01*
X88761904Y-98690476D01*
X88809523Y-98595238D01*
X88904761Y-98500000D01*
X89047619Y-98452380D01*
X89142857Y-98452380D01*
X89285714Y-98500000D01*
X89333333Y-98547619D01*
X89666666Y-98452380D02*
X90285714Y-98452380D01*
X89952380Y-98833333D01*
X90095238Y-98833333D01*
X90190476Y-98880952D01*
X90238095Y-98928571D01*
X90285714Y-99023809D01*
X90285714Y-99261904D01*
X90238095Y-99357142D01*
X90190476Y-99404761D01*
X90095238Y-99452380D01*
X89809523Y-99452380D01*
X89714285Y-99404761D01*
X89666666Y-99357142D01*
G04 #@! TO.C,C4*
X118333333Y-99457142D02*
X118285714Y-99504761D01*
X118142857Y-99552380D01*
X118047619Y-99552380D01*
X117904761Y-99504761D01*
X117809523Y-99409523D01*
X117761904Y-99314285D01*
X117714285Y-99123809D01*
X117714285Y-98980952D01*
X117761904Y-98790476D01*
X117809523Y-98695238D01*
X117904761Y-98600000D01*
X118047619Y-98552380D01*
X118142857Y-98552380D01*
X118285714Y-98600000D01*
X118333333Y-98647619D01*
X119190476Y-98885714D02*
X119190476Y-99552380D01*
X118952380Y-98504761D02*
X118714285Y-99219047D01*
X119333333Y-99219047D01*
G04 #@! TO.C,C6*
X163233333Y-99457142D02*
X163185714Y-99504761D01*
X163042857Y-99552380D01*
X162947619Y-99552380D01*
X162804761Y-99504761D01*
X162709523Y-99409523D01*
X162661904Y-99314285D01*
X162614285Y-99123809D01*
X162614285Y-98980952D01*
X162661904Y-98790476D01*
X162709523Y-98695238D01*
X162804761Y-98600000D01*
X162947619Y-98552380D01*
X163042857Y-98552380D01*
X163185714Y-98600000D01*
X163233333Y-98647619D01*
X164090476Y-98552380D02*
X163900000Y-98552380D01*
X163804761Y-98600000D01*
X163757142Y-98647619D01*
X163661904Y-98790476D01*
X163614285Y-98980952D01*
X163614285Y-99361904D01*
X163661904Y-99457142D01*
X163709523Y-99504761D01*
X163804761Y-99552380D01*
X163995238Y-99552380D01*
X164090476Y-99504761D01*
X164138095Y-99457142D01*
X164185714Y-99361904D01*
X164185714Y-99123809D01*
X164138095Y-99028571D01*
X164090476Y-98980952D01*
X163995238Y-98933333D01*
X163804761Y-98933333D01*
X163709523Y-98980952D01*
X163661904Y-99028571D01*
X163614285Y-99123809D01*
G04 #@! TO.C,C7*
X183433333Y-99357142D02*
X183385714Y-99404761D01*
X183242857Y-99452380D01*
X183147619Y-99452380D01*
X183004761Y-99404761D01*
X182909523Y-99309523D01*
X182861904Y-99214285D01*
X182814285Y-99023809D01*
X182814285Y-98880952D01*
X182861904Y-98690476D01*
X182909523Y-98595238D01*
X183004761Y-98500000D01*
X183147619Y-98452380D01*
X183242857Y-98452380D01*
X183385714Y-98500000D01*
X183433333Y-98547619D01*
X183766666Y-98452380D02*
X184433333Y-98452380D01*
X184004761Y-99452380D01*
G04 #@! TO.C,C8*
X212233333Y-99457142D02*
X212185714Y-99504761D01*
X212042857Y-99552380D01*
X211947619Y-99552380D01*
X211804761Y-99504761D01*
X211709523Y-99409523D01*
X211661904Y-99314285D01*
X211614285Y-99123809D01*
X211614285Y-98980952D01*
X211661904Y-98790476D01*
X211709523Y-98695238D01*
X211804761Y-98600000D01*
X211947619Y-98552380D01*
X212042857Y-98552380D01*
X212185714Y-98600000D01*
X212233333Y-98647619D01*
X212804761Y-98980952D02*
X212709523Y-98933333D01*
X212661904Y-98885714D01*
X212614285Y-98790476D01*
X212614285Y-98742857D01*
X212661904Y-98647619D01*
X212709523Y-98600000D01*
X212804761Y-98552380D01*
X212995238Y-98552380D01*
X213090476Y-98600000D01*
X213138095Y-98647619D01*
X213185714Y-98742857D01*
X213185714Y-98790476D01*
X213138095Y-98885714D01*
X213090476Y-98933333D01*
X212995238Y-98980952D01*
X212804761Y-98980952D01*
X212709523Y-99028571D01*
X212661904Y-99076190D01*
X212614285Y-99171428D01*
X212614285Y-99361904D01*
X212661904Y-99457142D01*
X212709523Y-99504761D01*
X212804761Y-99552380D01*
X212995238Y-99552380D01*
X213090476Y-99504761D01*
X213138095Y-99457142D01*
X213185714Y-99361904D01*
X213185714Y-99171428D01*
X213138095Y-99076190D01*
X213090476Y-99028571D01*
X212995238Y-98980952D01*
G04 #@! TO.C,R1*
X89333333Y-96452380D02*
X89000000Y-95976190D01*
X88761904Y-96452380D02*
X88761904Y-95452380D01*
X89142857Y-95452380D01*
X89238095Y-95500000D01*
X89285714Y-95547619D01*
X89333333Y-95642857D01*
X89333333Y-95785714D01*
X89285714Y-95880952D01*
X89238095Y-95928571D01*
X89142857Y-95976190D01*
X88761904Y-95976190D01*
X90285714Y-96452380D02*
X89714285Y-96452380D01*
X90000000Y-96452380D02*
X90000000Y-95452380D01*
X89904761Y-95595238D01*
X89809523Y-95690476D01*
X89714285Y-95738095D01*
G04 #@! TO.C,R2*
X118433333Y-96552380D02*
X118100000Y-96076190D01*
X117861904Y-96552380D02*
X117861904Y-95552380D01*
X118242857Y-95552380D01*
X118338095Y-95600000D01*
X118385714Y-95647619D01*
X118433333Y-95742857D01*
X118433333Y-95885714D01*
X118385714Y-95980952D01*
X118338095Y-96028571D01*
X118242857Y-96076190D01*
X117861904Y-96076190D01*
X118814285Y-95647619D02*
X118861904Y-95600000D01*
X118957142Y-95552380D01*
X119195238Y-95552380D01*
X119290476Y-95600000D01*
X119338095Y-95647619D01*
X119385714Y-95742857D01*
X119385714Y-95838095D01*
X119338095Y-95980952D01*
X118766666Y-96552380D01*
X119385714Y-96552380D01*
G04 #@! TO.C,R3*
X138633333Y-96652380D02*
X138300000Y-96176190D01*
X138061904Y-96652380D02*
X138061904Y-95652380D01*
X138442857Y-95652380D01*
X138538095Y-95700000D01*
X138585714Y-95747619D01*
X138633333Y-95842857D01*
X138633333Y-95985714D01*
X138585714Y-96080952D01*
X138538095Y-96128571D01*
X138442857Y-96176190D01*
X138061904Y-96176190D01*
X138966666Y-95652380D02*
X139585714Y-95652380D01*
X139252380Y-96033333D01*
X139395238Y-96033333D01*
X139490476Y-96080952D01*
X139538095Y-96128571D01*
X139585714Y-96223809D01*
X139585714Y-96461904D01*
X139538095Y-96557142D01*
X139490476Y-96604761D01*
X139395238Y-96652380D01*
X139109523Y-96652380D01*
X139014285Y-96604761D01*
X138966666Y-96557142D01*
G04 #@! TO.C,R4*
X163233333Y-96552380D02*
X162900000Y-96076190D01*
X162661904Y-96552380D02*
X162661904Y-95552380D01*
X163042857Y-95552380D01*
X163138095Y-95600000D01*
X163185714Y-95647619D01*
X163233333Y-95742857D01*
X163233333Y-95885714D01*
X163185714Y-95980952D01*
X163138095Y-96028571D01*
X163042857Y-96076190D01*
X162661904Y-96076190D01*
X164090476Y-95885714D02*
X164090476Y-96552380D01*
X163852380Y-95504761D02*
X163614285Y-96219047D01*
X164233333Y-96219047D01*
G04 #@! TO.C,R5*
X183433333Y-96652380D02*
X183100000Y-96176190D01*
X182861904Y-96652380D02*
X182861904Y-95652380D01*
X183242857Y-95652380D01*
X183338095Y-95700000D01*
X183385714Y-95747619D01*
X183433333Y-95842857D01*
X183433333Y-95985714D01*
X183385714Y-96080952D01*
X183338095Y-96128571D01*
X183242857Y-96176190D01*
X182861904Y-96176190D01*
X184338095Y-95652380D02*
X183861904Y-95652380D01*
X183814285Y-96128571D01*
X183861904Y-96080952D01*
X183957142Y-96033333D01*
X184195238Y-96033333D01*
X184290476Y-96080952D01*
X184338095Y-96128571D01*
X184385714Y-96223809D01*
X184385714Y-96461904D01*
X184338095Y-96557142D01*
X184290476Y-96604761D01*
X184195238Y-96652380D01*
X183957142Y-96652380D01*
X183861904Y-96604761D01*
X183814285Y-96557142D01*
G04 #@! TO.C,R6*
X212233333Y-96552380D02*
X211900000Y-96076190D01*
X211661904Y-96552380D02*
X211661904Y-95552380D01*
X212042857Y-95552380D01*
X212138095Y-95600000D01*
X212185714Y-95647619D01*
X212233333Y-95742857D01*
X212233333Y-95885714D01*
X212185714Y-95980952D01*
X212138095Y-96028571D01*
X212042857Y-96076190D01*
X211661904Y-96076190D01*
X213090476Y-95552380D02*
X212900000Y-95552380D01*
X212804761Y-95600000D01*
X212757142Y-95647619D01*
X212661904Y-95790476D01*
X212614285Y-95980952D01*
X212614285Y-96361904D01*
X212661904Y-96457142D01*
X212709523Y-96504761D01*
X212804761Y-96552380D01*
X212995238Y-96552380D01*
X213090476Y-96504761D01*
X213138095Y-96457142D01*
X213185714Y-96361904D01*
X213185714Y-96123809D01*
X213138095Y-96028571D01*
X213090476Y-95980952D01*
X212995238Y-95933333D01*
X212804761Y-95933333D01*
X212709523Y-95980952D01*
X212661904Y-96028571D01*
X212614285Y-96123809D01*
G04 #@! TO.C,R7*
X152433333Y-96452380D02*
X152100000Y-95976190D01*
X151861904Y-96452380D02*
X151861904Y-95452380D01*
X152242857Y-95452380D01*
X152338095Y-95500000D01*
X152385714Y-95547619D01*
X152433333Y-95642857D01*
X152433333Y-95785714D01*
X152385714Y-95880952D01*
X152338095Y-95928571D01*
X152242857Y-95976190D01*
X151861904Y-95976190D01*
X152766666Y-95452380D02*
X153433333Y-95452380D01*
X153004761Y-96452380D01*
G04 #@! TD*
M02*
